<svg xmlns="http://www.w3.org/2000/svg" xmlns:xlink="http://www.w3.org/1999/xlink" width="33" height="33"><defs><path id="a" d="M1192.083 500.785V508h-1.934v-7.215a7.582 7.582 0 0 0 .492-.27l-.01.006c.165-.098.327-.203.485-.314.308.217.632.41.967.578zM1178.63 508h-1.933v-9.043l.025.004a7.655 7.655 0 0 0 1.908-.003v-4.664l3.456-1.817-.9-1.711-2.556 1.343v-4.911l3.456-1.817-.9-1.712-2.556 1.344v-2.825h-1.933v6.373l-2.556-1.343-.9 1.71 3.456 1.818v8.211a7.669 7.669 0 0 1-4.772-2.521 7.668 7.668 0 0 1-1.869-6.01l1.19-9.745a6.472 6.472 0 0 1 6.418-5.681 6.472 6.472 0 0 1 6.417 5.681l1.19 9.746a7.669 7.669 0 0 1-1.869 6.009 7.67 7.67 0 0 1-4.772 2.522zm24.37-13.958c0 4.158-3.383 7.541-7.54 7.541a7.534 7.534 0 0 1-3.377-.799v-6.914l3.456-1.817-.9-1.711-2.556 1.344v-2.825h-1.934v6.333l-2.556-1.344-.9 1.711 3.456 1.817v3.407a7.535 7.535 0 0 1-8.12-.882 9.592 9.592 0 0 0 5.162-9.71l-.93-7.61a7.513 7.513 0 0 1 4.855-1.77c1.914 0 3.739.717 5.138 2.02a7.515 7.515 0 0 1 2.31 4.336 7.56 7.56 0 0 1 4.436 6.873z"/></defs><use fill="#568f0a" xlink:href="#a" transform="translate(-1170 -475)"/></svg>