<svg xmlns="http://www.w3.org/2000/svg" xmlns:xlink="http://www.w3.org/1999/xlink" width="18" height="14"><defs><path id="a" d="M41.868 946.297c-.443-.342-.73-.844-.73-1.411 0-.782.535-1.45 1.289-1.724-1.12-.01-2.029-.839-2.029-1.858 0-.582.302-1.096.765-1.437L43.866 936h10.48l2.971 3.297v1.111h-1.18l1.123 1.911v.707H58v.826h-.683v2.067H58v.826h-1.138v.362h-.949v2.066h.949V950H42.048c-1.13 0-2.048-.834-2.048-1.86 0-.97.824-1.759 1.868-1.843zm.579-3.96h13.011v-1.929H41.89c-.345.178-.581.51-.581.896 0 .57.51 1.033 1.138 1.033zm-.399 2.549c0 .57.511 1.033 1.139 1.033h13.22v-2.067h-13.22c-.628 0-1.139.464-1.139 1.034zm-1.138 3.254c0 .57.511 1.033 1.138 1.033h12.955v-2.066H42.048c-.627 0-1.138.463-1.138 1.033z"/></defs><use fill="#689a23" xlink:href="#a" transform="translate(-40 -936)"/></svg>