<svg xmlns="http://www.w3.org/2000/svg" xmlns:xlink="http://www.w3.org/1999/xlink" width="17" height="17"><defs><path id="a" d="M58 980.481v6.022c0 .825-.67 1.497-1.494 1.497h-6.01c-.175 0-.342-.03-.498-.086v-7.898h2.538c.75 0 1.403-.417 1.743-1.032h2.227c.824 0 1.494.672 1.494 1.497zm-2.18 3.011a1.455 1.455 0 0 0-1.094-2.41h-2.085a.499.499 0 0 0-.498.498v3.824c0 .275.223.499.498.499h2.086a1.455 1.455 0 0 0 1.094-2.411zm-.637.956a.457.457 0 0 1-.456.457h-1.588v-.914h1.588c.251 0 .456.205.456.457zm0-1.912a.457.457 0 0 1-.456.457h-1.588v-.914h1.588c.251 0 .456.205.456.457zm-9.506 1.315h-1.153l.576-1.155zm3.325-3.835v7.898a1.484 1.484 0 0 1-.498.086h-6.01A1.497 1.497 0 0 1 41 986.503v-6.022c0-.825.67-1.497 1.494-1.497h2.289c.34.615.994 1.032 1.743 1.032zm-1.548 5.165l-1.908-3.824a.498.498 0 0 0-.89 0l-1.909 3.824a.498.498 0 1 0 .89.446l.391-.782c.02.002.039.004.059.004h2.027c.02 0 .04-.002.059-.004l.39.782a.498.498 0 1 0 .891-.446zm6.078-13.183v6.022c0 .55-.447.998-.996.998h-6.01a.998.998 0 0 1-.996-.998v-6.022c0-.55.447-.998.996-.998h6.01c.55 0 .996.448.996.998zm-4.91 3.46v-.898c0-.532.43-.964.961-.964h1.356a.498.498 0 0 0 0-.998h-1.356c-1.08 0-1.958.88-1.958 1.962v.898c0 1.082.879 1.962 1.958 1.962h1.356a.499.499 0 0 0 0-.998h-1.356a.964.964 0 0 1-.962-.964z"/></defs><use fill="#689a23" xlink:href="#a" transform="translate(-41 -971)"/></svg>