<svg xmlns="http://www.w3.org/2000/svg" xmlns:xlink="http://www.w3.org/1999/xlink" width="21" height="21"><defs><path id="a" d="M46.383 864.347a.616.616 0 1 1-1.232-.001.616.616 0 0 1 1.232 0zm6.152 7.424c0 1.086-.257 2.13-.742 3.076h-.488a2.463 2.463 0 0 0-2.461-2.46 2.46 2.46 0 0 0-2.24 1.451 2.46 2.46 0 0 0-1.452 2.24v1.23h-2.631c-.452 0-.876-.153-1.196-.432A6.768 6.768 0 0 1 39 871.771c0-2.208 1.089-4.319 2.877-5.58a4.277 4.277 0 0 1-.416-1.844c0-2.361 1.917-4.347 4.307-4.348 2.543 0 4.336 2.064 4.305 4.4a4.314 4.314 0 0 1-.415 1.793c1.788 1.26 2.877 3.371 2.877 5.579zm-4.922-7.424a1.848 1.848 0 0 0-1.845-1.846 1.848 1.848 0 0 0-1.846 1.846c0 1.017.828 1.845 1.846 1.845a1.848 1.848 0 0 0 1.845-1.845zm2.461 10.5v4.922a1.23 1.23 0 1 1-2.46 0 1.23 1.23 0 0 1-1.231-1.23v-2.461c0-.68.55-1.23 1.23-1.23a1.23 1.23 0 1 1 2.461 0zm9.926 1.23v2.462c0 .68-.55 1.23-1.23 1.23 0 .68-.592 1.231-1.272 1.231s-1.23-.55-1.23-1.23v-4.923c0-.68.55-1.23 1.23-1.23.68 0 1.272.55 1.272 1.23.68 0 1.23.551 1.23 1.23zm-8.695 0h3.732v2.462h-3.732z"/></defs><use fill="#689a23" xlink:href="#a" transform="translate(-39 -860)"/></svg>