<svg xmlns="http://www.w3.org/2000/svg" xmlns:xlink="http://www.w3.org/1999/xlink" width="23" height="14"><defs><path id="a" d="M56.361 907.196v3.663c0 .013.005.027.005.04 0 1.713-3.074 3.101-6.864 3.101s-6.863-1.388-6.863-3.1v-3.704l6.861 2.217zM49.5 900l11.5 4.646-4.639 1.742-6.861 2.218-6.861-2.218-.56-.21 1.21-.412.114-.296-1.621.384v.427l-.29 5.124c-1.088.683-2.178 0-2.178 0-.256-1.874 1.49-5.706 1.49-5.706l.112-.35.773-.192-.129-.14-.9.08-.209.47-2.451-.921z"/></defs><use fill="#689a23" xlink:href="#a" transform="translate(-38 -900)"/></svg>