<svg xmlns="http://www.w3.org/2000/svg" xmlns:xlink="http://www.w3.org/1999/xlink" width="28" height="41" viewBox="0 0 28 41"><defs><path id="ipwda" d="M558.069 760.364c.21.24.41.394.606.501l.01.005.392.126.392-.126.01-.005c.195-.107.397-.26.607-.5 0 0 11.609-12.972 12.774-24.212.071-.58.118-1.167.118-1.764 0-7.946-6.269-14.387-14-14.387-7.734 0-14.002 6.441-14.002 14.387 0 .607.047 1.2.12 1.789 1.196 11.235 12.973 24.186 12.973 24.186z"/></defs><g><g transform="translate(-545 -720)"><use fill="#568f0a" xlink:href="#ipwda"/></g></g></svg>