<svg xmlns="http://www.w3.org/2000/svg" xmlns:xlink="http://www.w3.org/1999/xlink" width="19" height="23" viewBox="0 0 19 23"><defs><path id="rfsda" d="M49.317 826.111h-3.653c.283-.448.59-.862.988-1.217a7.38 7.38 0 0 1 2.219-1.365 7.755 7.755 0 0 1 4.904-.242c2.15.605 3.837 2.243 4.667 4.269a7.347 7.347 0 0 1 .259 4.884c-.904 3.078-3.739 5.264-6.933 5.264h-2.71v-2.663h2.71c2.29 0 4.307-1.8 4.59-4.092.34-2.774-1.671-5.579-4.566-5.579-.902 0-1.768.288-2.475.741zm-9.313 1.655a.721.721 0 0 1 .715-.803h12.888c.427 0 .763.375.715.803-.357 3.275-2.873 5.896-6.08 6.382v4.662a23.663 23.663 0 0 0-2.158-.634v-4.028c-3.209-.486-5.722-3.107-6.08-6.382zM45.031 846a.363.363 0 0 1-.355-.424 2.543 2.543 0 0 1 1.403-1.873v-1.174c.638.184 1.398.359 2.159.678v.496c.081.041.163.085.24.133a2.543 2.543 0 0 1 1.163 1.74.362.362 0 0 1-.355.424zm.583-7.072a22.048 22.048 0 0 1 2.624.755c2.017.714 3.96 1.719 5.588 3.127a1.337 1.337 0 0 1 .366 1.5l-.028.068a1.326 1.326 0 0 1-.195.308 1.312 1.312 0 0 1-1.86.143c-1.85-1.6-4.233-2.597-6.579-3.19h-.002c-.518-.13-1.039-.242-1.5-.53a3.317 3.317 0 0 1-1.544-2.788c0-1.762 1.027-3.205 2.756-3.275v2.675c-.681.155-.681.972.374 1.207z"/></defs><g><g transform="translate(-40 -823)"><use fill="#689a23" xlink:href="#rfsda"/></g></g></svg>