<svg xmlns="http://www.w3.org/2000/svg" xmlns:xlink="http://www.w3.org/1999/xlink" width="19" height="19" viewBox="0 0 19 19"><defs><path id="nx6ha" d="M59 795.333a.37.37 0 0 0-.116-.27.37.37 0 0 0-.27-.116h-5.175a.37.37 0 0 1-.27-.116.37.37 0 0 1-.116-.27v-5.175a.37.37 0 0 0-.116-.27.37.37 0 0 0-.27-.116h-6.334a.37.37 0 0 0-.27.116.37.37 0 0 0-.116.27v5.175a.37.37 0 0 1-.116.27.37.37 0 0 1-.27.116h-5.175a.37.37 0 0 0-.27.116.37.37 0 0 0-.116.27v6.334a.37.37 0 0 0 .116.27.37.37 0 0 0 .27.116h5.175a.37.37 0 0 1 .27.116.37.37 0 0 1 .116.27v5.175a.37.37 0 0 0 .116.27.37.37 0 0 0 .27.116h6.334a.37.37 0 0 0 .27-.116.37.37 0 0 0 .116-.27v-5.175a.37.37 0 0 1 .116-.27.371.371 0 0 1 .27-.116h5.175a.37.37 0 0 0 .27-.116.37.37 0 0 0 .116-.27v-6.334z"/></defs><g><g transform="translate(-40 -789)"><use fill="#689a23" xlink:href="#nx6ha"/></g></g></svg>