<?xml version="1.0" encoding="UTF-8" standalone="no"?>
<!-- Created with Inkscape (http://www.inkscape.org/) -->

<svg
   xmlns:dc="http://purl.org/dc/elements/1.1/"
   xmlns:cc="http://creativecommons.org/ns#"
   xmlns:rdf="http://www.w3.org/1999/02/22-rdf-syntax-ns#"
   xmlns:svg="http://www.w3.org/2000/svg"
   xmlns="http://www.w3.org/2000/svg"
   xmlns:sodipodi="http://sodipodi.sourceforge.net/DTD/sodipodi-0.dtd"
   xmlns:inkscape="http://www.inkscape.org/namespaces/inkscape"
   id="svg2"
   version="1.1"
   inkscape:version="0.91 r13725"
   xml:space="preserve"
   width="240"
   height="41"
   viewBox="0 0 240 41"
   sodipodi:docname="logo-ico.svg"><metadata
     id="metadata8"><rdf:RDF><cc:Work
         rdf:about=""><dc:format>image/svg+xml</dc:format><dc:type
           rdf:resource="http://purl.org/dc/dcmitype/StillImage" /><dc:title></dc:title></cc:Work></rdf:RDF></metadata><defs
     id="defs6"><clipPath
       clipPathUnits="userSpaceOnUse"
       id="clipPath16"><path
         d="M 0,305 409,305 409,0 0,0 0,305 Z"
         id="path18"
         inkscape:connector-curvature="0" /></clipPath></defs><sodipodi:namedview
     pagecolor="#ffffff"
     bordercolor="#666666"
     borderopacity="1"
     objecttolerance="10"
     gridtolerance="10"
     guidetolerance="10"
     inkscape:pageopacity="0"
     inkscape:pageshadow="2"
     inkscape:window-width="1920"
     inkscape:window-height="1011"
     id="namedview4"
     showgrid="false"
     showguides="true"
     inkscape:guide-bbox="true"
     inkscape:zoom="1.7508428"
     inkscape:cx="126.99781"
     inkscape:cy="-2.055006"
     inkscape:window-x="0"
     inkscape:window-y="24"
     inkscape:window-maximized="1"
     inkscape:current-layer="g14"><sodipodi:guide
       position="255.30562,224.46333"
       orientation="0,1"
       id="guide4292" /></sodipodi:namedview><g
     id="g10"
     inkscape:groupmode="layer"
     inkscape:label="logo_ukr_big_color (1)"
     transform="matrix(1.25,0,0,-1.25,0,41)"><g
       id="g12"><g
         id="g14"
         clip-path="url(#clipPath16)"><g
           id="g20"
           transform="matrix(0.39098173,0,0,0.39098173,68.461073,12.203025)"><path
             d="m 0,0 c 0.648,-0.085 1.215,-0.136 1.7,-0.153 0.486,-0.017 1.053,-0.026 1.701,-0.026 1.482,0 2.885,0.221 4.206,0.664 1.321,0.443 2.471,1.085 3.452,1.928 0.98,0.843 1.756,1.868 2.327,3.077 0.571,1.209 0.857,2.579 0.857,4.111 0,1.651 -0.265,3.055 -0.793,4.213 -0.529,1.158 -1.27,2.098 -2.225,2.822 -0.955,0.723 -2.097,1.246 -3.426,1.57 -1.33,0.324 -2.796,0.486 -4.398,0.486 -0.938,0 -1.641,-0.149 -2.11,-0.447 C 0.822,17.946 0.49,17.525 0.294,16.981 0.098,16.436 0,15.785 0,15.027 L 0,12.486 0,0 Z m 1.867,-2.199 -0.806,0 c -0.366,0 -0.72,0.008 -1.061,0.026 l 0,-7.585 c 0,-0.957 -0.013,-1.778 -0.039,-2.461 -0.025,-0.683 -0.072,-1.247 -0.14,-1.691 l 4.832,0.256 0,-2.327 -12.836,0 0,1.713 c 0.989,0.034 1.731,0.213 2.225,0.537 0.494,0.324 0.844,0.768 1.048,1.33 0.205,0.564 0.311,1.234 0.32,2.01 0.008,0.776 0.013,1.625 0.013,2.547 l 0,22.646 c 0,0.717 0.013,1.395 0.038,2.034 0.026,0.64 0.073,1.225 0.141,1.753 l -3.785,-0.23 0,2.327 c 1.842,0.034 3.734,0.056 5.677,0.064 1.943,0.008 3.946,0.013 6.009,0.013 5.08,0 8.941,-0.853 11.583,-2.557 2.83,-1.858 4.245,-4.577 4.245,-8.157 C 19.331,9.316 19.25,8.506 19.088,7.62 18.926,6.733 18.598,5.818 18.103,4.871 17.609,3.925 16.931,3.021 16.071,2.161 15.21,1.3 14.127,0.55 12.823,-0.09 11.519,-0.729 9.964,-1.24 8.157,-1.624 6.35,-2.007 4.253,-2.199 1.867,-2.199"
             style="fill:#181715;fill-opacity:1;fill-rule:nonzero;stroke:none"
             id="path22"
             inkscape:connector-curvature="0" /></g><g
           id="g24"
           transform="matrix(0.39098173,0,0,0.39098173,81.221072,15.712319)"><path
             d="m 0,0 c -2.046,0 -3.733,-0.599 -5.062,-1.797 -1.33,-1.198 -2.209,-3.139 -2.634,-5.823 l 13.347,0 c 0,0.917 -0.102,1.83 -0.307,2.74 C 5.14,-3.971 4.811,-3.156 4.36,-2.434 3.908,-1.713 3.324,-1.126 2.608,-0.676 1.892,-0.225 1.023,0 0,0 M 10.586,-9.512 -7.85,-9.819 c -0.017,-2.016 0.136,-3.843 0.461,-5.483 0.323,-1.639 0.835,-3.04 1.534,-4.202 0.699,-1.161 1.598,-2.058 2.697,-2.69 1.1,-0.631 2.417,-0.947 3.951,-0.947 0.818,0 1.653,0.111 2.506,0.334 0.852,0.223 1.675,0.527 2.467,0.913 0.793,0.386 1.522,0.849 2.187,1.389 0.664,0.54 1.218,1.118 1.662,1.736 l 1.278,-1.048 c -0.716,-1.091 -1.547,-2.016 -2.493,-2.774 -0.946,-0.759 -1.927,-1.378 -2.941,-1.854 -1.014,-0.478 -2.032,-0.823 -3.055,-1.036 -1.023,-0.213 -1.978,-0.32 -2.864,-0.32 -1.807,0 -3.49,0.325 -5.05,0.972 -1.56,0.648 -2.911,1.577 -4.053,2.787 -1.142,1.21 -2.042,2.668 -2.698,4.373 -0.656,1.704 -0.984,3.622 -0.984,5.753 0,1.842 0.315,3.601 0.946,5.28 0.63,1.679 1.525,3.167 2.685,4.462 1.159,1.295 2.548,2.327 4.168,3.094 1.619,0.767 3.418,1.151 5.395,1.151 1.449,0 2.817,-0.239 4.104,-0.716 1.287,-0.478 2.416,-1.194 3.388,-2.148 0.972,-0.955 1.739,-2.161 2.301,-3.618 0.563,-1.458 0.844,-3.158 0.844,-5.101"
             style="fill:#181715;fill-opacity:1;fill-rule:nonzero;stroke:none"
             id="path26"
             inkscape:connector-curvature="0" /></g><g
           id="g28"
           transform="matrix(0.39098173,0,0,0.39098173,92.293869,15.402152)"><path
             d="m 0,0 c -0.665,0.017 -1.339,-0.106 -2.02,-0.37 -0.682,-0.265 -1.351,-0.653 -2.007,-1.164 -0.657,-0.511 -1.275,-1.125 -1.854,-1.841 -0.58,-0.716 -1.1,-1.509 -1.56,-2.378 l 0.051,-12.862 c 0,-0.699 -0.008,-1.316 -0.025,-1.853 -0.017,-0.538 -0.077,-1.105 -0.179,-1.701 l 3.298,0.153 0,-2.147 -10.739,0 0,1.559 c 0.801,0 1.41,0.158 1.828,0.473 0.418,0.315 0.72,0.754 0.908,1.317 0.187,0.563 0.294,1.236 0.32,2.021 0.025,0.783 0.038,1.644 0.038,2.582 l 0,11.967 c 0,0.545 0.008,1.095 0.025,1.648 0.017,0.555 0.077,1.13 0.179,1.727 l -3.707,-0.154 0,2.149 1.611,0 c 0.749,0 1.372,0.037 1.866,0.115 0.494,0.076 0.908,0.183 1.24,0.319 0.333,0.136 0.61,0.285 0.832,0.447 0.221,0.162 0.434,0.337 0.639,0.524 l 1.508,0 c 0.052,-0.545 0.098,-1.223 0.141,-2.032 0.042,-0.81 0.08,-1.854 0.115,-3.132 0.392,0.647 0.895,1.299 1.508,1.956 0.614,0.656 1.305,1.244 2.072,1.764 0.767,0.52 1.594,0.946 2.48,1.278 0.886,0.333 1.798,0.499 2.736,0.499 C 1.781,2.864 2.246,2.8 2.698,2.672 3.149,2.544 3.541,2.344 3.874,2.071 4.206,1.798 4.475,1.458 4.679,1.049 4.884,0.639 4.986,0.145 4.986,-0.435 4.986,-0.673 4.939,-0.937 4.846,-1.227 4.752,-1.517 4.598,-1.79 4.386,-2.045 4.172,-2.301 3.904,-2.515 3.58,-2.685 3.256,-2.855 2.855,-2.94 2.378,-2.94 c -0.392,0 -0.746,0.085 -1.061,0.255 -0.316,0.17 -0.58,0.388 -0.793,0.653 -0.213,0.264 -0.367,0.57 -0.46,0.92 C -0.03,-0.762 -0.051,-0.392 0,0"
             style="fill:#181715;fill-opacity:1;fill-rule:nonzero;stroke:none"
             id="path30"
             inkscape:connector-curvature="0" /></g><g
           id="g32"
           transform="matrix(0.39098173,0,0,0.39098173,101.21371,20.420759)"><path
             d="M 0,0 C -0.255,0.341 -0.601,0.58 -1.036,0.717 -1.47,0.853 -1.875,0.921 -2.25,0.921 -3.068,0.921 -3.742,0.737 -4.27,0.371 -4.799,0.004 -5.216,-0.477 -5.523,-1.073 -5.83,-1.67 -6.047,-2.339 -6.175,-3.081 -6.303,-3.823 -6.367,-4.568 -6.367,-5.318 l 0,-5.497 7.058,0 0,-2.046 -7.058,-0.128 0.051,-18.462 c 0,-0.699 -0.008,-1.316 -0.025,-1.853 -0.017,-0.538 -0.086,-1.105 -0.205,-1.701 l 3.299,0.153 0,-2.147 -10.663,0 0,1.559 c 0.801,0 1.41,0.158 1.828,0.474 0.418,0.314 0.721,0.754 0.908,1.316 0.188,0.563 0.29,1.236 0.307,2.021 0.017,0.783 0.026,1.644 0.026,2.582 l -0.052,15.955 -4.295,-0.076 0,2.353 4.295,0 0,1.099 c 0,1.943 0.166,3.686 0.499,5.229 0.332,1.542 0.873,2.851 1.624,3.925 0.75,1.074 1.726,1.9 2.928,2.48 1.201,0.58 2.663,0.87 4.385,0.87 0.562,0 1.172,-0.073 1.828,-0.218 C 1.027,2.425 1.632,2.195 2.186,1.88 2.74,1.564 3.205,1.163 3.58,0.678 c 0.375,-0.486 0.562,-1.07 0.562,-1.751 0,-0.7 -0.204,-1.271 -0.613,-1.714 -0.409,-0.443 -0.93,-0.665 -1.56,-0.665 -0.443,0 -0.801,0.073 -1.074,0.218 -0.273,0.145 -0.499,0.328 -0.677,0.55 -0.179,0.221 -0.307,0.46 -0.384,0.716 -0.077,0.256 -0.115,0.485 -0.115,0.69 0,0.205 0.021,0.413 0.064,0.626 C -0.175,-0.438 -0.102,-0.221 0,0"
             style="fill:#181715;fill-opacity:1;fill-rule:nonzero;stroke:none"
             id="path34"
             inkscape:connector-curvature="0" /></g><g
           id="g36"
           transform="matrix(0.39098173,0,0,0.39098173,107.24,15.712319)"><path
             d="M 0,0 C -2.046,0 -3.733,-0.599 -5.063,-1.797 -6.392,-2.995 -7.271,-4.936 -7.697,-7.62 l 13.348,0 c 0,0.917 -0.102,1.83 -0.307,2.74 C 5.139,-3.971 4.811,-3.156 4.36,-2.434 3.908,-1.713 3.324,-1.126 2.608,-0.676 1.892,-0.225 1.023,0 0,0 M 10.586,-9.512 -7.85,-9.819 c -0.017,-2.016 0.136,-3.843 0.46,-5.483 0.324,-1.639 0.835,-3.04 1.534,-4.202 0.699,-1.161 1.599,-2.058 2.698,-2.69 1.1,-0.631 2.417,-0.947 3.951,-0.947 0.818,0 1.653,0.111 2.505,0.334 0.853,0.223 1.676,0.527 2.468,0.913 0.793,0.386 1.521,0.849 2.186,1.389 0.665,0.54 1.219,1.118 1.662,1.736 l 1.279,-1.048 c -0.716,-1.091 -1.547,-2.016 -2.493,-2.774 -0.946,-0.759 -1.927,-1.378 -2.941,-1.854 -1.014,-0.478 -2.033,-0.823 -3.055,-1.036 -1.023,-0.213 -1.978,-0.32 -2.864,-0.32 -1.807,0 -3.49,0.325 -5.05,0.972 -1.56,0.648 -2.912,1.577 -4.053,2.787 -1.143,1.21 -2.042,2.668 -2.698,4.373 -0.656,1.704 -0.984,3.622 -0.984,5.753 0,1.842 0.315,3.601 0.946,5.28 0.63,1.679 1.525,3.167 2.685,4.462 1.159,1.295 2.548,2.327 4.168,3.094 1.619,0.767 3.417,1.151 5.395,1.151 1.449,0 2.816,-0.239 4.104,-0.716 1.287,-0.478 2.416,-1.194 3.388,-2.148 0.971,-0.955 1.739,-2.161 2.301,-3.618 0.563,-1.458 0.844,-3.158 0.844,-5.101"
             style="fill:#181715;fill-opacity:1;fill-rule:nonzero;stroke:none"
             id="path38"
             inkscape:connector-curvature="0" /></g><g
           id="g40"
           transform="matrix(0.39098173,0,0,0.39098173,119.8123,14.624724)"><path
             d="m 0,0 c -0.239,0.614 -0.588,1.104 -1.048,1.471 -0.46,0.366 -0.959,0.651 -1.496,0.856 -0.537,0.204 -1.074,0.336 -1.611,0.396 -0.537,0.06 -0.984,0.09 -1.342,0.09 -1.194,0 -2.306,-0.243 -3.337,-0.728 -1.032,-0.487 -1.922,-1.199 -2.673,-2.136 -0.75,-0.938 -1.342,-2.106 -1.777,-3.503 -0.434,-1.398 -0.652,-3 -0.652,-4.807 0,-1.739 0.218,-3.346 0.652,-4.82 0.435,-1.475 1.045,-2.745 1.829,-3.81 0.784,-1.066 1.73,-1.897 2.838,-2.493 1.108,-0.597 2.335,-0.895 3.682,-0.895 0.819,0 1.628,0.115 2.43,0.345 0.801,0.23 1.559,0.55 2.275,0.959 0.716,0.409 1.377,0.886 1.982,1.432 0.605,0.546 1.121,1.134 1.547,1.764 l 1.355,-1.048 c -0.699,-1.091 -1.496,-2.025 -2.391,-2.8 -0.895,-0.776 -1.833,-1.415 -2.812,-1.918 -0.981,-0.503 -1.969,-0.873 -2.966,-1.112 -0.998,-0.239 -1.94,-0.358 -2.826,-0.358 -1.773,0 -3.444,0.303 -5.012,0.908 -1.568,0.605 -2.94,1.483 -4.117,2.633 -1.176,1.151 -2.105,2.561 -2.787,4.233 -0.682,1.669 -1.022,3.57 -1.022,5.701 0,1.211 0.149,2.404 0.447,3.58 0.298,1.176 0.729,2.297 1.291,3.362 0.563,1.066 1.245,2.055 2.046,2.967 0.801,0.912 1.709,1.7 2.723,2.365 1.014,0.665 2.123,1.185 3.324,1.56 1.202,0.374 2.476,0.562 3.823,0.562 1.449,0 2.77,-0.179 3.963,-0.537 C -0.469,3.861 0.554,3.384 1.407,2.787 2.259,2.191 2.915,1.505 3.376,0.729 c 0.46,-0.776 0.69,-1.59 0.69,-2.442 0,-0.75 -0.209,-1.393 -0.626,-1.93 -0.419,-0.538 -1.02,-0.815 -1.803,-0.831 -0.461,-0.018 -0.844,0.055 -1.151,0.217 -0.307,0.162 -0.554,0.362 -0.741,0.601 -0.188,0.238 -0.325,0.498 -0.41,0.78 -0.085,0.281 -0.127,0.532 -0.127,0.754 0,0.341 0.055,0.699 0.166,1.074 C -0.515,-0.673 -0.306,-0.324 0,0"
             style="fill:#181715;fill-opacity:1;fill-rule:nonzero;stroke:none"
             id="path42"
             inkscape:connector-curvature="0" /></g><g
           id="g44"
           transform="matrix(0.39098173,0,0,0.39098173,122.27951,16.192092)"><path
             d="M 0,0 C 0.921,0.016 1.756,0.269 2.506,0.754 3.256,1.24 3.917,1.845 4.488,2.57 5.059,3.294 5.54,4.082 5.932,4.935 6.324,5.787 6.631,6.588 6.853,7.339 l 1.79,0 C 8.643,5.941 8.639,4.636 8.63,3.427 8.621,2.215 8.617,1.073 8.617,0 l 8.822,0 0,-2.046 -8.822,-0.102 C 8.6,-4.415 8.592,-6.35 8.592,-7.952 c 0,-1.603 -0.005,-2.941 -0.013,-4.015 -0.009,-1.074 -0.013,-1.922 -0.013,-2.544 0,-0.622 -0.004,-1.096 -0.013,-1.419 -0.009,-0.324 -0.013,-0.533 -0.013,-0.626 l 0,-0.167 c 0,-1.194 0.064,-2.246 0.192,-3.158 0.128,-0.912 0.345,-1.679 0.653,-2.301 0.306,-0.622 0.711,-1.091 1.214,-1.407 0.503,-0.315 1.138,-0.473 1.905,-0.473 0.903,0 1.798,0.273 2.684,0.819 0.887,0.545 1.671,1.32 2.353,2.327 l 1.406,-1.151 c -0.767,-1.16 -1.53,-2.067 -2.288,-2.723 -0.759,-0.657 -1.479,-1.151 -2.16,-1.483 -0.683,-0.333 -1.318,-0.541 -1.905,-0.626 -0.589,-0.086 -1.105,-0.129 -1.548,-0.129 -0.528,0 -1.07,0.043 -1.623,0.129 -0.554,0.085 -1.1,0.251 -1.637,0.498 -0.537,0.247 -1.04,0.597 -1.509,1.048 -0.469,0.452 -0.882,1.036 -1.239,1.751 -0.359,0.717 -0.64,1.586 -0.844,2.609 -0.205,1.023 -0.299,2.233 -0.282,3.631 L 4.015,-2.225 0,-2.251 0,0 Z"
             style="fill:#181715;fill-opacity:1;fill-rule:nonzero;stroke:none"
             id="path46"
             inkscape:connector-curvature="0" /></g><g
           id="g48"
           transform="matrix(0.39098173,0,0,0.39098173,41.371769,15.510937)"><path
             d="m 0,0 c -1.17,0 -2.12,0.949 -2.12,2.12 0,1.169 0.95,2.119 2.12,2.119 1.171,0 2.12,-0.95 2.12,-2.119 C 2.12,0.949 1.171,0 0,0"
             style="fill:#006241;fill-opacity:1;fill-rule:nonzero;stroke:none"
             id="path50"
             inkscape:connector-curvature="0" /></g><g
           id="g52"
           transform="matrix(0.39098173,0,0,0.39098173,17.261881,15.510937)"><path
             d="m 0,0 c -1.17,0 -2.12,0.949 -2.12,2.12 0,1.169 0.95,2.119 2.12,2.119 1.17,0 2.12,-0.95 2.12,-2.119 C 2.12,0.949 1.17,0 0,0"
             style="fill:#006241;fill-opacity:1;fill-rule:nonzero;stroke:none"
             id="path54"
             inkscape:connector-curvature="0" /></g><g
           id="g56"
           transform="matrix(0.39098173,0,0,0.39098173,29.316825,17.023409)"><path
             d="m 0,0 c -1.17,0 -2.12,0.948 -2.12,2.12 0,1.169 0.95,2.119 2.12,2.119 1.171,0 2.12,-0.95 2.12,-2.119 C 2.12,0.948 1.171,0 0,0"
             style="fill:#006241;fill-opacity:1;fill-rule:nonzero;stroke:none"
             id="path58"
             inkscape:connector-curvature="0" /></g><g
           id="g60"
           transform="matrix(0.39098173,0,0,0.39098173,48.115304,12.140517)"><path
             d="m 0,0 c 0,0 -4.72,2.005 -13.146,4.205 -9.468,2.473 -22.9,3.558 -34.934,3.58 C -60.114,7.763 -73.464,6.32 -83.014,4.205 -90.912,2.457 -96.16,0 -96.16,0 l -9.482,10.029 c 0,0 10.326,-1.427 15.488,0.711 5.162,2.138 7.625,11.584 7.625,11.584 0,0 11.475,-8.831 18.225,-8.426 6.751,0.408 16.224,13.297 16.224,13.297 0,0 9.473,-12.889 16.224,-13.297 6.75,-0.405 18.226,8.426 18.226,8.426 0,0 2.463,-9.446 7.624,-11.584 C -0.843,8.602 9.482,10.029 9.482,10.029 L 0,0 Z m -2.642,-5.295 c -0.583,-1.955 -1.5,-12.983 -2.564,-15.502 -2.606,2.1 -21.161,6.767 -42.814,6.767 -0.02,0 -0.039,-0.001 -0.06,-0.001 -0.021,0 -0.04,0.001 -0.061,0.001 -21.652,0 -40.207,-4.667 -42.813,-6.767 -1.063,2.519 -1.9,13.574 -2.564,15.502 -0.315,0.915 0.261,1.724 0.261,1.724 3.001,4.079 21.917,8.906 44.865,8.906 l 0.624,0 c 22.949,0 41.864,-4.827 44.865,-8.906 0,0 0.507,-0.899 0.261,-1.724 m -45.163,-22.661 c -0.093,0 -0.182,0.001 -0.275,0.001 -0.093,0 -0.182,-0.001 -0.275,-0.001 -21.114,0 -36.96,2.71 -40.292,4.466 2.076,1.983 18.603,6.164 40.292,6.164 0.093,0 0.183,-0.002 0.275,-0.002 0.092,0 0.183,0.002 0.275,0.002 21.689,0 38.216,-4.181 40.292,-6.164 -3.331,-1.756 -19.178,-4.466 -40.292,-4.466 m 74.217,49.103 c -0.5,0.673 -7.246,-0.88 -9.249,-0.568 -1.67,0.604 -2.613,2.487 -4.103,2.537 -1.972,0.067 -3.422,-1.234 -3.422,-3.133 0,-0.23 0.026,-0.453 0.07,-0.671 -1.27,-3.479 -7.086,-6.42 -10.796,-5.847 -5.489,0.848 -6.63,5.204 -7.642,8.82 -0.486,1.741 2.227,1.261 2.64,3.74 0.338,2.04 -0.817,3.699 -3.483,4.429 1.353,0.403 2.331,1.491 2.331,2.782 0,1.633 -0.306,3.785 -2.634,4.225 -2.114,0.397 -4.302,-2.592 -4.302,-4.225 0,-0.995 0.582,-1.873 1.466,-2.408 -4.005,-0.081 -7.025,-1.312 -6.712,-3.898 0.115,-0.939 0.78,-1.688 0.508,-2.373 -0.274,-0.685 -6.894,-6.562 -11.254,-6.562 -4.735,0 -11.42,5.957 -11.943,8.173 -0.106,0.003 2.948,1.702 3.171,3.484 0.408,3.272 -2.5,5.84 -5.973,6.815 0.365,0.572 0.58,1.255 0.58,1.993 0,1.992 -1.651,6.051 -3.566,6.051 -0.06,0 -0.119,-0.014 -0.179,-0.022 -0.06,0.008 -0.119,0.022 -0.18,0.022 -1.915,0 -3.565,-4.059 -3.565,-6.051 0,-0.738 0.215,-1.421 0.581,-1.993 -3.475,-0.975 -6.383,-3.543 -5.974,-6.815 0.223,-1.782 3.276,-3.481 3.171,-3.484 -0.523,-2.216 -7.207,-8.173 -11.943,-8.173 -4.36,0 -10.98,5.877 -11.253,6.562 -0.274,0.685 0.392,1.434 0.506,2.373 0.313,2.586 -2.706,3.817 -6.711,3.898 0.885,0.535 1.466,1.413 1.466,2.408 0,1.633 -2.188,4.622 -4.302,4.225 -2.328,-0.44 -2.634,-2.592 -2.634,-4.225 0,-1.291 0.977,-2.379 2.331,-2.782 -2.666,-0.73 -3.822,-2.389 -3.483,-4.429 0.412,-2.479 3.126,-1.999 2.64,-3.74 -1.012,-3.616 -2.153,-7.972 -7.642,-8.82 -3.71,-0.573 -9.526,2.368 -10.796,5.847 0.044,0.218 0.069,0.441 0.069,0.671 0,1.899 -1.449,3.2 -3.421,3.133 -1.49,-0.05 -2.433,-1.933 -4.103,-2.537 -2.003,-0.312 -8.749,1.241 -9.248,0.568 0,0 -0.451,-0.486 -0.451,-1.185 0,-0.547 24.408,-20.74 26.278,-23.231 1.813,-2.417 4.064,-17.417 5.072,-20.515 0.051,-0.362 0.192,-0.714 0.441,-1.029 2.775,-3.497 24.409,-5.846 42.876,-5.846 0.092,0 0.184,10e-4 0.275,10e-4 0.092,0 0.183,-10e-4 0.275,-10e-4 18.467,0 40.102,2.349 42.875,5.846 0.25,0.315 0.392,0.667 0.441,1.029 1.009,3.098 3.26,18.098 5.073,20.515 1.87,2.491 26.277,22.684 26.277,23.231 0,0.699 -0.449,1.185 -0.449,1.185"
             style="fill:#006241;fill-opacity:1;fill-rule:nonzero;stroke:none"
             id="path62"
             inkscape:connector-curvature="0" /></g><g
           id="g64"
           transform="matrix(0.39098173,0,0,0.39098173,29.316825,13.083252)"><path
             d="m 0,0 c -3.18,0 -5.759,-2.977 -5.759,-6.645 0,-3.67 2.579,-6.645 5.759,-6.645 3.181,0 5.759,2.975 5.759,6.645 C 5.759,-2.977 3.181,0 0,0"
             style="fill:#006241;fill-opacity:1;fill-rule:nonzero;stroke:none"
             id="path66"
             inkscape:connector-curvature="0" /></g><g
           id="g68"
           transform="matrix(0.39098173,0,0,0.39098173,39.34574,6.7747232)"><path
             d="M 0,0 C 2.632,-0.741 5.481,1.193 6.361,4.321 7.241,7.45 5.82,10.59 3.188,11.328 0.553,12.067 -2.295,10.133 -3.176,7.004 -4.057,3.876 -2.634,0.74 0,0"
             style="fill:#006241;fill-opacity:1;fill-rule:nonzero;stroke:none"
             id="path70"
             inkscape:connector-curvature="0" /></g><g
           id="g72"
           transform="matrix(0.39098173,0,0,0.39098173,19.288182,6.7747232)"><path
             d="M 0,0 C -2.632,-0.741 -5.481,1.193 -6.361,4.321 -7.242,7.45 -5.82,10.59 -3.188,11.328 -0.553,12.067 2.294,10.133 3.175,7.004 4.057,3.876 2.634,0.74 0,0"
             style="fill:#006241;fill-opacity:1;fill-rule:nonzero;stroke:none"
             id="path74"
             inkscape:connector-curvature="0" /></g><g
           id="g76"
           transform="matrix(0.39098173,0,0,0.39098173,149.22475,6.6568739)"><path
             d="m 0,0 -1.432,0 c -0.579,0 -1.347,-0.102 -2.301,-0.307 -0.955,-0.205 -2.071,-0.554 -3.35,-1.048 -0.545,-0.205 -1.142,-0.392 -1.789,-0.562 -0.648,-0.171 -1.309,-0.316 -1.982,-0.435 -0.674,-0.119 -1.343,-0.213 -2.008,-0.282 -0.664,-0.068 -1.287,-0.102 -1.866,-0.102 -2.626,0 -5.029,0.422 -7.211,1.265 -2.182,0.844 -4.057,2.055 -5.625,3.632 -1.569,1.576 -2.787,3.503 -3.657,5.778 -0.869,2.276 -1.304,4.846 -1.304,7.71 0,1.636 0.166,3.268 0.499,4.896 0.332,1.629 0.835,3.18 1.508,4.654 0.673,1.474 1.513,2.847 2.519,4.117 1.006,1.27 2.186,2.373 3.542,3.311 1.355,0.938 2.88,1.671 4.577,2.199 1.695,0.529 3.558,0.793 5.586,0.793 0.938,0 1.893,-0.068 2.865,-0.205 0.971,-0.137 1.925,-0.328 2.863,-0.575 0.938,-0.247 1.841,-0.549 2.711,-0.907 0.869,-0.358 1.67,-0.759 2.403,-1.202 l -0.23,2.506 2.889,0 0,-11.993 -1.892,0 c -0.119,1.641 -0.485,3.102 -1.099,4.383 -0.614,1.282 -1.419,2.359 -2.416,3.23 -0.998,0.871 -2.157,1.538 -3.478,2 -1.321,0.461 -2.74,0.692 -4.258,0.692 -1.858,0 -3.605,-0.414 -5.241,-1.242 -1.637,-0.827 -3.06,-1.978 -4.271,-3.454 -1.21,-1.476 -2.169,-3.233 -2.876,-5.271 -0.708,-2.039 -1.061,-4.278 -1.061,-6.717 0,-2.474 0.34,-4.756 1.022,-6.846 0.682,-2.09 1.641,-3.889 2.877,-5.399 1.236,-1.51 2.715,-2.691 4.436,-3.544 1.722,-0.853 3.614,-1.279 5.677,-1.279 0.698,0 1.432,0.051 2.199,0.153 0.767,0.102 1.538,0.256 2.314,0.46 0.775,0.205 1.542,0.474 2.301,0.806 0.759,0.332 1.479,0.728 2.161,1.189 l 0,11.455 -3.682,-0.205 0,2.301 11.839,0 0,-1.712 C 3.111,14.243 2.565,14.119 2.122,13.872 1.679,13.625 1.321,13.309 1.049,12.925 0.776,12.542 0.567,12.116 0.422,11.647 0.277,11.178 0.175,10.714 0.115,10.254 0.055,9.794 0.022,9.363 0.013,8.963 0.004,8.562 0,8.242 0,8.003 L 0,0 Z"
             style="fill:#006241;fill-opacity:1;fill-rule:nonzero;stroke:none"
             id="path78"
             inkscape:connector-curvature="0" /></g><g
           id="g80"
           transform="matrix(0.39098173,0,0,0.39098173,157.53054,15.364544)"><path
             d="m 0,0 c -0.665,0.017 -1.339,-0.106 -2.02,-0.37 -0.682,-0.265 -1.352,-0.653 -2.008,-1.164 -0.656,-0.511 -1.274,-1.125 -1.853,-1.841 -0.58,-0.716 -1.1,-1.509 -1.561,-2.379 l 0.052,-12.861 c 0,-0.699 -0.009,-1.316 -0.025,-1.854 -0.018,-0.537 -0.077,-1.104 -0.18,-1.7 l 3.299,0.153 0,-2.148 -10.739,0 0,1.56 c 0.8,0 1.41,0.158 1.828,0.473 0.417,0.315 0.719,0.754 0.908,1.317 0.187,0.562 0.294,1.236 0.319,2.02 0.025,0.784 0.039,1.645 0.039,2.583 l 0,11.967 c 0,0.545 0.008,1.094 0.025,1.649 0.017,0.554 0.077,1.129 0.179,1.726 l -3.708,-0.154 0,2.148 1.612,0 c 0.749,0 1.371,0.038 1.866,0.115 0.494,0.077 0.908,0.183 1.24,0.319 0.332,0.137 0.609,0.286 0.831,0.449 0.221,0.161 0.435,0.336 0.639,0.523 l 1.509,0 c 0.051,-0.545 0.098,-1.223 0.14,-2.032 0.043,-0.81 0.081,-1.854 0.116,-3.132 0.392,0.647 0.894,1.299 1.508,1.956 0.614,0.656 1.304,1.244 2.071,1.764 0.767,0.519 1.594,0.946 2.481,1.278 0.886,0.333 1.798,0.499 2.735,0.499 C 1.781,2.864 2.245,2.8 2.698,2.672 3.149,2.544 3.541,2.344 3.873,2.071 4.206,1.798 4.474,1.458 4.679,1.049 4.883,0.639 4.986,0.145 4.986,-0.435 4.986,-0.674 4.938,-0.937 4.845,-1.228 4.751,-1.518 4.598,-1.79 4.385,-2.045 4.171,-2.301 3.904,-2.515 3.58,-2.685 3.256,-2.855 2.855,-2.94 2.378,-2.94 c -0.393,0 -0.746,0.085 -1.062,0.255 -0.315,0.17 -0.579,0.388 -0.792,0.653 -0.213,0.264 -0.367,0.57 -0.46,0.92 C -0.03,-0.763 -0.052,-0.392 0,0"
             style="fill:#006241;fill-opacity:1;fill-rule:nonzero;stroke:none"
             id="path82"
             inkscape:connector-curvature="0" /></g><g
           id="g84"
           transform="matrix(0.39098173,0,0,0.39098173,164.30215,15.704425)"><path
             d="m 0,0 c -1.381,0 -2.562,-0.307 -3.541,-0.921 -0.981,-0.615 -1.786,-1.434 -2.417,-2.458 -0.631,-1.024 -1.096,-2.201 -1.394,-3.533 -0.298,-1.33 -0.447,-2.712 -0.447,-4.146 0,-1.622 0.167,-3.2 0.499,-4.736 0.332,-1.535 0.839,-2.896 1.521,-4.083 0.682,-1.185 1.538,-2.136 2.57,-2.853 1.031,-0.717 2.237,-1.075 3.618,-1.075 1.381,0 2.544,0.311 3.49,0.933 0.947,0.624 1.713,1.447 2.302,2.471 0.588,1.024 1.01,2.193 1.266,3.507 0.255,1.314 0.383,2.662 0.383,4.045 0,1.569 -0.145,3.122 -0.435,4.658 -0.29,1.536 -0.75,2.91 -1.38,4.121 C 5.404,-2.858 4.59,-1.877 3.593,-1.126 2.596,-0.375 1.397,0 0,0 m 0,1.994 c 1.841,0 3.562,-0.336 5.165,-1.009 1.602,-0.674 2.996,-1.603 4.181,-2.788 1.185,-1.184 2.122,-2.591 2.813,-4.219 0.69,-1.628 1.035,-3.387 1.035,-5.28 0,-2.029 -0.336,-3.929 -1.01,-5.702 C 11.51,-18.777 10.582,-20.32 9.397,-21.632 8.212,-22.945 6.814,-23.98 5.204,-24.739 3.593,-25.497 1.858,-25.877 0,-25.877 c -1.841,0 -3.559,0.329 -5.152,0.985 -1.595,0.656 -2.984,1.572 -4.168,2.749 -1.185,1.176 -2.119,2.578 -2.8,4.206 -0.682,1.628 -1.023,3.414 -1.023,5.357 0,2.062 0.336,3.984 1.01,5.766 0.673,1.781 1.598,3.324 2.775,4.628 1.175,1.304 2.565,2.327 4.167,3.069 1.602,0.741 3.333,1.111 5.191,1.111"
             style="fill:#006241;fill-opacity:1;fill-rule:nonzero;stroke:none"
             id="path86"
             inkscape:connector-curvature="0" /></g><g
           id="g88"
           transform="matrix(0.39098173,0,0,0.39098173,178.03397,13.463275)"><path
             d="m 0,0 c 0,0.854 0.017,1.583 0.052,2.189 0.033,0.606 0.102,1.207 0.204,1.805 l -3.759,-0.154 0,2.148 1.611,0 c 0.75,0 1.389,0.038 1.918,0.115 0.528,0.077 0.979,0.183 1.355,0.319 0.375,0.137 0.686,0.286 0.933,0.448 0.248,0.162 0.474,0.337 0.678,0.524 l 1.508,0 -0.05,-19.791 c 0,-0.272 -0.005,-0.618 -0.013,-1.035 -0.01,-0.418 -0.022,-0.853 -0.039,-1.304 -0.017,-0.452 -0.038,-0.904 -0.064,-1.355 -0.025,-0.452 -0.055,-0.857 -0.089,-1.215 l 3.759,0.204 0,-2.199 -7.492,0 c -0.086,0.597 -0.158,1.147 -0.217,1.65 -0.06,0.502 -0.107,1.001 -0.141,1.495 -0.546,-0.545 -1.151,-1.061 -1.816,-1.547 -0.665,-0.485 -1.368,-0.907 -2.11,-1.265 -0.741,-0.358 -1.504,-0.644 -2.288,-0.857 -0.784,-0.213 -1.559,-0.32 -2.327,-0.32 -1.431,0 -2.685,0.193 -3.758,0.576 -1.075,0.384 -1.969,1.018 -2.686,1.905 -0.715,0.886 -1.252,2.058 -1.61,3.516 -0.358,1.457 -0.537,3.268 -0.537,5.433 l 0,9.308 c 0,0.545 0.008,1.099 0.025,1.662 0.017,0.563 0.077,1.142 0.18,1.739 l -3.606,-0.154 0,2.148 1.636,0 c 0.733,0 1.364,0.038 1.892,0.115 0.529,0.077 0.981,0.183 1.355,0.319 0.375,0.137 0.687,0.286 0.934,0.448 0.247,0.162 0.473,0.337 0.678,0.524 l 1.509,0 0,-15.972 c 0,-1.519 0.102,-2.837 0.306,-3.955 0.204,-1.117 0.532,-2.047 0.985,-2.789 0.451,-0.743 1.036,-1.289 1.751,-1.639 0.716,-0.35 1.594,-0.525 2.634,-0.525 0.665,0 1.316,0.112 1.956,0.334 0.639,0.221 1.249,0.52 1.828,0.896 0.58,0.375 1.12,0.802 1.624,1.279 0.502,0.478 0.933,0.991 1.291,1.537 L 0,-11.264 0,0 Z"
             style="fill:#006241;fill-opacity:1;fill-rule:nonzero;stroke:none"
             id="path90"
             inkscape:connector-curvature="0" /></g><g
           id="g92"
           transform="matrix(0.39098173,0,0,0.39098173,186.74539,15.484495)"><path
             d="m 0,0 c -0.614,0 -1.211,-0.081 -1.79,-0.243 -0.58,-0.162 -1.134,-0.376 -1.663,-0.64 -0.528,-0.264 -1.027,-0.577 -1.495,-0.934 -0.469,-0.359 -0.882,-0.734 -1.24,-1.126 0,-0.137 0.004,-0.295 0.012,-0.474 0.009,-0.179 0.013,-0.482 0.013,-0.909 l 0,-1.805 c 0,-0.776 -0.004,-1.817 -0.013,-3.123 -0.008,-1.305 -0.017,-2.931 -0.025,-4.876 -0.009,-1.946 -0.013,-4.3 -0.013,-7.065 0.87,-0.649 1.824,-1.152 2.864,-1.51 1.039,-0.359 2.13,-0.538 3.273,-0.538 1.244,0 2.361,0.299 3.349,0.896 0.989,0.597 1.833,1.429 2.532,2.496 0.699,1.067 1.236,2.33 1.611,3.789 0.375,1.459 0.563,3.058 0.563,4.799 0,1.416 -0.15,2.799 -0.448,4.147 C 7.231,-5.768 6.763,-4.565 6.124,-3.507 5.485,-2.449 4.662,-1.6 3.656,-0.96 2.65,-0.32 1.432,0 0,0 m -10.663,-4.577 c 0,0.545 0.008,1.1 0.026,1.662 0.016,0.563 0.076,1.142 0.179,1.739 l -3.708,-0.205 0,2.199 c 1.141,0 2.071,0.039 2.787,0.115 0.716,0.077 1.292,0.183 1.726,0.32 0.435,0.136 0.771,0.286 1.01,0.448 0.238,0.161 0.452,0.336 0.639,0.524 l 1.534,0 c 0.034,-0.341 0.068,-0.741 0.103,-1.202 0.033,-0.461 0.067,-0.997 0.102,-1.611 0.528,0.461 1.113,0.886 1.751,1.278 0.64,0.393 1.313,0.725 2.021,0.998 0.707,0.272 1.427,0.486 2.161,0.639 0.732,0.154 1.465,0.23 2.199,0.23 1.516,0 2.969,-0.298 4.359,-0.895 1.389,-0.597 2.612,-1.453 3.669,-2.57 1.057,-1.116 1.901,-2.48 2.532,-4.091 0.63,-1.611 0.946,-3.43 0.946,-5.459 0,-1.483 -0.166,-2.881 -0.499,-4.193 -0.332,-1.314 -0.797,-2.519 -1.394,-3.618 -0.596,-1.1 -1.308,-2.084 -2.134,-2.954 -0.827,-0.869 -1.735,-1.607 -2.723,-2.212 -0.99,-0.605 -2.042,-1.069 -3.159,-1.393 -1.116,-0.324 -2.262,-0.486 -3.439,-0.486 -2.42,0 -4.509,0.571 -6.265,1.713 l -0.025,-8.668 c 0,-0.699 -0.009,-1.317 -0.025,-1.854 -0.018,-0.537 -0.077,-1.104 -0.18,-1.701 l 3.299,0.154 0,-2.148 -10.688,0 0,1.56 c 0.801,0 1.41,0.158 1.828,0.473 0.418,0.316 0.716,0.754 0.895,1.317 0.179,0.563 0.281,1.236 0.307,2.02 0.026,0.784 0.047,1.645 0.063,2.582 l 0.103,25.289 z"
             style="fill:#006241;fill-opacity:1;fill-rule:nonzero;stroke:none"
             id="path94"
             inkscape:connector-curvature="0" /></g></g></g></g></svg>