<?xml version="1.0" encoding="utf-8"?>
<!-- Generator: Adobe Illustrator 19.0.0, SVG Export Plug-In . SVG Version: 6.00 Build 0)  -->
<svg version="1.1" id="Слой_1" xmlns="http://www.w3.org/2000/svg" xmlns:xlink="http://www.w3.org/1999/xlink" x="0px" y="0px"
	 viewBox="0 0 308.3 97.5" enable-background="new 0 0 308.3 97.5" xml:space="preserve">
<g display="none">
	<polygon display="inline" opacity="0.5" points="274.8,50.5 154.5,169.9 154.5,176.7 281.8,50.4 	"/>
	<polygon display="inline" opacity="0.2" points="34.3,50.5 154.5,169.9 154.5,176.7 27.3,50.4 	"/>
	<polygon display="inline" opacity="0.5" points="34.3,48.5 154.5,-70.9 154.5,-77.7 27.3,48.6 	"/>
	<polygon display="inline" opacity="0.2" points="274.8,48.5 154.5,-70.9 154.5,-77.7 281.8,48.6 	"/>
</g>
<g>
	<g>
		<path fill="#00000" d="M58.5,80.8c-2,0-3.6,0.7-4.8,2C52.6,84.2,52,86,52,88.3c0,2.4,0.6,4.3,1.7,5.6c1.1,1.3,2.7,2,4.8,2
			c1.3,0,2.7-0.2,4.4-0.7V97c-1.3,0.5-2.8,0.7-4.7,0.7c-2.7,0-4.8-0.8-6.2-2.5c-1.5-1.6-2.2-4-2.2-7c0-1.9,0.4-3.5,1.1-5
			c0.7-1.4,1.7-2.5,3.1-3.3c1.3-0.8,2.9-1.2,4.7-1.2c1.9,0,3.6,0.4,5,1.1l-0.9,1.8C61.3,81.2,59.9,80.8,58.5,80.8z"/>
		<path fill="#00000" d="M82.7,88.3c0,2.9-0.7,5.2-2.2,6.9c-1.5,1.7-3.5,2.5-6.2,2.5c-2.7,0-4.8-0.8-6.2-2.5c-1.5-1.6-2.2-4-2.2-7
			c0-3,0.7-5.3,2.2-6.9c1.5-1.6,3.6-2.5,6.3-2.5c2.6,0,4.7,0.8,6.2,2.5C82,83.1,82.7,85.4,82.7,88.3z M68.1,88.3
			c0,2.5,0.5,4.4,1.6,5.6c1.1,1.3,2.6,1.9,4.6,1.9c2,0,3.6-0.6,4.6-1.9c1-1.3,1.6-3.2,1.6-5.7c0-2.5-0.5-4.3-1.5-5.6
			c-1-1.3-2.6-1.9-4.6-1.9c-2,0-3.6,0.6-4.6,1.9C68.7,84,68.1,85.9,68.1,88.3z"/>
		<path fill="#00000" d="M101.1,97.5h-2.4l-10-15.4h-0.1c0.1,1.8,0.2,3.5,0.2,5v10.4h-2V79.2h2.4l10,15.3h0.1c0-0.2-0.1-1-0.1-2.2
			c-0.1-1.2-0.1-2.1-0.1-2.6V79.2h2V97.5z"/>
		<path fill="#00000" d="M114,80.8c-2,0-3.6,0.7-4.8,2c-1.2,1.3-1.7,3.2-1.7,5.5c0,2.4,0.6,4.3,1.7,5.6c1.1,1.3,2.7,2,4.8,2
			c1.3,0,2.7-0.2,4.4-0.7V97c-1.3,0.5-2.8,0.7-4.7,0.7c-2.7,0-4.8-0.8-6.2-2.5c-1.5-1.6-2.2-4-2.2-7c0-1.9,0.4-3.5,1.1-5
			c0.7-1.4,1.7-2.5,3.1-3.3c1.3-0.8,2.9-1.2,4.7-1.2c1.9,0,3.6,0.4,5,1.1l-0.9,1.8C116.8,81.2,115.4,80.8,114,80.8z"/>
		<path fill="#00000" d="M132.6,97.5h-10.2V79.2h10.2v1.9h-8.1V87h7.6v1.9h-7.6v6.7h8.1V97.5z"/>
		<path fill="#00000" d="M148.3,84.5c0,1.9-0.6,3.3-1.9,4.3c-1.3,1-3.1,1.5-5.4,1.5h-2.2v7.2h-2.1V79.2h4.7
			C146,79.2,148.3,81,148.3,84.5z M138.8,88.5h1.9c1.9,0,3.3-0.3,4.1-0.9c0.8-0.6,1.3-1.6,1.3-2.9c0-1.2-0.4-2.1-1.2-2.7
			c-0.8-0.6-2-0.9-3.7-0.9h-2.4V88.5z"/>
		<path fill="#00000" d="M157.7,97.5h-2.1V81.1h-5.8v-1.9h13.7v1.9h-5.8V97.5z"/>
		<path fill="#00000" d="M186.9,97.5h-2.1v-8.6h-9.6v8.6H173V79.2h2.1V87h9.6v-7.8h2.1V97.5z"/>
		<path fill="#00000" d="M207.8,88.3c0,2.9-0.7,5.2-2.2,6.9c-1.5,1.7-3.5,2.5-6.2,2.5c-2.7,0-4.8-0.8-6.2-2.5c-1.5-1.6-2.2-4-2.2-7
			c0-3,0.7-5.3,2.2-6.9c1.5-1.6,3.6-2.5,6.3-2.5c2.6,0,4.7,0.8,6.2,2.5C207.1,83.1,207.8,85.4,207.8,88.3z M193.2,88.3
			c0,2.5,0.5,4.4,1.6,5.6c1.1,1.3,2.6,1.9,4.6,1.9c2,0,3.6-0.6,4.6-1.9c1-1.3,1.6-3.2,1.6-5.7c0-2.5-0.5-4.3-1.5-5.6
			c-1-1.3-2.6-1.9-4.6-1.9c-2,0-3.6,0.6-4.6,1.9C193.7,84,193.2,85.9,193.2,88.3z"/>
		<path fill="#00000" d="M225.7,79.2V91c0,2.1-0.6,3.7-1.9,4.9c-1.3,1.2-3,1.8-5.2,1.8c-2.2,0-3.9-0.6-5.1-1.8s-1.8-2.9-1.8-5V79.2
			h2.1v12c0,1.5,0.4,2.7,1.3,3.5c0.8,0.8,2.1,1.2,3.7,1.2c1.5,0,2.7-0.4,3.6-1.2c0.8-0.8,1.3-2,1.3-3.5V79.2H225.7z"/>
		<path fill="#00000" d="M240.9,92.6c0,1.6-0.6,2.9-1.8,3.8c-1.2,0.9-2.8,1.4-4.8,1.4c-2.2,0-3.8-0.3-5-0.8v-2.1
			c0.8,0.3,1.6,0.6,2.5,0.8c0.9,0.2,1.8,0.3,2.6,0.3c1.4,0,2.5-0.3,3.2-0.8c0.7-0.5,1.1-1.3,1.1-2.2c0-0.6-0.1-1.2-0.4-1.6
			c-0.3-0.4-0.7-0.8-1.3-1.1c-0.6-0.3-1.5-0.7-2.7-1.2c-1.7-0.6-2.9-1.3-3.7-2.2c-0.7-0.8-1.1-1.9-1.1-3.3c0-1.4,0.5-2.5,1.6-3.4
			c1.1-0.8,2.5-1.3,4.2-1.3c1.8,0,3.5,0.3,5,1l-0.7,1.9c-1.5-0.6-3-1-4.4-1c-1.1,0-2,0.2-2.6,0.7c-0.6,0.5-1,1.2-1,2
			c0,0.6,0.1,1.2,0.4,1.6c0.2,0.4,0.6,0.8,1.2,1.1c0.6,0.3,1.4,0.7,2.5,1.1c1.9,0.7,3.2,1.4,4,2.2C240.6,90.4,240.9,91.4,240.9,92.6
			z"/>
		<path fill="#00000" d="M254.9,97.5h-10.2V79.2h10.2v1.9h-8.1V87h7.6v1.9h-7.6v6.7h8.1V97.5z"/>
	</g>
</g>
<path fill="#00000" d="M74.7,50.5V0h7.7v44.4"/>
<path fill="#00000" d="M184.5,50.5V0h7.7v44.4"/>
<g>
	<path fill="#00000" d="M0,0h7.7c1,0,2,0,3.2,0.1c1.2,0.1,2.3,0.3,3.5,0.6c1.2,0.3,2.3,0.8,3.3,1.5c1.1,0.7,2,1.6,2.9,2.7
		c0.8,1.2,1.5,2.6,2,4.3s0.8,3.8,0.8,6.3v1.8c0,2.7-0.2,5-0.7,6.9c-0.5,1.9-1.1,3.5-1.8,4.8c-0.8,1.3-1.7,2.4-2.7,3.1
		c-1,0.8-2.1,1.4-3.2,1.8c-1.1,0.4-2.2,0.7-3.3,0.8c-1.1,0.1-2.2,0.2-3.1,0.2H7.7v15.4H0V0z M8,29.5c1.4,0,2.5-0.2,3.5-0.6
		c0.9-0.4,1.7-1,2.3-1.9c0.6-0.9,1-2,1.2-3.3c0.2-1.3,0.4-3,0.4-4.9v-4.6c0-1.5-0.1-2.8-0.3-3.9c-0.2-1.1-0.6-2-1.2-2.7
		c-0.6-0.7-1.3-1.2-2.3-1.6C10.7,5.8,9.5,5.6,8,5.6H7.7v23.9H8z"/>
	<path fill="#00000" d="M27.8,0h7.7v21.1h9.1V0h7.7v50.5h-7.7V27.2h-9.1v23.3h-7.7V0z"/>
	<path fill="#00000" d="M59.7,0h7.7v50.5h-7.7V0z"/>
	<path fill="#00000" d="M106.8,0h8.8l9.3,50.5h-7.7l-1.4-9h-9.2l-1.3,9h-7.8L106.8,0z M115,35.7l-3.5-25.1h-0.3l-3.6,25.1H115z"/>
	<path fill="#00000" d="M129.9,0h7.9c1.2,0,2.4,0,3.7,0.1c1.3,0.1,2.6,0.3,3.8,0.6c1.2,0.4,2.4,0.9,3.5,1.6s2.1,1.8,2.9,3.1
		c0.8,1.3,1.5,3,2,5c0.5,2,0.7,4.5,0.7,7.4v14.7c0,2.9-0.2,5.4-0.7,7.4c-0.5,2-1.1,3.7-2,5c-0.8,1.3-1.8,2.3-2.9,3.1
		c-1.1,0.7-2.3,1.3-3.5,1.6c-1.2,0.4-2.5,0.6-3.8,0.6c-1.3,0.1-2.5,0.1-3.7,0.1h-7.9V0z M139.5,45.1c1.4,0,2.5-0.2,3.4-0.5
		c0.9-0.4,1.6-1,2.1-1.9c0.5-0.9,0.9-2.1,1.1-3.7c0.2-1.5,0.3-3.5,0.3-5.9V17.5c0-2.4-0.1-4.3-0.3-5.9S145.5,8.9,145,8
		c-0.5-0.9-1.2-1.5-2.1-1.9c-0.9-0.4-2-0.5-3.4-0.5h-2v39.5H139.5z"/>
	<path fill="#00000" d="M160,0h18.7v6h-11.1v15.1h8.5v6h-8.5v17.3H179v6h-19V0z"/>
	<path fill="#00000" d="M207.5,0h7.7c1,0,2,0,3.2,0.1c1.2,0.1,2.3,0.3,3.5,0.6c1.2,0.3,2.3,0.8,3.3,1.5c1.1,0.7,2,1.6,2.9,2.7
		c0.8,1.2,1.5,2.6,2,4.3c0.5,1.7,0.8,3.8,0.8,6.3v1.8c0,2.7-0.2,5-0.7,6.9c-0.5,1.9-1.1,3.5-1.8,4.8c-0.8,1.3-1.7,2.4-2.7,3.1
		c-1,0.8-2.1,1.4-3.2,1.8c-1.1,0.4-2.2,0.7-3.3,0.8c-1.1,0.1-2.2,0.2-3.1,0.2h-0.7v15.4h-7.7V0z M215.5,29.5c1.4,0,2.5-0.2,3.5-0.6
		c0.9-0.4,1.7-1,2.3-1.9c0.6-0.9,1-2,1.2-3.3c0.2-1.3,0.4-3,0.4-4.9v-4.6c0-1.5-0.1-2.8-0.3-3.9c-0.2-1.1-0.6-2-1.2-2.7
		c-0.6-0.7-1.3-1.2-2.3-1.6c-0.9-0.3-2.1-0.5-3.6-0.5h-0.4v23.9H215.5z"/>
	<path fill="#00000" d="M235.3,0h7.7v21.1h9.1V0h7.7v50.5H252V27.2h-9.1v23.3h-7.7V0z"/>
	<path fill="#00000" d="M267.1,0h7.7v50.5h-7.7V0z"/>
	<path fill="#00000" d="M290.2,0h8.8l9.3,50.5h-7.7l-1.4-9H290l-1.3,9h-7.8L290.2,0z M298.3,35.7l-3.5-25.1h-0.3l-3.6,25.1H298.3z"
		/>
</g>
<polyline fill="#6E6E74" points="192.2,44.4 202.6,44.4 202.6,50.5 184.5,50.5 "/>
<polyline fill="#6E6E74" points="82.4,44.4 92.8,44.4 92.8,50.5 74.7,50.5 "/>
</svg>
