<?xml version="1.0" encoding="UTF-8" standalone="no"?>
<!-- Creator: CorelDRAW X6 -->

<svg
   xmlns:dc="http://purl.org/dc/elements/1.1/"
   xmlns:cc="http://creativecommons.org/ns#"
   xmlns:rdf="http://www.w3.org/1999/02/22-rdf-syntax-ns#"
   xmlns:svg="http://www.w3.org/2000/svg"
   xmlns="http://www.w3.org/2000/svg"
   xmlns:sodipodi="http://sodipodi.sourceforge.net/DTD/sodipodi-0.dtd"
   xmlns:inkscape="http://www.inkscape.org/namespaces/inkscape"
   xml:space="preserve"
   width="2.08333in"
   height="2.65in"
   version="1.1"
   style="shape-rendering:geometricPrecision; text-rendering:geometricPrecision; image-rendering:optimizeQuality; fill-rule:evenodd; clip-rule:evenodd"
   viewBox="0 0 7083 9250"
   id="svg4708"
   inkscape:version="0.91 r13725"
   sodipodi:docname="logoRybal.svg"><metadata
   id="metadata4768"><rdf:RDF><cc:Work
       rdf:about=""><dc:format>image/svg+xml</dc:format><dc:type
         rdf:resource="http://purl.org/dc/dcmitype/StillImage" /><dc:title></dc:title></cc:Work></rdf:RDF></metadata><sodipodi:namedview
   pagecolor="#ffffff"
   bordercolor="#666666"
   borderopacity="1"
   objecttolerance="10"
   gridtolerance="10"
   guidetolerance="10"
   inkscape:pageopacity="0"
   inkscape:pageshadow="2"
   inkscape:window-width="1366"
   inkscape:window-height="705"
   id="namedview4766"
   showgrid="false"
   inkscape:zoom="0.28348348"
   inkscape:cx="318.74986"
   inkscape:cy="416.25"
   inkscape:window-x="-8"
   inkscape:window-y="-8"
   inkscape:window-maximized="1"
   inkscape:current-layer="svg4708" />
 <defs
   id="defs4710">
  <style
   type="text/css"
   id="style4712">
   <![CDATA[
    .fil0 {fill:#6781BA;fill-rule:nonzero}
    .fil2 {fill:#FEFEFE;fill-rule:nonzero}
    .fil1 {fill:#0B45BB;fill-rule:nonzero}
   ]]>
  </style>
 </defs>
 <g
   id="Layer_x0020_1">
  <metadata
   id="CorelCorpID_0Corel-Layer" />
  <polygon
   class="fil0"
   points="0,9250 7087,9250 7087,-3 0,-3 "
   id="polygon4716"
   style="fill:none" />
  <polygon
   class="fil1"
   points="0,9250 7087,9250 7087,-3 0,-3 "
   id="polygon4718"
   style="fill:#0b45bb;fill-opacity:0" />
  <path
   class="fil2"
   d="M882 898l919 0c283,0 478,74 602,198 108,108 164,248 164,431l0 5c0,285 -151,473 -380,571l441 645 -589 0 -372 -560 -271 0 0 560 -512 0 0 -1849zm898 888c172,0 275,-85 275,-219l0 -5c0,-148 -108,-222 -277,-222l-382 0 0 446 385 0z"
   id="path4720"
   style="fill:#0b45bb;fill-opacity:1" />
  <polygon
   class="fil2"
   points="3320,2054 2615,898 3199,898 3579,1571 3962,898 4535,898 3833,2047 3833,2747 3320,2747 "
   id="polygon4722"
   style="fill:#0b45bb;fill-opacity:0.99607843" />
  <path
   class="fil2"
   d="M742 7161l288 -341c186,145 389,222 605,222 141,0 216,-48 216,-127l0 -5c0,-79 -61,-119 -317,-180 -397,-90 -703,-201 -703,-579l0 -5c0,-343 274,-592 722,-592 317,0 565,85 767,246l-258 362c-171,-122 -357,-182 -522,-182 -125,0 -186,50 -186,119l0 5c0,85 64,122 325,180 426,92 693,230 693,576l0 5c0,378 -301,602 -754,602 -330,0 -642,-103 -874,-306z"
   id="path4724"
   style="fill:#0b45bb;fill-opacity:1" />
  <polygon
   class="fil2"
   points="2596,5586 3109,5586 3106,6284 3309,6284 3869,5586 4482,5586 3714,6482 4519,7435 3885,7435 3309,6728 3106,6728 3109,7435 2596,7435 "
   id="polygon4726"
   style="fill:#0b45bb;fill-opacity:1" />
  <polygon
   class="fil2"
   points="5082,6743 4376,5586 4960,5586 5341,6260 5724,5586 6297,5586 5594,6735 5594,7435 5082,7435 "
   id="polygon4728"
   style="fill:#0b45bb;fill-opacity:1" />
  <path
   class="fil2"
   d="M6013 2017c-2,303 -247,554 -562,593l0 -963 541 0 0 -169 -541 0 0 -194c100,-34 172,-124 172,-231 0,-135 -115,-245 -256,-245 -141,0 -256,110 -256,245 0,107 72,198 172,231l0 194 -541 0 0 169 541 0 0 963c-315,-39 -560,-290 -562,-593l-169 1c3,423 368,766 815,766 447,0 813,-344 815,-766l-169 -1zm-646 -1059c58,0 106,43 106,95 0,52 -48,95 -106,95 -59,0 -106,-43 -106,-95 0,-52 48,-95 106,-95z"
   id="path4730"
   style="fill:#0b45bb;fill-opacity:1" />
  <path
   class="fil2"
   d="M882 3243l948 0c232,0 396,58 505,164 74,77 119,174 119,301l0 5c0,214 -122,341 -285,412 225,74 367,201 367,452l0 5c0,317 -259,510 -700,510l-954 0 0 -1849zm1067 571c0,-103 -82,-158 -232,-158l-335 0 0 325 322 0c156,0 246,-53 246,-161l0 -5zm-177 526l-391 0 0 341 396 0c158,0 246,-61 246,-169l0 -5c0,-100 -79,-166 -251,-166z"
   id="path4732"
   style="fill:#0b45bb;fill-opacity:1" />
  <path
   class="fil2"
   d="M3328 3241l491 0 782 1851 -546 0 -131 -331 -712 0 -131 331 -533 0 780 -1851zm446 1124l-205 -520 -207 520 412 0z"
   id="path4734"
   style="fill:#0b45bb;fill-opacity:1" />
  <polygon
   class="fil2"
   points="4774,3243 5286,3243 5286,4643 6182,4643 6182,5092 4774,5092 "
   id="polygon4736"
   style="fill:#0b45bb;fill-opacity:1" />
  <path
   class="fil2"
   d="M860 8328l40 -48c28,23 57,37 92,37 28,0 44,-11 44,-29l0 -1c0,-17 -11,-26 -62,-39 -62,-16 -102,-33 -102,-94l0 -1c0,-56 45,-93 108,-93 45,0 83,14 114,39l-35 51c-27,-19 -54,-30 -80,-30 -26,0 -40,12 -40,27l0 1c0,20 13,27 66,40 62,16 98,39 98,92l0 1c0,61 -47,95 -113,95 -47,0 -94,-16 -131,-49z"
   id="path4738"
   style="fill:#0b45bb;fill-opacity:1" />
  <path
   class="fil2"
   d="M1234 8064l126 0c73,0 118,44 118,106l0 1c0,71 -55,108 -125,108l-51 0 0 92 -68 0 0 -308zm121 155c34,0 54,-20 54,-47l0 -1c0,-30 -21,-47 -55,-47l-52 0 0 94 54 0z"
   id="path4740"
   style="fill:#0b45bb;fill-opacity:1" />
  <path
   class="fil2"
   d="M1679 8062l62 0 132 310 -71 0 -28 -69 -130 0 -28 69 -69 0 132 -310zm71 181l-41 -100 -41 100 82 0z"
   id="path4742"
   style="fill:#0b45bb;fill-opacity:1" />
  <path
   class="fil2"
   d="M1958 8219l0 -1c0,-88 66,-159 161,-159 58,0 93,19 121,48l-43 50c-24,-22 -48,-35 -79,-35 -52,0 -89,43 -89,96l0 1c0,53 37,97 89,97 35,0 57,-14 81,-36l43 44c-32,34 -67,55 -126,55 -91,0 -158,-70 -158,-158z"
   id="path4744"
   style="fill:#0b45bb;fill-opacity:1" />
  <polygon
   class="fil2"
   points="2363,8064 2595,8064 2595,8125 2430,8125 2430,8187 2575,8187 2575,8247 2430,8247 2430,8312 2597,8312 2597,8372 2363,8372 "
   id="polygon4746"
   style="fill:#0b45bb;fill-opacity:1" />
  <polygon
   class="fil2"
   points="2932,8064 3167,8064 3167,8126 3000,8126 3000,8192 3147,8192 3147,8253 3000,8253 3000,8372 2932,8372 "
   id="polygon4748"
   style="fill:#0b45bb;fill-opacity:1" />
  <path
   class="fil2"
   d="M3268 8219l0 -1c0,-88 69,-159 164,-159 95,0 163,71 163,158l0 1c0,88 -69,159 -164,159 -95,0 -163,-71 -163,-158zm256 0l0 -1c0,-53 -39,-97 -93,-97 -55,0 -92,43 -92,96l0 1c0,53 39,97 93,97 55,0 92,-43 92,-96z"
   id="path4750"
   style="fill:#0b45bb;fill-opacity:1" />
  <path
   class="fil2"
   d="M3727 8064l141 0c39,0 70,11 90,31 17,17 26,41 26,70l0 1c0,50 -27,81 -66,95l75 110 -79 0 -66 -99 -53 0 0 99 -68 0 0 -308zm136 150c33,0 52,-18 52,-44l0 -1c0,-29 -20,-44 -53,-44l-67 0 0 88 69 0z"
   id="path4752"
   style="fill:#0b45bb;fill-opacity:1" />
  <polygon
   class="fil2"
   points="4319,8064 4387,8064 4387,8311 4540,8311 4540,8372 4319,8372 "
   id="polygon4754"
   style="fill:#0b45bb;fill-opacity:1" />
  <polygon
   class="fil2"
   points="4659,8372 4727,8372 4727,8064 4659,8064 "
   id="polygon4756"
   style="fill:#0b45bb;fill-opacity:1" />
  <polygon
   class="fil2"
   points="4843,8064 4918,8064 4998,8281 5079,8064 5152,8064 5027,8375 4967,8375 "
   id="polygon4758"
   style="fill:#0b45bb;fill-opacity:1" />
  <polygon
   class="fil2"
   points="5269,8372 5336,8372 5336,8064 5269,8064 "
   id="polygon4760"
   style="fill:#0b45bb;fill-opacity:1" />
  <polygon
   class="fil2"
   points="5484,8064 5547,8064 5691,8254 5691,8064 5758,8064 5758,8372 5700,8372 5551,8177 5551,8372 5484,8372 "
   id="polygon4762"
   style="fill:#0b45bb;fill-opacity:1" />
  <path
   class="fil2"
   d="M5889 8219l0 -1c0,-88 68,-159 161,-159 55,0 89,15 121,42l-43 51c-24,-20 -45,-31 -81,-31 -49,0 -88,44 -88,96l0 1c0,56 39,98 93,98 25,0 47,-6 64,-18l0 -44 -68 0 0 -59 134 0 0 134c-32,27 -75,49 -132,49 -96,0 -162,-67 -162,-158z"
   id="path4764"
   style="fill:#0b45bb;fill-opacity:1" />
 </g>
</svg>