<svg xmlns="http://www.w3.org/2000/svg" width="615.985" height="159.528"><path d="M90.038 72.255c-1.82 3.5-4.06 6.861-6.721 9.802-2.52 2.94-5.601 5.46-8.962 7.561-3.5 2.1-7.421 3.78-11.762 5.041-4.341 1.26-9.242 1.82-14.563 1.82-7.002 0-13.443-1.12-19.324-3.5-5.881-2.38-10.922-5.741-15.263-9.942C9.102 78.696 5.88 73.655 3.5 67.774S0 55.45 0 48.45c0-7.142 1.12-13.583 3.5-19.604 2.381-5.881 5.742-11.062 9.943-15.263 4.34-4.341 9.382-7.562 15.263-9.942S41.028.14 48.03.14c10.222 0 18.343 1.82 24.785 5.321 6.301 3.5 11.342 8.682 15.123 15.403L67.774 39.488c-3.781-8.822-10.222-13.163-18.904-13.163-3.22 0-6.021.56-8.542 1.68-2.52 1.12-4.76 2.661-6.581 4.622-1.82 1.96-3.36 4.34-4.341 7.001-.98 2.66-1.54 5.601-1.54 8.822 0 3.22.56 6.021 1.54 8.682.98 2.66 2.38 5.04 4.2 7.001 1.821 1.96 4.062 3.5 6.582 4.62 2.52 1.121 5.461 1.681 8.542 1.681 5.461 0 9.802-1.26 13.023-3.78 3.22-2.521 5.6-5.602 7.141-9.382l21.144 14.983zM19.884 48.03c0-1.68-.56-3.08-1.68-4.061a6.1 6.1 0 0 0-4.061-1.54c-1.68 0-3.08.56-4.061 1.54-.98.98-1.54 2.38-1.54 4.06a6.1 6.1 0 0 0 1.54 4.062c.98 1.12 2.38 1.68 4.06 1.68 1.541 0 2.941-.56 4.062-1.68a5.608 5.608 0 0 0 1.68-4.061zm2.24-12.883c0-1.68-.56-3.08-1.68-4.2a5.608 5.608 0 0 0-4.06-1.681c-1.541 0-2.941.56-4.062 1.68-1.12 1.12-1.68 2.52-1.68 4.201 0 1.54.56 2.8 1.68 3.92 1.12 1.121 2.381 1.681 3.921 1.681s2.94-.56 4.061-1.68c1.26-.98 1.82-2.38 1.82-3.92zm0 26.325c0-1.68-.56-3.08-1.68-4.2a5.608 5.608 0 0 0-4.06-1.68c-1.541 0-2.941.56-4.062 1.68-1.12 1.12-1.68 2.52-1.68 4.2 0 1.54.56 2.801 1.68 4.061 1.12 1.12 2.381 1.82 3.921 1.82s2.94-.56 4.061-1.68c1.26-1.26 1.82-2.52 1.82-4.2zm7.282-37.247c0-1.54-.56-2.94-1.68-4.06a5.608 5.608 0 0 0-4.061-1.681c-1.54 0-2.94.56-4.061 1.68a5.608 5.608 0 0 0-1.68 4.06 5.61 5.61 0 0 0 1.68 4.062 5.608 5.608 0 0 0 4.06 1.68c1.541 0 2.801-.56 4.062-1.68.98-1.12 1.68-2.52 1.68-4.061zm-5.461 54.33c1.54 0 2.8-.56 3.92-1.82a5.608 5.608 0 0 0 1.681-4.06c0-1.54-.56-2.94-1.68-4.061-1.12-1.12-2.38-1.68-4.061-1.68-1.54 0-2.94.56-4.061 1.68-1.12 1.12-1.68 2.38-1.68 4.06 0 1.541.56 2.941 1.68 4.062 1.26 1.26 2.52 1.82 4.2 1.82zm16.243-62.452c0-1.54-.56-2.94-1.68-4.06a5.608 5.608 0 0 0-4.061-1.68c-1.68 0-3.08.56-4.06 1.68-.981 1.12-1.541 2.38-1.541 4.06a6.1 6.1 0 0 0 1.54 4.061c.98 1.12 2.38 1.68 4.061 1.68 1.54 0 2.8-.56 4.06-1.82 1.121-1.12 1.681-2.52 1.681-3.92zm.28 64.413c0-1.54-.56-2.94-1.68-4.06a5.608 5.608 0 0 0-4.061-1.68c-1.68 0-3.08.56-4.2 1.68a5.608 5.608 0 0 0-1.681 4.06c0 1.54.56 2.94 1.68 4.061 1.12 1.12 2.52 1.68 4.201 1.68 1.54 0 2.8-.56 4.06-1.68 1.121-1.26 1.681-2.52 1.681-4.06zm13.023-67.773a5.61 5.61 0 0 0-1.68-4.061c-1.12-1.12-2.521-1.68-4.201-1.68-1.54 0-2.8.56-4.061 1.68-1.12 1.12-1.82 2.38-1.82 3.92 0 1.68.56 3.081 1.68 4.201a5.608 5.608 0 0 0 4.06 1.68c1.681 0 3.081-.56 4.201-1.68 1.26-.98 1.82-2.38 1.82-4.06zm0 70.854c0-1.54-.56-2.94-1.68-4.06-1.12-1.121-2.521-1.681-4.201-1.681-1.54 0-2.94.56-4.061 1.68-1.12 1.12-1.68 2.38-1.68 4.061 0 1.54.56 2.94 1.68 4.06a5.608 5.608 0 0 0 4.06 1.681c1.681 0 3.081-.56 4.202-1.68a5.608 5.608 0 0 0 1.68-4.061zm13.303-68.334c0-1.54-.56-2.94-1.68-4.06-1.121-1.121-2.521-1.681-4.202-1.681-1.54 0-2.94.56-4.06 1.68-1.12 1.12-1.68 2.38-1.68 4.061 0 1.54.56 2.94 1.68 4.06a5.608 5.608 0 0 0 4.06 1.681c1.54 0 2.941-.56 4.061-1.82 1.26-.98 1.82-2.38 1.82-3.92zm-5.462 71.415a5.61 5.61 0 0 0 4.061-1.68 5.608 5.608 0 0 0 1.68-4.062 6.1 6.1 0 0 0-1.54-4.06c-.98-1.12-2.38-1.68-4.06-1.68a5.61 5.61 0 0 0-4.061 1.68 5.608 5.608 0 0 0-1.68 4.06c0 1.54.56 2.941 1.68 4.061.98 1.12 2.38 1.68 3.92 1.68zm16.804-63.853a5.61 5.61 0 0 0-1.68-4.061 5.608 5.608 0 0 0-4.061-1.68c-1.54 0-2.94.56-4.061 1.68-1.12 1.12-1.68 2.38-1.68 4.06 0 1.54.56 2.941 1.68 4.061 1.12 1.12 2.38 1.68 4.06 1.68 1.541 0 2.941-.56 4.062-1.68.98-1.12 1.68-2.38 1.68-4.06zm.42 50.27c0-1.54-.56-2.94-1.68-4.061a5.608 5.608 0 0 0-4.061-1.68c-1.54 0-2.94.56-4.061 1.68a5.608 5.608 0 0 0-1.68 4.06c0 1.541.56 2.941 1.68 4.062a5.608 5.608 0 0 0 4.06 1.68c1.541 0 2.801-.56 4.062-1.82.98-1.12 1.68-2.52 1.68-3.921zM146.61 94.8V59.651h-21.005V94.8H96.76V1.68h28.845v33.747h21.005V1.68h28.846V94.8H146.61zm-29.966-81.217c0-1.54-.56-2.94-1.68-4.061-1.12-1.12-2.381-1.68-4.061-1.68a5.61 5.61 0 0 0-4.061 1.68 5.608 5.608 0 0 0-1.68 4.06c0 1.541.56 2.941 1.68 4.062a5.608 5.608 0 0 0 4.06 1.68 5.61 5.61 0 0 0 4.061-1.68c1.26-1.12 1.68-2.52 1.68-4.061zm-5.601 19.324c1.54 0 2.94-.56 4.06-1.68 1.12-1.12 1.68-2.521 1.68-4.202 0-1.54-.56-2.94-1.68-4.06-1.12-1.12-2.38-1.68-4.06-1.68a5.61 5.61 0 0 0-4.061 1.68 5.608 5.608 0 0 0-1.68 4.06c0 1.68.56 3.081 1.68 4.201a5.608 5.608 0 0 0 4.06 1.68zm0 13.862c1.54 0 2.94-.56 4.06-1.68a5.608 5.608 0 0 0 1.68-4.06c0-1.681-.56-3.081-1.68-4.062-1.12-.98-2.38-1.54-4.06-1.54a6.1 6.1 0 0 0-4.061 1.54c-1.12.98-1.68 2.381-1.68 4.061 0 1.54.56 2.94 1.68 4.061a5.608 5.608 0 0 0 4.06 1.68zm5.6 7.982c0-1.54-.56-2.94-1.68-4.06-1.12-1.12-2.38-1.681-4.06-1.681a5.61 5.61 0 0 0-4.061 1.68 5.608 5.608 0 0 0-1.68 4.061c0 1.54.56 2.94 1.68 4.06a5.608 5.608 0 0 0 4.06 1.681 5.61 5.61 0 0 0 4.061-1.68c1.26-1.26 1.68-2.52 1.68-4.06zm-5.6 19.324c1.54 0 2.94-.56 4.06-1.68 1.12-1.12 1.68-2.52 1.68-4.201 0-1.54-.56-2.94-1.68-4.061-1.12-1.12-2.38-1.68-4.06-1.68a5.61 5.61 0 0 0-4.061 1.68 5.608 5.608 0 0 0-1.68 4.06c0 1.681.56 3.081 1.68 4.202a5.608 5.608 0 0 0 4.06 1.68zm0 13.723c1.54 0 2.94-.56 4.06-1.68a5.608 5.608 0 0 0 1.68-4.061 5.61 5.61 0 0 0-1.68-4.061c-1.12-1.12-2.38-1.68-4.06-1.68a5.61 5.61 0 0 0-4.061 1.68c-1.12 1.12-1.68 2.38-1.68 4.06 0 1.541.56 2.941 1.68 4.061a5.608 5.608 0 0 0 4.06 1.68zm12.322-34.727c1.54 0 2.94-.56 4.06-1.68 1.121-1.12 1.681-2.521 1.681-4.201a5.61 5.61 0 0 0-1.68-4.061c-1.12-1.12-2.38-1.68-4.061-1.68-1.68 0-3.08.56-4.2 1.68a5.608 5.608 0 0 0-1.681 4.06c0 1.68.56 3.081 1.68 4.201 1.12 1.12 2.52 1.68 4.201 1.68zm18.764-5.741a5.61 5.61 0 0 0-1.68-4.061 5.608 5.608 0 0 0-4.061-1.68c-1.54 0-2.94.56-4.061 1.68a5.608 5.608 0 0 0-1.68 4.06c0 1.68.56 3.081 1.68 4.201a5.608 5.608 0 0 0 4.06 1.68c1.541 0 2.941-.56 4.061-1.68 1.12-1.12 1.68-2.52 1.68-4.2zm7.561 5.74c1.68 0 3.081-.56 4.061-1.68.98-1.12 1.54-2.52 1.54-4.2a6.1 6.1 0 0 0-1.54-4.061c-.98-1.12-2.38-1.68-4.06-1.68a5.61 5.61 0 0 0-4.061 1.68 5.608 5.608 0 0 0-1.68 4.06c0 1.68.56 3.081 1.68 4.201a5.608 5.608 0 0 0 4.06 1.68zm17.364-39.487c0-1.54-.56-2.94-1.68-4.061-1.12-1.12-2.38-1.68-4.061-1.68-1.54 0-2.94.56-4.061 1.68a5.608 5.608 0 0 0-1.68 4.06c0 1.541.56 2.941 1.68 4.062a5.608 5.608 0 0 0 4.06 1.68c1.541 0 2.941-.56 4.062-1.68a5.608 5.608 0 0 0 1.68-4.061zm-5.601 19.324c1.54 0 2.94-.56 4.06-1.68 1.12-1.12 1.68-2.521 1.68-4.202 0-1.54-.56-2.94-1.68-4.06-1.12-1.12-2.38-1.68-4.06-1.68-1.54 0-2.94.56-4.061 1.68a5.608 5.608 0 0 0-1.68 4.06c0 1.68.56 3.081 1.68 4.201 1.12 1.12 2.38 1.68 4.06 1.68zm0 13.862c1.54 0 2.94-.56 4.06-1.68a5.608 5.608 0 0 0 1.68-4.06c0-1.681-.56-3.081-1.68-4.062-1.12-.98-2.38-1.54-4.06-1.54a6.1 6.1 0 0 0-4.061 1.54c-1.12.98-1.68 2.381-1.68 4.061 0 1.54.56 2.94 1.68 4.061 1.12 1.12 2.38 1.68 4.06 1.68zm5.6 7.982c0-1.54-.56-2.94-1.68-4.06-1.12-1.12-2.38-1.681-4.06-1.681-1.54 0-2.94.56-4.061 1.68a5.608 5.608 0 0 0-1.68 4.061c0 1.54.56 2.94 1.68 4.06a5.608 5.608 0 0 0 4.06 1.681c1.541 0 2.941-.56 4.062-1.68 1.12-1.26 1.68-2.52 1.68-4.06zm-5.6 19.324c1.54 0 2.94-.56 4.06-1.68 1.12-1.12 1.68-2.52 1.68-4.201 0-1.54-.56-2.94-1.68-4.061-1.12-1.12-2.38-1.68-4.06-1.68-1.54 0-2.94.56-4.061 1.68a5.608 5.608 0 0 0-1.68 4.06c0 1.681.56 3.081 1.68 4.202 1.12 1.12 2.38 1.68 4.06 1.68zm0 13.723c1.54 0 2.94-.56 4.06-1.68a5.608 5.608 0 0 0 1.68-4.061 5.61 5.61 0 0 0-1.68-4.061c-1.12-1.12-2.38-1.68-4.06-1.68-1.54 0-2.94.56-4.061 1.68-1.12 1.12-1.68 2.38-1.68 4.06 0 1.541.56 2.941 1.68 4.061 1.12 1.12 2.38 1.68 4.06 1.68zm28.005 7.002V1.68h29.126V94.8h-29.126zm20.165-81.217a6.1 6.1 0 0 0-1.54-4.061c-.981-1.12-2.381-1.68-4.062-1.68-1.54 0-2.94.56-4.06 1.68a5.608 5.608 0 0 0-1.68 4.06c0 1.541.56 2.941 1.68 4.062a5.608 5.608 0 0 0 4.06 1.68c1.68 0 3.081-.56 4.061-1.68 1.12-1.12 1.54-2.52 1.54-4.061zm-5.602 19.324c1.68 0 3.081-.56 4.061-1.68.98-1.12 1.54-2.521 1.54-4.202a6.1 6.1 0 0 0-1.54-4.06c-.98-1.12-2.38-1.68-4.06-1.68a5.61 5.61 0 0 0-4.061 1.68 5.608 5.608 0 0 0-1.68 4.06c0 1.68.56 3.081 1.68 4.201a5.608 5.608 0 0 0 4.06 1.68zm0 13.862c1.68 0 3.081-.56 4.061-1.68a6.1 6.1 0 0 0 1.54-4.06c0-1.681-.56-3.081-1.54-4.062-.98-.98-2.38-1.54-4.06-1.54a6.1 6.1 0 0 0-4.061 1.54c-1.12.98-1.68 2.381-1.68 4.061 0 1.54.56 2.94 1.68 4.061a5.608 5.608 0 0 0 4.06 1.68zm5.602 7.982a6.1 6.1 0 0 0-1.54-4.06c-.981-1.12-2.381-1.681-4.062-1.681-1.54 0-2.94.56-4.06 1.68a5.608 5.608 0 0 0-1.68 4.061c0 1.54.56 2.94 1.68 4.06a5.608 5.608 0 0 0 4.06 1.681c1.68 0 3.081-.56 4.061-1.68 1.12-1.26 1.54-2.52 1.54-4.06zm-5.602 19.324c1.68 0 3.081-.56 4.061-1.68.98-1.12 1.54-2.52 1.54-4.201a6.1 6.1 0 0 0-1.54-4.061c-.98-1.12-2.38-1.68-4.06-1.68a5.61 5.61 0 0 0-4.061 1.68 5.608 5.608 0 0 0-1.68 4.06c0 1.681.56 3.081 1.68 4.202a5.608 5.608 0 0 0 4.06 1.68zm0 13.723c1.68 0 3.081-.56 4.061-1.68a6.1 6.1 0 0 0 1.54-4.061 6.1 6.1 0 0 0-1.54-4.061c-.98-1.12-2.38-1.68-4.06-1.68a5.61 5.61 0 0 0-4.061 1.68c-1.12 1.12-1.68 2.38-1.68 4.06 0 1.541.56 2.941 1.68 4.061a5.608 5.608 0 0 0 4.06 1.68zm113.563-15.543c-1.82 3.5-4.06 6.861-6.72 9.802-2.521 2.94-5.602 5.46-8.963 7.561-3.5 2.1-7.421 3.78-11.762 5.041-4.341 1.26-9.242 1.82-14.563 1.82-7.002 0-13.443-1.12-19.324-3.5-5.881-2.38-10.922-5.741-15.263-9.942-4.341-4.341-7.562-9.382-9.942-15.263s-3.5-12.323-3.5-19.324c0-7.142 1.12-13.583 3.5-19.604 2.38-5.881 5.741-11.062 9.942-15.263 4.34-4.341 9.382-7.562 15.263-9.942S268.574.14 275.576.14c10.222 0 18.344 1.82 24.785 5.321 6.301 3.5 11.342 8.682 15.123 15.403L295.32 39.488c-3.92-8.822-10.222-13.163-18.904-13.163-3.22 0-6.021.56-8.542 1.68-2.52 1.12-4.76 2.661-6.581 4.622-1.82 1.96-3.36 4.34-4.34 7.001-.981 2.66-1.541 5.601-1.541 8.822 0 3.22.56 6.021 1.54 8.682.98 2.66 2.38 5.04 4.201 7.001 1.82 1.96 4.06 3.5 6.581 4.62 2.52 1.121 5.461 1.681 8.542 1.681 5.461 0 9.802-1.26 13.023-3.78 3.22-2.521 5.6-5.602 7.141-9.382l21.144 14.983zM247.43 48.03c0-1.68-.56-3.08-1.68-4.061a6.1 6.1 0 0 0-4.061-1.54c-1.68 0-3.08.56-4.06 1.54-.981.98-1.541 2.38-1.541 4.06a6.1 6.1 0 0 0 1.54 4.062c.98 1.12 2.38 1.68 4.061 1.68 1.54 0 2.94-.56 4.06-1.68a5.608 5.608 0 0 0 1.681-4.061zm2.24-12.883c0-1.68-.56-3.08-1.68-4.2a5.608 5.608 0 0 0-4.06-1.681 5.61 5.61 0 0 0-4.061 1.68c-1.12 1.12-1.68 2.52-1.68 4.201 0 1.54.56 2.8 1.68 3.92 1.12 1.121 2.38 1.681 3.92 1.681s2.941-.56 4.061-1.68c1.26-.98 1.82-2.38 1.82-3.92zm0 26.325c0-1.68-.56-3.08-1.68-4.2a5.608 5.608 0 0 0-4.06-1.68 5.61 5.61 0 0 0-4.061 1.68c-1.12 1.12-1.68 2.52-1.68 4.2 0 1.54.56 2.801 1.68 4.061 1.12 1.12 2.38 1.82 3.92 1.82s2.941-.56 4.061-1.68c1.26-1.26 1.82-2.52 1.82-4.2zm7.282-37.247c0-1.54-.56-2.94-1.68-4.06a5.608 5.608 0 0 0-4.061-1.681c-1.54 0-2.94.56-4.06 1.68a5.608 5.608 0 0 0-1.681 4.06 5.61 5.61 0 0 0 1.68 4.062 5.608 5.608 0 0 0 4.061 1.68c1.54 0 2.8-.56 4.06-1.68.981-1.12 1.681-2.52 1.681-4.061zm-5.601 54.33c1.54 0 2.8-.56 3.92-1.82a5.608 5.608 0 0 0 1.681-4.06c0-1.54-.56-2.94-1.68-4.061-1.12-1.12-2.38-1.68-4.061-1.68-1.54 0-2.94.56-4.06 1.68-1.121 1.12-1.681 2.38-1.681 4.06 0 1.541.56 2.941 1.68 4.062 1.4 1.26 2.66 1.82 4.201 1.82zm16.383-62.452c0-1.54-.56-2.94-1.68-4.06a5.608 5.608 0 0 0-4.06-1.68c-1.681 0-3.081.56-4.062 1.68-.98 1.12-1.54 2.38-1.54 4.06a6.1 6.1 0 0 0 1.54 4.061c.98 1.12 2.38 1.68 4.061 1.68 1.54 0 2.8-.56 4.061-1.82 1.12-1.12 1.68-2.52 1.68-3.92zm.28 64.413c0-1.54-.56-2.94-1.68-4.06a5.608 5.608 0 0 0-4.06-1.68c-1.681 0-3.081.56-4.202 1.68a5.608 5.608 0 0 0-1.68 4.06c0 1.54.56 2.94 1.68 4.061 1.12 1.12 2.52 1.68 4.201 1.68 1.54 0 2.8-.56 4.061-1.68 1.12-1.26 1.68-2.52 1.68-4.06zm13.023-67.773a5.61 5.61 0 0 0-1.68-4.061c-1.12-1.12-2.52-1.68-4.201-1.68-1.54 0-2.8.56-4.061 1.68-1.12 1.12-1.82 2.38-1.82 3.92 0 1.68.56 3.081 1.68 4.201a5.608 5.608 0 0 0 4.06 1.68c1.681 0 3.081-.56 4.202-1.68 1.26-.98 1.82-2.38 1.82-4.06zm0 70.854c0-1.54-.56-2.94-1.68-4.06-1.12-1.121-2.52-1.681-4.201-1.681-1.54 0-2.94.56-4.061 1.68-1.12 1.12-1.68 2.38-1.68 4.061 0 1.54.56 2.94 1.68 4.06a5.608 5.608 0 0 0 4.06 1.681c1.681 0 3.081-.56 4.202-1.68a5.608 5.608 0 0 0 1.68-4.061zm13.303-68.334c0-1.54-.56-2.94-1.68-4.06-1.12-1.121-2.521-1.681-4.201-1.681a5.61 5.61 0 0 0-4.061 1.68c-1.12 1.12-1.68 2.38-1.68 4.061 0 1.54.56 2.94 1.68 4.06a5.608 5.608 0 0 0 4.06 1.681c1.54 0 2.941-.56 4.061-1.82 1.26-.98 1.82-2.38 1.82-3.92zm-5.461 71.415c1.54 0 2.94-.56 4.06-1.68a5.608 5.608 0 0 0 1.68-4.062 6.1 6.1 0 0 0-1.54-4.06c-.98-1.12-2.38-1.68-4.06-1.68a5.61 5.61 0 0 0-4.061 1.68 5.608 5.608 0 0 0-1.68 4.06c0 1.54.56 2.941 1.68 4.061.98 1.12 2.38 1.68 3.92 1.68zm16.663-63.853a5.61 5.61 0 0 0-1.68-4.061 5.608 5.608 0 0 0-4.061-1.68c-1.54 0-2.94.56-4.061 1.68-1.12 1.12-1.68 2.38-1.68 4.06 0 1.54.56 2.941 1.68 4.061 1.12 1.12 2.38 1.68 4.06 1.68 1.541 0 2.941-.56 4.062-1.68 1.12-1.12 1.68-2.38 1.68-4.06zm.56 50.27c0-1.54-.56-2.94-1.68-4.061a5.608 5.608 0 0 0-4.061-1.68c-1.54 0-2.94.56-4.06 1.68a5.608 5.608 0 0 0-1.681 4.06c0 1.541.56 2.941 1.68 4.062a5.608 5.608 0 0 0 4.06 1.68c1.541 0 2.802-.56 4.062-1.82.98-1.12 1.68-2.52 1.68-3.921zM384.378 94.8l-2.94-9.803H352.03l-3.08 9.802h-30.666L350.49 1.68h31.927l32.486 93.12h-30.526zm-43.269-10.503c0-1.54-.56-2.8-1.82-3.92a5.608 5.608 0 0 0-4.061-1.681c-1.68 0-3.08.56-4.06 1.68-.981 1.12-1.541 2.38-1.541 4.061 0 1.68.56 3.08 1.54 4.201.98 1.12 2.38 1.68 4.061 1.68 1.54 0 2.94-.56 4.06-1.68 1.261-1.26 1.821-2.66 1.821-4.34zm4.201-11.622c0-1.54-.56-2.94-1.82-4.061a5.608 5.608 0 0 0-4.061-1.68c-1.54 0-2.94.56-4.061 1.68-1.12 1.12-1.68 2.52-1.68 4.2 0 1.541.56 2.941 1.68 4.062a5.608 5.608 0 0 0 4.06 1.68c1.541 0 2.941-.56 4.062-1.68 1.26-1.4 1.82-2.66 1.82-4.201zm3.92-12.043c0-1.54-.56-2.8-1.68-4.06-1.12-1.12-2.52-1.82-4.06-1.82-1.54 0-2.94.56-4.061 1.68a5.608 5.608 0 0 0-1.68 4.06c0 1.54.56 2.94 1.68 4.061 1.12 1.12 2.38 1.68 4.06 1.68 1.541 0 2.941-.56 4.062-1.68 1.12-.98 1.68-2.38 1.68-3.92zm4.202-12.042c0-1.54-.56-2.8-1.68-4.061-1.12-1.12-2.521-1.82-4.061-1.82s-2.941.56-4.061 1.68a5.608 5.608 0 0 0-1.68 4.06c0 1.541.56 2.941 1.68 4.062 1.12 1.12 2.38 1.68 4.06 1.68a5.61 5.61 0 0 0 4.061-1.68c1.12-.98 1.68-2.24 1.68-3.921zm4.06-11.763c0-1.54-.56-2.8-1.68-4.06-1.12-1.12-2.52-1.82-4.06-1.82a5.61 5.61 0 0 0-4.061 1.68 5.608 5.608 0 0 0-1.68 4.06c0 1.54.56 2.941 1.68 4.061 1.12 1.12 2.38 1.68 4.06 1.68a5.61 5.61 0 0 0 4.061-1.68c1.12-.98 1.68-2.38 1.68-3.92zm1.12 36.268c0-1.54-.56-2.94-1.68-4.061a5.608 5.608 0 0 0-4.06-1.68 5.61 5.61 0 0 0-4.061 1.68 5.608 5.608 0 0 0-1.68 4.06c0 1.541.56 2.941 1.68 4.062 1.12 1.12 2.38 1.68 4.06 1.68a5.61 5.61 0 0 0 4.061-1.68c1.12-.98 1.68-2.38 1.68-4.061zm2.941-48.31c0-1.54-.56-2.8-1.68-4.06-1.12-1.121-2.52-1.821-4.06-1.821-1.541 0-2.941.56-4.062 1.68a5.608 5.608 0 0 0-1.68 4.061c0 1.54.56 2.94 1.68 4.06 1.12 1.121 2.38 1.681 4.061 1.681 1.54 0 2.94-.56 4.061-1.68 1.12-.98 1.68-2.38 1.68-3.921zm-1.82-6.021c1.54 0 2.94-.56 4.06-1.68 1.121-1.12 1.681-2.521 1.681-4.201 0-1.54-.56-2.801-1.68-3.921-1.12-1.12-2.38-1.68-3.921-1.68-1.68 0-3.08.56-4.2 1.68-1.121 1.12-1.681 2.38-1.681 4.06 0 1.681.56 3.081 1.68 4.201.98.98 2.38 1.54 4.061 1.54zm6.721 15.963l-7.841 27.026h15.823l-7.982-27.026zm5.461 38.368c0-1.54-.56-2.94-1.68-4.061-1.12-1.12-2.52-1.68-4.2-1.68-1.541 0-2.941.56-4.062 1.68a5.608 5.608 0 0 0-1.68 4.06c0 1.541.56 2.941 1.82 4.062a5.608 5.608 0 0 0 4.061 1.68c1.68 0 3.08-.56 4.201-1.68.98-.98 1.54-2.38 1.54-4.061zm1.4-54.331c1.541 0 2.941-.56 4.062-1.68 1.12-1.12 1.68-2.521 1.68-4.201 0-1.54-.56-2.801-1.68-3.921-1.12-1.12-2.38-1.68-3.921-1.68-1.54 0-2.94.56-4.061 1.68-1.12 1.12-1.68 2.38-1.68 4.06 0 1.681.56 3.081 1.68 4.201.98.98 2.38 1.54 3.92 1.54zm9.103 6.161c0-1.54-.56-2.94-1.68-4.06a5.608 5.608 0 0 0-4.062-1.681c-1.54 0-2.94.56-4.06 1.68a5.608 5.608 0 0 0-1.68 4.061 6.1 6.1 0 0 0 1.54 4.06c.98 1.121 2.38 1.681 4.06 1.681a5.61 5.61 0 0 0 4.061-1.68c1.26-1.12 1.82-2.52 1.82-4.06zm-2.52 53.911c1.54 0 2.94-.56 4.06-1.68 1.12-1.12 1.68-2.52 1.68-4.201 0-1.54-.56-2.94-1.68-4.061-1.12-1.12-2.38-1.68-4.06-1.68a5.61 5.61 0 0 0-4.062 1.68 5.608 5.608 0 0 0-1.68 4.06c0 1.541.56 2.941 1.68 4.062 1.12 1.26 2.52 1.82 4.061 1.82zm6.58-41.869c0-1.68-.56-3.08-1.68-4.2a5.608 5.608 0 0 0-4.06-1.68c-1.541 0-2.941.56-4.062 1.68a5.608 5.608 0 0 0-1.68 4.06c0 1.54.56 2.941 1.68 4.061 1.12 1.12 2.52 1.68 4.201 1.68 1.54 0 2.94-.56 4.061-1.68.98-.98 1.54-2.38 1.54-3.92zm-1.54 17.504c1.54 0 2.94-.56 4.06-1.68 1.121-1.12 1.681-2.52 1.681-4.201 0-1.54-.56-2.94-1.68-4.061-1.12-1.12-2.38-1.68-4.06-1.68-1.541 0-2.941.56-4.062 1.68-1.12 1.12-1.68 2.38-1.68 4.06 0 1.681.56 3.081 1.68 4.202 1.12 1.12 2.38 1.68 4.061 1.68zm9.802 6.161c0-1.54-.56-2.8-1.68-4.06-1.12-1.12-2.52-1.82-4.061-1.82-1.54 0-2.94.56-4.06 1.68a5.608 5.608 0 0 0-1.681 4.06c0 1.54.56 2.94 1.68 4.061 1.12 1.12 2.38 1.68 4.06 1.68a5.61 5.61 0 0 0 4.062-1.68c.98-.98 1.68-2.38 1.68-3.92zm4.06 12.043c0-1.54-.56-2.94-1.82-4.061a5.608 5.608 0 0 0-4.06-1.68c-1.54 0-2.94.56-4.061 1.68-1.12 1.12-1.68 2.52-1.68 4.2 0 1.541.56 2.941 1.68 4.062 1.12 1.12 2.38 1.68 4.06 1.68 1.541 0 2.941-.56 4.062-1.68 1.26-1.4 1.82-2.66 1.82-4.201zm4.062 11.622c0-1.54-.56-2.94-1.68-4.06-1.12-1.121-2.521-1.681-4.201-1.681-1.54 0-2.801.56-4.061 1.68-1.12 1.12-1.82 2.38-1.82 3.921 0 1.68.56 3.08 1.68 4.2a5.608 5.608 0 0 0 4.06 1.681c1.68 0 3.081-.56 4.201-1.68 1.26-.98 1.82-2.38 1.82-4.06zm56.711-21.704V39.208h50.27c.14 1.68.28 3.36.42 4.9.14 1.681.14 3.222.14 4.902 0 5.601-.84 11.062-2.38 16.103-1.54 5.181-4.34 10.082-8.122 14.843-4.48 5.321-9.942 9.382-16.383 12.323-6.581 2.8-13.583 4.34-21.284 4.34-7.142 0-13.583-1.12-19.604-3.5-6.021-2.38-11.062-5.741-15.403-9.942-4.341-4.201-7.702-9.382-10.082-15.263-2.38-5.881-3.641-12.463-3.641-19.604 0-6.862 1.26-13.303 3.64-19.184 2.521-5.881 5.882-11.062 10.223-15.403 4.34-4.341 9.522-7.702 15.683-10.082C449.07 1.26 455.652 0 462.794 0c5.601 0 10.502.42 14.843 1.4 4.2.98 7.982 2.38 11.062 4.201 3.22 1.82 5.881 4.061 8.262 6.721 2.38 2.661 4.48 5.742 6.301 8.962l-20.304 15.683c-2.24-3.92-4.901-6.86-7.842-8.541-2.94-1.82-7.141-2.66-12.602-2.66-2.8 0-5.461.56-7.982 1.54-2.38.98-4.48 2.52-6.301 4.48-1.82 1.96-3.22 4.341-4.34 7.142-.981 2.8-1.541 6.021-1.541 9.522 0 3.08.42 5.881 1.4 8.682.98 2.66 2.24 5.04 4.06 7.141 1.821 2.1 3.922 3.64 6.582 4.901a21.184 21.184 0 0 0 8.542 1.82c6.721 0 12.182-2.8 16.243-8.261h-19.604zM434.228 48.31c0-1.68-.56-3.08-1.68-4.201a5.608 5.608 0 0 0-4.061-1.68c-1.68 0-3.08.56-4.06 1.68-.981 1.12-1.541 2.52-1.541 4.2a6.1 6.1 0 0 0 1.54 4.062c.98 1.12 2.38 1.68 4.06 1.68a5.61 5.61 0 0 0 4.062-1.68 5.608 5.608 0 0 0 1.68-4.061zm2.24-12.883c0-1.68-.56-3.08-1.68-4.06a6.1 6.1 0 0 0-4.06-1.541 6.1 6.1 0 0 0-4.061 1.54c-1.12.98-1.68 2.38-1.68 4.061 0 1.54.56 2.8 1.68 4.061 1.12 1.12 2.38 1.82 3.92 1.82s2.941-.56 4.061-1.68c1.26-1.26 1.82-2.52 1.82-4.2zm0 25.765c0-1.68-.56-3.08-1.68-4.06a6.1 6.1 0 0 0-4.06-1.54 6.1 6.1 0 0 0-4.061 1.54c-1.12.98-1.68 2.38-1.68 4.06 0 1.54.56 2.801 1.68 4.061 1.12 1.12 2.38 1.82 3.92 1.82s2.941-.56 4.061-1.68c1.26-1.26 1.82-2.66 1.82-4.2zm7.422-36.687c0-1.54-.56-2.94-1.68-4.06a5.608 5.608 0 0 0-4.061-1.681c-1.54 0-2.94.56-4.06 1.68-1.121 1.12-1.681 2.38-1.681 4.061 0 1.54.56 2.94 1.68 4.06a5.608 5.608 0 0 0 4.06 1.681c1.541 0 2.801-.56 4.062-1.68a5.608 5.608 0 0 0 1.68-4.061zm0 47.47a5.61 5.61 0 0 0-1.68-4.061 5.608 5.608 0 0 0-4.061-1.68c-1.54 0-2.94.56-4.06 1.68-1.121 1.12-1.681 2.38-1.681 4.06 0 1.54.56 2.941 1.68 4.061a5.608 5.608 0 0 0 4.06 1.68c1.541 0 2.801-.56 4.062-1.82 1.12-1.12 1.68-2.38 1.68-3.92zm10.362 8.401c0-1.54-.56-2.94-1.68-4.06-1.12-1.12-2.38-1.68-4.061-1.68-1.68 0-3.08.56-4.2 1.68a5.608 5.608 0 0 0-1.681 4.06c0 1.54.56 2.94 1.68 4.061 1.12 1.12 2.52 1.68 4.201 1.68 1.54 0 2.8-.56 3.92-1.68 1.261-1.26 1.821-2.52 1.821-4.06zm.42-63.993c0-1.54-.56-2.94-1.68-4.06a5.608 5.608 0 0 0-4.06-1.68c-1.681 0-3.082.56-4.202 1.68a5.608 5.608 0 0 0-1.68 4.06c0 1.54.56 2.94 1.68 4.061 1.12 1.12 2.52 1.68 4.201 1.68 1.54 0 2.8-.56 4.06-1.82 1.121-1.12 1.681-2.52 1.681-3.92zm7.002 72.955c1.68 0 3.08-.56 4.06-1.68a6.1 6.1 0 0 0 1.54-4.061 6.1 6.1 0 0 0-1.54-4.06c-.98-1.121-2.38-1.681-4.06-1.681-1.54 0-2.94.56-4.061 1.68-1.12 1.12-1.68 2.38-1.68 4.061 0 1.54.56 2.94 1.68 4.06 1.12 1.121 2.38 1.681 4.06 1.681zm.14-70.434c1.68 0 3.08-.56 4.06-1.68.98-1.12 1.54-2.521 1.54-4.201a6.1 6.1 0 0 0-1.54-4.061c-.98-1.12-2.38-1.68-4.06-1.68-1.54 0-2.94.56-4.061 1.82a5.608 5.608 0 0 0-1.68 4.06c0 1.681.56 3.081 1.68 4.202 1.12.98 2.38 1.54 4.06 1.54zm14.703 31.926c0-1.54-.56-2.94-1.68-4.06-1.12-1.12-2.381-1.68-3.921-1.68s-2.941.56-4.061 1.68c-1.12 1.12-1.68 2.52-1.68 4.2 0 1.54.56 2.94 1.68 4.061a5.608 5.608 0 0 0 4.06 1.68 5.61 5.61 0 0 0 4.061-1.68c1.12-1.26 1.54-2.66 1.54-4.2zm-1.4 36.128c1.54 0 2.8-.56 3.92-1.68a5.608 5.608 0 0 0 1.68-4.062c0-1.68-.56-3.08-1.68-4.06-1.12-.98-2.38-1.54-4.06-1.54a6.1 6.1 0 0 0-4.061 1.54c-1.12.98-1.68 2.38-1.68 4.06 0 1.54.56 2.941 1.68 4.061 1.26 1.12 2.66 1.68 4.2 1.68zm5.88-71.835c0-1.54-.56-2.94-1.68-4.06-1.12-1.121-2.52-1.681-4.2-1.681a5.61 5.61 0 0 0-4.061 1.68c-1.12 1.12-1.68 2.38-1.68 4.061 0 1.54.56 2.94 1.68 4.06 1.12 1.121 2.38 1.681 4.06 1.681 1.68 0 2.941-.56 4.061-1.68 1.26-1.12 1.82-2.38 1.82-4.06zm8.122 35.707c0-1.54-.56-2.94-1.68-4.06-1.12-1.12-2.38-1.68-3.92-1.68-1.541 0-2.941.56-4.062 1.68-1.12 1.12-1.68 2.52-1.68 4.2 0 1.54.56 2.94 1.68 4.061a5.608 5.608 0 0 0 4.061 1.68c1.54 0 2.94-.56 4.06-1.68.981-1.26 1.541-2.66 1.541-4.2zm2.1 22.965c0-1.68-.56-3.08-1.68-4.2a5.608 5.608 0 0 0-4.06-1.681c-1.68 0-3.081.56-4.201 1.68-1.12 1.12-1.68 2.52-1.68 4.201 0 1.54.56 2.94 1.68 4.06 1.12 1.121 2.52 1.681 4.2 1.681 1.54 0 2.801-.56 4.061-1.82 1.12-1.12 1.68-2.38 1.68-3.921zm1.541-51.25a5.61 5.61 0 0 0-1.68-4.061 5.608 5.608 0 0 0-4.061-1.68c-1.54 0-2.94.56-4.061 1.68a5.608 5.608 0 0 0-1.68 4.06c0 1.54.56 2.941 1.68 4.061 1.12 1.12 2.38 1.68 4.06 1.68 1.541 0 2.801-.56 4.062-1.68.98-1.12 1.68-2.38 1.68-4.06zm6.161 40.748c0-1.54-.56-2.94-1.68-4.061-1.12-1.12-2.52-1.68-4.201-1.68-1.54 0-2.94.56-4.06 1.68a5.608 5.608 0 0 0-1.681 4.06c0 1.541.56 2.941 1.68 4.062 1.12 1.12 2.38 1.68 4.061 1.68 1.68 0 3.08-.56 4.2-1.68a5.608 5.608 0 0 0 1.681-4.061zm2.8-12.463c0-1.54-.56-2.94-1.68-4.06a5.608 5.608 0 0 0-4.06-1.68 5.61 5.61 0 0 0-4.061 1.68c-1.12 1.12-1.68 2.52-1.68 4.2 0 1.54.56 2.94 1.68 4.061 1.12 1.12 2.38 1.68 4.06 1.68 1.681 0 3.081-.56 4.201-1.68.98-1.26 1.54-2.66 1.54-4.2zm114.264-2.52c0 7.001-1.26 13.443-3.78 19.324-2.521 5.88-6.022 10.922-10.363 15.263-4.34 4.34-9.662 7.701-15.683 10.082-6.021 2.38-12.463 3.64-19.324 3.64-7.001 0-13.443-1.26-19.464-3.64-6.021-2.38-11.202-5.741-15.543-10.082-4.341-4.341-7.842-9.382-10.362-15.263-2.52-5.881-3.781-12.323-3.781-19.324 0-7.142 1.26-13.583 3.64-19.604 2.521-5.881 5.882-11.062 10.223-15.263 4.34-4.341 9.662-7.562 15.683-9.942C553.252 1.12 559.694 0 566.835 0c6.861 0 13.303 1.26 19.324 3.64 6.021 2.381 11.202 5.742 15.683 10.083 4.481 4.34 7.982 9.382 10.502 15.263 2.38 5.881 3.641 12.322 3.641 19.324zm-77.996 0c0-1.68-.56-3.08-1.68-4.201a5.608 5.608 0 0 0-4.061-1.68c-1.68 0-3.08.56-4.06 1.68-.981 1.12-1.541 2.52-1.541 4.2a6.1 6.1 0 0 0 1.54 4.062c.98 1.12 2.38 1.68 4.061 1.68 1.54 0 2.94-.56 4.06-1.68a5.608 5.608 0 0 0 1.681-4.061zm1.96 13.162c0-1.68-.56-3.08-1.68-4.2a5.608 5.608 0 0 0-4.06-1.68 5.61 5.61 0 0 0-4.061 1.68c-1.12 1.12-1.68 2.52-1.68 4.2 0 1.54.56 2.801 1.82 4.061 1.12 1.12 2.52 1.82 4.06 1.82a5.61 5.61 0 0 0 4.061-1.68c.98-1.26 1.54-2.52 1.54-4.2zm-5.46-20.724c1.54 0 2.94-.56 4.06-1.68a5.608 5.608 0 0 0 1.68-4.06c0-1.681-.56-3.082-1.68-4.202-1.12-1.12-2.38-1.68-4.06-1.68a5.61 5.61 0 0 0-4.061 1.68c-1.12 1.12-1.68 2.52-1.68 4.201 0 1.54.56 2.8 1.68 4.06a5.608 5.608 0 0 0 4.06 1.681zm12.742-16.943c0-1.54-.56-2.94-1.68-4.061a5.608 5.608 0 0 0-4.061-1.68c-1.54 0-2.94.56-4.061 1.68a5.608 5.608 0 0 0-1.68 4.06c0 1.541.56 2.941 1.68 4.062 1.12 1.12 2.38 1.68 4.06 1.68 1.541 0 2.941-.56 4.062-1.68a5.608 5.608 0 0 0 1.68-4.061zm0 49.15c0-1.54-.56-2.94-1.68-4.061a5.608 5.608 0 0 0-4.061-1.68c-1.54 0-2.94.56-4.061 1.68-1.12 1.12-1.68 2.38-1.68 4.06 0 1.541.56 2.941 1.68 4.062 1.12 1.12 2.38 1.68 4.06 1.68 1.541 0 2.941-.56 4.062-1.82 1.12-1.12 1.68-2.52 1.68-3.921zm19.604-2.52c6.021 0 10.922-1.961 14.703-5.742 3.78-3.78 5.601-9.242 5.601-16.383 0-7.142-1.82-12.603-5.601-16.384-3.78-3.78-8.682-5.74-14.703-5.74-6.161 0-11.202 1.96-14.843 5.74-3.64 3.781-5.461 9.242-5.461 16.524 0 7.141 1.82 12.602 5.461 16.383 3.78 3.64 8.682 5.601 14.843 5.601zm-8.262-54.052c0-1.54-.56-2.94-1.68-4.06a5.608 5.608 0 0 0-4.06-1.68c-1.681 0-3.081.56-4.202 1.68a5.608 5.608 0 0 0-1.68 4.06c0 1.54.56 2.94 1.68 4.061 1.12 1.12 2.52 1.68 4.201 1.68 1.54 0 2.8-.56 4.061-1.82 1.12-1.12 1.68-2.52 1.68-3.92zm0 63.993c0-1.54-.56-2.94-1.68-4.06a5.608 5.608 0 0 0-4.06-1.68c-1.681 0-3.081.56-4.202 1.68a5.608 5.608 0 0 0-1.68 4.06c0 1.54.56 2.94 1.68 4.061 1.12 1.12 2.52 1.68 4.201 1.68 1.54 0 2.8-.56 4.061-1.68 1.12-1.26 1.68-2.52 1.68-4.06zm8.262-61.752c1.68 0 3.08-.56 4.06-1.68.981-1.12 1.541-2.521 1.541-4.201a6.1 6.1 0 0 0-1.54-4.061c-.98-1.12-2.38-1.68-4.061-1.68-1.54 0-2.8.56-4.06 1.68-1.121 1.12-1.821 2.38-1.821 3.92 0 1.68.56 3.081 1.68 4.201 1.26 1.26 2.66 1.82 4.201 1.82zm0 70.714c1.68 0 3.08-.56 4.06-1.68a6.1 6.1 0 0 0 1.541-4.061 6.1 6.1 0 0 0-1.54-4.06c-.98-1.121-2.38-1.681-4.061-1.681-1.54 0-2.94.56-4.06 1.68-1.121 1.12-1.681 2.38-1.681 4.061 0 1.54.56 2.94 1.68 4.06a5.608 5.608 0 0 0 4.061 1.681zm14.143-67.214c1.68 0 3.08-.56 4.06-1.68a6.1 6.1 0 0 0 1.541-4.06 6.1 6.1 0 0 0-1.54-4.062c-.98-1.12-2.38-1.68-4.061-1.68-1.54 0-2.94.56-4.061 1.68a5.608 5.608 0 0 0-1.68 4.061c0 1.54.56 2.8 1.82 4.061 1.12 1.12 2.38 1.68 3.92 1.68zm5.601 58.252a6.1 6.1 0 0 0-1.54-4.06c-.98-1.12-2.38-1.68-4.061-1.68-1.54 0-2.94.56-4.061 1.68a5.608 5.608 0 0 0-1.68 4.06c0 1.54.56 2.94 1.82 4.061a5.608 5.608 0 0 0 4.06 1.68c1.681 0 3.082-.56 4.062-1.68.84-1.26 1.4-2.52 1.4-4.06zm11.342-56.571c0-1.54-.56-2.94-1.68-4.061a5.608 5.608 0 0 0-4.06-1.68c-1.541 0-2.941.56-4.062 1.68a5.608 5.608 0 0 0-1.68 4.06c0 1.541.56 2.941 1.68 4.062 1.12 1.12 2.38 1.68 3.921 1.68 1.54 0 2.94-.56 4.06-1.68 1.261-1.12 1.821-2.52 1.821-4.061zm0 49.15c0-1.54-.56-2.94-1.68-4.061a5.608 5.608 0 0 0-4.06-1.68c-1.541 0-2.941.56-4.062 1.68-1.12 1.12-1.68 2.38-1.68 4.06 0 1.541.56 2.801 1.68 4.062 1.12 1.12 2.38 1.82 3.921 1.82 1.54 0 2.94-.56 4.06-1.68 1.261-1.26 1.821-2.66 1.821-4.201zm7.142-37.948c0-1.68-.56-3.08-1.68-4.2a5.608 5.608 0 0 0-4.061-1.681 5.61 5.61 0 0 0-4.061 1.68c-1.12 1.12-1.68 2.52-1.68 4.201 0 1.54.56 2.94 1.68 4.06a5.608 5.608 0 0 0 4.06 1.681c1.54 0 2.801-.56 4.061-1.82 1.12-1.12 1.68-2.38 1.68-3.92zm-5.461 32.347c1.54 0 2.8-.56 3.92-1.82a5.608 5.608 0 0 0 1.68-4.062c0-1.68-.56-3.08-1.68-4.2-1.12-1.12-2.38-1.68-4.06-1.68a5.61 5.61 0 0 0-4.061 1.68c-1.12 1.12-1.68 2.52-1.68 4.2 0 1.54.56 2.941 1.68 4.061 1.26 1.12 2.66 1.82 4.2 1.82zm7.561-19.044c0-1.68-.56-3.08-1.68-4.201-1.12-1.12-2.52-1.68-4.201-1.68-1.54 0-2.94.56-4.06 1.68-1.121 1.12-1.681 2.52-1.681 4.2 0 1.541.56 2.941 1.68 4.062 1.12 1.12 2.38 1.68 4.061 1.68 1.68 0 3.08-.56 4.2-1.68a5.608 5.608 0 0 0 1.681-4.061z" fill="#ed1c24"/><path d="M143.39 129.526c6.02 0 12.462 3.22 13.582 11.063h-7.282c-.98-2.941-3.22-4.201-6.3-4.201-4.342 0-7.142 3.22-7.142 8.121 0 4.201 2.8 7.982 7.141 7.982 3.08 0 5.601-1.54 6.441-4.621h7.282c-1.12 8.122-7.562 11.342-13.723 11.342-7.421 0-14.843-4.9-14.843-14.703 0-9.942 7.562-14.983 14.843-14.983zm37.527 7.002h-10.642v4.06h9.802v6.582h-9.802v5.04h11.062v6.582h-18.484v-28.986h18.064v6.722zm14.283 8.122v14.282h-7.702v-28.986h2.66l14.564 14.283v-14.143h7.561v28.986h-2.66L195.2 144.65zm21.704-8.122v-6.582h21.424v6.582h-7.001v22.264h-7.282v-22.264h-7.141zm50.55 21.284v1.12h-8.261l-4.901-8.541h-3.781v8.541h-7.422v-28.986h12.743c11.342 0 13.443 13.723 6.161 18.624l5.461 9.242zm-11.762-21.284h-5.321v7.281h5.32c4.062 0 4.202-7.281 0-7.281zm34.307 18.623h-11.342l-1.68 3.641h-7.282v-1.12l13.022-28.286h3.221l13.023 28.286v1.12h-7.282l-1.68-3.64zm-5.741-13.862l-3.221 7.561h6.581l-3.36-7.561zm25.765 10.921h10.502v6.722h-17.924v-28.986h7.422v22.265zm51.11 6.582h-7.561V147.17h-8.962v11.622h-7.562v-28.986h7.562v10.502h8.962v-10.502h7.561v28.986zm5.601-14.422c0-20.025 29.686-20.025 29.686 0 0 20.163-29.686 20.163-29.686 0zm22.125 0c0-10.363-14.563-10.363-14.563 0 0 10.501 14.563 10.501 14.563 0zm28.706 4.76v-19.184h7.001v19.324c0 6.302-5.461 10.082-11.482 10.082-5.881 0-11.483-3.64-11.483-10.082v-19.324h7.002v19.184c0 2.38 2.24 3.501 4.48 3.501 2.241 0 4.482-1.12 4.482-3.5zm28.425 1.26c0-1.96-2.38-2.52-5.32-2.66-6.302-.42-10.363-2.66-10.503-8.822-.28-12.462 22.265-12.462 22.125 0h-7.002c0-3.78-7.701-3.5-7.981-.14-.14 2.24 1.96 2.66 4.62 2.94 5.742.56 11.343 1.541 11.343 8.683 0 12.182-23.525 12.322-23.385-.42h7.142c-.14 3.78 8.961 3.78 8.961.42zm30.667-13.862h-10.642v4.06h9.802v6.582h-9.802v5.04h11.062v6.582h-18.484v-28.986h18.064v6.722z"/></svg>