<svg xmlns="http://www.w3.org/2000/svg" width="287.029" height="89.574"><defs><clipPath clipPathUnits="userSpaceOnUse" id="a"><path d="M0 67.181h215.272V0H0z"/></clipPath></defs><g clip-path="url(#a)" transform="matrix(1.33333 0 0 -1.33333 0 89.574)"><path d="M126.17 15.447l-1.38.911c7.907 11.975 6.27 28.043-3.892 38.205-11.85 11.846-31.125 11.846-42.974 0l-1.167 1.167c12.49 12.494 32.817 12.491 45.308 0 10.715-10.714 12.443-27.655 4.105-40.283M23.961 50.945l-1.167 1.167 7.735 7.738 1.168-1.167zm7.739 0l-1.169 1.167 7.734 7.738 1.17-1.167zm7.734 0l-1.167 1.167 7.737 7.738 1.167-1.167z" fill="#af7d58"/><path d="M114.363 49.11l-1.15 1.188 17.42 16.883 1.152-1.186z" fill="#af7d58"/><path d="M16.614 18.824L8.425 30.086l-3.38-3.504v-7.758H0v25.337h5.045V32.284L16.07 44.161h5.99L11.814 33.496l10.851-14.672zm54.722 0l-13.1 17.2v-17.2h-4.973v25.337h4.788l12.68-16.665v16.665h4.972V18.824zm35.962.001h5.045v25.336h-5.045zm28.809-.001l-13.1 17.2v-17.2h-4.972v25.337h4.777l12.69-16.665v16.665h4.982V18.824zm18.853-.37c-3.914 0-7.654 1.366-10.571 3.863l2.968 3.555c2.57-2.075 5.036-3.03 7.706-3.03 2.528 0 4.1 1.068 4.1 2.774v.071c0 1.747-1.182 2.538-5.487 3.637-5.681 1.46-8.373 2.97-8.373 7.634v.073c0 2.198.843 4.07 2.446 5.435 1.562 1.336 3.81 2.087 6.307 2.087 3.494 0 6.606-1.029 9.226-3.063l-2.62-3.78c-2.425 1.643-4.613 2.444-6.678 2.444-2.702 0-3.668-1.397-3.668-2.589v-.082c0-2.055 1.614-2.662 5.867-3.75 4.93-1.285 8.004-2.98 8.004-7.47v-.08c0-4.77-3.555-7.729-9.227-7.729m29.642.37l-8.188 11.262-3.392-3.504v-7.758h-5.055v25.337h5.055V32.284l11.036 11.877h5.99l-10.245-10.665 10.851-14.672zm15.885 0v10.028l-9.72 15.31h5.898l6.381-10.748 6.524 10.747h5.701l-9.74-15.206v-10.13zm-155.135 0l-2.363 5.836H31.543l-2.384-5.836h-5.096l4.326 10.183h12.813v.04h.02l-3.956 9.65-.031-.033-2.322 5.682v.01h4.85l10.86-25.532zm40.564 0v4.5h3.596c2.384 0 4.428.782 5.908 2.24 1.49 1.48 2.26 3.493 2.26 5.857v.082c0 4.798-3.349 8.158-8.168 8.158H79.7v4.5h9.812c7.81 0 13.48-5.29 13.48-12.585v-.073c0-3.493-1.315-6.699-3.729-9.02-2.467-2.364-5.929-3.659-9.75-3.659zM30.735 4.331v.025c0 1.913-1.395 3.478-3.321 3.478-1.925 0-3.297-1.541-3.297-3.454v-.024c0-1.914 1.396-3.478 3.32-3.478 1.926 0 3.298 1.541 3.298 3.453m-7.604 0v.025c0 2.323 1.745 4.356 4.307 4.356 2.565 0 4.286-2.01 4.286-4.332v-.024c0-2.323-1.745-4.356-4.31-4.356-2.562 0-4.283 2.009-4.283 4.331M37.34 7.688V1.022h1.974c2.13 0 3.49 1.443 3.49 3.31v.024c0 1.864-1.36 3.332-3.49 3.332zm-.95.88h2.924c2.648 0 4.476-1.817 4.476-4.189v-.023c0-2.37-1.828-4.213-4.476-4.213H36.39zm12.066-.001h6.09v-.865h-5.139V4.825h4.597V3.96h-4.597V1.01h5.198V.143h-6.149zm10.165-7.195l.589.697c.88-.794 1.722-1.191 2.889-1.191 1.131 0 1.877.601 1.877 1.432v.024c0 .782-.42 1.226-2.191 1.601-1.937.421-2.827 1.046-2.827 2.431v.024c0 1.324 1.167 2.298 2.767 2.298 1.229 0 2.106-.349 2.962-1.035l-.554-.734c-.782.638-1.564.915-2.431.915-1.096 0-1.793-.602-1.793-1.36v-.025c0-.794.433-1.238 2.287-1.636 1.876-.41 2.743-1.095 2.743-2.382v-.026c0-1.442-1.203-2.382-2.876-2.382-1.336 0-2.432.446-3.442 1.349m10.357 0l.589.697c.88-.794 1.722-1.191 2.889-1.191 1.13 0 1.877.601 1.877 1.432v.024c0 .782-.42 1.226-2.191 1.601-1.937.421-2.827 1.046-2.827 2.431v.024c0 1.324 1.168 2.298 2.767 2.298 1.229 0 2.106-.349 2.962-1.035l-.553-.734c-.783.638-1.565.915-2.432.915-1.096 0-1.792-.602-1.792-1.36v-.025c0-.794.432-1.238 2.286-1.636 1.876-.41 2.743-1.095 2.743-2.382v-.026c0-1.442-1.202-2.382-2.876-2.382-1.336 0-2.432.446-3.442 1.349m16.373 1.853l-1.914 4.297-1.925-4.297zm-2.346 5.403h.89L87.732.144H86.71l-.987 2.227H81.14L80.141.144h-.976zm18.845-4.357c1.266 0 2.169.65 2.169 1.733v.025c0 1.035-.796 1.66-2.156 1.66h-2.598V4.272zm-3.536 4.296h3.622c1.035 0 1.864-.313 2.394-.842.409-.409.65-1 .65-1.66V6.04c0-1.396-.961-2.214-2.285-2.455L105.28.143h-1.167l-2.444 3.274h-2.405V.143h-.951zm11.355 0h6.09v-.865h-5.14V4.825h4.599V3.96h-4.598V1.01h5.199V.143h-6.15zm10.165-7.195l.589.697c.88-.794 1.722-1.191 2.889-1.191 1.13 0 1.877.601 1.877 1.432v.024c0 .782-.42 1.226-2.191 1.601-1.937.421-2.827 1.046-2.827 2.431v.024c0 1.324 1.168 2.298 2.767 2.298 1.229 0 2.106-.349 2.962-1.035l-.553-.734c-.783.638-1.565.915-2.433.915-1.096 0-1.792-.602-1.792-1.36v-.025c0-.794.433-1.238 2.287-1.636 1.875-.41 2.743-1.095 2.743-2.382v-.026c0-1.442-1.203-2.382-2.877-2.382-1.336 0-2.431.446-3.441 1.349m10.994 7.195h.95V.143h-.95zm7.019-.879V1.022h1.976c2.13 0 3.49 1.443 3.49 3.31v.024c0 1.864-1.36 3.332-3.49 3.332zm-.95.88h2.927c2.644 0 4.474-1.817 4.474-4.189v-.023c0-2.37-1.83-4.213-4.475-4.213h-2.927zm12.068-.001h6.09v-.865h-5.14V4.825h4.599V3.96h-4.598V1.01h5.199V.143h-6.15zm10.718 0h.892l5.305-6.75v6.75h.927V.143h-.758l-5.439 6.908V.143h-.927zm11.788-4.236v.025c0 2.383 1.783 4.356 4.262 4.356 1.53 0 2.441-.542 3.285-1.336l-.65-.697c-.71.673-1.505 1.155-2.647 1.155-1.866 0-3.26-1.517-3.26-3.454v-.024c0-1.951 1.406-3.478 3.26-3.478 1.155 0 1.911.445 2.72 1.215l.625-.614C178.188.59 177.224 0 175.696 0c-2.43 0-4.225 1.912-4.225 4.331m11.959 4.236h6.091v-.865h-5.14V4.825h4.599V3.96h-4.598V1.01h5.198V.143h-6.15z" fill="#244c5a"/></g></svg>