<svg xmlns="http://www.w3.org/2000/svg" width="468.015" height="104.769" viewBox="125.309 161.114 468.015 104.769"><path d="M175.764 260.25c-.21 1.799-.875 3.189-1.993 4.165-1.118.98-2.603 1.466-4.458 1.466-2.01 0-3.621-.72-4.832-2.162-1.212-1.442-1.818-3.37-1.818-5.784V256.3c0-1.58.283-2.972.848-4.171.565-1.2 1.365-2.122 2.401-2.764 1.036-.642 2.236-.963 3.6-.963 1.807 0 3.255.504 4.346 1.512 1.09 1.01 1.725 2.406 1.905 4.189h-2.256c-.195-1.36-.617-2.344-1.268-2.953-.65-.61-1.56-.915-2.728-.915-1.433 0-2.558.53-3.372 1.59-.813 1.06-1.22 2.57-1.22 4.527V258c0 1.847.385 3.317 1.156 4.409.772 1.09 1.85 1.636 3.237 1.636 1.246 0 2.203-.283 2.87-.848.666-.565 1.107-1.548 1.325-2.95l2.257.001zm33.876-2.56c0 1.667-.28 3.122-.841 4.364-.561 1.243-1.355 2.193-2.384 2.847-1.028.655-2.228.981-3.599.981-1.34 0-2.528-.328-3.564-.986-1.037-.659-1.841-1.598-2.414-2.818-.573-1.219-.867-2.631-.882-4.235v-1.23c0-1.635.284-3.08.853-4.334.57-1.255 1.373-2.215 2.414-2.88 1.04-.668 2.23-1 3.57-1 1.362 0 2.565.329 3.604.986 1.04.66 1.84 1.613 2.402 2.864.56 1.25.842 2.705.842 4.364v1.076zm-2.232-1.099c0-2.017-.405-3.566-1.215-4.644-.811-1.08-1.944-1.62-3.401-1.62-1.418 0-2.535.54-3.348 1.62-.814 1.078-1.233 2.576-1.256 4.493v1.25c0 1.956.41 3.493 1.232 4.61.822 1.119 1.953 1.678 3.395 1.678 1.449 0 2.57-.528 3.366-1.584.794-1.056 1.203-2.57 1.227-4.54v-1.263zm36.402 9.057h-2.256l-8.566-13.111v13.111h-2.255v-17.015h2.255l8.59 13.17v-13.17h2.231v17.015zm34.227-5.398c-.21 1.799-.874 3.189-1.992 4.165-1.118.98-2.604 1.466-4.458 1.466-2.01 0-3.621-.72-4.832-2.162-1.212-1.442-1.818-3.37-1.818-5.784V256.3c0-1.58.283-2.972.848-4.171.565-1.2 1.365-2.122 2.401-2.764 1.036-.642 2.236-.963 3.6-.963 1.806 0 3.255.504 4.346 1.512 1.09 1.01 1.725 2.406 1.905 4.189h-2.256c-.195-1.36-.617-2.344-1.268-2.953-.65-.61-1.56-.915-2.728-.915-1.433 0-2.558.53-3.372 1.59-.814 1.06-1.22 2.57-1.22 4.527V258c0 1.847.385 3.317 1.156 4.409.772 1.09 1.85 1.636 3.237 1.636 1.246 0 2.203-.283 2.869-.848.667-.565 1.108-1.548 1.326-2.95l2.256.001zm30.406-2.467h-7.373v6.03h8.566v1.834h-10.81v-17.015h10.693v1.834h-8.45v5.481h7.374v1.836zm23.956 1.204v6.661h-2.244v-17.015h6.276c1.862 0 3.32.475 4.376 1.425 1.055.95 1.583 2.209 1.583 3.775 0 1.651-.516 2.923-1.548 3.815-1.033.891-2.51 1.337-4.435 1.337l-4.008.002zm0-1.834h4.032c1.199 0 2.119-.284 2.757-.85.638-.566.958-1.384.958-2.452 0-1.014-.32-1.826-.958-2.435-.638-.609-1.515-.924-2.63-.95h-4.16v6.687zm41.638-6.685h-5.468v15.18h-2.231v-15.18h-5.459v-1.835h13.158v1.835zm59.451 15.18h-2.256v-7.864h-8.578v7.864h-2.244v-17.015h2.244v7.315h8.578v-7.315h2.256v17.015zm34.802-7.958c0 1.667-.282 3.122-.843 4.364-.56 1.243-1.355 2.193-2.382 2.847-1.029.655-2.229.981-3.6.981-1.34 0-2.528-.328-3.564-.986-1.037-.659-1.84-1.598-2.413-2.818-.574-1.219-.867-2.631-.883-4.235v-1.23c0-1.635.285-3.08.853-4.334.57-1.255 1.374-2.215 2.414-2.88 1.04-.668 2.229-1 3.569-1 1.363 0 2.566.329 3.605.986 1.041.66 1.84 1.613 2.401 2.864.561 1.25.842 2.705.842 4.364v1.076zm-2.234-1.099c0-2.017-.405-3.566-1.215-4.644-.81-1.08-1.945-1.62-3.402-1.62-1.417 0-2.534.54-3.347 1.62-.814 1.078-1.233 2.576-1.257 4.493v1.25c0 1.956.411 3.493 1.232 4.61.822 1.119 1.953 1.678 3.395 1.678 1.448 0 2.57-.528 3.366-1.584.794-1.056 1.203-2.57 1.228-4.54v-1.263zm35.304-7.958v11.57c-.009 1.604-.513 2.917-1.513 3.94-1.002 1.02-2.358 1.593-4.072 1.717l-.597.023c-1.862 0-3.347-.502-4.451-1.508-1.107-1.006-1.667-2.387-1.684-4.15v-11.592h2.22v11.522c0 1.231.34 2.188 1.017 2.87.678.681 1.643 1.022 2.898 1.022 1.27 0 2.243-.34 2.915-1.016.674-.678 1.012-1.633 1.012-2.863v-11.535h2.255zm26.28 9.431c-1.924-.553-3.324-1.233-4.201-2.04-.876-.806-1.315-1.801-1.315-2.985 0-1.34.536-2.449 1.607-3.325 1.071-.877 2.464-1.315 4.178-1.315 1.168 0 2.21.226 3.126.677.917.451 1.624 1.075 2.127 1.87.504.795.755 1.665.755 2.606h-2.257c0-1.033-.327-1.844-.981-2.434-.654-.59-1.577-.886-2.77-.886-1.106 0-1.97.243-2.588.732-.62.487-.929 1.164-.929 2.03 0 .697.295 1.283.883 1.762.588.481 1.589.92 3.004 1.318s2.52.837 3.318 1.316c.798.48 1.39 1.039 1.776 1.677.387.638.578 1.39.578 2.256 0 1.38-.537 2.482-1.612 3.313-1.075.831-2.512 1.245-4.314 1.245a8.032 8.032 0 0 1-3.272-.67c-1.012-.45-1.792-1.062-2.343-1.843-.548-.778-.824-1.663-.824-2.652h2.256c0 1.028.38 1.84 1.139 2.436.76.597 1.774.894 3.044.894 1.184 0 2.092-.241 2.723-.725.631-.482.947-1.14.947-1.976 0-.832-.293-1.478-.877-1.933-.583-.454-1.643-.904-3.178-1.348zm36.53-.281h-7.373v6.03h8.565v1.834h-10.81v-17.015h10.694v1.834h-8.45v5.481h7.374v1.836zm-372.92-96.116v69.277h-9.518v-38.729l-12.146-16.258v54.987h-9.517v-69.277h9.517l12.146 16.026v-16.026zm32.452 8.813v8.137h16.985v9.479h-16.985v33.331h11.907v9.517h-21.423v-42.606h-5.478v-9.721h5.478v-16.95h21.654v8.812zm31.665-8.813l9.804.007 6.347 40.228 6.228-40.235h9.61l6.22 40.235 6.356-40.228 9.8-.007-11.105 69.277H287.91l-5.36-37.215-5.36 37.215h-10.715zm114.237 69.277v-44.121l-13.012-25.156h9.412l8.385 16.905 8.28-16.905h9.525l-13.053 25.315v43.962zm127.799-20.311l16.026 20.322h-11.227l-12.54-16.826v16.826h-9.2v-69.276s7.038-.247 9.522.058c7.247.885 21.054 7.827 22.083 24.206 1.104 17.587-14.664 24.69-14.664 24.69zm-7.418-7.132s13.96-2.875 13.17-17.273c-.686-12.493-13.17-14.95-13.17-14.95V203.5zm62.1-27.938l12.477-13.89H552.7l-10.516 11.718v-11.717h-9.483v69.27h9.483v-44.363l2.537-2.822 10.02 47.185h10.382zm-121.353-14.449c-16.834 0-30.474 15.774-30.474 35.24 0 19.45 13.64 35.227 30.474 35.227 16.829 0 30.476-15.777 30.476-35.227 0-19.466-13.648-35.24-30.476-35.24zm0 61.994c-11.868 0-21.496-13.032-21.496-26.753 0-13.73 9.628-26.768 21.496-26.768 11.873 0 21.498 13.038 21.498 26.768-.001 13.722-9.626 26.753-21.498 26.753zm-305.423-22.59h15v9.518h-15zm453.018 0h14.997v9.518h-14.997z"/></svg>