<svg xmlns="http://www.w3.org/2000/svg" width="240" height="41"><defs><clipPath clipPathUnits="userSpaceOnUse" id="a"><path d="M0 305h409V0H0v305z"/></clipPath></defs><g clip-path="url(#a)" transform="matrix(1.25 0 0 -1.25 0 41)"><path d="M68.461 12.203a7.31 7.31 0 0 1 .665-.06c.19-.006.411-.01.665-.01.58 0 1.128.086 1.644.26.517.173.966.424 1.35.753.383.33.687.73.91 1.204.223.472.335 1.008.335 1.607 0 .645-.104 1.194-.31 1.647-.207.453-.497.82-.87 1.103-.374.283-.82.488-1.34.614-.52.127-1.093.19-1.72.19-.366 0-.64-.058-.824-.175a.95.95 0 0 1-.39-.494 2.263 2.263 0 0 1-.115-.764v-5.875zm.73-.86h-.315c-.143 0-.282.003-.415.01V8.388c0-.374-.005-.695-.015-.962a5.937 5.937 0 0 0-.055-.662l1.89.1v-.91h-5.02v.67c.387.014.677.084.87.21.194.127.33.3.41.52.08.221.122.483.125.786.004.304.006.636.006.996v8.854c0 .28.005.546.014.796.01.25.029.479.056.685l-1.48-.09v.91c.72.013 1.46.022 2.22.025.759.003 1.542.005 2.349.005 1.986 0 3.495-.334 4.528-1 1.107-.726 1.66-1.79 1.66-3.189 0-.287-.032-.603-.095-.95a3.804 3.804 0 0 0-.385-1.075 4.362 4.362 0 0 0-.794-1.06 4.712 4.712 0 0 0-1.27-.88c-.51-.249-1.118-.449-1.825-.599-.706-.15-1.526-.225-2.459-.225m12.03 4.369c-.8 0-1.46-.234-1.98-.702-.52-.469-.863-1.228-1.029-2.277h5.219c0 .359-.04.716-.12 1.071a3.05 3.05 0 0 1-.385.957 2.15 2.15 0 0 1-.685.687c-.28.176-.62.264-1.02.264m4.139-3.719l-7.208-.12c-.007-.788.053-1.502.18-2.143.126-.641.327-1.19.6-1.643a2.925 2.925 0 0 1 1.054-1.052c.43-.247.945-.37 1.545-.37.32 0 .646.043.98.13.333.087.655.206.964.357.31.151.596.332.856.543.26.211.476.437.65.679l.499-.41a4.632 4.632 0 0 0-.975-1.084 5.732 5.732 0 0 0-1.15-.725 5.514 5.514 0 0 0-2.314-.53c-.706 0-1.364.127-1.974.38a4.556 4.556 0 0 0-1.585 1.09 5.155 5.155 0 0 0-1.055 1.71c-.256.665-.384 1.415-.384 2.248 0 .72.123 1.408.37 2.065a5.467 5.467 0 0 0 1.05 1.744c.452.507.995.91 1.629 1.21.633.3 1.336.45 2.11.45a4.58 4.58 0 0 0 1.604-.28 3.717 3.717 0 0 0 1.324-.84c.38-.373.68-.845.9-1.414.22-.57.33-1.235.33-1.995m6.934 3.409a2.028 2.028 0 0 1-.79-.145 3.12 3.12 0 0 1-.785-.455 4.45 4.45 0 0 1-.724-.72c-.227-.28-.43-.59-.61-.93l.02-5.028c0-.273-.004-.515-.01-.724a4.86 4.86 0 0 0-.07-.666l1.29.06v-.84h-4.2v.61c.314 0 .552.062.715.185.164.123.282.295.355.515.073.22.115.484.125.79.01.307.015.643.015 1.01v4.679c0 .213.003.428.01.644.007.217.03.442.07.675l-1.45-.06v.84h.63c.293 0 .537.015.73.045.193.03.355.072.485.125.13.053.238.112.325.175.087.063.17.132.25.205h.59c.02-.213.038-.478.055-.795.016-.316.03-.725.045-1.224.153.253.35.508.59.764a4.731 4.731 0 0 0 1.779 1.19c.346.13.703.195 1.07.195.186 0 .368-.025.545-.075a1.197 1.197 0 0 0 .774-.635c.08-.16.12-.353.12-.58a1.024 1.024 0 0 0-.234-.63 1.026 1.026 0 0 0-.315-.25 1.003 1.003 0 0 0-.47-.1.86.86 0 0 0-.415.1.956.956 0 0 0-.49.615 1.109 1.109 0 0 0-.025.435m8.92 5.018a.785.785 0 0 1-.405.281c-.17.053-.328.08-.475.08-.32 0-.583-.072-.79-.215a1.522 1.522 0 0 1-.49-.565 2.715 2.715 0 0 1-.255-.785 5.133 5.133 0 0 1-.075-.874v-2.15h2.76v-.8l-2.76-.05.02-7.218c0-.273-.003-.515-.01-.724a4.059 4.059 0 0 0-.08-.666l1.29.06v-.84h-4.169v.61c.313 0 .551.062.715.186.163.122.282.294.355.514.073.22.113.483.12.79.007.307.01.643.01 1.01l-.02 6.238-1.68-.03v.92h1.68v.43c0 .76.065 1.441.195 2.044s.341 1.115.635 1.535c.293.42.675.743 1.145.97.47.226 1.04.34 1.714.34.22 0 .458-.029.715-.085a2.56 2.56 0 0 0 .71-.27 1.82 1.82 0 0 0 .544-.47c.147-.19.22-.419.22-.685 0-.273-.08-.497-.24-.67a.795.795 0 0 0-.61-.26.895.895 0 0 0-.42.085.837.837 0 0 0-.414.495.945.945 0 0 0-.02.515c.016.084.045.168.085.255m6.026-4.709c-.8 0-1.46-.234-1.98-.702-.52-.469-.863-1.228-1.03-2.277h5.22c0 .359-.04.716-.12 1.071a3.06 3.06 0 0 1-.385.957 2.15 2.15 0 0 1-.685.687c-.28.176-.62.264-1.02.264m4.139-3.719l-7.208-.12c-.007-.788.053-1.502.18-2.143.126-.641.326-1.19.6-1.643a2.926 2.926 0 0 1 1.054-1.052c.43-.247.945-.37 1.545-.37.32 0 .646.043.98.13.333.087.655.206.964.357.31.151.595.332.855.543.26.211.477.437.65.679l.5-.41a4.632 4.632 0 0 0-.975-1.084 5.732 5.732 0 0 0-1.15-.725 5.514 5.514 0 0 0-2.314-.53c-.706 0-1.364.127-1.974.38a4.553 4.553 0 0 0-1.585 1.09 5.149 5.149 0 0 0-1.055 1.71c-.256.665-.385 1.415-.385 2.248 0 .72.124 1.408.37 2.065a5.467 5.467 0 0 0 1.05 1.744c.453.507.996.91 1.63 1.21.633.3 1.336.45 2.11.45.566 0 1.1-.093 1.604-.28a3.717 3.717 0 0 0 1.324-.84c.38-.373.68-.845.9-1.414.22-.57.33-1.235.33-1.995m8.433 2.632c-.093.24-.23.431-.41.575-.18.143-.374.254-.584.335-.21.08-.42.13-.63.154-.21.024-.385.036-.525.036a2.934 2.934 0 0 1-2.35-1.12c-.293-.367-.524-.824-.695-1.37-.17-.546-.254-1.173-.254-1.88 0-.68.085-1.307.254-1.884a4.76 4.76 0 0 1 .716-1.49 3.321 3.321 0 0 1 1.11-.974c.432-.234.912-.35 1.439-.35.32 0 .636.045.95.135.313.09.61.215.89.375s.538.346.774.56c.237.213.439.443.605.69l.53-.41a5.01 5.01 0 0 0-.935-1.095 5.552 5.552 0 0 0-1.1-.75 5.19 5.19 0 0 0-1.159-.435 4.752 4.752 0 0 0-1.105-.14c-.693 0-1.346.119-1.96.355a4.708 4.708 0 0 0-1.61 1.03 4.837 4.837 0 0 0-1.089 1.655c-.267.652-.4 1.395-.4 2.229 0 .473.059.94.175 1.4a5.926 5.926 0 0 0 1.305 2.474 5.163 5.163 0 0 0 2.364 1.535c.47.146.968.22 1.495.22a5.38 5.38 0 0 0 1.55-.21 4.19 4.19 0 0 0 1.2-.56c.333-.234.589-.502.77-.805.18-.304.269-.622.269-.955 0-.293-.082-.545-.245-.755-.164-.21-.399-.318-.705-.325a.88.88 0 0 0-.45.085.885.885 0 0 0-.45.54 1.03 1.03 0 0 0-.05.295c0 .133.022.273.066.42.043.147.125.283.244.41m2.468 1.567c.36.006.686.105.98.295.293.19.551.426.774.71.223.283.412.591.565.925.153.333.273.646.36.94h.7c0-.547-.002-1.057-.005-1.53-.004-.474-.005-.92-.005-1.34h3.449v-.8l-3.45-.04c-.006-.886-.01-1.643-.01-2.269 0-.627-.001-1.15-.004-1.57-.004-.42-.005-.751-.005-.994a21.8 21.8 0 0 0-.01-.8v-.065c0-.467.025-.878.075-1.235.05-.357.134-.656.255-.9.12-.243.278-.426.475-.55.196-.123.444-.185.744-.185.353 0 .703.107 1.05.32.347.214.653.517.92.91l.55-.45c-.3-.453-.599-.808-.895-1.064a3.994 3.994 0 0 0-.845-.58 2.553 2.553 0 0 0-.744-.245 4.256 4.256 0 0 0-.606-.05 4.13 4.13 0 0 0-.634.05 2.37 2.37 0 0 0-.64.195c-.21.096-.407.233-.59.41a2.475 2.475 0 0 0-.485.684c-.14.28-.25.62-.33 1.02-.08.4-.117.873-.11 1.42l.04 5.918-1.57-.01v.88z" fill="#181715"/><path d="M41.372 15.51a.83.83 0 1 0 0 1.659.83.83 0 0 0 0-1.658m-24.11-.001a.83.83 0 1 0 0 1.659.83.83 0 0 0 0-1.658m12.055 1.512a.829.829 0 1 0 0 1.658.829.829 0 0 0 0-1.658" fill="#006241"/><path d="M48.115 12.14s-1.845.784-5.14 1.645c-3.701.966-8.953 1.39-13.658 1.4-4.705-.01-9.925-.573-13.659-1.4-3.088-.684-5.14-1.644-5.14-1.644l-3.707 3.92s4.037-.557 6.056.279c2.018.836 2.981 4.529 2.981 4.529s4.486-3.453 7.126-3.295c2.64.16 6.343 5.2 6.343 5.2s3.704-5.04 6.343-5.2c2.64-.158 7.126 3.295 7.126 3.295s.963-3.693 2.981-4.53c2.019-.835 6.056-.277 6.056-.277l-3.708-3.921zm-1.033-2.07c-.228-.764-.586-5.076-1.002-6.06-1.019.82-8.274 2.645-16.74 2.645h-.047c-8.465 0-15.72-1.825-16.739-2.646-.416.985-.743 5.307-1.003 6.061-.123.358.103.674.103.674 1.173 1.595 8.569 3.482 17.54 3.482h.245c8.973 0 16.368-1.887 17.541-3.482 0 0 .199-.351.102-.674M29.424 1.21h-.215c-8.255 0-14.45 1.06-15.753 1.746.812.776 7.273 2.41 15.753 2.41h.215c8.48 0 14.942-1.634 15.754-2.41C43.875 2.27 37.68 1.21 29.424 1.21m29.018 19.2c-.196.263-2.833-.344-3.616-.222-.653.236-1.022.972-1.604.991-.771.027-1.338-.482-1.338-1.224 0-.09.01-.178.027-.263-.497-1.36-2.77-2.51-4.221-2.286-2.146.332-2.592 2.035-2.988 3.449-.19.68.87.493 1.032 1.462.132.797-.32 1.446-1.362 1.731.53.158.912.583.912 1.088 0 .639-.12 1.48-1.03 1.652-.827.155-1.682-1.013-1.682-1.652 0-.389.228-.732.573-.941-1.566-.032-2.747-.513-2.624-1.524.045-.367.305-.66.198-.928-.107-.268-2.695-2.566-4.4-2.566-1.85 0-4.465 2.33-4.67 3.196-.04 0 1.154.665 1.24 1.362.16 1.28-.977 2.283-2.335 2.664.143.224.227.491.227.78 0 .779-.645 2.366-1.394 2.366-.024 0-.047-.006-.07-.01-.024.004-.047.01-.07.01-.75 0-1.394-1.587-1.394-2.366 0-.289.084-.556.227-.78-1.359-.38-2.496-1.385-2.336-2.664.087-.697 1.281-1.361 1.24-1.362-.205-.867-2.818-3.196-4.67-3.196-1.704 0-4.293 2.298-4.4 2.566-.106.268.154.56.199.928.122 1.01-1.058 1.492-2.624 1.524.346.209.573.552.573.941 0 .639-.856 1.807-1.682 1.652-.91-.172-1.03-1.013-1.03-1.652 0-.505.382-.93.911-1.088-1.042-.285-1.494-.934-1.361-1.731.16-.97 1.222-.782 1.032-1.462-.396-1.414-.842-3.117-2.988-3.449-1.45-.224-3.725.926-4.221 2.286.017.085.027.173.027.263 0 .742-.567 1.25-1.338 1.224-.582-.02-.951-.755-1.604-.991-.783-.122-3.42.485-3.616.222 0 0-.176-.19-.176-.464 0-.214 9.543-8.109 10.274-9.083.709-.945 1.59-6.81 1.983-8.02a.829.829 0 0 1 .173-.403C13.53 1.072 21.989.153 29.209.153h.215c7.22 0 15.68.919 16.764 2.286a.81.81 0 0 1 .172.402c.395 1.212 1.275 7.076 1.984 8.021.73.974 10.273 8.87 10.273 9.083 0 .274-.175.464-.175.464" fill="#006241"/><path d="M29.317 13.083c-1.243 0-2.252-1.164-2.252-2.598 0-1.435 1.009-2.598 2.252-2.598 1.244 0 2.251 1.163 2.251 2.598 0 1.434-1.007 2.598-2.251 2.598m10.029-6.308c1.029-.29 2.143.466 2.487 1.69.344 1.223-.212 2.45-1.24 2.739-1.031.289-2.145-.467-2.489-1.69-.344-1.224.212-2.45 1.242-2.74m-20.058.001c-1.029-.29-2.143.466-2.487 1.69-.344 1.223.212 2.45 1.24 2.739 1.031.289 2.144-.467 2.489-1.69.344-1.224-.212-2.45-1.242-2.74m129.937-.117h-.56c-.227 0-.527-.04-.9-.12a8.916 8.916 0 0 1-1.31-.41 7.161 7.161 0 0 0-.699-.22 9.56 9.56 0 0 0-.775-.17 11.106 11.106 0 0 0-.785-.11 7.19 7.19 0 0 0-.73-.04c-1.026 0-1.966.165-2.819.495a6.226 6.226 0 0 0-2.2 1.42c-.613.616-1.089 1.37-1.43 2.259-.339.89-.509 1.895-.509 3.014 0 .64.065 1.278.195 1.915s.327 1.243.59 1.82c.263.576.591 1.112.985 1.609a6.398 6.398 0 0 0 3.174 2.154 7.3 7.3 0 0 0 2.184.31c.367 0 .74-.026 1.12-.08.38-.053.753-.128 1.12-.225a8.34 8.34 0 0 0 1.06-.354c.34-.14.652-.297.94-.47l-.09.98h1.129v-4.69h-.74c-.047.642-.19 1.213-.43 1.714-.24.501-.555.922-.944 1.263-.39.34-.844.601-1.36.782-.517.18-1.071.27-1.665.27-.726 0-1.41-.161-2.05-.485a5.146 5.146 0 0 1-1.669-1.35c-.473-.578-.848-1.265-1.124-2.061-.277-.798-.415-1.673-.415-2.627 0-.967.133-1.86.4-2.676.266-.817.64-1.52 1.124-2.111a5.208 5.208 0 0 1 1.735-1.386 4.93 4.93 0 0 1 2.22-.5c.272 0 .559.02.859.06.3.04.601.1.905.18.303.08.603.185.9.315.296.13.578.285.844.465v4.478l-1.44-.08v.9h4.63v-.67c-.254 0-.467-.048-.64-.144a1.252 1.252 0 0 1-.42-.37 1.74 1.74 0 0 1-.245-.5 3.276 3.276 0 0 1-.12-.545 4.737 4.737 0 0 1-.04-.505 17.37 17.37 0 0 1-.005-.375v-3.13zm8.305 8.708a2.028 2.028 0 0 1-.79-.145 3.122 3.122 0 0 1-.784-.455c-.257-.2-.498-.44-.725-.72-.227-.28-.43-.59-.61-.93l.02-5.029c0-.273-.003-.514-.01-.724a4.865 4.865 0 0 0-.07-.665l1.29.06v-.84h-4.199v.61c.313 0 .551.062.715.185.163.123.281.295.355.515a2.8 2.8 0 0 1 .125.79c.01.306.015.643.015 1.01v4.678c0 .213.003.428.01.645.006.217.03.441.07.675l-1.45-.06v.84h.63c.293 0 .536.014.73.044.193.03.355.072.484.125.13.054.239.112.325.176.087.063.17.131.25.204h.59c.02-.213.039-.478.055-.794.017-.317.032-.725.045-1.225.154.253.35.508.59.765a4.657 4.657 0 0 0 1.78 1.19c.346.13.703.194 1.069.194.187 0 .368-.025.545-.075a1.208 1.208 0 0 0 .775-.635c.08-.16.12-.353.12-.58a1.027 1.027 0 0 0-.235-.629 1.025 1.025 0 0 0-.315-.25 1.003 1.003 0 0 0-.47-.1.861.861 0 0 0-.415.1.956.956 0 0 0-.49.615 1.101 1.101 0 0 0-.024.435m6.771.339c-.54 0-1.002-.12-1.384-.36a2.927 2.927 0 0 1-.945-.96 4.461 4.461 0 0 1-.545-1.382 7.393 7.393 0 0 1-.175-1.621c0-.634.065-1.251.195-1.852.13-.6.328-1.132.595-1.596a3.392 3.392 0 0 1 1.004-1.116c.404-.28.875-.42 1.415-.42s.995.122 1.365.365c.37.244.67.566.9.966.23.4.395.857.495 1.371.1.514.15 1.041.15 1.582 0 .613-.057 1.22-.17 1.82a5.808 5.808 0 0 1-.54 1.612 3.35 3.35 0 0 1-.955 1.151c-.39.294-.859.44-1.405.44m0 .78c.72 0 1.393-.131 2.02-.394a5.061 5.061 0 0 0 1.634-1.09 5.145 5.145 0 0 0 1.1-1.65 5.23 5.23 0 0 0 .405-2.064 6.22 6.22 0 0 0-.395-2.23 5.678 5.678 0 0 0-1.09-1.81 5.135 5.135 0 0 0-1.64-1.214 4.72 4.72 0 0 0-2.034-.445 5.24 5.24 0 0 0-2.014.385 4.962 4.962 0 0 0-1.63 1.075 5.014 5.014 0 0 0-1.095 1.644 5.368 5.368 0 0 0-.4 2.095c0 .806.132 1.558.395 2.254.263.697.625 1.3 1.085 1.81.46.51 1.003.91 1.63 1.2a4.77 4.77 0 0 0 2.03.434m13.731-3.021c0 .334.007.62.02.856a6.2 6.2 0 0 0 .08.706l-1.47-.06v.84h.63c.293 0 .543.014.75.044.207.03.383.072.53.125a1.787 1.787 0 0 1 .63.38h.59l-.02-7.738a22.351 22.351 0 0 0-.02-.914 26.538 26.538 0 0 0-.026-.53 12.17 12.17 0 0 0-.034-.475l1.47.08v-.86h-2.93c-.033.233-.062.448-.085.645-.023.196-.042.391-.055.585a6.083 6.083 0 0 0-.71-.605 5.322 5.322 0 0 0-1.72-.83 3.458 3.458 0 0 0-.91-.125c-.559 0-1.049.075-1.469.225-.42.15-.77.398-1.05.745-.28.346-.49.805-.63 1.375s-.21 1.277-.21 2.124v3.64c0 .212.004.429.01.649.007.22.03.446.071.68l-1.41-.06v.84h.64c.286 0 .533.014.74.044.206.03.383.072.53.125a1.79 1.79 0 0 1 .63.38h.59V10.11a8.7 8.7 0 0 1 .12-1.546c.079-.437.207-.8.384-1.09.177-.29.405-.504.685-.641s.623-.205 1.03-.205c.26 0 .514.043.765.13.25.087.488.203.714.35.227.147.438.314.635.5.196.187.365.388.505.601v5.255zm8.711 2.021c-.24 0-.473-.031-.7-.095a3.654 3.654 0 0 1-1.719-1.055c0-.054.002-.116.005-.185.003-.07.005-.189.005-.356v-.706c0-.303-.002-.71-.005-1.22a935.179 935.179 0 0 1-.015-4.67c.34-.253.713-.45 1.12-.59a3.89 3.89 0 0 1 1.28-.21c.486 0 .922.117 1.309.35.386.234.716.559.99.976.273.417.483.911.63 1.482.146.57.22 1.195.22 1.876 0 .553-.059 1.094-.176 1.621a4.66 4.66 0 0 1-.55 1.411c-.25.414-.57.746-.964.996s-.87.375-1.43.375m-4.169-1.789c0 .213.003.43.01.65.007.22.03.446.07.68l-1.45-.08v.86c.447 0 .81.015 1.09.044.28.03.506.072.675.125.17.054.302.112.395.176.093.063.177.13.25.204h.6a24.674 24.674 0 0 0 .08-1.1 5.086 5.086 0 0 0 2.32 1.14 4.274 4.274 0 0 0 2.564-.26 4.288 4.288 0 0 0 1.434-1.005c.413-.436.743-.97.99-1.599.246-.63.37-1.341.37-2.134 0-.58-.065-1.127-.195-1.64a6.058 6.058 0 0 0-.545-1.414 5.413 5.413 0 0 0-.834-1.155 5.257 5.257 0 0 0-1.065-.865 5.06 5.06 0 0 0-1.235-.545 4.798 4.798 0 0 0-1.345-.19c-.946 0-1.763.223-2.45.67l-.01-3.39c0-.272-.003-.514-.009-.724a4.877 4.877 0 0 0-.07-.665l1.29.06v-.84h-4.18v.61c.314 0 .552.062.715.185.164.124.28.295.35.515.07.22.11.483.12.79.01.306.019.643.025 1.01l.04 9.887z" fill="#006241"/></g></svg>