<svg xmlns="http://www.w3.org/2000/svg" viewBox="0 0 308.3 97.5"><path d="M58.5 80.8c-2 0-3.6.7-4.8 2-1.1 1.4-1.7 3.2-1.7 5.5 0 2.4.6 4.3 1.7 5.6 1.1 1.3 2.7 2 4.8 2 1.3 0 2.7-.2 4.4-.7V97c-1.3.5-2.8.7-4.7.7-2.7 0-4.8-.8-6.2-2.5-1.5-1.6-2.2-4-2.2-7 0-1.9.4-3.5 1.1-5 .7-1.4 1.7-2.5 3.1-3.3 1.3-.8 2.9-1.2 4.7-1.2 1.9 0 3.6.4 5 1.1l-.9 1.8c-1.5-.4-2.9-.8-4.3-.8zm24.2 7.5c0 2.9-.7 5.2-2.2 6.9-1.5 1.7-3.5 2.5-6.2 2.5s-4.8-.8-6.2-2.5c-1.5-1.6-2.2-4-2.2-7s.7-5.3 2.2-6.9c1.5-1.6 3.6-2.5 6.3-2.5 2.6 0 4.7.8 6.2 2.5 1.4 1.8 2.1 4.1 2.1 7zm-14.6 0c0 2.5.5 4.4 1.6 5.6 1.1 1.3 2.6 1.9 4.6 1.9 2 0 3.6-.6 4.6-1.9 1-1.3 1.6-3.2 1.6-5.7s-.5-4.3-1.5-5.6c-1-1.3-2.6-1.9-4.6-1.9-2 0-3.6.6-4.6 1.9-1.1 1.4-1.7 3.3-1.7 5.7zm33 9.2h-2.4l-10-15.4h-.1c.1 1.8.2 3.5.2 5v10.4h-2V79.2h2.4l10 15.3h.1c0-.2-.1-1-.1-2.2-.1-1.2-.1-2.1-.1-2.6V79.2h2v18.3zM114 80.8c-2 0-3.6.7-4.8 2-1.2 1.3-1.7 3.2-1.7 5.5 0 2.4.6 4.3 1.7 5.6 1.1 1.3 2.7 2 4.8 2 1.3 0 2.7-.2 4.4-.7V97c-1.3.5-2.8.7-4.7.7-2.7 0-4.8-.8-6.2-2.5-1.5-1.6-2.2-4-2.2-7 0-1.9.4-3.5 1.1-5 .7-1.4 1.7-2.5 3.1-3.3 1.3-.8 2.9-1.2 4.7-1.2 1.9 0 3.6.4 5 1.1l-.9 1.8c-1.5-.4-2.9-.8-4.3-.8zm18.6 16.7h-10.2V79.2h10.2v1.9h-8.1V87h7.6v1.9h-7.6v6.7h8.1v1.9zm15.7-13c0 1.9-.6 3.3-1.9 4.3-1.3 1-3.1 1.5-5.4 1.5h-2.2v7.2h-2.1V79.2h4.7c4.6 0 6.9 1.8 6.9 5.3zm-9.5 4h1.9c1.9 0 3.3-.3 4.1-.9.8-.6 1.3-1.6 1.3-2.9 0-1.2-.4-2.1-1.2-2.7-.8-.6-2-.9-3.7-.9h-2.4v7.4zm18.9 9h-2.1V81.1h-5.8v-1.9h13.7v1.9h-5.8v16.4zm29.2 0h-2.1v-8.6h-9.6v8.6H173V79.2h2.1V87h9.6v-7.8h2.1v18.3zm20.9-9.2c0 2.9-.7 5.2-2.2 6.9-1.5 1.7-3.5 2.5-6.2 2.5s-4.8-.8-6.2-2.5c-1.5-1.6-2.2-4-2.2-7s.7-5.3 2.2-6.9c1.5-1.6 3.6-2.5 6.3-2.5 2.6 0 4.7.8 6.2 2.5 1.4 1.8 2.1 4.1 2.1 7zm-14.6 0c0 2.5.5 4.4 1.6 5.6 1.1 1.3 2.6 1.9 4.6 1.9 2 0 3.6-.6 4.6-1.9 1-1.3 1.6-3.2 1.6-5.7s-.5-4.3-1.5-5.6c-1-1.3-2.6-1.9-4.6-1.9-2 0-3.6.6-4.6 1.9-1.2 1.4-1.7 3.3-1.7 5.7zm32.5-9.1V91c0 2.1-.6 3.7-1.9 4.9-1.3 1.2-3 1.8-5.2 1.8s-3.9-.6-5.1-1.8-1.8-2.9-1.8-5V79.2h2.1v12c0 1.5.4 2.7 1.3 3.5.8.8 2.1 1.2 3.7 1.2 1.5 0 2.7-.4 3.6-1.2.8-.8 1.3-2 1.3-3.5v-12h2zm15.2 13.4c0 1.6-.6 2.9-1.8 3.8-1.2.9-2.8 1.4-4.8 1.4-2.2 0-3.8-.3-5-.8v-2.1c.8.3 1.6.6 2.5.8.9.2 1.8.3 2.6.3 1.4 0 2.5-.3 3.2-.8.7-.5 1.1-1.3 1.1-2.2 0-.6-.1-1.2-.4-1.6-.3-.4-.7-.8-1.3-1.1-.6-.3-1.5-.7-2.7-1.2-1.7-.6-2.9-1.3-3.7-2.2-.7-.8-1.1-1.9-1.1-3.3s.5-2.5 1.6-3.4c1.1-.8 2.5-1.3 4.2-1.3 1.8 0 3.5.3 5 1l-.7 1.9c-1.5-.6-3-1-4.4-1-1.1 0-2 .2-2.6.7-.6.5-1 1.2-1 2 0 .6.1 1.2.4 1.6.2.4.6.8 1.2 1.1.6.3 1.4.7 2.5 1.1 1.9.7 3.2 1.4 4 2.2.9.9 1.2 1.9 1.2 3.1zm14 4.9h-10.2V79.2h10.2v1.9h-8.1V87h7.6v1.9h-7.6v6.7h8.1v1.9zm-180.2-47V0h7.7v44.4m102.1 6.1V0h7.7v44.4M0 0h7.7c1 0 2 0 3.2.1 1.2.1 2.3.3 3.5.6 1.2.3 2.3.8 3.3 1.5 1.1.7 2 1.6 2.9 2.7.8 1.2 1.5 2.6 2 4.3s.8 3.8.8 6.3v1.8c0 2.7-.2 5-.7 6.9-.5 1.9-1.1 3.5-1.8 4.8-.8 1.3-1.7 2.4-2.7 3.1-1 .8-2.1 1.4-3.2 1.8-1.1.4-2.2.7-3.3.8-1.1.1-2.2.2-3.1.2h-.9v15.4H0V0zm8 29.5c1.4 0 2.5-.2 3.5-.6.9-.4 1.7-1 2.3-1.9.6-.9 1-2 1.2-3.3.2-1.3.4-3 .4-4.9v-4.6c0-1.5-.1-2.8-.3-3.9-.2-1.1-.6-2-1.2-2.7-.6-.7-1.3-1.2-2.3-1.6-.9-.2-2.1-.4-3.6-.4h-.3v23.9H8zM27.8 0h7.7v21.1h9.1V0h7.7v50.5h-7.7V27.2h-9.1v23.3h-7.7V0zm31.9 0h7.7v50.5h-7.7V0zm47.1 0h8.8l9.3 50.5h-7.7l-1.4-9h-9.2l-1.3 9h-7.8L106.8 0zm8.2 35.7l-3.5-25.1h-.3l-3.6 25.1h7.4zM129.9 0h7.9c1.2 0 2.4 0 3.7.1 1.3.1 2.6.3 3.8.6 1.2.4 2.4.9 3.5 1.6s2.1 1.8 2.9 3.1c.8 1.3 1.5 3 2 5s.7 4.5.7 7.4v14.7c0 2.9-.2 5.4-.7 7.4-.5 2-1.1 3.7-2 5-.8 1.3-1.8 2.3-2.9 3.1-1.1.7-2.3 1.3-3.5 1.6-1.2.4-2.5.6-3.8.6-1.3.1-2.5.1-3.7.1h-7.9V0zm9.6 45.1c1.4 0 2.5-.2 3.4-.5.9-.4 1.6-1 2.1-1.9.5-.9.9-2.1 1.1-3.7.2-1.5.3-3.5.3-5.9V17.5c0-2.4-.1-4.3-.3-5.9s-.6-2.7-1.1-3.6c-.5-.9-1.2-1.5-2.1-1.9-.9-.4-2-.5-3.4-.5h-2v39.5h2zM160 0h18.7v6h-11.1v15.1h8.5v6h-8.5v17.3H179v6h-19V0zm47.5 0h7.7c1 0 2 0 3.2.1 1.2.1 2.3.3 3.5.6 1.2.3 2.3.8 3.3 1.5 1.1.7 2 1.6 2.9 2.7.8 1.2 1.5 2.6 2 4.3.5 1.7.8 3.8.8 6.3v1.8c0 2.7-.2 5-.7 6.9-.5 1.9-1.1 3.5-1.8 4.8-.8 1.3-1.7 2.4-2.7 3.1-1 .8-2.1 1.4-3.2 1.8-1.1.4-2.2.7-3.3.8-1.1.1-2.2.2-3.1.2h-.7v15.4h-7.7V0zm8 29.5c1.4 0 2.5-.2 3.5-.6.9-.4 1.7-1 2.3-1.9.6-.9 1-2 1.2-3.3.2-1.3.4-3 .4-4.9v-4.6c0-1.5-.1-2.8-.3-3.9-.2-1.1-.6-2-1.2-2.7-.6-.7-1.3-1.2-2.3-1.6-.9-.3-2.1-.5-3.6-.5h-.4v23.9h.4zM235.3 0h7.7v21.1h9.1V0h7.7v50.5H252V27.2h-9.1v23.3h-7.7V0zm31.8 0h7.7v50.5h-7.7V0zm23.1 0h8.8l9.3 50.5h-7.7l-1.4-9H290l-1.3 9h-7.8L290.2 0zm8.1 35.7l-3.5-25.1h-.3l-3.6 25.1h7.4z" fill="#00000"/><path fill="#6E6E74" d="M192.2 44.4h10.4v6.1h-18.1M82.4 44.4h10.4v6.1H74.7"/></svg>