<svg xmlns="http://www.w3.org/2000/svg" width="207" height="65"><path d="M60.407 55.472c-1 0-1.8-.3-2.4-1-.6-.6-1-1.5-1-2.4 0-.9.3-1.8 1-2.4.6-.7 1.4-1 2.4-1s1.8.4 2.4 1.1l-.6.6c-.5-.6-1.1-.8-1.8-.8s-1.3.2-1.8.7c-.5.5-.7 1.1-.7 1.9 0 .8.2 1.4.7 1.9.5.5 1.1.7 1.8.7.8 0 1.4-.3 2-1l.6.6c-.3.4-.7.7-1.1.9-.5.1-1 .2-1.5.2m11.6-3.4c0 1-.3 1.8-1 2.4-.6.7-1.4 1-2.4 1-.9 0-1.7-.3-2.4-1-.6-.6-1-1.5-1-2.4 0-1 .3-1.8 1-2.4.6-.7 1.4-1 2.4-1 .9 0 1.7.3 2.4 1s1 1.5 1 2.4m-5.8 0c0 .8.2 1.4.7 1.9.5.5 1.1.7 1.8.7s1.3-.2 1.8-.7c.5-.5.7-1.1.7-1.9 0-.8-.2-1.4-.7-1.9-.5-.5-1.1-.7-1.8-.7s-1.3.2-1.8.7c-.5.6-.7 1.2-.7 1.9m13.7 3.3h-.9l-3.3-5.3h-.1l.1 1.2v4.1h-.9v-6.5h1.1l3.1 5h.1l-.1-1.2v-3.8h.9zm6.1.1c-1 0-1.8-.3-2.4-1-.6-.6-1-1.5-1-2.4 0-.9.3-1.8 1-2.4.6-.7 1.4-1 2.4-1s1.8.4 2.4 1.1l-.6.6c-.5-.6-1.1-.8-1.8-.8s-1.3.2-1.8.7c-.5.5-.7 1.1-.7 1.9 0 .8.2 1.4.7 1.9.5.5 1.1.7 1.8.7.8 0 1.4-.3 2-1l.6.6c-.3.4-.7.7-1.1.9-.4.2-1 .2-1.5.2m8.9-3h-2.7v2.1h2.9v.8h-3.8v-6.5h3.8v.8h-2.9v2h2.7zm4 .2v2.6h-.8v-6.5h2.2c.6 0 1 .2 1.4.6.4.4.6.8.6 1.4 0 .6-.2 1-.6 1.4-.4.4-.9.6-1.4.6h-1.4zm0-3v2.3h1.4c.3 0 .6-.1.8-.3.2-.2.3-.5.3-.8 0-.3-.1-.6-.3-.8-.2-.2-.5-.3-.8-.3h-1.4zm5.7-.8h4.5v.8h-1.8v5.7h-.9v-5.7h-1.8zm15.1 2.8v-2.8h.8v6.5h-.8v-3h-3.3v3h-.8v-6.5h.8v2.8zm10.2.4c0 1-.3 1.8-1 2.4-.6.7-1.4 1-2.4 1-.9 0-1.7-.3-2.4-1-.6-.6-1-1.5-1-2.4 0-1 .3-1.8 1-2.4.6-.7 1.4-1 2.4-1 .9 0 1.7.3 2.4 1s1 1.5 1 2.4m-5.8 0c0 .8.2 1.4.7 1.9.5.5 1.1.7 1.8.7s1.3-.2 1.8-.7c.5-.5.7-1.1.7-1.9 0-.8-.2-1.4-.7-1.9-.5-.5-1.1-.7-1.8-.7s-1.3.2-1.8.7c-.5.6-.7 1.2-.7 1.9m10.9 3.4c-.7 0-1.3-.2-1.7-.7-.4-.5-.7-1.1-.7-1.9v-4.1h.8v4.1c0 .5.1 1 .4 1.3.3.3.7.5 1.2.5s.9-.2 1.2-.5c.3-.3.4-.7.4-1.3v-4.1h.8v4.1c0 .8-.2 1.4-.7 1.9-.4.5-.9.7-1.7.7m9.4-1.9c0 .6-.2 1-.6 1.4-.4.3-.9.5-1.5.5-.5 0-1-.2-1.4-.5-.4-.3-.7-.7-.9-1.3l.8-.3c.1.2.1.4.2.5.1.2.2.3.3.4.1.1.3.2.4.3.2.1.3.1.5.1.4 0 .7-.1.9-.3.2-.2.4-.5.4-.8 0-.3-.1-.5-.3-.7-.2-.2-.5-.4-1.1-.5-.5-.2-.8-.3-1-.4-.7-.4-1-.9-1-1.6 0-.5.2-.9.6-1.2.4-.3.9-.5 1.4-.5.5 0 .9.1 1.3.4.4.2.6.6.7.9l-.8.3c-.1-.2-.2-.4-.4-.6-.2-.2-.5-.2-.8-.2-.3 0-.6.1-.8.3-.2.2-.3.4-.3.7 0 .2.1.4.3.6.2.2.6.4 1.3.6.7.2 1.1.5 1.4.8.3.3.4.7.4 1.1m6.4-1.1h-2.7v2.1h3v.8h-3.8v-6.5h3.8v.8h-3v2h2.7zm-104.9-28.7h-10.2v7.9h11.3v3.1h-14.5v-25h14.5v3.1h-11.3v7.9h10.2zm27.8 4.3c0 2.2-.8 3.9-2.4 5.3-1.6 1.3-3.6 1.9-5.9 1.9-2.1 0-3.9-.6-5.5-1.8-1.6-1.2-2.7-2.9-3.3-4.9l3.1-1.3c.2.7.5 1.4.9 2 .4.6.8 1.1 1.3 1.5.5.4 1.1.8 1.7 1 .6.2 1.2.4 1.9.4 1.5 0 2.7-.4 3.6-1.1.9-.8 1.4-1.8 1.4-3 0-1-.4-1.9-1.1-2.7-.7-.7-2.1-1.4-4-2.1-2-.7-3.2-1.2-3.7-1.5-2.6-1.3-4-3.3-4-6 0-1.8.7-3.4 2.2-4.7 1.5-1.3 3.3-1.9 5.5-1.9 1.9 0 3.6.5 4.9 1.5 1.4 1 2.3 2.1 2.8 3.6l-3 1.3c-.3-.9-.8-1.7-1.7-2.3-.9-.6-1.8-.9-3-.9-1.3 0-2.3.3-3.2 1-.9.7-1.3 1.5-1.3 2.5 0 .9.3 1.6 1 2.2.7.6 2.4 1.4 4.8 2.2 2.5.9 4.3 1.9 5.4 3.2 1.1 1.3 1.6 2.8 1.6 4.6m10.8-18.3h3.2v24.9h-3.2zm59.7 14h-10.3v7.9h11.4v3.1h-14.6v-25h14.6v3.1h-11.4v7.9h10.3zm41.9-14h17.1v3.1h-6.9v21.9h-3.2v-21.9h-7z"/><g transform="translate(-30.193 -35.528)"><path d="M38.2 57.2h5.2c1.3 0 2.4-.4 3.3-1.3.9-.9 1.3-1.9 1.3-3.2 0-1.2-.4-2.2-1.3-3-.8-.9-1.9-1.3-3.2-1.3h-5.4v-3.1h5.3c2.2 0 4 .7 5.5 2.1 1.5 1.4 2.3 3.2 2.3 5.3 0 1.7-.6 3.2-1.7 4.6-1.1 1.3-2.5 2.2-4.3 2.6l.1.1 7 10.1v.1h-3.8l-6.7-10.1h-3.6v-2.9"/><linearGradient id="a" gradientUnits="userSpaceOnUse" x1="-.017" y1="147.691" x2="1.065" y2="147.691" gradientTransform="matrix(0 48.2937 48.2937 0 -7095.918 35)"><stop offset="0" stop-color="#eff6e6"/><stop offset=".484" stop-color="#edb37a"/><stop offset="1" stop-color="#bd7a42"/></linearGradient><path fill="url(#a)" d="M35 45.3h3.2v24.9H35z"/></g><g transform="translate(-30.193 -35.528)"><path d="M133.1 67.2h4.4c2.9 0 5.2-.8 6.9-2.5 1.7-1.7 2.5-4 2.5-6.9 0-2.9-.8-5.2-2.5-6.9-1.7-1.7-4-2.5-6.9-2.5h-4.4v-3.1h4.4c3.8 0 6.9 1.1 9.2 3.4 2.3 2.3 3.5 5.3 3.5 9s-1.2 6.7-3.5 9-5.4 3.4-9.2 3.4h-4.4v-2.9"/><linearGradient id="b" gradientUnits="userSpaceOnUse" x1="-.017" y1="147.84" x2="1.065" y2="147.84" gradientTransform="matrix(0 48.2937 48.2937 0 -7008.224 35)"><stop offset="0" stop-color="#eff6e6"/><stop offset=".484" stop-color="#edb37a"/><stop offset="1" stop-color="#bd7a42"/></linearGradient><path fill="url(#b)" d="M129.9 45.3h3.2v24.9h-3.2z"/></g><g transform="translate(-30.193 -35.528)"><path d="M206 70.3h-3.4L190 49.9h-.2l.2 4.8v8.5h-3.2V45.3h3.9l12.1 19.4h.1l-.1-4.8V45.3h3.2z"/><linearGradient id="c" gradientUnits="userSpaceOnUse" x1="-.017" y1="147.929" x2="1.065" y2="147.929" gradientTransform="matrix(0 48.2937 48.2937 0 -6955.682 35)"><stop offset="0" stop-color="#eff6e6"/><stop offset=".484" stop-color="#edb37a"/><stop offset="1" stop-color="#bd7a42"/></linearGradient><path fill="url(#c)" d="M186.8 63.2h3.2v7.1h-3.2z"/></g></svg>