<svg xmlns="http://www.w3.org/2000/svg" width="229.5" height="166.7"><path d="M0 126.7c0-.2.1-.3.2-.4.1-.1.2-.1.4-.1H4c.1 0 .3 0 .4.1.1.1.2.2.2.4v4.3c0 .3.2.5.5.5h5c.1 0 .3 0 .4-.1.1-.1.2-.2.2-.4v-6.8c0-.1 0-.3-.1-.5s-.2-.3-.3-.4l-9.6-7.8c-.3-.2-.4-.5-.4-.8v-10.3c0-.1 0-.3.1-.5s.1-.3.3-.4l2.8-3.2c.1-.1.2-.2.4-.3.2-.1.3-.1.5-.1h7.1c.3 0 .6.1.9.4l2.6 3.2c.1.1.2.3.2.4.1.2.1.3.1.5v4.2c0 .1 0 .3-.1.4-.1.1-.2.2-.4.2h-3.3c-.1 0-.3-.1-.4-.2-.1-.1-.1-.2-.1-.4v-4.2c0-.1-.1-.3-.2-.4-.1-.1-.2-.1-.4-.1h-5c-.3 0-.5.2-.5.5v8.4c0 .1 0 .3.1.5s.2.3.3.4l9.6 7.8c.1.1.2.2.3.4.1.2.1.3.1.5v8.7c0 .1 0 .3-.1.5s-.1.3-.2.4l-2.6 3.2c-.1.1-.3.2-.4.3-.2.1-.3.1-.4.1H4.5c-.1 0-.3 0-.5-.1s-.3-.2-.4-.3L.8 132c-.1-.1-.2-.3-.3-.4-.1-.2-.1-.3-.1-.5v-4.4zm17.2 5.4c0-.1.1-.3.2-.4.1-.1.2-.2.4-.2h1c.3 0 .5-.2.6-.5l5.1-26.6c0-.1 0-.3-.1-.4-.1-.1-.2-.1-.4-.1h-.4c-.1 0-.3-.1-.4-.2-.1-.1-.1-.2-.1-.4v-2.9c0-.1 0-.3.1-.4.1-.1.2-.2.4-.2h7.5c.1 0 .3.1.4.2.1.1.2.2.2.4v2.9c0 .1-.1.3-.2.4-.1.1-.2.2-.4.2h-.3c-.3 0-.5.2-.4.5l5.1 26.6c0 .1.1.3.2.4.1.1.2.1.4.1h.9c.1 0 .3.1.4.2.1.1.1.2.1.4v2.9c0 .1 0 .3-.1.4-.1.1-.2.2-.4.2h-6.9c-.1 0-.3-.1-.4-.2-.1-.1-.2-.2-.2-.4v-2.9c0-.1.1-.3.2-.4.1-.1.2-.2.4-.2h1.2c.3 0 .5-.2.4-.5l-1.2-5.9c0-.1-.1-.3-.2-.4-.1-.1-.2-.1-.4-.1H25c-.3 0-.5.2-.6.5l-1.1 5.9c0 .1 0 .3.1.4.1.1.2.1.3.1h1.1c.1 0 .3.1.4.2.1.1.2.2.2.4v2.9c0 .1-.1.3-.2.4-.1.1-.2.2-.4.2h-7c-.1 0-.3-.1-.4-.2-.1-.1-.2-.2-.2-.4v-2.9zm8.1-12c0 .1 0 .3.1.4.1.1.2.1.4.1h3.3c.3 0 .5-.2.4-.5l-2-10.4c-.1-.3-.1-.3-.2 0l-2 10.4zM46 100c.1 0 .3 0 .4.1.1.1.2.2.3.4l6 19.7c0 .1.1.2.1.2v-15.9c0-.1-.1-.3-.2-.4-.1-.1-.2-.1-.4-.1h-1.4c-.1 0-.3-.1-.4-.2-.1-.1-.2-.2-.2-.4v-2.9c0-.1.1-.3.2-.4.1-.1.2-.2.4-.2h7.8c.1 0 .3.1.4.2.1.1.2.2.2.4v2.9c0 .1-.1.3-.2.4-.1.1-.2.2-.4.2h-1c-.3 0-.5.2-.5.5V135c0 .1-.1.3-.2.4-.1.1-.2.2-.4.2h-3.2c-.1 0-.3 0-.4-.1-.1-.1-.2-.2-.3-.4l-6.7-22c0-.1-.1-.2-.1-.2V131c0 .3.2.5.5.5h1c.1 0 .3.1.4.2.1.1.2.2.2.4v2.9c0 .1-.1.3-.2.4-.1.1-.2.2-.4.2h-7.5c-.1 0-.3-.1-.4-.2-.1-.1-.2-.2-.2-.4v-2.9c0-.1.1-.3.2-.4.1-.1.2-.2.4-.2h1c.1 0 .3 0 .4-.1.1-.1.2-.2.2-.4v-26.6c0-.1-.1-.3-.2-.4-.1-.1-.2-.1-.4-.1h-1c-.1 0-.3-.1-.4-.2-.1-.1-.2-.2-.2-.4v-2.9c0-.1.1-.3.2-.4.1-.1.2-.2.4-.2H46zm33 19.7c0-.1-.1-.3-.2-.4-.1-.1-.2-.2-.4-.2h-1.7c-.1 0-.3.1-.4.2-.1.1-.1.2-.1.4V131c0 .3.2.5.5.5h1.4c.1 0 .3.1.3.2.1.1.1.2.1.4v2.9c0 .1 0 .3-.1.4-.1.1-.2.2-.4.2h-7.7c-.1 0-.3-.1-.4-.2-.1-.1-.2-.2-.2-.4v-2.9c0-.1.1-.3.2-.4.1-.1.2-.2.4-.2h1c.1 0 .3 0 .4-.1.1-.1.2-.2.2-.4v-26.6c0-.1-.1-.3-.2-.4-.1-.1-.2-.1-.4-.1h-1c-.1 0-.3-.1-.4-.2-.1-.1-.2-.2-.2-.4v-2.9c0-.1.1-.3.2-.4.1-.1.2-.2.4-.2h14c.1 0 .3.1.4.2.1.1.1.2.1.4v8.1c0 .1 0 .3-.1.4-.1.1-.2.2-.4.2h-2.9c-.1 0-.3-.1-.4-.2-.1-.1-.1-.2-.1-.4v-4.2c0-.1-.1-.3-.2-.4-.1-.1-.2-.1-.4-.1h-3.6c-.3 0-.5.2-.5.5v10.2c0 .1 0 .3.1.4.1.1.2.2.4.2h1.7c.1 0 .3-.1.4-.2.1-.1.2-.2.2-.4v-1.6c0-.3.2-.5.5-.5h3.2c.1 0 .3 0 .4.1.1.1.2.2.2.4v8c0 .1-.1.3-.2.4-.1.1-.2.2-.4.2h-3.2c-.1 0-.3-.1-.4-.2-.1-.1-.1-.2-.1-.4v-1.2zm9.5 11.8c.1 0 .3 0 .4-.1.1-.1.2-.2.2-.4v-26.6c0-.1-.1-.3-.2-.4-.1-.1-.2-.1-.4-.1h-1c-.1 0-.3-.1-.4-.2-.1-.1-.2-.2-.2-.4v-2.9c0-.1.1-.3.2-.4.1-.1.2-.2.4-.2h10.7c.1 0 .3 0 .5.1s.3.2.4.3l2.7 3.2c.1.1.2.3.2.4.1.2.1.3.1.5v12.5c0 .1 0 .3-.1.5s-.1.3-.2.5l-2.1 2.7c-.2.3-.2.6-.1.9l4.9 9.6c.2.3.4.5.7.5h.9c.1 0 .3.1.4.2.1.1.2.2.2.4v2.9c0 .1-.1.3-.2.4-.1.1-.2.2-.4.2h-7.7c-.1 0-.3-.1-.4-.2-.1-.1-.1-.2-.1-.4v-2.9c0-.1 0-.3.1-.4.1-.1.2-.2.4-.2h1c.1 0 .2 0 .3-.1v-.3L95 122c0-.1-.1-.2-.3-.3-.2-.1-.3-.1-.4-.1h-.4c-.3 0-.5.2-.5.5v9c0 .3.2.5.5.5h1.4c.1 0 .3.1.4.2.1.1.1.2.1.4v2.9c0 .1 0 .3-.1.4-.1.1-.2.2-.4.2h-7.8c-.1 0-.3-.1-.4-.2-.1-.1-.2-.2-.2-.4v-2.9c0-.1.1-.3.2-.4.1-.1.2-.2.4-.2h1zM94 104c-.3 0-.5.2-.5.5V117c0 .1 0 .3.1.4.1.1.2.2.4.2h3.2c.1 0 .3-.1.4-.2.1-.1.2-.2.2-.4v-10c0-.1 0-.3-.1-.5s-.1-.3-.2-.5l-.9-1.6-.3-.3c-.2-.1-.3-.1-.4-.1H94zm14.6 28.1c0-.1.1-.3.2-.4.1-.1.2-.2.4-.2h1c.3 0 .5-.2.6-.5l5.1-26.6c0-.1 0-.3-.1-.4-.1-.1-.2-.1-.4-.1h-.4c-.1 0-.3-.1-.4-.2-.1-.1-.1-.2-.1-.4v-2.9c0-.1 0-.3.1-.4.1-.1.2-.2.4-.2h7.5c.1 0 .3.1.4.2.1.1.2.2.2.4v2.9c0 .1-.1.3-.2.4-.1.1-.2.2-.4.2h-.2c-.3 0-.5.2-.4.5L127 131c0 .1.1.3.2.4.1.1.2.1.4.1h.9c.1 0 .3.1.4.2.1.1.1.2.1.4v2.9c0 .1 0 .3-.1.4-.1.1-.2.2-.4.2h-6.9c-.1 0-.3-.1-.4-.2-.1-.1-.2-.2-.2-.4v-2.9c0-.1.1-.3.2-.4.1-.1.2-.2.4-.2h1.2c.3 0 .5-.2.4-.5l-1.2-5.9c0-.1-.1-.3-.2-.4-.1-.1-.2-.1-.4-.1h-4.9c-.3 0-.5.2-.6.5l-1.1 5.9c0 .1 0 .3.1.4.1.1.2.1.3.1h1.1c.1 0 .3.1.4.2.1.1.2.2.2.4v2.9c0 .1-.1.3-.2.4-.1.1-.2.2-.4.2h-7c-.1 0-.3-.1-.4-.2-.1-.1-.2-.2-.2-.4v-2.9zm8.2-12c0 .1 0 .3.1.4.1.1.2.1.4.1h3.3c.3 0 .5-.2.4-.5l-2-10.4c-.1-.3-.1-.3-.2 0l-2 10.4zm20.6-20.1c.1 0 .3 0 .4.1.1.1.2.2.3.4l6 19.7c0 .1.1.2.1.2v-15.9c0-.1-.1-.3-.2-.4-.1-.1-.2-.1-.4-.1h-1.3c-.1 0-.3-.1-.4-.2-.1-.1-.2-.2-.2-.4v-2.9c0-.1.1-.3.2-.4.1-.1.2-.2.4-.2h7.8c.1 0 .3.1.4.2.1.1.2.2.2.4v2.9c0 .1-.1.3-.2.4-.1.1-.2.2-.4.2h-1c-.3 0-.5.2-.5.5V135c0 .1-.1.3-.2.4-.1.1-.2.2-.4.2h-3.4c-.1 0-.3 0-.4-.1-.1-.1-.2-.2-.3-.4l-6.7-22c0-.1-.1-.2-.1-.2V131c0 .3.2.5.5.5h1c.1 0 .3.1.4.2.1.1.2.2.2.4v2.9c0 .1-.1.3-.2.4-.1.1-.2.2-.4.2h-7.3c-.1 0-.3-.1-.4-.2-.1-.1-.2-.2-.2-.4v-2.9c0-.1.1-.3.2-.4.1-.1.2-.2.4-.2h1c.1 0 .3 0 .4-.1.1-.1.2-.2.2-.4v-26.6c0-.1-.1-.3-.2-.4-.1-.1-.2-.1-.4-.1h-1c-.1 0-.3-.1-.4-.2-.1-.1-.2-.2-.2-.4v-2.9c0-.1.1-.3.2-.4.1-.1.2-.2.4-.2h6.1zm19.9 35.5c-.1 0-.3 0-.5-.1s-.3-.2-.4-.3l-2.7-3.2c-.1-.1-.2-.3-.3-.4-.1-.2-.1-.3-.1-.5v-26.6c0-.1 0-.3.1-.5s.1-.3.3-.4l2.7-3.2c.1-.1.2-.2.4-.3.2-.1.3-.1.5-.1h6.8c.1 0 .3 0 .5.1s.3.2.4.3l2.6 3.2c.1.1.2.3.2.4.1.2.1.3.1.5v4.2c0 .1-.1.3-.2.4-.1.1-.2.2-.4.2h-3.4c-.1 0-.3-.1-.4-.2-.1-.1-.2-.2-.2-.4v-4.2c0-.1-.1-.3-.2-.4-.1-.1-.2-.1-.4-.1h-4.4c-.3 0-.5.2-.5.5V131c0 .3.2.5.5.5h4.6c.1 0 .3 0 .4-.1.1-.1.2-.2.2-.4v-4.3c0-.2.1-.3.2-.4.1-.1.2-.1.4-.1h3.4c.1 0 .3 0 .4.1.1.1.2.2.2.4v4.3c0 .1 0 .3-.1.5s-.2.3-.2.4l-2.6 3.2c-.1.1-.2.2-.4.3-.2.1-.3.1-.5.1h-7zm12.5-3.4c0-.1.1-.3.2-.4.1-.1.2-.2.4-.2h1c.1 0 .3 0 .4-.1.1-.1.2-.2.2-.4v-26.6c0-.1-.1-.3-.2-.4-.1-.1-.2-.1-.4-.1h-1c-.1 0-.3-.1-.4-.2-.1-.1-.2-.2-.2-.4v-2.9c0-.1.1-.3.2-.4.1-.1.2-.2.4-.2h7.5c.1 0 .3.1.4.2.1.1.2.2.2.4v2.9c0 .1-.1.3-.2.4-.1.1-.2.2-.4.2h-1c-.3 0-.5.2-.5.5V131c0 .3.2.5.5.5h1c.1 0 .3.1.4.2.1.1.2.2.2.4v2.9c0 .1-.1.3-.2.4-.1.1-.2.2-.4.2h-7.6c-.1 0-.3-.1-.4-.2-.1-.1-.2-.2-.2-.4v-2.9zm11.1-5.4c0-.2.1-.3.2-.4.1-.1.2-.1.4-.1h3.4c.1 0 .3 0 .4.1.1.1.2.2.2.4v4.3c0 .3.2.5.5.5h5c.1 0 .3 0 .4-.1.1-.1.2-.2.2-.4v-6.8c0-.1 0-.3-.1-.5s-.2-.3-.3-.4l-9.6-7.8c-.3-.2-.4-.5-.4-.8v-10.3c0-.1 0-.3.1-.5s.1-.3.3-.4l2.8-3.2c.1-.1.2-.2.4-.3.2-.1.3-.1.5-.1h7.1c.3 0 .6.1.9.4l2.6 3.2c.1.1.2.3.2.4.1.2.1.3.1.5v4.2c0 .1 0 .3-.1.4-.1.1-.2.2-.4.2h-3.3c-.1 0-.3-.1-.4-.2-.1-.1-.1-.2-.1-.4v-4.2c0-.1-.1-.3-.2-.4-.1-.1-.2-.1-.4-.1h-5c-.3 0-.5.2-.5.5v8.4c0 .1 0 .3.1.5s.2.3.3.4l9.6 7.8c.1.1.2.2.3.4.1.2.1.3.1.5v8.7c0 .1 0 .3-.1.5s-.1.3-.2.4l-2.6 3.2c-.1.1-.3.2-.4.3-.2.1-.3.1-.4.1h-7.1c-.1 0-.3 0-.5-.1s-.3-.2-.4-.3l-2.8-3.2c-.1-.1-.2-.3-.3-.4-.1-.2-.1-.3-.1-.5v-4.4zm21.2 8.8c-.1 0-.3 0-.5-.1s-.3-.2-.4-.3l-2.7-3.2c-.1-.1-.2-.3-.3-.4-.1-.2-.1-.3-.1-.5v-26.6c0-.1 0-.3.1-.5s.1-.3.3-.4l2.7-3.2c.1-.1.2-.2.4-.3.2-.1.3-.1.5-.1h6.8c.1 0 .3 0 .5.1s.3.2.4.3l2.6 3.2c.1.1.2.3.2.4.1.2.1.3.1.5v4.2c0 .1-.1.3-.2.4-.1.1-.2.2-.4.2h-3.4c-.1 0-.3-.1-.4-.2-.1-.1-.2-.2-.2-.4v-4.2c0-.1-.1-.3-.2-.4-.1-.1-.2-.1-.4-.1h-4.6c-.3 0-.5.2-.5.5V131c0 .3.2.5.5.5h4.6c.1 0 .3 0 .4-.1.1-.1.2-.2.2-.4v-4.3c0-.2.1-.3.2-.4.1-.1.2-.1.4-.1h3.4c.1 0 .3 0 .4.1.1.1.2.2.2.4v4.3c0 .1 0 .3-.1.5s-.2.3-.2.4l-2.6 3.2c-.1.1-.2.2-.4.3-.2.1-.3.1-.5.1h-6.8zm23-21.3v-.1m-6.9-13.9c-.2.1-.3.2-.4.3l-2.7 3.2c-.1.1-.2.3-.3.4-.1.2-.1.3-.1.5v26.6c0 .1 0 .3.1.5s.1.3.3.4l2.7 3.2c.1.1.2.2.4.3.2.1.3.1.5.1h7.1c.1 0 .3 0 .4-.1.2-.1.3-.2.4-.3l2.6-3.2c.1-.1.2-.3.2-.4.1-.2.1-.3.1-.5v-26.6c0-.1 0-.3-.1-.5s-.1-.3-.2-.4l-2.6-3.2c-.1-.1-.3-.2-.4-.3-.2-.1-.3-.1-.4-.1h-7.1c-.2 0-.4 0-.5.1zm.9 21.4v-7.4m0 0v-9.6c0-.3.2-.5.5-.5h4.9c.3 0 .5.2.5.5v26.6c0 .3-.2.5-.5.5h-4.9c-.3 0-.5-.2-.5-.5v-9.6m6 .1v-.1"/><path d="M90.4 41.7c-.4-1.2-1.8-1.9-3-1.4-.6.2-1.1.6-1.3 1.2l-.6-.3c.3-.7 1-1.3 1.7-1.5 1.1-.4 2.3-.1 3.1.7.2-1.1.9-2 2-2.4.8-.3 1.6-.2 2.3.1l-.3.6c-.6-.3-1.2-.3-1.8-.1-1.2.4-1.9 1.8-1.4 3l-.7.1zm5.3 0c-.1-.6-.7-1.1-1.3-1-.3 0-.6.2-.8.4l-.5-.4c.3-.4.7-.6 1.2-.7.6-.1 1.2.2 1.6.6.3-.5.8-.9 1.4-1 .5-.1 1 .1 1.3.4l-.4.5c-.2-.2-.6-.3-.9-.2-.6.1-1.1.7-1 1.3l-.6.1z" fill="#be1e2d"/><path d="M122.5 53c3-.2 5.7 1.6 6.5 4.5l.1.4.3-.2c1.1-.5 2.5-.5 3.5.2l.3.2.2-.2c.9-1.2 2.2-2 3.7-2.1h1.2c1.1.2 2.2.7 2.9 1.6l.3.3.2-.3c1.1-1.5 2.7-2.4 4.5-2.5.5 0 1 0 1.5.1.4.1.9.2 1.3.4l.4.2.1-.5c.3-1.9 1.7-3.5 3.4-4v-.7c-2 .6-3.6 2.2-4 4.3-.4-.1-.7-.2-1.1-.3-.5-.1-1.1-.1-1.6-.1-1.9.2-3.6 1.1-4.7 2.5-.8-.8-1.9-1.3-3-1.5-.4-.1-.9-.1-1.3 0-1.6.1-3 .9-4 2.1-1.1-.6-2.4-.7-3.5-.2-1-3-3.9-4.9-7.1-4.6h-.3c0 .2.1.4.1.6 0-.2 0-.2.1-.2zm-10.1-.9c-2.6 1.4-3.9 4.5-3.1 7.3l.1.4h-.4c-1.2.2-2.3.9-2.9 2l-.1.3-.3-.1c-1.4-.6-2.9-.5-4.2.2-.4.2-.7.4-1 .7-.9.8-1.4 1.8-1.6 2.9l-.1.4-.4-.1c-1.7-.7-3.6-.5-5.2.3-.4.2-.8.5-1.2.8-.3.3-.6.6-.9 1l-.2.3-.3-.4c-1.3-1.5-3.3-2-5.1-1.5-.1-.2-.2-.4-.4-.6 2-.6 4.2-.1 5.7 1.5.2-.3.5-.6.8-.8.4-.4.9-.7 1.3-.9 1.6-.9 3.6-1 5.3-.4.3-1.1.9-2.1 1.8-2.9.3-.3.7-.6 1.1-.8 1.4-.7 3-.9 4.5-.3.6-1.1 1.6-1.8 2.8-2.1-.7-3 .7-6.2 3.5-7.7.1 0 .2-.1.2-.1l.3.6c.1 0 .1 0 0 0z" fill="#ef4136"/><path fill="#be1e2d" d="M109.9 20.6l2.8-.2-1.2 1.3V33h-3.1V21zm-1 30.9l-.5-1.8V38l2.9-.4 6.6.2h-4.7l-1.2 1.1v11.7l1.9.9zm-1.2 21.3l.7-14.2 1.6-1.2 4 .3-1.5 1v15.4l2.3.2-5.4 1.1zm46.8-26.4c-1.8-1.7-3.6-3.4-5-4.8-5.6-5.6-28.3-30.3-28.3-30.3l-.6 2.4.6 13.6v45.5l1.5 4.6h3.2v-3.8h-.6V50.7h-.5V31h-.5V17.2s19.8 20.9 23.7 25c1.2 1.3 3.4 3.4 5.7 5.6.3-.4.5-.9.8-1.4z"/><path d="M151.7 53.3c-3.6-2.8-7-5.5-8.4-6.8-3.6-3.2-17.8-16.5-17.8-16.5v1.8s12.8 11.8 17 15.5c1.7 1.6 5.4 4.4 9 7.3 0-.5.1-.9.2-1.3zm-35.6-32l1.9 1.8v1.7l-3.5-3.5z" fill="#be1e2d"/><path fill="#ef4136" d="M123.9 50.8h.3V77h-.3zm-1-19.7h.3v19.7h-.3zm-.6-15.5h.3V31h-.3zm-12.5 44.1h.3v14.6h-.3zm.1-20.6h.3v11.6h-.3zm.3-17.4h.3V33h-.3z"/><path d="M122.4 73.6V50.8h-.5V31.1h-.4V15.7h-.4v-5.5h-.8l-.1.9-7.1 4h-3l-1.4-1.4v-1.2h-1.1v1.2h-.9L78 27.6c-.2.7-.3 1.5-.6 2.2l28.5-14.2v3.6L77 35c-.1.7-.2 1.5-.4 2.3l43-24.5.4-.6v1.3l-13.6 8.2V32h-.4v18.6h-.6V78h17.8v-4.5h-.8zm-3.9-.2l-.7.6h-7.6l-1.2-.5V58.6l1.4-.9h7.2l.8.5v15.2zm.2-23.4l-1.2 1.2h-7l-1.6-.9V38.8l1.2-1h7.4l1.1.6V50zm-.2-18.2l-.6 1h-8.1l-.9-.9V21.8l.9-1.1h8.9l-.2 11.1z" fill="#ef4136"/><path d="M115.2 2c10.1 0 19.6 3.9 26.8 11.1 7.2 7.2 11.1 16.7 11.1 26.8 0 10.1-3.9 19.6-11.1 26.8-7.2 7.2-16.7 11.1-26.8 11.1-10.1 0-19.6-3.9-26.8-11.1-7.2-7.2-11.1-16.7-11.1-26.8 0-10.1 3.9-19.6 11.1-26.8C95.6 6 105.1 2 115.2 2m0-2c-22 0-39.9 17.8-39.9 39.9 0 22.1 17.8 39.9 39.9 39.9 22 0 39.9-17.8 39.9-39.9 0-22.1-17.8-39.9-39.9-39.9z" fill="#ef4136"/><path fill="#be1e2d" d="M117.2 51.9h.3v1.8h-.3zm-1.2 0h.3v1.8h-.3zm-1.3 0h.3v1.8h-.3zm-1.2 0h.3v1.8h-.3zm-1.2 0h.3v1.8h-.3zm-1.2 0h.3v1.8h-.3zm-1.2 0h.3v1.8h-.3zm7.3-18.3h.3v1.1h-.3zm-7.3 3h7.5v.3h-7.5zm.3-16.9h7.3v.3h-7.3zm-.3 36.4h7.5v.3h-7.5zm11.3-5.4h.3v24.4h-.3zm-.6-19.6h.3v19.7h-.3zm-.5-15.5h.3V31h-.3zm-13.6 35.1h.3v24.4h-.3zm.5-19.6h.3v19.7h-.3zm.6 0v-10l.2-.2v10.2zm0-15.5h.3v2.7h-.3zm9.6 59.6h.3V77h-.3zm-1.2 0h.3V77h-.3zm-1.3 0h.3V77h-.3zm-1.2 0h.3V77h-.3zm-1.2 0h.3V77h-.3zm-1.2 0h.3V77h-.3zm-1.2 0h.3V77h-.3zm6.1-41.6h.3v1.1h-.3zm-1.3 0h.3v1.1h-.3zm-1.2 0h.3v1.1h-.3zm-1.2 0h.3v1.1h-.3zm-1.2 0h.3v1.1h-.3zm-1.2 0h.3v1.1h-.3zm7.3-15.8h.3v.6h-.3zm-1.2 0h.3v.6h-.3zm-1.3 0h.3v.6h-.3zm-1.2 0h.3v.6h-.3z"/><text style="line-height:314.00001049%;-inkscape-font-specification:'sans-serif, Normal';text-align:start" x="20.264" y="160.743" transform="scale(1.01365 .98653)" font-weight="400" font-size="15.447" font-family="sans-serif" letter-spacing="1.545" word-spacing="0"><tspan x="20.264" y="160.743" style="line-height:314.00001049%;-inkscape-font-specification:'sans-serif, Normal';text-align:start" letter-spacing="4">CREATIVE HOUSE</tspan></text></svg>