<svg xmlns="http://www.w3.org/2000/svg" width="595" height="149"><path d="M173.867 108.374h2.958V90.15h-2.958v-.377h4.66a24.665 24.665 0 0 0 1.653-.054c.284 0 .558-.01.828-.013.264-.006.528-.01.772-.01 1.297 0 2.36.156 3.2.467.83.306 1.49.694 1.97 1.147.473.447.81.94.984 1.464.176.527.264.997.264 1.428 0 .58-.127 1.118-.385 1.623a4.364 4.364 0 0 1-1.038 1.304c-.437.367-.94.674-1.507.905a6.51 6.51 0 0 1-1.785.45v.055c.64.052 1.295.192 1.96.414a6.42 6.42 0 0 1 1.813.933 4.85 4.85 0 0 1 1.318 1.482c.337.583.503 1.254.503 2.02 0 .8-.147 1.535-.453 2.197a4.605 4.605 0 0 1-1.36 1.718c-.603.48-1.372.86-2.284 1.13-.925.278-2.007.418-3.223.418-.26 0-.5-.007-.733-.02-.245-.01-.5-.02-.76-.042-.27-.012-.544-.022-.834-.032-.28-.013-.58-.013-.905-.013h-4.66v-.37zm5.628-9.99h2.443c.5 0 .952-.062 1.36-.194a2.25 2.25 0 0 0 1.05-.65c.293-.312.52-.728.678-1.264.16-.533.24-1.205.24-2.027 0-.92-.117-1.666-.35-2.22-.248-.567-.56-.985-.934-1.27a3.116 3.116 0 0 0-1.284-.56 7.276 7.276 0 0 0-1.395-.13c-.326 0-.646.003-.978.013a5.245 5.245 0 0 0-.832.068v8.235zm0 9.99c.206.017.44.04.696.063.257.032.635.042 1.114.042.833 0 1.548-.076 2.14-.238.594-.164 1.083-.443 1.47-.845.38-.395.656-.926.83-1.58.176-.66.274-1.483.274-2.48 0-1.425-.305-2.54-.91-3.357-.607-.815-1.5-1.226-2.69-1.226h-2.923v9.62zm29.409.076c-.233.182-.505.34-.83.47-.324.133-.713.2-1.165.2-.858 0-1.48-.182-1.855-.55-.385-.36-.653-.877-.79-1.53h-.053c-.07.16-.172.356-.293.602-.125.24-.315.47-.575.694-.256.222-.598.406-1.02.553-.432.153-.975.23-1.628.23-.747 0-1.347-.087-1.785-.254-.445-.17-.79-.378-1.035-.625a1.798 1.798 0 0 1-.502-.844 3.693 3.693 0 0 1-.114-.867c0-.617.126-1.112.37-1.49.252-.37.57-.67.975-.893.395-.22.84-.4 1.33-.548a42.09 42.09 0 0 0 2.93-.959c.38-.14.68-.315.892-.52.212-.202.362-.46.437-.766.09-.316.128-.734.128-1.272 0-.426-.03-.805-.086-1.147a2.503 2.503 0 0 0-.287-.856 1.422 1.422 0 0 0-.62-.555c-.27-.12-.622-.183-1.067-.183-.585 0-1.07.1-1.452.31-.382.202-.57.534-.57.997 0 .3.03.6.077.895.06.286.086.505.086.648a.83.83 0 0 1-.27.626c-.178.168-.433.25-.775.25-.583 0-.943-.104-1.085-.32-.15-.215-.22-.485-.22-.824 0-.39.087-.763.27-1.118.173-.358.44-.67.785-.948.35-.273.78-.49 1.307-.646.52-.162 1.12-.244 1.792-.244.82 0 1.506.102 2.057.307.55.2.994.48 1.332.824.333.347.575.738.722 1.175.133.434.21.89.21 1.372v6.636c0 .51.078.857.236 1.037.163.172.39.267.696.267.19 0 .396-.035.613-.107.21-.065.417-.173.62-.32l.21.29zm-4.667-6.232h-.05c-.04.23-.33.466-.884.688l-1.993.808c-.57.23-1.002.555-1.308.973-.3.416-.452.932-.452 1.554 0 .27.023.542.075.83.062.282.153.53.297.758.14.222.34.4.6.548.256.14.593.212 1.002.212.59 0 1.058-.127 1.423-.377.362-.245.636-.557.828-.926.186-.378.303-.778.368-1.215a8.13 8.13 0 0 0 .095-1.186v-2.666zm10.786 6.156h2.058V97.69h-2.057v-.38h4.294v2.697h.052c.07-.27.19-.567.346-.906.158-.34.385-.667.667-.97.284-.314.63-.578 1.025-.79.398-.21.885-.325 1.455-.325.41 0 .762.07 1.068.205a2.4 2.4 0 0 1 .746.506c.196.205.333.44.427.707.088.267.125.53.125.798 0 .59-.125.983-.395 1.175-.27.2-.574.287-.934.287-.783 0-1.17-.24-1.17-.737 0-.162.015-.293.048-.39.04-.103.078-.19.12-.29a2.8 2.8 0 0 0 .128-.34c.033-.118.042-.3.042-.528 0-.57-.303-.854-.925-.854-.285 0-.586.108-.9.32-.327.218-.62.524-.907.935-.265.41-.5.9-.685 1.477-.185.577-.28 1.24-.28 1.99v6.1h2.316v.372h-6.664v-.373zm24.334-4.198c.14-.41.256-.76.354-1.043.1-.282.195-.523.283-.717a2.86 2.86 0 0 1 .28-.498c.09-.13.21-.248.333-.356.163-.146.378-.257.655-.35.276-.083.505-.136.706-.136.124 0 .4.057.823.17.426.104.877.226 1.36.362.476.127.922.247 1.333.364.41.118.642.177.724.177a.67.67 0 0 0 .46-.178 1.59 1.59 0 0 0 .333-.387 1.68 1.68 0 0 0 .2-.41c.046-.135.068-.22.068-.252h.367a7.69 7.69 0 0 1-.264.877 4.915 4.915 0 0 1-.49 1.025 3.304 3.304 0 0 1-.75.842c-.292.23-.638.343-1.045.343-.27 0-.603-.053-1.003-.174a62.41 62.41 0 0 1-1.235-.368c-.424-.137-.835-.257-1.2-.374-.375-.117-.668-.17-.876-.17-.126 0-.26.04-.41.113a.91.91 0 0 0-.342.418l-.29.72h-.37zm21.277 4.198h2.958V90.15h-2.958v-.377h5.99l4.932 14.332h.052l4.93-14.332h5.886v.378h-2.955v18.224h2.954v.372h-8.573v-.372h2.96v-18.07h-.06l-6.366 18.468-6.34-18.277h-.053v17.88h2.954v.372h-6.31v-.373zm29.016-5.329c0-.873.193-1.675.57-2.425a6.806 6.806 0 0 1 1.46-1.933 6.89 6.89 0 0 1 2.004-1.265 5.693 5.693 0 0 1 2.17-.453c.71 0 1.432.15 2.178.452a7.036 7.036 0 0 1 1.995 1.265 6.84 6.84 0 0 1 1.464 1.933 5.31 5.31 0 0 1 .574 2.425c0 .83-.18 1.624-.538 2.36a6.538 6.538 0 0 1-1.395 1.923 6.56 6.56 0 0 1-1.987 1.313 5.786 5.786 0 0 1-2.29.48c-.78 0-1.55-.163-2.297-.48a6.713 6.713 0 0 1-1.982-1.312 6.507 6.507 0 0 1-1.395-1.923 5.33 5.33 0 0 1-.53-2.36zm2.657 0c0 1.265.098 2.263.3 3.006.19.75.452 1.323.775 1.73.31.393.688.654 1.11.778.432.123.888.188 1.363.188s.933-.065 1.36-.188c.426-.124.8-.386 1.117-.78.32-.404.574-.978.776-1.727.19-.742.29-1.74.29-3.005 0-1.068-.068-1.962-.21-2.682-.145-.714-.36-1.3-.657-1.75a2.485 2.485 0 0 0-1.104-.98c-.44-.193-.968-.29-1.57-.29-.607 0-1.132.097-1.575.29-.44.198-.808.52-1.107.98-.29.45-.512 1.036-.655 1.75-.136.72-.21 1.614-.21 2.682zm16.953 5.329h2.046V97.69h-2.047v-.38h4.285v2.854h.056c.108-.23.265-.518.47-.876.2-.36.482-.705.834-1.038.355-.342.8-.625 1.33-.866.534-.244 1.184-.368 1.95-.368 1.173 0 2.127.29 2.867.857.737.563 1.103 1.477 1.103 2.715v7.786h2.05v.372h-6.394v-.372h2.056v-8.61c0-.69-.17-1.265-.496-1.7-.333-.44-.838-.67-1.535-.67-.567 0-1.102.127-1.623.375a4.21 4.21 0 0 0-1.355 1.038c-.392.44-.7.97-.923 1.568a5.676 5.676 0 0 0-.332 1.97v6.028h2.047v.372h-6.39v-.372zm21.39-11.062h2.05v-3.435c.146.056.28.098.4.133.13.033.34.057.643.057a2.2 2.2 0 0 0 .693-.095c.196-.065.375-.166.562-.313v3.652h3.78v.38h-3.78v8.708c0 .502.042.9.137 1.215.104.307.23.552.39.722.16.16.337.273.52.326.19.058.37.084.55.084.623 0 1.126-.23 1.504-.68a3.41 3.41 0 0 0 .734-1.56l.37.137a5.6 5.6 0 0 1-.242.77c-.098.28-.268.557-.49.812-.228.258-.51.473-.862.642-.362.167-.802.255-1.337.255-1.33 0-2.262-.258-2.782-.78-.52-.51-.788-1.24-.788-2.176V97.69h-2.05v-.378zm17.64 4.824c0 .177-.008.362-.014.55a15.746 15.746 0 0 0 .093 2.541c.07.64.225 1.216.463 1.738.237.51.596.935 1.065 1.277.472.337 1.102.506 1.874.506.788 0 1.43-.114 1.94-.343.5-.23.904-.515 1.195-.844.29-.333.508-.66.655-1.002.146-.336.25-.61.318-.827l.398.086a7.632 7.632 0 0 1-.304.84 3.853 3.853 0 0 1-.724 1.085c-.33.37-.77.686-1.33.964-.558.273-1.283.417-2.174.417-.886 0-1.71-.146-2.467-.426a5.65 5.65 0 0 1-1.953-1.23 5.566 5.566 0 0 1-1.277-1.902c-.31-.74-.456-1.558-.456-2.46 0-.79.155-1.55.466-2.282a6.332 6.332 0 0 1 1.28-1.962 6.44 6.44 0 0 1 1.903-1.37 5.366 5.366 0 0 1 2.34-.518c.496 0 1.037.088 1.605.265a4.91 4.91 0 0 1 1.587.866c.482.4.887.93 1.222 1.59.33.65.493 1.472.493 2.446h-8.2zm5.49-.368c.033-.254.05-.485.05-.697v-.664c0-.603-.06-1.102-.176-1.493a2.422 2.422 0 0 0-.473-.93 1.726 1.726 0 0 0-.75-.494 2.957 2.957 0 0 0-.947-.147c-.606 0-1.096.117-1.493.362a2.6 2.6 0 0 0-.932.967c-.23.41-.4.88-.516 1.41-.124.54-.19 1.094-.23 1.687h5.47zm9.936 6.606h2.05V97.69h-2.05v-.38H368v2.854h.057c.107-.23.264-.518.466-.876.206-.36.482-.705.838-1.038.36-.342.803-.625 1.33-.866.542-.244 1.188-.368 1.946-.368 1.177 0 2.136.29 2.865.857.737.563 1.113 1.477 1.113 2.715v7.786h2.043v.372h-6.392v-.372h2.05v-8.61c0-.69-.156-1.265-.49-1.7-.33-.44-.84-.67-1.533-.67a3.72 3.72 0 0 0-1.625.375c-.513.25-.973.592-1.354 1.038-.394.44-.7.97-.918 1.568a5.608 5.608 0 0 0-.336 1.97v6.028h2.054v.372h-6.395v-.372zm24.826-6.238c0 .177-.004.362-.01.55-.01.184-.017.42-.017.705 0 .585.04 1.197.107 1.836.074.64.23 1.216.467 1.738.236.51.59.935 1.067 1.277.47.337 1.096.506 1.875.506.784 0 1.427-.114 1.936-.343.505-.23.905-.515 1.2-.844a3.7 3.7 0 0 0 .65-1.002c.144-.336.245-.61.32-.827l.4.086c-.052.194-.16.476-.307.84a4 4 0 0 1-.72 1.085c-.332.37-.77.686-1.336.964-.558.273-1.277.417-2.174.417a7.03 7.03 0 0 1-2.46-.426 5.538 5.538 0 0 1-3.233-3.132c-.3-.74-.453-1.558-.453-2.46 0-.79.153-1.55.466-2.282a6.34 6.34 0 0 1 1.277-1.962 6.43 6.43 0 0 1 1.904-1.37 5.374 5.374 0 0 1 2.347-.518c.5 0 1.03.088 1.598.265a4.9 4.9 0 0 1 1.587.866c.492.4.9.93 1.226 1.59.325.65.486 1.472.486 2.446h-8.202zm5.49-.368c.037-.254.058-.485.058-.697v-.664c0-.603-.07-1.102-.174-1.493-.117-.388-.28-.7-.488-.93a1.6 1.6 0 0 0-.744-.494 2.91 2.91 0 0 0-.938-.147c-.605 0-1.104.117-1.495.362a2.61 2.61 0 0 0-.935.967c-.23.41-.404.88-.52 1.41a11.684 11.684 0 0 0-.225 1.687h5.463zm10.445 5.244c0-.482.09-.893.27-1.242.17-.342.392-.64.652-.9.257-.26.53-.468.82-.628.297-.163.562-.297.786-.397-1.03-.71-1.542-1.672-1.542-2.878 0-.625.144-1.183.453-1.678a4.43 4.43 0 0 1 1.145-1.267 5.12 5.12 0 0 1 1.53-.788 5.344 5.344 0 0 1 1.615-.265c.794 0 1.486.16 2.063.48.58.32.997.613 1.27.88.19-.336.48-.65.858-.936.386-.276.86-.424 1.432-.424.35 0 .682.075.983.225.3.147.453.476.453.972 0 .32-.1.564-.31.724-.2.157-.407.242-.622.242-.25 0-.43-.074-.53-.22a2.28 2.28 0 0 1-.284-.455 5.5 5.5 0 0 0-.25-.443.448.448 0 0 0-.406-.22c-.175 0-.352.076-.543.23a2.582 2.582 0 0 0-.492.52c.16.182.37.478.617.905.244.426.374.957.374 1.596a2.75 2.75 0 0 1-.408 1.467c-.265.447-.613.83-1.043 1.177-.44.336-.95.593-1.526.785a5.723 5.723 0 0 1-1.767.277c-.63 0-1.17-.08-1.627-.254a11.15 11.15 0 0 1-1.068-.44c-.192.085-.404.186-.623.29-.226.108-.424.24-.61.404a1.9 1.9 0 0 0-.47.57 1.518 1.518 0 0 0-.192.76c0 .267.06.49.16.668.108.176.248.306.417.397.17.092.355.15.57.183.216.042.434.055.665.055h4.212c1.245 0 2.24.298 2.97.9.735.59 1.11 1.53 1.11 2.807 0 .78-.173 1.49-.505 2.134a5.587 5.587 0 0 1-1.354 1.663c-.55.472-1.202.826-1.933 1.09a6.79 6.79 0 0 1-2.235.386 7.08 7.08 0 0 1-1.9-.238 5.4 5.4 0 0 1-1.506-.652 3.122 3.122 0 0 1-1-1 2.38 2.38 0 0 1-.363-1.307c0-.46.098-.882.28-1.27a3.65 3.65 0 0 1 .717-1.007 4.69 4.69 0 0 1 1-.757 7.732 7.732 0 0 1 1.123-.537v-.054c-1.18 0-2.038-.188-2.6-.576-.56-.38-.84-1.035-.84-1.958zm4 2.532c-.232.14-.47.29-.708.438a2.76 2.76 0 0 0-.64.57 3.05 3.05 0 0 0-.453.814c-.12.316-.18.697-.18 1.16 0 .64.12 1.163.34 1.584.215.42.51.764.853 1.018.343.254.727.437 1.154.548.43.11.844.16 1.258.16a4.93 4.93 0 0 0 1.74-.297c.524-.194.978-.46 1.36-.79.383-.33.68-.697.878-1.135.206-.417.307-.864.307-1.323 0-1-.27-1.708-.808-2.125-.552-.417-1.292-.623-2.23-.623h-2.874zm4.32-8.656c0-.41-.035-.828-.084-1.238a3.73 3.73 0 0 0-.332-1.15 2.056 2.056 0 0 0-.778-.838c-.34-.213-.812-.32-1.395-.32-.906 0-1.588.284-2.047.825-.47.558-.705 1.457-.705 2.722 0 .527.053 1.01.128 1.433.08.428.222.796.437 1.11a2 2 0 0 0 .85.702c.36.163.815.235 1.363.235.923 0 1.575-.284 1.97-.858.386-.58.595-1.45.595-2.624zm10.383 7.486h2.053V97.69h-2.054v-.38h4.295v2.697h.046c.072-.27.193-.567.353-.906a3.7 3.7 0 0 1 .662-.97 3.71 3.71 0 0 1 1.023-.79c.403-.21.89-.325 1.456-.325.407 0 .766.07 1.063.205.31.134.55.304.75.506a1.9 1.9 0 0 1 .43.707c.088.267.13.53.13.798 0 .59-.13.983-.407 1.175-.262.2-.573.287-.926.287-.782 0-1.17-.24-1.17-.737 0-.162.02-.293.056-.39.032-.103.07-.19.114-.29.045-.1.085-.21.12-.34.03-.118.06-.3.06-.528 0-.57-.314-.854-.94-.854-.28 0-.586.108-.902.32a3.297 3.297 0 0 0-.894.935c-.273.41-.508.9-.694 1.477-.185.577-.282 1.24-.282 1.99v6.1h2.326v.372h-6.668v-.373zm16.65-5.329c0-.873.19-1.675.574-2.425a6.8 6.8 0 0 1 1.463-1.933c.6-.54 1.265-.96 2.005-1.265.736-.303 1.457-.453 2.168-.453.71 0 1.434.15 2.174.452a7.005 7.005 0 0 1 2 1.265 6.83 6.83 0 0 1 1.46 1.933c.386.75.578 1.552.578 2.425 0 .83-.183 1.624-.53 2.36a6.697 6.697 0 0 1-1.406 1.923 6.577 6.577 0 0 1-1.984 1.313c-.74.317-1.51.48-2.29.48s-1.544-.163-2.29-.48a6.68 6.68 0 0 1-1.985-1.312 6.408 6.408 0 0 1-1.397-1.923 5.325 5.325 0 0 1-.54-2.36zm2.67 0c0 1.265.092 2.263.29 3.006.195.75.456 1.323.77 1.73.325.393.696.654 1.124.778a4.85 4.85 0 0 0 1.356.188c.48 0 .935-.065 1.358-.188.42-.124.802-.386 1.128-.78.313-.404.57-.978.763-1.727.194-.742.3-1.74.3-3.005 0-1.068-.073-1.962-.226-2.682-.134-.714-.35-1.3-.646-1.75a2.542 2.542 0 0 0-1.102-.98c-.45-.193-.972-.29-1.577-.29s-1.13.097-1.572.29c-.443.198-.812.52-1.108.98-.293.45-.51 1.036-.646 1.75-.152.72-.214 1.614-.214 2.682zM178.203 61.746c.077.44.204 1.02.39 1.73.18.717.45 1.484.793 2.314.344.825.784 1.663 1.315 2.526a12.103 12.103 0 0 0 1.955 2.393c.843.843 1.66 1.485 2.448 1.92.788.442 1.54.765 2.25.964a8.34 8.34 0 0 0 2.04.33c.643.016 1.236.025 1.787.025 1.94 0 3.537-.297 4.778-.9 1.25-.606 2.23-1.353 2.946-2.226.714-.883 1.22-1.81 1.508-2.783.293-.967.44-1.82.44-2.55 0-1.36-.318-2.475-.96-3.358-.643-.873-1.493-1.606-2.556-2.196a18.462 18.462 0 0 0-3.627-1.483c-1.36-.404-2.757-.818-4.185-1.235a41.146 41.146 0 0 1-4.173-1.49 13.874 13.874 0 0 1-3.63-2.196 10.067 10.067 0 0 1-2.555-3.324c-.64-1.32-.965-2.97-.965-4.95 0-1.465.33-2.873.988-4.23a11.49 11.49 0 0 1 2.756-3.604c1.167-1.046 2.568-1.884 4.2-2.522 1.634-.645 3.4-.965 5.304-.965 1.21 0 2.277.104 3.188.33.916.222 1.724.45 2.418.684.7.24 1.315.474 1.848.69.53.22 1.01.332 1.454.332.514 0 .85-.082 1.02-.245.16-.17.336-.472.523-.916h.876v10.447h-.713a86.1 86.1 0 0 0-1.402-3.787c-.498-1.25-1.123-2.376-1.9-3.383a8.743 8.743 0 0 0-2.907-2.448c-1.173-.624-2.663-.933-4.458-.933-1.465 0-2.757.202-3.875.603-1.115.404-2.057.936-2.83 1.597-.77.652-1.355 1.392-1.756 2.193-.404.812-.603 1.636-.603 2.47 0 1.29.334 2.354 1.01 3.19.68.85 1.567 1.572 2.668 2.175 1.103.61 2.355 1.13 3.768 1.568 1.41.437 2.855.903 4.344 1.373a61.9 61.9 0 0 1 4.342 1.57c1.408.564 2.67 1.29 3.768 2.17 1.1.878 1.985 1.94 2.666 3.186.675 1.25 1.017 2.784 1.017 4.62a12.22 12.22 0 0 1-1.1 5.11 12.875 12.875 0 0 1-3.106 4.236c-1.34 1.206-2.935 2.17-4.784 2.888-1.855.714-3.913 1.066-6.18 1.066-1.14 0-2.27-.104-3.39-.323a91.33 91.33 0 0 1-3.127-.688 69.11 69.11 0 0 1-2.585-.69c-.75-.223-1.312-.33-1.674-.33-.513 0-.875.083-1.102.247-.218.166-.422.498-.606 1.013h-.876V61.746h.82zm46.535-15.719c1.268-2.53 2.888-4.694 4.864-6.49a21.7 21.7 0 0 1 6.653-4.148c2.454-.965 4.856-1.455 7.2-1.455 2.53 0 5.034.476 7.506 1.428 2.47.955 4.67 2.307 6.598 4.067 1.92 1.754 3.48 3.892 4.67 6.405 1.192 2.51 1.788 5.342 1.788 8.49 0 2.755-.562 5.366-1.678 7.84a21.718 21.718 0 0 1-4.506 6.51 21.405 21.405 0 0 1-6.542 4.427c-2.474 1.08-5.084 1.617-7.835 1.617a19.96 19.96 0 0 1-7.803-1.565 21.278 21.278 0 0 1-6.576-4.286c-1.884-1.816-3.393-3.955-4.527-6.41-1.142-2.45-1.706-5.113-1.706-7.968 0-3.11.63-5.936 1.894-8.465zm7.722 17.945c.44 2.517 1.128 4.508 2.06 5.994.936 1.483 2.146 2.523 3.634 3.106 1.48.59 3.243.876 5.3.876 2.71 0 4.84-.5 6.375-1.505 1.54-1.01 2.696-2.406 3.467-4.18.77-1.775 1.256-3.887 1.46-6.325.2-2.432.297-5.084.297-7.94 0-2.568-.082-5.013-.247-7.34-.167-2.327-.637-4.38-1.4-6.157-.77-1.775-1.935-3.187-3.493-4.23-1.555-1.046-3.71-1.567-6.46-1.567-2.563 0-4.615.482-6.157 1.454-1.542.97-2.708 2.337-3.516 4.094-.806 1.76-1.34 3.854-1.59 6.272-.262 2.415-.39 5.075-.39 7.97.003 3.81.22 6.97.66 9.48zm64.867-29.164v.776h-5.06v18.03h15.894v-18.03h-5.058v-.776h18.086v.776h-5.055v37.603h5.055v.762h-18.086v-.763h5.06V54.384h-15.894v18.803h5.06v.762h-18.085v-.763h5.06V35.584h-5.06v-.776h18.084zm40.986 11.219c1.262-2.53 2.88-4.694 4.862-6.49a21.678 21.678 0 0 1 6.65-4.148c2.46-.965 4.858-1.455 7.198-1.455 2.533 0 5.037.476 7.507 1.428a20.714 20.714 0 0 1 6.6 4.067c1.927 1.754 3.48 3.892 4.668 6.405 1.192 2.51 1.79 5.342 1.79 8.49 0 2.755-.56 5.366-1.68 7.84a21.706 21.706 0 0 1-4.5 6.51 21.468 21.468 0 0 1-6.55 4.427c-2.47 1.08-5.076 1.617-7.835 1.617-2.708 0-5.306-.52-7.803-1.565-2.49-1.043-4.684-2.474-6.563-4.286-1.89-1.816-3.403-3.955-4.534-6.41-1.14-2.45-1.708-5.113-1.708-7.968 0-3.11.63-5.936 1.898-8.465zm7.717 17.945c.446 2.517 1.134 4.508 2.07 5.994.932 1.483 2.138 2.523 3.62 3.106 1.486.59 3.254.876 5.303.876 2.716 0 4.844-.5 6.386-1.505 1.537-1.01 2.688-2.406 3.457-4.18.772-1.775 1.254-3.887 1.457-6.325a96.42 96.42 0 0 0 .303-7.94c0-2.568-.078-5.013-.247-7.34-.164-2.327-.633-4.38-1.4-6.157-.773-1.775-1.934-3.187-3.492-4.23-1.56-1.046-3.705-1.567-6.464-1.567-2.562 0-4.614.482-6.152 1.454-1.54.97-2.712 2.337-3.518 4.094-.808 1.76-1.343 3.854-1.597 6.272-.254 2.415-.385 5.075-.385 7.97 0 3.81.222 6.97.658 9.48zm106.54-17.945a53.255 53.255 0 0 0-1.456-3.82c-.57-1.34-1.3-2.568-2.193-3.687a10.844 10.844 0 0 0-3.36-2.748c-1.336-.71-2.987-1.07-4.973-1.07-2.676 0-4.78.493-6.316 1.48-1.542.988-2.712 2.37-3.494 4.126-.79 1.763-1.29 3.853-1.515 6.294-.225 2.438-.33 5.104-.33 7.998 0 3.816.227 6.965.66 9.456.45 2.493 1.13 4.468 2.066 5.938.932 1.46 2.142 2.493 3.624 3.077 1.49.59 3.253.877 5.307.877 1.655 0 3.14-.33 4.48-.984a12.438 12.438 0 0 0 3.547-2.614c1.026-1.08 1.88-2.318 2.585-3.71a18.79 18.79 0 0 0 1.537-4.345h.877v11.652h-.877c-.183-.434-.404-.736-.66-.9-.263-.168-.64-.253-1.155-.253-.437 0-1.01.107-1.707.306-.69.206-1.49.42-2.39.662-.896.235-1.878.453-2.937.658-1.065.2-2.188.297-3.363.297-2.67 0-5.248-.52-7.745-1.564-2.493-1.043-4.684-2.474-6.563-4.286-1.895-1.815-3.403-3.954-4.54-6.408-1.135-2.452-1.705-5.115-1.705-7.97 0-3.11.632-5.935 1.897-8.464 1.264-2.53 2.886-4.694 4.86-6.49a21.787 21.787 0 0 1 6.627-4.148c2.438-.964 4.83-1.454 7.168-1.454 1.176 0 2.27.104 3.28.33 1.008.222 1.94.45 2.798.684.86.238 1.643.473 2.343.688.694.222 1.277.333 1.75.333.516 0 .903-.067 1.158-.197.257-.127.44-.45.55-.965h.88v11.22h-.713zm35.512-11.219v.776h-5.056v37.603h5.056v.762h-18.09v-.763h5.063V35.584h-5.063v-.776h18.09zm26.554.776c-1.354 0-2.57.14-3.628.407a7.536 7.536 0 0 0-2.858 1.432c-.848.678-1.598 1.627-2.256 2.83-.658 1.216-1.262 2.75-1.815 4.625h-.715v-10.07h34.468v10.07h-.71c-.548-1.875-1.155-3.41-1.82-4.626-.657-1.202-1.414-2.15-2.25-2.83a7.626 7.626 0 0 0-2.863-1.43c-1.063-.268-2.27-.407-3.624-.407h-1.98v37.603h5.057v.762h-18.086v-.762h5.058V35.584h-1.98zm53.214-.776v.776h-4.344l11.212 19.184 10.114-19.184h-4.778v-.776h10.498v.776h-4.788l-10.606 20.17v17.433h5.114v.762h-18.14v-.763h5.06V57.845l-12.76-22.26h-4.286v-.777h17.704zm-425.906 37.9a23.135 23.135 0 0 0-2.997-2.878 22.763 22.763 0 0 0-8.292-4.182 22.61 22.61 0 0 0-9.025-.564 22.8 22.8 0 0 0-11.05 4.74c-.006-.007-.01-.01-.01-.018a22.992 22.992 0 0 0-4.083 4.215c.003.004.003.007.006.007a22.755 22.755 0 0 0-4.5 14.055 24.818 24.818 0 0 1 5.785-1.503 17.132 17.132 0 0 1 1.502-6c-.003 0-.01-.005-.015-.005a17.035 17.035 0 0 1 7.367-7.897c.005.007.01.01.01.02.824-.453 1.69-.834 2.586-1.14a16.86 16.86 0 0 1 9.933-.343c2.175.586 4.12 1.56 5.812 2.832a16.964 16.964 0 0 1-5.814 2.822c-2.998.798-5.998.75-8.784.004a17.17 17.17 0 0 1-4.094-1.702 15.086 15.086 0 0 0-4.132 4.207 22.703 22.703 0 0 0 6.73 3.057 22.674 22.674 0 0 0 11.77-.003 22.674 22.674 0 0 0 8.29-4.172 22.24 22.24 0 0 0 4.08-4.215c-.34-.46-.7-.906-1.074-1.34zm-63.747 37.876l.026-.013a22.873 22.873 0 0 0-4.234-4.066c-.265-.2-.536-.392-.808-.573-.054-.04-.107-.068-.158-.103-.218-.15-.443-.29-.668-.434a22.59 22.59 0 0 0-.36-.213 23.711 23.711 0 0 0-1.052-.589c-.115-.06-.23-.12-.35-.176-.24-.124-.49-.238-.737-.352-.062-.03-.12-.06-.184-.088a23.108 23.108 0 0 0-.934-.39 22.476 22.476 0 0 0-2.455-.816 22.63 22.63 0 0 0-6.33-.77 25.008 25.008 0 0 1 1.525 5.792 17.037 17.037 0 0 1 7.187 2.118 16.964 16.964 0 0 1 3.375 2.455 16.875 16.875 0 0 1 3.35 4.325c-.016.003-.023.013-.04.016.437.812.812 1.655 1.115 2.53a16.91 16.91 0 0 1 .337 9.934 16.856 16.856 0 0 1-2.834 5.81 17.025 17.025 0 0 1-2.82-5.81 16.922 16.922 0 0 1 1.705-12.894 15.104 15.104 0 0 0-4.223-4.113 22.836 22.836 0 0 0-3.047 6.726 22.606 22.606 0 0 0 0 11.77 22.64 22.64 0 0 0 4.172 8.288c.575.73 1.2 1.418 1.854 2.063.743.727 1.53 1.4 2.36 2.018.46-.336.91-.697 1.342-1.075 1.04-.9 2.01-1.904 2.877-3a22.643 22.643 0 0 0 4.18-8.284 22.76 22.76 0 0 0 .57-9.025 22.825 22.825 0 0 0-4.743-11.056zm-33.77-14.657s0 .003.005.003a22.9 22.9 0 0 0 1.455-5.967 9.57 9.57 0 0 0 .055-.64c.013-.13.02-.26.028-.39.01-.23.027-.46.034-.69.003-.11.003-.22.003-.332.005-.253.01-.504 0-.76a21.748 21.748 0 0 0-.045-1.098c-.002-.055-.01-.11-.014-.166-.022-.312-.05-.622-.083-.935a.746.746 0 0 1-.013-.08 23.785 23.785 0 0 0-.607-3.17 22.81 22.81 0 0 0-2.508-5.89 24.895 24.895 0 0 1-4.248 4.23c.487.99.89 2.042 1.183 3.15a16.4 16.4 0 0 1 .505 2.77l.012.16c.076.845.088 1.682.034 2.513h-.002a17.068 17.068 0 0 1-2.477 7.846l-.003-.004a17.317 17.317 0 0 1-2.37 3.042 16.88 16.88 0 0 1-7.73 4.49 16.957 16.957 0 0 1-6.448.46 16.962 16.962 0 0 1 3.625-5.355 16.97 16.97 0 0 1 7.762-4.436c1.382-.353 2.8-.527 4.224-.53a15.08 15.08 0 0 0 1.478-5.714 22.78 22.78 0 0 0-7.135.664 22.68 22.68 0 0 0-10.4 5.94 22.68 22.68 0 0 0-6.52 13.45 22.723 22.723 0 0 0 5.64 1.614c3.005.456 6.154.313 9.267-.52a22.762 22.762 0 0 0 10.352-6.024 22.93 22.93 0 0 0 4.945-7.63zm59.121 12.616a22.518 22.518 0 0 0-5.525-3.994c-.006-.012-.018-.016-.03-.02a20.694 20.694 0 0 0-.925-.445 3.582 3.582 0 0 0-.124-.062c-.264-.117-.528-.23-.792-.336a22.812 22.812 0 0 0-11.987-1.417c-.825.123-1.646.29-2.47.508a22.846 22.846 0 0 0-5.867 2.493c1.577 1.24 3 2.664 4.234 4.248a17.078 17.078 0 0 1 8.566-1.725v.01a17.403 17.403 0 0 1 5.635 1.337v-.003c.088.038.176.08.264.123.107.046.205.092.31.137.096.046.192.095.283.14.153.08.31.154.463.235.06.03.11.063.165.088.21.114.414.235.618.355.007 0 .01.003.013.007.038.025.078.043.11.065h-.004c1.09.67 2.11 1.464 3.025 2.365a16.87 16.87 0 0 1 4.5 7.73c.576 2.173.71 4.347.455 6.445a16.977 16.977 0 0 1-5.355-3.623 16.865 16.865 0 0 1-4.433-7.76 16.642 16.642 0 0 1-.533-4.22 15.144 15.144 0 0 0-5.718-1.476 22.89 22.89 0 0 0 .665 7.13 22.726 22.726 0 0 0 5.943 10.4 22.75 22.75 0 0 0 10.185 5.895c1.076.286 2.167.495 3.263.625a22.178 22.178 0 0 0 1.62-5.642 22.78 22.78 0 0 0-.526-9.27 22.648 22.648 0 0 0-6.026-10.343zm-44.188-.763a22.69 22.69 0 0 0-1.808-6.062c-.04-.088-.078-.18-.125-.268-.122-.26-.25-.52-.383-.78-.026-.044-.045-.093-.075-.143a24.91 24.91 0 0 0-.503-.902 22.696 22.696 0 0 0-1.835-2.666 21.242 21.242 0 0 0-1.69-1.903 22.704 22.704 0 0 0-5.1-3.837A25 25 0 0 1 46.267 97a16.85 16.85 0 0 1 2.6 2.127 17.224 17.224 0 0 1 3.195 4.44l-.01.002c.42.84.777 1.727 1.06 2.65a16.88 16.88 0 0 1 .74 5.422c-.006 0-.013 0-.024-.003a17.15 17.15 0 0 1-.57 3.933 16.92 16.92 0 0 1-4.405 7.604 17.01 17.01 0 0 1-5.354 3.62 17.04 17.04 0 0 1 3.468-12.495 17.03 17.03 0 0 1 4.9-4.26 15.097 15.097 0 0 0-1.598-5.682 22.966 22.966 0 0 0-4.814 3.205 22.707 22.707 0 0 0-7.063 11.287 22.76 22.76 0 0 0-.57 9.025 23.097 23.097 0 0 0 1.65 5.883 22.644 22.644 0 0 0 5.696-1.42 22.62 22.62 0 0 0 7.757-5.09 22.658 22.658 0 0 0 5.9-10.182c.814-3.035.987-6.196.528-9.29.002.003.006.003.01.003zm72.977-4.92a22.776 22.776 0 0 0-5.088-7.765 22.664 22.664 0 0 0-10.186-5.9 23.134 23.134 0 0 0-4.104-.696c-.003.01-.008.015-.012.028-4.633-.378-9.26.68-13.248 2.972-.087.057-.173.102-.257.147-.137.084-.27.173-.4.254-.21.132-.423.265-.626.4-.003.005-.007.005-.013.01a23.084 23.084 0 0 0-3.354 2.766 22.623 22.623 0 0 0-3.843 5.107 24.88 24.88 0 0 1 5.776 1.574 17.125 17.125 0 0 1 4.225-4.376l-.005-.003c.186-.13.376-.26.567-.386.578-.384 1.18-.73 1.792-1.036 0 .007 0 .01.003.017.81-.397 1.658-.733 2.546-1.01a17.03 17.03 0 0 1 3.01-.627.332.332 0 0 0-.013-.032 17.06 17.06 0 0 1 6.458.46 16.91 16.91 0 0 1 7.604 4.407 16.83 16.83 0 0 1 3.617 5.355 16.977 16.977 0 0 1-6.447-.462 16.86 16.86 0 0 1-6.046-3.005 16.994 16.994 0 0 1-4.234-4.854 15.172 15.172 0 0 0-5.707 1.548 22.87 22.87 0 0 0 3.204 4.817 22.65 22.65 0 0 0 11.287 7.056 22.7 22.7 0 0 0 9.268.535 22.63 22.63 0 0 0 5.637-1.612 22.305 22.305 0 0 0-.562-3.052 23 23 0 0 0-.85-2.637zM105.97 47.6a.278.278 0 0 1 .036.046 22.83 22.83 0 0 0-3.89 15.052l.03.358c.008.06.02.114.028.173a22.727 22.727 0 0 0 3.085 8.956 25.352 25.352 0 0 1 4.256-4.22 17.03 17.03 0 0 1-1.727-8.578c.013 0 .02.008.027.008.06-.87.188-1.744.383-2.624a17.01 17.01 0 0 1 .987-3.008c-.02-.003-.036-.003-.06-.007a17.274 17.274 0 0 1 3.52-5.25 16.872 16.872 0 0 1 7.73-4.495 16.93 16.93 0 0 1 6.444-.456 16.9 16.9 0 0 1-3.623 5.352 16.972 16.972 0 0 1-7.762 4.44 17.09 17.09 0 0 1-4.166.53 15.16 15.16 0 0 0-1.52 5.717 23.02 23.02 0 0 0 7.12-.668 22.636 22.636 0 0 0 10.396-5.94 22.695 22.695 0 0 0 5.897-10.188 22.05 22.05 0 0 0 .62-3.263 22.973 22.973 0 0 0-3.134-1.095 22.89 22.89 0 0 0-2.5-.518 22.62 22.62 0 0 0-9.268.52 22.694 22.694 0 0 0-10.352 6.024 23.6 23.6 0 0 0-2.56 3.133zm-17.33-7.355a22.99 22.99 0 0 0 1.613 5.64h.01a22.604 22.604 0 0 0 4.81 7.085 22.446 22.446 0 0 0 5.122 3.852c.3-1.975.834-3.91 1.597-5.762a16.76 16.76 0 0 1-2.64-2.165 16.92 16.92 0 0 1-1.804-2.115h-.005a17.056 17.056 0 0 1-3.19-10.313c.005 0 .02 0 .028.003a16.922 16.922 0 0 1 4.98-11.623 17.062 17.062 0 0 1 5.356-3.62 16.877 16.877 0 0 1-.46 6.45 16.983 16.983 0 0 1-3.004 6.045 17.118 17.118 0 0 1-4.915 4.267c.153 1.978.694 3.91 1.594 5.68a22.713 22.713 0 0 0 11.893-14.5c.815-3.03.972-6.093.57-9.022-.012-.085-.03-.163-.04-.245a22.816 22.816 0 0 0-1.61-5.64c-1.03.122-2.05.307-3.054.565-.893.228-1.772.515-2.64.857a22.74 22.74 0 0 0-7.765 5.085 22.662 22.662 0 0 0-5.895 10.185 22.795 22.795 0 0 0-.525 9.29h-.025zM26.38 82.948a22.907 22.907 0 0 0 11.055-4.742v.003a22.89 22.89 0 0 0 6.98-9.482h.024a22.68 22.68 0 0 0 1.58-8.77 25.026 25.026 0 0 1-5.79 1.524 16.962 16.962 0 0 1-.55 3.315 16.948 16.948 0 0 1-2.246 4.983.053.053 0 0 0-.02-.013 17.162 17.162 0 0 1-1.784 2.27 16.967 16.967 0 0 1-4.325 3.35c0-.005-.005-.012-.008-.022-.808.438-1.646.806-2.515 1.11a16.935 16.935 0 0 1-9.933.334 16.934 16.934 0 0 1-5.812-2.833 16.93 16.93 0 0 1 5.814-2.822c2.998-.8 5.994-.75 8.784-.003 1.433.385 2.803.96 4.085 1.698a15.145 15.145 0 0 0 4.113-4.228 22.916 22.916 0 0 0-6.705-3.034 22.643 22.643 0 0 0-11.766 0 22.772 22.772 0 0 0-10.35 6.023 22.877 22.877 0 0 0-2.02 2.367c.34.46.695.906 1.07 1.34a23.696 23.696 0 0 0 3 2.878 22.696 22.696 0 0 0 8.29 4.182c3.03.812 6.095.976 9.028.57zM15.677 45.166a22.65 22.65 0 0 0 5.088 7.764 22.682 22.682 0 0 0 10.185 5.9c3.03.81 6.197.987 9.286.527v.006a22.973 22.973 0 0 0 6.03-1.786c.04-.02.068-.036.107-.052a20.31 20.31 0 0 0 .945-.46c.295-.156.597-.315.896-.485.006-.01.023-.016.032-.023.3-.172.594-.352.89-.54a.072.072 0 0 1 .03-.017c.292-.19.583-.385.865-.587.012-.006.02-.017.032-.02.283-.205.567-.417.846-.636a23.053 23.053 0 0 0 2.052-1.81 22.678 22.678 0 0 0 3.836-5.093 24.857 24.857 0 0 1-5.766-1.6c-.613.922-1.328 1.8-2.143 2.613a16.97 16.97 0 0 1-4.438 3.198c0-.003-.004-.007-.004-.01a17.034 17.034 0 0 1-8.202 1.786v-.013a16.866 16.866 0 0 1-11.403-4.973 16.9 16.9 0 0 1-3.62-5.354 16.934 16.934 0 0 1 6.448.463 16.826 16.826 0 0 1 6.042 3.005 17.02 17.02 0 0 1 4.254 4.89 15.13 15.13 0 0 0 5.688-1.585 22.682 22.682 0 0 0-14.488-11.877 22.674 22.674 0 0 0-9.025-.567c-.084.01-.166.025-.245.035-1.958.293-3.85.84-5.64 1.61a23.3 23.3 0 0 0 .563 3.057c.236.89.52 1.77.86 2.634zm28.786-5.681a22.85 22.85 0 0 0 3.19 2.604c.006-.008.014-.015.017-.018a22.777 22.777 0 0 0 10.105 3.798v-.003c2.782.33 5.676.146 8.54-.62a22.802 22.802 0 0 0 5.887-2.502 24.95 24.95 0 0 1-4.222-4.253 16.934 16.934 0 0 1-5.736 1.67c.003.005.003.018.008.025a16.885 16.885 0 0 1-5.46-.326 17.203 17.203 0 0 1-3.042-.99c0 .003 0 .013-.003.02a17.073 17.073 0 0 1-5.248-3.517 16.863 16.863 0 0 1-4.496-7.728 16.92 16.92 0 0 1-.46-6.447 16.89 16.89 0 0 1 5.356 3.625 16.86 16.86 0 0 1 4.432 7.76c.356 1.375.532 2.787.537 4.198a15.076 15.076 0 0 0 5.71 1.52 22.663 22.663 0 0 0-6.604-17.548 22.687 22.687 0 0 0-7.758-5.094 22.105 22.105 0 0 0-2.427-.805 22.91 22.91 0 0 0-3.265-.623 23.553 23.553 0 0 0-1.095 3.136 22.76 22.76 0 0 0-.517 2.506 22.637 22.637 0 0 0 .52 9.263 22.745 22.745 0 0 0 6.03 10.35zm24.429-3.292c.023.033.045.065.065.098a22.852 22.852 0 0 0 10.458 8.195v.014c.746.29 1.52.546 2.315.755 2.105.567 4.226.812 6.312.772a25.07 25.07 0 0 1-1.523-5.79 17.2 17.2 0 0 1-3.296-.546 16.966 16.966 0 0 1-4.987-2.25.031.031 0 0 0 .01-.01 17.86 17.86 0 0 1-2.185-1.713 16.93 16.93 0 0 1-2.03-2.252l-.002.003c-.034-.046-.065-.095-.1-.144-.096-.124-.18-.248-.268-.368-.02-.023-.03-.046-.046-.068a16.52 16.52 0 0 1-.92-1.483c.006 0 .01-.003.01-.003a16.85 16.85 0 0 1-1.493-12.543 16.94 16.94 0 0 1 2.824-5.814 16.918 16.918 0 0 1 2.826 5.814 16.91 16.91 0 0 1-1.69 12.86 15.216 15.216 0 0 0 4.216 4.13 22.655 22.655 0 0 0 3.04-18.477 22.702 22.702 0 0 0-6.022-10.355c-.745-.726-1.54-1.4-2.368-2.018a22.754 22.754 0 0 0-4.22 4.075 22.72 22.72 0 0 0-4.178 8.285 22.773 22.773 0 0 0-.57 9.028 22.788 22.788 0 0 0 3.82 9.805z"/></svg>