<svg xmlns="http://www.w3.org/2000/svg" viewBox="0 0 197.09 195.91"><defs><style>.cls-1{fill:#020608;}</style></defs><title>bear</title><g id="Layer" data-name="Слой 1"><path class="cls-1" d="M145.81,37.62a.11.11,0,0,1-.08,0L143,34.36a.12.12,0,0,1,0-.16.11.11,0,0,1,.16,0l2.76,3.22a.11.11,0,0,1-.09.19Z"/><path class="cls-1" d="M143.05,34.4h-2.38a.12.12,0,0,1,0-.23h2.38a.12.12,0,1,1,0,.23Z"/><path class="cls-1" d="M139.06,36a.1.1,0,0,1-.08,0,.11.11,0,0,1,0-.16l1.61-1.61a.12.12,0,0,1,.16,0,.12.12,0,0,1,0,.16L139.15,36A.13.13,0,0,1,139.06,36Z"/><path class="cls-1" d="M140.67,39.16a.12.12,0,0,1-.1-.06L139,35.95a.11.11,0,0,1,.05-.15.12.12,0,0,1,.16,0L140.77,39a.1.1,0,0,1-.05.15Z"/><path class="cls-1" d="M143.59,39.16h-2.92a.12.12,0,0,1,0-.23h2.92a.12.12,0,1,1,0,.23Z"/><path class="cls-1" d="M143.59,39.16a.12.12,0,0,1-.09,0,.12.12,0,0,1,0-.16l2.22-1.53a.12.12,0,0,1,.16,0,.11.11,0,0,1,0,.16l-2.22,1.53Z"/><path class="cls-1" d="M143.05,38.39a.11.11,0,0,1-.09,0,.12.12,0,0,1,0-.16l2.09-1.54a.11.11,0,0,1,.14.19l-2.09,1.55Z"/><path class="cls-1" d="M143.05,38.39h-1.92a.12.12,0,0,1-.12-.12.12.12,0,0,1,.12-.12h1.92a.12.12,0,0,1,.12.12A.12.12,0,0,1,143.05,38.39Z"/><path class="cls-1" d="M141.13,38.39a.11.11,0,0,1-.1-.05l-1.73-2.72a.12.12,0,1,1,.2-.12l1.73,2.72a.12.12,0,0,1,0,.16Z"/><path class="cls-1" d="M143.59,39.16a.12.12,0,0,1-.09,0l-.54-.77a.12.12,0,0,1,0-.16.12.12,0,0,1,.16,0l.54.76a.11.11,0,0,1,0,.16Z"/><path class="cls-1" d="M140.67,39.16h-.06a.12.12,0,0,1,0-.16l.46-.77a.11.11,0,0,1,.15,0,.11.11,0,0,1,0,.16l-.46.77A.12.12,0,0,1,140.67,39.16Z"/><path class="cls-1" d="M144.7,32.75h0l-5.29-.38a.23.23,0,0,1,0-.46l5.3.38a.23.23,0,0,1,0,.46Z"/><path class="cls-1" d="M145.81,37.74a.23.23,0,0,1-.22-.18l-1.11-5a.23.23,0,1,1,.45-.1l1.11,5a.23.23,0,0,1-.17.27Z"/><path class="cls-1" d="M143.05,34.4a.11.11,0,0,1-.08,0,.11.11,0,0,1,0-.16l1.65-1.76a.11.11,0,0,1,.16,0,.11.11,0,0,1,0,.16l-1.65,1.76A.11.11,0,0,1,143.05,34.4Z"/><path class="cls-1" d="M140.67,34.4a.1.1,0,0,1-.09-.06l-1.27-2.15a.11.11,0,0,1,0-.15.12.12,0,0,1,.16,0l1.26,2.15a.11.11,0,0,1,0,.16Z"/><path class="cls-1" d="M135.23,37.7a.22.22,0,0,1-.14,0,.22.22,0,0,1,0-.32L139.22,32a.23.23,0,0,1,.37.29l-4.18,5.33A.23.23,0,0,1,135.23,37.7Z"/><path class="cls-1" d="M135.23,37.58a.12.12,0,0,1-.11-.07.11.11,0,0,1,.06-.15L139,35.79a.11.11,0,0,1,.15.06.11.11,0,0,1-.06.15l-3.83,1.58Z"/><path class="cls-1" d="M139.06,44.07A.11.11,0,0,1,139,44l-3.83-6.48a.11.11,0,0,1,0-.15.12.12,0,0,1,.16,0l3.83,6.48a.11.11,0,0,1,0,.16Z"/><path class="cls-1" d="M143.05,44.07h-4a.12.12,0,0,1,0-.23h4a.12.12,0,1,1,0,.23Z"/><path class="cls-1" d="M143.05,44.18l-.09,0a.23.23,0,0,1-.12-.3l2.76-6.44a.23.23,0,0,1,.42.18L143.26,44A.23.23,0,0,1,143.05,44.18Z"/><path class="cls-1" d="M160,37.85a.12.12,0,0,1-.09-.19l2.76-3.22a.11.11,0,0,1,.16,0,.11.11,0,0,1,0,.16L160,37.81A.1.1,0,0,1,160,37.85Z"/><path class="cls-1" d="M165.09,34.63h-2.38a.11.11,0,0,1,0-.23h2.38a.11.11,0,0,1,0,.23Z"/><path class="cls-1" d="M166.7,36.24a.12.12,0,0,1-.08,0L165,34.6a.12.12,0,0,1,.16-.16L166.78,36a.11.11,0,0,1,0,.17A.1.1,0,0,1,166.7,36.24Z"/><path class="cls-1" d="M165.09,39.39H165a.11.11,0,0,1,0-.15l1.6-3.14a.12.12,0,0,1,.21.1l-1.61,3.15A.12.12,0,0,1,165.09,39.39Z"/><path class="cls-1" d="M165.09,39.39h-2.91a.12.12,0,1,1,0-.23h2.91a.12.12,0,0,1,0,.23Z"/><path class="cls-1" d="M162.18,39.39l-.07,0-2.23-1.53a.12.12,0,0,1,0-.16.12.12,0,0,1,.16,0l2.22,1.54a.11.11,0,0,1,0,.16A.12.12,0,0,1,162.18,39.39Z"/><path class="cls-1" d="M162.71,38.62l-.07,0-2.09-1.55a.12.12,0,0,1,0-.16.12.12,0,0,1,.16,0l2.1,1.54a.11.11,0,0,1,0,.16A.11.11,0,0,1,162.71,38.62Z"/><path class="cls-1" d="M164.63,38.62h-1.92a.11.11,0,0,1,0-.23h1.92a.11.11,0,1,1,0,.23Z"/><path class="cls-1" d="M164.63,38.62l-.06,0a.12.12,0,0,1,0-.16l1.73-2.72a.11.11,0,0,1,.16,0,.12.12,0,0,1,0,.16l-1.72,2.72A.12.12,0,0,1,164.63,38.62Z"/><path class="cls-1" d="M162.18,39.39l-.07,0a.12.12,0,0,1,0-.16l.54-.76a.11.11,0,1,1,.19.13l-.53.77A.12.12,0,0,1,162.18,39.39Z"/><path class="cls-1" d="M165.09,39.39a.12.12,0,0,1-.1-.05l-.46-.77a.11.11,0,0,1,.19-.12l.46.76a.12.12,0,0,1,0,.16Z"/><path class="cls-1" d="M161.06,33a.23.23,0,0,1-.23-.21.23.23,0,0,1,.21-.25l5.29-.38a.23.23,0,0,1,.25.21.23.23,0,0,1-.21.25l-5.29.39Z"/><path class="cls-1" d="M160,38h-.05a.23.23,0,0,1-.17-.27l1.11-5a.23.23,0,0,1,.45.1l-1.12,5A.22.22,0,0,1,160,38Z"/><path class="cls-1" d="M162.71,34.63a.14.14,0,0,1-.08,0L161,32.83a.12.12,0,0,1,0-.16.11.11,0,0,1,.16,0l1.65,1.76a.12.12,0,0,1-.09.19Z"/><path class="cls-1" d="M165.09,34.63l-.06,0a.11.11,0,0,1,0-.16l1.26-2.15a.12.12,0,0,1,.2.12l-1.27,2.15A.12.12,0,0,1,165.09,34.63Z"/><path class="cls-1" d="M170.53,37.93a.22.22,0,0,1-.18-.09l-4.18-5.33a.23.23,0,0,1,0-.32.23.23,0,0,1,.33,0l4.18,5.33a.24.24,0,0,1,0,.33A.26.26,0,0,1,170.53,37.93Z"/><path class="cls-1" d="M170.53,37.82h0l-3.84-1.57a.12.12,0,0,1-.06-.15.12.12,0,0,1,.15-.06l3.84,1.57a.11.11,0,0,1,.06.15A.11.11,0,0,1,170.53,37.82Z"/><path class="cls-1" d="M166.7,44.3l-.06,0a.12.12,0,0,1,0-.16l3.83-6.48a.12.12,0,0,1,.16,0,.12.12,0,0,1,0,.16l-3.83,6.48A.12.12,0,0,1,166.7,44.3Z"/><path class="cls-1" d="M166.7,44.3h-4a.12.12,0,0,1-.11-.12.11.11,0,0,1,.11-.11h4a.11.11,0,0,1,.11.11A.11.11,0,0,1,166.7,44.3Z"/><path class="cls-1" d="M162.71,44.41a.23.23,0,0,1-.21-.14l-2.76-6.44a.24.24,0,0,1,.12-.3.23.23,0,0,1,.3.12l2.76,6.44a.23.23,0,0,1-.12.3Z"/><path class="cls-1" d="M144.7,55.26a.34.34,0,0,1-.18-.05.35.35,0,0,1-.11-.47l3-5a.34.34,0,0,1,.59.36l-3,5A.34.34,0,0,1,144.7,55.26Z"/><path class="cls-1" d="M147.73,50.27a.34.34,0,0,1-.34-.29.35.35,0,0,1,.29-.39l3.76-.53a.35.35,0,0,1,.39.29.34.34,0,0,1-.29.39l-3.76.54Z"/><path class="cls-1" d="M155.05,50.66H155l-3.56-.92a.34.34,0,1,1,.17-.67l3.56.92a.35.35,0,0,1-.08.68Z"/><path class="cls-1" d="M158.24,56a.35.35,0,0,1-.3-.17l-3.19-5.29a.35.35,0,1,1,.59-.36l3.19,5.29a.34.34,0,0,1-.12.47A.36.36,0,0,1,158.24,56Z"/><path class="cls-1" d="M145.25,59.1a.35.35,0,0,1-.34-.29L144.36,55a.34.34,0,0,1,.29-.39.35.35,0,0,1,.39.29l.55,3.83a.35.35,0,0,1-.29.39Z"/><path class="cls-1" d="M150.19,61.13l-.09,0L145.16,59a.23.23,0,0,1,.18-.42l4.93,2.15a.23.23,0,0,1,.12.3A.23.23,0,0,1,150.19,61.13Z"/><path class="cls-1" d="M150.19,61a.1.1,0,0,1-.09,0,.11.11,0,0,1,0-.16l1.31-1.07a.11.11,0,0,1,.16,0,.11.11,0,0,1,0,.16L150.26,61Z"/><path class="cls-1" d="M153.27,61l-.06,0-1.78-1.07a.11.11,0,0,1,0-.16.11.11,0,0,1,.15,0l1.78,1.07a.11.11,0,0,1,0,.16A.13.13,0,0,1,153.27,61Z"/><path class="cls-1" d="M153.27,61.13a.24.24,0,0,1-.21-.14.23.23,0,0,1,.13-.3l4-1.61a.23.23,0,1,1,.17.42l-4,1.61Z"/><path class="cls-1" d="M157.24,59.63h-.09a.34.34,0,0,1-.24-.42l1-3.68a.34.34,0,0,1,.67.18l-1,3.68A.34.34,0,0,1,157.24,59.63Z"/><path class="cls-1" d="M150.19,55a.12.12,0,0,1-.11-.1l-.57-3.37a.12.12,0,0,1,.09-.13.11.11,0,0,1,.13.09l.58,3.38a.11.11,0,0,1-.1.13Z"/><path class="cls-1" d="M146.73,53.8a.11.11,0,0,1-.09,0,.11.11,0,0,1,0-.16l2.88-2.15a.11.11,0,0,1,.16,0,.12.12,0,0,1,0,.16l-2.88,2.15A.09.09,0,0,1,146.73,53.8Z"/><path class="cls-1" d="M147.72,57a.11.11,0,0,1-.11-.08l-1-3.14a.11.11,0,1,1,.21-.07l1,3.14a.12.12,0,0,1-.08.14Z"/><path class="cls-1" d="M147.72,57h-.05a.12.12,0,0,1,0-.16l1-1.91a.12.12,0,0,1,.15-.05.11.11,0,0,1,0,.16l-1,1.92A.11.11,0,0,1,147.72,57Z"/><path class="cls-1" d="M150.19,55h-1.46a.12.12,0,0,1-.12-.12.11.11,0,0,1,.12-.11h1.46a.11.11,0,0,1,.11.11A.11.11,0,0,1,150.19,55Z"/><path class="cls-1" d="M148.72,55h0a.11.11,0,0,1-.08-.14l.88-3.37a.12.12,0,0,1,.22.06l-.88,3.38A.12.12,0,0,1,148.72,55Z"/><path class="cls-1" d="M150.19,55h0l-3-1.23a.11.11,0,0,1-.06-.15.11.11,0,0,1,.15-.06l3,1.23a.12.12,0,0,1,0,.22Z"/><path class="cls-1" d="M147.72,57a.11.11,0,0,1-.11-.1l-.5-3.51a.12.12,0,0,1,.1-.13.11.11,0,0,1,.13.09l.5,3.52a.12.12,0,0,1-.1.13Z"/><path class="cls-1" d="M152.31,55.15h0a.12.12,0,0,1-.1-.13l.57-3.37a.12.12,0,0,1,.14-.09.11.11,0,0,1,.09.13l-.57,3.37A.1.1,0,0,1,152.31,55.15Z"/><path class="cls-1" d="M155.76,53.92l-.07,0-2.88-2.15a.11.11,0,0,1,0-.16.11.11,0,0,1,.15,0l2.88,2.15a.11.11,0,0,1,0,.16A.11.11,0,0,1,155.76,53.92Z"/><path class="cls-1" d="M154.77,57.07h0a.11.11,0,0,1-.07-.14l1-3.15a.13.13,0,0,1,.15-.07.12.12,0,0,1,.07.15l-1,3.14A.11.11,0,0,1,154.77,57.07Z"/><path class="cls-1" d="M154.77,57.07a.11.11,0,0,1-.11-.06l-1-1.92a.11.11,0,0,1,0-.15.12.12,0,0,1,.15,0l1,1.92a.11.11,0,0,1-.05.16Z"/><path class="cls-1" d="M153.77,55.15h-1.46a.12.12,0,0,1,0-.23h1.46a.12.12,0,0,1,.11.12A.11.11,0,0,1,153.77,55.15Z"/><path class="cls-1" d="M153.77,55.15a.11.11,0,0,1-.11-.08l-.88-3.38a.12.12,0,0,1,.08-.14.11.11,0,0,1,.14.08l.88,3.37a.11.11,0,0,1-.08.14Z"/><path class="cls-1" d="M152.31,55.15a.11.11,0,0,1,0-.22l3-1.23a.11.11,0,0,1,.15.06.12.12,0,0,1-.07.15l-3,1.22Z"/><path class="cls-1" d="M154.77,57.07h0a.12.12,0,0,1-.09-.13l.49-3.51a.12.12,0,0,1,.13-.1.12.12,0,0,1,.1.13L154.89,57A.12.12,0,0,1,154.77,57.07Z"/><path class="cls-1" d="M140.67,11.35a.22.22,0,0,1-.17-.08l-8.28-9.66a.23.23,0,0,1,.35-.29L140.85,11a.23.23,0,0,1,0,.32A.25.25,0,0,1,140.67,11.35Z"/><path class="cls-1" d="M132.39,1.69h0L126.21.46A.23.23,0,0,1,126,.19.23.23,0,0,1,126.3,0l6.13,1.23a.23.23,0,0,1,.18.27A.23.23,0,0,1,132.39,1.69Z"/><path class="cls-1" d="M121.81,1.69a.23.23,0,0,1-.06-.45L126.19,0a.23.23,0,0,1,.28.16.23.23,0,0,1-.16.28l-4.45,1.23Z"/><path class="cls-1" d="M120.43,6.41h0a.11.11,0,0,1-.08-.14l1.38-4.83a.11.11,0,0,1,.14-.08.12.12,0,0,1,.08.14l-1.38,4.83A.11.11,0,0,1,120.43,6.41Z"/><path class="cls-1" d="M123,15.8a.23.23,0,0,1-.22-.17L120.2,6.35a.23.23,0,0,1,.16-.28.23.23,0,0,1,.29.16l2.61,9.28a.23.23,0,0,1-.16.28Z"/><path class="cls-1" d="M125.49,22.86a.24.24,0,0,1-.22-.15l-2.45-7.06a.23.23,0,0,1,.43-.15l2.45,7.06a.23.23,0,0,1-.14.29Z"/><path class="cls-1" d="M125.49,22.86a.24.24,0,0,1-.16-.06.23.23,0,0,1,0-.33l6.9-7.06a.24.24,0,0,1,.33,0,.22.22,0,0,1,0,.32l-6.9,7.06A.23.23,0,0,1,125.49,22.86Z"/><path class="cls-1" d="M132.39,15.68a.11.11,0,0,1-.1-.06.12.12,0,0,1,.05-.16L140.62,11a.11.11,0,0,1,.11.2l-8.28,4.45Z"/><path class="cls-1" d="M166.7,11.16a.21.21,0,0,1-.14,0,.23.23,0,0,1,0-.32l6.8-8.55a.23.23,0,0,1,.32,0,.23.23,0,0,1,0,.32l-6.8,8.55A.23.23,0,0,1,166.7,11.16Z"/><path class="cls-1" d="M173.5,2.61a.24.24,0,0,1-.22-.16.23.23,0,0,1,.14-.29L179.87,0a.22.22,0,0,1,.29.14.23.23,0,0,1-.14.29L173.57,2.6Z"/><path class="cls-1" d="M185.47,1.69h0L179.89.46A.23.23,0,0,1,180,0l5.52,1.23a.23.23,0,0,1,0,.45Z"/><path class="cls-1" d="M187.46,6.41a.12.12,0,0,1-.11-.07l-2-4.83a.12.12,0,0,1,.07-.15.11.11,0,0,1,.15.06l2,4.84a.11.11,0,0,1-.06.15Z"/><path class="cls-1" d="M185.47,16.61h0a.13.13,0,0,1-.09-.14l2-10.2a.12.12,0,0,1,.14-.09.11.11,0,0,1,.09.14l-2,10.2A.11.11,0,0,1,185.47,16.61Z"/><path class="cls-1" d="M182.7,21.51l-.06,0a.11.11,0,0,1,0-.15l2.76-4.91a.12.12,0,0,1,.16,0,.12.12,0,0,1,0,.16l-2.76,4.91A.13.13,0,0,1,182.7,21.51Z"/><path class="cls-1" d="M182.7,21.63a.25.25,0,0,1-.14-.05l-7.21-5.83a.23.23,0,0,1,0-.32.22.22,0,0,1,.32,0l7.21,5.83a.23.23,0,0,1,0,.32A.24.24,0,0,1,182.7,21.63Z"/><path class="cls-1" d="M175.49,15.68h-.05L166.65,11a.12.12,0,0,1-.06-.15.12.12,0,0,1,.16,0l8.8,4.64a.12.12,0,0,1,0,.16A.11.11,0,0,1,175.49,15.68Z"/><path class="cls-1" d="M143.32,7.82l-.11,0L132.28,1.66a.23.23,0,0,1-.09-.31.23.23,0,0,1,.31-.09l10.93,6.14a.23.23,0,0,1-.11.43Z"/><path class="cls-1" d="M140.67,11.23l-.07,0a.11.11,0,0,1,0-.16l2.64-3.53a.12.12,0,0,1,.16,0,.11.11,0,0,1,0,.16l-2.65,3.53A.11.11,0,0,1,140.67,11.23Z"/><path class="cls-1" d="M166.7,11a.11.11,0,0,1-.09,0l-1.84-2.42a.12.12,0,0,1,0-.16.12.12,0,0,1,.16,0l1.84,2.42a.12.12,0,0,1,0,.16Z"/><path class="cls-1" d="M164.86,8.74a.23.23,0,0,1-.19-.09.23.23,0,0,1,.06-.32l8.64-6.14a.23.23,0,0,1,.32.06.23.23,0,0,1-.06.32L165,8.7A.25.25,0,0,1,164.86,8.74Z"/><path class="cls-1" d="M143.32,7.71a.11.11,0,0,1-.11-.07.11.11,0,0,1,.07-.15l8.17-3.07a.11.11,0,0,1,.15.07.12.12,0,0,1-.07.15L143.36,7.7Z"/><path class="cls-1" d="M159.08,4.64h-7.59a.11.11,0,0,1-.11-.12.11.11,0,0,1,.11-.11h7.59a.11.11,0,0,1,.11.11A.11.11,0,0,1,159.08,4.64Z"/><path class="cls-1" d="M164.86,8.63l-.06,0-5.78-4a.11.11,0,0,1,0-.16.12.12,0,0,1,.16,0l5.77,4a.12.12,0,0,1,0,.16A.13.13,0,0,1,164.86,8.63Z"/><path class="cls-1" d="M169.18,5.56h0l-10.1-.92a.11.11,0,0,1-.11-.12.12.12,0,0,1,.12-.1l10.1.92a.11.11,0,0,1,0,.23Z"/><path class="cls-1" d="M151.49,4.64H137.85a.11.11,0,0,1-.11-.12.11.11,0,0,1,.11-.11h13.64a.12.12,0,0,1,.12.11A.12.12,0,0,1,151.49,4.64Z"/><path class="cls-1" d="M116.59,37.62h-.06a.12.12,0,0,1,0-.16l8.9-14.88a.11.11,0,0,1,.16,0,.11.11,0,0,1,0,.16l-8.9,14.88A.1.1,0,0,1,116.59,37.62Z"/><path class="cls-1" d="M118.89,51.89a.23.23,0,0,1-.23-.19l-2.3-14.15a.23.23,0,0,1,.19-.26.23.23,0,0,1,.26.19l2.3,14.15a.23.23,0,0,1-.19.27Z"/><path class="cls-1" d="M139.06,71.29a.37.37,0,0,1-.24-.09L118.65,51.91a.34.34,0,0,1,0-.49.34.34,0,0,1,.49,0L139.3,70.7a.35.35,0,0,1,0,.49A.34.34,0,0,1,139.06,71.29Z"/><path class="cls-1" d="M150.83,78.19a.4.4,0,0,1-.17,0l-11.78-6.91a.35.35,0,0,1-.12-.47.34.34,0,0,1,.47-.12L151,77.55a.34.34,0,0,1-.18.64Z"/><path class="cls-1" d="M160.62,78.19h-9.78a.34.34,0,0,1-.34-.34.35.35,0,0,1,.34-.35h9.78a.35.35,0,0,1,.35.35A.35.35,0,0,1,160.62,78.19Z"/><path class="cls-1" d="M160.62,78.19a.34.34,0,0,1-.23-.61l11.81-10a.34.34,0,1,1,.44.52l-11.81,10A.35.35,0,0,1,160.62,78.19Z"/><path class="cls-1" d="M191.91,34.92a.12.12,0,0,1-.09,0l-9.21-13.41a.11.11,0,0,1,0-.16.12.12,0,0,1,.16,0L192,34.74a.12.12,0,0,1,0,.16Z"/><path class="cls-1" d="M190.84,48.17h0a.22.22,0,0,1-.21-.24l1.08-13.13a.23.23,0,1,1,.45,0L191.07,48A.23.23,0,0,1,190.84,48.17Z"/><path class="cls-1" d="M172.43,68.22a.35.35,0,0,1-.26-.58l18.41-19.94a.34.34,0,0,1,.49,0,.34.34,0,0,1,0,.49L172.68,68.11A.33.33,0,0,1,172.43,68.22Z"/><path class="cls-1" d="M142.13,61h0a.11.11,0,0,1-.11-.12l.91-17a.12.12,0,0,1,.12-.11.11.11,0,0,1,.11.12l-.92,17A.11.11,0,0,1,142.13,61Z"/><path class="cls-1" d="M146.73,66a.11.11,0,0,1-.08,0L142,61a.11.11,0,0,1,0-.16.11.11,0,0,1,.16,0l4.6,5a.11.11,0,0,1,0,.16A.11.11,0,0,1,146.73,66Z"/><path class="cls-1" d="M146.73,66a.12.12,0,0,1,0-.23l4.75-1.53a.12.12,0,0,1,.15.07.11.11,0,0,1-.07.14L146.77,66Z"/><path class="cls-1" d="M155.73,66h0l-4.24-1.53a.12.12,0,0,1-.07-.15.11.11,0,0,1,.15-.07l4.24,1.53a.11.11,0,0,1,.07.15A.11.11,0,0,1,155.73,66Z"/><path class="cls-1" d="M155.73,66a.12.12,0,0,1,0-.22l6.45-2.49a.11.11,0,1,1,.08.21L155.77,66Z"/><path class="cls-1" d="M162.18,63.51h0a.12.12,0,0,1-.11-.12l.54-19.21a.11.11,0,1,1,.23,0l-.53,19.22A.12.12,0,0,1,162.18,63.51Z"/><path class="cls-1" d="M160,37.85l-.07,0-4.69-3.45a.12.12,0,0,1,0-.16.12.12,0,0,1,.16,0L160,37.65a.11.11,0,0,1,0,.16A.1.1,0,0,1,160,37.85Z"/><path class="cls-1" d="M150.83,34.75a.22.22,0,0,1-.23-.22.23.23,0,0,1,.22-.24l4.42-.23a.23.23,0,0,1,.24.22.23.23,0,0,1-.22.24l-4.42.23Z"/><path class="cls-1" d="M145.81,37.62a.11.11,0,0,1-.1-.05.12.12,0,0,1,0-.16l5-3a.12.12,0,1,1,.12.2l-5,3Z"/><path class="cls-1" d="M150.83,34.63a.11.11,0,0,1-.1-.07l-10.16-23.4a.11.11,0,0,1,.06-.15.12.12,0,0,1,.15.06l10.16,23.39a.1.1,0,0,1-.06.15Z"/><path class="cls-1" d="M155.26,34.4h0a.11.11,0,0,1-.06-.15l11.44-23.36a.12.12,0,0,1,.16-.05.12.12,0,0,1,.06.15L155.35,34.34A.11.11,0,0,1,155.26,34.4Z"/><path class="cls-1" d="M140.67,11.23a.11.11,0,0,1-.11-.09.12.12,0,0,1,.08-.14l12.21-2.6a.11.11,0,0,1,.13.09.11.11,0,0,1-.08.14L140.7,11.23Z"/><path class="cls-1" d="M166.7,11h0L152.86,8.63a.11.11,0,1,1,0-.23l13.82,2.42a.12.12,0,0,1,.1.13A.11.11,0,0,1,166.7,11Z"/><path class="cls-1" d="M152.89,8.63a.12.12,0,0,1-.11-.08l-1.39-4a.12.12,0,0,1,.22-.08l1.39,4a.12.12,0,0,1-.07.15Z"/><path class="cls-1" d="M157.6,17.68h0a.12.12,0,0,1-.1-.13l1.48-13a.12.12,0,0,1,.13-.1.11.11,0,0,1,.1.12l-1.48,13A.11.11,0,0,1,157.6,17.68Z"/><path class="cls-1" d="M157.6,17.8h-9.28a.23.23,0,0,1,0-.46h9.28a.23.23,0,1,1,0,.46Z"/><path class="cls-1" d="M148.32,17.68a.11.11,0,0,1-.1-.06l-5-10a.11.11,0,1,1,.2-.1l5,10a.12.12,0,0,1-.05.16Z"/><path class="cls-1" d="M139.41,32.26l-.06,0a.11.11,0,0,1,0-.16l8.92-14.57a.11.11,0,1,1,.19.12L139.51,32.2A.12.12,0,0,1,139.41,32.26Z"/><path class="cls-1" d="M166.35,32.48a.11.11,0,0,1-.1-.06l-8.75-14.8a.11.11,0,1,1,.2-.12l8.76,14.8a.12.12,0,0,1,0,.16Z"/><path class="cls-1" d="M144.7,55h0a.11.11,0,0,1-.11-.12l1.11-17.41a.12.12,0,0,1,.12-.11.11.11,0,0,1,.11.12l-1.11,17.41A.11.11,0,0,1,144.7,55Z"/><path class="cls-1" d="M158.24,55.72h0a.12.12,0,0,1-.11-.13l1.72-17.87a.11.11,0,0,1,.12-.1.11.11,0,0,1,.1.13l-1.71,17.87A.12.12,0,0,1,158.24,55.72Z"/><path class="cls-1" d="M155.05,50.43h0a.12.12,0,0,1-.11-.12l.2-16a.12.12,0,0,1,.12-.11h0a.12.12,0,0,1,.12.12l-.21,16A.11.11,0,0,1,155.05,50.43Z"/><path class="cls-1" d="M147.73,50h0a.11.11,0,0,1-.09-.13l3.1-15.42a.11.11,0,0,1,.14-.09.11.11,0,0,1,.09.14L147.84,50A.12.12,0,0,1,147.73,50Z"/><path class="cls-1" d="M151.49,64.47h0l-5.68-2.26a.11.11,0,0,1-.07-.15.12.12,0,0,1,.15-.06l5.68,2.26a.11.11,0,0,1,.07.15A.12.12,0,0,1,151.49,64.47Z"/><path class="cls-1" d="M151.49,64.47a.11.11,0,0,1-.11-.09.11.11,0,0,1,.09-.14l5.15-1a.11.11,0,0,1,.13.09.11.11,0,0,1-.09.14l-5.16,1Z"/><path class="cls-1" d="M156.65,63.47h0a.11.11,0,0,1-.09-.13l.6-4.07a.12.12,0,0,1,.13-.1.11.11,0,0,1,.1.13l-.6,4.07A.11.11,0,0,1,156.65,63.47Z"/><path class="cls-1" d="M151.49,64.47a.11.11,0,0,1-.11-.11V59.83a.11.11,0,0,1,.11-.12.12.12,0,0,1,.12.12v4.52A.12.12,0,0,1,151.49,64.47Z"/><path class="cls-1" d="M145.81,62.2a.12.12,0,0,1-.11-.1l-.56-3.34a.12.12,0,0,1,.1-.13.12.12,0,0,1,.14.09l.55,3.34a.11.11,0,0,1-.09.13Z"/><path class="cls-1" d="M151.49,64.47a.12.12,0,0,1-.11-.07l-1.3-3.45a.12.12,0,0,1,.06-.15.14.14,0,0,1,.16.07l1.3,3.45a.12.12,0,0,1-.07.15Z"/><path class="cls-1" d="M151.49,64.47h-.05a.11.11,0,0,1,0-.15l1.78-3.45a.11.11,0,1,1,.2.1l-1.78,3.45A.11.11,0,0,1,151.49,64.47Z"/><path class="cls-1" d="M139.06,71a.06.06,0,0,1,0,0,.05.05,0,0,1,0-.08l7.67-5.06a.06.06,0,0,1,.08,0,.06.06,0,0,1,0,.08L139.1,71Z"/><path class="cls-1" d="M139.41,70.78h0a.05.05,0,0,1,0-.07l2.72-9.82a.06.06,0,0,1,.07,0,.06.06,0,0,1,0,.07l-2.72,9.82A.05.05,0,0,1,139.41,70.78Z"/><path class="cls-1" d="M161,77.91a0,0,0,0,1-.05,0l-5.25-12a.06.06,0,0,1,0-.07.06.06,0,0,1,.08,0l5.25,12a.06.06,0,0,1,0,.08Z"/><path class="cls-1" d="M161,77.91h0a0,0,0,0,1-.05-.06l1.19-14.46a.06.06,0,0,1,.06-.05.06.06,0,0,1,.06.06L161,77.86A.06.06,0,0,1,161,77.91Z"/><path class="cls-1" d="M150.83,77.91h0a.06.06,0,0,1-.06-.06l.65-13.5a.06.06,0,0,1,.06-.06.05.05,0,0,1,.06.06l-.65,13.5A.06.06,0,0,1,150.83,77.91Z"/><path class="cls-1" d="M150.83,77.91a0,0,0,0,1,0,0l-4.11-12a.06.06,0,0,1,0-.08.06.06,0,0,1,.07,0l4.1,12a.05.05,0,0,1,0,.07Z"/><path class="cls-1" d="M150.83,77.91h0a.06.06,0,0,1,0-.08l4.89-12a.07.07,0,0,1,.08,0,.07.07,0,0,1,0,.08l-4.9,12A.05.05,0,0,1,150.83,77.91Z"/><path class="cls-1" d="M172.43,68h0L162.13,63.5a.11.11,0,0,1-.06-.15.11.11,0,0,1,.14-.06l10.26,4.49a.12.12,0,0,1,.06.15A.13.13,0,0,1,172.43,68Z"/><path class="cls-1" d="M131.64,64a.12.12,0,0,1-.11-.08.12.12,0,0,1,.08-.14l10.49-3a.12.12,0,0,1,.14.08.12.12,0,0,1-.08.14l-10.48,3Z"/><path class="cls-1" d="M190.84,48h0l-24.14-3.76a0,0,0,0,1,0,0s0,0,0,0l24.14,3.76s0,0,0,0A0,0,0,0,1,190.84,48Z"/><path class="cls-1" d="M170.53,37.82a.13.13,0,0,1-.12-.1.12.12,0,0,1,.1-.13l21.37-2.89a.11.11,0,0,1,.13.1.12.12,0,0,1-.1.13l-21.37,2.9Z"/><path class="cls-1" d="M118.89,51.69l0,0s0,0,0,0l20.17-7.71a0,0,0,0,1,0,0s0,0,0,0L118.9,51.69Z"/><path class="cls-1" d="M116.59,37.62a.12.12,0,0,1-.12-.11.12.12,0,0,1,.12-.11l18.64,0h0a.11.11,0,1,1,0,.23l-18.64,0Z"/><path class="cls-1" d="M139.41,32.26a.12.12,0,0,1-.11-.07l-7-16.57a.11.11,0,0,1,.06-.15.11.11,0,0,1,.15.06l7,16.57a.11.11,0,0,1-.06.15Z"/><path class="cls-1" d="M166.35,32.48a.12.12,0,0,1-.09-.05.11.11,0,0,1,0-.16l16.35-11a.11.11,0,1,1,.13.19l-16.35,11Z"/><path class="cls-1" d="M166.35,32.48l-.05,0a.11.11,0,0,1,0-.15l9.14-16.8a.12.12,0,0,1,.16,0,.12.12,0,0,1,0,.16l-9.14,16.8A.11.11,0,0,1,166.35,32.48Z"/><path class="cls-1" d="M139.41,32.26l-.07,0-13.92-9.51a.12.12,0,0,1,0-.16.11.11,0,0,1,.16,0L139.48,32a.12.12,0,0,1-.07.21Z"/><path class="cls-1" d="M118.89,51.71h0a.06.06,0,0,1,0-.07l6.6-29a.06.06,0,0,1,.07,0,.06.06,0,0,1,0,.07l-6.6,29A.06.06,0,0,1,118.89,51.71Z"/><path class="cls-1" d="M190.84,48a.06.06,0,0,1-.06,0l-8.13-26.54a.06.06,0,0,1,.11,0l8.13,26.54a.06.06,0,0,1,0,.07Z"/><path class="cls-1" d="M131.64,63.88h0a0,0,0,0,1,0,0L139,43.94a0,0,0,0,1,0,0s0,0,0,0l-7.42,19.9S131.65,63.88,131.64,63.88Z"/><path class="cls-1" d="M172.43,67.91a0,0,0,0,1,0,0l-5.73-23.7a0,0,0,0,1,0,0s0,0,0,0l5.73,23.7s0,0,0,0Z"/><path class="cls-1" d="M191.91,34.92a.12.12,0,0,1-.11-.08l-6.44-18.31a.12.12,0,0,1,.07-.15.12.12,0,0,1,.14.07L192,34.77a.12.12,0,0,1-.07.15Z"/><path class="cls-1" d="M116.59,37.62h0a.11.11,0,0,1-.08-.14l6.44-21.94a.11.11,0,0,1,.14-.08.12.12,0,0,1,.09.14L116.7,37.54A.11.11,0,0,1,116.59,37.62Z"/><path class="cls-1" d="M112.75,42.41a.09.09,0,0,1-.07,0,.11.11,0,0,1,0-.16l3.83-4.79a.11.11,0,0,1,.16,0,.11.11,0,0,1,0,.16l-3.83,4.79A.14.14,0,0,1,112.75,42.41Z"/><path class="cls-1" d="M116.59,66a.11.11,0,0,1-.11-.1l-3.83-23.59a.11.11,0,0,1,.09-.13.11.11,0,0,1,.13.09l3.84,23.59a.12.12,0,0,1-.1.13Z"/><path class="cls-1" d="M156.95,92.92a.34.34,0,0,1-.2-.06L116.4,66.18a.35.35,0,0,1,.38-.58l40.35,26.69a.34.34,0,0,1,.1.48A.34.34,0,0,1,156.95,92.92Z"/><path class="cls-1" d="M156.95,92.92a.36.36,0,0,1-.27-.12.35.35,0,0,1,0-.48l35-28.73a.34.34,0,0,1,.44.53l-35,28.72A.33.33,0,0,1,156.95,92.92Z"/><path class="cls-1" d="M191.91,64h0a.11.11,0,0,1-.08-.14l5.06-21.63a.11.11,0,0,1,.14-.09.12.12,0,0,1,.09.14L192,63.88A.11.11,0,0,1,191.91,64Z"/><path class="cls-1" d="M197,42.34a.11.11,0,0,1-.09-.05l-5.06-7.42a.12.12,0,0,1,0-.16.11.11,0,0,1,.16,0l5.06,7.42a.11.11,0,0,1,0,.16Z"/><path class="cls-1" d="M195.59,66h0a.11.11,0,0,1-.1-.12l1.38-23.66a.11.11,0,0,1,.12-.1.11.11,0,0,1,.11.12L195.7,65.89A.11.11,0,0,1,195.59,66Z"/><path class="cls-1" d="M188.69,81.19h-.05a.12.12,0,0,1-.06-.15l6.9-15.19a.11.11,0,0,1,.15-.05.11.11,0,0,1,.05.15l-6.9,15.19A.12.12,0,0,1,188.69,81.19Z"/><path class="cls-1" d="M156.65,105.73a.12.12,0,0,1-.09,0,.12.12,0,0,1,0-.16l32-24.54a.12.12,0,0,1,.16,0,.12.12,0,0,1,0,.16l-32,24.55Z"/><path class="cls-1" d="M156.65,105.73l-.07,0-38.9-26.39a.11.11,0,0,1,0-.16.11.11,0,0,1,.15,0l38.91,26.39a.12.12,0,0,1,0,.16A.11.11,0,0,1,156.65,105.73Z"/><path class="cls-1" d="M117.74,79.35a.11.11,0,0,1-.11-.07L111,63.44a.12.12,0,0,1,.06-.15.11.11,0,0,1,.15.06l6.68,15.84a.11.11,0,0,1-.06.14Z"/><path class="cls-1" d="M111.07,63.51h0a.12.12,0,0,1-.11-.12l1.69-21.09a.11.11,0,0,1,.13-.1.12.12,0,0,1,.11.12L111.18,63.4A.11.11,0,0,1,111.07,63.51Z"/><path class="cls-1" d="M156.65,105.85h0a.23.23,0,0,1-.22-.24l.3-13a.24.24,0,0,1,.23-.23.23.23,0,0,1,.23.24l-.3,13A.23.23,0,0,1,156.65,105.85Z"/><path class="cls-1" d="M116.59,66h0L111,63.5a.12.12,0,0,1-.06-.15.11.11,0,0,1,.14-.06l5.52,2.5a.11.11,0,0,1,0,.22Z"/><path class="cls-1" d="M117.74,79.35a.12.12,0,0,1-.12-.1L116.48,65.9a.12.12,0,0,1,.23,0l1.15,13.35a.11.11,0,0,1-.1.12Z"/><path class="cls-1" d="M116.59,66h0a.11.11,0,0,1-.09-.13l2.29-13.46a.12.12,0,0,1,.14-.09.12.12,0,0,1,.1.13l-2.3,13.46A.13.13,0,0,1,116.59,66Z"/><path class="cls-1" d="M156.65,105.65s0,0,0,0l-25-41.76a0,0,0,0,1,0,0,0,0,0,0,1,0,0l25,41.76a0,0,0,0,1,0,0Z"/><path class="cls-1" d="M156.65,105.65h0a0,0,0,0,1,0,0L172.4,67.87s0,0,0,0,0,0,0,0l-15.78,37.74Z"/><path class="cls-1" d="M156.95,92.81a.22.22,0,0,1-.21-.14l-6.11-14.73a.23.23,0,0,1,.42-.17l6.11,14.73a.22.22,0,0,1-.13.29Z"/><path class="cls-1" d="M156.95,92.81h-.07a.23.23,0,0,1-.16-.28l4-14.72a.23.23,0,0,1,.45.12l-4,14.73A.22.22,0,0,1,156.95,92.81Z"/><path class="cls-1" d="M191.91,64a.12.12,0,0,1-.12-.11l-1.07-15.92a.12.12,0,0,1,.11-.12.12.12,0,0,1,.12.11L192,63.84a.12.12,0,0,1-.11.12Z"/><path class="cls-1" d="M190.84,48.05a.1.1,0,0,1-.08,0,.11.11,0,0,1,0-.16l6.14-5.72a.11.11,0,0,1,.16,0,.11.11,0,0,1,0,.16L190.91,48A.13.13,0,0,1,190.84,48.05Z"/><path class="cls-1" d="M118.89,51.77a.12.12,0,0,1-.1-.05l-6.13-9.36a.11.11,0,0,1,0-.15.11.11,0,0,1,.16,0L119,51.6a.11.11,0,0,1,0,.16Z"/><path class="cls-1" d="M111.07,63.51l-.07,0a.12.12,0,0,1,0-.16l7.82-11.73a.12.12,0,0,1,.16,0,.11.11,0,0,1,0,.16l-7.82,11.74A.11.11,0,0,1,111.07,63.51Z"/><path class="cls-1" d="M195.59,66a.12.12,0,0,1-.11-.09L190.73,48a.11.11,0,0,1,.08-.14.11.11,0,0,1,.14.08l4.76,17.95a.11.11,0,0,1-.08.14Z"/><path class="cls-1" d="M195.59,66l-.06,0-3.68-2a.11.11,0,0,1,0-.15.1.1,0,0,1,.15,0l3.68,2a.11.11,0,0,1,0,.15A.12.12,0,0,1,195.59,66Z"/><path class="cls-1" d="M188.69,81.19h0a.11.11,0,0,1-.09-.13l3.23-17.22a.11.11,0,0,1,.13-.1.12.12,0,0,1,.09.14L188.8,81.09A.12.12,0,0,1,188.69,81.19Z"/><path class="cls-1" d="M156.95,104.93h0s0,0,0,0l33.89-57h0a0,0,0,0,1,0,0l-33.9,57Z"/><path class="cls-1" d="M156.65,105.67a.05.05,0,0,1-.05,0l-37.76-54a.07.07,0,0,1,0-.08.05.05,0,0,1,.08,0l37.75,54a.05.05,0,0,1,0,.08Z"/><path class="cls-1" d="M132.39,1.57H121.81a.12.12,0,0,1-.12-.11.11.11,0,0,1,.12-.11h10.58a.11.11,0,0,1,.12.11A.11.11,0,0,1,132.39,1.57Z"/><path class="cls-1" d="M125.49,22.69h0a.06.06,0,0,1-.06-.06L126.2.23a.06.06,0,0,1,.05-.06h0a.05.05,0,0,1,.06.06l-.77,22.4A.06.06,0,0,1,125.49,22.69Z"/><path class="cls-1" d="M132.39,15.63h0l-12-9.28a.05.05,0,0,1,0-.08.06.06,0,0,1,.08,0l12,9.28a.06.06,0,0,1,0,.08Z"/><path class="cls-1" d="M139.87,11.18h0L121.78,1.51a.06.06,0,0,1,0-.08.06.06,0,0,1,.08,0l18.06,9.66a.06.06,0,0,1,0,.08A0,0,0,0,1,139.87,11.18Z"/><path class="cls-1" d="M166.7,11a0,0,0,0,1,0,0,.05.05,0,0,1,0-.07l18.76-9.47a.06.06,0,0,1,.08,0,.06.06,0,0,1,0,.07L166.72,11Z"/><path class="cls-1" d="M175.49,15.63h0a.05.05,0,0,1,0-.07L179.89.22a.06.06,0,0,1,.07,0,.06.06,0,0,1,0,.07l-4.45,15.34A.06.06,0,0,1,175.49,15.63Z"/><path class="cls-1" d="M175.49,15.8a.23.23,0,0,1-.23-.2l-2-13.19a.23.23,0,0,1,.46-.07l2,13.19a.22.22,0,0,1-.19.26Z"/><path class="cls-1" d="M175.49,15.63l0,0a.06.06,0,0,1,0-.08l12-9.28a.05.05,0,0,1,.08,0,.06.06,0,0,1,0,.08l-12,9.28Z"/><path class="cls-1" d="M185.47,16.61a.12.12,0,0,1-.12-.11v-15a.12.12,0,0,1,.12-.11.11.11,0,0,1,.11.11v15A.11.11,0,0,1,185.47,16.61Z"/><path class="cls-1" d="M185.47,16.61h0l-10-.92a.11.11,0,1,1,0-.22l10,.92a.11.11,0,0,1,.1.12A.11.11,0,0,1,185.47,16.61Z"/><path class="cls-1" d="M132.39,15.63a.06.06,0,0,1-.06-.06V1.46a.06.06,0,0,1,.06-.06.06.06,0,0,1,.06.06V15.57A.06.06,0,0,1,132.39,15.63Z"/><path class="cls-1" d="M111.07,27.41h0a0,0,0,0,1,0,0l12-11.81s0,0,0,0a0,0,0,0,1,0,0l-12,11.81Z"/><path class="cls-1" d="M98.9,44.24h0a.06.06,0,0,1,0-.08L111,27.35a.06.06,0,0,1,.08,0,.05.05,0,0,1,0,.08L98.94,44.21Z"/><path class="cls-1" d="M90.51,81.19h0A.11.11,0,0,1,90.4,81l8.39-36.89a.11.11,0,0,1,.14-.08.11.11,0,0,1,.09.13L90.62,81.1A.11.11,0,0,1,90.51,81.19Z"/><path class="cls-1" d="M89.29,127.54h0a.35.35,0,0,1-.35-.35l1.23-46.12a.34.34,0,0,1,.35-.33.34.34,0,0,1,.34.35l-1.22,46.12A.35.35,0,0,1,89.29,127.54Z"/><path class="cls-1" d="M125.49,22.74h0L79.86,14.61a.11.11,0,0,1-.09-.13.12.12,0,0,1,.13-.1l45.61,8.13a.12.12,0,0,1,.1.13A.12.12,0,0,1,125.49,22.74Z"/><path class="cls-1" d="M44.08,21.51a.11.11,0,0,1,0-.23l35.79-6.91a.12.12,0,0,1,.14.09.12.12,0,0,1-.09.13l-35.8,6.9Z"/><path class="cls-1" d="M11.36,45.14a.06.06,0,0,1,0,0,.06.06,0,0,1,0-.08L44.05,21.35a.06.06,0,0,1,.08,0,.05.05,0,0,1,0,.08L11.39,45.13Z"/><path class="cls-1" d="M1.54,68.48h0a.07.07,0,0,1,0-.08L11.3,45.06a.06.06,0,0,1,.08,0,.06.06,0,0,1,0,.08L1.59,68.44A.06.06,0,0,1,1.54,68.48Z"/><path class="cls-1" d="M3.58,132a.11.11,0,0,1-.11-.11l-2-63.48a.12.12,0,0,1,.11-.12.11.11,0,0,1,.12.11l2,63.48a.12.12,0,0,1-.11.12Z"/><path class="cls-1" d="M15,182.48a.06.06,0,0,1-.06,0L3.53,131.91a.06.06,0,0,1,0-.07.06.06,0,0,1,.07,0L15.1,182.41a.06.06,0,0,1,0,.07Z"/><path class="cls-1" d="M63.92,186.42h0L15,182.53a.11.11,0,0,1-.1-.12.11.11,0,0,1,.12-.11l48.88,3.88a.11.11,0,0,1,.1.12A.12.12,0,0,1,63.92,186.42Z"/><path class="cls-1" d="M63.92,186.42l-.08,0a.12.12,0,0,1,0-.16l3.27-3.89a.12.12,0,0,1,.16,0,.11.11,0,0,1,0,.16L64,186.38A.11.11,0,0,1,63.92,186.42Z"/><path class="cls-1" d="M71.69,186.42a.1.1,0,0,1-.07,0l-4.5-3.89a.12.12,0,0,1,0-.16.12.12,0,0,1,.16,0l4.49,3.89a.11.11,0,0,1,0,.16A.12.12,0,0,1,71.69,186.42Z"/><path class="cls-1" d="M71.69,186.42a.12.12,0,0,1-.1-.06l-3.78-6.45a.11.11,0,0,1,0-.16.11.11,0,0,1,.15,0l3.78,6.44a.11.11,0,0,1,0,.16Z"/><path class="cls-1" d="M71.69,183.76a.1.1,0,0,1-.08,0l-3.79-3.78a.12.12,0,0,1,0-.16.12.12,0,0,1,.16,0l3.79,3.79a.12.12,0,0,1,0,.16A.11.11,0,0,1,71.69,183.76Z"/><path class="cls-1" d="M71.69,183.76a.11.11,0,0,1-.1-.05l-2.76-4.5a.11.11,0,0,1,0-.16.11.11,0,0,1,.15,0l2.76,4.5a.12.12,0,0,1,0,.16Z"/><path class="cls-1" d="M71.69,181.51a.09.09,0,0,1-.07,0l-2.76-2.25a.11.11,0,0,1,0-.16.11.11,0,0,1,.16,0l2.76,2.25a.12.12,0,0,1,0,.17A.13.13,0,0,1,71.69,181.51Z"/><polygon class="cls-1" points="40.51 176.87 40.49 176.41 60.33 175.65 60.35 176.1 40.51 176.87"/><path class="cls-1" d="M40.51,177h-.09a.35.35,0,0,1-.25-.41l4-16.92a.34.34,0,1,1,.67.15l-4,16.92A.34.34,0,0,1,40.51,177Z"/><path class="cls-1" d="M51.66,176.33h0a.12.12,0,0,1-.1-.14l4.09-26a.11.11,0,0,1,.13-.09.11.11,0,0,1,.09.13l-4.09,26A.12.12,0,0,1,51.66,176.33Z"/><path class="cls-1" d="M55.74,150.32h0a.12.12,0,0,1-.11-.12l1.64-28.53a.12.12,0,0,1,.12-.11.11.11,0,0,1,.1.12l-1.63,28.53A.11.11,0,0,1,55.74,150.32Z"/><path class="cls-1" d="M57.38,121.79a.11.11,0,0,1-.08,0L43.39,107.64a.12.12,0,1,1,.17-.16l13.91,14.11a.11.11,0,0,1,0,.16A.1.1,0,0,1,57.38,121.79Z"/><path class="cls-1" d="M43.47,107.68h0a.12.12,0,0,1-.12-.12l1-35.69a.12.12,0,0,1,.11-.11.11.11,0,0,1,.11.12l-1,35.69A.12.12,0,0,1,43.47,107.68Z"/><path class="cls-1" d="M44.49,71.9h0a0,0,0,0,1,0,0L60.42,36a0,0,0,0,1,0,0,0,0,0,0,1,0,0l-16,35.86Z"/><path class="cls-1" d="M60.44,36.36a.35.35,0,0,1-.12-.67l25.16-9.47a.35.35,0,0,1,.44.2.34.34,0,0,1-.2.45L60.57,36.33Z"/><path class="cls-1" d="M85.61,26.65a.12.12,0,0,1-.11-.07l-5.73-12a.12.12,0,0,1,.06-.15.11.11,0,0,1,.15.06l5.73,12a.12.12,0,0,1-.06.15Z"/><path class="cls-1" d="M98.9,44.3a.12.12,0,0,1-.09,0L85.51,26.61a.12.12,0,0,1,0-.16.11.11,0,0,1,.16,0L99,44.11a.12.12,0,0,1,0,.16A.1.1,0,0,1,98.9,44.3Z"/><path class="cls-1" d="M85.61,26.6h0L44.08,21.46a.06.06,0,0,1-.05-.06.06.06,0,0,1,.06,0l41.52,5.14a.06.06,0,0,1,0,.12Z"/><path class="cls-1" d="M60.44,36.36a.36.36,0,0,1-.23-.09L43.85,21.66a.35.35,0,0,1,0-.49.35.35,0,0,1,.49,0L60.67,35.76a.35.35,0,0,1,0,.48A.36.36,0,0,1,60.44,36.36Z"/><path class="cls-1" d="M98.9,44.3h0L60.42,36.12a.11.11,0,0,1-.08-.14.11.11,0,0,1,.14-.09l38.45,8.17a.11.11,0,0,1,.09.13A.12.12,0,0,1,98.9,44.3Z"/><path class="cls-1" d="M112.75,42.64a.36.36,0,0,1-.17,0L85.43,26.84a.34.34,0,0,1-.13-.47.35.35,0,0,1,.48-.13L112.92,42a.34.34,0,0,1,.13.47A.34.34,0,0,1,112.75,42.64Z"/><path class="cls-1" d="M116.59,37.62h0l-31-11a.11.11,0,0,1-.07-.15.12.12,0,0,1,.15-.07l31,11a.12.12,0,0,1,.07.14A.12.12,0,0,1,116.59,37.62Z"/><path class="cls-1" d="M111.07,63.51a.12.12,0,0,1-.1,0L98.8,44.24a.12.12,0,0,1,.2-.12l12.17,19.21a.12.12,0,0,1,0,.16Z"/><path class="cls-1" d="M90.51,81.42h-.07l-46-9.2a.34.34,0,0,1-.27-.4.35.35,0,0,1,.41-.27l46,9.21a.34.34,0,0,1-.07.68Z"/><path class="cls-1" d="M44.49,72h0l-43-3.45a.11.11,0,0,1-.1-.12.12.12,0,0,1,.12-.1l43,3.45a.11.11,0,0,1,.1.13A.11.11,0,0,1,44.49,72Z"/><path class="cls-1" d="M44.49,71.9h0L11.34,45.1a0,0,0,0,1,0,0,0,0,0,0,1,0,0L44.51,71.85s0,0,0,0Z"/><path class="cls-1" d="M46.54,45.2a.11.11,0,0,1-.12-.1L44,21.41a.11.11,0,0,1,.1-.13.12.12,0,0,1,.13.1l2.45,23.68a.12.12,0,0,1-.1.12Z"/><path class="cls-1" d="M46.54,45.2H11.36a.12.12,0,0,1-.12-.12.12.12,0,0,1,.12-.11H46.54a.11.11,0,0,1,.11.11A.12.12,0,0,1,46.54,45.2Z"/><path class="cls-1" d="M46.54,45.43a.35.35,0,0,1-.29-.16.34.34,0,0,1,.1-.47l13.91-9.07a.34.34,0,0,1,.47.1.34.34,0,0,1-.1.48L46.73,45.37A.34.34,0,0,1,46.54,45.43Z"/><path class="cls-1" d="M46.54,45.11a0,0,0,0,1,0,0,0,0,0,0,1,0,0l52.36-.9h0a0,0,0,0,1,0,.06l-52.36.9Z"/><path class="cls-1" d="M81.31,64.47h-.06L46.48,45.18a.12.12,0,0,1,0-.15.12.12,0,0,1,.16,0L81.36,64.25a.11.11,0,0,1,0,.16A.12.12,0,0,1,81.31,64.47Z"/><path class="cls-1" d="M90.51,81.19a.12.12,0,0,1-.1-.06l-9.2-16.72a.12.12,0,0,1,0-.16.11.11,0,0,1,.15,0L90.61,81a.11.11,0,0,1,0,.16Z"/><path class="cls-1" d="M81.31,64.47a.12.12,0,0,1,0-.23l29.76-1a.12.12,0,0,1,.12.11.11.11,0,0,1-.11.12l-29.76,1Z"/><path class="cls-1" d="M57.38,122l-.13,0a.33.33,0,0,1-.18-.45L81,64.22a.34.34,0,1,1,.63.27L57.69,121.8A.35.35,0,0,1,57.38,122Z"/><path class="cls-1" d="M3.58,132a.11.11,0,0,1-.1-.06.12.12,0,0,1,0-.16l39.88-24.34a.11.11,0,0,1,.12.2L3.64,132Z"/><path class="cls-1" d="M24.65,91.22a.2.2,0,0,1-.1,0,.23.23,0,0,1-.11-.3L40.3,56.66a.23.23,0,0,1,.3-.12.23.23,0,0,1,.11.3L24.86,91.09A.23.23,0,0,1,24.65,91.22Z"/><path class="cls-1" d="M68.93,68.65l-.09,0L40.42,57a.23.23,0,0,1-.13-.3.23.23,0,0,1,.3-.13L69,68.21a.23.23,0,0,1,.13.3A.24.24,0,0,1,68.93,68.65Z"/><path class="cls-1" d="M58.4,97.15h-.09a.23.23,0,0,1-.13-.3L68.72,68.33A.23.23,0,0,1,69,68.2a.22.22,0,0,1,.14.29L58.61,97A.22.22,0,0,1,58.4,97.15Z"/><path class="cls-1" d="M43.47,107.68a.13.13,0,0,1-.09-.05.12.12,0,0,1,0-.16L58.33,96.83a.12.12,0,0,1,.16,0,.11.11,0,0,1,0,.16L43.54,107.65Z"/><path class="cls-1" d="M89.29,127.25l0,0L58.36,97a.06.06,0,0,1,0-.08.07.07,0,0,1,.08,0l30.88,30.28a.06.06,0,0,1,0,.08Z"/><path class="cls-1" d="M89.29,127.54h-.06L57.32,122a.34.34,0,0,1-.28-.4.34.34,0,0,1,.4-.28l31.91,5.52a.33.33,0,0,1,.28.4A.34.34,0,0,1,89.29,127.54Z"/><path class="cls-1" d="M44.49,159.83a.11.11,0,0,1-.11-.11l-1-52.16a.12.12,0,0,1,.12-.12.11.11,0,0,1,.11.11l1,52.16a.11.11,0,0,1-.11.12Z"/><path class="cls-1" d="M55.74,150.32a.11.11,0,0,1-.11-.08L43.36,107.59a.12.12,0,0,1,.08-.14.11.11,0,0,1,.14.08l12.27,42.64a.11.11,0,0,1-.08.14Z"/><path class="cls-1" d="M44.49,160.06l-.11,0a.35.35,0,0,1-.22-.44l12.89-38a.34.34,0,0,1,.44-.21.34.34,0,0,1,.22.44l-12.88,38A.34.34,0,0,1,44.49,160.06Z"/><path class="cls-1" d="M44.49,160.06h-.08a.35.35,0,0,1-.26-.41L58.06,96.85a.34.34,0,0,1,.67.15L44.83,159.79A.34.34,0,0,1,44.49,160.06Z"/><path class="cls-1" d="M52.05,137.5h0L3.57,132a.11.11,0,0,1-.1-.13.11.11,0,0,1,.13-.1l48.47,5.49a.11.11,0,0,1,.1.13A.11.11,0,0,1,52.05,137.5Z"/><path class="cls-1" d="M15,182.48h0a.06.06,0,0,1-.05-.06l1.43-45a.06.06,0,0,1,.06-.05.05.05,0,0,1,.05.06l-1.43,45A.06.06,0,0,1,15,182.48Z"/><path class="cls-1" d="M16.47,137.5a.11.11,0,0,1-.11-.09l-14.93-69a.12.12,0,0,1,.09-.14.11.11,0,0,1,.14.09l14.93,69a.11.11,0,0,1-.09.13Z"/><path class="cls-1" d="M16.47,137.62h0a.23.23,0,0,1-.19-.27L24.43,91a.23.23,0,0,1,.26-.18.23.23,0,0,1,.19.26l-8.19,46.4A.23.23,0,0,1,16.47,137.62Z"/><path class="cls-1" d="M24.65,91.22a.23.23,0,0,1-.16-.07L1.38,68.58a.23.23,0,0,1,.32-.33L24.81,90.83a.22.22,0,0,1,0,.32A.23.23,0,0,1,24.65,91.22Z"/><path class="cls-1" d="M58.4,97.15h0L24.62,91.22a.23.23,0,0,1-.19-.27.23.23,0,0,1,.26-.19L58.44,96.7a.23.23,0,0,1,.18.27A.22.22,0,0,1,58.4,97.15Z"/><path class="cls-1" d="M58.4,97a.12.12,0,0,1-.11-.08.12.12,0,0,1,.08-.14l59.34-17.69a.12.12,0,0,1,.14.08.12.12,0,0,1-.08.14L58.43,97Z"/><path class="cls-1" d="M90.51,81.42a.34.34,0,0,1,0-.69l27.23-1.84a.35.35,0,0,1,0,.69L90.54,81.42Z"/><path class="cls-1" d="M89.9,154.13a.35.35,0,0,1-.35-.34l-.62-26.59a.35.35,0,0,1,.34-.35h0a.35.35,0,0,1,.35.33l.61,26.59a.35.35,0,0,1-.33.35Z"/><path class="cls-1" d="M111.07,190a.25.25,0,0,1-.2-.11l-21.17-36a.23.23,0,0,1,.08-.31.23.23,0,0,1,.31.08l21.17,36a.22.22,0,0,1-.08.31A.21.21,0,0,1,111.07,190Z"/><path class="cls-1" d="M124.06,195h0l-13-5.12a.11.11,0,0,1-.06-.15.11.11,0,0,1,.14-.06l13,5.11a.11.11,0,0,1,.07.15A.12.12,0,0,1,124.06,195Z"/><path class="cls-1" d="M124.06,195.13a.23.23,0,0,1-.23-.2.23.23,0,0,1,.2-.26l21.2-2.56a.23.23,0,0,1,.25.21.23.23,0,0,1-.2.26l-21.2,2.55Z"/><path class="cls-1" d="M145.25,192.45a.11.11,0,0,1-.12-.11v-3.58a.12.12,0,0,1,.12-.11.12.12,0,0,1,.12.11v3.58A.11.11,0,0,1,145.25,192.45Z"/><path class="cls-1" d="M153.28,192.45h-.05l-8-3.58a.11.11,0,0,1,.09-.21l8,3.58a.12.12,0,0,1,.06.15A.11.11,0,0,1,153.28,192.45Z"/><path class="cls-1" d="M153.28,192.45a.1.1,0,0,1-.07,0l-5.56-4.6a.11.11,0,0,1,0-.16.12.12,0,0,1,.16,0l5.56,4.6a.11.11,0,0,1,0,.16A.1.1,0,0,1,153.28,192.45Z"/><path class="cls-1" d="M157.24,192.45h-.05l-9.52-4.6a.12.12,0,0,1-.05-.15.11.11,0,0,1,.15-.06l9.52,4.6a.12.12,0,0,1,.06.15A.13.13,0,0,1,157.24,192.45Z"/><path class="cls-1" d="M157.24,192.68a.34.34,0,0,1-.21-.07l-8-6a.35.35,0,0,1-.07-.48.36.36,0,0,1,.49-.06l8,6a.35.35,0,0,1,.06.48A.34.34,0,0,1,157.24,192.68Z"/><path class="cls-1" d="M149.27,186.65H131.64a.34.34,0,0,1,0-.69h17.63a.34.34,0,1,1,0,.69Z"/><path class="cls-1" d="M131.64,186.65a.34.34,0,0,1-.34-.28l-4.93-26.59a.34.34,0,0,1,.28-.4.34.34,0,0,1,.4.28L132,186.24a.34.34,0,0,1-.27.4Z"/><path class="cls-1" d="M126.71,160.06h-.05a.35.35,0,0,1-.28-.4l4.93-30.83a.34.34,0,1,1,.67.11L127,159.77A.34.34,0,0,1,126.71,160.06Z"/><path class="cls-1" d="M131.64,128.94h0a.06.06,0,0,1,0-.08l12.5-21.32a.05.05,0,0,1,.07,0,.06.06,0,0,1,0,.08l-12.5,21.32A.06.06,0,0,1,131.64,128.94Z"/><path class="cls-1" d="M144.14,110.68a.05.05,0,0,1-.06-.05l-.62-26.93a.06.06,0,0,1,.06-.06h0a.06.06,0,0,1,.06.06l.62,26.92a.06.06,0,0,1-.06.06Z"/><path class="cls-1" d="M132.64,157.39h-.05a.24.24,0,0,1-.17-.28l11.5-46.53a.23.23,0,1,1,.44.11l-11.49,46.53A.23.23,0,0,1,132.64,157.39Z"/><path class="cls-1" d="M134.66,186.53a.23.23,0,0,1-.23-.21l-2-30.07a.24.24,0,0,1,.22-.25.24.24,0,0,1,.25.22l2,30.07a.22.22,0,0,1-.21.24Z"/><path class="cls-1" d="M146.73,186.42h0a.11.11,0,0,1-.09-.13l2.53-16.36a.12.12,0,0,1,.13-.1.12.12,0,0,1,.09.13l-2.53,16.36A.12.12,0,0,1,146.73,186.42Z"/><path class="cls-1" d="M149.27,170.29a.34.34,0,0,1-.19-.05.35.35,0,0,1-.11-.47l25.16-39.07a.34.34,0,1,1,.58.37l-25.16,39.07A.34.34,0,0,1,149.27,170.29Z"/><path class="cls-1" d="M40.51,176.7a.06.06,0,0,1-.05,0l-24-40.7a.05.05,0,0,1,0-.08.05.05,0,0,1,.08,0l24,40.7a.05.05,0,0,1,0,.08Z"/><path class="cls-1" d="M15,182.53h0a.12.12,0,0,1-.07-.15l28.43-74.86a.12.12,0,0,1,.15-.06.11.11,0,0,1,.07.15L15.14,182.46A.11.11,0,0,1,15,182.53Z"/><path class="cls-1" d="M15,182.53a.12.12,0,0,1-.11-.08.11.11,0,0,1,.09-.14l25.46-5.78a.11.11,0,0,1,.14.08.12.12,0,0,1-.09.14l-25.46,5.77Z"/><path class="cls-1" d="M63.92,186.36h0l-23.42-9.67a.06.06,0,0,1,0-.07.06.06,0,0,1,.08,0l23.42,9.66a.06.06,0,0,1,0,.11Z"/><path class="cls-1" d="M67.19,182.53h0L41.5,176.76a.11.11,0,0,1-.09-.14.12.12,0,0,1,.14-.08l25.67,5.78a.11.11,0,0,1,.09.14A.11.11,0,0,1,67.19,182.53Z"/><path class="cls-1" d="M42.5,184.72a.11.11,0,0,1-.11-.09l-2-8a.11.11,0,0,1,.08-.14.12.12,0,0,1,.14.08l2,8a.12.12,0,0,1-.08.14Z"/><path class="cls-1" d="M67.91,180h0l-27.41-3.22a.12.12,0,0,1-.1-.13.12.12,0,0,1,.13-.11l27.41,3.23a.11.11,0,0,1,.1.13A.12.12,0,0,1,67.91,180Z"/><path class="cls-1" d="M68.93,179.26h0l-28.43-2.51a.12.12,0,0,1-.11-.12.12.12,0,0,1,.13-.11L68.94,179a.12.12,0,0,1,.1.12A.12.12,0,0,1,68.93,179.26Z"/><path class="cls-1" d="M147.72,188h0l-16.09-1.43a.23.23,0,1,1,0-.46l16.07,1.43a.23.23,0,0,1,.21.25A.23.23,0,0,1,147.72,188Z"/><path class="cls-1" d="M145.25,189h0l-13.62-2.45a.23.23,0,0,1-.18-.27.23.23,0,0,1,.27-.18l13.61,2.45a.23.23,0,0,1,.19.27A.23.23,0,0,1,145.25,189Z"/><path class="cls-1" d="M124.06,195a.14.14,0,0,1-.08,0,.12.12,0,0,1,0-.16l7.59-8.59a.12.12,0,0,1,.17.15L124.14,195A.11.11,0,0,1,124.06,195Z"/><path class="cls-1" d="M111.07,189.9a.12.12,0,0,1-.12-.09.12.12,0,0,1,.1-.13l20.58-3.48a.12.12,0,0,1,.13.1.11.11,0,0,1-.09.13l-20.58,3.48Z"/><path class="cls-1" d="M145.25,192.57l-.09,0-13.61-6a.23.23,0,1,1,.19-.42l13.61,6a.23.23,0,0,1-.09.44Z"/><path class="cls-1" d="M145.25,192.37h0l-34.19-2.56a0,0,0,0,1,0,0s0,0,0,0h0l34.19,2.56a0,0,0,0,1,0,0A0,0,0,0,1,145.25,192.37Z"/><path class="cls-1" d="M63.92,186.33h0L12.9,173s0,0,0,0a0,0,0,0,1,0,0l51,13.3s0,0,0,0A0,0,0,0,1,63.92,186.33Z"/><path class="cls-1" d="M12.91,173.13h0a.11.11,0,0,1-.1-.12l3.56-37.07a.11.11,0,0,1,.13-.1.11.11,0,0,1,.11.12L13,173A.11.11,0,0,1,12.91,173.13Z"/><rect class="cls-1" x="71.67" y="141.11" width="30.32" height="0.46" transform="translate(-66.65 204.25) rotate(-80.73)"/><rect class="cls-1" x="70.78" y="165.85" width="20.65" height="0.46" transform="translate(-102.09 190.57) rotate(-71.58)"/><path class="cls-1" d="M96.19,176.44h0l-18.36-.34a.23.23,0,0,1,0-.46h0l18.35.34a.23.23,0,0,1,0,.46Z"/><path class="cls-1" d="M100.48,180.85a.23.23,0,0,1-.16-.07L96,176.37a.23.23,0,0,1,0-.32.23.23,0,0,1,.33,0l4.29,4.41a.23.23,0,0,1,0,.32A.21.21,0,0,1,100.48,180.85Z"/><path class="cls-1" d="M100.48,180.74h-.05L94.65,178a.12.12,0,0,1,.1-.21l5.78,2.73a.11.11,0,0,1,.05.15A.11.11,0,0,1,100.48,180.74Z"/><path class="cls-1" d="M98.34,184.72a.11.11,0,0,1-.1-.06l-3.63-6.71a.11.11,0,0,1,0-.15.11.11,0,0,1,.15,0l3.63,6.71a.12.12,0,0,1,0,.16Z"/><path class="cls-1" d="M98.34,184.72l-.07,0-6.6-5.2a.11.11,0,0,1,.14-.18l6.6,5.2a.11.11,0,0,1,0,.16A.09.09,0,0,1,98.34,184.72Z"/><path class="cls-1" d="M89.9,184.72h0a.11.11,0,0,1-.07-.15l1.84-5.2a.11.11,0,0,1,.14-.07.12.12,0,0,1,.08.15L90,184.64A.12.12,0,0,1,89.9,184.72Z"/><path class="cls-1" d="M89.9,184.72h0l-16.06-1a.11.11,0,0,1-.11-.12.12.12,0,0,1,.12-.11l16.06,1a.12.12,0,0,1,0,.23Z"/><path class="cls-1" d="M73.84,183.76h0l-22.19-7.44a.11.11,0,0,1-.07-.15.12.12,0,0,1,.15-.07l22.18,7.44a.12.12,0,0,1,.07.14A.11.11,0,0,1,73.84,183.76Z"/><path class="cls-1" d="M91.74,179.52h0L77.81,176a.11.11,0,0,1-.09-.14.11.11,0,0,1,.13-.08l13.91,3.53a.12.12,0,0,1,.08.14A.12.12,0,0,1,91.74,179.52Z"/><path class="cls-1" d="M94.7,178h0l-16.87-2a.11.11,0,0,1-.09-.13.11.11,0,0,1,.12-.1l16.87,2a.12.12,0,0,1,.11.13A.12.12,0,0,1,94.7,178Z"/><path class="cls-1" d="M89.9,184.66h0l-12.07-8.73a.06.06,0,0,1,0-.08.06.06,0,0,1,.08,0l12.07,8.73a.06.06,0,0,1,0,.08A0,0,0,0,1,89.9,184.66Z"/><path class="cls-1" d="M84.37,156.41l-.06,0-14.92-9.05a.12.12,0,0,1,0-.16.11.11,0,0,1,.16,0l14.93,9a.12.12,0,0,1,0,.16A.13.13,0,0,1,84.37,156.41Z"/><path class="cls-1" d="M69.45,147.3h0a.06.06,0,0,1,0-.07l3.88-29a.06.06,0,0,1,.12,0l-3.88,29A.07.07,0,0,1,69.45,147.3Z"/><path class="cls-1" d="M73.33,118.34h0a.11.11,0,0,1-.06-.15L90.4,81a.12.12,0,0,1,.16-.05.11.11,0,0,1,.05.15L73.43,118.27A.1.1,0,0,1,73.33,118.34Z"/><path class="cls-1" d="M40.51,57l-.11,0a.23.23,0,0,1-.09-.31l6-11.67a.23.23,0,1,1,.41.21l-6,11.67A.22.22,0,0,1,40.51,57Z"/><path class="cls-1" d="M1.54,68.53a.11.11,0,0,1-.11-.08.11.11,0,0,1,.07-.14l39-11.67a.12.12,0,0,1,.07.22l-39,11.67Z"/><path class="cls-1" d="M68.93,68.65a.23.23,0,0,1-.07-.45l12.37-4.07a.23.23,0,0,1,.29.15.24.24,0,0,1-.15.29L69,68.64Z"/><path class="cls-1" d="M81.31,64.47a.12.12,0,0,1-.08,0,.11.11,0,0,1,0-.16L98.81,44.1a.11.11,0,0,1,.16,0,.12.12,0,0,1,0,.16L81.4,64.43A.13.13,0,0,1,81.31,64.47Z"/><path class="cls-1" d="M77.83,175.91a0,0,0,0,1,0,0l-8.39-28.63a0,0,0,0,1,0,0,0,0,0,0,1,0,0l8.38,28.63a0,0,0,0,1,0,0Z"/><path class="cls-1" d="M69.45,147.3a.06.06,0,0,1-.06,0l-11-50.32a.06.06,0,0,1,0-.07.06.06,0,0,1,.07,0l11,50.31a.06.06,0,0,1-.05.07Z"/><path class="cls-1" d="M73.33,118.34a.12.12,0,0,1-.1,0L58.31,97a.11.11,0,1,1,.19-.13l14.93,21.3a.12.12,0,0,1,0,.16Z"/><path class="cls-1" d="M89.29,127.25h0l-16-9a.06.06,0,0,1,0-.08.05.05,0,0,1,.07,0l16,9a.06.06,0,0,1,0,.08Z"/><path class="cls-1" d="M51.66,176.33h0a.12.12,0,0,1-.07-.15l21.67-58a.12.12,0,1,1,.22.08l-21.68,58A.11.11,0,0,1,51.66,176.33Z"/><path class="cls-1" d="M51.66,176.33l-.07,0a.11.11,0,0,1,0-.16l17.79-29a.11.11,0,0,1,.16,0,.11.11,0,0,1,0,.16l-17.79,29A.11.11,0,0,1,51.66,176.33Z"/><path class="cls-1" d="M51.66,176.33a.12.12,0,0,1-.11-.12.11.11,0,0,1,.11-.12l26.18-.34h0a.11.11,0,0,1,.11.11.12.12,0,0,1-.11.12l-26.17.34Z"/><path class="cls-1" d="M51.66,176.24l0,0s0,0,0,0l32.72-19.92s0,0,0,0a0,0,0,0,1,0,0L51.67,176.23Z"/><path class="cls-1" d="M84.37,156.41a.11.11,0,0,1-.11-.09l-11-38.07a.12.12,0,0,1,.08-.15.11.11,0,0,1,.14.08l11,38.07a.11.11,0,0,1-.08.14Z"/><path class="cls-1" d="M89.29,127.22h0a0,0,0,0,1,0,0l28.46-48a0,0,0,0,1,0,0,0,0,0,0,1,0,0l-28.46,48Z"/><path class="cls-1" d="M89.9,154l-.11,0a.23.23,0,0,1-.09-.31l21.17-39.59a.23.23,0,1,1,.4.22L90.1,153.89A.23.23,0,0,1,89.9,154Z"/><path class="cls-1" d="M111.07,114.31h0a.11.11,0,0,1-.09-.14l6.68-35a.11.11,0,0,1,.13-.09.11.11,0,0,1,.09.13l-6.67,35A.12.12,0,0,1,111.07,114.31Z"/><path class="cls-1" d="M111.07,114.31a.11.11,0,0,1-.11-.09.12.12,0,0,1,.09-.14l33.07-6.63a.11.11,0,0,1,.13.09.11.11,0,0,1-.09.14l-33.07,6.63Z"/><path class="cls-1" d="M131.64,129.11a.25.25,0,0,1-.13,0l-20.58-14.7a.23.23,0,0,1,.27-.37l20.58,14.69a.23.23,0,0,1-.13.42Z"/><path class="cls-1" d="M126.71,159.83h-.05l-15.64-8a.12.12,0,0,1-.05-.16.12.12,0,0,1,.15,0l15.64,7.95a.12.12,0,0,1,.05.16A.11.11,0,0,1,126.71,159.83Z"/><path class="cls-1" d="M111.07,151.79h0a0,0,0,0,1,0,0l15.19-33.54a0,0,0,0,1,0,0s0,0,0,0l-15.18,33.55Z"/><path class="cls-1" d="M126.25,118.25h0a0,0,0,0,1,0,0L143.5,83.69s0,0,0,0,0,0,0,0l-17.27,34.51Z"/><path class="cls-1" d="M111.07,114.25l0,0a0,0,0,0,1,0-.08l32.46-30.49a.05.05,0,0,1,.08,0,.06.06,0,0,1,0,.08l-32.46,30.49Z"/><path class="cls-1" d="M111.07,152.11a.34.34,0,0,1-.34-.34V114.19a.34.34,0,0,1,.34-.34.34.34,0,0,1,.34.34v37.57A.34.34,0,0,1,111.07,152.11Z"/><path class="cls-1" d="M111.07,189.9a.12.12,0,0,1-.12-.11v-38a.12.12,0,0,1,.12-.11.11.11,0,0,1,.11.11v38A.12.12,0,0,1,111.07,189.9Z"/><path class="cls-1" d="M89.9,154l-.09,0a.23.23,0,0,1-.14-.29l27.85-74.55a.23.23,0,0,1,.43.16L90.11,153.86A.23.23,0,0,1,89.9,154Z"/><path class="cls-1" d="M126.71,159.94h0L89.86,154a.23.23,0,0,1-.19-.26.22.22,0,0,1,.26-.19l36.82,5.93a.23.23,0,0,1,.19.26A.23.23,0,0,1,126.71,159.94Z"/><path class="cls-1" d="M89.9,154.13a.35.35,0,0,1-.35-.31.34.34,0,0,1,.31-.38l21.17-2a.35.35,0,0,1,.37.31.33.33,0,0,1-.31.37l-21.17,2Z"/><path class="cls-1" d="M127.61,191.11a.24.24,0,0,1-.16-.07L89.73,153.95a.24.24,0,0,1,0-.33.23.23,0,0,1,.33,0l37.71,37.09a.23.23,0,0,1,0,.33A.24.24,0,0,1,127.61,191.11Z"/><path class="cls-1" d="M127.61,191.11a.24.24,0,0,1-.23-.22l-.89-31.16a.22.22,0,0,1,.22-.23.23.23,0,0,1,.23.22l.89,31.16a.23.23,0,0,1-.23.24Z"/><path class="cls-1" d="M134.66,186.36h0a.06.06,0,0,1,0-.07l22-80.69a.05.05,0,0,1,.07,0,.06.06,0,0,1,0,.07l-22,80.69A.05.05,0,0,1,134.66,186.36Z"/><path class="cls-1" d="M144.14,110.68a0,0,0,0,1-.05,0,.05.05,0,0,1,0-.07l12.5-5a0,0,0,0,1,.07,0,.05.05,0,0,1,0,.08l-12.5,5Z"/><path class="cls-1" d="M144.14,107.68a.12.12,0,0,1-.11-.1.12.12,0,0,1,.09-.14l12.8-2.66a.11.11,0,0,1,.14.09.11.11,0,0,1-.09.13l-12.8,2.66Z"/><path class="cls-1" d="M131.64,129.11a.23.23,0,0,1-.13,0,.23.23,0,0,1-.06-.32L144,110.5a.23.23,0,0,1,.32-.06.23.23,0,0,1,.06.32L131.83,129A.23.23,0,0,1,131.64,129.11Z"/><path class="cls-1" d="M174.43,131a.11.11,0,0,1-.09,0l-17.78-25.26a.11.11,0,0,1,0-.16.12.12,0,0,1,.16,0l17.78,25.26a.12.12,0,0,1,0,.16Z"/><path class="cls-1" d="M174.43,131h0a.13.13,0,0,1-.07-.15l11-27.66a.11.11,0,1,1,.21.08l-11,27.66A.12.12,0,0,1,174.43,131Z"/><path class="cls-1" d="M166.35,105.73h0l-9.41-.71a.11.11,0,0,1-.11-.12.12.12,0,0,1,.12-.11l9.42.71a.11.11,0,0,1,.1.12A.11.11,0,0,1,166.35,105.73Z"/><path class="cls-1" d="M174.43,130.9s0,0,0,0l-8.07-25.26s0,0,0,0a0,0,0,0,1,0,0l8.07,25.26a0,0,0,0,1,0,0Z"/><path class="cls-1" d="M164.13,108.24h0l-7.49-2.51a.11.11,0,0,1-.07-.14.11.11,0,0,1,.14-.08l7.49,2.51a.12.12,0,0,1,.07.14A.12.12,0,0,1,164.13,108.24Z"/><path class="cls-1" d="M164.13,108.18l0,0a.05.05,0,0,1,0-.08l24.56-27a.06.06,0,0,1,.08,0,.06.06,0,0,1,0,.08l-24.55,27.05Z"/><path class="cls-1" d="M173.5,129.62a.05.05,0,0,1-.06,0l-9.37-21.44a.06.06,0,0,1,0-.08.05.05,0,0,1,.07,0l9.37,21.44a.05.05,0,0,1,0,.07Z"/><path class="cls-1" d="M185.47,103.33h0a.12.12,0,0,1-.1-.13l3.22-22.14a.12.12,0,0,1,.13-.1.11.11,0,0,1,.09.13l-3.22,22.14A.11.11,0,0,1,185.47,103.33Z"/><path class="cls-1" d="M131.64,129.22a.34.34,0,0,1-.24-.59l25-23.27a.34.34,0,1,1,.47.5l-25,23.27A.36.36,0,0,1,131.64,129.22Z"/><path class="cls-1" d="M149.27,170h0a.06.06,0,0,1,0-.07l14.86-61.82a.06.06,0,1,1,.11,0L149.32,170A.06.06,0,0,1,149.27,170Z"/><path class="cls-1" d="M150.19,147.35a.11.11,0,0,1-.09-.05.11.11,0,0,1,0-.16l24.24-16.36a.11.11,0,0,1,.16,0,.11.11,0,0,1,0,.16l-24.24,16.36Z"/><path class="cls-1" d="M150.19,147.35a.12.12,0,0,1-.11-.08l-8.16-28a.11.11,0,0,1,.08-.14.11.11,0,0,1,.14.08l8.17,28a.12.12,0,0,1-.08.14Z"/><path class="cls-1" d="M146.73,186.36h0a.06.06,0,0,1-.05-.06l3.45-39.07s0-.06.06,0a.05.05,0,0,1,.05.06l-3.45,39.07A.05.05,0,0,1,146.73,186.36Z"/><path class="cls-1" d="M134.66,186.42a.11.11,0,0,1-.08,0,.11.11,0,0,1,0-.16l14.61-16.36a.11.11,0,0,1,.16,0,.11.11,0,0,1,0,.16l-14.61,16.36A.14.14,0,0,1,134.66,186.42Z"/><path class="cls-1" d="M132.64,157.28a.12.12,0,0,1-.1-.06.11.11,0,0,1,0-.15l17.54-9.93a.12.12,0,0,1,.15,0,.11.11,0,0,1,0,.15l-17.54,9.92Z"/><path class="cls-1" d="M163.89,147.35h-13.7a.12.12,0,0,1-.11-.12.11.11,0,0,1,.11-.11h13.7a.12.12,0,0,1,.12.11A.12.12,0,0,1,163.89,147.35Z"/><path class="cls-1" d="M163.89,147.35h-.05a.12.12,0,0,1-.05-.15l21.58-44a.12.12,0,0,1,.16-.06.12.12,0,0,1,.05.15l-21.58,44A.11.11,0,0,1,163.89,147.35Z"/><path class="cls-1" d="M185.47,103.33a.13.13,0,0,1-.1-.05L171.19,80.86a.11.11,0,1,1,.19-.12l14.18,22.42a.11.11,0,0,1,0,.16Z"/><path class="cls-1" d="M174.43,130.9a0,0,0,0,1,0,0l-3.14-50.08a0,0,0,0,1,0,0h0s0,0,0,0l3.13,50.08s0,0,0,0Z"/><path class="cls-1" d="M164.13,108.24h0a.11.11,0,0,1-.08-.14l7.15-27.33a.12.12,0,0,1,.15-.08.12.12,0,0,1,.08.14l-7.16,27.32A.11.11,0,0,1,164.13,108.24Z"/><path class="cls-1" d="M127.61,190.93a.05.05,0,0,1-.06,0L111,151.79a.05.05,0,0,1,0-.08.06.06,0,0,1,.07,0l16.54,39.11a.05.05,0,0,1,0,.07Z"/><path class="cls-1" d="M111.07,151.88a.12.12,0,0,1-.07,0,.11.11,0,0,1,0-.16l20.57-22.89a.12.12,0,0,1,.17.16l-20.58,22.88A.11.11,0,0,1,111.07,151.88Z"/><path class="cls-1" d="M126.71,159.94a.23.23,0,0,1-.22-.15l-15.65-45.53A.23.23,0,0,1,111,114a.23.23,0,0,1,.29.14l15.65,45.53a.23.23,0,0,1-.14.29Z"/><path class="cls-1" d="M132.64,156.47a.23.23,0,0,1-.14,0,.22.22,0,0,1,0-.32l24-31.81a.23.23,0,0,1,.32,0,.24.24,0,0,1,0,.32l-24,31.8A.23.23,0,0,1,132.64,156.47Z"/><path class="cls-1" d="M156.65,124.55h0L142,119.33a.12.12,0,0,1,.08-.22l14.62,5.21a.11.11,0,0,1,.07.15A.11.11,0,0,1,156.65,124.55Z"/><path class="cls-1" d="M150.19,147.35h0a.11.11,0,0,1-.08-.14l6.47-22.8a.11.11,0,1,1,.21.06l-6.45,22.81A.12.12,0,0,1,150.19,147.35Z"/><path class="cls-1" d="M156.65,124.66a.17.17,0,0,1-.09,0,.22.22,0,0,1-.12-.3L163.92,108a.24.24,0,0,1,.31-.12.24.24,0,0,1,.11.31l-7.49,16.31A.22.22,0,0,1,156.65,124.66Z"/><path class="cls-1" d="M150.19,147.35a.12.12,0,0,1-.09-.19l35.28-44a.11.11,0,0,1,.16,0,.11.11,0,0,1,0,.16l-35.28,44A.11.11,0,0,1,150.19,147.35Z"/><path class="cls-1" d="M131.64,129.11a.23.23,0,0,1-.22-.17l-13.9-49.65a.23.23,0,0,1,.16-.28.23.23,0,0,1,.28.16l13.91,49.65a.23.23,0,0,1-.16.28Z"/><path class="cls-1" d="M111.07,190a.2.2,0,0,1-.1,0,.22.22,0,0,1-.1-.31l15.65-30.07a.23.23,0,0,1,.31-.1.23.23,0,0,1,.1.31l-15.65,30.07A.22.22,0,0,1,111.07,190Z"/><path class="cls-1" d="M111.07,151.82l0,0L89.24,127.23a.05.05,0,0,1,0-.08.05.05,0,0,1,.08,0l21.78,24.57a.06.06,0,0,1,0,.08Z"/><path class="cls-1" d="M40.51,176.76h0a.12.12,0,0,1-.11-.12l3-66.48a.1.1,0,0,1,.12-.11.12.12,0,0,1,.11.12l-3,66.48A.11.11,0,0,1,40.51,176.76Z"/><path class="cls-1" d="M15,182.48h0a.05.05,0,0,1,0-.08l42.34-60.74a.05.05,0,0,1,.08,0,.06.06,0,0,1,0,.08L15.08,182.45S15.06,182.48,15,182.48Z"/><path class="cls-1" d="M42.5,184.63h0l-26-47.21a0,0,0,0,1,0,0,0,0,0,0,1,0,0l26,47.21a0,0,0,0,1,0,0Z"/><path class="cls-1" d="M51.66,176.27h0a.06.06,0,0,1,0-.08l37.63-49a.06.06,0,0,1,.08,0,.06.06,0,0,1,0,.08l-37.63,49Z"/><path class="cls-1" d="M77.83,175.91a0,0,0,0,1,0,0l-4.5-57.65s0,0,0,0a0,0,0,0,1,0,0l4.5,57.65a0,0,0,0,1,0,0Z"/><path class="cls-1" d="M73.84,183.76h-.05a.11.11,0,0,1,0-.16l4-7.77a.11.11,0,0,1,.15-.05.11.11,0,0,1,.05.16l-4,7.77A.11.11,0,0,1,73.84,183.76Z"/><path class="cls-1" d="M124.06,195a.11.11,0,0,1-.11-.08L111,151.8a.12.12,0,1,1,.22-.07l13,43.13a.12.12,0,0,1-.08.14Z"/><path class="cls-1" d="M131.64,186.36h0L89.86,153.83a.06.06,0,0,1,0-.08.06.06,0,0,1,.08,0l41.74,32.52a.05.05,0,0,1,0,.08A.06.06,0,0,1,131.64,186.36Z"/><path class="cls-1" d="M146.73,186.42a.11.11,0,0,1-.11-.07l-14.09-30.07a.11.11,0,0,1,.06-.15.12.12,0,0,1,.15.05l14.08,30.07a.12.12,0,0,1-.05.15Z"/><path class="cls-1" d="M146.73,186.53a.23.23,0,0,1-.23-.21l-4.71-67.08a.23.23,0,1,1,.46,0L147,186.29a.23.23,0,0,1-.21.25Z"/><path class="cls-1" d="M134.66,186.36h0a.07.07,0,0,1-.05-.06L142,119.22s0-.06.06-.05a.06.06,0,0,1,.05.06l-7.37,67.08A.05.05,0,0,1,134.66,186.36Z"/><path class="cls-1" d="M40.51,176.67a0,0,0,0,1,0,0L24.62,91a0,0,0,0,1,0,0s0,0,0,0l15.85,85.65a0,0,0,0,1,0,0Z"/><path class="cls-1" d="M42.5,184.72a.13.13,0,0,1-.1,0L3.49,132a.12.12,0,0,1,.19-.14l38.91,52.71a.11.11,0,0,1,0,.16Z"/><path class="cls-1" d="M3.58,132h0a.05.05,0,0,1,0-.07L29.87,60.07a.06.06,0,0,1,.08,0,.06.06,0,0,1,0,.07L3.64,131.92A.06.06,0,0,1,3.58,132Z"/><path class="cls-1" d="M89.29,127.22h0s0,0,0,0L111,63.38s0,0,0,0a0,0,0,0,1,0,0l-21.78,63.8Z"/><path class="cls-1" d="M162.44,36.91a.23.23,0,0,1-.11,0,.22.22,0,0,1-.08-.31l.62-1.14a.24.24,0,0,1,.32-.09.23.23,0,0,1,.09.31l-.63,1.13A.23.23,0,0,1,162.44,36.91Z"/><path class="cls-1" d="M164.86,35.78h-1.78a.23.23,0,1,1,0-.46h1.78a.23.23,0,1,1,0,.46Z"/><path class="cls-1" d="M164.86,36.91a.23.23,0,0,1-.23-.23V35.55a.24.24,0,0,1,.23-.23.23.23,0,0,1,.24.23v1.13A.23.23,0,0,1,164.86,36.91Z"/><path class="cls-1" d="M163.67,37.7a.23.23,0,0,1-.19-.1.24.24,0,0,1,.06-.32l1.2-.79a.22.22,0,0,1,.31.07.23.23,0,0,1-.06.32l-1.19.78A.21.21,0,0,1,163.67,37.7Z"/><path class="cls-1" d="M163.67,37.7a.21.21,0,0,1-.12,0l-1.23-.79a.23.23,0,0,1,.25-.39l1.23.79a.23.23,0,0,1-.12.42Z"/><path class="cls-1" d="M143.34,36.53a.23.23,0,0,1-.2-.12l-.63-1.13a.23.23,0,0,1,.09-.32.24.24,0,0,1,.31.09l.63,1.13a.22.22,0,0,1-.08.31Z"/><path class="cls-1" d="M142.71,35.4h-1.79a.22.22,0,0,1-.23-.23.23.23,0,0,1,.23-.23h1.79a.23.23,0,0,1,.23.23A.23.23,0,0,1,142.71,35.4Z"/><path class="cls-1" d="M140.92,36.53a.22.22,0,0,1-.23-.23V35.17a.23.23,0,0,1,.23-.23.23.23,0,0,1,.23.23V36.3A.23.23,0,0,1,140.92,36.53Z"/><path class="cls-1" d="M142.11,37.32a.22.22,0,0,1-.12,0l-1.19-.79a.23.23,0,1,1,.26-.38l1.19.78a.24.24,0,0,1,.07.32A.26.26,0,0,1,142.11,37.32Z"/><path class="cls-1" d="M142.11,37.32a.22.22,0,0,1-.19-.11.23.23,0,0,1,.06-.32l1.23-.79a.23.23,0,0,1,.32.07.22.22,0,0,1-.07.31l-1.22.79A.24.24,0,0,1,142.11,37.32Z"/><path class="cls-1" d="M145.14,37a.19.19,0,0,1-.12,0l-2.45-1.56a.23.23,0,0,1,.25-.38l2.44,1.56a.23.23,0,0,1,.07.32A.22.22,0,0,1,145.14,37Z"/><path class="cls-1" d="M139.41,35.78a.22.22,0,0,1-.22-.17.23.23,0,0,1,.17-.28l1.51-.38a.23.23,0,0,1,.28.17.23.23,0,0,1-.17.28l-1.52.38Z"/><path class="cls-1" d="M160.62,37.19a.22.22,0,0,1-.2-.12.23.23,0,0,1,.09-.31L163,35.35a.23.23,0,0,1,.23.4l-2.46,1.41A.18.18,0,0,1,160.62,37.19Z"/><path class="cls-1" d="M166.35,36h0l-1.5-.23a.23.23,0,0,1-.19-.26.23.23,0,0,1,.26-.19l1.5.23a.23.23,0,0,1,.19.26A.23.23,0,0,1,166.35,36Z"/><path class="cls-1" d="M92.73,127.25a4,4,0,1,1-4-4A4,4,0,0,1,92.73,127.25Z"/><circle class="cls-1" cx="117.76" cy="79.57" r="2.17"/><circle class="cls-1" cx="90.4" cy="153.56" r="2.17"/><circle class="cls-1" cx="110.76" cy="189.16" r="1.77"/><circle class="cls-1" cx="132.62" cy="156.75" r="2.17"/><circle class="cls-1" cx="156.9" cy="105.38" r="1.77"/><circle class="cls-1" cx="125.7" cy="22.55" r="1.77"/><circle class="cls-1" cx="151.45" cy="64.31" r="1.23"/><circle class="cls-1" cx="156.95" cy="92.31" r="1.24"/><circle class="cls-1" cx="160.93" cy="77.87" r="1.23"/><circle class="cls-1" cx="150.49" cy="77.85" r="1.23"/><circle class="cls-1" cx="118.64" cy="51.42" r="1.23"/><circle class="cls-1" cx="190.76" cy="47.85" r="1.23"/><circle class="cls-1" cx="175.64" cy="15.39" r="1.23"/><circle class="cls-1" cx="191.81" cy="34.87" r="1.24"/><circle class="cls-1" cx="116.59" cy="37.62" r="1.23"/><circle class="cls-1" cx="174.54" cy="130.76" r="1.23"/><path class="cls-1" d="M128.06,159.94a1.24,1.24,0,1,1-1.23-1.23A1.23,1.23,0,0,1,128.06,159.94Z"/><path class="cls-1" d="M112,114.31a1.24,1.24,0,1,1-1.23-1.24A1.23,1.23,0,0,1,112,114.31Z"/><circle class="cls-1" cx="110.96" cy="151.71" r="1.23"/><circle class="cls-1" cx="150.09" cy="147.17" r="1.23"/><circle class="cls-1" cx="144.14" cy="110.69" r="1.24"/><path class="cls-1" d="M164.87,108.06a1.24,1.24,0,1,1-1.24-1.23A1.23,1.23,0,0,1,164.87,108.06Z"/><circle class="cls-1" cx="73.56" cy="118.56" r="1.24"/><path class="cls-1" d="M61.42,97.14A3.1,3.1,0,1,1,58.31,94,3.11,3.11,0,0,1,61.42,97.14Z"/><circle class="cls-1" cx="131.99" cy="128.94" r="0.93"/><circle class="cls-1" cx="84.41" cy="156.01" r="0.93"/><circle class="cls-1" cx="40.62" cy="176.53" r="0.94"/><circle class="cls-1" cx="43.74" cy="108.24" r="0.93"/><circle class="cls-1" cx="24.62" cy="90.76" r="0.94"/><circle class="cls-1" cx="42.59" cy="184.54" r="0.94"/><circle class="cls-1" cx="124.14" cy="194.97" r="0.93"/><path class="cls-1" d="M56.56,150.19a.93.93,0,1,1-.93-.94A.93.93,0,0,1,56.56,150.19Z"/><path class="cls-1" d="M4.58,132a.94.94,0,1,1-.94-.93A.93.93,0,0,1,4.58,132Z"/><circle class="cls-1" cx="44.15" cy="71.8" r="0.93"/><circle class="cls-1" cx="15.05" cy="182.31" r="1.66"/><circle class="cls-1" cx="12.88" cy="173.33" r="0.94"/><circle class="cls-1" cx="1.65" cy="68.41" r="1.66"/><circle class="cls-1" cx="44.14" cy="21.83" r="1.23"/><path class="cls-1" d="M86.55,26.79a1.24,1.24,0,1,1-1.23-1.23A1.24,1.24,0,0,1,86.55,26.79Z"/><path class="cls-1" d="M112.19,63.36a1.23,1.23,0,1,1-1.24-1.23A1.23,1.23,0,0,1,112.19,63.36Z"/><circle class="cls-1" cx="140.58" cy="11.05" r="1.23"/><path class="cls-1" d="M167.56,11.18a1.23,1.23,0,1,1-1.23-1.23A1.23,1.23,0,0,1,167.56,11.18Z"/></g></svg>
