<svg xmlns="http://www.w3.org/2000/svg" xmlns:xlink="http://www.w3.org/1999/xlink" width="36" height="26" viewBox="0 0 36 26"><defs><path id="km51a" d="M760 151.06v18.684c0 .01-.004.02-.004.03v.906a.613.613 0 0 1-.613.624h-14.279c.056 1.229.329 3.695 1.61 4.236 0 0 .498.459-.894.459h-8.046c-1.392 0-.894-.46-.894-.46 1.281-.54 1.554-3.006 1.61-4.235h-13.862a.626.626 0 0 1-.627-.624v-.934-18.685c0-.585.477-1.06 1.064-1.06h33.87c.587 0 1.065.475 1.064 1.06zm-18.152 20.566a.53.53 0 0 0 .53-.528.53.53 0 0 0-1.06 0 .53.53 0 0 0 .53.528zm17.087-20.482a.15.15 0 0 0-.15-.15h-33.57a.15.15 0 0 0-.15.15v18.717h33.87z"/></defs><g><g transform="translate(-724 -150)"><use xlink:href="#km51a"/></g></g></svg>