<svg xmlns="http://www.w3.org/2000/svg" viewBox="0 0 396.62 175.63"><title>jaw</title><g id="Layer_1" data-name="Layer 1"><path d="M396.61,52.47h0s0,0,0,0,0,0,0,0,0,0,0,0,0,0,0,0h0v0l0-.06v0h0l0,0,0,0,0,0-4.5-3.8a.3.3,0,0,0-.34,0l-25.37-7.19a.22.22,0,0,0-.21.05l-25.5-4.87a.23.23,0,0,0-.17-.13h0L321.82,34h0L301,32.82h0L274,33h0l-19,1.38-9.68-.25-9-8.2-1.1-1.06h0L214.9,5.34h0l0,0h0l-6.11-3.47h-.11l-3.55.05a.62.62,0,0,0-.65-.45.75.75,0,0,0-.61.81l0,.27-1.53,1.78a.57.57,0,0,0-.37,0,.77.77,0,0,0-.52.89L203.81,19l2.25,20.11-.43,5.08-3.91,4.58-6.78,5.86L169.62,66.54a.73.73,0,0,0-.35.37l-33,16.46a.56.56,0,0,0-.27.34L124.6,89.59l0,0-3.37-.55h0a.24.24,0,0,0-.22.1l-4.84-2h0l-6.38,1h0l0,0h0a.1.1,0,0,0,0,0h0s0,0,0,0l0,5-4.93,8.4-14,8.85-12.36-3.9s0,0,0,0a.15.15,0,0,0-.22-.09l-.12.06-8.16-.38-.17-.09h0l-25-5.19h0L4.27,93.41H4.2l-3.46.9h0l0,0,0,0h0v0s0,0,0,0,0,0,0,0h0l.58,3.4a.39.39,0,0,0,.06.6l10.51,5.87h0l56.92,32.78h0l2.82,34.67s0,0,0,0,0,0,0,0l1,2.1a.61.61,0,0,0-.09.62.47.47,0,0,0,.36.29.45.45,0,0,0,.3-.06l4.53-2.6h0a.53.53,0,0,0,.14-.13l0-.05a.56.56,0,0,0,.05-.09l6.43-15.23v0l0,0,8.32-27.94a.63.63,0,0,0,0-.2L95,125.95l11.78-1.89a.33.33,0,0,0,.19-.11l10.68,2.84,0,.28-1.71,6.65,0,0a.4.4,0,0,0-.2.48.32.32,0,0,0,.2.2l.28,1.64,0,0s0,0,0,0h0a.15.15,0,0,0,.1.07h.06l0,0h0l2.6-1.83a.29.29,0,0,0,.09,0h.12a.38.38,0,0,0,.26-.37l4.48-3.15.83-.38,0,0,0,0a.37.37,0,0,0,.13-.15h0a5.39,5.39,0,0,0,0-.14s0,0,0,0a.41.41,0,0,0,0-.12h0l0,0,5.18-8.82,3-1,7,1.27h.06l11.26-2.48,1.13,3.27-.25,1.91a.37.37,0,0,0,0,.06.4.4,0,0,0,0,.07.37.37,0,0,0,0,.07l0,.06,0,.05,0,0,.06,0,0,0,1.26.29h.14l0,0h0L165.91,119l8.38,1.18a.15.15,0,0,0,.12,0h0l3.59-3.77,15.92,0h0l14.47-.08h0l12.86-2-7.3,5.4a.78.78,0,0,0-.29.52l-11.48,11.33a.6.6,0,0,0-.17.44l-11.68,12.75a.4.4,0,0,0-.09.34l-1.81,3.57a.31.31,0,0,0,0,.1h0a.3.3,0,0,0,0,.2h0l1.09,1.61a.4.4,0,0,0,0,.09.33.33,0,0,0,.26.28H190l8.23-2.13.06,0h0l12.13-7.25.09,0a.46.46,0,0,0,.35-.09l29.28-21.84h0l10.44-8a.61.61,0,0,0,.47-.14l.43-.35,49.89-7.94h0l27.07-5.75h0L344.29,92l0,0h0l19.32-10.06a.35.35,0,0,0,.13-.12h0l2.63-4.47h0a.41.41,0,0,0,0-.06.46.46,0,0,0,0-.07.4.4,0,0,0,0-.07.42.42,0,0,0,0-.07.41.41,0,0,0,0-.07l0-.06,0-.05,0,0h0l-3.83-2.55h0l-.06,0h-.12l-.07,0h0l-.1.06-.71-.44,8.65-1.8a.74.74,0,0,0,.54-.65l13.63-6.94h0l8.12-5.39a.36.36,0,0,0,.1-.11h0l4.1-6.36h0v0l0-.06v0ZM370.3,70.76l-.06,0,.76-1.9,4-.46Zm-4.68,6.46-5,1.72,1.55-3.88.08,0Zm-56.44,23.51-3.06-.66,4.53-2,4.27,1.4Zm-7.9,1.68h0l-.89.14,5.43-2.35,2.91.62Zm-29.67,4.72,2.36-2.39.52,1.92-.1,0Zm-5.3.84L263,101.61l4.72-3.85,3,9.52Zm-16,2.27a.77.77,0,0,0-.25.41l-4.93,3.77,17.34-16.19h.05l.05,2Zm-23.72,18.1-1.63-1.28,11.11-5.8ZM220,133.21l-1.53-1.84,6.1-4.21.05,0a.15.15,0,0,0,.09,0h0l1.65,1.3Zm-29.47,16.74,6.07-7.17,4.15-1.54L194.27,149Zm23.75-29a.61.61,0,0,0,.35-.11l8.74-6.46,4.37-2.59L226.23,113h0l-.06,0-.06,0h0L213.92,124h0l-5.21,5.2.07-2.77Zm-20.38-5h-2.2l9.49-1.88,6.23,1.8Zm-15.32,0,8.37-3.55,1.93,2.3L185,116Zm-4.29,3.73-2.52-3.63,3.07-1.5h0l0,0h0l2.75,1.65Zm-19.71,4,.73-2.06,13.31-4.83Zm-2.5-5.24v0l-1.12-2,5.63-.44-1.77,5-1.63.59-1.09-3.15Zm-35.89,15.87,2.47-1.12.14.79-2.38,1.67Zm1.61-1.52.7-.51,0,.18Zm1.3-.95,3.38-2.46,1.33.68-4.65,2.11ZM42.23,121.11,55,125l-1.92,2.41ZM12.07,103.74h0l-6.46-3.61L10.14,102l3.14,2.44Zm12.21-6.28.39,1.16L9.51,94.75Zm20.26,3.72h0l12.32,2.56-.24.69-10.91-1.33L43.31,101Zm62.72-3.53.26.81-3.36,4.47Zm62.39-29.73.1,0a.59.59,0,0,0,.35-.05l12-5.66-1.18,3.16-12.2,3Zm58.47-49.12.11.58-10.19-8-2.33-4.5Zm7.83,7.55h0l2.76,2.51.51,4.15-.59.15-2.92-7Zm19,8.57h0l4.93-.36L256.86,40,246,34.69Zm19-1.38,10.34-.06-1,1.78L271,33.76Zm27-.17,5.71.33-5.83,1.49-4.69-1.78Zm39.36,3.33a.23.23,0,0,0,.18-.06l6.72,1.28-1.12,2.21L338,36.43Zm43.57,27.14-.32.16-6.51-.94.28-2,6.46-1L384,63.8Zm-43.11,28-8.5,1,2.14-2.37,7.25,1Zm1.26-.33.68.09-1.28.15Zm-26.64,7.93L312,97.52l6.2-2.68-2.43,4.49Zm-16.29,3.34,2.68-3.41,3.71.8-5.85,2.53Zm-1.29.2-6.83-1.2,7.31-3.17,3.31.71-2.75,3.49Zm-87.53,37.52h0l-1.61-1.93,1.65-1.55,6.1-4.21-5,6.86Zm-11.46,7,5.92-8L208,138l.42.51-9.48,8.9ZM202,136.46l-1,4.5-4.12,1.53Zm.23-.27.08-.09,0,0,4.39.49-2,2.76-3.48,1.55Zm11.91-11.91,11-9.95L215.55,128s0,0,0,0h0l-6.5,1.33Zm-62.91-5.67-7.75.53,5.86-4.2,2.06,3.64Zm-26.47,4.77-6.7.08-.52-3L126,122.8Zm1.52-.51,1.72.47-2.8,0Zm-7.81,3.67h0l3.45-1.61,4.61,1Zm8.36-.43-3.8,2.76-4.25-2.17Zm-8.59.31-.17-.09h0l.11-2.25,3.47.78Zm-45,45.22,1-13.37,1.37,6.21-2.1,7.16Zm.16.37-.25.86.06-.86ZM2.26,98.26l2.58-.37L9,101.15,2.9,98.62Zm3.08-.45L8,97.43l4.62,5.19-2.33-1Zm139.75-15.6-.38,1.57-12.34,5.67,2-4.13,1.33-.69Zm12.23-8.15,6.07,1.14-10.17,4.67,3-5.27Zm9.48-.23h0L170,72.51l3.6,2.89-2.86,1L164,75.13ZM168,68.76l12.86-3.15-1,2.7-9.77,4-3.53-2.83Zm15-6.91L185,64.4l-3.92,1,1.2-3.21Zm2.22,2.7,1,1.18L180,68.22l1-2.66Zm20-61.79.6.27-.57.25Zm.07,1.09,1.19-.52,2.77,1.26.4,6.42-3-2.54-1.29-4.31ZM261,34.48l7.43,1-1.37,5.18-7.07.82L257,40l3.11-5.49Zm9-.65,13.23,1.61-1,1.83-13.55-1.9.39-1.47Zm25.65-.42,4.89,1.86L295,36.68l-3.14-.38L295,33.41ZM347.49,38l3.9,3.74-1.7.05-3.42-1.56L347.4,38Zm22.32,32.67-.49.1-1.77-1.52,2.31-.26,0,1.68Zm-2.45-1.58-2.52-2.17,5-3.13a.3.3,0,0,0,.15.1l-.07,4.92ZM357,69.91l2-3.21-.33,2.8h0l-.06,0-.06,0h0l-1,1.08ZM328.67,96.55,330,93.28l1.81-.22-3.14,3.48Zm1.45-3.47,1.27-3,2.84.38L332,92.85Zm-24.19,1,3.49-4.44,3.73,2L306,94.12Zm-34.16-.21a.74.74,0,0,0-.09-.24.62.62,0,0,0-.23-.21l1.22-5.67.13,0,5,6Zm-46.64,32.68,2.66-4.62s0,0,0,0l0,0,11.82-5.21-14.36,9.83Zm-75.19-11.94,4-1.95,6.54-.38-9.93,3.47Zm-6.79,1.77-2.83-2.69,12.32-1.19-3.31,1.6,0,0h0l0,0,0,.05,0,.06,0,.06v0Zm-25.79,4,.52,3-10.57.13ZM107,123.51a.34.34,0,0,0-.09-.12l2.39-6.69,7.67-.74.39,4.3Zm2.37-7,.21-.57,7.29-1.09.09.93Zm.41-1.16,1.49-4.17,5.08-1.92.46,5ZM91.69,128.47l0,.11-1,.1.25-1.65.92,1.24A.59.59,0,0,0,91.69,128.47Zm-1.41.25-5,.49,1.84-7.26,3.5,4.72Zm-7.4,17.44-1.12,2.13-.69-2.66.8-3.14.69-.2Zm-.16-3.91,2.61-.76L83,145.88Zm-7,5.28,3,6.5-2.88,9.81-1.48-6.7ZM196.29,55.27,216.6,53.8l-6.48,5-14-3.44ZM207,43.53,211.64,34l1.9,6.13L207,43.87Zm-.47-18.58,3.91-2.25,1,10-4.88-6.87ZM212.67,14l1.23,3.49-3.12,4.2-.61-9.77Zm-2.53-2.58-.35-5.59,2.65,7.5ZM343.86,42.12l.64,0,.39.19.09.08L343,46.23l-1.64-.12-2.77-1.8Zm9.59,1.56h0L360.84,45l-3.36,2.34-1.36-.1-10.45-5.16,4-.12Zm12.7-2.05h0l.73,4.24-5.61-1,4.76-3.31Zm8.69,11.79.51-3.82,5.06,2.13-.74.43Zm.49,7.7a.3.3,0,0,0-.14-.11l-1.44-.45h-.19l-1.49-2.72,0,0,0-.05,5,1.17,0,1a.4.4,0,0,0,0,.1Zm-20,5.78-2.91-5.21,3.5-1.79.25.08h.16l2.58,6.09a.39.39,0,0,0-.11.23ZM278.09,93.52l-4.82-5.78,5.1,2.37.68.69h0Zm-37.77,22.65-12.56,5.53v0h0l-.56-3.27,0,0s0,0,0,0a.2.2,0,0,0,0-.05l15.19-8.18-2.07,6s0,0,0,0Zm-24-12.79-10.46,1.88-3.37-3.7,12.72-4,2.37,5Zm-.69.31-8,3.56-1.66-1.83Zm-17.12,1.19.47-1.56,2.72-1.4-.18,4.14-1.41.6Zm1.26,1.92-2.1.89.73-2.41ZM169,112.18h0l-5.36-.7,1.89-3.84,10.93,0-7.22,4.64Zm-14.8-.26-.19-2.61,10.71-1.6-1.83,3.7Zm-16.45-.75L133.12,103l.1,0,10,0-5.29,8.18Zm-56.42,18.4-2.09.2-3.16-1.06,5.07-3.17.32,3.84Zm-.44,16.06-2,7.8-.41-10,1.7-.5Zm-.53-2.71,1.32-.38L81,145.3Zm-1.88.17-.33-8,2,7.53ZM26.71,104.47,33.51,107l-3.2,2.83-5.55-4.92Zm-2.29.17-2-1.8,3.71,1.4Zm2.94-.32,9-2,2.12.32-4.72,4.17Zm11.54-1.6L44,110.61l-9.85-3.71Zm42.26,20.7h0s0,0,0-.06v0L86.52,122l-5.21,3.26-.15-1.8Zm.08-.28.55-4.71,4.92,3.29Zm-18-8.12L73,113.95l7.6,9Zm16.2,7.61L64.3,117.56,63,115.16Zm-15.79-8L70.44,111l2.23,2.65Zm-11.13-.85L51.7,115l-6.34-3.59Zm-7.43-2.7,9.13.14-1.6,2.39Zm7.76,2.81L56,115l-4,.14Zm.11-.16,1.6-2.4,3.6,3.56-1.6.06Zm2-2.3,7.25,3.31-3.75.13Zm3.61,3.81.56.55-1.53-.51Zm.25,0,3.88-.14,1.21,2.3-4.39-1.48Zm5.21,2.4,3,5.7-7.21-7.12Zm3.68,6.26-3.21-6.1,16.15,5.44ZM81,123.5l.15,1.85-4.73,3ZM77.84,134l-2.57-1.32.7-3.5ZM76,128.89l3.11,1L78,134.05Zm2.3,14.25-2,.59,1.7-8.39Zm1-13.18,1.89-.18-3,4.13Zm2-4.52,5.41-3.39-5.1,7.12Zm134-108.94,4.39,8.89-3-1.09-2.31-6.54Zm40.18,26.08-.76,2.59-4.19.3L248.88,42Zm34-3.93h0l.07,0,2.93,3.17L286.75,43l-.23,0,2.88-4.25Zm42.35,1.64h.06l2.53,5.37-2.45.75-6.77-5.9h0l5.16-.3Zm37.21,8.48,3.15,4-7.78-2,1.26-2.26ZM366,48l1-1.83,1.58,2Zm8,6.84-2,2.46a.31.31,0,0,0-.41.1l-1.18-.54,2.46-2.32Zm-4.59,5.74-1.74-3,2.16-.45-.31,3.25ZM345.12,75.77h0l-9.23,2.39,3.79-5.06,5.7.67-.15,2ZM326.93,86l-2.32-2,2.86-.26a.77.77,0,0,0,0,.1.63.63,0,0,0,.48.39.6.6,0,0,0,.36-.06l.45.89Zm1.92-.81,2.22,4.41-4-3.48Zm-30.74.45,1.51-1.25,6.95,3.75-3.74,4.2ZM292.3,90.2l-.73-.38-4.68-6,3.85-.78L295,88Zm2.77-2.07,5.41,6.37-8-4.22Zm-61.22,16.25,2-1.18.36-.12-2.81,3.62Zm11.44-6.74-.5,2.1-7.38,2.54ZM231.6,91.39l4.9-.44-3.79,1.64Zm-78.41,17.49-7.7-5.91,7.41,0,.43,5.91Zm51.6-43.7,9.28-1.66L203.71,71l-.33.07.65-5.68Zm15.73-29.91,2-4.44,9.77,11.36-11.07-4.93Zm.28,1.8-.91-.41.43-1Zm17.71,4L238,46.38h0l-2.78-2.15L238.5,41Zm-.38,5.34.54-5.3.22,0,6.66,4.74Zm-3.09-2.24-1.59-1.23,4.64-1.73Zm-14.69-9.32-1.12-3.18,2.9-.75Zm2.59-4,7.79,1.45,1.94,9.88Zm10.19,12.33,1.64,1.27L232.3,46.8l-6.42.47Zm1.78,1.37,2.5,1.93-4.86.35Zm11.33,1.85,6.41,4.56-.07,0-14.74-1.79.22-2.2Zm88.4-.19.54,0,6.55,2.6-1.83,3.62-.31,0h0l-.55.08-6.55-5.71Zm13.42,17.22h0l-.31-.36,2.55-2.81v0l0-.06,0-.06h0l.64.15Zm-13.16,15-.1,0-.1,0h0l-2.36-2.58,3.3-3.29,3.81.45-3.85,5.15Zm-4.23,2.71L329,79.26l1-1,.78,2.8Zm-1.82-2-5.34-5.83,4.56-1.5h0l.1.11,1.72,6.18Zm-1.41,4.19-2.82.26L326.21,82l1.29,1.15A.8.8,0,0,0,327.45,83.33Zm-46.27,1.46-.21-.74,1-5.28,4.59,4.91Zm-3.56-.36.73,2.74-1.69-3.39.74.24Zm-15.54,2.9,0,0,1.18-2.69,2.56-.47v2.44Zm-7.83,8.6h.14l-.12.14Zm-.3.24a.41.41,0,0,0-.06.09l-3.63.06,3.66-.36Zm-53.48,2.32,1.51-5,.13,0-.2,4.53Zm1.41.06-.1,2.19-1.47-1.62Zm-45.09-7.94,14.9-2.45,1.79.49-1.83,7.08L153,95.4l3.62-4.76Zm16.9-2.09.18-.71L190,85.16l-4.64,6.56Zm11.51,3.36-2.86,4-10.52-.19,1.82-7Zm-11.67-3.4-1.4-.39,1.57-.26Zm-19.89,7.31,17.92.32-1.68,6.5Zm15.58,6.94-15.69,0-.5-6.83Zm.76.27,2-.26-5.29,3.48Zm1.75-6.89,10.35.18-2.24,3.17-9.78,3.12Zm10.76.19,6.9.12-9,2.88Zm.26-.37,2.8-4,4.79,1.32v2.77Zm2.91-4.12,4.66-6.59,0,7.88Zm5-6.46,5.2,9.27-5.18-1.43Zm.21-.33,11.68-1.5-.39,8.79-.24.8-5.69,1.47Zm61.8-33.56-2.59,5.15h0a.26.26,0,0,0-.13.11L236.68,59.1l15.45-7.48ZM323.78,73l3.84-2.8.47,1.34a.19.19,0,0,0,0,.05Zm-7.7,8.5-2.76-.73,5.1-5.73.18.16,1.25,1.92Zm3.87-4.23,4.15,6.36-7.84-2.08Zm-20.66,3.79-3.5.71,3-3.8,2.77,2.35Zm-18.92.83-1-6,2.48,2.66-.95,5.08Zm-4.87,1.8h0l1.56,3.13-2.58-3.58.88.15Zm-1.18-.66-4.17-5.78h2.23v0a.57.57,0,0,0,0,.14h0l2.81,5.75Zm-2.1-.72L269,77.48l.83-.09,4,5.59-1.19-.21Zm-2.59.68-3.13-4.72.5-.17L270.31,83l-.56.14Zm-7.73,4.21h0l-2.16-2,3.34-.62Zm-2.37-2.14-2.89-2.67,8.83-3.82,0,0h0l.1.14-2.46,5.62ZM203.65,71.76l12,4.17-.73,2.9-9.73,3.58-1.82-10.59Zm46.3-14.66-.43,3.5-6,1.36L241,58.7Zm66.68-11.44.91.31,5.64,3.11L315,51.58l-6.35-4.2Zm33.1,14-.43-.1s0,0,0,0a.83.83,0,0,0,0-.15s0,0,0,0l-.3-1.72.59.2ZM328.31,71.53l-.07,0-.48-1.37,8.61-6.29,7.46.24ZM327.7,70l-2.26-6.48,10.64.35Zm-49.24,5.24h0l0-.11L277,63.66l.84.2,1.09,11.39ZM270,77.1l-2.81-8.85L266.82,66l3.4-1.36,2.14,12.47H270Zm-7.18-16.23,2.53-1.3,3.05.7-2.07,5.19a.43.43,0,0,0-.13,0,.48.48,0,0,0-.13.07Zm-.09,6.63s0,0,0,0l-8.17,3.39,1.16-6.39,0,0,.07,0ZM252.54,78.65l-2-1.85,6.55.77-.58,1Zm3.85.07L255,81l-2.3-2.13Zm-31.13,5.76-4.82-6.82,8,3.81-3.12,3Zm-7.3-16,5,3.66-2.77,4.75-.08,0-2.14-8.43Zm2.44,8.34,2.69-4.61,14.25-.49Zm.23.69L238,72.31l-9.38,9Zm23.21-14.9,4.53,5.78-6.75,2-.47-7.2Zm-2.74-.13-.24-3.68L243.34,62Zm14.28,2.26-1.16,6.35-4.09,4.95L248.91,69Zm2,12.28-7-.82,4-4.86,4.64,2.87Zm1.84-2.73L265.11,78l-7.54-.89ZM248.6,69.1l1.23,7.16-.49.24-6.89,2.28,6.08-9.66Zm-7.15,1.4-2.52.76.45-7.61,1.6-.36Zm0,.74.47,7.13a.08.08,0,0,0,.07.08h0a.09.09,0,0,0,.08-.1l-.47-7.16,6.62-2-6.09,9.67h0L239.08,72Zm5.37,6.46-2.48,1.21-1.27,0Zm2.78-.75-1.1,1.83-2.85.09Zm.27-.13.15-.07.17,0,2.06,1.9-3.55.11Zm7.35.78,6.13.72-6.69.21Zm2.07-3.43,3.57-5.93,2.35,9.59Zm-.14-.09-4.52-2.8,8.15-3.39,0,.12Zm49.18-26.64,6.37,4.21L310,53.1l-.11,0h-.08l-1.48-5.63Zm37.65,8h-.09l-.15,0-.14,0-.1,0a.67.67,0,0,0-.15.11l-.06,0,0,0h0l-.09.11L341.48,54l6.08,1.33-.89.37Zm-2.5,2.34v0l-2-.39L340,53.88h.13l3.44,3.78Zm-3.86-3.86h.18l1.46,3.45-3.71-.72L339.32,54ZM278,63.51l-1.05-.25v0a.48.48,0,0,0-.56-.45.47.47,0,0,0-.17.08l-1.27-1.18,8.65.78Zm-7,.31a.43.43,0,0,0-.39-.1.53.53,0,0,0-.34.32l-.87-.08L273,62.31ZM270,57.18h0l14.29,2.62.4,2.34,0,.06-10.23-.92L268.89,60Zm-1.45,2.74-2.68-.62,3.68-1.89Zm50.61-4.11-9.09,1.24-.1-3.2Zm-7.83,14.91-7.77-4.41,4.3-.26h.06l4.17,3.54Zm.88-1,.41.35-1,.53ZM308.13,66l8-2.6-4,6.05Zm8.29-3.06-7.35-.06,12.57-2.66,0,.22Zm5.28-2.13.27,2.4L317,63Zm-24.84-2.29.27-.1,9.37,4.42-12.12-.33Zm-2.87,4-7.6-.21,10-3.59Zm28-2.35.57-.12-.55.26Zm0-.36,0-.17.67,0Zm-.06-.54-.29-2.61h.05l2,2.71Zm-11.91-1.39h0l10.83-1.48a.61.61,0,0,0,.41.29h0l.29,2.56-11.92-.62Zm11.62,1.74,0,.26-13.92,2.95,1.76-3.84Zm-14.26,3.22-9.46-4.46,11.24.59ZM285,62l-.38-2.2,9.28-1Zm-11.17-.46-5.26,2.4,0,0h0l-1.84,1.51,2-5.11Zm-5.16,2.76,1.19.1-2.57,1Zm25.08-1.45-1.26,2-6.4-2.23Zm.39,0,12.18.33-9.54,3.18-4-1.38Zm13.24.36,7.92.07-7.47,2.41-4.78.29a.15.15,0,0,0-.19-.1.18.18,0,0,0-.1.12l-4.61.28Zm-4.16,3.13,7.92,4.5-6.11,3.31-1.89-7.8Zm7.9,4.71-5,7.61-1.05-4.34Zm1.64-.89,4.9,4.17-6.15-3.49Zm.17-.09,4.22-2.29,1.18,6.88Zm-.15-.12-.48-.41,4.08-6.22.73,4.28Zm3.75-6.7.1,0,5.34.17.17,1.5-4.87,2.64Zm5.77.14,2.44.08-2.29,1.24Zm0-.19L322,60.63l1.94-.92,1.23,3.52-.09.05Zm1.81-3.53.17,0,6.48.58-5.44,2.95Zm.8-.17,11.53-2.37L331.06,60ZM324,59.3l-2-2.77,2.06-.31,11.81.64Zm-13-6L315.33,52l4.9,3.24Zm-1.43.54.1,3.27h0l-4-1.87Zm-4.42,1.6,4.37,2a.36.36,0,0,0,.06.14l-.42.9-11-.57Zm-8.37,2.25-12.3,1.34.78-5.45,12.34,1.47-.73,2.61Zm-26.54-1.24,3.82-5.27,9.49,7.71Zm-5.51,2.58-2.9-.67,6.35-1.11ZM261,58.73l.07,0,1.16,1.67-5.49,2.82,4.06-4.41Zm.23-.11,3,.7-1.87,1Zm9.87,5.52h0l3.27-2.44L276,63.16a.61.61,0,0,0,0,.27l.13,1L274,76.33,271.81,68Zm7-.29,6.53-1.22a.3.3,0,0,0,.1.09l-2.42,13-3.13-.4Zm6.8-1.09,3.91,13.75-6.33-.81Zm.28.37L292.68,77,289,76.54Zm0-.44h0l7.32,2.55,2.06,12L292.89,77Zm7.51,2.61,4,1.39-.9,10.7-1-.13Zm3.08,12.28-.14,1.71-.49.24-.36-2.08Zm2.67.34-.09,0,.08,0Zm-.55.19a.08.08,0,0,0,.06,0l-2.15,1,.13-1.61,2.2.28-.2.11A.1.1,0,0,0,297.9,78.12Zm-2.28,1.39-.16,1.88-.29-1.67Zm.17-.08,2.67-1.3-2.87,3.65Zm2.63-1.68L296,77.43l.86-10.24,1.82,10.44Zm-1.49-10.86,6.2,8.31-4.34,2.35Zm.09-.17,5.8-.35,1.92,7.95-1.47.8Zm7.77,7.77.95,3.92-2.35-3.16Zm6.6-3.52,6.86,3.89-12,3.94Zm7.18,3.77h0l-1.21-7,4.86-2.64.92,8.2-4.52,1.49Zm3.92-9.84,2.62-1.42h.15l2.29,6.59-4.14,3Zm2.94-1.6,5.65-3.06,8.84.79-3.59,2.63Zm5.94-3.22L337,57l.25-.05,4.18.81.69,1.62-2,1.47Zm10.29-2.27,1.77.34v0s0,0,0,.07l0,.17-1.17.86Zm2-.29-3.32-3.65.41,0,4.31,2.07Zm4.17-2.15,1,.21-.38.76,0,0-1.52-.56Zm.87,1.2,0,0-.09-.09h0l.4-.81.86.19Zm.61-1.63.11-.22,1.72.2-.47.32Zm-.17,0-.13,0,.18-.08Zm.81,2.33h0l-1.14-.38a.7.7,0,0,0,0-.07s0,0,0-.05l1.28-.87,2.35.52-2.18,1Zm1-1.95.5-.34,3.36.4-1.21.53Zm4.64-2.52.16,1.94-3.36-.4,2.17-1.47Zm1.07,2-.16,0,.12-.05Zm.59-.35,4-1.74-3.86,2Zm-1.1.29-.23,0-.13-1.62.76,1.47Zm-1.94-1.88-2.09,1.41-1.29-.15,2.93-1.23Zm-5.46,1.93L347,54.41l2,.24Zm-11.52,1.78h-.09l-3.26-1.8,5-.74Zm-.51,0L325.89,56l7.69-1.14Zm-15.47-1.38a.66.66,0,0,0-.41.25l-.13,0L315.55,52l8.29-2.52,7.62,4.2Zm-13.13-7.69h0l1.48,5.64-4.42,1.59,1.67-6.44,1.1-.82ZM305,54.78l-.19.07-2.75-3,4.59-3.45Zm-.37.13-7.52,2.71.72-2.57,4.1-3.08Zm-6.89,0-12.23-1.46,11.28-7,5,5.43Zm-12.58-1.35-.79,5.51L284,59l-9.76-7.93,2.36-3.26.18-.06.15,0Zm-8.84-5.65L274.12,51l-1-.84,3.14-2.17ZM274,51.1l-3.87,5.34-.08,0h-.19l-.11.06-4-1.35,7.16-5Zm-4.76,5.64-7.7,1.34,3.83-2.65Zm-13.34,6.9-.39.2h0l-6.56,4.26.83-6.83,10.5-2.38Zm-7.34,4.71h0L244,62.59l5.4-1.23Zm-7.64-5.8-1.4.32L240.7,59Zm-1.72,1.14-.46,7.63-.73.22-15,.52-4.88-3.59ZM219.53,67.4l8.79-4.25,8.58.31Zm.24,9.64-.15.06-3.75-1.3,1.78-7.1Zm-.43.16-4.22,1.55.7-2.77ZM205.68,83l7.92,1.14L212,90.4,205.55,83Zm.37-.13,8.68-3.19L213.65,84Zm-.91.33h.05l6.53,7.4L202.3,93l0-.68,2.75-9.14Zm8.63,1L223,85.49,212.2,90.41Zm0-.18,1.1-4.37,5.15-1.89,4.87,6.9-1.61.74Zm11.34.92.07.08.29.68L224,85.44Zm.42.45.34.37-.19,0Zm3-3.82,2.27,1.08-5.18,1.72Zm.14-.14,9.58-9.2.6-.18L242,78.92l-10.89,3.61Zm13.75-2.25,1.48,0L234,83.92l-2.45-1.17Zm2.79-.09,3.14-.1-5.52,9.18-8.24-3.93Zm3.34-.1,3.85-.12,2.47,2.28-1.51,2.51-10.29,4.45Zm6.44,2.27,1.24,1.15-2.62,1.13Zm.09-.16,1.42-2.36,8-.25.57.07-8.71,3.77ZM266.32,78l-1.17-4.79,1.69,4.61ZM263.6,67.14a.44.44,0,0,0-.5-.15.51.51,0,0,0-.22.17l-6.61-2.91,6.41-3.3,3.28,4.7a.6.6,0,0,0-.13.39Zm6,9.9-.91.1h0l-1.11-6.45Zm2.84-5.09,1.3,5-.43,0Zm3.73-6.4,1.21,9.77v0l-3.24,1.56ZM279,75.74l.56,3.28-1-3.41Zm.32-.09,0-.09v-.07l3.07.39-.47,2.53Zm3.21.25,6.42.82,1.46,5.15-3.63,1.77L282,78.55Zm6.6.84,3.7.47L294.27,80l-3.74,1.82Zm3.91.5,1.61.21.37,2.18-.56.27Zm2,2.56.3,1.75-.81-1.5Zm3.82-2,0-.1,4.41-2.39,2.62,3.51,0,.09-4.13,1.36Zm19.36-2.76-5.06,5.68-6.76-1.8Zm.9.61,1.15,1L320,77Zm-.35-.79,4.26-1.4-2.53,2.94Zm10.09-3.41,14.94-7.17-5.58,5.56ZM338,70.08l-2.37,2.36-6.74-.79Zm6-6.33,0,.05,0,.06v0l-7.28-.24L340.19,61l2.78.25,1,2.43Zm-3.55-2.87,1.82-1.33.65,1.55Zm2-1.43,1.14-.83.44,2.58-.87-.08Zm2.85,1.31-.42-2.46L346,57l1.68.62.31,1.79-1.34,1.83Zm3.92-.74,0,0a.8.8,0,0,0,.07-.14l0,0,.41.1-2.23,2.46Zm1.25-.15-.14-1.78.54.18.3,1.76Zm.79-2.25h0l-.67-.22,2.22-1,.84.18-2.14,1.09Zm2.71-1.7,1.26-.55.65.08v0l-1.19.61Zm1.93-.26.06.69-1-.22Zm.16-.08.19-.09.9.11.59,1.15-1.61-.35Zm1.91.11,1.33.16-.81.84Zm-.41-.79,0-.06,5.08-2.58h.18l-2.84,2.94Zm6.25-2.73h.18l.49.13L366.56,56l-5.84-.69Zm3,3.82-2-3.4,4.11,3.64Zm-9.61-1.7-.82-1.59,5.35-.39Zm-6.71-.22-.65-.08.43-.85,3-.21Zm-.83-.1-4.15-.49,4.56-.33Zm-17.88-.38-7.68-4.23,1.83-.56,11.6,3.93ZM323.42,49l-4.9-2.7L325,48.51Zm-6.69-3.89h-.12l-.1,0-.89-.84,8.33-3.36-7.1,4.23Zm-.43.06-6.13,1.32,5.27-2.13ZM307,48l.18-.71.61.11Zm-.21.16L302,51.74l-5-5.42,1.13-.71L307,47.26Zm-9.91-2-.9-1,1.89.35Zm-1.19-1,1,1.12-11.32,7.05.67-7,9.05-1.32ZM285.2,53.34l-8-5.67,8.66-1.27ZM272.94,50l-.77-.62,3.42-1.21Zm-.15.11-7.23,5-4.9-1.66,11.31-4Zm-7.6,5.26-4,2.74a.29.29,0,0,0-.28-.1l-11.08,2.51.41-3.4,9.82-3.48ZM240.6,58.77l-1.25,4.13-1.75.4L228.67,63l6.79-3.29ZM228.29,63,219,62.63l15.77-2.82Zm-10.07-.19h0l9.69.35-9.18,4.44-.89.2.17-5Zm-.72,5.84-1.79,7.14L204,71.68ZM204.89,82.48l-2.13.27.44-10.1Zm0,.74-2.55,8.46.36-8.17ZM202.14,93v.08h0Zm.15.42L212,90.88l.1.1,1.33,2.79L202.09,97.9Zm10.17-2,2,2-.89.32Zm2.38,1.9-2.49-2.51,11.31-5.15,1.94.28.76,1.79Zm11-7.36.31,0,1.17,1.27-.77.37Zm.86.12,2.38.34-1.42.69Zm-.2-.22-.95-1,5.82-1.93L233.83,84l-4.5,2.18Zm8-1.48,7.89,3.76-12.07-1.74Zm18.82-.43-1.61,2.67-8,1.47Zm.26-.11,2.92-1.26,2.85,2.63-7.43,1.37Zm5.94,1.53,2.21,2-.2.11-8.54,1.75h0l0,0,0,0-.06.06-2.76.25,1.71-2.83Zm-6.88,4.21-6.28,6.22,3.61-6Zm-6,6.79,6.78-3.83.54,3.12Zm.22-.53,6.1-6,.41,2.37Zm6.45-5.93,1.58,1.39-1.22.69Zm.14-.35L260.45,88l-5.33,3Zm10-5.09L265.69,79l.11.17,0,4.8Zm2.65-5,2.67,4-2.68.5Zm4.45,3.8.84,1.7-1.37-1.56Zm.25-.25-3.46-5.11-2.78-7.57-.68-2.79,2.14-1,1.9,11.07h0l0,.05a.55.55,0,0,0,.05.13v0l3.39,5.07Zm3.31.26,2.55,3.53L272.86,83Zm2.57.35-.19-.39h0l-2.85-5.83.39,0,3.39,6.49Zm-2.37-6.44,3.29-1.58,2.64,9.16-2.36-.76ZM290.43,82l.23.81-3.25.66Zm.15-.07,3.78-1.84,1,1.78-4.49.91Zm8.73-.69h0l2.38-.78,1.17,1-3.25,2.68-4-2.14Zm2.58-.85,3.74-1.23L303,81.36Zm11.1.48L309.33,85l-3-5.89Zm.18,0,2.77.73-5.22,6.07-1.31-2.57Zm2.95.78,7.67,2L311,87.67Zm8.24,1.88h-.08l-4.22-6.47.3-.35,5.72,5.1Zm-3.77-7.08,2.62-3,5.4,5.9-2.28,2.27Zm7.84-4.35L332,76,330,78Zm.13-.38,6.85.8-3.2,3.19Zm7.24.66L338.26,70l4-.69-2.67,3.57Zm2.68-2.66L344,64.3a.29.29,0,0,0,.13.06h0l1.67.21-3.4,4.55Zm5.65-6.17-1-2.32.83.07,0,.13a.76.76,0,0,0,0,.15l0,0a.68.68,0,0,0,.14.2l0,0a.59.59,0,0,0,.16.1l0,0,2.16.71.09,0h0a.59.59,0,0,0,.2,0l.06,0,.15-.07h0l-.21.23Zm9.71-7,2.1.46.17,2.06-4.44-1.41Zm2.26.5,1.54.34-1.39,1.55Zm4-1.22,5.36.63-6.25.28Zm9.92.32-4-3.57,6.1,1.6Zm-15-4.94-1.27-1.17,3-2.05,5.47,2.7Zm-.25,0-3,.22,1.87-1.3Zm-5.14.37-7.62-3,.75-1.49,6.93,4.51Zm-.42,0-9.07.65,1.79-3.55Zm-10.39.81h-.08l-11.89-4,5.45-1.66Zm-12.85-4.32-8.87-3,7.53-4.48.41-.06a.23.23,0,0,0,.1,0l6.67,5.81Zm-10.46-4.08-1.91-1.79,10-1.46Zm-.18.07-6.15,2.48-1,.21-.89-.17.94-3.61,5.12-.75Zm-6.92-1.67,1-3.77h.17l3.31,3.11Zm.81-3.85h0l-1,3.87-6.84,1ZM308,43.17l-.92,3.55-8.33-1.54,1.39-.87Zm-9.51,2-1.74-.32,3-.43Zm-12.45.69.23-2.38,7.09,1.31Zm.06-2.39-.23,2.41L278,47l7.82-3.55ZM271.68,49l-5.07-4.12h.09l9.45,2.54Zm-5.33-4.1L271.48,49l-11.65,4.12-3.26-1.1,9.35-7.16Zm-7.08,8.49-8.17,2.89,5.12-3.92Zm-8.7,3.08h0l2.57-5.11h0l.06,0,2.84,1Zm-4-10.13,4.05-.29,2.25,4.78ZM252.1,51,237.55,52.1l.28-2.79Zm-.8.24-14.08,4,.31-3Zm-.18.62L236,59.22l-18,3.22,0-1.06Zm-33.38,9.56,0,1-2.55.46,1.71-1.23Zm0,1.4-.17,5-13.39,3,10.33-7.45Zm-14.63,9h0l-.48,10.88-12,1.54L189,75.08Zm-14.37,3.26,1.58,9.21L174.09,87l1.44-5.56,13-6.27Zm-14.77,11.9-3.45.57-4.88-1.34,9.76-4.72Zm-3.89.64-11.17,1.84,6.47-3.13Zm-13.88,3.08-3.36,4.42.07-3.6Zm-3.28.06L153,83.4,156.42,90Zm-.24,4.4a.36.36,0,0,0-.24.26l-5.83,1.83-1-3.94,7.08-1.75Zm-6.22,2.14-5.82,1.83-4.49-3.45,9.36-2.32Zm-.42.51-4.8,1.78-.25-.19Zm.32.26L144,101.79l-2.43-1.87ZM141,99.73l-8,3-.36-.63,8.14-2.55Zm.34.26,2.54,1.95-.55.85-9.59,0Zm2.67,2,1,.74h-1.44Zm.1-.15L146.57,98l5.82-2.16.5,6.87-7.64,0Zm9.48,1.06,16,0-4.2,4.1a.31.31,0,0,0-.34.1L154,108.76Zm19.21-.31,3.9,4.41-10.65,0Zm-.05-.37h0l-.81.11,7.6-2.42-1.23,1.73ZM180,99.78l7.77-2.48-8.94,4.12Zm10.64-6.4,4.94,1.36L190.69,96Zm11.12.14-1.52,5-.36.13-3.45-3.79Zm0,7.72,0,.47-2.66,1.37,1.08-3.6Zm.16.17.13.14-.14.07Zm0-.5.11-2.43,11.6-4.23,1.51,3.16-12.77,4Zm11.87-6.71,1.07-.39,2.8,2.83-2.35.74Zm1.41-.55,11.32-5.5,1.77,4.22L218.07,96.5Zm11.48-5.57.94-.46L231,91.28l-2.53,1Zm4.73,3.14L228,87.46l2-1,12.62,1.82L237,90.72Zm11.36-2.8-.53,1.84-4.67.42Zm.19-.07,8.54-1.58-1.69,2.81-7.39.66Zm6.73,1.43L246,95.92a.58.58,0,0,0-.58,0l-5.54,3.27,2.51-8.76Zm-4,7.64.32-.19a.76.76,0,0,0,.34-.48l6.78-.11-8,3Zm9.21-1.55,4.62-.45,2.19,1.94-7.05-1.21Zm.35-.4,1.87-2.18,2,1.8Zm-.49,0-.55.05-.56-3.26,1.44-.81,1.78,1.57Zm.65-4.21,5.73-3.24-4,4.72ZM265.62,87l-.71,2.39-2.42-1.75Zm.3.14,4.44,6.19-5.17-3.73Zm0-.56V84.1l2.79-.52.1.16,0,0,0,0,2.8,3.18Zm7,.27-.83-.95-1.39-2.79.61-.16.08.13,0,0,0,0,6.12,6.22-4.53-2.11A.57.57,0,0,0,273,86.84Zm6.12,1.82-1.16-4.37v0s0,0,0,0l0-.09,2.3.74.08.27a.48.48,0,0,0,.26.3l-1,4ZM281.21,85l5.49-1.13,4.7,6L288.28,92l-7.15-6.71A.61.61,0,0,0,281.21,85Zm10.31,5,.63.33-3,2.46-.76-.71Zm-.59-7,4.47-.91v0h0l2.46,3.49-2.78,2.3Zm4.85-.67,3.68,2L298,85.48Zm4,1.95L303,81.59l5.34,4.54L306.69,88Zm3.36-2.78L306,79.15l3.13,6.14-.63.7Zm6,4,1,2-1.61-1.37Zm14.89-1.39-2.58,4.76-.19.07-9.94-.95Zm.23-.07h.08l2.39,2.08-5,2.63Zm3.51-1.2a.68.68,0,0,0-.09.08l-1.25-1.11,2.27-2.26,1.64,1.79Zm3.89-2.26-.8.46-.79-2.85,2-2,2.32,2.53Zm8.09-7.61,2.72-3.64,3.24-.56-.38,4.85Zm2.88-3.85L346,64.59h0l-.31,3.94Zm3.51-5.21h0l1-.26h0l0,0,.08-.06h0l.33-.36.24.28Zm5.42-3.27.56,1-2.86,1.46Zm.12-.14v0l0-.06,0-.07a.37.37,0,0,0,0-.06.42.42,0,0,0,0-.08s0,0,0,0l-.28-1.63,4.13,1.31-3.34,1.71Zm6.75-2.82,7-.32L357.2,59Zm5.83-6.91-.12,0h-.09l-.1,0-.75.05-5.77-2.85,8.07.61ZM356.49,48l-2.9,2-2.91-2.67,5.31.4ZM350,46.76l-4.55-4.18,9.19,4.53Zm-.29,0-6.51-.49,1.89-3.75Zm.66.61,3,2.8-2.08,1.45-1.39.1L342.82,47l.13-.25Zm-7.71-.4-.31-.2.4,0Zm-.08.16-.77,1.52-6-2.39,6.17.47ZM313,41.88l-3.25-3.06,2.91.19,10.9,1.32Zm-12.13,1.77-5.66.83-2.37-2.57,16-3.21Zm-5.89.83L287.23,43l5.45-1.09ZM277.34,47.1l-.32,0L278.76,44l6.52-.47Zm-.52.08h-.13l-.24.09-9.2-2.48L278.56,44ZM256.37,52l-3.09-1a.25.25,0,0,0-.07-.1l1.51-5.13,10.89-.79Zm-3.32-1.2h0L250.77,46l3.77-.27Zm-2.72-5.31-4.5.33-6.58-4.69,9.44.85Zm-12.08-4.75-5,1.85-2-10.25,1.25.23Zm-5-8,3.38.63,1.44,6.24Zm-2.06-.76-.35-1.76,1.37,2Zm-1.36-3.21h0l.29.42-8.41-3-2.78-13Zm.43,1.05.4,2.06-8-1.48-.13-.26-.71-3.33Zm-8.3-.91-1.25-2.52.76.27Zm.14,1.45-3.05.79L216.89,25,220,26.1Zm-5.87-6.17L211,22.27l3.1-4.18Zm.24.67,2.25,6.37L211.83,33l-1-10.21Zm2.43,6.88,1.25,3.54-.57,1.27-7.07-3.15Zm2.14,6.06,2.31,6.53-7.5,1.27,3.8-8.42Zm.42.19,10.82,4.82-8.6,1.46Zm10.39,5.27-7.09,4-.95-2.68Zm-.18,4.16-.9.87-4.16-.51Zm.27,0,6-.43-.22,2.17L231,48.3Zm5.73,1.92-.29,2.82-11.16.81,4.6-4.46Zm-.31,3-.31,3.07-1.11.32-14.38,1.75L226,53.12ZM234.82,56,218.1,60.8l3.25-3.15ZM218,60.67l0,0a.16.16,0,0,0-.12.06l-7.17-1.77,10.42-1.27ZM214.76,63l-6.51,1.16,8.12-2.32Zm-11.08,2.49L203,71.15l-14,3.18.85-4Zm-13.47,4.12,5.67-7.68,7.5,3.09Zm-14.5,11.16.74-2.85,9.73-2.21Zm-.19.09L164.8,86.06l-10.93-3L176.26,78Zm-11,5.3L157,89.84l-.23,0-3.48-6.69.21,0Zm-11.71-2.95h0l-.14,7.63-7.27,1.8-1.3-5.38ZM144,87.36l1.29,5.35-9.93,2.46-3.07-2.36ZM132.1,92.91l3,2.33L132.2,96l-.15-3Zm3.77,2.89,4.51,3.46-7.89,2.48-.25-5Zm-3.55,6-8,2.51-2.59-5,10.33-2.56Zm-10.75-2.45,2.6,5-8,2.5-1-5.92Zm-6.72,1.78h0l1,5.84-3.49,1.1Zm-2.67,7-10.78,3.38,13.21-10.18Zm-12.7,4-1.09.34-1.15-1.54,14.51-8.27Zm-7.59,5.85-3.17-2.1,9.73-3.05,0,.06Zm6.73-5.2h0l0,0Zm-.41-.25-8.38,2.63L97.09,111Zm-6.49,5.78h0l-4.41,3.08,1.1-5.28Zm7.19-4.86,1.2,1.6-6.45,2.44Zm.14-.11,1.53-1.18L112,108.53l-.81,2.27L100.27,115Zm13.18-4.84,3.71-1.16.28,1.61-4.79,1.82Zm4.3.33-.27-1.59,8.09-2.54.54,1Zm8-4.18,7.91-2.48.36.64L125,105.64ZM143.39,103h1.8l7.75,5.95-14.81,2.21ZM177,107h-.1L173,102.61l5.3-.56,2.9,3.46Zm1.64-5.12,11.83-5.46,0,.05,1.73,5-10.71,3.9Zm12.17-5.09,3.51,3.89-1.92.7Zm0-.49L196.1,95l3.47,3.82-4.89,1.78Zm9.11,2.9.08.09-1.16,3.84-1.28.66L195.08,101Zm-1.14,4.17-.4,1.32-.69-.76Zm2.91,2.59.18-4.18.27-.14,3.31,3.64Zm13.69-8.48,2.42-.76,3.36,3.39-3.43,2.28Zm2.79-.89,10.2-4.11.94,2.23L221.51,100Zm10.36-4.18,2.58-1h0l1.22,1.33-2.89,1.92Zm8.5-1.57,5.15-.46-2.54,8.87-.51.3-6.33-6.88Zm-3.81,16.54,3.53-4.56,6.89-2.37-10.43,7ZM245,100.06l8.48-3.17-9.53,7.67,1-4.49Zm8.15-2.68-10.3,12,1-4.55Zm1-.59h0l7.7,1.32-18.34,11.05Zm8.28.67L260,95.36l3.23-.31-.72,2.44ZM259.63,95l-2.29-2,4.51-5.26.17,0,2.79,2-1.46,4.93Zm5.46-5.09,5.33,3.85-.26.21-6.45.63Zm6,3.43a.6.6,0,0,0-.24.07L266.23,87l5.81.42.22.25.09.07Zm8.61-2.63v0a.58.58,0,0,0,.05-.1.6.6,0,0,0,0-.09.64.64,0,0,0,0-.11.62.62,0,0,0,0-.1.58.58,0,0,0,0-.1.57.57,0,0,0,0-.11v0l-.19-.37,1-4.2a.43.43,0,0,0,.2,0,.5.5,0,0,0,.16-.11l7.1,6.66-5.51,3.69-2.91-5Zm8.52,1.43.74.7-5.48,2.47Zm4.05-1.76,8.41,4.43-2.43,3.53-9-5.49Zm2.9-2.39L298,85.74l4.73,6.72-1.86,2.21Zm11.51.18,1.72.93-5.2,3Zm.12-.14,1.62-1.82,1.94,1.65,0,.09-1.83,1Zm3.46.2-.92,1.16-.57-.31Zm10.57.77-6.2,2.12-3.74-3.06Zm.44,0h0l-2.83,5.22-3.69-3Zm5.6-2.89,4.17,3.63-9.39-.89Zm2.1-1.1,3.78-2,5,3.24-6.43,3.47Zm-.08-.16-.45-.89,3-1.76,1.11.72Zm2.94-2.86.42-.24h0l2.95-2,1.2-.31,2.23.3-5.71,3Zm5.55-2.81L342,78.08l-2.74,1.44Zm7.94-3.55.15-1.93,5.86.68Zm6.58-1.37-6.42-.75.38-4.9,4.43-.77L353.52,74Zm-6-5.83.3-3.91h0l2.06-.53h0l1.94,3.71ZM348.46,64l.48-.52,3.3-1.69,2.89,5.17-4.7.81ZM359,66l-2.56-6h0l5.35,4.6Zm-2.33-6.07,10.84-2.26,1.79,3.06L362,64.44Zm12.65,1.59.36,2.1h0l-5,3.17-2.12-1.82Zm.41-1.37.29-3h.07l0,0,0,0h0l.06-.06,1.22.56Zm7.68-1.56h0l-.06,0-.05,0,0,0,0,.06h0l-5-1.17a.38.38,0,0,0,0-.18l2.1-2.53.26.07h.06a.59.59,0,0,0,.24,0l.32-.08,3.11,3.5Zm-2.06-9.14,0-.16,8.19.62-3,1.74Zm-.16-.07-.32-.13.33,0Zm0,.19-.52,3.92-2.17-.57-3.2-4.1,5,.38Zm-6.35-1.34-1.55-2,5.41,2.28Zm-2-2.13L365.82,48l-8.06-.61L361.09,45Zm-25.86,0-5.62-.43,3-1.26Zm-6-.46-.34,0h-.06l-2.52-5.34,6.16,4Zm-9.79-5.31a.23.23,0,0,0-.25-.17h0l-.17-.32,4.13.27Zm-.45-.14-.47.07-8.19-1,8.46.56Zm-32,1.59-2.94-3.18L296,37l12.74,1.55Zm-3.56-3.07-2.84,4.19h-.09l-7.18.52,2.07-3.77Zm-7.71.34.86-1.57,5.72.8Zm-2.59,4.38-12.56.91.81-3.07,13.81-1.61Zm-12.73.93-.3,0L261,42l6-.7Zm-.67,0-10.6.77.75-2.56h0l5-.58Zm-16.88-3-3.16-6.72L255,42Zm-3.44-6.74h.09l3.16,6.71L239,40.54l6.08-5.89Zm-8-1.24,1.06.2.09,4.79Zm-.09-.39-.2-.86.94,1Zm-.54-.1-3.6-.67-2.35-3.35-.85-4.33,6.46,6.86Zm-6.66-5-8.64-12.34,7.85,8.34Zm-11.42-15.3L221.35,26l-1-.35L215.59,16l2.84-3.41Zm-4.34,4.58-1-2.74L215,16Zm-3.92,3.45L206.75,9.09l2.89,2.41Zm1.89,13.15,7,3.13L214,39.86Zm7.15,3.47-3.6,8-1.56-5Zm4.22,7.41.93,2.62-7.56-1.49Zm1.17,3.24h.06l.94-.07,5,.6L226,52.94l-8.79.64,7.36-5.7Zm1.09,5.24-4.47,4.33-10.84,1.32,6.47-5Zm-8.47,7.64L208,61.2,210.16,59Zm.28.17L204.46,64.7l3.32-3.31ZM204.12,64.8l-.28.08h0l-.18.06-7.37-3,11.25-.51Zm-14.19,4.92-.24.08-3.28-4L195.6,62Zm-.42.14-11.61,4,2-5.46,6.29-2.58Zm0,.57-.84,4-12,2.72,1-2.55Zm-13,6.73-.31.07-1.88-1.51,3.13-1.09Zm-.53.12-.2,0-3.94-.74,2.28-.8Zm-.66.15-16.94,3.84,13.1-4.56Zm-22.67,5.29-8.48,4,.67-2.76,8.08-3.71-.07,2.33A.35.35,0,0,0,152.65,82.73Zm-8.67,4-11.93,5.56.2-2.63L144.66,84ZM131.88,93l.15,3-10.55,2.62-.12-.7ZM121.2,98l.11.67-3.3.82Zm-6.31,2.26,0,0-.07,0-1,.77L98.9,109.55l4.12-3,11.49-7.23,1.41-.76-.86,1.69Zm-.45-1.14h0l-10.8,6.79,4.88-4.71,8.8-5.44-1.26,2.49Zm-5.25,1.46L116,94.22l1.36,1.28Zm-.39.13,4.8-8.75,2.3,2.16Zm-5.7,5.49.07-.46,3.32-2.81Zm-.2.18-3.81,2.82,3.89-3.3Zm-14.36,9.07,1.69-3.67,6.14-.8Zm-1.6,6L81.84,118l.59-5.06,5.67,2.91Zm-5.41-3.62-6.22-4.16,6.8-.76Zm0,.41-.54,4.64-7.57-9,1.38-.15Zm-8.4-4.69-1.79-2.12,3,2Zm-9.72.79,2.72-3.44,3.93-.13Zm-.72.37h-.1L55,111.3l10.6-.36Zm-6.9-3.82,13.36-4.35-3.17,4Zm-11.09,0-.06,0L39.48,103,53.9,111Zm-17.82-6.82-1.13-3.39,9.71,1.45Zm-.38-.09-4.83-1.82-2.84-2.52,6.55,1Zm-5.77-2.18-5.18-2-.12-.72,2.76.41Zm-5.37-3.06-.35-2,2.66,2.36ZM15,98.6,11.5,96.93l3.08-.45ZM15,99l.11.67-6.36-2.4,2.07-.3Zm.19,1.09.66,3.82-2.5-1L8.69,97.68Zm.73,4.25.3,1.76h0l-2.3-2.58Zm.68,2-.31-1.82,3.15,1.3-2.65.63Zm-.39-2.25-.66-3.84,5.88,2.22L24,104.75l-3.93.94Zm8.1.93,5,4.48-8.73-3.6Zm9.54,2.13,9.39,3.54-12.53-.78ZM50,115.54l.84.65-1.78,2.66-3.4-3.16Zm-4.65-.21-.68-3.94,4.87,3.79Zm5.21.19.75,0-.27.4Zm-.45-.35L46,112l5.56,3.14h0Zm6.85.13,2.35.79,7.59,7.49-14.37-8.13Zm23.84,8.11-4.91,5.16h-.18l-7.94-4.49ZM75,132.53,68.2,129l7.48-.12Zm-.07.37-.44,2.23-3.52,1-3.1-6.83Zm.3.16,2.36,1.21L74.8,135Zm2.64,1.51L76,143.64l-2.44-2.4,1.16-5.82Zm-1.6,9.56,2.12-.62.41,9.83-2.93-6.45Zm-.65,2.21-.2-.44.39-.83ZM81,146l.66,2.54-2.53,4.84Zm1-3.88.43-1.68.13,1.52Zm-.18.05-1.51.44-2.1-8.08,0-.14s0,0,0,0,0,0,0,0h0v0l3.22-4.5h.09l.85,10.15Zm-.12-12.4,3.35-.32-2.54,10Zm0-.18v-.11l5.21-7.28-1.79,7.06Zm5.57-7.7,4.58-3.2-1.19,7.78Zm13.09-6.52,1,1.29-7.2,1.07Zm.17-.06,10.56-4-1.47,4.12-8.09,1.21Zm16-6,5,4.36-4.52.67Zm.15-.11L125,106l3.4,6.54-6.73,1ZM125.2,106l7.76-2.88,4.62,8.11-9,1.34Zm28.17,3.44.19,2.68-.44.21-13,1.25-2-1.87Zm15.48,3.5,3.88,1.14-14.22,1.12,4.64-3ZM175,114h0l0,0h0l0,0,0,0h0l-5.41-1.59,7.32-4.71H177l.51,4.88Zm2.14-6.43,4.42-1.61,2.23,2.67-6.15,3.76Zm4.77-1.74L192.43,102l1.13,3.25-9.44,3.21Zm10.67-3.89,2.13-.78,2.55,2.82-3.55,1.21Zm4.81,2.19.91,1-.79,2.64L195,108.85l-1.21-3.48Zm0,3.87-1.28,4.25L195.05,109Zm.2-.08,2.3-1,2.44,2.7-6.07,2.71Zm2.64-1.12,1.38-.59,4-.71,1.73,1.91-4.66,2.08Zm7.22.75,3.39,3.73-5,1.68-3-3.32Zm.34-.15,8.57-3.83,1.6-.22,2.3,4.79-9.05,3Zm8.92-4.07.94-.62.22.46Zm1.08-.72,3.48-2.31,2.08,2.1-5.3.74Zm3.78-2.51,7.78-5.17,2.63,6.26-8.2,1.15Zm7.93-5.26,2.94-1.95,6.36,6.91-1,.57-5.66.79Zm7.91,5.78-4.39,2.59-.78-1.86Zm-4.74,8.26,0,0,.11-.1.08-.09a.81.81,0,0,0,.06-.12.79.79,0,0,0,.05-.14v0l.08-.4,11.61-7.75-1,4.52-6,4.84-5.74-.25ZM243.68,105l-1.06,4.66-.08.1s0,0,0,0l-4.53-.2Zm-1.36,5-14.47,7.79,9.93-8Zm-25.7,17.1,9.53-13.53.79,4.62Zm9.46-7.71-5.54,7.74s0,0,0,0a.18.18,0,0,0,0,.07.18.18,0,0,0,0,0l-3,2.86-1.59-1.92Zm-6,8.55L218,130.71l-.41-.49Zm7-9.29.53,3.11-6.09,4.65Zm15.76-8.6,17.89-10.78-19.84,16.46ZM262.9,97.33l.69-2.32,5.88-.57ZM278.18,94l.05,0h0v0l0,0,1.07-3,.14,0,.05,0h0l2.91,5L276,102.42Zm11-1,9,5.48-7.41,3.21-7.94-5.81Zm11.72,1.91L304.22,96l-2.46,3.13-3.29-.71Zm.12-.15,1.84-2.18,2.83,1.58-1.33,1.69Zm2-2.3,5.62-3.23.65.35L305.78,94Zm6.53-2.94,1.07-1.36h.1l3.76,3.08-1.09.37Zm5.1,1.84L317.89,94l-4.29-2.31Zm4,3.06,2.87-5.31,9.7.92-1.29,3.08L318.7,94.45Zm13-4.53,6-3.26-3.29,3.63Zm20.71-8.22.47,5-14-.55,13.39-4.5ZM338.59,86l7.18-5.26,6,.82Zm-.41.09h0l-5-3.21L339,79.85l6.52.88Zm1.39-6.57,3.2-1.68,2.56-.66.56-.12,3,1a.79.79,0,0,0,0,.14l-3,2.2Zm9.54-2.18-1.77-.58,3.52-.73-1.67,1.22A.68.68,0,0,0,349.11,77.38ZM353.69,74l-3.18-6.08,4.7-.81,1.57,2.81-2.42,3.94Zm1.7-6.92,3.38-.59h0a.33.33,0,0,0,.06.08l-1.95,3.17Zm3.4,2.43.3-2.59.47,2.71Zm.43-2.84L362.4,65l2.13,1.83L360,69.77a.3.3,0,0,0-.18-.11h0Zm5.45.33,2.44,2.1-7,.8Zm5.65-3.66L369.94,61l2-3,1.46,2.66,0,0,0,.06,0,0s0,0,0,0v0l-.27,1.71a.39.39,0,0,0,0,0Zm3.58-1.94.71.22-.84.62Zm3.29-1.2a.31.31,0,0,0,.11.09l-.1.68-1.7.26Zm.61-1,.2-.05-.21.25Zm1.1-.66,4.51-2.61.19.07h0l.1,2.57ZM383.82,56l.35-.09,7.48,2.76-7.73-.08Zm-5,2.38a.3.3,0,0,0-.31-.12l-.11,0-3.11-3.5,3-.77,4.95,1.82Zm1.79-6.57.15.06-.47.12Zm2,.13a.6.6,0,0,0-.7-.35l-.83.22-.25-.1,3.08-1.81h0a.3.3,0,0,0,.16.1l2.36.54-3.72,1.41Zm2.87-2.39L391,48.8l-3.32,1.26Zm-10-.86.37-2.8,7.34,3.39Zm-.16,0-2-.15-6-2.51,6.06-1.26,2.3,1.06Zm-8.22-2.8-.72-4.2.91.26,5.83,2.69Zm-1.2-4.4-4.83,3.36-7.54-1.33-1.69-1.62,14-.42ZM353,43.29l-3-1.35,1.51,0Zm-3.77-1.51-3.85.12.77-1.52Zm-4,.08-.68-.34h0l-.38-.09-6.56-5L346,40.3Zm-8.12-5.53,6.58,5-10.35-2.37,3.33-2.67Zm6.74,5.6h-.44a.09.09,0,0,0-.08.09.08.08,0,0,0,0,.08l-4.95,2.06-6.33-4.13v0a.29.29,0,0,0,0-.09l.68-.55ZM332,39.79a.25.25,0,0,0-.12-.05l-7.43-.49-1-2,9.15,2.1Zm-7.74-.56-14.9-1-.76-4.39,14.59,3.35Zm-15.06-.94-.06.06-7.4-2.82,6.7-1.71Zm-.62,0-12.08-1.47,4.93-1.26Zm-14.08-1.52-4.42,1.13,1.6-1.47ZM289.74,38l-.28.07-.69.08-6.35-.89,1-1.83,8.05,1Zm-7.59-.59-.89,1.62-14,1.63,1.36-5.13Zm-22.44,4.13L255.9,42l1-1.8Zm-4,.47h-.06l-.25,0L246,34.88l10.76,5.25Zm-16.78-1.65.79-6.83,5.16,1.06Zm-.11-3.28-.06-3.41.47-.12Zm-2.15-6L235.92,28l1.79,4.31Zm-.68-.72-6.41-6.82L229,20.67l5.8,4.57Zm-7.06-7.5L220.52,14l7.86,6.2ZM217.69,11.77l.51.54-2.73,3.27-.34-6Zm-2.6-2.92L215,6.54l2,3.94Zm.05,6.78-2.2-1.84-3.06-8.67,4.91,4.18ZM207.12,3l1.37-.6L209,3.89Zm-1,5-.62-.52-.12-1.94Zm.19.63,4,13.41,0,.24-3.82,2.2-1-16.5Zm1.09,30.39s0,0,0-.06,0,0,0-.06l-.76-12.51,4.82,6.79-4.33,8.9Zm-.45,5.29V44.3l6.72-3.84,1.59,5.12Zm8.54,1.67.06,0L223,47.57l-12.8.95Zm8.82,1.77-7.43,5.76-20.34,1.47.52-.45L209.25,49Zm-28.81,8.09.08-.06.08,0,.35-.3L210,59l-2.24,2.24-11.79.53L195.4,56Zm-9.2,9.72-.95-1.15,9.35-2.29Zm-6.55,2.88-2,5.45-3.88,1.35-3.61-2.9Zm-9.32,8-16.76,5.84-.62.14.07-2.37,10.6-4.87ZM144.9,83.7l.37-1.53,6.78-1.76Zm-10.74,1.75-2,4.12-5.72,3.09,7.48-7.06Zm-2.07,4.34-.2,2.62-10.33,4.82,4.35-4.1Zm-10.63,7.3,1-2.09,2.88-1.55Zm-.34.33s0,0,0,0h0l-5.81,2.71h0l.9-1.77,6-3.25Zm-4.81.69,1.28-2.52,6.91-5.37-2.18,4.65Zm1.09-2.82-1.25-1.17.9-.84Zm-.2-2.15,3.59-3.33-3.22,5.48ZM116,94l-2.34-2.2,2.38-4.33,1,5.61Zm-.56-5.8-1.91,3.48-.42-.39Zm-2.45,3-.48-.45L115.42,88Zm.45.67-5,9.08-.79-2.41L113,91.42Zm-5.1,9.26-5.16,4.38.2-1.27,4.17-5.53ZM103,105.63l-4.83,4.09,5-5.31Zm-12.69,6,.43-.94,5.2.21Zm-.19,0-5.52.72-4.17-3.79,10.14,2.09Zm-.09.2-1.74,3.78h0l-.22-.11-3.28-3Zm-2.57,3.36-4.7-2.41,1.8-.23Zm-12.63-1.8-4-2.64,3.49-1.87,7.31,3.75Zm-4.29-2.87-.11-.07h0l0,0h0l-4,.14,3.26-4.12L74,108.66Zm-15.82.35,2.1-6,11.92,1.45Zm-.34,0-8.19-7.29,10.3,1.25Zm-1.28-.66-13.26-7.4,5.73.7ZM39,102.29,37.76,102l4.9-1.11L45.09,103Zm-13.4-2-.38-1.14,10.19,2.6Zm-.37-.06-6.92-1L15.4,96.64,24.81,99ZM10.92,96.64l-5-2.42,7.84,2Zm-.65.09L8.12,97,5.2,94.27Zm-5.33.77L1.83,95.09l5.49,2.07Zm8.24,5.75,1.9,2.13-3.7-2.87ZM20,106.07,28,109.34,17.3,106.72Zm24.31,5.08.71,4.13-12.29-2.86-2-2.11Zm.55,4.47-4.76,4.28-.48-.28-6.42-6.72Zm-4.44,4.46,4.81-4.32,3.65,3.39-2,3-6.08-1.83Zm8.71-.7,5.46,5.07-7.36-2.22Zm6.21,5.28-6-5.59,1.79-2.68,10.09,7.85Zm-4-8.57.41-.62.46,0L67,123.84l-5.26.37Zm16.15,8.08,0,0h0l7.81,4.42-7.87.12-5.31-4.13Zm3.1,12-1.52.42a.31.31,0,0,0-.08-.08l-.05,0-1.09-6.36Zm.15.34,1.61,3.55-3.18-3.12Zm.33-.09,3.29-.9L73.28,141l-.24-.24Zm2.39,5.24L75.89,144l-.69,1.47-1.73-3.82ZM75,145.91l-4.18,9,2.52-12.62Zm.18.4.3.66-1.46,10-3.38-.86Zm.57,18.84,1.34,6.08-.07.17-.39.22-2.79,0Zm1.57,5.55L76,164.48l2.89-9.82.85,10.23-.45,1.25ZM79,154.23l0-.07,3.84,2-3,8.38Zm0-.26a.2.2,0,0,0,0-.06h0l2.7-5.16,1.58,6.1L82.89,156Zm4.43,1.43.1.4-.13.45-.23-.12Zm.2.09-.1-.37.07-.19,0,.51Zm-.24-.93-1.57-6,1.08-2.06.64,7.68Zm-.35-8.37,2.5-4.77,2.5-.73-1.56,5.25-2.81,7.83Zm5.12-5.92-2.39.7,3.7-7.07-.61,4Zm-2.61.76-2.87.84-.16-2,2.67-10.52,5.05-.49-.69,4.49Zm5-12.16,1-.1-.51,1.71-1.06,2Zm1.33-.71-1-1.37,1.07-7,.1,8.32A.48.48,0,0,0,91.92,128.16Zm9.74-11,.1.13-2.7.26Zm.2,0,7.51-1.12-.2.56-7.21.69Zm7.24-.36-2.36,6.61h-.08l-.12,0-4.45-6Zm8.81,6.93,0,.22-6.1-.15Zm.21.23,0-.24,6.26-.07-2.47,1.15Zm.15-3.42,11.42.61-3.43,1.6Zm-.77-.23-.39-4.29,6.34-.61,6.35,5.56Zm-.41-4.48-.09-.94,5-.75,1.25,1.09Zm5.16-1.72,6.61-1,2,1.38-7.37.71Zm6.87-1L138,111.7l2,1.86-8.76.84Zm11,.71,2.87,2.73-5.89,2-5.68-3.87Zm8.76,1.12-6.05,4.34-8.56.59Zm11.54-1.76L157,115.27l-3.69.29Zm11.71,1.73-16.45,6,1.69-4.8Zm3-.59h0v0h0l2.43-1.49.33,3.22ZM178,116l-.35-3.41,6.25-3.82,3,3.53L178.17,116Zm6.23-7.37,9.37-3.19,1.21,3.49-7.62,3.24Zm10.64.47,1.17,3.37-6.79,2.16-1.95-2.33Zm7.61.7,3,3.27-4.21.84-4.8-1.39Zm3.09,3.43,2.37,2.63L201.62,114Zm2.87,2.66L206,113.1l5-1.68,1.9,2.09-4.29,2.33Zm2.92-4.57,9-3,.44.93-7.59,4.11Zm9.16-3.05,5.43-1.81-5,2.71Zm-.08-.16-2.28-4.76,5.38-.75,3.34,3.37ZM224,102.5l8.11-1.14.81,1.93-.07.08-.09.1a1.45,1.45,0,0,0-.11.26l0,0-.05.27-5.3,1.77Zm8.54,1.74-.68,3.5-1.68,1-2.76-2.79Zm-.86,5.25,5.81.26-10.4,8.37h0l-.82-4.78,0,0s0,0,0,0a.19.19,0,0,0,0-.07h0l2.56-2Zm-16.07,18.78h.09l1.61,1.94-7.07,6.64-2.18,1L207,136.5Zm-8.76,8.37,1,1.25L205,139.2ZM208.2,138l1.66-.74-1.28,1.2Zm3-1.76,6.24-5.86.43.52-1.11,1.51ZM218,131l.28.34-1.08.74Zm.11-.15,2.54-3.46h0a.15.15,0,0,0,.1,0h0l6.34-4.85-2.53,4.4s0,0,0,0a.19.19,0,0,0,0,.07h0l-6.14,4.24Zm22.27-14.45-.43,2-.34.26h0l-1.75,1.31-11.25,5.87Zm-.23,1.83.4-1.86,0,0h0l17.58-14.59-15.82,14.77Zm22.54-20h0l5-2.22-5,4.1,0-1.87Zm8.61-3.33,2.64,9.66-2.59,2.63-.45.07-3-9.61Zm.14-.12.1-.08a.78.78,0,0,0,.25-.43l6.24-.21-2.22,8.6-1.73,1.76ZM275.7,103l-.93,3.59-.12,0-.55-2Zm.23-.23L282.59,96l7.9,5.78L275,106.52Zm26-3.57,2.45-3.11,6,2-4.58,2Zm2.57-3.27,1.31-1.66,5.81,3.25-1,.42Zm7.32,1.7,3,1.69L310.91,98Zm0-.2-5.65-3.17,7.18-2.45,5,2.72,0,.07Zm18-4.11-1.39,3.32-.15.05-.52.11-8.61-2.2ZM329,96.42l3.07-3.4,8.05-1-8,3.3Zm5.55-6.14,3.44-3.8h0l14.22.56L342,91.28Zm23-10s0,0,.05,0h0l2,.52-.5,1.24-5.84,4.3,4.14-6Zm2.29.5.72.18-1.13.83Zm.07-.17.58-1.45,4.77-1.66-4.51,3.32Zm-.16,0-1.91-.48,2.44-.85ZM358,79.86l3.91-4.58L360.45,79Zm-5,6.73,0,0-.46-5,4.81-1.28Zm-.6-5.3-6.21-.84L349,78.38a.58.58,0,0,0,.84.14l.37-.27,6.32-.18h0l-4,3.18Zm-1.11-3.81,2.6-1.89,1.9,1.77Zm3.3-3.69,2.29-3.72.4.72a.4.4,0,0,0-.06.41l-2.51,2.57Zm4.17-3.56.19,0-.4.18Zm8.54-1,1.79,1.54L368,71l-7.51-1ZM370,70.64l0-1.7.8-.09-.72,1.81Zm0-1.89.07-4.9a.37.37,0,0,0,.24-.34l2.75-.71a.34.34,0,0,0,.09.12l-2.28,5.73Zm3.3-5.76a.29.29,0,0,0,.14,0L376,67.86l-.54.27-4.39.5Zm2.84,4.79-2.56-4.9a.38.38,0,0,0,.07-.11l3.21.46-.66,4.52Zm-2.44-5.2,0-.11,1.09-.8.17.05h0a.34.34,0,0,0,.37-.27.36.36,0,0,0,0-.05l1.78-.27-.28,1.9Zm3.66-1.66.09-.63a.37.37,0,0,0,.3-.35v-.27l.52-.59.34-.09a.36.36,0,0,0,.25-.26l4.88.05,0,1.17Zm6.54-2.15,7.11.07L384,59.93Zm7.94-.22-7.39-2.72,1.19-.31,4.21-.48,2,3.47Zm-4.92-3.36,2.54-.66h.1l.2.33Zm2.84-.65,2.15.08-2,.22Zm-6,.72-4.24-1.56,2.63-.68a.66.66,0,0,0,.33-.22L388,54.18Zm3-4.67L392.9,52l-9.68-.07Zm1.25-.47,3.49-1.32h0a.33.33,0,0,0,.07.09l3.32,2.8Zm-3.06-.7-.71-.16a.3.3,0,0,0-.26.07l-.28,0-7.84-3.62.17-1.28,14.85,4.21Zm-9.24-3.8-2-.93,1.91-.4.28.08Zm-2.3-1.06-5-2.3,6.8,1.93ZM351.64,41.7,347.81,38l17.14,3.27Zm-18.5-2.81-10-2.3-1-2,14.39,1.66Zm-11.38-4.33h.09l1,2L311.75,34Zm-30.1,1.71-8.14-1,1-1.81,10.26-.06Zm-23.12-.93-6.6-.92,7-.51ZM239.72,33l-.45-3.61,5,4.55Zm-10.9-13.12-.09-.45,2.17,2.09ZM214.56,5.77l0,.06.15,2.73-5.09-4.33-.54-1.55Zm-8.1-3-.74-.34,1.56,0ZM204.09,6.4l-1.27-1.06L202.75,5,204,4.42Zm0,.49.56,9.32L202.91,5.89ZM206.72,45a.72.72,0,0,0,0-.08.76.76,0,0,0,.08-.13h0l8.09,1.16-5.76,2.68-5.91.44Zm-4.19,4.89,0-.05,0,0,.32-.38,5.3-.39L198,53.77ZM195.24,56l.52,5.72-10.55,2.58-2.11-2.58ZM166.35,69.57l3.52,2.82-3.12,1.28h0l-3.06,1.4-6.09-1.14ZM153,80l-7.65,2,.53-2.19,10.12-5Zm-7.83,2-7.85,2,8.37-4.17ZM125.82,93l-3.25,1.75,2.09-4.45h0a.3.3,0,0,0,.18,0l8.48-4.38Zm-8,2.2,3.27-5.57h0l3.2.52Zm3.1-5.74-3.76,3.49-1-5.57,4.7,2A.3.3,0,0,0,120.93,89.43Zm-8.51,1.16-2.5-2.34,5.92-.91Zm-.13.12L109.84,93l0-4.65Zm-2.46,2.58,2.59-2.46.5.47-5.27,7-.27-.84ZM97.22,110.5l0,0,.48-3.39,5.27-2.67Zm-.22.13-.12.07-5.81-.23,6.42-3.25Zm-4.64-1,5.26-3.31-.1.7Zm-12.18-1.34-1.62-1.47L89,110.1Zm-.34-.07-3.09-.64,1.5-.81Zm.27.24,4.28,3.9-1.91.25-7.72-4,1.73-.93Zm-5.72,0-3.8-1.95,5.37,1.11Zm-17.42-4,.23-.66,8,1.66Zm-20-2.7-11.92-3-.4-1.19,17.13,3.15Zm-32.8-8,3.11,3L1.37,94.52Zm.26,3.78L1.74,98l-.18-.1h0l-.51-3Zm25.77,12.69,1.91,2-8.81-2.05-5-2.85Zm2.38,2.49,6,6.24-14.13-8.14Zm22.73,12.35,11.39,10.1-13.32-7.67Zm.43-.1,5.92-.42,5.65,4.4,1.25,7.3-.32-.18Zm17,16,.35.78L70.47,155,69,137.3ZM74,157.29l-1.07,14.36H71.82l-1.24-15.23ZM72.88,172l-.13,1.73-.8-1.72Zm.86,0L76,172l-2.7,1.55Zm9.38-15.71.23.12-1.82,4.31Zm.66-1.3,0-.45,1-2.83ZM90,133l.89-1.7-1.29,4.34Zm2.28-5-.11-9.25v0l2.48,6.57,0,0Zm2.54-2.79h0l-2.52-6.69.06,0,3.26-.49,6.33-.61,4.46,6Zm23.2-1.18-.11,2.26h0l-.07,0,0,0,0,0-9.82-2.61Zm4.39,5.3-3.24,2.36-.76-4.4Zm2.37.39L123.2,129l3.48-2.53Zm2.27-3.87-4.85-1.09,2.61-1.22,3.61,0Zm1.51-2.58-2-.55,3.19-1.49Zm1.5-2.48h0l-6.31-5.52,7.42-.71,5.75,3.92Zm12.5-1.43L140.26,121,134.33,120Zm.66,0,6.82-.47-8.91,2Zm10.14,3.05,1.22-.44-.72,2-.69-.16ZM189,114.88l.9,1.08h-4.31Zm.36-.12,6.77-2.16,4.68,1.35-10.05,2h-.39ZM213,113.64l1.19,1.32-5.09.8Zm1.61,1.25-1.29-1.42,7.54-4.09,1.36,2.85L215,114.84Zm6.4-5.59,5.89-3.19.11,0,2.83,2.85-2.45,1.45-5,1.8Zm5.54,1.56-3.74,2.21-.35-.74ZM208.8,129.6l6.59-1.35-8.56,8.15-4.36-.49Zm-6.73,6.25h0l-5.82,6.88-4.81,1.79,10.22-11.16.43,2.48Zm-11.37,9.42a.34.34,0,0,0,.12-.08l.34-.38L196,143l-6,7.08-.07,0-1-1.43Zm10.42-4.16,3.34-1.48-6,8.12L198,148l-3.46.9Zm7.45-2.44,1.62,1.94a.6.6,0,0,0-.08.19L199.67,147Zm8.3-6.17,1.51-1,1.54,1.85-8,6Zm73.83-30.61,6.58,1.15-21.6,3.44Zm27.79-7.16.2-.09,8.7,2.22L316,99.28ZM340.83,92l2.06-.25-8.09,2.74Zm3.27-.66-.51.17-1.2-.16,8.19-3.39ZM359,82.61l-.48,1.2-3.92,2Zm.25-.19,1.81-1.33,1.8.46-4.11,2.14Zm4-1.1-.18.09-1.85-.47,4-2.92Zm-5.78-1.38L353,81.15l3.71-2.95.07.07h0l.08.05.05,0,.16,0h.17l.06,0,.11,0,.06,0,.09-.06.06-.06.06-.06h0l0,0,.37-.56,3-1.84Zm-2.06-4.83,3.07-.64-1.44,2.15Zm5-2.52a.6.6,0,0,0-.69.14l-4.71,1,2.31-2.37a.3.3,0,0,0,.13.06.31.31,0,0,0,.27-.1l.48-.49,1.06-.49.39.06h0a.33.33,0,0,0,.35-.23l7.42,1ZM377,63.25l6.25.9-6.9,3.51Zm7.07.45L384,60.11,391.17,59ZM392,58.37l-2-3.34,3.1-.35,1.22,0ZM394.86,54l-5.34-.2-4.42-1.1,10.55.07ZM203.93,3.85l-.92.4.88-1ZM103.29,104.09l-5.6,2.83.1-.73,6.76-4.26ZM76.2,107.47l-5.43-1.12,6.91.32Zm41.58,20.39.74,4.29-1.46,1.06-.74.33Zm1.66,5.76-.11-.65,2.94-1.33Zm52.05-17.37,2.44,3.5-7.43-1ZM216,114.69l6.37-2.29.37.78-.79.59Zm-7.37,11.92-.07,2.77-6.32,6.31-.43-2.49.71-.77a.47.47,0,0,0,.35-.13Zm54.3-24.89,3.23,6.28-13.56,2.16Zm99-27.28L359,76.18l1.4-2.09.68-.14Z"/><ellipse cx="269.55" cy="56.39" rx="2.91" ry="2.57" transform="translate(172.17 313.99) rotate(-81.11)"/><ellipse cx="296.81" cy="57.73" rx="1.41" ry="1.24" transform="translate(193.9 342.04) rotate(-81.11)"/><ellipse cx="286.31" cy="43.44" rx="1.41" ry="1.24" transform="translate(199.15 319.6) rotate(-81.11)"/><ellipse cx="265.92" cy="44.9" rx="1.41" ry="1.24" transform="translate(180.45 300.69) rotate(-81.11)"/><ellipse cx="238.27" cy="40.53" rx="2.91" ry="2.57" transform="translate(161.39 269.67) rotate(-81.11)"/><ellipse cx="306.18" cy="78.99" rx="2.91" ry="2.57" transform="translate(180.81 369.28) rotate(-81.11)"/><ellipse cx="232.32" cy="108.59" rx="2.91" ry="2.57" transform="translate(89.12 321.33) rotate(-81.11)"/><ellipse cx="270.15" cy="94.01" rx="2.91" ry="2.57" transform="translate(135.51 346.38) rotate(-81.11)"/><ellipse cx="153.25" cy="95.86" rx="2.91" ry="2.57" transform="translate(34.86 232.45) rotate(-81.11)"/><ellipse cx="92.21" cy="118.22" rx="2.91" ry="2.57" transform="translate(-38.84 191.05) rotate(-81.11)"/><ellipse cx="68.75" cy="136.55" rx="2.91" ry="2.57" transform="translate(-76.79 183.36) rotate(-81.11)"/><ellipse cx="54.29" cy="110.99" rx="2.91" ry="2.57" transform="translate(-63.75 147.47) rotate(-81.11)"/><ellipse cx="196.33" cy="94.9" rx="2.91" ry="2.57" transform="translate(72.22 274.19) rotate(-81.11)"/><ellipse cx="325.02" cy="40.56" rx="1.41" ry="1.24" transform="translate(234.7 355.4) rotate(-81.11)"/><ellipse cx="308.62" cy="33.84" rx="1.41" ry="1.24" transform="translate(227.47 333.52) rotate(-81.11)"/><ellipse cx="328.46" cy="97.38" rx="1.41" ry="1.24" transform="translate(181.47 406.84) rotate(-81.11)"/><ellipse cx="245.31" cy="34.12" rx="1.41" ry="1.24" transform="translate(173.68 271.21) rotate(-81.11)"/><ellipse cx="280.65" cy="85.24" rx="1.41" ry="1.24" transform="translate(153.05 349.33) rotate(-81.11)"/><ellipse cx="382.59" cy="52.4" rx="1.41" ry="1.24" transform="translate(271.69 422.29) rotate(-81.11)"/><ellipse cx="366.18" cy="41.63" rx="1.41" ry="1.24" transform="translate(268.43 396.98) rotate(-81.1)"/><ellipse cx="327.93" cy="83.77" rx="1.41" ry="1.24" transform="translate(194.47 394.81) rotate(-81.11)"/><ellipse cx="353.52" cy="87.24" rx="1.41" ry="1.24" transform="translate(212.68 423.02) rotate(-81.11)"/><ellipse cx="369.94" cy="71.33" rx="1.41" ry="1.24" transform="translate(242.28 425.79) rotate(-81.11)"/><ellipse cx="298.69" cy="98.5" rx="1.41" ry="1.24" transform="translate(155.2 378.38) rotate(-81.11)"/><ellipse cx="169.65" cy="67.5" rx="1.41" ry="1.24" transform="translate(76.73 224.68) rotate(-81.11)"/><ellipse cx="205.13" cy="82.92" rx="1.41" ry="1.24" transform="translate(91.49 272.76) rotate(-81.11)"/><ellipse cx="238.56" cy="71.93" rx="1.41" ry="1.24" transform="translate(130.62 296.51) rotate(-81.11)"/><ellipse cx="217.82" cy="60.72" rx="1.41" ry="1.24" transform="translate(124.16 266.53) rotate(-81.11)"/><ellipse cx="246.55" cy="96.31" rx="1.41" ry="1.24" transform="translate(113.28 325) rotate(-81.11)"/><ellipse cx="214.18" cy="120.39" rx="1.41" ry="1.24" transform="translate(62.13 313.39) rotate(-81.11)"/><ellipse cx="194.86" cy="55.13" rx="1.41" ry="1.24" transform="translate(110.26 239.12) rotate(-81.11)"/><ellipse cx="204.44" cy="1.41" rx="1.41" ry="1.24" transform="translate(171.46 203.18) rotate(-81.11)"/><ellipse cx="202.19" cy="5.13" rx="1.41" ry="1.24" transform="translate(165.87 204.1) rotate(-81.11)"/><ellipse cx="215.5" cy="15.68" rx="1.41" ry="1.24" transform="translate(166.69 226.17) rotate(-81.11)"/><ellipse cx="215.69" cy="45.27" rx="1.41" ry="1.24" transform="translate(137.63 251.37) rotate(-81.11)"/><ellipse cx="208.47" cy="115.86" rx="1.41" ry="1.24" transform="translate(61.78 303.92) rotate(-81.11)"/><ellipse cx="202.47" cy="131.71" rx="1.41" ry="1.24" transform="translate(41.04 311.39) rotate(-81.11)"/><ellipse cx="210.4" cy="141.45" rx="1.41" ry="1.24" transform="translate(38.13 327.45) rotate(-81.11)"/><ellipse cx="190.57" cy="150.11" rx="1.41" ry="1.24" transform="translate(12.8 315.19) rotate(-81.11)"/><ellipse cx="250.91" cy="110.71" rx="1.41" ry="1.24" transform="translate(102.75 341.49) rotate(-81.11)"/><ellipse cx="152.64" cy="82.86" rx="1.41" ry="1.24" transform="translate(47.18 220.86) rotate(-81.11)"/><ellipse cx="175.01" cy="114" rx="1.41" ry="1.24" transform="translate(35.33 269.28) rotate(-81.11)"/><ellipse cx="190.6" cy="84.32" rx="1.41" ry="1.24" transform="translate(77.83 259.59) rotate(-81.11)"/><ellipse cx="136.92" cy="83.45" rx="1.41" ry="1.24" transform="translate(33.3 205.82) rotate(-81.11)"/><ellipse cx="120.98" cy="89.16" rx="1.41" ry="1.24" transform="translate(14.19 194.91) rotate(-81.11)"/><ellipse cx="115.17" cy="100.93" rx="1.41" ry="1.24" transform="translate(-2.35 199.11) rotate(-81.11)"/><ellipse cx="118.19" cy="126.62" rx="1.41" ry="1.24" transform="translate(-25.18 223.81) rotate(-81.11)"/><ellipse cx="106.92" cy="123.94" rx="1.41" ry="1.24" transform="translate(-32.06 210.42) rotate(-81.11)"/><ellipse cx="137.88" cy="111.09" rx="1.41" ry="1.24" transform="translate(6.81 230.14) rotate(-81.11)"/><ellipse cx="39.96" cy="120.26" rx="1.41" ry="1.24" transform="translate(-85.03 141.15) rotate(-81.11)"/><ellipse cx="1.25" cy="98.54" rx="1.41" ry="1.24" transform="translate(-96.29 84.54) rotate(-81.11)"/><ellipse cx="24.56" cy="97.11" rx="1.41" ry="1.24" transform="translate(-75.18 106.36) rotate(-81.11)"/><ellipse cx="77.83" cy="134.57" rx="1.41" ry="1.24" transform="translate(-67.15 190.66) rotate(-81.11)"/><ellipse cx="78.69" cy="154.02" rx="1.41" ry="1.24" transform="translate(-85.64 207.95) rotate(-81.11)"/><ellipse cx="72.72" cy="174.22" rx="1.41" ry="1.24" transform="translate(-110.65 219.13) rotate(-81.11)"/></g></svg>
