<svg xmlns="http://www.w3.org/2000/svg" xmlns:xlink="http://www.w3.org/1999/xlink" width="14" height="26" viewBox="0 0 14 26"><defs><path id="ttyca" d="M1090 151.875v22.25a1.877 1.877 0 0 1-1.879 1.875h-10.243a1.877 1.877 0 0 1-1.879-1.875v-22.25c0-1.036.842-1.876 1.88-1.876h10.242c1.038 0 1.88.84 1.88 1.876zm-8.421-.603c0 .09.073.163.164.163h2.514a.164.164 0 0 0 0-.327h-2.514a.164.164 0 0 0-.164.164zm-2.604-.296a.262.262 0 1 0 .524 0 .262.262 0 0 0-.524 0zm-1.345 0a.419.419 0 1 0 .838 0 .419.419 0 0 0-.838 0zm6.779 23.321a.752.752 0 0 0-.753-.751h-1.312a.752.752 0 1 0 0 1.502h1.312a.752.752 0 0 0 .753-.75zm4.795-21.25h-12.409v19.906h12.41z"/></defs><g><g transform="translate(-1076 -150)"><use xlink:href="#ttyca"/></g></g></svg>