<svg xmlns="http://www.w3.org/2000/svg" xmlns:xlink="http://www.w3.org/1999/xlink" width="40" height="26" viewBox="0 0 40 26"><defs><path id="2ho4a" d="M898.607 172.364v-21.13c0-.68.545-1.233 1.214-1.233h32.358c.669 0 1.213.553 1.213 1.232v21.13c0 .68-.544 1.233-1.213 1.233H899.82a1.225 1.225 0 0 1-1.214-1.232zm1.04 0c0 .097.078.176.174.176h32.358a.175.175 0 0 0 .173-.176v-21.13a.175.175 0 0 0-.173-.177H899.82a.175.175 0 0 0-.173.176zm36.354 2.176v.986a.47.47 0 0 1-.466.473h-39.07a.47.47 0 0 1-.466-.473v-.986h16.428c.081.275.33.476.627.476h5.892a.656.656 0 0 0 .626-.476z"/></defs><g><g transform="translate(-896 -150)"><use xlink:href="#2ho4a"/></g></g></svg>