<svg xmlns="http://www.w3.org/2000/svg" xmlns:xlink="http://www.w3.org/1999/xlink" width="11" height="12" viewBox="0 0 11 12"><defs><path id="b2dba" d="M391 1385.4v8.4c0 .663-.547 1.2-1.222 1.2h-8.556a1.21 1.21 0 0 1-1.222-1.2l.006-8.4c0-.663.54-1.2 1.216-1.2h.611v-1.2h1.222v1.2h4.89v-1.2h1.222v1.2h.61c.676 0 1.223.537 1.223 1.2zm-1.222 1.8h-8.556v6.6h8.556zm-5.14 5.4l-1.943-1.908.648-.636 1.295 1.272 2.982-2.928.648.636z"/></defs><g><g transform="translate(-380 -1383)"><use fill="#568f0a" xlink:href="#b2dba"/></g></g></svg>