<?xml version="1.0" encoding="utf-8"?>
<!-- Generator: Adobe Illustrator 22.0.0, SVG Export Plug-In . SVG Version: 6.00 Build 0)  -->
<svg version="1.1" id="Layer_1" xmlns="http://www.w3.org/2000/svg" xmlns:xlink="http://www.w3.org/1999/xlink" x="0px" y="0px"
	 viewBox="0 0 111 94" style="enable-background:new 0 0 111 94;" xml:space="preserve">
<style type="text/css">
	.st0{fill:#578F0A;}
</style>
<g>
	<g>
		<path class="st0" d="M86.4,66.3L86.4,66.3L86.4,66.3z M86.1,56.5c-2.2,1.2-4.7,2.9-6.5,5.4c-1.7,2.4-2.5,5.1-2.9,7.4
			c2.2-1.2,4.7-2.9,6.5-5.4l0,0C84.9,61.6,85.7,58.9,86.1,56.5 M72.5,79.3c-0.8,0-1.6-0.2-2.3-0.7c-0.9-0.7-1.5-1.7-1.7-2.8
			c0-0.4-1.1-10.5,4.7-18.5c5.7-7.9,15.9-10.4,16.3-10.5c1.1-0.3,2.3,0,3.2,0.6c0.9,0.7,1.5,1.7,1.7,2.8c0,0.4,1.1,10.5-4.7,18.5
			l0,0C84,76.6,73.8,79.1,73.4,79.2C73.1,79.3,72.8,79.3,72.5,79.3"/>
	</g>
	<g>
		<path class="st0" d="M77.5,37L77.5,37L77.5,37z M73.9,25.3c-2.2,2.1-4.6,5.1-5.8,8.9c-1.1,3.7-0.8,7.6-0.2,10.6
			c2.2-2.1,4.6-5.2,5.8-8.9C74.9,32.1,74.5,28.2,73.9,25.3 M65.9,55.5c-0.4,0-0.8-0.1-1.2-0.2c-1.1-0.3-2-1.1-2.5-2.1
			c-0.2-0.4-5-10.9-1.8-21.3s13-16.5,13.4-16.7c1-0.6,2.1-0.7,3.2-0.4s2,1.1,2.5,2.1c0.2,0.4,5,10.9,1.8,21.3s-13,16.5-13.4,16.7
			C67.4,55.3,66.6,55.5,65.9,55.5"/>
	</g>
	<g>
		<path class="st0" d="M26.5,48.6c2.1,3.7,5.7,8.6,11,11.8c5.4,3.3,11.6,4.3,16,4.6c-2.1-3.7-5.7-8.6-11-11.8
			C37.1,49.9,30.9,48.8,26.5,48.6 M56.2,73.1c-5.2,0-14.6-0.8-22.9-5.9c-12-7.4-16.7-20.7-16.9-21.3c-0.4-1.1-0.3-2.4,0.4-3.4
			c0.6-1,1.7-1.7,2.9-1.8c0.6-0.1,15-1.6,27,5.7c12,7.4,16.7,20.7,16.9,21.3c0.4,1.1,0.3,2.4-0.4,3.4c-0.6,1-1.7,1.7-2.9,1.8
			C60.1,72.9,58.6,73.1,56.2,73.1"/>
	</g>
</g>
</svg>
