
<svg class="menuIcon" version="1.1" id="Layer_1" xmlns="http://www.w3.org/2000/svg" xmlns:xlink="http://www.w3.org/1999/xlink" x="0px" y="0px" width="50" height="50"
	 viewBox="0 0 125.7 123.3" style="enable-background:new 0 0 125.7 123.3;" xml:space="preserve">
<style type="text/css">
	.st0{fill:#FFFFFF;}
</style>
<g class="leaves">
	<g>
		<path class="st0" d="M111.5,92.6L111.5,92.6L111.5,92.6z M111.2,84.6c-1.8,1-3.8,2.4-5.3,4.4c-1.4,1.9-2,4.1-2.4,6
			c1.8-1,3.8-2.4,5.3-4.4l0,0C110.2,88.8,110.9,86.6,111.2,84.6 M100.2,103.1c-0.6,0-1.3-0.2-1.9-0.6c-0.7-0.6-1.2-1.4-1.4-2.3
			c0-0.3-0.9-8.5,3.8-15c4.6-6.4,12.9-8.4,13.2-8.5c0.9-0.2,1.9,0,2.6,0.5c0.7,0.6,1.2,1.4,1.4,2.3c0,0.3,0.9,8.5-3.8,15l0,0
			c-4.6,6.4-12.9,8.4-13.2,8.5C100.7,103.1,100.4,103.1,100.2,103.1"/>
	</g>
	<g>
		<path class="st0" d="M104.2,68.8L104.2,68.8L104.2,68.8z M101.3,59.4c-1.8,1.7-3.7,4.1-4.7,7.2c-0.9,3-0.6,6.2-0.2,8.6
			c1.8-1.7,3.7-4.2,4.7-7.2C102.1,64.9,101.8,61.7,101.3,59.4 M94.8,83.8c-0.3,0-0.6-0.1-1-0.2c-0.9-0.2-1.6-0.9-2-1.7
			c-0.2-0.3-4.1-8.8-1.5-17.3s10.5-13.4,10.9-13.5c0.8-0.5,1.7-0.6,2.6-0.3s1.6,0.9,2,1.7c0.2,0.3,4.1,8.8,1.5,17.3
			S96.8,83.2,96.5,83.3C96.1,83.7,95.4,83.8,94.8,83.8"/>
	</g>
	<g>
		<path class="st0" d="M62.9,78.2c1.7,3,4.6,7,8.9,9.6c4.4,2.7,9.4,3.5,13,3.7c-1.7-3-4.6-7-8.9-9.6C71.5,79.3,66.5,78.4,62.9,78.2
			 M87,98.1c-4.2,0-11.8-0.6-18.6-4.8c-9.7-6-13.5-16.8-13.7-17.3c-0.3-0.9-0.2-1.9,0.3-2.8c0.5-0.8,1.4-1.4,2.4-1.5
			c0.5-0.1,12.2-1.3,21.9,4.6c9.7,6,13.5,16.8,13.7,17.3c0.3,0.9,0.2,1.9-0.3,2.8c-0.5,0.8-1.4,1.4-2.4,1.5
			C90.1,97.9,88.9,98.1,87,98.1"/>
	</g>
</g>
<g class="word">
	<path class="st0 m" d="M7.6,6.5h5.1L21,19.3l8.3-12.8h5.1v27.1h-4.8V14.2L21,26.9h-0.2l-8.5-12.7v19.4H7.6V6.5z"/>
	<path class="st0 e" d="M40,23.4c0-5.9,4.1-10.7,10-10.7c6.5,0,9.8,5.1,9.8,11c0,0.3,0,1.1-0.1,1.3h-15c0.5,3.3,2.9,5.2,5.9,5.2
		c2.3,0,3.9-0.9,5.5-2.4l2.8,2.4c-1.9,2.3-4.6,3.8-8.4,3.8C44.6,34.1,40,29.8,40,23.4z M55.1,21.9c-0.3-3-2.1-5.4-5.2-5.4
		c-2.9,0-4.9,2.2-5.3,5.4H55.1z"/>
	<path class="st0 n" d="M64.9,13.1h4.7v8.3h9v-8.3h4.7v20.5h-4.7v-8.3h-9v8.3h-4.7V13.1z"/>
	<path class="st0 u" d="M97.8,25.3h-3.5v8.3h-4.7V13.1h4.7v8.3h3.5c0.8-4.9,4.6-8.7,10.1-8.7c6.2,0,10.2,4.8,10.2,10.7
		c0,5.8-4.1,10.7-10.3,10.7C102.3,34.1,98.5,30.3,97.8,25.3z M113.4,23.4c0-3.6-2.1-6.6-5.6-6.6c-3.6,0-5.5,2.9-5.5,6.6
		c0,3.6,2.1,6.6,5.6,6.6C111.5,30,113.4,27,113.4,23.4z"/>
</g>
<rect x="7.6" y="50.7" class="st0 top" width="72.4" height="9"/>
<rect x="7.6" y="79.3" class="st0 middle" width="38" height="9"/>
<rect x="7.6" y="107.8" class="st0 bottom" width="110.4" height="9"/>
<rect x="0" y="0" class="st0 cross_1" width="110.4" height="9"/>
<rect x="0" y="0" class="st0 cross_2" width="110.4" height="9"/>
</svg>
