
<svg xmlns="http://www.w3.org/2000/svg" xmlns:xlink="http://www.w3.org/1999/xlink" width="13" height="13">
    <path  d="M1305.197 36.179l-1.987-1.992c-.395-.395-1-.434-1.345-.087l-.847.848a40.223 40.223 0 0 1-.19-.117c-.61-.373-1.446-.884-2.356-1.797-.913-.915-1.424-1.754-1.797-2.366l-.114-.187.568-.569.28-.28c.345-.348.305-.953-.09-1.35l-1.987-1.991c-.395-.396-.999-.436-1.345-.088l-.473.478.015.015a2.45 2.45 0 0 0-.363.718 2.826 2.826 0 0 0-.125.748c-.074 1.99.998 3.907 3.695 6.61 3.728 3.738 6.479 3.71 6.597 3.707.258-.01.502-.05.748-.129a2.39 2.39 0 0 0 .712-.362l.013.011.48-.47c.346-.347.306-.953-.09-1.35z" fill="#fff" transform="translate(-1293 -26)" />
</svg>