<svg xmlns="http://www.w3.org/2000/svg" xmlns:xlink="http://www.w3.org/1999/xlink" width="13" height="13" viewBox="0 0 13 13"><defs><path id="sand-clock" d="M381.775 494.257c-.559-.588-.978-1.226-1.244-1.895a.268.268 0 0 1 .042-.268.348.348 0 0 1 .273-.125h3.307c.108 0 .21.046.272.125a.268.268 0 0 1 .042.268c-.266.67-.685 1.307-1.244 1.895-.252.265-.39.6-.39.947 0 .162-.15.294-.334.294-.183 0-.333-.131-.333-.294 0-.346-.139-.682-.39-.947zm1.867 3.32c1.115.73 1.95 1.523 2.48 2.357a.266.266 0 0 1-.003.294.342.342 0 0 1-.287.147h-6.664a.342.342 0 0 1-.288-.147.265.265 0 0 1-.003-.294c.531-.834 1.366-1.627 2.48-2.356.522-.342.809-.764.81-1.19 0-.163.149-.296.332-.296.184 0 .334.132.334.296 0 .426.287.848.809 1.19zm5.355 3.832c0 .326-.298.59-.666.59h-11.663c-.368 0-.666-.264-.666-.59 0-.327.298-.591.666-.591h.2c.229-2.3 1.747-4.064 2.928-5.318-1.181-1.253-2.7-3.019-2.928-5.318h-.2c-.368 0-.666-.265-.666-.591 0-.326.298-.591.666-.591h11.663c.368 0 .666.264.666.59 0 .327-.298.592-.666.592h-.2c-.229 2.299-1.747 4.064-2.928 5.318 1.18 1.254 2.699 3.019 2.928 5.318h.2c.368 0 .666.264.666.59zm-2.201-.59c-.25-2.078-1.774-3.678-2.912-4.874l-.061-.064a.54.54 0 0 1 0-.762l.06-.063c1.138-1.196 2.662-2.796 2.913-4.874h-8.593c.25 2.078 1.775 3.678 2.913 4.874l.06.063a.54.54 0 0 1 0 .762l-.06.064c-1.139 1.196-2.662 2.796-2.913 4.873z"/></defs><g><g transform="translate(-376 -489)"><use fill="#568f0a" xlink:href="#sand-clock"/></g></g></svg>