<svg xmlns="http://www.w3.org/2000/svg" xmlns:xlink="http://www.w3.org/1999/xlink" width="11" height="18">
	<defs>
		<path id="web-camera" d="M509.097 138.773v1.758c1.41.25 2.484 1.473 2.484 2.94V144h-8.162v-.527c0-1.468 1.074-2.69 2.484-2.94v-1.76c-2.256-.679-3.903-2.76-3.903-5.214v-2.11c0-3.004 2.467-5.449 5.5-5.449s5.5 2.445 5.5 5.45v2.109c0 2.454-1.647 4.535-3.903 5.215zm-1.065.234h-1.064v1.476h1.064zm0-2.285a.53.53 0 0 0-.532-.527.53.53 0 0 0-.532.527.53.53 0 0 0 .532.527.53.53 0 0 0 .532-.527zm3.194-4.922c0-2.035-1.672-3.692-3.726-3.692-2.055 0-3.726 1.657-3.726 3.692 0 2.036 1.671 3.692 3.726 3.692 2.054 0 3.726-1.656 3.726-3.692zm-1.065 0c0 1.454-1.194 2.637-2.661 2.637-1.468 0-2.661-1.183-2.661-2.637s1.193-2.637 2.66-2.637c1.468 0 2.662 1.183 2.662 2.637zm-2.129 0a.53.53 0 0 0-.532-.527.53.53 0 0 0-.532.527.53.53 0 0 0 .532.528.53.53 0 0 0 .532-.528zm1.526 0a2.05 2.05 0 0 0-2.058-2.038v1.054a.99.99 0 0 1 .993.984z"/>
	</defs>
	<use fill="#fff" xlink:href="#web-camera" transform="translate(-502 -126)"/>
</svg>