<svg xmlns="http://www.w3.org/2000/svg" xmlns:xlink="http://www.w3.org/1999/xlink" width="19" height="16" viewBox="0 0 19 16"><defs><path id="mkmma" d="M55.044 1057.518a1.41 1.41 0 0 1 1.011-.426H45.868c.394.006.731.148 1.011.426.286.284.428.627.428 1.03 0 .4-.142.744-.428 1.028-.285.284-.63.426-1.033.426-.404 0-.748-.142-1.034-.426a1.398 1.398 0 0 1-.428-1.029 1.4 1.4 0 0 1 .428-1.029 1.41 1.41 0 0 1 1.011-.426h-.708a.706.706 0 0 1-.514-.216.698.698 0 0 1-.217-.511c0-.106.042-.256.126-.45.083-.193.196-.418.336-.676.141-.257.22-.401.234-.432l-2.02-9.354h-2.33a.704.704 0 0 1-.514-.216.698.698 0 0 1-.217-.512c0-.197.073-.367.217-.511a.705.705 0 0 1 .514-.216h2.923a.728.728 0 0 1 .554.25.905.905 0 0 1 .149.279c.042.117.07.217.085.3l.063.336c.027.14.044.237.052.29H58.27c.198 0 .369.072.514.216a.7.7 0 0 1 .217.511v5.82c0 .182-.061.343-.183.483a.71.71 0 0 1-.468.245l-11.922 1.386c.008.053.025.135.051.244.027.11.05.211.069.302.019.09.029.174.029.25 0 .121-.092.364-.275.727h10.506c.198 0 .37.072.514.216a.697.697 0 0 1 .217.512.698.698 0 0 1-.217.511.706.706 0 0 1-.514.216H56.1c.393.006.73.148 1.01.426.286.284.429.627.429 1.03 0 .4-.143.744-.428 1.028-.286.284-.63.426-1.034.426-.403 0-.748-.142-1.033-.426a1.4 1.4 0 0 1-.428-1.029 1.4 1.4 0 0 1 .428-1.029z"/></defs><g><g transform="translate(-40 -1044)"><use fill="#689a23" xlink:href="#mkmma"/></g></g></svg>