<svg xmlns="http://www.w3.org/2000/svg" xmlns:xlink="http://www.w3.org/1999/xlink" width="20" height="29" viewBox="0 0 20 29"><defs><path id="w41ia" d="M380.09 486.443a10.283 10.283 0 0 1-.085-1.266c0-5.62 4.477-10.175 10.001-10.175 5.523 0 10 4.555 10 10.175 0 .423-.033.839-.083 1.248-.833 7.95-9.125 17.125-9.125 17.125-.15.17-.295.279-.433.355l-.008.003-.28.089-.28-.089-.007-.003a1.582 1.582 0 0 1-.433-.355s-8.412-9.16-9.267-17.107zm3.483-1.266c0 3.608 2.887 6.545 6.433 6.545 3.547 0 6.432-2.937 6.432-6.545s-2.885-6.545-6.432-6.545c-3.546 0-6.433 2.937-6.433 6.545z"/></defs><g><g transform="translate(-380 -475)"><use fill="#568f0a" xlink:href="#w41ia"/></g></g></svg>