<svg xmlns="http://www.w3.org/2000/svg" xmlns:xlink="http://www.w3.org/1999/xlink" width="16" height="16" viewBox="0 0 16 16"><defs><path id="lfgta" d="M57 1012.569l-2.274 10.31L52.41 1024l-9.726-1.53L41 1012.241l2.72-.217c.058-2.083 1.71-3.787 3.81-4.001V1008h.427v.03a3.598 3.598 0 0 1 1.683.674c1.305.258 2.374 1.283 2.78 2.627l3.317-.264zm-6.565-3.099c.426.548.724 1.217.843 1.953l.673-.054c-.27-.823-.818-1.501-1.516-1.899zm-1.238-.377c-1.618.098-2.946 1.25-3.264 2.755l4.885-.389c-.162-.96-.664-1.791-1.362-2.336a2.845 2.845 0 0 0-.26-.03zm-5.018 2.895l1.28-.102c.284-1.624 1.606-2.91 3.277-3.19a3.067 3.067 0 0 0-1-.241c-1.934.116-3.48 1.644-3.557 3.533zm11.512-.545l-.186-.046-3.137 11.967.186.046z"/></defs><g><g transform="translate(-41 -1008)"><use fill="#689a23" xlink:href="#lfgta"/></g></g></svg>