<svg xmlns="http://www.w3.org/2000/svg" xmlns:xlink="http://www.w3.org/1999/xlink" width="44" height="18" viewBox="0 0 44 18"><defs><path id="ob0ya" d="M814 494.441a.918.918 0 0 1-.924.912h-.91a.92.92 0 0 1-.927.911h-3.14a4.634 4.634 0 0 1-4.238 2.736 4.634 4.634 0 0 1-4.239-2.736H781.96a4.64 4.64 0 0 1-4.24 2.736 4.635 4.635 0 0 1-4.24-2.736h-1.165a.92.92 0 0 1-.919-.814c0-.011-.005-.049-.009-.098h-.462a.919.919 0 0 1-.925-.912c0-.503.414-.911.925-.911h.579a8.811 8.811 0 0 1 2.155-4.436c2.768-3.071 8.54-3.461 10.723-3.495 1.495-2.96 2.049-3.282 2.236-3.392 1.39-.811 4.06-1.206 8.16-1.206 6.328 0 11.362 2.747 15.37 7.865.858 1.094 1.398 3.156 1.7 4.665h1.228c.51 0 .924.407.924.911zm-33.5 0c0-1.509-1.247-2.736-2.78-2.736-1.533 0-2.778 1.227-2.778 2.736 0 1.51 1.246 2.736 2.778 2.736 1.533 0 2.78-1.226 2.78-2.736zm13.64-7.87l-.002-2.767a.46.46 0 0 0-.45-.456 26.625 26.625 0 0 0-.483-.005c-2.944 0-4.909.29-5.889.904-.294.247-.909 1.438-1.248 2.125a.444.444 0 0 0 .023.44.466.466 0 0 0 .391.216h7.194a.459.459 0 0 0 .463-.457zm1.389.457h6.379c.171 0 .33-.093.409-.241a.45.45 0 0 0-.022-.468c-.944-1.4-3.45-2.462-6.71-2.84a.46.46 0 0 0-.518.454v2.638a.46.46 0 0 0 .462.457zm11.111 7.413c0-1.509-1.246-2.736-2.779-2.736-1.532 0-2.778 1.227-2.778 2.736 0 1.51 1.247 2.736 2.778 2.736 1.532 0 2.78-1.226 2.78-2.736z"/></defs><g><g transform="translate(-770 -481)"><use fill="#568f0a" xlink:href="#ob0ya"/></g></g></svg>