<svg class="active" viewBox="0 0 246.188 145.726" xmlns="http://www.w3.org/2000/svg"><path d="m140.298 0v6.964h-8.192v-6.964h-7.578v6.964h-7.578v-6.964h-7.476v6.964h-7.476v-6.964h-13.21v64.926c27.854 9.627 38.71-10.343 64.823 0v-64.926zm103.125 103.944-4.813-2.253-1.741 5.018-1.741-5.018-4.813 2.253 2.253-4.813-5.018-1.741 5.018-1.741-2.253-4.813 4.813 2.253 1.74-5.018 1.742 5.018 4.813-2.253-2.253 4.813 5.018 1.74-5.018 1.742zm-227.55 0-4.813-2.253-1.74 5.018-1.742-5.018-4.813 2.253 2.253-4.813-5.018-1.741 5.018-1.741-2.253-4.813 4.813 2.253 1.742-5.019 1.741 5.018 4.813-2.253-2.253 4.813 5.018 1.74-5.018 1.742 2.253 4.813z"/><g fill="#fff"><path d="m127.088 52.33a1.607 1.607 0 0 0 2.253 0 1.89 1.89 0 0 0 .512-1.229l.307.308c2.663-.82 5.325-1.23 7.578-.717l.205-.205c-.307.614-.205 1.434.41 2.048a1.793 1.793 0 0 0 2.56 0 1.793 1.793 0 0 0 0-2.56c-.512-.512-1.331-.615-1.946-.41.103-.102.205-.102.307-.205-.512-2.15-.204-4.813.615-7.475l-.307-.307c.41 0 .819-.103 1.126-.513a1.607 1.607 0 0 0 0-2.253 1.607 1.607 0 0 0 -2.253 0c-.307.308-.512.717-.512 1.127l-.307-.307c-2.663.819-5.12.921-7.271.41h-.205c.205 0 .307-.103.41-.205.307-.308.307-.82 0-1.025-.307-.204-.82-.307-1.024 0a.782.782 0 0 0 -.205.513l-15.77-15.669.204-.717 2.765-.717 1.024-1.024-2.048-2.048-1.127 1.127-.819-.82 1.127-1.126-1.434-1.434-1.127 1.127-.614-.615 1.126-1.126-1.74-1.741-.717.717-.615 3.174-1.126.205-.717-.717-1.536 1.536 21.505 21.404c-.204 0-.307.102-.512.204-.307.308-.307.82 0 1.025.308.307.82.307 1.024 0a.782.782 0 0 0 .205-.512l.103.204c.512 2.15.41 4.609-.41 7.271.102.103.205.205.41.307-.41 0-.922.103-1.23.513-.819.819-.819 1.843-.204 2.457zm-17.102-32.156 1.536-.102.307 2.048zm20.686 28.88c.103-.308.205-.513.307-.615.103-.103.103-.205.103-.307.717-1.741.614-2.97.307-4.711 1.843.205 2.97.307 4.71-.41.103 0 .206-.102.308-.102.102-.103.307-.205.614-.307-1.126 2.355-1.126 3.584-.819 5.632-1.946-.307-3.277-.307-5.53.82z"/><path d="m115.311 50.077a1.89 1.89 0 0 0 -1.229-.512c.103-.102.205-.205.41-.307-.82-2.663-.922-5.12-.41-7.27l.103-.206c0 .205.102.41.204.512.308.308.82.308 1.024 0 .308-.307.308-.819 0-1.024a.782.782 0 0 0 -.512-.205l21.506-21.403-1.536-1.536-.717.717-1.126-.205-.615-3.174-.717-.717-1.74 1.74 1.126 1.127-.615.615-1.126-1.127-1.434 1.434 1.127 1.126-.82.82-1.126-1.127-2.048 2.048 1.024 1.024 2.765.717.205.717-15.771 15.464c0-.205-.103-.308-.205-.513-.307-.307-.82-.307-1.024 0-.307.308-.307.82 0 1.025.102.102.307.204.41.204h-.205c-2.15.512-4.609.41-7.271-.41l-.307.308c0-.41-.103-.82-.512-1.127a1.607 1.607 0 0 0 -2.253 0 1.607 1.607 0 0 0 0 2.253c.307.308.716.513 1.126.513l-.307.307c.82 2.662 1.126 5.223.614 7.475.103.103.205.205.308.205-.615-.307-1.434-.102-1.946.41a1.793 1.793 0 0 0 0 2.56 1.793 1.793 0 0 0 2.56 0c.512-.512.717-1.331.41-2.048l.204.205c2.151-.512 4.916-.103 7.579.717l.307-.308c0 .41.102.922.512 1.23a1.607 1.607 0 0 0 2.253 0c.41-.615.41-1.64-.205-2.254zm15.259-27.957.307-2.048 1.536.102zm-24.476 26.114c.308-2.15.308-3.38-.819-5.632.307.102.512.204.615.307.102.102.204.102.307.102 1.74.717 2.97.615 4.71.41-.307 1.74-.307 2.97.308 4.71 0 .103.102.205.102.308.103.102.205.307.307.614-2.15-1.126-3.38-1.126-5.53-.819z"/></g><path d="m39.222 114.39h-14.644v-33.59h13.108c2.253 0 4.199.307 5.837.819 1.639.512 2.868 1.331 3.687 2.253 1.536 1.74 2.355 3.687 2.355 5.837 0 2.663-.819 4.608-2.457 5.837-.615.41-1.025.717-1.23.82-.204.102-.614.307-1.228.512 2.048.41 3.789 1.433 5.018 2.765 1.229 1.433 1.843 3.174 1.843 5.325 0 2.355-.82 4.403-2.355 6.247-2.15 2.15-5.326 3.174-9.934 3.174zm-9.012-19.664h7.169c4.096 0 6.144-1.434 6.144-4.199 0-1.638-.512-2.765-1.536-3.481-1.024-.717-2.56-1.025-4.608-1.025h-7.271v8.705zm0 14.44h8.91c2.048 0 3.686-.308 4.813-1.025 1.126-.614 1.638-1.945 1.638-3.686 0-2.97-2.355-4.506-7.168-4.506h-8.193zm53.15-17.409c0 5.53-2.458 9.012-7.271 10.446l8.807 12.186h-7.169l-7.987-11.264h-7.476v11.264h-5.634v-33.589h12.494c5.12 0 8.807.82 10.958 2.56 2.15 1.742 3.277 4.507 3.277 8.398zm-7.578 4.711c1.126-1.024 1.74-2.56 1.74-4.813 0-2.15-.614-3.687-1.74-4.506-1.23-.82-3.277-1.229-6.35-1.229h-7.168v11.982h6.964c3.277.102 5.427-.41 6.554-1.434zm14.746-15.668h5.633v33.59h-5.633zm24.271 4.403c-1.639 0-2.97.307-4.096 1.024-1.024.717-1.536 1.741-1.536 3.072 0 1.332.512 2.356 1.536 3.175 1.024.717 3.277 1.536 6.759 2.355 3.481.82 6.042 2.049 7.783 3.482 1.74 1.536 2.662 3.687 2.662 6.657s-1.126 5.325-3.277 7.168c-2.253 1.844-5.12 2.765-8.705 2.765-5.222 0-9.933-1.843-14.03-5.427l3.585-4.301c3.38 2.97 6.964 4.403 10.548 4.403 1.843 0 3.277-.41 4.301-1.126 1.024-.82 1.639-1.844 1.639-3.175s-.513-2.355-1.537-3.072-2.765-1.331-5.222-1.946c-2.458-.614-4.302-1.126-5.633-1.638s-2.458-1.127-3.38-1.946c-1.945-1.536-2.97-3.79-2.97-6.964 0-3.072 1.127-5.53 3.38-7.168 2.253-1.639 5.018-2.56 8.398-2.56 2.15 0 4.3.307 6.35 1.023 2.15.717 3.89 1.741 5.427 2.97l-3.073 4.301c-1.024-.921-2.355-1.638-3.993-2.253-1.639-.512-3.278-.819-4.916-.819zm32.771.819v28.367h-5.633v-28.367h-10.24v-5.222h26.01v5.222zm42.499 23.759c-3.38 3.277-7.579 5.018-12.597 5.018s-9.216-1.639-12.596-5.018c-3.38-3.38-5.12-7.476-5.12-12.391 0-4.916 1.74-9.115 5.12-12.392s7.578-5.018 12.596-5.018 9.217 1.639 12.597 5.018c3.38 3.277 5.12 7.476 5.12 12.392 0 4.915-1.74 9.114-5.12 12.391zm-4.097-20.994c-2.253-2.355-5.12-3.584-8.397-3.584-3.38 0-6.145 1.23-8.398 3.584-2.253 2.356-3.481 5.223-3.481 8.603s1.126 6.247 3.481 8.602c2.253 2.355 5.12 3.584 8.398 3.584 3.38 0 6.144-1.229 8.397-3.584s3.482-5.223 3.482-8.602c-.102-3.38-1.229-6.247-3.482-8.603zm14.44 25.603v-33.59h5.632v28.162h15.361v5.427h-20.993z"/><path d="m40.758 145.624c-4.096 0-7.476-3.38-7.476-7.476s3.38-7.476 7.476-7.476c0 0 2.253-.102 4.301 1.434v2.048s-1.536-1.946-4.3-1.946c-3.278 0-5.838 2.765-5.838 6.042s2.56 6.042 5.837 6.042c2.663 0 4.097-1.74 4.301-1.945v2.048c-2.15 1.331-4.3 1.229-4.3 1.229zm7.066-7.374c0-4.096 3.38-7.475 7.476-7.475s7.476 3.379 7.476 7.475c0 4.097-3.38 7.476-7.476 7.476-4.096-.102-7.476-3.38-7.476-7.476zm13.313 0c0-3.277-2.56-6.042-5.837-6.042s-5.837 2.765-5.837 6.042 2.56 6.042 5.837 6.042 5.837-2.765 5.837-6.042zm18.024-7.373 2.868 14.44h-1.537l-1.843-10.139-4.915 9.729-4.814-9.729-1.945 10.138h-1.537l2.868-14.439 5.428 10.548zm13.62 6.759-.512 1.434h-5.427v6.349h-1.536v-14.235h8.704l-.512 1.434h-6.656v5.12h5.94zm3.175.614c0-4.096 3.38-7.475 7.476-7.475s7.475 3.379 7.475 7.475c0 4.097-3.379 7.476-7.475 7.476-4.097-.102-7.476-3.38-7.476-7.476zm13.313 0c0-3.277-2.56-6.042-5.837-6.042s-5.838 2.765-5.838 6.042 2.56 6.042 5.838 6.042c3.277 0 5.837-2.765 5.837-6.042zm14.235-3.174c0 2.457-1.332 3.38-3.073 3.789l3.892 5.735-1.229 1.024-4.301-6.452h-2.97v6.247h-1.536v-14.337h4.199c2.662 0 5.018.82 5.018 3.994zm-7.68 2.56h2.662c1.945 0 3.482-.615 3.482-2.56 0-2.048-1.537-2.56-3.482-2.56h-2.663v5.12zm16.691-5.121v12.801h-1.536v-12.8h-4.915l.512-1.434h10.855l-.512 1.433zm22.837-1.126 1.537-.512v14.44h-1.537v-6.35h-8.397v6.35h-1.536v-13.928l1.536-.512v6.656h8.397zm4.916 6.861c0-4.096 3.38-7.475 7.476-7.475s7.475 3.379 7.475 7.475c0 4.097-3.379 7.476-7.475 7.476-4.199-.102-7.476-3.38-7.476-7.476zm13.21 0c0-3.277-2.56-6.042-5.837-6.042s-5.837 2.765-5.837 6.042 2.56 6.042 5.837 6.042 5.838-2.765 5.838-6.042zm5.019-6.861 1.536-.512v8.602c0 2.048.512 4.813 3.994 4.813 3.481 0 3.891-2.765 3.891-4.813v-8.09l1.536-.512v8.602c0 3.277-.922 6.247-5.427 6.247-4.506 0-5.633-2.97-5.53-6.247zm19.253 5.837c1.843.615 4.608 1.536 4.608 4.199 0 2.765-1.741 4.199-5.223 4.199-2.048 0-3.687-.82-4.506-1.536v-1.741c.921.819 3.072 1.843 4.506 1.843 2.56 0 3.584-1.127 3.584-2.663s-2.048-2.15-3.79-2.765c-1.638-.512-4.3-1.536-4.3-3.994 0-2.867 2.355-3.891 4.506-3.891 2.048 0 3.38.717 4.096 1.331v1.741c-.614-.717-2.15-1.536-4.096-1.536-1.844 0-2.868.717-2.868 2.355.103 1.23 1.844 1.844 3.482 2.458zm16.59 6.759-.513 1.434h-8.192v-14.337h8.704l-.512 1.433h-6.656v5.12h5.94l-.513 1.435h-5.427v5.018h7.168z"/></svg>