<svg class="active" enable-background="new 0 0 841.9 595.3" viewBox="0 0 615.98497 159.52767" xmlns="http://www.w3.org/2000/svg"><g transform="matrix(1.4002841 0 0 1.4002841 -281.87719 -376.39637)"><g fill="#ed1c24"><path d="m265.6 320.4c-1.3 2.5-2.9 4.9-4.8 7-1.8 2.1-4 3.9-6.4 5.4-2.5 1.5-5.3 2.7-8.4 3.6s-6.6 1.3-10.4 1.3c-5 0-9.6-.8-13.8-2.5s-7.8-4.1-10.9-7.1c-3.1-3.1-5.4-6.7-7.1-10.9s-2.5-8.8-2.5-13.8c0-5.1.8-9.7 2.5-14 1.7-4.2 4.1-7.9 7.1-10.9 3.1-3.1 6.7-5.4 10.9-7.1s8.8-2.5 13.8-2.5c7.3 0 13.1 1.3 17.7 3.8 4.5 2.5 8.1 6.2 10.8 11l-14.4 13.3c-2.7-6.3-7.3-9.4-13.5-9.4-2.3 0-4.3.4-6.1 1.2s-3.4 1.9-4.7 3.3-2.4 3.1-3.1 5-1.1 4-1.1 6.3.4 4.3 1.1 6.2 1.7 3.6 3 5 2.9 2.5 4.7 3.3 3.9 1.2 6.1 1.2c3.9 0 7-.9 9.3-2.7s4-4 5.1-6.7zm-50.1-17.3c0-1.2-.4-2.2-1.2-2.9s-1.8-1.1-2.9-1.1c-1.2 0-2.2.4-2.9 1.1s-1.1 1.7-1.1 2.9c0 1.1.4 2.1 1.1 2.9s1.7 1.2 2.9 1.2c1.1 0 2.1-.4 2.9-1.2s1.2-1.8 1.2-2.9zm1.6-9.2c0-1.2-.4-2.2-1.2-3s-1.8-1.2-2.9-1.2-2.1.4-2.9 1.2-1.2 1.8-1.2 3c0 1.1.4 2 1.2 2.8s1.7 1.2 2.8 1.2 2.1-.4 2.9-1.2c.9-.7 1.3-1.7 1.3-2.8zm0 18.8c0-1.2-.4-2.2-1.2-3s-1.8-1.2-2.9-1.2-2.1.4-2.9 1.2-1.2 1.8-1.2 3c0 1.1.4 2 1.2 2.9.8.8 1.7 1.3 2.8 1.3s2.1-.4 2.9-1.2c.9-.9 1.3-1.8 1.3-3zm5.2-26.6c0-1.1-.4-2.1-1.2-2.9s-1.8-1.2-2.9-1.2-2.1.4-2.9 1.2-1.2 1.8-1.2 2.9.4 2.1 1.2 2.9 1.8 1.2 2.9 1.2 2-.4 2.9-1.2c.7-.8 1.2-1.8 1.2-2.9zm-3.9 38.8c1.1 0 2-.4 2.8-1.3.8-.8 1.2-1.8 1.2-2.9s-.4-2.1-1.2-2.9-1.7-1.2-2.9-1.2c-1.1 0-2.1.4-2.9 1.2s-1.2 1.7-1.2 2.9c0 1.1.4 2.1 1.2 2.9.9.9 1.8 1.3 3 1.3zm11.6-44.6c0-1.1-.4-2.1-1.2-2.9s-1.8-1.2-2.9-1.2c-1.2 0-2.2.4-2.9 1.2s-1.1 1.7-1.1 2.9c0 1.1.4 2.1 1.1 2.9s1.7 1.2 2.9 1.2c1.1 0 2-.4 2.9-1.3.8-.8 1.2-1.8 1.2-2.8zm.2 46c0-1.1-.4-2.1-1.2-2.9s-1.8-1.2-2.9-1.2c-1.2 0-2.2.4-3 1.2s-1.2 1.8-1.2 2.9.4 2.1 1.2 2.9 1.8 1.2 3 1.2c1.1 0 2-.4 2.9-1.2.8-.9 1.2-1.8 1.2-2.9zm9.3-48.4c0-1.1-.4-2.1-1.2-2.9s-1.8-1.2-3-1.2c-1.1 0-2 .4-2.9 1.2-.8.8-1.3 1.7-1.3 2.8 0 1.2.4 2.2 1.2 3s1.8 1.2 2.9 1.2c1.2 0 2.2-.4 3-1.2.9-.7 1.3-1.7 1.3-2.9zm0 50.6c0-1.1-.4-2.1-1.2-2.9s-1.8-1.2-3-1.2c-1.1 0-2.1.4-2.9 1.2s-1.2 1.7-1.2 2.9c0 1.1.4 2.1 1.2 2.9s1.8 1.2 2.9 1.2c1.2 0 2.2-.4 3-1.2s1.2-1.8 1.2-2.9zm9.5-48.8c0-1.1-.4-2.1-1.2-2.9s-1.8-1.2-3-1.2c-1.1 0-2.1.4-2.9 1.2s-1.2 1.7-1.2 2.9c0 1.1.4 2.1 1.2 2.9s1.8 1.2 2.9 1.2 2.1-.4 2.9-1.3c.9-.7 1.3-1.7 1.3-2.8zm-3.9 51c1.1 0 2.1-.4 2.9-1.2s1.2-1.8 1.2-2.9-.4-2.1-1.1-2.9-1.7-1.2-2.9-1.2c-1.1 0-2.1.4-2.9 1.2s-1.2 1.8-1.2 2.9.4 2.1 1.2 2.9c.7.8 1.7 1.2 2.8 1.2zm12-45.6c0-1.1-.4-2.1-1.2-2.9s-1.8-1.2-2.9-1.2-2.1.4-2.9 1.2-1.2 1.7-1.2 2.9c0 1.1.4 2.1 1.2 2.9s1.7 1.2 2.9 1.2c1.1 0 2.1-.4 2.9-1.2.7-.8 1.2-1.7 1.2-2.9zm.3 35.9c0-1.1-.4-2.1-1.2-2.9s-1.8-1.2-2.9-1.2-2.1.4-2.9 1.2-1.2 1.8-1.2 2.9.4 2.1 1.2 2.9 1.8 1.2 2.9 1.2 2-.4 2.9-1.3c.7-.8 1.2-1.8 1.2-2.8z"/><path d="m306 336.5v-25.1h-15v25.1h-20.6v-66.5h20.6v24.1h15v-24.1h20.6v66.5zm-21.4-58c0-1.1-.4-2.1-1.2-2.9s-1.7-1.2-2.9-1.2c-1.1 0-2.1.4-2.9 1.2s-1.2 1.8-1.2 2.9.4 2.1 1.2 2.9 1.8 1.2 2.9 1.2 2.1-.4 2.9-1.2c.9-.8 1.2-1.8 1.2-2.9zm-4 13.8c1.1 0 2.1-.4 2.9-1.2s1.2-1.8 1.2-3c0-1.1-.4-2.1-1.2-2.9s-1.7-1.2-2.9-1.2c-1.1 0-2.1.4-2.9 1.2s-1.2 1.8-1.2 2.9c0 1.2.4 2.2 1.2 3s1.8 1.2 2.9 1.2zm0 9.9c1.1 0 2.1-.4 2.9-1.2s1.2-1.8 1.2-2.9c0-1.2-.4-2.2-1.2-2.9s-1.7-1.1-2.9-1.1c-1.1 0-2.1.4-2.9 1.1s-1.2 1.7-1.2 2.9c0 1.1.4 2.1 1.2 2.9s1.8 1.2 2.9 1.2zm4 5.7c0-1.1-.4-2.1-1.2-2.9s-1.7-1.2-2.9-1.2c-1.1 0-2.1.4-2.9 1.2s-1.2 1.8-1.2 2.9.4 2.1 1.2 2.9 1.8 1.2 2.9 1.2 2.1-.4 2.9-1.2c.9-.9 1.2-1.8 1.2-2.9zm-4 13.8c1.1 0 2.1-.4 2.9-1.2s1.2-1.8 1.2-3c0-1.1-.4-2.1-1.2-2.9s-1.7-1.2-2.9-1.2c-1.1 0-2.1.4-2.9 1.2s-1.2 1.8-1.2 2.9c0 1.2.4 2.2 1.2 3s1.8 1.2 2.9 1.2zm0 9.8c1.1 0 2.1-.4 2.9-1.2s1.2-1.8 1.2-2.9-.4-2.1-1.2-2.9-1.7-1.2-2.9-1.2c-1.1 0-2.1.4-2.9 1.2s-1.2 1.7-1.2 2.9c0 1.1.4 2.1 1.2 2.9s1.8 1.2 2.9 1.2zm8.8-24.8c1.1 0 2.1-.4 2.9-1.2s1.2-1.8 1.2-3c0-1.1-.4-2.1-1.2-2.9s-1.7-1.2-2.9-1.2-2.2.4-3 1.2-1.2 1.8-1.2 2.9c0 1.2.4 2.2 1.2 3s1.8 1.2 3 1.2zm13.4-4.1c0-1.1-.4-2.1-1.2-2.9s-1.8-1.2-2.9-1.2-2.1.4-2.9 1.2-1.2 1.8-1.2 2.9c0 1.2.4 2.2 1.2 3s1.8 1.2 2.9 1.2 2.1-.4 2.9-1.2 1.2-1.8 1.2-3zm5.4 4.1c1.2 0 2.2-.4 2.9-1.2s1.1-1.8 1.1-3c0-1.1-.4-2.1-1.1-2.9s-1.7-1.2-2.9-1.2c-1.1 0-2.1.4-2.9 1.2s-1.2 1.8-1.2 2.9c0 1.2.4 2.2 1.2 3s1.8 1.2 2.9 1.2zm12.4-28.2c0-1.1-.4-2.1-1.2-2.9s-1.7-1.2-2.9-1.2c-1.1 0-2.1.4-2.9 1.2s-1.2 1.8-1.2 2.9.4 2.1 1.2 2.9 1.8 1.2 2.9 1.2 2.1-.4 2.9-1.2 1.2-1.8 1.2-2.9zm-4 13.8c1.1 0 2.1-.4 2.9-1.2s1.2-1.8 1.2-3c0-1.1-.4-2.1-1.2-2.9s-1.7-1.2-2.9-1.2c-1.1 0-2.1.4-2.9 1.2s-1.2 1.8-1.2 2.9c0 1.2.4 2.2 1.2 3s1.7 1.2 2.9 1.2zm0 9.9c1.1 0 2.1-.4 2.9-1.2s1.2-1.8 1.2-2.9c0-1.2-.4-2.2-1.2-2.9s-1.7-1.1-2.9-1.1c-1.1 0-2.1.4-2.9 1.1s-1.2 1.7-1.2 2.9c0 1.1.4 2.1 1.2 2.9s1.7 1.2 2.9 1.2zm4 5.7c0-1.1-.4-2.1-1.2-2.9s-1.7-1.2-2.9-1.2c-1.1 0-2.1.4-2.9 1.2s-1.2 1.8-1.2 2.9.4 2.1 1.2 2.9 1.8 1.2 2.9 1.2 2.1-.4 2.9-1.2c.8-.9 1.2-1.8 1.2-2.9zm-4 13.8c1.1 0 2.1-.4 2.9-1.2s1.2-1.8 1.2-3c0-1.1-.4-2.1-1.2-2.9s-1.7-1.2-2.9-1.2c-1.1 0-2.1.4-2.9 1.2s-1.2 1.8-1.2 2.9c0 1.2.4 2.2 1.2 3s1.7 1.2 2.9 1.2zm0 9.8c1.1 0 2.1-.4 2.9-1.2s1.2-1.8 1.2-2.9-.4-2.1-1.2-2.9-1.7-1.2-2.9-1.2c-1.1 0-2.1.4-2.9 1.2s-1.2 1.7-1.2 2.9c0 1.1.4 2.1 1.2 2.9s1.7 1.2 2.9 1.2z"/><path d="m336.6 336.5v-66.5h20.8v66.5zm14.4-58c0-1.1-.4-2.1-1.1-2.9s-1.7-1.2-2.9-1.2c-1.1 0-2.1.4-2.9 1.2s-1.2 1.8-1.2 2.9.4 2.1 1.2 2.9 1.8 1.2 2.9 1.2c1.2 0 2.2-.4 2.9-1.2.8-.8 1.1-1.8 1.1-2.9zm-4 13.8c1.2 0 2.2-.4 2.9-1.2s1.1-1.8 1.1-3c0-1.1-.4-2.1-1.1-2.9s-1.7-1.2-2.9-1.2c-1.1 0-2.1.4-2.9 1.2s-1.2 1.8-1.2 2.9c0 1.2.4 2.2 1.2 3s1.8 1.2 2.9 1.2zm0 9.9c1.2 0 2.2-.4 2.9-1.2s1.1-1.8 1.1-2.9c0-1.2-.4-2.2-1.1-2.9s-1.7-1.1-2.9-1.1c-1.1 0-2.1.4-2.9 1.1s-1.2 1.7-1.2 2.9c0 1.1.4 2.1 1.2 2.9s1.8 1.2 2.9 1.2zm4 5.7c0-1.1-.4-2.1-1.1-2.9s-1.7-1.2-2.9-1.2c-1.1 0-2.1.4-2.9 1.2s-1.2 1.8-1.2 2.9.4 2.1 1.2 2.9 1.8 1.2 2.9 1.2c1.2 0 2.2-.4 2.9-1.2.8-.9 1.1-1.8 1.1-2.9zm-4 13.8c1.2 0 2.2-.4 2.9-1.2s1.1-1.8 1.1-3c0-1.1-.4-2.1-1.1-2.9s-1.7-1.2-2.9-1.2c-1.1 0-2.1.4-2.9 1.2s-1.2 1.8-1.2 2.9c0 1.2.4 2.2 1.2 3s1.8 1.2 2.9 1.2zm0 9.8c1.2 0 2.2-.4 2.9-1.2s1.1-1.8 1.1-2.9-.4-2.1-1.1-2.9-1.7-1.2-2.9-1.2c-1.1 0-2.1.4-2.9 1.2s-1.2 1.7-1.2 2.9c0 1.1.4 2.1 1.2 2.9s1.8 1.2 2.9 1.2z"/><path d="m428.1 320.4c-1.3 2.5-2.9 4.9-4.8 7-1.8 2.1-4 3.9-6.4 5.4-2.5 1.5-5.3 2.7-8.4 3.6s-6.6 1.3-10.4 1.3c-5 0-9.6-.8-13.8-2.5s-7.8-4.1-10.9-7.1c-3.1-3.1-5.4-6.7-7.1-10.9s-2.5-8.8-2.5-13.8c0-5.1.8-9.7 2.5-14 1.7-4.2 4.1-7.9 7.1-10.9 3.1-3.1 6.7-5.4 10.9-7.1s8.8-2.5 13.8-2.5c7.3 0 13.1 1.3 17.7 3.8 4.5 2.5 8.1 6.2 10.8 11l-14.4 13.3c-2.8-6.3-7.3-9.4-13.5-9.4-2.3 0-4.3.4-6.1 1.2s-3.4 1.9-4.7 3.3-2.4 3.1-3.1 5-1.1 4-1.1 6.3.4 4.3 1.1 6.2 1.7 3.6 3 5 2.9 2.5 4.7 3.3 3.9 1.2 6.1 1.2c3.9 0 7-.9 9.3-2.7s4-4 5.1-6.7zm-50.1-17.3c0-1.2-.4-2.2-1.2-2.9s-1.8-1.1-2.9-1.1c-1.2 0-2.2.4-2.9 1.1s-1.1 1.7-1.1 2.9c0 1.1.4 2.1 1.1 2.9s1.7 1.2 2.9 1.2c1.1 0 2.1-.4 2.9-1.2s1.2-1.8 1.2-2.9zm1.6-9.2c0-1.2-.4-2.2-1.2-3s-1.8-1.2-2.9-1.2-2.1.4-2.9 1.2-1.2 1.8-1.2 3c0 1.1.4 2 1.2 2.8s1.7 1.2 2.8 1.2 2.1-.4 2.9-1.2c.9-.7 1.3-1.7 1.3-2.8zm0 18.8c0-1.2-.4-2.2-1.2-3s-1.8-1.2-2.9-1.2-2.1.4-2.9 1.2-1.2 1.8-1.2 3c0 1.1.4 2 1.2 2.9.8.8 1.7 1.3 2.8 1.3s2.1-.4 2.9-1.2c.9-.9 1.3-1.8 1.3-3zm5.2-26.6c0-1.1-.4-2.1-1.2-2.9s-1.8-1.2-2.9-1.2-2.1.4-2.9 1.2-1.2 1.8-1.2 2.9.4 2.1 1.2 2.9 1.8 1.2 2.9 1.2 2-.4 2.9-1.2c.7-.8 1.2-1.8 1.2-2.9zm-4 38.8c1.1 0 2-.4 2.8-1.3.8-.8 1.2-1.8 1.2-2.9s-.4-2.1-1.2-2.9-1.7-1.2-2.9-1.2c-1.1 0-2.1.4-2.9 1.2s-1.2 1.7-1.2 2.9c0 1.1.4 2.1 1.2 2.9 1 .9 1.9 1.3 3 1.3zm11.7-44.6c0-1.1-.4-2.1-1.2-2.9s-1.8-1.2-2.9-1.2c-1.2 0-2.2.4-2.9 1.2s-1.1 1.7-1.1 2.9c0 1.1.4 2.1 1.1 2.9s1.7 1.2 2.9 1.2c1.1 0 2-.4 2.9-1.3.8-.8 1.2-1.8 1.2-2.8zm.2 46c0-1.1-.4-2.1-1.2-2.9s-1.8-1.2-2.9-1.2c-1.2 0-2.2.4-3 1.2s-1.2 1.8-1.2 2.9.4 2.1 1.2 2.9 1.8 1.2 3 1.2c1.1 0 2-.4 2.9-1.2.8-.9 1.2-1.8 1.2-2.9zm9.3-48.4c0-1.1-.4-2.1-1.2-2.9s-1.8-1.2-3-1.2c-1.1 0-2 .4-2.9 1.2-.8.8-1.3 1.7-1.3 2.8 0 1.2.4 2.2 1.2 3s1.8 1.2 2.9 1.2c1.2 0 2.2-.4 3-1.2.9-.7 1.3-1.7 1.3-2.9zm0 50.6c0-1.1-.4-2.1-1.2-2.9s-1.8-1.2-3-1.2c-1.1 0-2.1.4-2.9 1.2s-1.2 1.7-1.2 2.9c0 1.1.4 2.1 1.2 2.9s1.8 1.2 2.9 1.2c1.2 0 2.2-.4 3-1.2s1.2-1.8 1.2-2.9zm9.5-48.8c0-1.1-.4-2.1-1.2-2.9s-1.8-1.2-3-1.2c-1.1 0-2.1.4-2.9 1.2s-1.2 1.7-1.2 2.9c0 1.1.4 2.1 1.2 2.9s1.8 1.2 2.9 1.2 2.1-.4 2.9-1.3c.9-.7 1.3-1.7 1.3-2.8zm-3.9 51c1.1 0 2.1-.4 2.9-1.2s1.2-1.8 1.2-2.9-.4-2.1-1.1-2.9-1.7-1.2-2.9-1.2c-1.1 0-2.1.4-2.9 1.2s-1.2 1.8-1.2 2.9.4 2.1 1.2 2.9c.7.8 1.7 1.2 2.8 1.2zm11.9-45.6c0-1.1-.4-2.1-1.2-2.9s-1.8-1.2-2.9-1.2-2.1.4-2.9 1.2-1.2 1.7-1.2 2.9c0 1.1.4 2.1 1.2 2.9s1.7 1.2 2.9 1.2c1.1 0 2.1-.4 2.9-1.2s1.2-1.7 1.2-2.9zm.4 35.9c0-1.1-.4-2.1-1.2-2.9s-1.8-1.2-2.9-1.2-2.1.4-2.9 1.2-1.2 1.8-1.2 2.9.4 2.1 1.2 2.9 1.8 1.2 2.9 1.2 2-.4 2.9-1.3c.7-.8 1.2-1.8 1.2-2.8z"/><path d="m475.8 336.5-2.1-7h-21l-2.2 7h-21.9l23-66.5h22.8l23.2 66.5zm-30.9-7.5c0-1.1-.4-2-1.3-2.8-.8-.8-1.8-1.2-2.9-1.2-1.2 0-2.2.4-2.9 1.2s-1.1 1.7-1.1 2.9.4 2.2 1.1 3 1.7 1.2 2.9 1.2c1.1 0 2.1-.4 2.9-1.2.9-.9 1.3-1.9 1.3-3.1zm3-8.3c0-1.1-.4-2.1-1.3-2.9-.8-.8-1.8-1.2-2.9-1.2s-2.1.4-2.9 1.2-1.2 1.8-1.2 3c0 1.1.4 2.1 1.2 2.9s1.8 1.2 2.9 1.2 2.1-.4 2.9-1.2c.9-1 1.3-1.9 1.3-3zm2.8-8.6c0-1.1-.4-2-1.2-2.9-.8-.8-1.8-1.3-2.9-1.3s-2.1.4-2.9 1.2-1.2 1.8-1.2 2.9.4 2.1 1.2 2.9 1.7 1.2 2.9 1.2c1.1 0 2.1-.4 2.9-1.2.8-.7 1.2-1.7 1.2-2.8zm3-8.6c0-1.1-.4-2-1.2-2.9-.8-.8-1.8-1.3-2.9-1.3s-2.1.4-2.9 1.2-1.2 1.8-1.2 2.9.4 2.1 1.2 2.9 1.7 1.2 2.9 1.2c1.1 0 2.1-.4 2.9-1.2.8-.7 1.2-1.6 1.2-2.8zm2.9-8.4c0-1.1-.4-2-1.2-2.9-.8-.8-1.8-1.3-2.9-1.3s-2.1.4-2.9 1.2-1.2 1.8-1.2 2.9.4 2.1 1.2 2.9 1.7 1.2 2.9 1.2c1.1 0 2.1-.4 2.9-1.2.8-.7 1.2-1.7 1.2-2.8zm.8 25.9c0-1.1-.4-2.1-1.2-2.9s-1.8-1.2-2.9-1.2-2.1.4-2.9 1.2-1.2 1.8-1.2 2.9.4 2.1 1.2 2.9 1.7 1.2 2.9 1.2c1.1 0 2.1-.4 2.9-1.2.8-.7 1.2-1.7 1.2-2.9zm2.1-34.5c0-1.1-.4-2-1.2-2.9-.8-.8-1.8-1.3-2.9-1.3s-2.1.4-2.9 1.2-1.2 1.8-1.2 2.9.4 2.1 1.2 2.9 1.7 1.2 2.9 1.2c1.1 0 2.1-.4 2.9-1.2.8-.7 1.2-1.7 1.2-2.8zm-1.3-4.3c1.1 0 2.1-.4 2.9-1.2s1.2-1.8 1.2-3c0-1.1-.4-2-1.2-2.8s-1.7-1.2-2.8-1.2c-1.2 0-2.2.4-3 1.2s-1.2 1.7-1.2 2.9.4 2.2 1.2 3c.7.7 1.7 1.1 2.9 1.1zm4.8 11.4-5.6 19.3h11.3zm3.9 27.4c0-1.1-.4-2.1-1.2-2.9s-1.8-1.2-3-1.2c-1.1 0-2.1.4-2.9 1.2s-1.2 1.8-1.2 2.9.4 2.1 1.3 2.9c.8.8 1.8 1.2 2.9 1.2 1.2 0 2.2-.4 3-1.2.7-.7 1.1-1.7 1.1-2.9zm1-38.8c1.1 0 2.1-.4 2.9-1.2s1.2-1.8 1.2-3c0-1.1-.4-2-1.2-2.8s-1.7-1.2-2.8-1.2-2.1.4-2.9 1.2-1.2 1.7-1.2 2.9.4 2.2 1.2 3c.7.7 1.7 1.1 2.8 1.1zm6.5 4.4c0-1.1-.4-2.1-1.2-2.9s-1.8-1.2-2.9-1.2-2.1.4-2.9 1.2-1.2 1.8-1.2 2.9.4 2.1 1.1 2.9 1.7 1.2 2.9 1.2c1.1 0 2.1-.4 2.9-1.2.9-.8 1.3-1.8 1.3-2.9zm-1.8 38.5c1.1 0 2.1-.4 2.9-1.2s1.2-1.8 1.2-3c0-1.1-.4-2.1-1.2-2.9s-1.7-1.2-2.9-1.2c-1.1 0-2.1.4-2.9 1.2s-1.2 1.8-1.2 2.9.4 2.1 1.2 2.9c.8.9 1.8 1.3 2.9 1.3zm4.7-29.9c0-1.2-.4-2.2-1.2-3s-1.8-1.2-2.9-1.2-2.1.4-2.9 1.2-1.2 1.8-1.2 2.9.4 2.1 1.2 2.9 1.8 1.2 3 1.2c1.1 0 2.1-.4 2.9-1.2.7-.7 1.1-1.7 1.1-2.8zm-1.1 12.5c1.1 0 2.1-.4 2.9-1.2s1.2-1.8 1.2-3c0-1.1-.4-2.1-1.2-2.9s-1.7-1.2-2.9-1.2c-1.1 0-2.1.4-2.9 1.2s-1.2 1.7-1.2 2.9.4 2.2 1.2 3 1.7 1.2 2.9 1.2zm7 4.4c0-1.1-.4-2-1.2-2.9-.8-.8-1.8-1.3-2.9-1.3s-2.1.4-2.9 1.2-1.2 1.8-1.2 2.9.4 2.1 1.2 2.9 1.7 1.2 2.9 1.2c1.1 0 2.1-.4 2.9-1.2.7-.7 1.2-1.7 1.2-2.8zm2.9 8.6c0-1.1-.4-2.1-1.3-2.9-.8-.8-1.8-1.2-2.9-1.2s-2.1.4-2.9 1.2-1.2 1.8-1.2 3c0 1.1.4 2.1 1.2 2.9s1.7 1.2 2.9 1.2c1.1 0 2.1-.4 2.9-1.2.9-1 1.3-1.9 1.3-3zm2.9 8.3c0-1.1-.4-2.1-1.2-2.9s-1.8-1.2-3-1.2c-1.1 0-2 .4-2.9 1.2-.8.8-1.3 1.7-1.3 2.8 0 1.2.4 2.2 1.2 3s1.8 1.2 2.9 1.2c1.2 0 2.2-.4 3-1.2.9-.7 1.3-1.7 1.3-2.9z"/><path d="m529.5 313.5v-16.7h35.9c.1 1.2.2 2.4.3 3.5.1 1.2.1 2.3.1 3.5 0 4-.6 7.9-1.7 11.5-1.1 3.7-3.1 7.2-5.8 10.6-3.2 3.8-7.1 6.7-11.7 8.8-4.7 2-9.7 3.1-15.2 3.1-5.1 0-9.7-.8-14-2.5s-7.9-4.1-11-7.1-5.5-6.7-7.2-10.9-2.6-8.9-2.6-14c0-4.9.9-9.5 2.6-13.7 1.8-4.2 4.2-7.9 7.3-11s6.8-5.5 11.2-7.2c4.3-1.7 9-2.6 14.1-2.6 4 0 7.5.3 10.6 1 3 .7 5.7 1.7 7.9 3 2.3 1.3 4.2 2.9 5.9 4.8s3.2 4.1 4.5 6.4l-14.5 11.2c-1.6-2.8-3.5-4.9-5.6-6.1-2.1-1.3-5.1-1.9-9-1.9-2 0-3.9.4-5.7 1.1-1.7.7-3.2 1.8-4.5 3.2s-2.3 3.1-3.1 5.1c-.7 2-1.1 4.3-1.1 6.8 0 2.2.3 4.2 1 6.2.7 1.9 1.6 3.6 2.9 5.1s2.8 2.6 4.7 3.5c1.8.8 3.9 1.3 6.1 1.3 4.8 0 8.7-2 11.6-5.9h-14zm-18.1-10.2c0-1.2-.4-2.2-1.2-3s-1.8-1.2-2.9-1.2c-1.2 0-2.2.4-2.9 1.2s-1.1 1.8-1.1 3c0 1.1.4 2.1 1.1 2.9s1.7 1.2 2.9 1.2c1.1 0 2.1-.4 2.9-1.2s1.2-1.8 1.2-2.9zm1.6-9.2c0-1.2-.4-2.2-1.2-2.9s-1.8-1.1-2.9-1.1-2.1.4-2.9 1.1-1.2 1.7-1.2 2.9c0 1.1.4 2 1.2 2.9.8.8 1.7 1.3 2.8 1.3s2.1-.4 2.9-1.2c.9-.9 1.3-1.8 1.3-3zm0 18.4c0-1.2-.4-2.2-1.2-2.9s-1.8-1.1-2.9-1.1-2.1.4-2.9 1.1-1.2 1.7-1.2 2.9c0 1.1.4 2 1.2 2.9.8.8 1.7 1.3 2.8 1.3s2.1-.4 2.9-1.2c.9-.9 1.3-1.9 1.3-3zm5.3-26.2c0-1.1-.4-2.1-1.2-2.9s-1.8-1.2-2.9-1.2-2.1.4-2.9 1.2-1.2 1.7-1.2 2.9c0 1.1.4 2.1 1.2 2.9s1.8 1.2 2.9 1.2 2-.4 2.9-1.2c.8-.8 1.2-1.8 1.2-2.9zm0 33.9c0-1.1-.4-2.1-1.2-2.9s-1.8-1.2-2.9-1.2-2.1.4-2.9 1.2-1.2 1.7-1.2 2.9c0 1.1.4 2.1 1.2 2.9s1.8 1.2 2.9 1.2 2-.4 2.9-1.3c.8-.8 1.2-1.7 1.2-2.8zm7.4 6c0-1.1-.4-2.1-1.2-2.9s-1.7-1.2-2.9-1.2-2.2.4-3 1.2-1.2 1.8-1.2 2.9.4 2.1 1.2 2.9 1.8 1.2 3 1.2c1.1 0 2-.4 2.8-1.2.9-.9 1.3-1.8 1.3-2.9zm.3-45.7c0-1.1-.4-2.1-1.2-2.9s-1.8-1.2-2.9-1.2c-1.2 0-2.2.4-3 1.2s-1.2 1.8-1.2 2.9.4 2.1 1.2 2.9 1.8 1.2 3 1.2c1.1 0 2-.4 2.9-1.3.8-.8 1.2-1.8 1.2-2.8zm5 52.1c1.2 0 2.2-.4 2.9-1.2s1.1-1.8 1.1-2.9-.4-2.1-1.1-2.9-1.7-1.2-2.9-1.2c-1.1 0-2.1.4-2.9 1.2s-1.2 1.7-1.2 2.9c0 1.1.4 2.1 1.2 2.9s1.7 1.2 2.9 1.2zm.1-50.3c1.2 0 2.2-.4 2.9-1.2s1.1-1.8 1.1-3c0-1.1-.4-2.1-1.1-2.9s-1.7-1.2-2.9-1.2c-1.1 0-2.1.4-2.9 1.3-.8.8-1.2 1.8-1.2 2.9 0 1.2.4 2.2 1.2 3 .8.7 1.7 1.1 2.9 1.1zm10.5 22.8c0-1.1-.4-2.1-1.2-2.9s-1.7-1.2-2.8-1.2-2.1.4-2.9 1.2-1.2 1.8-1.2 3c0 1.1.4 2.1 1.2 2.9s1.8 1.2 2.9 1.2 2.1-.4 2.9-1.2c.8-.9 1.1-1.9 1.1-3zm-1 25.8c1.1 0 2-.4 2.8-1.2s1.2-1.8 1.2-2.9c0-1.2-.4-2.2-1.2-2.9s-1.7-1.1-2.9-1.1c-1.1 0-2.1.4-2.9 1.1s-1.2 1.7-1.2 2.9c0 1.1.4 2.1 1.2 2.9.9.8 1.9 1.2 3 1.2zm4.2-51.3c0-1.1-.4-2.1-1.2-2.9s-1.8-1.2-3-1.2c-1.1 0-2.1.4-2.9 1.2s-1.2 1.7-1.2 2.9c0 1.1.4 2.1 1.2 2.9s1.7 1.2 2.9 1.2 2.1-.4 2.9-1.2c.9-.8 1.3-1.7 1.3-2.9zm5.8 25.5c0-1.1-.4-2.1-1.2-2.9s-1.7-1.2-2.8-1.2-2.1.4-2.9 1.2-1.2 1.8-1.2 3c0 1.1.4 2.1 1.2 2.9s1.8 1.2 2.9 1.2 2.1-.4 2.9-1.2c.7-.9 1.1-1.9 1.1-3zm1.5 16.4c0-1.2-.4-2.2-1.2-3s-1.8-1.2-2.9-1.2c-1.2 0-2.2.4-3 1.2s-1.2 1.8-1.2 3c0 1.1.4 2.1 1.2 2.9s1.8 1.2 3 1.2c1.1 0 2-.4 2.9-1.3.8-.8 1.2-1.7 1.2-2.8zm1.1-36.6c0-1.1-.4-2.1-1.2-2.9s-1.8-1.2-2.9-1.2-2.1.4-2.9 1.2-1.2 1.8-1.2 2.9.4 2.1 1.2 2.9 1.7 1.2 2.9 1.2c1.1 0 2-.4 2.9-1.2.7-.8 1.2-1.7 1.2-2.9zm4.4 29.1c0-1.1-.4-2.1-1.2-2.9s-1.8-1.2-3-1.2c-1.1 0-2.1.4-2.9 1.2s-1.2 1.8-1.2 2.9.4 2.1 1.2 2.9 1.7 1.2 2.9 1.2 2.2-.4 3-1.2 1.2-1.8 1.2-2.9zm2-8.9c0-1.1-.4-2.1-1.2-2.9s-1.8-1.2-2.9-1.2-2.1.4-2.9 1.2-1.2 1.8-1.2 3c0 1.1.4 2.1 1.2 2.9s1.7 1.2 2.9 1.2 2.2-.4 3-1.2c.7-.9 1.1-1.9 1.1-3z"/><path d="m641.2 303.3c0 5-.9 9.6-2.7 13.8s-4.3 7.8-7.4 10.9-6.9 5.5-11.2 7.2-8.9 2.6-13.8 2.6c-5 0-9.6-.9-13.9-2.6s-8-4.1-11.1-7.2-5.6-6.7-7.4-10.9-2.7-8.8-2.7-13.8c0-5.1.9-9.7 2.6-14 1.8-4.2 4.2-7.9 7.3-10.9 3.1-3.1 6.9-5.4 11.2-7.1s8.9-2.5 14-2.5c4.9 0 9.5.9 13.8 2.6s8 4.1 11.2 7.2 5.7 6.7 7.5 10.9c1.7 4.2 2.6 8.8 2.6 13.8zm-55.7 0c0-1.2-.4-2.2-1.2-3s-1.8-1.2-2.9-1.2c-1.2 0-2.2.4-2.9 1.2s-1.1 1.8-1.1 3c0 1.1.4 2.1 1.1 2.9s1.7 1.2 2.9 1.2c1.1 0 2.1-.4 2.9-1.2s1.2-1.8 1.2-2.9zm1.4 9.4c0-1.2-.4-2.2-1.2-3s-1.8-1.2-2.9-1.2-2.1.4-2.9 1.2-1.2 1.8-1.2 3c0 1.1.4 2 1.3 2.9.8.8 1.8 1.3 2.9 1.3s2.1-.4 2.9-1.2c.7-.9 1.1-1.8 1.1-3zm-3.9-14.8c1.1 0 2.1-.4 2.9-1.2s1.2-1.8 1.2-2.9c0-1.2-.4-2.2-1.2-3s-1.7-1.2-2.9-1.2c-1.1 0-2.1.4-2.9 1.2s-1.2 1.8-1.2 3c0 1.1.4 2 1.2 2.9.8.8 1.8 1.2 2.9 1.2zm9.1-12.1c0-1.1-.4-2.1-1.2-2.9s-1.8-1.2-2.9-1.2-2.1.4-2.9 1.2-1.2 1.8-1.2 2.9.4 2.1 1.2 2.9 1.7 1.2 2.9 1.2c1.1 0 2.1-.4 2.9-1.2s1.2-1.8 1.2-2.9zm0 35.1c0-1.1-.4-2.1-1.2-2.9s-1.8-1.2-2.9-1.2-2.1.4-2.9 1.2-1.2 1.7-1.2 2.9c0 1.1.4 2.1 1.2 2.9s1.7 1.2 2.9 1.2c1.1 0 2.1-.4 2.9-1.3.8-.8 1.2-1.8 1.2-2.8zm14-1.8c4.3 0 7.8-1.4 10.5-4.1s4-6.6 4-11.7-1.3-9-4-11.7-6.2-4.1-10.5-4.1c-4.4 0-8 1.4-10.6 4.1s-3.9 6.6-3.9 11.8c0 5.1 1.3 9 3.9 11.7 2.7 2.6 6.2 4 10.6 4zm-5.9-38.6c0-1.1-.4-2.1-1.2-2.9s-1.8-1.2-2.9-1.2c-1.2 0-2.2.4-3 1.2s-1.2 1.8-1.2 2.9.4 2.1 1.2 2.9 1.8 1.2 3 1.2c1.1 0 2-.4 2.9-1.3.8-.8 1.2-1.8 1.2-2.8zm0 45.7c0-1.1-.4-2.1-1.2-2.9s-1.8-1.2-2.9-1.2c-1.2 0-2.2.4-3 1.2s-1.2 1.8-1.2 2.9.4 2.1 1.2 2.9 1.8 1.2 3 1.2c1.1 0 2-.4 2.9-1.2.8-.9 1.2-1.8 1.2-2.9zm5.9-44.1c1.2 0 2.2-.4 2.9-1.2s1.1-1.8 1.1-3c0-1.1-.4-2.1-1.1-2.9s-1.7-1.2-2.9-1.2c-1.1 0-2 .4-2.9 1.2-.8.8-1.3 1.7-1.3 2.8 0 1.2.4 2.2 1.2 3 .9.9 1.9 1.3 3 1.3zm0 50.5c1.2 0 2.2-.4 2.9-1.2s1.1-1.8 1.1-2.9-.4-2.1-1.1-2.9-1.7-1.2-2.9-1.2c-1.1 0-2.1.4-2.9 1.2s-1.2 1.7-1.2 2.9c0 1.1.4 2.1 1.2 2.9s1.8 1.2 2.9 1.2zm10.1-48c1.2 0 2.2-.4 2.9-1.2s1.1-1.8 1.1-2.9-.4-2.1-1.1-2.9-1.7-1.2-2.9-1.2c-1.1 0-2.1.4-2.9 1.2s-1.2 1.8-1.2 2.9.4 2 1.3 2.9c.8.8 1.7 1.2 2.8 1.2zm4 41.6c0-1.1-.4-2.1-1.1-2.9s-1.7-1.2-2.9-1.2c-1.1 0-2.1.4-2.9 1.2s-1.2 1.8-1.2 2.9.4 2.1 1.3 2.9c.8.8 1.8 1.2 2.9 1.2 1.2 0 2.2-.4 2.9-1.2.6-.9 1-1.8 1-2.9zm8.1-40.4c0-1.1-.4-2.1-1.2-2.9s-1.8-1.2-2.9-1.2-2.1.4-2.9 1.2-1.2 1.8-1.2 2.9.4 2.1 1.2 2.9 1.7 1.2 2.8 1.2 2.1-.4 2.9-1.2c.9-.8 1.3-1.8 1.3-2.9zm0 35.1c0-1.1-.4-2.1-1.2-2.9s-1.8-1.2-2.9-1.2-2.1.4-2.9 1.2-1.2 1.7-1.2 2.9c0 1.1.4 2 1.2 2.9.8.8 1.7 1.3 2.8 1.3s2.1-.4 2.9-1.2c.9-.9 1.3-1.9 1.3-3zm5.1-27.1c0-1.2-.4-2.2-1.2-3s-1.8-1.2-2.9-1.2-2.1.4-2.9 1.2-1.2 1.8-1.2 3c0 1.1.4 2.1 1.2 2.9s1.8 1.2 2.9 1.2 2-.4 2.9-1.3c.8-.8 1.2-1.7 1.2-2.8zm-3.9 23.1c1.1 0 2-.4 2.8-1.3.8-.8 1.2-1.8 1.2-2.9 0-1.2-.4-2.2-1.2-3s-1.7-1.2-2.9-1.2c-1.1 0-2.1.4-2.9 1.2s-1.2 1.8-1.2 3c0 1.1.4 2.1 1.2 2.9.9.8 1.9 1.3 3 1.3zm5.4-13.6c0-1.2-.4-2.2-1.2-3s-1.8-1.2-3-1.2c-1.1 0-2.1.4-2.9 1.2s-1.2 1.8-1.2 3c0 1.1.4 2.1 1.2 2.9s1.7 1.2 2.9 1.2 2.2-.4 3-1.2 1.2-1.8 1.2-2.9z"/></g><g><path d="m303.7 361.3c4.3 0 8.9 2.3 9.7 7.9-1.8 0-3.4 0-5.2 0-.7-2.1-2.3-3-4.5-3-3.1 0-5.1 2.3-5.1 5.8 0 3 2 5.7 5.1 5.7 2.2 0 4-1.1 4.6-3.3h5.2c-.8 5.8-5.4 8.1-9.8 8.1-5.3 0-10.6-3.5-10.6-10.5 0-7.1 5.4-10.7 10.6-10.7z"/><path d="m330.5 366.3c-3.1 0-4.6 0-7.6 0v2.9h7v4.7h-7v3.6h7.9v4.7c-4.8 0-8.4 0-13.2 0 0-6.9 0-13.8 0-20.7h12.9z"/><path d="m340.7 372.1v10.2c-1.8 0-3.7 0-5.5 0v-20.7h1.9l10.4 10.2v-10.1h5.4v20.7h-1.9z"/><path d="m356.2 366.3c0-1.6 0-3.2 0-4.7h15.3v4.7h-5v15.9c-1.7 0-3.5 0-5.2 0v-15.9z"/><path d="m392.3 381.5v.8h-5.9l-3.5-6.1h-2.7v6.1c-1.8 0-3.6 0-5.3 0 0-6.9 0-13.8 0-20.7h9.1c8.1 0 9.6 9.8 4.4 13.3zm-8.4-15.2c-1.2 0-2.5 0-3.8 0v5.2h3.8c2.9 0 3-5.2 0-5.2z"/><path d="m408.4 379.6h-8.1l-1.2 2.6h-5.2v-.8l9.3-20.2h2.3l9.3 20.2v.8h-5.2zm-4.1-9.9-2.3 5.4h4.7z"/><path d="m422.7 377.5h7.5v4.8c-4.3 0-8.6 0-12.8 0v-20.7h5.3z"/><path d="m459.2 382.2c-1.8 0-3.6 0-5.4 0v-8.3h-6.4v8.3c-1.8 0-3.6 0-5.4 0v-20.7h5.4v7.5h6.4v-7.5h5.4z"/><path d="m463.2 371.9c0-14.3 21.2-14.3 21.2 0 0 14.4-21.2 14.4-21.2 0zm15.8 0c0-7.4-10.4-7.4-10.4 0 0 7.5 10.4 7.5 10.4 0z"/><path d="m499.5 375.3v-13.7h5v13.8c0 4.5-3.9 7.2-8.2 7.2-4.2 0-8.2-2.6-8.2-7.2v-13.8h5v13.7c0 1.7 1.6 2.5 3.2 2.5s3.2-.8 3.2-2.5z"/><path d="m519.8 376.2c0-1.4-1.7-1.8-3.8-1.9-4.5-.3-7.4-1.9-7.5-6.3-.2-8.9 15.9-8.9 15.8 0-1.9 0-3.2 0-5 0 0-2.7-5.5-2.5-5.7-.1-.1 1.6 1.4 1.9 3.3 2.1 4.1.4 8.1 1.1 8.1 6.2 0 8.7-16.8 8.8-16.7-.3h5.1c-.1 2.7 6.4 2.7 6.4.3z"/><path d="m541.7 366.3c-3.1 0-4.6 0-7.6 0v2.9h7v4.7h-7v3.6h7.9v4.7c-4.8 0-8.4 0-13.2 0 0-6.9 0-13.8 0-20.7h12.9z"/></g></g></svg>