<svg class="active" viewBox="0 0 287.02933 89.574135" xmlns="http://www.w3.org/2000/svg" xmlns:xlink="http://www.w3.org/1999/xlink"><clipPath id="aaas"><path d="m0 67.181h215.272v-67.181h-215.272z"/></clipPath><g clip-path="url(#aaas)" transform="matrix(1.3333333 0 0 -1.3333333 0 89.574133)"><path d="m0 0-1.379.911c7.906 11.975 6.269 28.043-3.893 38.205-11.849 11.846-31.125 11.846-42.974 0l-1.167 1.167c12.491 12.494 32.817 12.491 45.308 0 10.715-10.714 12.443-27.655 4.105-40.283" fill="#af7d58" transform="translate(126.1698 15.4472)"/><path d="m0 0-1.167 1.167 7.735 7.738 1.168-1.167z" fill="#af7d58" transform="translate(23.9613 50.9448)"/><path d="m0 0-1.169 1.167 7.734 7.738 1.17-1.167z" fill="#af7d58" transform="translate(31.7001 50.9448)"/><path d="m0 0-1.167 1.167 7.737 7.738 1.167-1.167z" fill="#af7d58" transform="translate(39.4339 50.9448)"/><path d="m0 0-1.151 1.187 17.421 16.883 1.152-1.186z" fill="#af7d58" transform="translate(114.3631 49.1108)"/><g fill="#244c5a"><path d="m0 0-8.189 11.262-3.38-3.504v-7.758h-5.045v25.337h5.045v-11.877l11.025 11.877h5.989l-10.244-10.665 10.851-14.672z" transform="translate(16.6141 18.8242)"/><path d="m0 0-13.1 17.199v-17.199h-4.973v25.337h4.788l12.679-16.665v16.665h4.973v-25.337z" transform="translate(71.3363 18.8242)"/><path d="m107.298 18.825h5.045v25.336h-5.045z"/><path d="m0 0-13.101 17.199v-17.199h-4.971v25.337h4.777l12.689-16.665v16.665h4.983v-25.337z" transform="translate(136.1073 18.8242)"/><path d="m0 0c-3.914 0-7.654 1.366-10.571 3.863l2.968 3.555c2.57-2.075 5.036-3.03 7.706-3.03 2.528 0 4.1 1.068 4.1 2.774v.071c0 1.747-1.182 2.538-5.487 3.637-5.681 1.46-8.373 2.97-8.373 7.634v.073c0 2.198.843 4.069 2.446 5.435 1.562 1.336 3.81 2.087 6.307 2.087 3.494 0 6.606-1.029 9.226-3.063l-2.62-3.781c-2.425 1.644-4.613 2.445-6.678 2.445-2.702 0-3.668-1.397-3.668-2.589v-.082c0-2.055 1.614-2.662 5.867-3.75 4.931-1.285 8.004-2.98 8.004-7.47v-.081c0-4.769-3.555-7.728-9.227-7.728" transform="translate(154.9598 18.4541)"/><path d="m0 0-8.188 11.262-3.392-3.504v-7.758h-5.055v25.337h5.055v-11.877l11.036 11.877h5.99l-10.245-10.665 10.851-14.672z" transform="translate(184.6024 18.8242)"/><path d="m0 0v10.028l-9.721 15.309h5.899l6.381-10.747 6.524 10.747h5.701l-9.74-15.206v-10.131z" transform="translate(200.4872 18.8242)"/><path d="m0 0-2.363 5.836h-11.446l-2.384-5.836h-5.096l4.326 10.183h12.813v.04h.02l-3.956 9.649-.031-.032-2.322 5.682v.01h4.85l10.86-25.532z" transform="translate(45.3519 18.8242)"/><path d="m0 0v4.5h3.596c2.384 0 4.428.782 5.908 2.24 1.489 1.48 2.26 3.493 2.26 5.857v.082c0 4.798-3.349 8.158-8.168 8.158h-3.596-.329-5.887v4.5h9.812c7.809 0 13.48-5.291 13.48-12.585v-.073c0-3.493-1.315-6.699-3.729-9.021-2.467-2.363-5.929-3.658-9.751-3.658z" transform="translate(85.9164 18.8242)"/><path d="m0 0v.025c0 1.913-1.395 3.478-3.321 3.478-1.925 0-3.297-1.541-3.297-3.454v-.024c0-1.914 1.396-3.478 3.321-3.478s3.297 1.541 3.297 3.453m-7.604 0v.025c0 2.323 1.745 4.356 4.307 4.356 2.565 0 4.286-2.01 4.286-4.332v-.024c0-2.323-1.745-4.356-4.31-4.356-2.562 0-4.283 2.009-4.283 4.331" transform="translate(30.7347 4.331)"/><path d="m0 0v-6.666h1.973c2.13 0 3.49 1.443 3.49 3.309v.025c0 1.864-1.36 3.332-3.49 3.332zm-.951.879h2.924c2.648 0 4.476-1.816 4.476-4.188v-.023c0-2.371-1.828-4.213-4.476-4.213h-2.924z" transform="translate(37.3407 7.6884)"/><path d="m0 0h6.09v-.865h-5.139v-2.877h4.597v-.866h-4.597v-2.949h5.198v-.867h-6.149z" transform="translate(48.4564 8.5674)"/><path d="m0 0 .589.697c.88-.794 1.722-1.191 2.889-1.191 1.131 0 1.877.601 1.877 1.432v.024c0 .782-.42 1.226-2.191 1.601-1.937.421-2.827 1.046-2.827 2.431v.024c0 1.324 1.167 2.298 2.767 2.298 1.229 0 2.106-.349 2.962-1.035l-.554-.734c-.782.638-1.564.915-2.431.915-1.096 0-1.793-.602-1.793-1.36v-.025c0-.794.433-1.238 2.287-1.636 1.876-.41 2.743-1.095 2.743-2.382v-.026c0-1.442-1.203-2.382-2.876-2.382-1.336 0-2.432.446-3.442 1.349" transform="translate(58.621 1.372)"/><path d="m0 0 .589.697c.88-.794 1.722-1.191 2.889-1.191 1.131 0 1.877.601 1.877 1.432v.024c0 .782-.42 1.226-2.191 1.601-1.937.421-2.827 1.046-2.827 2.431v.024c0 1.324 1.168 2.298 2.767 2.298 1.229 0 2.106-.349 2.962-1.035l-.553-.734c-.783.638-1.565.915-2.432.915-1.096 0-1.792-.602-1.792-1.36v-.025c0-.794.432-1.238 2.286-1.636 1.876-.41 2.743-1.095 2.743-2.382v-.026c0-1.442-1.202-2.382-2.876-2.382-1.336 0-2.432.446-3.442 1.349" transform="translate(68.9779 1.372)"/><path d="m0 0-1.914 4.297-1.925-4.297zm-2.346 5.403h.889l3.839-8.484h-1.022l-.987 2.227h-4.585l-.998-2.227h-.976z" transform="translate(85.3514 3.2246)"/><path d="m0 0c1.265 0 2.168.65 2.168 1.733v.024c0 1.035-.796 1.66-2.156 1.66h-2.598v-3.417zm-3.537 4.296h3.622c1.035 0 1.864-.313 2.394-.842.409-.409.651-1 .651-1.661v-.024c0-1.396-.962-2.214-2.286-2.455l2.586-3.442h-1.167l-2.444 3.274h-2.405v-3.274h-.951z" transform="translate(101.8509 4.2715)"/><path d="m0 0h6.091v-.865h-5.14v-2.877h4.598v-.866h-4.598v-2.949h5.199v-.867h-6.15z" transform="translate(109.6688 8.5674)"/><path d="m0 0 .589.697c.88-.794 1.722-1.191 2.889-1.191 1.131 0 1.877.601 1.877 1.432v.024c0 .782-.42 1.226-2.191 1.601-1.937.421-2.827 1.046-2.827 2.431v.024c0 1.324 1.168 2.298 2.767 2.298 1.229 0 2.106-.349 2.962-1.035l-.553-.734c-.783.638-1.565.915-2.433.915-1.096 0-1.792-.602-1.792-1.36v-.025c0-.794.433-1.238 2.287-1.636 1.875-.41 2.743-1.095 2.743-2.382v-.026c0-1.442-1.203-2.382-2.877-2.382-1.336 0-2.431.446-3.441 1.349" transform="translate(119.8338 1.372)"/><path d="m130.828 8.567h.95v-8.424h-.95z"/><path d="m0 0v-6.666h1.976c2.129 0 3.489 1.443 3.489 3.309v.025c0 1.864-1.36 3.332-3.489 3.332zm-.951.879h2.927c2.645 0 4.475-1.816 4.475-4.188v-.023c0-2.371-1.83-4.213-4.475-4.213h-2.927z" transform="translate(137.8475 7.6884)"/><path d="m0 0h6.091v-.865h-5.14v-2.877h4.598v-.866h-4.598v-2.949h5.199v-.867h-6.15z" transform="translate(148.9647 8.5674)"/><path d="m0 0h.892l5.305-6.751v6.751h.927v-8.424h-.758l-5.439 6.908v-6.908h-.927z" transform="translate(159.6834 8.5674)"/><path d="m0 0v.025c0 2.383 1.783 4.356 4.262 4.356 1.529 0 2.441-.542 3.285-1.336l-.651-.697c-.709.673-1.504 1.155-2.646 1.155-1.866 0-3.261-1.517-3.261-3.454v-.024c0-1.951 1.407-3.478 3.261-3.478 1.155 0 1.911.445 2.72 1.215l.625-.614c-.879-.889-1.842-1.479-3.37-1.479-2.43 0-4.225 1.912-4.225 4.331" transform="translate(171.4715 4.331)"/><path d="m0 0h6.091v-.865h-5.14v-2.877h4.598v-.866h-4.598v-2.949h5.198v-.867h-6.149z" transform="translate(183.4305 8.5674)"/></g></g></svg>