<svg class="active" enable-background="new 125.309 161.114 626.157 140.169" viewBox="125.309 161.114 468.01512 104.76889" xmlns="http://www.w3.org/2000/svg"><g transform="matrix(.74744167 0 0 .74744167 31.647831 40.690666)"><g><path d="m192.812 293.747c-.281 2.407-1.17 4.267-2.666 5.573-1.495 1.31-3.483 1.962-5.964 1.962-2.689 0-4.845-.964-6.465-2.893-1.621-1.929-2.432-4.509-2.432-7.738v-2.189c0-2.114.378-3.977 1.134-5.581s1.826-2.838 3.213-3.697c1.386-.859 2.991-1.289 4.815-1.289 2.418 0 4.356.675 5.815 2.023 1.46 1.351 2.309 3.219 2.549 5.604h-3.018c-.261-1.818-.826-3.136-1.696-3.951s-2.087-1.224-3.65-1.224c-1.918 0-3.422.71-4.511 2.128-1.089 1.419-1.634 3.438-1.634 6.056v2.207c0 2.472.516 4.438 1.548 5.899 1.032 1.46 2.476 2.189 4.331 2.189 1.667 0 2.947-.378 3.838-1.134.892-.756 1.482-2.071 1.774-3.947z"/><path d="m238.136 290.322c0 2.231-.376 4.178-1.126 5.84-.751 1.663-1.813 2.933-3.189 3.808-1.376.876-2.981 1.313-4.815 1.313-1.793 0-3.383-.439-4.769-1.32-1.387-.881-2.463-2.137-3.229-3.769-.767-1.631-1.16-3.521-1.181-5.667v-1.644c0-2.188.381-4.122 1.142-5.8s1.837-2.963 3.229-3.854c1.392-.892 2.983-1.336 4.776-1.336 1.823 0 3.432.439 4.823 1.319 1.392.883 2.462 2.158 3.213 3.831.75 1.673 1.126 3.619 1.126 5.839zm-2.987-1.469c0-2.699-.542-4.771-1.626-6.214-1.085-1.444-2.601-2.166-4.55-2.166-1.897 0-3.391.722-4.479 2.166-1.089 1.442-1.649 3.446-1.681 6.011v1.673c0 2.617.55 4.673 1.649 6.168 1.1 1.496 2.613 2.244 4.542 2.244 1.938 0 3.439-.706 4.503-2.119 1.063-1.412 1.61-3.437 1.642-6.073z"/><path d="m283.851 300.97h-3.018l-11.46-17.542v17.542h-3.018v-22.765h3.018l11.491 17.62v-17.62h2.986z"/><path d="m329.644 293.747c-.281 2.407-1.17 4.267-2.666 5.573-1.495 1.31-3.483 1.962-5.964 1.962-2.689 0-4.845-.964-6.465-2.893-1.621-1.929-2.432-4.509-2.432-7.738v-2.189c0-2.114.378-3.977 1.134-5.581s1.826-2.838 3.213-3.697c1.386-.859 2.991-1.289 4.815-1.289 2.418 0 4.356.675 5.815 2.023 1.46 1.351 2.309 3.219 2.549 5.604h-3.018c-.261-1.818-.826-3.136-1.696-3.951s-2.087-1.224-3.65-1.224c-1.918 0-3.422.71-4.511 2.128-1.089 1.419-1.634 3.438-1.634 6.056v2.207c0 2.472.516 4.438 1.548 5.899 1.032 1.46 2.476 2.189 4.331 2.189 1.667 0 2.947-.378 3.838-1.134.892-.756 1.482-2.071 1.774-3.947z"/><path d="m370.324 290.447h-9.865v8.067h11.46v2.455h-14.462v-22.765h14.306v2.454h-11.304v7.333h9.865z"/><path d="m402.374 292.058v8.912h-3.002v-22.765h8.396c2.491 0 4.442.636 5.855 1.907 1.412 1.271 2.118 2.955 2.118 5.05 0 2.21-.69 3.911-2.071 5.104-1.382 1.193-3.359 1.79-5.934 1.79zm0-2.454h5.394c1.604 0 2.835-.379 3.689-1.136.854-.758 1.282-1.852 1.282-3.281 0-1.357-.428-2.443-1.282-3.258s-2.027-1.237-3.518-1.27h-5.565z"/><path d="m458.082 280.66h-7.316v20.311h-2.985v-20.311h-7.303v-2.454h17.604z"/><path d="m537.621 300.97h-3.019v-10.522h-11.476v10.522h-3.002v-22.765h3.002v9.787h11.476v-9.787h3.019z"/><path d="m584.181 290.322c0 2.231-.376 4.178-1.126 5.84-.751 1.663-1.813 2.933-3.188 3.808-1.376.876-2.981 1.313-4.815 1.313-1.793 0-3.383-.439-4.769-1.32-1.387-.881-2.463-2.137-3.229-3.769-.767-1.631-1.159-3.521-1.181-5.667v-1.644c0-2.188.381-4.122 1.142-5.8.762-1.678 1.837-2.963 3.229-3.854 1.392-.892 2.982-1.336 4.775-1.336 1.823 0 3.433.439 4.823 1.319 1.393.883 2.462 2.158 3.213 3.831.75 1.673 1.126 3.619 1.126 5.839zm-2.987-1.469c0-2.699-.542-4.771-1.626-6.214-1.085-1.444-2.602-2.166-4.551-2.166-1.896 0-3.391.722-4.479 2.166-1.089 1.442-1.649 3.446-1.681 6.011v1.673c0 2.617.55 4.673 1.648 6.168 1.1 1.496 2.613 2.244 4.542 2.244 1.938 0 3.439-.706 4.503-2.119 1.063-1.412 1.61-3.437 1.643-6.073v-1.69z"/><path d="m628.426 278.206v15.479c-.011 2.146-.686 3.903-2.024 5.27-1.34 1.365-3.155 2.132-5.448 2.299l-.798.03c-2.491 0-4.478-.672-5.956-2.017-1.48-1.346-2.23-3.194-2.252-5.552v-15.509h2.971v15.415c0 1.647.453 2.927 1.36 3.839.906.912 2.198 1.368 3.877 1.368 1.699 0 3-.454 3.9-1.359.901-.907 1.354-2.185 1.354-3.831v-15.432z"/><path d="m663.587 290.823c-2.575-.74-4.448-1.649-5.621-2.729-1.172-1.079-1.759-2.41-1.759-3.994 0-1.793.717-3.276 2.15-4.448 1.433-1.173 3.296-1.759 5.589-1.759 1.563 0 2.957.302 4.183.905 1.226.604 2.173 1.438 2.845 2.503.674 1.063 1.01 2.226 1.01 3.485h-3.019c0-1.381-.438-2.466-1.313-3.256-.875-.789-2.11-1.185-3.705-1.185-1.48 0-2.636.325-3.463.979-.829.652-1.243 1.558-1.243 2.717 0 .931.394 1.716 1.181 2.357.787.643 2.126 1.229 4.019 1.763 1.893.532 3.371 1.119 4.439 1.76 1.068.643 1.86 1.39 2.377 2.244s.773 1.86.773 3.018c0 1.846-.719 3.321-2.157 4.433s-3.361 1.665-5.771 1.665c-1.563 0-3.021-.3-4.378-.897-1.354-.601-2.398-1.42-3.135-2.464-.733-1.042-1.102-2.226-1.102-3.549h3.018c0 1.376.508 2.462 1.524 3.26s2.373 1.196 4.072 1.196c1.584 0 2.799-.323 3.643-.97.845-.646 1.267-1.526 1.267-2.644 0-1.114-.391-1.978-1.173-2.587-.78-.607-2.198-1.209-4.251-1.803z"/><path d="m712.46 290.447h-9.865v8.067h11.46v2.455h-14.462v-22.765h14.307v2.454h-11.305v7.333h9.865z"/></g><g><path d="m213.531 161.854v92.686h-12.734v-51.816l-16.25-21.751v73.567h-12.733v-92.686h12.733l16.25 21.441v-21.441z"/><path d="m256.949 173.644v10.887h22.724v12.682h-22.724v44.594h15.93v12.733h-28.662v-57.003h-7.329v-13.006h7.329v-22.677h28.971v11.79z"/><path d="m299.313 161.854 13.117.009 8.491 53.821 8.333-53.83h6.417.013 6.427l8.321 53.83 8.504-53.821 13.113-.009-14.858 92.686h-14.339l-7.172-49.79-7.17 49.79h-14.335z"/><path d="m452.15 254.54v-59.03l-17.408-33.656h12.592l11.219 22.617 11.076-22.617h12.744l-17.463 33.869v58.817z"/><path d="m623.133 227.366 21.441 27.188h-15.021l-16.777-22.512v22.512h-12.308v-92.684s9.415-.331 12.739.077c9.695 1.185 28.168 10.472 29.544 32.385 1.478 23.53-19.618 33.034-19.618 33.034zm-9.925-9.542s18.677-3.847 17.62-23.11c-.918-16.715-17.62-20.002-17.62-20.002z"/><path d="m696.291 180.445 16.693-18.582h-15.869l-14.069 15.677v-15.677h-12.687v92.677h12.687v-59.354l3.395-3.775 13.405 63.129h13.89z"/><path d="m533.934 161.114c-22.522 0-40.771 21.104-40.771 47.148 0 26.021 18.248 47.129 40.771 47.129 22.515 0 40.773-21.108 40.773-47.129 0-26.044-18.26-47.148-40.773-47.148zm0 82.942c-15.878 0-28.76-17.436-28.76-35.793 0-18.369 12.882-35.813 28.76-35.813 15.885 0 28.762 17.444 28.762 35.813-.002 18.358-12.879 35.793-28.762 35.793z"/><path d="m125.309 213.83299h20.068001v12.733h-20.068001z"/><path d="m731.40002 213.83299h20.065001v12.733h-20.065001z"/></g></g></svg>