<svg class="active" clip-rule="evenodd" fill-rule="evenodd" image-rendering="optimizeQuality" shape-rendering="geometricPrecision" text-rendering="geometricPrecision" viewBox="0 0 7083 9250" width="60%" xmlns="http://www.w3.org/2000/svg"><path d="m0 9250h7087v-9253h-7087z" fill="none"/><path d="m0 9250h7087v-9253h-7087z" fill="none"/><g fill="#0b45bb" fill-rule="nonzero"><path d="m882 898h919c283 0 478 74 602 198 108 108 164 248 164 431v5c0 285-151 473-380 571l441 645h-589l-372-560h-271v560h-512v-1849zm898 888c172 0 275-85 275-219v-5c0-148-108-222-277-222h-382v446h385z"/><path d="m3320 2054-705-1156h584l380 673 383-673h573l-702 1149v700h-513z" fill-opacity=".996078"/><path d="m742 7161 288-341c186 145 389 222 605 222 141 0 216-48 216-127v-5c0-79-61-119-317-180-397-90-703-201-703-579v-5c0-343 274-592 722-592 317 0 565 85 767 246l-258 362c-171-122-357-182-522-182-125 0-186 50-186 119v5c0 85 64 122 325 180 426 92 693 230 693 576v5c0 378-301 602-754 602-330 0-642-103-874-306z"/><path d="m2596 5586h513l-3 698h203l560-698h613l-768 896 805 953h-634l-576-707h-203l3 707h-513z"/><path d="m5082 6743-706-1157h584l381 674 383-674h573l-703 1149v700h-512z"/><path d="m6013 2017c-2 303-247 554-562 593v-963h541v-169h-541v-194c100-34 172-124 172-231 0-135-115-245-256-245s-256 110-256 245c0 107 72 198 172 231v194h-541v169h541v963c-315-39-560-290-562-593l-169 1c3 423 368 766 815 766s813-344 815-766zm-646-1059c58 0 106 43 106 95s-48 95-106 95c-59 0-106-43-106-95s48-95 106-95z"/><path d="m882 3243h948c232 0 396 58 505 164 74 77 119 174 119 301v5c0 214-122 341-285 412 225 74 367 201 367 452v5c0 317-259 510-700 510h-954zm1067 571c0-103-82-158-232-158h-335v325h322c156 0 246-53 246-161v-5zm-177 526h-391v341h396c158 0 246-61 246-169v-5c0-100-79-166-251-166z"/><path d="m3328 3241h491l782 1851h-546l-131-331h-712l-131 331h-533zm446 1124-205-520-207 520z"/><path d="m4774 3243h512v1400h896v449h-1408z"/><path d="m860 8328 40-48c28 23 57 37 92 37 28 0 44-11 44-29v-1c0-17-11-26-62-39-62-16-102-33-102-94v-1c0-56 45-93 108-93 45 0 83 14 114 39l-35 51c-27-19-54-30-80-30s-40 12-40 27v1c0 20 13 27 66 40 62 16 98 39 98 92v1c0 61-47 95-113 95-47 0-94-16-131-49z"/><path d="m1234 8064h126c73 0 118 44 118 106v1c0 71-55 108-125 108h-51v92h-68v-308zm121 155c34 0 54-20 54-47v-1c0-30-21-47-55-47h-52v94h54z"/><path d="m1679 8062h62l132 310h-71l-28-69h-130l-28 69h-69zm71 181-41-100-41 100z"/><path d="m1958 8219v-1c0-88 66-159 161-159 58 0 93 19 121 48l-43 50c-24-22-48-35-79-35-52 0-89 43-89 96v1c0 53 37 97 89 97 35 0 57-14 81-36l43 44c-32 34-67 55-126 55-91 0-158-70-158-158z"/><path d="m2363 8064h232v61h-165v62h145v60h-145v65h167v60h-234z"/><path d="m2932 8064h235v62h-167v66h147v61h-147v119h-68z"/><path d="m3268 8219v-1c0-88 69-159 164-159s163 71 163 158v1c0 88-69 159-164 159s-163-71-163-158zm256 0v-1c0-53-39-97-93-97-55 0-92 43-92 96v1c0 53 39 97 93 97 55 0 92-43 92-96z"/><path d="m3727 8064h141c39 0 70 11 90 31 17 17 26 41 26 70v1c0 50-27 81-66 95l75 110h-79l-66-99h-53v99h-68v-308zm136 150c33 0 52-18 52-44v-1c0-29-20-44-53-44h-67v88h69z"/><path d="m4319 8064h68v247h153v61h-221z"/><path d="m4659 8372h68v-308h-68z"/><path d="m4843 8064h75l80 217 81-217h73l-125 311h-60z"/><path d="m5269 8372h67v-308h-67z"/><path d="m5484 8064h63l144 190v-190h67v308h-58l-149-195v195h-67z"/><path d="m5889 8219v-1c0-88 68-159 161-159 55 0 89 15 121 42l-43 51c-24-20-45-31-81-31-49 0-88 44-88 96v1c0 56 39 98 93 98 25 0 47-6 64-18v-44h-68v-59h134v134c-32 27-75 49-132 49-96 0-162-67-162-158z"/></g></svg>