<svg class="active" enable-background="new 0 0 841.9 595.3" viewBox="0 0 841.9 595.3" xmlns="http://www.w3.org/2000/svg"><g transform="matrix(3.5719176 0 0 3.4664702 -1085.502 -737.68424)"><path d="m359.7 377.5c-.1 1.2-.5 2.2-1.4 2.9-.8.7-1.9 1.1-3.2 1.1-1.5 0-2.6-.5-3.4-1.5s-1.3-2.3-1.3-4v-.7c0-1.1.2-2.1.6-2.9s.9-1.5 1.6-1.9 1.5-.7 2.5-.7c1.3 0 2.4.4 3.2 1.1s1.3 1.7 1.4 3h-2.3c-.1-.7-.3-1.3-.6-1.6-.4-.3-.9-.5-1.6-.5-.8 0-1.4.3-1.8.8-.4.6-.6 1.4-.6 2.6v.9c0 1.2.2 2.1.6 2.7s1 .8 1.8.8c.7 0 1.3-.2 1.6-.5.4-.3.6-.8.6-1.5h2.3z"/><path d="m369.5 381.3h-2.3v-11.4h2.3z"/><path d="m385.7 371.8h-3.5v9.5h-2.3v-9.5h-3.4v-1.9h9.3v1.9z"/><path d="m396.9 375 2.4-5.1h2.6l-3.7 7.2v4.1h-2.4v-4.1l-3.7-7.2h2.6z"/><path d="m427.5 381.3h-2.3v-4.9h-4.6v4.9h-2.3v-11.4h2.3v4.6h4.6v-4.6h2.3z"/><path d="m444.7 375.9c0 1.1-.2 2.1-.6 2.9s-1 1.5-1.7 2-1.6.7-2.5.7-1.8-.2-2.5-.7-1.3-1.1-1.7-1.9-.6-1.8-.6-2.9v-.6c0-1.1.2-2.1.6-3 .4-.8 1-1.5 1.7-2s1.6-.7 2.5-.7 1.8.2 2.5.7 1.3 1.1 1.7 2 .6 1.8.6 2.9zm-2.4-.6c0-1.2-.2-2.1-.6-2.7s-1-.9-1.8-.9-1.4.3-1.8.9-.6 1.5-.6 2.7v.6c0 1.2.2 2.1.6 2.7s1 1 1.8 1 1.4-.3 1.8-.9.6-1.5.6-2.7z"/><path d="m460.7 369.9v7.5c0 1.2-.4 2.2-1.2 2.9s-1.8 1.1-3.2 1.1c-1.3 0-2.4-.4-3.2-1.1s-1.2-1.7-1.2-2.9v-7.6h2.3v7.5c0 .7.2 1.3.5 1.6.4.3.8.5 1.5.5 1.3 0 2-.7 2-2.1v-7.6h2.5z"/><path d="m474.3 378.3c0-.4-.2-.8-.5-1s-.9-.5-1.7-.7c-.8-.3-1.5-.5-1.9-.8-1.3-.7-1.9-1.6-1.9-2.8 0-.6.2-1.2.5-1.6.3-.5.8-.9 1.5-1.1.6-.3 1.4-.4 2.2-.4s1.5.1 2.2.4c.6.3 1.1.7 1.5 1.2s.5 1.1.5 1.8h-2.3c0-.5-.2-.9-.5-1.2s-.8-.4-1.4-.4-1 .1-1.3.4c-.3.2-.5.6-.5 1s.2.7.6.9.9.5 1.6.7c1.3.4 2.3.9 2.9 1.5s.9 1.3.9 2.2c0 1-.4 1.8-1.1 2.3-.7.6-1.7.8-3 .8-.9 0-1.7-.2-2.4-.5s-1.3-.8-1.6-1.3-.6-1.2-.6-1.9h2.3c0 1.3.8 1.9 2.2 1.9.6 0 1-.1 1.3-.3.3-.4.5-.7.5-1.1z"/><path d="m490.8 376.3h-4.5v3.1h5.3v1.9h-7.6v-11.4h7.6v1.9h-5.3v2.7h4.5z"/><path d="m306.7 341.5c0-.2.1-.3.2-.4s.2-.1.4-.1h3.4c.1 0 .3 0 .4.1s.2.2.2.4v4.3c0 .3.2.5.5.5h5c.1 0 .3 0 .4-.1s.2-.2.2-.4v-6.8c0-.1 0-.3-.1-.5s-.2-.3-.3-.4l-9.6-7.8c-.3-.2-.4-.5-.4-.8v-10.3c0-.1 0-.3.1-.5s.1-.3.3-.4l2.8-3.2c.1-.1.2-.2.4-.3s.3-.1.5-.1h7.1c.3 0 .6.1.9.4l2.6 3.2c.1.1.2.3.2.4.1.2.1.3.1.5v4.2c0 .1 0 .3-.1.4s-.2.2-.4.2h-3.3c-.1 0-.3-.1-.4-.2s-.1-.2-.1-.4v-4.2c0-.1-.1-.3-.2-.4s-.2-.1-.4-.1h-5c-.3 0-.5.2-.5.5v8.4c0 .1 0 .3.1.5s.2.3.3.4l9.6 7.8c.1.1.2.2.3.4s.1.3.1.5v8.7c0 .1 0 .3-.1.5s-.1.3-.2.4l-2.6 3.2c-.1.1-.3.2-.4.3-.2.1-.3.1-.4.1h-7.1c-.1 0-.3 0-.5-.1s-.3-.2-.4-.3l-2.8-3.2c-.1-.1-.2-.3-.3-.4-.1-.2-.1-.3-.1-.5v-4.4z"/><path d="m323.9 346.9c0-.1.1-.3.2-.4s.2-.2.4-.2h1c.3 0 .5-.2.6-.5l5.1-26.6c0-.1 0-.3-.1-.4s-.2-.1-.4-.1h-.4c-.1 0-.3-.1-.4-.2s-.1-.2-.1-.4v-2.9c0-.1 0-.3.1-.4s.2-.2.4-.2h7.5c.1 0 .3.1.4.2s.2.2.2.4v2.9c0 .1-.1.3-.2.4s-.2.2-.4.2h-.3c-.3 0-.5.2-.4.5l5.1 26.6c0 .1.1.3.2.4s.2.1.4.1h.9c.1 0 .3.1.4.2s.1.2.1.4v2.9c0 .1 0 .3-.1.4s-.2.2-.4.2h-6.9c-.1 0-.3-.1-.4-.2s-.2-.2-.2-.4v-2.9c0-.1.1-.3.2-.4s.2-.2.4-.2h1.2c.3 0 .5-.2.4-.5l-1.2-5.9c0-.1-.1-.3-.2-.4s-.2-.1-.4-.1h-4.9c-.3 0-.5.2-.6.5l-1.1 5.9c0 .1 0 .3.1.4s.2.1.3.1h1.1c.1 0 .3.1.4.2s.2.2.2.4v2.9c0 .1-.1.3-.2.4s-.2.2-.4.2h-7c-.1 0-.3-.1-.4-.2s-.2-.2-.2-.4zm8.1-12c0 .1 0 .3.1.4s.2.1.4.1h3.3c.3 0 .5-.2.4-.5l-2-10.4c-.1-.3-.1-.3-.2 0z"/><path d="m352.7 314.8c.1 0 .3 0 .4.1s.2.2.3.4l6 19.7c0 .1.1.2.1.2s0-.1 0-.2v-15.7c0-.1-.1-.3-.2-.4s-.2-.1-.4-.1h-1.4c-.1 0-.3-.1-.4-.2s-.2-.2-.2-.4v-2.9c0-.1.1-.3.2-.4s.2-.2.4-.2h7.8c.1 0 .3.1.4.2s.2.2.2.4v2.9c0 .1-.1.3-.2.4s-.2.2-.4.2h-1c-.3 0-.5.2-.5.5v30.5c0 .1-.1.3-.2.4s-.2.2-.4.2h-3.2c-.1 0-.3 0-.4-.1s-.2-.2-.3-.4l-6.7-22c0-.1-.1-.2-.1-.2v.2 17.9c0 .3.2.5.5.5h1c.1 0 .3.1.4.2s.2.2.2.4v2.9c0 .1-.1.3-.2.4s-.2.2-.4.2h-7.5c-.1 0-.3-.1-.4-.2s-.2-.2-.2-.4v-2.9c0-.1.1-.3.2-.4s.2-.2.4-.2h1c.1 0 .3 0 .4-.1s.2-.2.2-.4v-26.6c0-.1-.1-.3-.2-.4s-.2-.1-.4-.1h-1c-.1 0-.3-.1-.4-.2s-.2-.2-.2-.4v-2.9c0-.1.1-.3.2-.4s.2-.2.4-.2h6.2z"/><path d="m385.7 334.5c0-.1-.1-.3-.2-.4s-.2-.2-.4-.2h-1.7c-.1 0-.3.1-.4.2s-.1.2-.1.4v11.3c0 .3.2.5.5.5h1.4c.1 0 .3.1.3.2.1.1.1.2.1.4v2.9c0 .1 0 .3-.1.4s-.2.2-.4.2h-7.7c-.1 0-.3-.1-.4-.2s-.2-.2-.2-.4v-2.9c0-.1.1-.3.2-.4s.2-.2.4-.2h1c.1 0 .3 0 .4-.1s.2-.2.2-.4v-26.6c0-.1-.1-.3-.2-.4s-.2-.1-.4-.1h-1c-.1 0-.3-.1-.4-.2s-.2-.2-.2-.4v-2.9c0-.1.1-.3.2-.4s.2-.2.4-.2h14c.1 0 .3.1.4.2s.1.2.1.4v8.1c0 .1 0 .3-.1.4s-.2.2-.4.2h-2.9c-.1 0-.3-.1-.4-.2s-.1-.2-.1-.4v-4.2c0-.1-.1-.3-.2-.4s-.2-.1-.4-.1h-3.6c-.3 0-.5.2-.5.5v10.2c0 .1 0 .3.1.4s.2.2.4.2h1.7c.1 0 .3-.1.4-.2s.2-.2.2-.4v-1.6c0-.3.2-.5.5-.5h3.2c.1 0 .3 0 .4.1s.2.2.2.4v8c0 .1-.1.3-.2.4s-.2.2-.4.2h-3.2c-.1 0-.3-.1-.4-.2s-.1-.2-.1-.4z"/><path d="m395.2 346.3c.1 0 .3 0 .4-.1s.2-.2.2-.4v-26.6c0-.1-.1-.3-.2-.4s-.2-.1-.4-.1h-1c-.1 0-.3-.1-.4-.2s-.2-.2-.2-.4v-2.9c0-.1.1-.3.2-.4s.2-.2.4-.2h10.7c.1 0 .3 0 .5.1s.3.2.4.3l2.7 3.2c.1.1.2.3.2.4.1.2.1.3.1.5v12.5c0 .1 0 .3-.1.5s-.1.3-.2.5l-2.1 2.7c-.2.3-.2.6-.1.9l4.9 9.6c.2.3.4.5.7.5h.9c.1 0 .3.1.4.2s.2.2.2.4v2.9c0 .1-.1.3-.2.4s-.2.2-.4.2h-7.7c-.1 0-.3-.1-.4-.2s-.1-.2-.1-.4v-2.9c0-.1 0-.3.1-.4s.2-.2.4-.2h1c.1 0 .2 0 .3-.1 0-.1 0-.2 0-.3l-4.7-9.1c0-.1-.1-.2-.3-.3s-.3-.1-.4-.1h-.4c-.3 0-.5.2-.5.5v9c0 .3.2.5.5.5h1.4c.1 0 .3.1.4.2s.1.2.1.4v2.9c0 .1 0 .3-.1.4s-.2.2-.4.2h-7.8c-.1 0-.3-.1-.4-.2s-.2-.2-.2-.4v-2.9c0-.1.1-.3.2-.4s.2-.2.4-.2h1zm5.5-27.5c-.3 0-.5.2-.5.5v12.5c0 .1 0 .3.1.4s.2.2.4.2h3.2c.1 0 .3-.1.4-.2s.2-.2.2-.4v-10c0-.1 0-.3-.1-.5s-.1-.3-.2-.5l-.9-1.6c-.1-.1-.2-.2-.3-.3-.2-.1-.3-.1-.4-.1z"/><path d="m415.3 346.9c0-.1.1-.3.2-.4s.2-.2.4-.2h1c.3 0 .5-.2.6-.5l5.1-26.6c0-.1 0-.3-.1-.4s-.2-.1-.4-.1h-.4c-.1 0-.3-.1-.4-.2s-.1-.2-.1-.4v-2.9c0-.1 0-.3.1-.4s.2-.2.4-.2h7.5c.1 0 .3.1.4.2s.2.2.2.4v2.9c0 .1-.1.3-.2.4s-.2.2-.4.2h-.2c-.3 0-.5.2-.4.5l5.1 26.6c0 .1.1.3.2.4s.2.1.4.1h.9c.1 0 .3.1.4.2s.1.2.1.4v2.9c0 .1 0 .3-.1.4s-.2.2-.4.2h-6.9c-.1 0-.3-.1-.4-.2s-.2-.2-.2-.4v-2.9c0-.1.1-.3.2-.4s.2-.2.4-.2h1.2c.3 0 .5-.2.4-.5l-1.2-5.9c0-.1-.1-.3-.2-.4s-.2-.1-.4-.1h-4.9c-.3 0-.5.2-.6.5l-1.1 5.9c0 .1 0 .3.1.4s.2.1.3.1h1.1c.1 0 .3.1.4.2s.2.2.2.4v2.9c0 .1-.1.3-.2.4s-.2.2-.4.2h-7c-.1 0-.3-.1-.4-.2s-.2-.2-.2-.4v-2.9zm8.2-12c0 .1 0 .3.1.4s.2.1.4.1h3.3c.3 0 .5-.2.4-.5l-2-10.4c-.1-.3-.1-.3-.2 0z"/><path d="m444.1 314.8c.1 0 .3 0 .4.1s.2.2.3.4l6 19.7c0 .1.1.2.1.2s0-.1 0-.2v-15.7c0-.1-.1-.3-.2-.4s-.2-.1-.4-.1h-1.3c-.1 0-.3-.1-.4-.2s-.2-.2-.2-.4v-2.9c0-.1.1-.3.2-.4s.2-.2.4-.2h7.8c.1 0 .3.1.4.2s.2.2.2.4v2.9c0 .1-.1.3-.2.4s-.2.2-.4.2h-1c-.3 0-.5.2-.5.5v30.5c0 .1-.1.3-.2.4s-.2.2-.4.2h-3.4c-.1 0-.3 0-.4-.1s-.2-.2-.3-.4l-6.7-22c0-.1-.1-.2-.1-.2v.2 17.9c0 .3.2.5.5.5h1c.1 0 .3.1.4.2s.2.2.2.4v2.9c0 .1-.1.3-.2.4s-.2.2-.4.2h-7.3c-.1 0-.3-.1-.4-.2s-.2-.2-.2-.4v-2.9c0-.1.1-.3.2-.4s.2-.2.4-.2h1c.1 0 .3 0 .4-.1s.2-.2.2-.4v-26.6c0-.1-.1-.3-.2-.4s-.2-.1-.4-.1h-1c-.1 0-.3-.1-.4-.2s-.2-.2-.2-.4v-2.9c0-.1.1-.3.2-.4s.2-.2.4-.2h6.1z"/><path d="m464 350.3c-.1 0-.3 0-.5-.1s-.3-.2-.4-.3l-2.7-3.2c-.1-.1-.2-.3-.3-.4-.1-.2-.1-.3-.1-.5v-26.6c0-.1 0-.3.1-.5s.1-.3.3-.4l2.7-3.2c.1-.1.2-.2.4-.3s.3-.1.5-.1h6.8c.1 0 .3 0 .5.1s.3.2.4.3l2.6 3.2c.1.1.2.3.2.4.1.2.1.3.1.5v4.2c0 .1-.1.3-.2.4s-.2.2-.4.2h-3.4c-.1 0-.3-.1-.4-.2s-.2-.2-.2-.4v-4.2c0-.1-.1-.3-.2-.4s-.2-.1-.4-.1h-4.4c-.3 0-.5.2-.5.5v26.6c0 .3.2.5.5.5h4.6c.1 0 .3 0 .4-.1s.2-.2.2-.4v-4.3c0-.2.1-.3.2-.4s.2-.1.4-.1h3.4c.1 0 .3 0 .4.1s.2.2.2.4v4.3c0 .1 0 .3-.1.5s-.2.3-.2.4l-2.6 3.2c-.1.1-.2.2-.4.3s-.3.1-.5.1z"/><path d="m476.5 346.9c0-.1.1-.3.2-.4s.2-.2.4-.2h1c.1 0 .3 0 .4-.1s.2-.2.2-.4v-26.6c0-.1-.1-.3-.2-.4s-.2-.1-.4-.1h-1c-.1 0-.3-.1-.4-.2s-.2-.2-.2-.4v-2.9c0-.1.1-.3.2-.4s.2-.2.4-.2h7.5c.1 0 .3.1.4.2s.2.2.2.4v2.9c0 .1-.1.3-.2.4s-.2.2-.4.2h-1c-.3 0-.5.2-.5.5v26.6c0 .3.2.5.5.5h1c.1 0 .3.1.4.2s.2.2.2.4v2.9c0 .1-.1.3-.2.4s-.2.2-.4.2h-7.6c-.1 0-.3-.1-.4-.2s-.2-.2-.2-.4v-2.9z"/><path d="m487.6 341.5c0-.2.1-.3.2-.4s.2-.1.4-.1h3.4c.1 0 .3 0 .4.1s.2.2.2.4v4.3c0 .3.2.5.5.5h5c.1 0 .3 0 .4-.1s.2-.2.2-.4v-6.8c0-.1 0-.3-.1-.5s-.2-.3-.3-.4l-9.6-7.8c-.3-.2-.4-.5-.4-.8v-10.3c0-.1 0-.3.1-.5s.1-.3.3-.4l2.8-3.2c.1-.1.2-.2.4-.3s.3-.1.5-.1h7.1c.3 0 .6.1.9.4l2.6 3.2c.1.1.2.3.2.4.1.2.1.3.1.5v4.2c0 .1 0 .3-.1.4s-.2.2-.4.2h-3.3c-.1 0-.3-.1-.4-.2s-.1-.2-.1-.4v-4.2c0-.1-.1-.3-.2-.4s-.2-.1-.4-.1h-5c-.3 0-.5.2-.5.5v8.4c0 .1 0 .3.1.5s.2.3.3.4l9.6 7.8c.1.1.2.2.3.4s.1.3.1.5v8.7c0 .1 0 .3-.1.5s-.1.3-.2.4l-2.6 3.2c-.1.1-.3.2-.4.3-.2.1-.3.1-.4.1h-7.1c-.1 0-.3 0-.5-.1s-.3-.2-.4-.3l-2.8-3.2c-.1-.1-.2-.3-.3-.4-.1-.2-.1-.3-.1-.5v-4.4z"/><path d="m508.8 350.3c-.1 0-.3 0-.5-.1s-.3-.2-.4-.3l-2.7-3.2c-.1-.1-.2-.3-.3-.4-.1-.2-.1-.3-.1-.5v-26.6c0-.1 0-.3.1-.5s.1-.3.3-.4l2.7-3.2c.1-.1.2-.2.4-.3s.3-.1.5-.1h6.8c.1 0 .3 0 .5.1s.3.2.4.3l2.6 3.2c.1.1.2.3.2.4.1.2.1.3.1.5v4.2c0 .1-.1.3-.2.4s-.2.2-.4.2h-3.4c-.1 0-.3-.1-.4-.2s-.2-.2-.2-.4v-4.2c0-.1-.1-.3-.2-.4s-.2-.1-.4-.1h-4.6c-.3 0-.5.2-.5.5v26.6c0 .3.2.5.5.5h4.6c.1 0 .3 0 .4-.1s.2-.2.2-.4v-4.3c0-.2.1-.3.2-.4s.2-.1.4-.1h3.4c.1 0 .3 0 .4.1s.2.2.2.4v4.3c0 .1 0 .3-.1.5s-.2.3-.2.4l-2.6 3.2c-.1.1-.2.2-.4.3s-.3.1-.5.1z"/><path d="m531.79999 329v-.10001"/><path d="m524.9 315c-.2.1-.3.2-.4.3l-2.7 3.2c-.1.1-.2.3-.3.4-.1.2-.1.3-.1.5v9.6 3.7 3.7 9.6c0 .1 0 .3.1.5s.1.3.3.4l2.7 3.2c.1.1.2.2.4.3s.3.1.5.1h7.1c.1 0 .3 0 .4-.1.2-.1.3-.2.4-.3l2.6-3.2c.1-.1.2-.3.2-.4.1-.2.1-.3.1-.5v-13.3-13.3c0-.1 0-.3-.1-.5s-.1-.3-.2-.4l-2.6-3.2c-.1-.1-.3-.2-.4-.3-.2-.1-.3-.1-.4-.1h-7.1c-.2 0-.4 0-.5.1zm.9 21.4v-3.7-3.7m0 0v-9.6c0-.3.2-.5.5-.5h4.9c.3 0 .5.2.5.5v9.6 3.7 3.7 9.6c0 .3-.2.5-.5.5h-4.9c-.3 0-.5-.2-.5-.5v-9.6"/><path d="m531.79999 336.5v-.10001"/><path d="m397.1 256.5c-.4-1.2-1.8-1.9-3-1.4-.6.2-1.1.6-1.3 1.2l-.6-.3c.3-.7 1-1.3 1.7-1.5 1.1-.4 2.3-.1 3.1.7.2-1.1.9-2 2-2.4.8-.3 1.6-.2 2.3.1l-.3.6c-.6-.3-1.2-.3-1.8-.1-1.2.4-1.9 1.8-1.4 3z" fill="#be1e2d"/><path d="m402.4 256.5c-.1-.6-.7-1.1-1.3-1-.3 0-.6.2-.8.4l-.5-.4c.3-.4.7-.6 1.2-.7.6-.1 1.2.2 1.6.6.3-.5.8-.9 1.4-1 .5-.1 1 .1 1.3.4l-.4.5c-.2-.2-.6-.3-.9-.2-.6.1-1.1.7-1 1.3z" fill="#be1e2d"/><path d="m429.2 267.8c3-.2 5.7 1.6 6.5 4.5l.1.4.3-.2c1.1-.5 2.5-.5 3.5.2l.3.2.2-.2c.9-1.2 2.2-2 3.7-2.1h1.2c1.1.2 2.2.7 2.9 1.6l.3.3.2-.3c1.1-1.5 2.7-2.4 4.5-2.5.5 0 1 0 1.5.1.4.1.9.2 1.3.4l.4.2.1-.5c.3-1.9 1.7-3.5 3.4-4 0-.2 0-.4 0-.7-2 .6-3.6 2.2-4 4.3-.4-.1-.7-.2-1.1-.3-.5-.1-1.1-.1-1.6-.1-1.9.2-3.6 1.1-4.7 2.5-.8-.8-1.9-1.3-3-1.5-.4-.1-.9-.1-1.3 0-1.6.1-3 .9-4 2.1-1.1-.6-2.4-.7-3.5-.2-1-3-3.9-4.9-7.1-4.6-.1 0-.2 0-.3 0 0 .2.1.4.1.6 0-.2 0-.2.1-.2z" fill="#ef4136"/><path d="m419.1 266.9c-2.6 1.4-3.9 4.5-3.1 7.3l.1.4h-.4c-1.2.2-2.3.9-2.9 2l-.1.3-.3-.1c-1.4-.6-2.9-.5-4.2.2-.4.2-.7.4-1 .7-.9.8-1.4 1.8-1.6 2.9l-.1.4-.4-.1c-1.7-.7-3.6-.5-5.2.3-.4.2-.8.5-1.2.8-.3.3-.6.6-.9 1l-.2.3-.3-.4c-1.3-1.5-3.3-2-5.1-1.5-.1-.2-.2-.4-.4-.6 2-.6 4.2-.1 5.7 1.5.2-.3.5-.6.8-.8.4-.4.9-.7 1.3-.9 1.6-.9 3.6-1 5.3-.4.3-1.1.9-2.1 1.8-2.9.3-.3.7-.6 1.1-.8 1.4-.7 3-.9 4.5-.3.6-1.1 1.6-1.8 2.8-2.1-.7-3 .7-6.2 3.5-7.7.1 0 .2-.1.2-.1.1.2.2.4.3.6.1 0 .1 0 0 0z" fill="#ef4136"/><path d="m418.2 247.8h-3.1v-12l1.5-.4 2.8-.2-1.2 1.3z" fill="#be1e2d"/><path d="m418 252.4 6.6.2h-4.7l-1.2 1.1v11.7l1.9.9h-5l-.5-1.8v-11.7z" fill="#be1e2d"/><path d="m420.7 272.5-1.5 1v15.4l2.3.2-5.4 1.1-1.7-2.6.7-14.2 1.6-1.2z" fill="#be1e2d"/><path d="m461.2 261.2c-1.8-1.7-3.6-3.4-5-4.8-5.6-5.6-28.3-30.3-28.3-30.3l-.6 2.4.6 13.6v45.5l1.5 4.6h3.2v-3.8h-.6v-22.9h-.5v-19.7h-.5v-13.8s19.8 20.9 23.7 25c1.2 1.3 3.4 3.4 5.7 5.6.3-.4.5-.9.8-1.4z" fill="#be1e2d"/><path d="m458.4 268.1c-3.6-2.8-7-5.5-8.4-6.8-3.6-3.2-17.8-16.5-17.8-16.5v1.8s12.8 11.8 17 15.5c1.7 1.6 5.4 4.4 9 7.3 0-.5.1-.9.2-1.3z" fill="#be1e2d"/><path d="m421.2 236.1h1.6l1.9 1.8v1.7z" fill="#be1e2d"/><path d="m430.60001 265.60001h.3v26.200001h-.3z" fill="#ef4136"/><path d="m429.60001 245.89999h.3v19.700001h-.3z" fill="#ef4136"/><path d="m429 230.39999h.3v15.4h-.3z" fill="#ef4136"/><path d="m416.5 274.5h.3v14.6h-.3z" fill="#ef4136"/><path d="m416.60001 253.89999h.3v11.6h-.3z" fill="#ef4136"/><path d="m416.89999 236.5h.3v11.3h-.3z" fill="#ef4136"/><path d="m429.1 288.4v-22.8h-.5v-19.7h-.4v-15.4h-.4v-5.5h-.8l-.1.9-7.1 4h-3l-1.4-1.4v-1.2h-1.1v1.2h-.9l-28.7 13.9c-.2.7-.3 1.5-.6 2.2l28.5-14.2v3.6l-28.9 15.8c-.1.7-.2 1.5-.4 2.3l43-24.5.4-.6v1.3l-13.6 8.2v10.3h-.4v18.6h-.6v27.4h17.8v-4.5h-.8zm-3.9-.2-.7.6h-7.6l-1.2-.5v-14.9l1.4-.9h7.2l.8.5v15.2zm.2-23.4-1.2 1.2h-7l-1.6-.9v-11.5l1.2-1h7.4l1.1.6v11.6zm-.2-18.2-.6 1h-8.1l-.9-.9v-10.1l.9-1.1h8.9z" fill="#ef4136"/><path d="m421.9 216.8c10.1 0 19.6 3.9 26.8 11.1s11.1 16.7 11.1 26.8-3.9 19.6-11.1 26.8-16.7 11.1-26.8 11.1-19.6-3.9-26.8-11.1-11.1-16.7-11.1-26.8 3.9-19.6 11.1-26.8c7.2-7.1 16.7-11.1 26.8-11.1m0-2c-22 0-39.9 17.8-39.9 39.9s17.8 39.9 39.9 39.9c22 0 39.9-17.8 39.9-39.9s-17.8-39.9-39.9-39.9z" fill="#ef4136"/><g fill="#be1e2d"><path d="m423.89999 266.70001h.3v1.8h-.3z"/><path d="m422.70001 266.70001h.3v1.8h-.3z"/><path d="m421.39999 266.70001h.3v1.8h-.3z"/><path d="m420.20001 266.70001h.3v1.8h-.3z"/><path d="m419 266.70001h.3v1.8h-.3z"/><path d="m417.79999 266.70001h.3v1.8h-.3z"/><path d="m416.60001 266.70001h.3v1.8h-.3z"/><path d="m423.89999 248.39999h.3v1.1h-.3z"/><path d="m416.60001 251.39999h7.5v.3h-7.5z"/><path d="m416.89999 234.5h7.3v.3h-7.3z"/><path d="m416.60001 270.89999h7.5v.3h-7.5z"/><path d="m427.89999 265.5h.3v24.4h-.3z"/><path d="m427.29999 245.89999h.3v19.700001h-.3z"/><path d="m426.79999 230.39999h.3v15.4h-.3z"/><path d="m413.20001 265.5h.3v24.4h-.3z"/><path d="m413.70001 245.89999h.3v19.700001h-.3z"/><path d="m414.5 245.9h-.2v-10l.2-.2z"/><path d="m414.29999 230.39999h.3v2.7h-.3z"/><path d="m423.89999 290h.3v1.8h-.3z"/><path d="m422.70001 290h.3v1.8h-.3z"/><path d="m421.39999 290h.3v1.8h-.3z"/><path d="m420.20001 290h.3v1.8h-.3z"/><path d="m419 290h.3v1.8h-.3z"/><path d="m417.79999 290h.3v1.8h-.3z"/><path d="m416.60001 290h.3v1.8h-.3z"/><path d="m422.70001 248.39999h.3v1.1h-.3z"/><path d="m421.39999 248.39999h.3v1.1h-.3z"/><path d="m420.20001 248.39999h.3v1.1h-.3z"/><path d="m419 248.39999h.3v1.1h-.3z"/><path d="m417.79999 248.39999h.3v1.1h-.3z"/><path d="m416.60001 248.39999h.3v1.1h-.3z"/><path d="m423.89999 232.60001h.3v.6h-.3z"/><path d="m422.70001 232.60001h.3v.6h-.3z"/><path d="m421.39999 232.60001h.3v.6h-.3z"/><path d="m420.20001 232.60001h.3v.6h-.3z"/></g></g></svg>