<svg
   xmlns:dc="http://purl.org/dc/elements/1.1/"
   xmlns:cc="http://creativecommons.org/ns#"
   xmlns:rdf="http://www.w3.org/1999/02/22-rdf-syntax-ns#"
   xmlns:svg="http://www.w3.org/2000/svg"
   xmlns="http://www.w3.org/2000/svg"
   xmlns:sodipodi="http://sodipodi.sourceforge.net/DTD/sodipodi-0.dtd"
   xmlns:inkscape="http://www.inkscape.org/namespaces/inkscape"
   version="1.1"
   id="Слой_1"
   width="100%"
   x="0px"
   y="0px"
   viewBox="0 0 841.9 595.3"
   enable-background="new 0 0 841.9 595.3"
   xml:space="preserve"
   sodipodi:docname="Logo-1.svg"
   inkscape:version="0.92.3 (unknown)"><metadata
   id="metadata177"><rdf:RDF><cc:Work
       rdf:about=""><dc:format>image/svg+xml</dc:format><dc:type
         rdf:resource="http://purl.org/dc/dcmitype/StillImage" /></cc:Work></rdf:RDF></metadata><defs
   id="defs175" /><sodipodi:namedview
   pagecolor="#ffffff"
   bordercolor="#666666"
   borderopacity="1"
   objecttolerance="10"
   gridtolerance="10"
   guidetolerance="10"
   inkscape:pageopacity="0"
   inkscape:pageshadow="2"
   inkscape:window-width="1627"
   inkscape:window-height="1026"
   id="namedview173"
   showgrid="false"
   inkscape:zoom="0.39643878"
   inkscape:cx="420.95001"
   inkscape:cy="297.64999"
   inkscape:window-x="53"
   inkscape:window-y="24"
   inkscape:window-maximized="1"
   inkscape:current-layer="Слой_1" />
<g
   id="g170"
   transform="matrix(3.5719176,0,0,3.4664702,-1085.502,-737.68424)">
	<g
   id="g20">
		<path
   d="m 359.7,377.5 c -0.1,1.2 -0.5,2.2 -1.4,2.9 -0.8,0.7 -1.9,1.1 -3.2,1.1 -1.5,0 -2.6,-0.5 -3.4,-1.5 -0.8,-1 -1.3,-2.3 -1.3,-4 v -0.7 c 0,-1.1 0.2,-2.1 0.6,-2.9 0.4,-0.8 0.9,-1.5 1.6,-1.9 0.7,-0.4 1.5,-0.7 2.5,-0.7 1.3,0 2.4,0.4 3.2,1.1 0.8,0.7 1.3,1.7 1.4,3 h -2.3 c -0.1,-0.7 -0.3,-1.3 -0.6,-1.6 -0.4,-0.3 -0.9,-0.5 -1.6,-0.5 -0.8,0 -1.4,0.3 -1.8,0.8 -0.4,0.6 -0.6,1.4 -0.6,2.6 v 0.9 c 0,1.2 0.2,2.1 0.6,2.7 0.4,0.6 1,0.8 1.8,0.8 0.7,0 1.3,-0.2 1.6,-0.5 0.4,-0.3 0.6,-0.8 0.6,-1.5 h 2.3 z"
   id="path2"
   inkscape:connector-curvature="0" />
		<path
   d="m 369.5,381.3 h -2.3 v -11.4 h 2.3 z"
   id="path4"
   inkscape:connector-curvature="0" />
		<path
   d="m 385.7,371.8 h -3.5 v 9.5 h -2.3 v -9.5 h -3.4 v -1.9 h 9.3 v 1.9 z"
   id="path6"
   inkscape:connector-curvature="0" />
		<path
   d="m 396.9,375 2.4,-5.1 h 2.6 l -3.7,7.2 v 4.1 h -2.4 v -4.1 l -3.7,-7.2 h 2.6 z"
   id="path8"
   inkscape:connector-curvature="0" />
		<path
   d="m 427.5,381.3 h -2.3 v -4.9 h -4.6 v 4.9 h -2.3 v -11.4 h 2.3 v 4.6 h 4.6 v -4.6 h 2.3 z"
   id="path10"
   inkscape:connector-curvature="0" />
		<path
   d="m 444.7,375.9 c 0,1.1 -0.2,2.1 -0.6,2.9 -0.4,0.8 -1,1.5 -1.7,2 -0.7,0.5 -1.6,0.7 -2.5,0.7 -0.9,0 -1.8,-0.2 -2.5,-0.7 -0.7,-0.5 -1.3,-1.1 -1.7,-1.9 -0.4,-0.8 -0.6,-1.8 -0.6,-2.9 v -0.6 c 0,-1.1 0.2,-2.1 0.6,-3 0.4,-0.8 1,-1.5 1.7,-2 0.7,-0.5 1.6,-0.7 2.5,-0.7 0.9,0 1.8,0.2 2.5,0.7 0.7,0.5 1.3,1.1 1.7,2 0.4,0.9 0.6,1.8 0.6,2.9 z m -2.4,-0.6 c 0,-1.2 -0.2,-2.1 -0.6,-2.7 -0.4,-0.6 -1,-0.9 -1.8,-0.9 -0.8,0 -1.4,0.3 -1.8,0.9 -0.4,0.6 -0.6,1.5 -0.6,2.7 v 0.6 c 0,1.2 0.2,2.1 0.6,2.7 0.4,0.6 1,1 1.8,1 0.8,0 1.4,-0.3 1.8,-0.9 0.4,-0.6 0.6,-1.5 0.6,-2.7 z"
   id="path12"
   inkscape:connector-curvature="0" />
		<path
   d="m 460.7,369.9 v 7.5 c 0,1.2 -0.4,2.2 -1.2,2.9 -0.8,0.7 -1.8,1.1 -3.2,1.1 -1.3,0 -2.4,-0.4 -3.2,-1.1 -0.8,-0.7 -1.2,-1.7 -1.2,-2.9 v -7.6 h 2.3 v 7.5 c 0,0.7 0.2,1.3 0.5,1.6 0.4,0.3 0.8,0.5 1.5,0.5 1.3,0 2,-0.7 2,-2.1 v -7.6 h 2.5 z"
   id="path14"
   inkscape:connector-curvature="0" />
		<path
   d="m 474.3,378.3 c 0,-0.4 -0.2,-0.8 -0.5,-1 -0.3,-0.2 -0.9,-0.5 -1.7,-0.7 -0.8,-0.3 -1.5,-0.5 -1.9,-0.8 -1.3,-0.7 -1.9,-1.6 -1.9,-2.8 0,-0.6 0.2,-1.2 0.5,-1.6 0.3,-0.5 0.8,-0.9 1.5,-1.1 0.6,-0.3 1.4,-0.4 2.2,-0.4 0.8,0 1.5,0.1 2.2,0.4 0.6,0.3 1.1,0.7 1.5,1.2 0.4,0.5 0.5,1.1 0.5,1.8 h -2.3 c 0,-0.5 -0.2,-0.9 -0.5,-1.2 -0.3,-0.3 -0.8,-0.4 -1.4,-0.4 -0.6,0 -1,0.1 -1.3,0.4 -0.3,0.2 -0.5,0.6 -0.5,1 0,0.4 0.2,0.7 0.6,0.9 0.4,0.2 0.9,0.5 1.6,0.7 1.3,0.4 2.3,0.9 2.9,1.5 0.6,0.6 0.9,1.3 0.9,2.2 0,1 -0.4,1.8 -1.1,2.3 -0.7,0.6 -1.7,0.8 -3,0.8 -0.9,0 -1.7,-0.2 -2.4,-0.5 -0.7,-0.3 -1.3,-0.8 -1.6,-1.3 -0.3,-0.5 -0.6,-1.2 -0.6,-1.9 h 2.3 c 0,1.3 0.8,1.9 2.2,1.9 0.6,0 1,-0.1 1.3,-0.3 0.3,-0.4 0.5,-0.7 0.5,-1.1 z"
   id="path16"
   inkscape:connector-curvature="0" />
		<path
   d="m 490.8,376.3 h -4.5 v 3.1 h 5.3 v 1.9 H 484 v -11.4 h 7.6 v 1.9 h -5.3 v 2.7 h 4.5 z"
   id="path18"
   inkscape:connector-curvature="0" />
	</g>
	<g
   id="g54">
		<g
   id="g44">
			<path
   d="m 306.7,341.5 c 0,-0.2 0.1,-0.3 0.2,-0.4 0.1,-0.1 0.2,-0.1 0.4,-0.1 h 3.4 c 0.1,0 0.3,0 0.4,0.1 0.1,0.1 0.2,0.2 0.2,0.4 v 4.3 c 0,0.3 0.2,0.5 0.5,0.5 h 5 c 0.1,0 0.3,0 0.4,-0.1 0.1,-0.1 0.2,-0.2 0.2,-0.4 V 339 c 0,-0.1 0,-0.3 -0.1,-0.5 -0.1,-0.2 -0.2,-0.3 -0.3,-0.4 l -9.6,-7.8 c -0.3,-0.2 -0.4,-0.5 -0.4,-0.8 v -10.3 c 0,-0.1 0,-0.3 0.1,-0.5 0.1,-0.2 0.1,-0.3 0.3,-0.4 l 2.8,-3.2 c 0.1,-0.1 0.2,-0.2 0.4,-0.3 0.2,-0.1 0.3,-0.1 0.5,-0.1 h 7.1 c 0.3,0 0.6,0.1 0.9,0.4 l 2.6,3.2 c 0.1,0.1 0.2,0.3 0.2,0.4 0.1,0.2 0.1,0.3 0.1,0.5 v 4.2 c 0,0.1 0,0.3 -0.1,0.4 -0.1,0.1 -0.2,0.2 -0.4,0.2 h -3.3 c -0.1,0 -0.3,-0.1 -0.4,-0.2 -0.1,-0.1 -0.1,-0.2 -0.1,-0.4 v -4.2 c 0,-0.1 -0.1,-0.3 -0.2,-0.4 -0.1,-0.1 -0.2,-0.1 -0.4,-0.1 h -5 c -0.3,0 -0.5,0.2 -0.5,0.5 v 8.4 c 0,0.1 0,0.3 0.1,0.5 0.1,0.2 0.2,0.3 0.3,0.4 l 9.6,7.8 c 0.1,0.1 0.2,0.2 0.3,0.4 0.1,0.2 0.1,0.3 0.1,0.5 v 8.7 c 0,0.1 0,0.3 -0.1,0.5 -0.1,0.2 -0.1,0.3 -0.2,0.4 l -2.6,3.2 c -0.1,0.1 -0.3,0.2 -0.4,0.3 -0.2,0.1 -0.3,0.1 -0.4,0.1 h -7.1 c -0.1,0 -0.3,0 -0.5,-0.1 -0.2,-0.1 -0.3,-0.2 -0.4,-0.3 l -2.8,-3.2 c -0.1,-0.1 -0.2,-0.3 -0.3,-0.4 -0.1,-0.2 -0.1,-0.3 -0.1,-0.5 v -4.4 z"
   id="path22"
   inkscape:connector-curvature="0" />
			<path
   d="m 323.9,346.9 c 0,-0.1 0.1,-0.3 0.2,-0.4 0.1,-0.1 0.2,-0.2 0.4,-0.2 h 1 c 0.3,0 0.5,-0.2 0.6,-0.5 l 5.1,-26.6 c 0,-0.1 0,-0.3 -0.1,-0.4 -0.1,-0.1 -0.2,-0.1 -0.4,-0.1 h -0.4 c -0.1,0 -0.3,-0.1 -0.4,-0.2 -0.1,-0.1 -0.1,-0.2 -0.1,-0.4 v -2.9 c 0,-0.1 0,-0.3 0.1,-0.4 0.1,-0.1 0.2,-0.2 0.4,-0.2 h 7.5 c 0.1,0 0.3,0.1 0.4,0.2 0.1,0.1 0.2,0.2 0.2,0.4 v 2.9 c 0,0.1 -0.1,0.3 -0.2,0.4 -0.1,0.1 -0.2,0.2 -0.4,0.2 h -0.3 c -0.3,0 -0.5,0.2 -0.4,0.5 l 5.1,26.6 c 0,0.1 0.1,0.3 0.2,0.4 0.1,0.1 0.2,0.1 0.4,0.1 h 0.9 c 0.1,0 0.3,0.1 0.4,0.2 0.1,0.1 0.1,0.2 0.1,0.4 v 2.9 c 0,0.1 0,0.3 -0.1,0.4 -0.1,0.1 -0.2,0.2 -0.4,0.2 h -6.9 c -0.1,0 -0.3,-0.1 -0.4,-0.2 -0.1,-0.1 -0.2,-0.2 -0.2,-0.4 v -2.9 c 0,-0.1 0.1,-0.3 0.2,-0.4 0.1,-0.1 0.2,-0.2 0.4,-0.2 h 1.2 c 0.3,0 0.5,-0.2 0.4,-0.5 l -1.2,-5.9 c 0,-0.1 -0.1,-0.3 -0.2,-0.4 -0.1,-0.1 -0.2,-0.1 -0.4,-0.1 h -4.9 c -0.3,0 -0.5,0.2 -0.6,0.5 l -1.1,5.9 c 0,0.1 0,0.3 0.1,0.4 0.1,0.1 0.2,0.1 0.3,0.1 h 1.1 c 0.1,0 0.3,0.1 0.4,0.2 0.1,0.1 0.2,0.2 0.2,0.4 v 2.9 c 0,0.1 -0.1,0.3 -0.2,0.4 -0.1,0.1 -0.2,0.2 -0.4,0.2 h -7 c -0.1,0 -0.3,-0.1 -0.4,-0.2 -0.1,-0.1 -0.2,-0.2 -0.2,-0.4 z m 8.1,-12 c 0,0.1 0,0.3 0.1,0.4 0.1,0.1 0.2,0.1 0.4,0.1 h 3.3 c 0.3,0 0.5,-0.2 0.4,-0.5 l -2,-10.4 c -0.1,-0.3 -0.1,-0.3 -0.2,0 z"
   id="path24"
   inkscape:connector-curvature="0" />
			<path
   d="m 352.7,314.8 c 0.1,0 0.3,0 0.4,0.1 0.1,0.1 0.2,0.2 0.3,0.4 l 6,19.7 c 0,0.1 0.1,0.2 0.1,0.2 0,0 0,-0.1 0,-0.2 v -15.7 c 0,-0.1 -0.1,-0.3 -0.2,-0.4 -0.1,-0.1 -0.2,-0.1 -0.4,-0.1 h -1.4 c -0.1,0 -0.3,-0.1 -0.4,-0.2 -0.1,-0.1 -0.2,-0.2 -0.2,-0.4 v -2.9 c 0,-0.1 0.1,-0.3 0.2,-0.4 0.1,-0.1 0.2,-0.2 0.4,-0.2 h 7.8 c 0.1,0 0.3,0.1 0.4,0.2 0.1,0.1 0.2,0.2 0.2,0.4 v 2.9 c 0,0.1 -0.1,0.3 -0.2,0.4 -0.1,0.1 -0.2,0.2 -0.4,0.2 h -1 c -0.3,0 -0.5,0.2 -0.5,0.5 v 30.5 c 0,0.1 -0.1,0.3 -0.2,0.4 -0.1,0.1 -0.2,0.2 -0.4,0.2 H 360 c -0.1,0 -0.3,0 -0.4,-0.1 -0.1,-0.1 -0.2,-0.2 -0.3,-0.4 l -6.7,-22 c 0,-0.1 -0.1,-0.2 -0.1,-0.2 0,0 0,0.1 0,0.2 v 17.9 c 0,0.3 0.2,0.5 0.5,0.5 h 1 c 0.1,0 0.3,0.1 0.4,0.2 0.1,0.1 0.2,0.2 0.2,0.4 v 2.9 c 0,0.1 -0.1,0.3 -0.2,0.4 -0.1,0.1 -0.2,0.2 -0.4,0.2 h -7.5 c -0.1,0 -0.3,-0.1 -0.4,-0.2 -0.1,-0.1 -0.2,-0.2 -0.2,-0.4 v -2.9 c 0,-0.1 0.1,-0.3 0.2,-0.4 0.1,-0.1 0.2,-0.2 0.4,-0.2 h 1 c 0.1,0 0.3,0 0.4,-0.1 0.1,-0.1 0.2,-0.2 0.2,-0.4 v -26.6 c 0,-0.1 -0.1,-0.3 -0.2,-0.4 -0.1,-0.1 -0.2,-0.1 -0.4,-0.1 h -1 c -0.1,0 -0.3,-0.1 -0.4,-0.2 -0.1,-0.1 -0.2,-0.2 -0.2,-0.4 v -2.9 c 0,-0.1 0.1,-0.3 0.2,-0.4 0.1,-0.1 0.2,-0.2 0.4,-0.2 h 6.2 z"
   id="path26"
   inkscape:connector-curvature="0" />
			<path
   d="m 385.7,334.5 c 0,-0.1 -0.1,-0.3 -0.2,-0.4 -0.1,-0.1 -0.2,-0.2 -0.4,-0.2 h -1.7 c -0.1,0 -0.3,0.1 -0.4,0.2 -0.1,0.1 -0.1,0.2 -0.1,0.4 v 11.3 c 0,0.3 0.2,0.5 0.5,0.5 h 1.4 c 0.1,0 0.3,0.1 0.3,0.2 0.1,0.1 0.1,0.2 0.1,0.4 v 2.9 c 0,0.1 0,0.3 -0.1,0.4 -0.1,0.1 -0.2,0.2 -0.4,0.2 H 377 c -0.1,0 -0.3,-0.1 -0.4,-0.2 -0.1,-0.1 -0.2,-0.2 -0.2,-0.4 v -2.9 c 0,-0.1 0.1,-0.3 0.2,-0.4 0.1,-0.1 0.2,-0.2 0.4,-0.2 h 1 c 0.1,0 0.3,0 0.4,-0.1 0.1,-0.1 0.2,-0.2 0.2,-0.4 v -26.6 c 0,-0.1 -0.1,-0.3 -0.2,-0.4 -0.1,-0.1 -0.2,-0.1 -0.4,-0.1 h -1 c -0.1,0 -0.3,-0.1 -0.4,-0.2 -0.1,-0.1 -0.2,-0.2 -0.2,-0.4 v -2.9 c 0,-0.1 0.1,-0.3 0.2,-0.4 0.1,-0.1 0.2,-0.2 0.4,-0.2 h 14 c 0.1,0 0.3,0.1 0.4,0.2 0.1,0.1 0.1,0.2 0.1,0.4 v 8.1 c 0,0.1 0,0.3 -0.1,0.4 -0.1,0.1 -0.2,0.2 -0.4,0.2 h -2.9 c -0.1,0 -0.3,-0.1 -0.4,-0.2 -0.1,-0.1 -0.1,-0.2 -0.1,-0.4 v -4.2 c 0,-0.1 -0.1,-0.3 -0.2,-0.4 -0.1,-0.1 -0.2,-0.1 -0.4,-0.1 h -3.6 c -0.3,0 -0.5,0.2 -0.5,0.5 v 10.2 c 0,0.1 0,0.3 0.1,0.4 0.1,0.1 0.2,0.2 0.4,0.2 h 1.7 c 0.1,0 0.3,-0.1 0.4,-0.2 0.1,-0.1 0.2,-0.2 0.2,-0.4 v -1.6 c 0,-0.3 0.2,-0.5 0.5,-0.5 h 3.2 c 0.1,0 0.3,0 0.4,0.1 0.1,0.1 0.2,0.2 0.2,0.4 v 8 c 0,0.1 -0.1,0.3 -0.2,0.4 -0.1,0.1 -0.2,0.2 -0.4,0.2 h -3.2 c -0.1,0 -0.3,-0.1 -0.4,-0.2 -0.1,-0.1 -0.1,-0.2 -0.1,-0.4 z"
   id="path28"
   inkscape:connector-curvature="0" />
			<path
   d="m 395.2,346.3 c 0.1,0 0.3,0 0.4,-0.1 0.1,-0.1 0.2,-0.2 0.2,-0.4 v -26.6 c 0,-0.1 -0.1,-0.3 -0.2,-0.4 -0.1,-0.1 -0.2,-0.1 -0.4,-0.1 h -1 c -0.1,0 -0.3,-0.1 -0.4,-0.2 -0.1,-0.1 -0.2,-0.2 -0.2,-0.4 v -2.9 c 0,-0.1 0.1,-0.3 0.2,-0.4 0.1,-0.1 0.2,-0.2 0.4,-0.2 h 10.7 c 0.1,0 0.3,0 0.5,0.1 0.2,0.1 0.3,0.2 0.4,0.3 l 2.7,3.2 c 0.1,0.1 0.2,0.3 0.2,0.4 0.1,0.2 0.1,0.3 0.1,0.5 v 12.5 c 0,0.1 0,0.3 -0.1,0.5 -0.1,0.2 -0.1,0.3 -0.2,0.5 l -2.1,2.7 c -0.2,0.3 -0.2,0.6 -0.1,0.9 l 4.9,9.6 c 0.2,0.3 0.4,0.5 0.7,0.5 h 0.9 c 0.1,0 0.3,0.1 0.4,0.2 0.1,0.1 0.2,0.2 0.2,0.4 v 2.9 c 0,0.1 -0.1,0.3 -0.2,0.4 -0.1,0.1 -0.2,0.2 -0.4,0.2 h -7.7 c -0.1,0 -0.3,-0.1 -0.4,-0.2 -0.1,-0.1 -0.1,-0.2 -0.1,-0.4 v -2.9 c 0,-0.1 0,-0.3 0.1,-0.4 0.1,-0.1 0.2,-0.2 0.4,-0.2 h 1 c 0.1,0 0.2,0 0.3,-0.1 0,-0.1 0,-0.2 0,-0.3 l -4.7,-9.1 c 0,-0.1 -0.1,-0.2 -0.3,-0.3 -0.2,-0.1 -0.3,-0.1 -0.4,-0.1 h -0.4 c -0.3,0 -0.5,0.2 -0.5,0.5 v 9 c 0,0.3 0.2,0.5 0.5,0.5 h 1.4 c 0.1,0 0.3,0.1 0.4,0.2 0.1,0.1 0.1,0.2 0.1,0.4 v 2.9 c 0,0.1 0,0.3 -0.1,0.4 -0.1,0.1 -0.2,0.2 -0.4,0.2 h -7.8 c -0.1,0 -0.3,-0.1 -0.4,-0.2 -0.1,-0.1 -0.2,-0.2 -0.2,-0.4 V 347 c 0,-0.1 0.1,-0.3 0.2,-0.4 0.1,-0.1 0.2,-0.2 0.4,-0.2 h 1 z m 5.5,-27.5 c -0.3,0 -0.5,0.2 -0.5,0.5 v 12.5 c 0,0.1 0,0.3 0.1,0.4 0.1,0.1 0.2,0.2 0.4,0.2 h 3.2 c 0.1,0 0.3,-0.1 0.4,-0.2 0.1,-0.1 0.2,-0.2 0.2,-0.4 v -10 c 0,-0.1 0,-0.3 -0.1,-0.5 -0.1,-0.2 -0.1,-0.3 -0.2,-0.5 l -0.9,-1.6 c -0.1,-0.1 -0.2,-0.2 -0.3,-0.3 -0.2,-0.1 -0.3,-0.1 -0.4,-0.1 z"
   id="path30"
   inkscape:connector-curvature="0" />
			<path
   d="m 415.3,346.9 c 0,-0.1 0.1,-0.3 0.2,-0.4 0.1,-0.1 0.2,-0.2 0.4,-0.2 h 1 c 0.3,0 0.5,-0.2 0.6,-0.5 l 5.1,-26.6 c 0,-0.1 0,-0.3 -0.1,-0.4 -0.1,-0.1 -0.2,-0.1 -0.4,-0.1 h -0.4 c -0.1,0 -0.3,-0.1 -0.4,-0.2 -0.1,-0.1 -0.1,-0.2 -0.1,-0.4 v -2.9 c 0,-0.1 0,-0.3 0.1,-0.4 0.1,-0.1 0.2,-0.2 0.4,-0.2 h 7.5 c 0.1,0 0.3,0.1 0.4,0.2 0.1,0.1 0.2,0.2 0.2,0.4 v 2.9 c 0,0.1 -0.1,0.3 -0.2,0.4 -0.1,0.1 -0.2,0.2 -0.4,0.2 H 429 c -0.3,0 -0.5,0.2 -0.4,0.5 l 5.1,26.6 c 0,0.1 0.1,0.3 0.2,0.4 0.1,0.1 0.2,0.1 0.4,0.1 h 0.9 c 0.1,0 0.3,0.1 0.4,0.2 0.1,0.1 0.1,0.2 0.1,0.4 v 2.9 c 0,0.1 0,0.3 -0.1,0.4 -0.1,0.1 -0.2,0.2 -0.4,0.2 h -6.9 c -0.1,0 -0.3,-0.1 -0.4,-0.2 -0.1,-0.1 -0.2,-0.2 -0.2,-0.4 v -2.9 c 0,-0.1 0.1,-0.3 0.2,-0.4 0.1,-0.1 0.2,-0.2 0.4,-0.2 h 1.2 c 0.3,0 0.5,-0.2 0.4,-0.5 l -1.2,-5.9 c 0,-0.1 -0.1,-0.3 -0.2,-0.4 -0.1,-0.1 -0.2,-0.1 -0.4,-0.1 h -4.9 c -0.3,0 -0.5,0.2 -0.6,0.5 l -1.1,5.9 c 0,0.1 0,0.3 0.1,0.4 0.1,0.1 0.2,0.1 0.3,0.1 h 1.1 c 0.1,0 0.3,0.1 0.4,0.2 0.1,0.1 0.2,0.2 0.2,0.4 v 2.9 c 0,0.1 -0.1,0.3 -0.2,0.4 -0.1,0.1 -0.2,0.2 -0.4,0.2 h -7 c -0.1,0 -0.3,-0.1 -0.4,-0.2 -0.1,-0.1 -0.2,-0.2 -0.2,-0.4 v -2.9 z m 8.2,-12 c 0,0.1 0,0.3 0.1,0.4 0.1,0.1 0.2,0.1 0.4,0.1 h 3.3 c 0.3,0 0.5,-0.2 0.4,-0.5 l -2,-10.4 c -0.1,-0.3 -0.1,-0.3 -0.2,0 z"
   id="path32"
   inkscape:connector-curvature="0" />
			<path
   d="m 444.1,314.8 c 0.1,0 0.3,0 0.4,0.1 0.1,0.1 0.2,0.2 0.3,0.4 l 6,19.7 c 0,0.1 0.1,0.2 0.1,0.2 0,0 0,-0.1 0,-0.2 v -15.7 c 0,-0.1 -0.1,-0.3 -0.2,-0.4 -0.1,-0.1 -0.2,-0.1 -0.4,-0.1 H 449 c -0.1,0 -0.3,-0.1 -0.4,-0.2 -0.1,-0.1 -0.2,-0.2 -0.2,-0.4 v -2.9 c 0,-0.1 0.1,-0.3 0.2,-0.4 0.1,-0.1 0.2,-0.2 0.4,-0.2 h 7.8 c 0.1,0 0.3,0.1 0.4,0.2 0.1,0.1 0.2,0.2 0.2,0.4 v 2.9 c 0,0.1 -0.1,0.3 -0.2,0.4 -0.1,0.1 -0.2,0.2 -0.4,0.2 h -1 c -0.3,0 -0.5,0.2 -0.5,0.5 v 30.5 c 0,0.1 -0.1,0.3 -0.2,0.4 -0.1,0.1 -0.2,0.2 -0.4,0.2 h -3.4 c -0.1,0 -0.3,0 -0.4,-0.1 -0.1,-0.1 -0.2,-0.2 -0.3,-0.4 l -6.7,-22 c 0,-0.1 -0.1,-0.2 -0.1,-0.2 0,0 0,0.1 0,0.2 v 17.9 c 0,0.3 0.2,0.5 0.5,0.5 h 1 c 0.1,0 0.3,0.1 0.4,0.2 0.1,0.1 0.2,0.2 0.2,0.4 v 2.9 c 0,0.1 -0.1,0.3 -0.2,0.4 -0.1,0.1 -0.2,0.2 -0.4,0.2 H 438 c -0.1,0 -0.3,-0.1 -0.4,-0.2 -0.1,-0.1 -0.2,-0.2 -0.2,-0.4 v -2.9 c 0,-0.1 0.1,-0.3 0.2,-0.4 0.1,-0.1 0.2,-0.2 0.4,-0.2 h 1 c 0.1,0 0.3,0 0.4,-0.1 0.1,-0.1 0.2,-0.2 0.2,-0.4 v -26.6 c 0,-0.1 -0.1,-0.3 -0.2,-0.4 -0.1,-0.1 -0.2,-0.1 -0.4,-0.1 h -1 c -0.1,0 -0.3,-0.1 -0.4,-0.2 -0.1,-0.1 -0.2,-0.2 -0.2,-0.4 v -2.9 c 0,-0.1 0.1,-0.3 0.2,-0.4 0.1,-0.1 0.2,-0.2 0.4,-0.2 h 6.1 z"
   id="path34"
   inkscape:connector-curvature="0" />
			<path
   d="m 464,350.3 c -0.1,0 -0.3,0 -0.5,-0.1 -0.2,-0.1 -0.3,-0.2 -0.4,-0.3 l -2.7,-3.2 c -0.1,-0.1 -0.2,-0.3 -0.3,-0.4 -0.1,-0.2 -0.1,-0.3 -0.1,-0.5 v -26.6 c 0,-0.1 0,-0.3 0.1,-0.5 0.1,-0.2 0.1,-0.3 0.3,-0.4 l 2.7,-3.2 c 0.1,-0.1 0.2,-0.2 0.4,-0.3 0.2,-0.1 0.3,-0.1 0.5,-0.1 h 6.8 c 0.1,0 0.3,0 0.5,0.1 0.2,0.1 0.3,0.2 0.4,0.3 l 2.6,3.2 c 0.1,0.1 0.2,0.3 0.2,0.4 0.1,0.2 0.1,0.3 0.1,0.5 v 4.2 c 0,0.1 -0.1,0.3 -0.2,0.4 -0.1,0.1 -0.2,0.2 -0.4,0.2 h -3.4 c -0.1,0 -0.3,-0.1 -0.4,-0.2 -0.1,-0.1 -0.2,-0.2 -0.2,-0.4 v -4.2 c 0,-0.1 -0.1,-0.3 -0.2,-0.4 -0.1,-0.1 -0.2,-0.1 -0.4,-0.1 H 465 c -0.3,0 -0.5,0.2 -0.5,0.5 v 26.6 c 0,0.3 0.2,0.5 0.5,0.5 h 4.6 c 0.1,0 0.3,0 0.4,-0.1 0.1,-0.1 0.2,-0.2 0.2,-0.4 v -4.3 c 0,-0.2 0.1,-0.3 0.2,-0.4 0.1,-0.1 0.2,-0.1 0.4,-0.1 h 3.4 c 0.1,0 0.3,0 0.4,0.1 0.1,0.1 0.2,0.2 0.2,0.4 v 4.3 c 0,0.1 0,0.3 -0.1,0.5 -0.1,0.2 -0.2,0.3 -0.2,0.4 l -2.6,3.2 c -0.1,0.1 -0.2,0.2 -0.4,0.3 -0.2,0.1 -0.3,0.1 -0.5,0.1 z"
   id="path36"
   inkscape:connector-curvature="0" />
			<path
   d="m 476.5,346.9 c 0,-0.1 0.1,-0.3 0.2,-0.4 0.1,-0.1 0.2,-0.2 0.4,-0.2 h 1 c 0.1,0 0.3,0 0.4,-0.1 0.1,-0.1 0.2,-0.2 0.2,-0.4 v -26.6 c 0,-0.1 -0.1,-0.3 -0.2,-0.4 -0.1,-0.1 -0.2,-0.1 -0.4,-0.1 h -1 c -0.1,0 -0.3,-0.1 -0.4,-0.2 -0.1,-0.1 -0.2,-0.2 -0.2,-0.4 v -2.9 c 0,-0.1 0.1,-0.3 0.2,-0.4 0.1,-0.1 0.2,-0.2 0.4,-0.2 h 7.5 c 0.1,0 0.3,0.1 0.4,0.2 0.1,0.1 0.2,0.2 0.2,0.4 v 2.9 c 0,0.1 -0.1,0.3 -0.2,0.4 -0.1,0.1 -0.2,0.2 -0.4,0.2 h -1 c -0.3,0 -0.5,0.2 -0.5,0.5 v 26.6 c 0,0.3 0.2,0.5 0.5,0.5 h 1 c 0.1,0 0.3,0.1 0.4,0.2 0.1,0.1 0.2,0.2 0.2,0.4 v 2.9 c 0,0.1 -0.1,0.3 -0.2,0.4 -0.1,0.1 -0.2,0.2 -0.4,0.2 H 477 c -0.1,0 -0.3,-0.1 -0.4,-0.2 -0.1,-0.1 -0.2,-0.2 -0.2,-0.4 v -2.9 z"
   id="path38"
   inkscape:connector-curvature="0" />
			<path
   d="m 487.6,341.5 c 0,-0.2 0.1,-0.3 0.2,-0.4 0.1,-0.1 0.2,-0.1 0.4,-0.1 h 3.4 c 0.1,0 0.3,0 0.4,0.1 0.1,0.1 0.2,0.2 0.2,0.4 v 4.3 c 0,0.3 0.2,0.5 0.5,0.5 h 5 c 0.1,0 0.3,0 0.4,-0.1 0.1,-0.1 0.2,-0.2 0.2,-0.4 V 339 c 0,-0.1 0,-0.3 -0.1,-0.5 -0.1,-0.2 -0.2,-0.3 -0.3,-0.4 l -9.6,-7.8 c -0.3,-0.2 -0.4,-0.5 -0.4,-0.8 v -10.3 c 0,-0.1 0,-0.3 0.1,-0.5 0.1,-0.2 0.1,-0.3 0.3,-0.4 l 2.8,-3.2 c 0.1,-0.1 0.2,-0.2 0.4,-0.3 0.2,-0.1 0.3,-0.1 0.5,-0.1 h 7.1 c 0.3,0 0.6,0.1 0.9,0.4 l 2.6,3.2 c 0.1,0.1 0.2,0.3 0.2,0.4 0.1,0.2 0.1,0.3 0.1,0.5 v 4.2 c 0,0.1 0,0.3 -0.1,0.4 -0.1,0.1 -0.2,0.2 -0.4,0.2 h -3.3 c -0.1,0 -0.3,-0.1 -0.4,-0.2 -0.1,-0.1 -0.1,-0.2 -0.1,-0.4 v -4.2 c 0,-0.1 -0.1,-0.3 -0.2,-0.4 -0.1,-0.1 -0.2,-0.1 -0.4,-0.1 h -5 c -0.3,0 -0.5,0.2 -0.5,0.5 v 8.4 c 0,0.1 0,0.3 0.1,0.5 0.1,0.2 0.2,0.3 0.3,0.4 l 9.6,7.8 c 0.1,0.1 0.2,0.2 0.3,0.4 0.1,0.2 0.1,0.3 0.1,0.5 v 8.7 c 0,0.1 0,0.3 -0.1,0.5 -0.1,0.2 -0.1,0.3 -0.2,0.4 L 500,350 c -0.1,0.1 -0.3,0.2 -0.4,0.3 -0.2,0.1 -0.3,0.1 -0.4,0.1 h -7.1 c -0.1,0 -0.3,0 -0.5,-0.1 -0.2,-0.1 -0.3,-0.2 -0.4,-0.3 l -2.8,-3.2 c -0.1,-0.1 -0.2,-0.3 -0.3,-0.4 -0.1,-0.2 -0.1,-0.3 -0.1,-0.5 v -4.4 z"
   id="path40"
   inkscape:connector-curvature="0" />
			<path
   d="m 508.8,350.3 c -0.1,0 -0.3,0 -0.5,-0.1 -0.2,-0.1 -0.3,-0.2 -0.4,-0.3 l -2.7,-3.2 c -0.1,-0.1 -0.2,-0.3 -0.3,-0.4 -0.1,-0.2 -0.1,-0.3 -0.1,-0.5 v -26.6 c 0,-0.1 0,-0.3 0.1,-0.5 0.1,-0.2 0.1,-0.3 0.3,-0.4 l 2.7,-3.2 c 0.1,-0.1 0.2,-0.2 0.4,-0.3 0.2,-0.1 0.3,-0.1 0.5,-0.1 h 6.8 c 0.1,0 0.3,0 0.5,0.1 0.2,0.1 0.3,0.2 0.4,0.3 l 2.6,3.2 c 0.1,0.1 0.2,0.3 0.2,0.4 0.1,0.2 0.1,0.3 0.1,0.5 v 4.2 c 0,0.1 -0.1,0.3 -0.2,0.4 -0.1,0.1 -0.2,0.2 -0.4,0.2 h -3.4 c -0.1,0 -0.3,-0.1 -0.4,-0.2 -0.1,-0.1 -0.2,-0.2 -0.2,-0.4 v -4.2 c 0,-0.1 -0.1,-0.3 -0.2,-0.4 -0.1,-0.1 -0.2,-0.1 -0.4,-0.1 h -4.6 c -0.3,0 -0.5,0.2 -0.5,0.5 v 26.6 c 0,0.3 0.2,0.5 0.5,0.5 h 4.6 c 0.1,0 0.3,0 0.4,-0.1 0.1,-0.1 0.2,-0.2 0.2,-0.4 v -4.3 c 0,-0.2 0.1,-0.3 0.2,-0.4 0.1,-0.1 0.2,-0.1 0.4,-0.1 h 3.4 c 0.1,0 0.3,0 0.4,0.1 0.1,0.1 0.2,0.2 0.2,0.4 v 4.3 c 0,0.1 0,0.3 -0.1,0.5 -0.1,0.2 -0.2,0.3 -0.2,0.4 l -2.6,3.2 c -0.1,0.1 -0.2,0.2 -0.4,0.3 -0.2,0.1 -0.3,0.1 -0.5,0.1 z"
   id="path42"
   inkscape:connector-curvature="0" />
		</g>
		<g
   id="g52">
			<line
   x1="531.79999"
   y1="329"
   x2="531.79999"
   y2="328.89999"
   id="line46" />
			<path
   d="m 524.9,315 c -0.2,0.1 -0.3,0.2 -0.4,0.3 l -2.7,3.2 c -0.1,0.1 -0.2,0.3 -0.3,0.4 -0.1,0.2 -0.1,0.3 -0.1,0.5 v 9.6 0 3.7 3.7 0 9.6 c 0,0.1 0,0.3 0.1,0.5 0.1,0.2 0.1,0.3 0.3,0.4 l 2.7,3.2 c 0.1,0.1 0.2,0.2 0.4,0.3 0.2,0.1 0.3,0.1 0.5,0.1 h 7.1 c 0.1,0 0.3,0 0.4,-0.1 0.2,-0.1 0.3,-0.2 0.4,-0.3 l 2.6,-3.2 c 0.1,-0.1 0.2,-0.3 0.2,-0.4 0.1,-0.2 0.1,-0.3 0.1,-0.5 v -13.3 -13.3 c 0,-0.1 0,-0.3 -0.1,-0.5 -0.1,-0.2 -0.1,-0.3 -0.2,-0.4 l -2.6,-3.2 c -0.1,-0.1 -0.3,-0.2 -0.4,-0.3 -0.2,-0.1 -0.3,-0.1 -0.4,-0.1 h -7.1 c -0.2,0 -0.4,0 -0.5,0.1 z m 0.9,21.4 v -3.7 -3.7 m 0,0 v -9.6 c 0,-0.3 0.2,-0.5 0.5,-0.5 h 4.9 c 0.3,0 0.5,0.2 0.5,0.5 v 9.6 0 3.7 3.7 0 9.6 c 0,0.3 -0.2,0.5 -0.5,0.5 h -4.9 c -0.3,0 -0.5,-0.2 -0.5,-0.5 v -9.6"
   id="path48"
   inkscape:connector-curvature="0" />
			<line
   x1="531.79999"
   y1="336.5"
   x2="531.79999"
   y2="336.39999"
   id="line50" />
		</g>
	</g>
	<g
   id="g168">
		<g
   id="g64">
			<g
   id="g58">
				<path
   d="m 397.1,256.5 c -0.4,-1.2 -1.8,-1.9 -3,-1.4 -0.6,0.2 -1.1,0.6 -1.3,1.2 l -0.6,-0.3 c 0.3,-0.7 1,-1.3 1.7,-1.5 1.1,-0.4 2.3,-0.1 3.1,0.7 0.2,-1.1 0.9,-2 2,-2.4 0.8,-0.3 1.6,-0.2 2.3,0.1 l -0.3,0.6 c -0.6,-0.3 -1.2,-0.3 -1.8,-0.1 -1.2,0.4 -1.9,1.8 -1.4,3 z"
   id="path56"
   inkscape:connector-curvature="0"
   style="fill:#be1e2d" />
			</g>
			<g
   id="g62">
				<path
   d="m 402.4,256.5 c -0.1,-0.6 -0.7,-1.1 -1.3,-1 -0.3,0 -0.6,0.2 -0.8,0.4 l -0.5,-0.4 c 0.3,-0.4 0.7,-0.6 1.2,-0.7 0.6,-0.1 1.2,0.2 1.6,0.6 0.3,-0.5 0.8,-0.9 1.4,-1 0.5,-0.1 1,0.1 1.3,0.4 l -0.4,0.5 c -0.2,-0.2 -0.6,-0.3 -0.9,-0.2 -0.6,0.1 -1.1,0.7 -1,1.3 z"
   id="path60"
   inkscape:connector-curvature="0"
   style="fill:#be1e2d" />
			</g>
		</g>
		<path
   d="m 429.2,267.8 c 3,-0.2 5.7,1.6 6.5,4.5 l 0.1,0.4 0.3,-0.2 c 1.1,-0.5 2.5,-0.5 3.5,0.2 l 0.3,0.2 0.2,-0.2 c 0.9,-1.2 2.2,-2 3.7,-2.1 0.4,0 0.8,0 1.2,0 1.1,0.2 2.2,0.7 2.9,1.6 l 0.3,0.3 0.2,-0.3 c 1.1,-1.5 2.7,-2.4 4.5,-2.5 0.5,0 1,0 1.5,0.1 0.4,0.1 0.9,0.2 1.3,0.4 l 0.4,0.2 0.1,-0.5 c 0.3,-1.9 1.7,-3.5 3.4,-4 0,-0.2 0,-0.4 0,-0.7 -2,0.6 -3.6,2.2 -4,4.3 -0.4,-0.1 -0.7,-0.2 -1.1,-0.3 -0.5,-0.1 -1.1,-0.1 -1.6,-0.1 -1.9,0.2 -3.6,1.1 -4.7,2.5 -0.8,-0.8 -1.9,-1.3 -3,-1.5 -0.4,-0.1 -0.9,-0.1 -1.3,0 -1.6,0.1 -3,0.9 -4,2.1 -1.1,-0.6 -2.4,-0.7 -3.5,-0.2 -1,-3 -3.9,-4.9 -7.1,-4.6 -0.1,0 -0.2,0 -0.3,0 0,0.2 0.1,0.4 0.1,0.6 0,-0.2 0,-0.2 0.1,-0.2 z"
   id="path66"
   inkscape:connector-curvature="0"
   style="fill:#ef4136" />
		<path
   d="m 419.1,266.9 c -2.6,1.4 -3.9,4.5 -3.1,7.3 l 0.1,0.4 h -0.4 c -1.2,0.2 -2.3,0.9 -2.9,2 l -0.1,0.3 -0.3,-0.1 c -1.4,-0.6 -2.9,-0.5 -4.2,0.2 -0.4,0.2 -0.7,0.4 -1,0.7 -0.9,0.8 -1.4,1.8 -1.6,2.9 l -0.1,0.4 -0.4,-0.1 c -1.7,-0.7 -3.6,-0.5 -5.2,0.3 -0.4,0.2 -0.8,0.5 -1.2,0.8 -0.3,0.3 -0.6,0.6 -0.9,1 l -0.2,0.3 -0.3,-0.4 c -1.3,-1.5 -3.3,-2 -5.1,-1.5 -0.1,-0.2 -0.2,-0.4 -0.4,-0.6 2,-0.6 4.2,-0.1 5.7,1.5 0.2,-0.3 0.5,-0.6 0.8,-0.8 0.4,-0.4 0.9,-0.7 1.3,-0.9 1.6,-0.9 3.6,-1 5.3,-0.4 0.3,-1.1 0.9,-2.1 1.8,-2.9 0.3,-0.3 0.7,-0.6 1.1,-0.8 1.4,-0.7 3,-0.9 4.5,-0.3 0.6,-1.1 1.6,-1.8 2.8,-2.1 -0.7,-3 0.7,-6.2 3.5,-7.7 0.1,0 0.2,-0.1 0.2,-0.1 0.1,0.2 0.2,0.4 0.3,0.6 0.1,0 0.1,0 0,0 z"
   id="path68"
   inkscape:connector-curvature="0"
   style="fill:#ef4136" />
		<polygon
   points="418.2,247.8 415.1,247.8 415.1,235.8 416.6,235.4 419.4,235.2 418.2,236.5 "
   id="polygon70"
   style="fill:#be1e2d" />
		<polygon
   points="418,252.4 424.6,252.6 419.9,252.6 418.7,253.7 418.7,265.4 420.6,266.3 415.6,266.3 415.1,264.5 415.1,252.8 "
   id="polygon72"
   style="fill:#be1e2d" />
		<polygon
   points="420.7,272.5 419.2,273.5 419.2,288.9 421.5,289.1 416.1,290.2 414.4,287.6 415.1,273.4 416.7,272.2 "
   id="polygon74"
   style="fill:#be1e2d" />
		<path
   d="m 461.2,261.2 c -1.8,-1.7 -3.6,-3.4 -5,-4.8 -5.6,-5.6 -28.3,-30.3 -28.3,-30.3 l -0.6,2.4 0.6,13.6 v 45.5 l 1.5,4.6 h 3.2 v -3.8 H 432 v -22.9 h -0.5 V 245.8 H 431 V 232 c 0,0 19.8,20.9 23.7,25 1.2,1.3 3.4,3.4 5.7,5.6 0.3,-0.4 0.5,-0.9 0.8,-1.4 z"
   id="path76"
   inkscape:connector-curvature="0"
   style="fill:#be1e2d" />
		<path
   d="m 458.4,268.1 c -3.6,-2.8 -7,-5.5 -8.4,-6.8 -3.6,-3.2 -17.8,-16.5 -17.8,-16.5 v 1.8 c 0,0 12.8,11.8 17,15.5 1.7,1.6 5.4,4.4 9,7.3 0,-0.5 0.1,-0.9 0.2,-1.3 z"
   id="path78"
   inkscape:connector-curvature="0"
   style="fill:#be1e2d" />
		<polygon
   points="421.2,236.1 422.8,236.1 424.7,237.9 424.7,239.6 "
   id="polygon80"
   style="fill:#be1e2d" />
		<rect
   x="430.60001"
   y="265.60001"
   width="0.30000001"
   height="26.200001"
   id="rect82"
   style="fill:#ef4136" />
		<rect
   x="429.60001"
   y="245.89999"
   width="0.30000001"
   height="19.700001"
   id="rect84"
   style="fill:#ef4136" />
		<rect
   x="429"
   y="230.39999"
   width="0.30000001"
   height="15.4"
   id="rect86"
   style="fill:#ef4136" />
		<rect
   x="416.5"
   y="274.5"
   width="0.30000001"
   height="14.6"
   id="rect88"
   style="fill:#ef4136" />
		<rect
   x="416.60001"
   y="253.89999"
   width="0.30000001"
   height="11.6"
   id="rect90"
   style="fill:#ef4136" />
		<rect
   x="416.89999"
   y="236.5"
   width="0.30000001"
   height="11.3"
   id="rect92"
   style="fill:#ef4136" />
		<path
   d="m 429.1,288.4 v -22.8 h -0.5 v -19.7 h -0.4 v -15.4 h -0.4 V 225 H 427 l -0.1,0.9 -7.1,4 h -3 l -1.4,-1.4 v -1.2 h -1.1 v 1.2 h -0.9 l -28.7,13.9 c -0.2,0.7 -0.3,1.5 -0.6,2.2 l 28.5,-14.2 v 3.6 l -28.9,15.8 c -0.1,0.7 -0.2,1.5 -0.4,2.3 l 43,-24.5 0.4,-0.6 v 1.3 l -13.6,8.2 v 10.3 h -0.4 v 18.6 h -0.6 v 27.4 h 17.8 v -4.5 h -0.8 z m -3.9,-0.2 -0.7,0.6 h -7.6 l -1.2,-0.5 v -14.9 l 1.4,-0.9 h 7.2 l 0.8,0.5 v 15.2 z m 0.2,-23.4 -1.2,1.2 h -7 l -1.6,-0.9 v -11.5 l 1.2,-1 h 7.4 l 1.1,0.6 v 11.6 z m -0.2,-18.2 -0.6,1 h -8.1 l -0.9,-0.9 v -10.1 l 0.9,-1.1 h 8.9 z"
   id="path94"
   inkscape:connector-curvature="0"
   style="fill:#ef4136" />
		<path
   d="m 421.9,216.8 c 10.1,0 19.6,3.9 26.8,11.1 7.2,7.2 11.1,16.7 11.1,26.8 0,10.1 -3.9,19.6 -11.1,26.8 -7.2,7.2 -16.7,11.1 -26.8,11.1 -10.1,0 -19.6,-3.9 -26.8,-11.1 -7.2,-7.2 -11.1,-16.7 -11.1,-26.8 0,-10.1 3.9,-19.6 11.1,-26.8 7.2,-7.1 16.7,-11.1 26.8,-11.1 m 0,-2 c -22,0 -39.9,17.8 -39.9,39.9 0,22.1 17.8,39.9 39.9,39.9 22,0 39.9,-17.8 39.9,-39.9 0,-22.1 -17.8,-39.9 -39.9,-39.9 z"
   id="path96"
   inkscape:connector-curvature="0"
   style="fill:#ef4136" />
		<rect
   x="423.89999"
   y="266.70001"
   width="0.30000001"
   height="1.8"
   id="rect98"
   style="fill:#be1e2d" />
		<rect
   x="422.70001"
   y="266.70001"
   width="0.30000001"
   height="1.8"
   id="rect100"
   style="fill:#be1e2d" />
		<rect
   x="421.39999"
   y="266.70001"
   width="0.30000001"
   height="1.8"
   id="rect102"
   style="fill:#be1e2d" />
		<rect
   x="420.20001"
   y="266.70001"
   width="0.30000001"
   height="1.8"
   id="rect104"
   style="fill:#be1e2d" />
		<rect
   x="419"
   y="266.70001"
   width="0.30000001"
   height="1.8"
   id="rect106"
   style="fill:#be1e2d" />
		<rect
   x="417.79999"
   y="266.70001"
   width="0.30000001"
   height="1.8"
   id="rect108"
   style="fill:#be1e2d" />
		<rect
   x="416.60001"
   y="266.70001"
   width="0.30000001"
   height="1.8"
   id="rect110"
   style="fill:#be1e2d" />
		<rect
   x="423.89999"
   y="248.39999"
   width="0.30000001"
   height="1.1"
   id="rect112"
   style="fill:#be1e2d" />
		<rect
   x="416.60001"
   y="251.39999"
   width="7.5"
   height="0.30000001"
   id="rect114"
   style="fill:#be1e2d" />
		<rect
   x="416.89999"
   y="234.5"
   width="7.3000002"
   height="0.30000001"
   id="rect116"
   style="fill:#be1e2d" />
		<rect
   x="416.60001"
   y="270.89999"
   width="7.5"
   height="0.30000001"
   id="rect118"
   style="fill:#be1e2d" />
		<rect
   x="427.89999"
   y="265.5"
   width="0.30000001"
   height="24.4"
   id="rect120"
   style="fill:#be1e2d" />
		<rect
   x="427.29999"
   y="245.89999"
   width="0.30000001"
   height="19.700001"
   id="rect122"
   style="fill:#be1e2d" />
		<rect
   x="426.79999"
   y="230.39999"
   width="0.30000001"
   height="15.4"
   id="rect124"
   style="fill:#be1e2d" />
		<rect
   x="413.20001"
   y="265.5"
   width="0.30000001"
   height="24.4"
   id="rect126"
   style="fill:#be1e2d" />
		<rect
   x="413.70001"
   y="245.89999"
   width="0.30000001"
   height="19.700001"
   id="rect128"
   style="fill:#be1e2d" />
		<polygon
   points="414.5,245.9 414.3,245.9 414.3,235.9 414.5,235.7 "
   id="polygon130"
   style="fill:#be1e2d" />
		<rect
   x="414.29999"
   y="230.39999"
   width="0.30000001"
   height="2.7"
   id="rect132"
   style="fill:#be1e2d" />
		<rect
   x="423.89999"
   y="290"
   width="0.30000001"
   height="1.8"
   id="rect134"
   style="fill:#be1e2d" />
		<rect
   x="422.70001"
   y="290"
   width="0.30000001"
   height="1.8"
   id="rect136"
   style="fill:#be1e2d" />
		<rect
   x="421.39999"
   y="290"
   width="0.30000001"
   height="1.8"
   id="rect138"
   style="fill:#be1e2d" />
		<rect
   x="420.20001"
   y="290"
   width="0.30000001"
   height="1.8"
   id="rect140"
   style="fill:#be1e2d" />
		<rect
   x="419"
   y="290"
   width="0.30000001"
   height="1.8"
   id="rect142"
   style="fill:#be1e2d" />
		<rect
   x="417.79999"
   y="290"
   width="0.30000001"
   height="1.8"
   id="rect144"
   style="fill:#be1e2d" />
		<rect
   x="416.60001"
   y="290"
   width="0.30000001"
   height="1.8"
   id="rect146"
   style="fill:#be1e2d" />
		<rect
   x="422.70001"
   y="248.39999"
   width="0.30000001"
   height="1.1"
   id="rect148"
   style="fill:#be1e2d" />
		<rect
   x="421.39999"
   y="248.39999"
   width="0.30000001"
   height="1.1"
   id="rect150"
   style="fill:#be1e2d" />
		<rect
   x="420.20001"
   y="248.39999"
   width="0.30000001"
   height="1.1"
   id="rect152"
   style="fill:#be1e2d" />
		<rect
   x="419"
   y="248.39999"
   width="0.30000001"
   height="1.1"
   id="rect154"
   style="fill:#be1e2d" />
		<rect
   x="417.79999"
   y="248.39999"
   width="0.30000001"
   height="1.1"
   id="rect156"
   style="fill:#be1e2d" />
		<rect
   x="416.60001"
   y="248.39999"
   width="0.30000001"
   height="1.1"
   id="rect158"
   style="fill:#be1e2d" />
		<rect
   x="423.89999"
   y="232.60001"
   width="0.30000001"
   height="0.60000002"
   id="rect160"
   style="fill:#be1e2d" />
		<rect
   x="422.70001"
   y="232.60001"
   width="0.30000001"
   height="0.60000002"
   id="rect162"
   style="fill:#be1e2d" />
		<rect
   x="421.39999"
   y="232.60001"
   width="0.30000001"
   height="0.60000002"
   id="rect164"
   style="fill:#be1e2d" />
		<rect
   x="420.20001"
   y="232.60001"
   width="0.30000001"
   height="0.60000002"
   id="rect166"
   style="fill:#be1e2d" />
	</g>
</g>
</svg>