<svg xmlns="http://www.w3.org/2000/svg" viewBox="0 0 197.09 195.91"><defs><style>.cls-1{fill:#020608}</style></defs><g id="Layer" data-name="Слой 1"><path class="cls-1" d="M145.81 37.62a.11.11 0 0 1-.08 0L143 34.36a.12.12 0 0 1 0-.16.11.11 0 0 1 .16 0l2.76 3.22a.11.11 0 0 1-.09.19z"/><path class="cls-1" d="M143.05 34.4h-2.38a.12.12 0 0 1 0-.23h2.38a.12.12 0 1 1 0 .23z"/><path class="cls-1" d="M139.06 36a.1.1 0 0 1-.08 0 .11.11 0 0 1 0-.16l1.61-1.61a.12.12 0 0 1 .16 0 .12.12 0 0 1 0 .16l-1.6 1.61a.13.13 0 0 1-.09 0z"/><path class="cls-1" d="M140.67 39.16a.12.12 0 0 1-.1-.06L139 35.95a.11.11 0 0 1 .05-.15.12.12 0 0 1 .16 0l1.56 3.2a.1.1 0 0 1-.05.15z"/><path class="cls-1" d="M143.59 39.16h-2.92a.12.12 0 0 1 0-.23h2.92a.12.12 0 1 1 0 .23z"/><path class="cls-1" d="M143.59 39.16a.12.12 0 0 1-.09 0 .12.12 0 0 1 0-.16l2.22-1.53a.12.12 0 0 1 .16 0 .11.11 0 0 1 0 .16l-2.22 1.53zm-.54-.77a.11.11 0 0 1-.09 0 .12.12 0 0 1 0-.16l2.09-1.54a.11.11 0 0 1 .14.19l-2.09 1.55z"/><path class="cls-1" d="M143.05 38.39h-1.92a.12.12 0 0 1-.12-.12.12.12 0 0 1 .12-.12h1.92a.12.12 0 0 1 .12.12.12.12 0 0 1-.12.12z"/><path class="cls-1" d="M141.13 38.39a.11.11 0 0 1-.1-.05l-1.73-2.72a.12.12 0 1 1 .2-.12l1.73 2.72a.12.12 0 0 1 0 .16zm2.46.77a.12.12 0 0 1-.09 0l-.54-.77a.12.12 0 0 1 0-.16.12.12 0 0 1 .16 0l.54.76a.11.11 0 0 1 0 .16z"/><path class="cls-1" d="M140.67 39.16h-.06a.12.12 0 0 1 0-.16l.46-.77a.11.11 0 0 1 .15 0 .11.11 0 0 1 0 .16l-.46.77a.12.12 0 0 1-.09 0zm4.03-6.41l-5.29-.38a.23.23 0 0 1 0-.46l5.3.38a.23.23 0 0 1 0 .46z"/><path class="cls-1" d="M145.81 37.74a.23.23 0 0 1-.22-.18l-1.11-5a.23.23 0 1 1 .45-.1l1.11 5a.23.23 0 0 1-.17.27z"/><path class="cls-1" d="M143.05 34.4a.11.11 0 0 1-.08 0 .11.11 0 0 1 0-.16l1.65-1.76a.11.11 0 0 1 .16 0 .11.11 0 0 1 0 .16l-1.65 1.76a.11.11 0 0 1-.08 0zm-2.38 0a.1.1 0 0 1-.09-.06l-1.27-2.15a.11.11 0 0 1 0-.15.12.12 0 0 1 .16 0l1.26 2.15a.11.11 0 0 1 0 .16z"/><path class="cls-1" d="M135.23 37.7a.22.22 0 0 1-.14 0 .22.22 0 0 1 0-.32l4.13-5.38a.23.23 0 0 1 .37.29l-4.18 5.33a.23.23 0 0 1-.18.08z"/><path class="cls-1" d="M135.23 37.58a.12.12 0 0 1-.11-.07.11.11 0 0 1 .06-.15l3.82-1.57a.11.11 0 0 1 .15.06.11.11 0 0 1-.06.15l-3.83 1.58z"/><path class="cls-1" d="M139.06 44.07A.11.11 0 0 1 139 44l-3.83-6.48a.11.11 0 0 1 0-.15.12.12 0 0 1 .16 0l3.83 6.48a.11.11 0 0 1 0 .16z"/><path class="cls-1" d="M143.05 44.07h-4a.12.12 0 0 1 0-.23h4a.12.12 0 1 1 0 .23z"/><path class="cls-1" d="M143.05 44.18h-.09a.23.23 0 0 1-.12-.3l2.76-6.44a.23.23 0 0 1 .42.18L143.26 44a.23.23 0 0 1-.21.18zM160 37.85a.12.12 0 0 1-.09-.19l2.76-3.22a.11.11 0 0 1 .16 0 .11.11 0 0 1 0 .16L160 37.81a.1.1 0 0 1 0 .04z"/><path class="cls-1" d="M165.09 34.63h-2.38a.11.11 0 0 1 0-.23h2.38a.11.11 0 0 1 0 .23z"/><path class="cls-1" d="M166.7 36.24a.12.12 0 0 1-.08 0L165 34.6a.12.12 0 0 1 .16-.16l1.62 1.56a.11.11 0 0 1 0 .17.1.1 0 0 1-.08.07z"/><path class="cls-1" d="M165.09 39.39H165a.11.11 0 0 1 0-.15l1.6-3.14a.12.12 0 0 1 .21.1l-1.61 3.15a.12.12 0 0 1-.11.04z"/><path class="cls-1" d="M165.09 39.39h-2.91a.12.12 0 1 1 0-.23h2.91a.12.12 0 0 1 0 .23z"/><path class="cls-1" d="M162.18 39.39h-.07l-2.23-1.53a.12.12 0 0 1 0-.16.12.12 0 0 1 .16 0l2.22 1.54a.11.11 0 0 1 0 .16.12.12 0 0 1-.08-.01zm.53-.77h-.07l-2.09-1.55a.12.12 0 0 1 0-.16.12.12 0 0 1 .16 0l2.1 1.54a.11.11 0 0 1 0 .16.11.11 0 0 1-.1.01z"/><path class="cls-1" d="M164.63 38.62h-1.92a.11.11 0 0 1 0-.23h1.92a.11.11 0 1 1 0 .23z"/><path class="cls-1" d="M164.63 38.62h-.06a.12.12 0 0 1 0-.16l1.73-2.72a.11.11 0 0 1 .16 0 .12.12 0 0 1 0 .16l-1.72 2.72a.12.12 0 0 1-.11 0zm-2.45.77h-.07a.12.12 0 0 1 0-.16l.54-.76a.11.11 0 1 1 .19.13l-.53.77a.12.12 0 0 1-.13.02z"/><path class="cls-1" d="M165.09 39.39a.12.12 0 0 1-.1-.05l-.46-.77a.11.11 0 0 1 .19-.12l.46.76a.12.12 0 0 1 0 .16zM161.06 33a.23.23 0 0 1-.23-.21.23.23 0 0 1 .21-.25l5.29-.38a.23.23 0 0 1 .25.21.23.23 0 0 1-.21.25l-5.29.39z"/><path class="cls-1" d="M160 38h-.05a.23.23 0 0 1-.17-.27l1.11-5a.23.23 0 0 1 .45.1l-1.12 5a.22.22 0 0 1-.22.17z"/><path class="cls-1" d="M162.71 34.63a.14.14 0 0 1-.08 0l-1.63-1.8a.12.12 0 0 1 0-.16.11.11 0 0 1 .16 0l1.65 1.76a.12.12 0 0 1-.09.19zm2.38 0h-.06a.11.11 0 0 1 0-.16l1.26-2.15a.12.12 0 0 1 .2.12l-1.27 2.15a.12.12 0 0 1-.13.04z"/><path class="cls-1" d="M170.53 37.93a.22.22 0 0 1-.18-.09l-4.18-5.33a.23.23 0 0 1 0-.32.23.23 0 0 1 .33 0l4.18 5.33a.24.24 0 0 1 0 .33.26.26 0 0 1-.15.08z"/><path class="cls-1" d="M170.53 37.82l-3.84-1.57a.12.12 0 0 1-.06-.15.12.12 0 0 1 .15-.06l3.84 1.57a.11.11 0 0 1 .06.15.11.11 0 0 1-.15.06z"/><path class="cls-1" d="M166.7 44.3h-.06a.12.12 0 0 1 0-.16l3.83-6.48a.12.12 0 0 1 .16 0 .12.12 0 0 1 0 .16l-3.83 6.48a.12.12 0 0 1-.1 0z"/><path class="cls-1" d="M166.7 44.3h-4a.12.12 0 0 1-.11-.12.11.11 0 0 1 .11-.11h4a.11.11 0 0 1 .11.11.11.11 0 0 1-.11.12z"/><path class="cls-1" d="M162.71 44.41a.23.23 0 0 1-.21-.14l-2.76-6.44a.24.24 0 0 1 .12-.3.23.23 0 0 1 .3.12l2.76 6.44a.23.23 0 0 1-.12.3zM144.7 55.26a.34.34 0 0 1-.18-.05.35.35 0 0 1-.11-.47l3-5a.34.34 0 0 1 .59.36l-3 5a.34.34 0 0 1-.3.16z"/><path class="cls-1" d="M147.73 50.27a.34.34 0 0 1-.34-.29.35.35 0 0 1 .29-.39l3.76-.53a.35.35 0 0 1 .39.29.34.34 0 0 1-.29.39l-3.76.54z"/><path class="cls-1" d="M155.05 50.66H155l-3.56-.92a.34.34 0 1 1 .17-.67l3.56.92a.35.35 0 0 1-.08.68z"/><path class="cls-1" d="M158.24 56a.35.35 0 0 1-.3-.17l-3.19-5.29a.35.35 0 1 1 .59-.36l3.19 5.29a.34.34 0 0 1-.12.47.36.36 0 0 1-.17.06zm-12.99 3.1a.35.35 0 0 1-.34-.29l-.55-3.81a.34.34 0 0 1 .29-.39.35.35 0 0 1 .39.29l.55 3.83a.35.35 0 0 1-.29.39z"/><path class="cls-1" d="M150.19 61.13h-.09L145.16 59a.23.23 0 0 1 .18-.42l4.93 2.15a.23.23 0 0 1 .12.3.23.23 0 0 1-.2.1z"/><path class="cls-1" d="M150.19 61a.1.1 0 0 1-.09 0 .11.11 0 0 1 0-.16l1.31-1.07a.11.11 0 0 1 .16 0 .11.11 0 0 1 0 .16L150.26 61z"/><path class="cls-1" d="M153.27 61h-.06l-1.78-1.07a.11.11 0 0 1 0-.16.11.11 0 0 1 .15 0l1.78 1.07a.11.11 0 0 1 0 .16.13.13 0 0 1-.09 0z"/><path class="cls-1" d="M153.27 61.13a.24.24 0 0 1-.21-.14.23.23 0 0 1 .13-.3l4-1.61a.23.23 0 1 1 .17.42l-4 1.61z"/><path class="cls-1" d="M157.24 59.63h-.09a.34.34 0 0 1-.24-.42l1-3.68a.34.34 0 0 1 .67.18l-1 3.68a.34.34 0 0 1-.34.24zM150.19 55a.12.12 0 0 1-.11-.1l-.57-3.37a.12.12 0 0 1 .09-.13.11.11 0 0 1 .13.09l.58 3.38a.11.11 0 0 1-.1.13z"/><path class="cls-1" d="M146.73 53.8a.11.11 0 0 1-.09 0 .11.11 0 0 1 0-.16l2.88-2.15a.11.11 0 0 1 .16 0 .12.12 0 0 1 0 .16l-2.88 2.15a.09.09 0 0 1-.07 0z"/><path class="cls-1" d="M147.72 57a.11.11 0 0 1-.11-.08l-1-3.14a.11.11 0 1 1 .21-.07l1 3.14a.12.12 0 0 1-.08.14z"/><path class="cls-1" d="M147.72 57h-.05a.12.12 0 0 1 0-.16l1-1.91a.12.12 0 0 1 .15-.05.11.11 0 0 1 0 .16l-1 1.92a.11.11 0 0 1-.1.04z"/><path class="cls-1" d="M150.19 55h-1.46a.12.12 0 0 1-.12-.12.11.11 0 0 1 .12-.11h1.46a.11.11 0 0 1 .11.11.11.11 0 0 1-.11.12z"/><path class="cls-1" d="M148.72 55a.11.11 0 0 1-.08-.14l.88-3.37a.12.12 0 0 1 .22.06l-.88 3.38a.12.12 0 0 1-.14.07z"/><path class="cls-1" d="M150.19 55l-3-1.23a.11.11 0 0 1-.06-.15.11.11 0 0 1 .15-.06l3 1.23a.12.12 0 0 1 0 .22z"/><path class="cls-1" d="M147.72 57a.11.11 0 0 1-.11-.1l-.5-3.51a.12.12 0 0 1 .1-.13.11.11 0 0 1 .13.09l.5 3.52a.12.12 0 0 1-.1.13zm4.59-1.85a.12.12 0 0 1-.1-.13l.57-3.37a.12.12 0 0 1 .14-.09.11.11 0 0 1 .09.13l-.57 3.37a.1.1 0 0 1-.13.09z"/><path class="cls-1" d="M155.76 53.92h-.07l-2.88-2.15a.11.11 0 0 1 0-.16.11.11 0 0 1 .15 0l2.88 2.15a.11.11 0 0 1 0 .16.11.11 0 0 1-.08 0z"/><path class="cls-1" d="M154.77 57.07a.11.11 0 0 1-.07-.14l1-3.15a.13.13 0 0 1 .15-.07.12.12 0 0 1 .07.15l-1 3.14a.11.11 0 0 1-.15.07z"/><path class="cls-1" d="M154.77 57.07a.11.11 0 0 1-.11-.06l-1-1.92a.11.11 0 0 1 0-.15.12.12 0 0 1 .15 0l1 1.92a.11.11 0 0 1-.05.16z"/><path class="cls-1" d="M153.77 55.15h-1.46a.12.12 0 0 1 0-.23h1.46a.12.12 0 0 1 .11.12.11.11 0 0 1-.11.11z"/><path class="cls-1" d="M153.77 55.15a.11.11 0 0 1-.11-.08l-.88-3.38a.12.12 0 0 1 .08-.14.11.11 0 0 1 .14.08l.88 3.37a.11.11 0 0 1-.08.14z"/><path class="cls-1" d="M152.31 55.15a.11.11 0 0 1 0-.22l3-1.23a.11.11 0 0 1 .15.06.12.12 0 0 1-.07.15l-3 1.22z"/><path class="cls-1" d="M154.77 57.07a.12.12 0 0 1-.09-.13l.49-3.51a.12.12 0 0 1 .13-.1.12.12 0 0 1 .1.13l-.51 3.54a.12.12 0 0 1-.12.07zm-14.1-45.72a.22.22 0 0 1-.17-.08l-8.28-9.66a.23.23 0 0 1 .35-.29l8.28 9.68a.23.23 0 0 1 0 .32.25.25 0 0 1-.18.03z"/><path class="cls-1" d="M132.39 1.69L126.21.46a.23.23 0 0 1-.21-.27.23.23 0 0 1 .3-.19l6.13 1.23a.23.23 0 0 1 .18.27.23.23 0 0 1-.22.19z"/><path class="cls-1" d="M121.81 1.69a.23.23 0 0 1-.06-.45L126.19 0a.23.23 0 0 1 .28.16.23.23 0 0 1-.16.28l-4.45 1.23z"/><path class="cls-1" d="M120.43 6.41a.11.11 0 0 1-.08-.14l1.38-4.83a.11.11 0 0 1 .14-.08.12.12 0 0 1 .08.14l-1.38 4.83a.11.11 0 0 1-.14.08z"/><path class="cls-1" d="M123 15.8a.23.23 0 0 1-.22-.17l-2.58-9.28a.23.23 0 0 1 .16-.28.23.23 0 0 1 .29.16l2.61 9.28a.23.23 0 0 1-.16.28z"/><path class="cls-1" d="M125.49 22.86a.24.24 0 0 1-.22-.15l-2.45-7.06a.23.23 0 0 1 .43-.15l2.45 7.06a.23.23 0 0 1-.14.29z"/><path class="cls-1" d="M125.49 22.86a.24.24 0 0 1-.16-.06.23.23 0 0 1 0-.33l6.9-7.06a.24.24 0 0 1 .33 0 .22.22 0 0 1 0 .32l-6.9 7.06a.23.23 0 0 1-.17.07z"/><path class="cls-1" d="M132.39 15.68a.11.11 0 0 1-.1-.06.12.12 0 0 1 .05-.16l8.28-4.46a.11.11 0 0 1 .11.2l-8.28 4.45zm34.31-4.52a.21.21 0 0 1-.14 0 .23.23 0 0 1 0-.32l6.8-8.55a.23.23 0 0 1 .32 0 .23.23 0 0 1 0 .32l-6.8 8.55a.23.23 0 0 1-.18 0z"/><path class="cls-1" d="M173.5 2.61a.24.24 0 0 1-.22-.16.23.23 0 0 1 .14-.29L179.87 0a.22.22 0 0 1 .29.14.23.23 0 0 1-.14.29l-6.45 2.17z"/><path class="cls-1" d="M185.47 1.69L179.89.46A.23.23 0 0 1 180 0l5.52 1.23a.23.23 0 0 1 0 .45z"/><path class="cls-1" d="M187.46 6.41a.12.12 0 0 1-.11-.07l-2-4.83a.12.12 0 0 1 .07-.15.11.11 0 0 1 .15.06l2 4.84a.11.11 0 0 1-.06.15z"/><path class="cls-1" d="M185.47 16.61a.13.13 0 0 1-.09-.14l2-10.2a.12.12 0 0 1 .14-.09.11.11 0 0 1 .09.14l-2 10.2a.11.11 0 0 1-.14.09z"/><path class="cls-1" d="M182.7 21.51h-.06a.11.11 0 0 1 0-.15l2.76-4.91a.12.12 0 0 1 .16 0 .12.12 0 0 1 0 .16l-2.76 4.91a.13.13 0 0 1-.1-.01z"/><path class="cls-1" d="M182.7 21.63a.25.25 0 0 1-.14-.05l-7.21-5.83a.23.23 0 0 1 0-.32.22.22 0 0 1 .32 0l7.21 5.83a.23.23 0 0 1 0 .32.24.24 0 0 1-.18.05z"/><path class="cls-1" d="M175.49 15.68h-.05L166.65 11a.12.12 0 0 1-.06-.15.12.12 0 0 1 .16 0l8.8 4.64a.12.12 0 0 1 0 .16.11.11 0 0 1-.06.03zm-32.17-7.86h-.11l-10.93-6.16a.23.23 0 0 1-.09-.31.23.23 0 0 1 .31-.09l10.93 6.14a.23.23 0 0 1-.11.43z"/><path class="cls-1" d="M140.67 11.23h-.07a.11.11 0 0 1 0-.16l2.64-3.53a.12.12 0 0 1 .16 0 .11.11 0 0 1 0 .16l-2.65 3.53a.11.11 0 0 1-.08 0zM166.7 11a.11.11 0 0 1-.09 0l-1.84-2.42a.12.12 0 0 1 0-.16.12.12 0 0 1 .16 0l1.84 2.42a.12.12 0 0 1 0 .16z"/><path class="cls-1" d="M164.86 8.74a.23.23 0 0 1-.19-.09.23.23 0 0 1 .06-.32l8.64-6.14a.23.23 0 0 1 .32.06.23.23 0 0 1-.06.32L165 8.7a.25.25 0 0 1-.14.04zm-21.54-1.03a.11.11 0 0 1-.11-.07.11.11 0 0 1 .07-.15l8.17-3.07a.11.11 0 0 1 .15.07.12.12 0 0 1-.07.15l-8.17 3.06z"/><path class="cls-1" d="M159.08 4.64h-7.59a.11.11 0 0 1-.11-.12.11.11 0 0 1 .11-.11h7.59a.11.11 0 0 1 .11.11.11.11 0 0 1-.11.12z"/><path class="cls-1" d="M164.86 8.63h-.06l-5.78-4a.11.11 0 0 1 0-.16.12.12 0 0 1 .16 0l5.77 4a.12.12 0 0 1 0 .16.13.13 0 0 1-.09 0z"/><path class="cls-1" d="M169.18 5.56l-10.1-.92a.11.11 0 0 1-.11-.12.12.12 0 0 1 .12-.1l10.1.92a.11.11 0 0 1 0 .23zm-17.69-.92h-13.64a.11.11 0 0 1-.11-.12.11.11 0 0 1 .11-.11h13.64a.12.12 0 0 1 .12.11.12.12 0 0 1-.12.12zm-34.9 32.98h-.06a.12.12 0 0 1 0-.16l8.9-14.88a.11.11 0 0 1 .16 0 .11.11 0 0 1 0 .16l-8.9 14.88a.1.1 0 0 1-.1 0z"/><path class="cls-1" d="M118.89 51.89a.23.23 0 0 1-.23-.19l-2.3-14.15a.23.23 0 0 1 .19-.26.23.23 0 0 1 .26.19l2.3 14.15a.23.23 0 0 1-.19.27z"/><path class="cls-1" d="M139.06 71.29a.37.37 0 0 1-.24-.09l-20.17-19.29a.34.34 0 0 1 0-.49.34.34 0 0 1 .49 0L139.3 70.7a.35.35 0 0 1 0 .49.34.34 0 0 1-.24.1z"/><path class="cls-1" d="M150.83 78.19a.4.4 0 0 1-.17 0l-11.78-6.91a.35.35 0 0 1-.12-.47.34.34 0 0 1 .47-.12L151 77.55a.34.34 0 0 1-.18.64z"/><path class="cls-1" d="M160.62 78.19h-9.78a.34.34 0 0 1-.34-.34.35.35 0 0 1 .34-.35h9.78a.35.35 0 0 1 .35.35.35.35 0 0 1-.35.34z"/><path class="cls-1" d="M160.62 78.19a.34.34 0 0 1-.23-.61l11.81-10a.34.34 0 1 1 .44.52l-11.81 10a.35.35 0 0 1-.21.09zm31.29-43.27a.12.12 0 0 1-.09 0l-9.21-13.41a.11.11 0 0 1 0-.16.12.12 0 0 1 .16 0L192 34.74a.12.12 0 0 1 0 .16z"/><path class="cls-1" d="M190.84 48.17a.22.22 0 0 1-.21-.24l1.08-13.13a.23.23 0 1 1 .45 0L191.07 48a.23.23 0 0 1-.23.17z"/><path class="cls-1" d="M172.43 68.22a.35.35 0 0 1-.26-.58l18.41-19.94a.34.34 0 0 1 .49 0 .34.34 0 0 1 0 .49l-18.39 19.92a.33.33 0 0 1-.25.11zM142.13 61a.11.11 0 0 1-.11-.12l.91-17a.12.12 0 0 1 .12-.11.11.11 0 0 1 .11.12l-.92 17a.11.11 0 0 1-.11.11z"/><path class="cls-1" d="M146.73 66a.11.11 0 0 1-.08 0L142 61a.11.11 0 0 1 0-.16.11.11 0 0 1 .16 0l4.6 5a.11.11 0 0 1 0 .16.11.11 0 0 1-.03 0z"/><path class="cls-1" d="M146.73 66a.12.12 0 0 1 0-.23l4.75-1.53a.12.12 0 0 1 .15.07.11.11 0 0 1-.07.14L146.77 66z"/><path class="cls-1" d="M155.73 66l-4.24-1.53a.12.12 0 0 1-.07-.15.11.11 0 0 1 .15-.07l4.24 1.53a.11.11 0 0 1 .07.15.11.11 0 0 1-.15.07z"/><path class="cls-1" d="M155.73 66a.12.12 0 0 1 0-.22l6.45-2.49a.11.11 0 1 1 .08.21l-6.49 2.5z"/><path class="cls-1" d="M162.18 63.51a.12.12 0 0 1-.11-.12l.54-19.21a.11.11 0 1 1 .23 0l-.53 19.22a.12.12 0 0 1-.13.11zM160 37.85h-.07l-4.69-3.45a.12.12 0 0 1 0-.16.12.12 0 0 1 .16 0l4.6 3.41a.11.11 0 0 1 0 .16.1.1 0 0 1 0 .04z"/><path class="cls-1" d="M150.83 34.75a.22.22 0 0 1-.23-.22.23.23 0 0 1 .22-.24l4.42-.23a.23.23 0 0 1 .24.22.23.23 0 0 1-.22.24l-4.42.23z"/><path class="cls-1" d="M145.81 37.62a.11.11 0 0 1-.1-.05.12.12 0 0 1 0-.16l5-3a.12.12 0 1 1 .12.2l-5 3z"/><path class="cls-1" d="M150.83 34.63a.11.11 0 0 1-.1-.07l-10.16-23.4a.11.11 0 0 1 .06-.15.12.12 0 0 1 .15.06l10.16 23.39a.1.1 0 0 1-.06.15zm4.43-.23a.11.11 0 0 1-.06-.15l11.44-23.36a.12.12 0 0 1 .16-.05.12.12 0 0 1 .06.15l-11.51 23.35a.11.11 0 0 1-.09.06z"/><path class="cls-1" d="M140.67 11.23a.11.11 0 0 1-.11-.09.12.12 0 0 1 .08-.14l12.21-2.6a.11.11 0 0 1 .13.09.11.11 0 0 1-.08.14l-12.2 2.6z"/><path class="cls-1" d="M166.7 11l-13.84-2.37a.11.11 0 1 1 0-.23l13.82 2.42a.12.12 0 0 1 .1.13.11.11 0 0 1-.08.05z"/><path class="cls-1" d="M152.89 8.63a.12.12 0 0 1-.11-.08l-1.39-4a.12.12 0 0 1 .22-.08l1.39 4a.12.12 0 0 1-.07.15zm4.71 9.05a.12.12 0 0 1-.1-.13l1.48-13a.12.12 0 0 1 .13-.1.11.11 0 0 1 .1.12l-1.48 13a.11.11 0 0 1-.13.11z"/><path class="cls-1" d="M157.6 17.8h-9.28a.23.23 0 0 1 0-.46h9.28a.23.23 0 1 1 0 .46z"/><path class="cls-1" d="M148.32 17.68a.11.11 0 0 1-.1-.06l-5-10a.11.11 0 1 1 .2-.1l5 10a.12.12 0 0 1-.05.16z"/><path class="cls-1" d="M139.41 32.26h-.06a.11.11 0 0 1 0-.16l8.92-14.57a.11.11 0 1 1 .19.12l-8.95 14.55a.12.12 0 0 1-.1.06zm26.94.22a.11.11 0 0 1-.1-.06l-8.75-14.8a.11.11 0 1 1 .2-.12l8.76 14.8a.12.12 0 0 1 0 .16zM144.7 55a.11.11 0 0 1-.11-.12l1.11-17.41a.12.12 0 0 1 .12-.11.11.11 0 0 1 .11.12l-1.11 17.41a.11.11 0 0 1-.12.11zm13.54.72a.12.12 0 0 1-.11-.13l1.72-17.87a.11.11 0 0 1 .12-.1.11.11 0 0 1 .1.13l-1.71 17.87a.12.12 0 0 1-.12.1zm-3.19-5.29a.12.12 0 0 1-.11-.12l.2-16a.12.12 0 0 1 .12-.11.12.12 0 0 1 .12.12l-.21 16a.11.11 0 0 1-.12.11zm-7.32-.43a.11.11 0 0 1-.09-.13l3.1-15.42a.11.11 0 0 1 .14-.09.11.11 0 0 1 .09.14L147.84 50a.12.12 0 0 1-.11 0zm3.76 14.47l-5.68-2.26a.11.11 0 0 1-.07-.15.12.12 0 0 1 .15-.06l5.68 2.26a.11.11 0 0 1 .07.15.12.12 0 0 1-.15.06z"/><path class="cls-1" d="M151.49 64.47a.11.11 0 0 1-.11-.09.11.11 0 0 1 .09-.14l5.15-1a.11.11 0 0 1 .13.09.11.11 0 0 1-.09.14l-5.16 1z"/><path class="cls-1" d="M156.65 63.47a.11.11 0 0 1-.09-.13l.6-4.07a.12.12 0 0 1 .13-.1.11.11 0 0 1 .1.13l-.6 4.07a.11.11 0 0 1-.14.1zm-5.16 1a.11.11 0 0 1-.11-.11v-4.53a.11.11 0 0 1 .11-.12.12.12 0 0 1 .12.12v4.52a.12.12 0 0 1-.12.12zm-5.68-2.27a.12.12 0 0 1-.11-.1l-.56-3.34a.12.12 0 0 1 .1-.13.12.12 0 0 1 .14.09l.55 3.34a.11.11 0 0 1-.09.13z"/><path class="cls-1" d="M151.49 64.47a.12.12 0 0 1-.11-.07l-1.3-3.45a.12.12 0 0 1 .06-.15.14.14 0 0 1 .16.07l1.3 3.45a.12.12 0 0 1-.07.15z"/><path class="cls-1" d="M151.49 64.47h-.05a.11.11 0 0 1 0-.15l1.78-3.45a.11.11 0 1 1 .2.1l-1.78 3.45a.11.11 0 0 1-.15.05zM139.06 71a.05.05 0 0 1 0-.08l7.67-5.06a.06.06 0 0 1 .08 0 .06.06 0 0 1 0 .08L139.1 71z"/><path class="cls-1" d="M139.41 70.78a.05.05 0 0 1 0-.07l2.72-9.82a.06.06 0 0 1 .07 0 .06.06 0 0 1 0 .07l-2.72 9.82a.05.05 0 0 1-.07 0zM161 77.91h-.05l-5.25-12a.06.06 0 0 1 0-.07.06.06 0 0 1 .08 0l5.25 12a.06.06 0 0 1 0 .08z"/><path class="cls-1" d="M161 77.91l-.05-.06 1.19-14.46a.06.06 0 0 1 .06-.05.06.06 0 0 1 .06.06L161 77.86a.06.06 0 0 1 0 .05zm-10.17 0a.06.06 0 0 1-.06-.06l.65-13.5a.06.06 0 0 1 .06-.06.05.05 0 0 1 .06.06l-.65 13.5a.06.06 0 0 1-.06.06z"/><path class="cls-1" d="M150.83 77.91l-4.11-12a.06.06 0 0 1 0-.08.06.06 0 0 1 .07 0l4.1 12a.05.05 0 0 1 0 .07z"/><path class="cls-1" d="M150.83 77.91a.06.06 0 0 1 0-.08l4.89-12a.07.07 0 0 1 .08 0 .07.07 0 0 1 0 .08l-4.9 12a.05.05 0 0 1-.07 0zm21.6-9.91l-10.3-4.5a.11.11 0 0 1-.06-.15.11.11 0 0 1 .14-.06l10.26 4.49a.12.12 0 0 1 .06.15.13.13 0 0 1-.1.07zm-40.79-4a.12.12 0 0 1-.11-.08.12.12 0 0 1 .08-.14l10.49-3a.12.12 0 0 1 .14.08.12.12 0 0 1-.08.14l-10.48 3zm59.2-16l-24.14-3.76L190.84 48zm-20.31-10.18a.13.13 0 0 1-.12-.1.12.12 0 0 1 .1-.13l21.37-2.89a.11.11 0 0 1 .13.1.12.12 0 0 1-.1.13l-21.37 2.9zm-51.64 13.87l20.17-7.71-20.16 7.71zm-2.3-14.07a.12.12 0 0 1-.12-.11.12.12 0 0 1 .12-.11h18.64a.11.11 0 1 1 0 .23h-18.64zm22.82-5.36a.12.12 0 0 1-.11-.07l-7-16.57a.11.11 0 0 1 .06-.15.11.11 0 0 1 .15.06l7 16.57a.11.11 0 0 1-.06.15zm26.94.22a.12.12 0 0 1-.09-.05.11.11 0 0 1 0-.16l16.35-11a.11.11 0 1 1 .13.19l-16.35 11z"/><path class="cls-1" d="M166.35 32.48h-.05a.11.11 0 0 1 0-.15l9.14-16.8a.12.12 0 0 1 .16 0 .12.12 0 0 1 0 .16l-9.14 16.8a.11.11 0 0 1-.11-.01zm-26.94-.22h-.07l-13.92-9.51a.12.12 0 0 1 0-.16.11.11 0 0 1 .16 0l13.9 9.41a.12.12 0 0 1-.07.21z"/><path class="cls-1" d="M118.89 51.71a.06.06 0 0 1 0-.07l6.6-29a.06.06 0 0 1 .07 0 .06.06 0 0 1 0 .07l-6.6 29a.06.06 0 0 1-.07 0zM190.84 48a.06.06 0 0 1-.06 0l-8.13-26.54a.06.06 0 0 1 .11 0L190.89 48a.06.06 0 0 1 0 .07zm-59.2 15.88L139 43.94l-7.42 19.9s.07.04.06.04zm40.79 4.03l-5.73-23.7 5.73 23.7zm19.48-32.99a.12.12 0 0 1-.11-.08l-6.44-18.31a.12.12 0 0 1 .07-.15.12.12 0 0 1 .14.07L192 34.77a.12.12 0 0 1-.07.15zm-75.32 2.7a.11.11 0 0 1-.08-.14l6.44-21.94a.11.11 0 0 1 .14-.08.12.12 0 0 1 .09.14l-6.48 21.94a.11.11 0 0 1-.11.08z"/><path class="cls-1" d="M112.75 42.41a.09.09 0 0 1-.07 0 .11.11 0 0 1 0-.16l3.83-4.79a.11.11 0 0 1 .16 0 .11.11 0 0 1 0 .16l-3.83 4.79a.14.14 0 0 1-.09 0z"/><path class="cls-1" d="M116.59 66a.11.11 0 0 1-.11-.1l-3.83-23.59a.11.11 0 0 1 .09-.13.11.11 0 0 1 .13.09l3.84 23.59a.12.12 0 0 1-.1.13z"/><path class="cls-1" d="M156.95 92.92a.34.34 0 0 1-.2-.06L116.4 66.18a.35.35 0 0 1 .38-.58l40.35 26.69a.34.34 0 0 1 .1.48.34.34 0 0 1-.28.15z"/><path class="cls-1" d="M156.95 92.92a.36.36 0 0 1-.27-.12.35.35 0 0 1 0-.48l35-28.73a.34.34 0 0 1 .44.53l-35 28.72a.33.33 0 0 1-.17.08z"/><path class="cls-1" d="M191.91 64a.11.11 0 0 1-.08-.14l5.06-21.63a.11.11 0 0 1 .14-.09.12.12 0 0 1 .09.14L192 63.88a.11.11 0 0 1-.09.12z"/><path class="cls-1" d="M197 42.34a.11.11 0 0 1-.09-.05l-5.06-7.42a.12.12 0 0 1 0-.16.11.11 0 0 1 .16 0l5.06 7.42a.11.11 0 0 1 0 .16z"/><path class="cls-1" d="M195.59 66a.11.11 0 0 1-.1-.12l1.38-23.66a.11.11 0 0 1 .12-.1.11.11 0 0 1 .11.12l-1.4 23.65a.11.11 0 0 1-.11.11z"/><path class="cls-1" d="M188.69 81.19h-.05a.12.12 0 0 1-.06-.15l6.9-15.19a.11.11 0 0 1 .15-.05.11.11 0 0 1 .05.15l-6.9 15.19a.12.12 0 0 1-.09.05z"/><path class="cls-1" d="M156.65 105.73a.12.12 0 0 1-.09 0 .12.12 0 0 1 0-.16l32-24.54a.12.12 0 0 1 .16 0 .12.12 0 0 1 0 .16l-32 24.55z"/><path class="cls-1" d="M156.65 105.73h-.07l-38.9-26.39a.11.11 0 0 1 0-.16.11.11 0 0 1 .15 0l38.91 26.39a.12.12 0 0 1 0 .16.11.11 0 0 1-.09 0z"/><path class="cls-1" d="M117.74 79.35a.11.11 0 0 1-.11-.07L111 63.44a.12.12 0 0 1 .06-.15.11.11 0 0 1 .15.06l6.68 15.84a.11.11 0 0 1-.06.14z"/><path class="cls-1" d="M111.07 63.51a.12.12 0 0 1-.11-.12l1.69-21.09a.11.11 0 0 1 .13-.1.12.12 0 0 1 .11.12l-1.71 21.08a.11.11 0 0 1-.11.11zm45.58 42.34a.23.23 0 0 1-.22-.24l.3-13a.24.24 0 0 1 .23-.23.23.23 0 0 1 .23.24l-.3 13a.23.23 0 0 1-.24.23z"/><path class="cls-1" d="M116.59 66L111 63.5a.12.12 0 0 1-.06-.15.11.11 0 0 1 .14-.06l5.52 2.5a.11.11 0 0 1 0 .22z"/><path class="cls-1" d="M117.74 79.35a.12.12 0 0 1-.12-.1l-1.14-13.35a.12.12 0 0 1 .23 0l1.15 13.35a.11.11 0 0 1-.1.12z"/><path class="cls-1" d="M116.59 66a.11.11 0 0 1-.09-.13l2.29-13.46a.12.12 0 0 1 .14-.09.12.12 0 0 1 .1.13l-2.3 13.46a.13.13 0 0 1-.14.09zm40.06 39.65l-25-41.76 25 41.76zm0 0l15.75-37.78-15.78 37.74zm.3-12.84a.22.22 0 0 1-.21-.14l-6.11-14.73a.23.23 0 0 1 .42-.17l6.11 14.73a.22.22 0 0 1-.13.29z"/><path class="cls-1" d="M156.95 92.81h-.07a.23.23 0 0 1-.16-.28l4-14.72a.23.23 0 0 1 .45.12l-4 14.73a.22.22 0 0 1-.22.15zM191.91 64a.12.12 0 0 1-.12-.11l-1.07-15.92a.12.12 0 0 1 .11-.12.12.12 0 0 1 .12.11L192 63.84a.12.12 0 0 1-.11.12z"/><path class="cls-1" d="M190.84 48.05a.1.1 0 0 1-.08 0 .11.11 0 0 1 0-.16l6.14-5.72a.11.11 0 0 1 .16 0 .11.11 0 0 1 0 .16L190.91 48a.13.13 0 0 1-.07.05zm-71.95 3.72a.12.12 0 0 1-.1-.05l-6.13-9.36a.11.11 0 0 1 0-.15.11.11 0 0 1 .16 0L119 51.6a.11.11 0 0 1 0 .16z"/><path class="cls-1" d="M111.07 63.51H111a.12.12 0 0 1 0-.16l7.82-11.73a.12.12 0 0 1 .16 0 .11.11 0 0 1 0 .16l-7.82 11.74a.11.11 0 0 1-.09-.01zM195.59 66a.12.12 0 0 1-.11-.09L190.73 48a.11.11 0 0 1 .08-.14.11.11 0 0 1 .14.08l4.76 17.95a.11.11 0 0 1-.08.14z"/><path class="cls-1" d="M195.59 66h-.06l-3.68-2a.11.11 0 0 1 0-.15.1.1 0 0 1 .15 0l3.68 2a.11.11 0 0 1 0 .15.12.12 0 0 1-.09 0z"/><path class="cls-1" d="M188.69 81.19a.11.11 0 0 1-.09-.13l3.23-17.22a.11.11 0 0 1 .13-.1.12.12 0 0 1 .09.14l-3.25 17.21a.12.12 0 0 1-.11.1zm-31.74 23.74l33.89-57-33.9 57zm-.3.74a.05.05 0 0 1-.05 0l-37.76-54a.07.07 0 0 1 0-.08.05.05 0 0 1 .08 0l37.75 54a.05.05 0 0 1 0 .08zM132.39 1.57h-10.58a.12.12 0 0 1-.12-.11.11.11 0 0 1 .12-.11h10.58a.11.11 0 0 1 .12.11.11.11 0 0 1-.12.11z"/><path class="cls-1" d="M125.49 22.69a.06.06 0 0 1-.06-.06l.77-22.4a.06.06 0 0 1 .05-.06.05.05 0 0 1 .06.06l-.77 22.4a.06.06 0 0 1-.05.06z"/><path class="cls-1" d="M132.39 15.63l-12-9.28a.05.05 0 0 1 0-.08.06.06 0 0 1 .08 0l12 9.28a.06.06 0 0 1 0 .08zm7.48-4.45l-18.09-9.67a.06.06 0 0 1 0-.08.06.06 0 0 1 .08 0l18.06 9.66a.06.06 0 0 1 0 .08l-.05.01zM166.7 11a.05.05 0 0 1 0-.07l18.76-9.47a.06.06 0 0 1 .08 0 .06.06 0 0 1 0 .07L166.72 11z"/><path class="cls-1" d="M175.49 15.63a.05.05 0 0 1 0-.07l4.4-15.34a.06.06 0 0 1 .07 0 .06.06 0 0 1 0 .07l-4.45 15.34a.06.06 0 0 1-.02 0z"/><path class="cls-1" d="M175.49 15.8a.23.23 0 0 1-.23-.2l-2-13.19a.23.23 0 0 1 .46-.07l2 13.19a.22.22 0 0 1-.19.26z"/><path class="cls-1" d="M175.49 15.63a.06.06 0 0 1 0-.08l12-9.28a.05.05 0 0 1 .08 0 .06.06 0 0 1 0 .08l-12 9.28z"/><path class="cls-1" d="M185.47 16.61a.12.12 0 0 1-.12-.11v-15a.12.12 0 0 1 .12-.11.11.11 0 0 1 .11.11v15a.11.11 0 0 1-.11.11z"/><path class="cls-1" d="M185.47 16.61l-10-.92a.11.11 0 1 1 0-.22l10 .92a.11.11 0 0 1 .1.12.11.11 0 0 1-.1.1zm-53.08-.98a.06.06 0 0 1-.06-.06V1.46a.06.06 0 0 1 .06-.06.06.06 0 0 1 .06.06v14.11a.06.06 0 0 1-.06.06zm-21.32 11.78l12-11.81-12 11.81zM98.9 44.24a.06.06 0 0 1 0-.08L111 27.35a.06.06 0 0 1 .08 0 .05.05 0 0 1 0 .08L98.94 44.21z"/><path class="cls-1" d="M90.51 81.19a.11.11 0 0 1-.11-.19l8.39-36.89a.11.11 0 0 1 .14-.08.11.11 0 0 1 .09.13l-8.4 36.94a.11.11 0 0 1-.11.09z"/><path class="cls-1" d="M89.29 127.54a.35.35 0 0 1-.35-.35l1.23-46.12a.34.34 0 0 1 .35-.33.34.34 0 0 1 .34.35l-1.22 46.12a.35.35 0 0 1-.35.33zm36.2-104.8l-45.63-8.13a.11.11 0 0 1-.09-.13.12.12 0 0 1 .13-.1l45.61 8.13a.12.12 0 0 1 .1.13.12.12 0 0 1-.12.1z"/><path class="cls-1" d="M44.08 21.51a.11.11 0 0 1 0-.23l35.79-6.91a.12.12 0 0 1 .14.09.12.12 0 0 1-.09.13l-35.8 6.9z"/><path class="cls-1" d="M11.36 45.14a.06.06 0 0 1 0-.08l32.69-23.71a.06.06 0 0 1 .08 0 .05.05 0 0 1 0 .08l-32.74 23.7z"/><path class="cls-1" d="M1.54 68.48a.07.07 0 0 1 0-.08l9.76-23.34a.06.06 0 0 1 .08 0 .06.06 0 0 1 0 .08l-9.79 23.3a.06.06 0 0 1-.05.04z"/><path class="cls-1" d="M3.58 132a.11.11 0 0 1-.11-.11l-2-63.48a.12.12 0 0 1 .11-.12.11.11 0 0 1 .12.11l2 63.48a.12.12 0 0 1-.11.12z"/><path class="cls-1" d="M15 182.48a.06.06 0 0 1-.06 0L3.53 131.91a.06.06 0 0 1 0-.07.06.06 0 0 1 .07 0l11.5 50.57a.06.06 0 0 1 0 .07z"/><path class="cls-1" d="M63.92 186.42L15 182.53a.11.11 0 0 1-.1-.12.11.11 0 0 1 .12-.11l48.88 3.88a.11.11 0 0 1 .1.12.12.12 0 0 1-.08.12z"/><path class="cls-1" d="M63.92 186.42h-.08a.12.12 0 0 1 0-.16l3.27-3.89a.12.12 0 0 1 .16 0 .11.11 0 0 1 0 .16L64 186.38a.11.11 0 0 1-.08.04z"/><path class="cls-1" d="M71.69 186.42a.1.1 0 0 1-.07 0l-4.5-3.89a.12.12 0 0 1 0-.16.12.12 0 0 1 .16 0l4.49 3.89a.11.11 0 0 1 0 .16.12.12 0 0 1-.08 0z"/><path class="cls-1" d="M71.69 186.42a.12.12 0 0 1-.1-.06l-3.78-6.45a.11.11 0 0 1 0-.16.11.11 0 0 1 .15 0l3.78 6.44a.11.11 0 0 1 0 .16z"/><path class="cls-1" d="M71.69 183.76a.1.1 0 0 1-.08 0l-3.79-3.78a.12.12 0 0 1 0-.16.12.12 0 0 1 .16 0l3.79 3.79a.12.12 0 0 1 0 .16.11.11 0 0 1-.08-.01z"/><path class="cls-1" d="M71.69 183.76a.11.11 0 0 1-.1-.05l-2.76-4.5a.11.11 0 0 1 0-.16.11.11 0 0 1 .15 0l2.76 4.5a.12.12 0 0 1 0 .16z"/><path class="cls-1" d="M71.69 181.51a.09.09 0 0 1-.07 0l-2.76-2.25a.11.11 0 0 1 0-.16.11.11 0 0 1 .16 0l2.76 2.25a.12.12 0 0 1 0 .17.13.13 0 0 1-.09-.01zm-31.18-4.64l-.02-.46 19.84-.76.02.45-19.84.77z"/><path class="cls-1" d="M40.51 177h-.09a.35.35 0 0 1-.25-.41l4-16.92a.34.34 0 1 1 .67.15l-4 16.92a.34.34 0 0 1-.33.26zm11.15-.67a.12.12 0 0 1-.1-.14l4.09-26a.11.11 0 0 1 .13-.09.11.11 0 0 1 .09.13l-4.09 26a.12.12 0 0 1-.12.1z"/><path class="cls-1" d="M55.74 150.32a.12.12 0 0 1-.11-.12l1.64-28.53a.12.12 0 0 1 .12-.11.11.11 0 0 1 .1.12l-1.63 28.53a.11.11 0 0 1-.12.11z"/><path class="cls-1" d="M57.38 121.79a.11.11 0 0 1-.08 0l-13.91-14.15a.12.12 0 1 1 .17-.16l13.91 14.11a.11.11 0 0 1 0 .16.1.1 0 0 1-.09.04z"/><path class="cls-1" d="M43.47 107.68a.12.12 0 0 1-.12-.12l1-35.69a.12.12 0 0 1 .11-.11.11.11 0 0 1 .11.12l-1 35.69a.12.12 0 0 1-.1.11z"/><path class="cls-1" d="M44.49 71.9L60.42 36l-16 35.86z"/><path class="cls-1" d="M60.44 36.36a.35.35 0 0 1-.12-.67l25.16-9.47a.35.35 0 0 1 .44.2.34.34 0 0 1-.2.45l-25.15 9.46z"/><path class="cls-1" d="M85.61 26.65a.12.12 0 0 1-.11-.07l-5.73-12a.12.12 0 0 1 .06-.15.11.11 0 0 1 .15.06l5.73 12a.12.12 0 0 1-.06.15z"/><path class="cls-1" d="M98.9 44.3a.12.12 0 0 1-.09 0l-13.3-17.69a.12.12 0 0 1 0-.16.11.11 0 0 1 .16 0L99 44.11a.12.12 0 0 1 0 .16.1.1 0 0 1-.1.03z"/><path class="cls-1" d="M85.61 26.6l-41.53-5.14a.06.06 0 0 1-.05-.06.06.06 0 0 1 .06 0l41.52 5.14a.06.06 0 0 1 0 .12z"/><path class="cls-1" d="M60.44 36.36a.36.36 0 0 1-.23-.09L43.85 21.66a.35.35 0 0 1 0-.49.35.35 0 0 1 .49 0l16.33 14.59a.35.35 0 0 1 0 .48.36.36 0 0 1-.23.12z"/><path class="cls-1" d="M98.9 44.3l-38.48-8.18a.11.11 0 0 1-.08-.14.11.11 0 0 1 .14-.09l38.45 8.17a.11.11 0 0 1 .09.13.12.12 0 0 1-.12.11zm13.85-1.66a.36.36 0 0 1-.17 0l-27.15-15.8a.34.34 0 0 1-.13-.47.35.35 0 0 1 .48-.13L112.92 42a.34.34 0 0 1 .13.47.34.34 0 0 1-.3.17z"/><path class="cls-1" d="M116.59 37.62l-31-11a.11.11 0 0 1-.07-.15.12.12 0 0 1 .15-.07l31 11a.12.12 0 0 1 .07.14.12.12 0 0 1-.15.08zm-5.52 25.89a.12.12 0 0 1-.1 0L98.8 44.24a.12.12 0 0 1 .2-.12l12.17 19.21a.12.12 0 0 1 0 .16zM90.51 81.42h-.07l-46-9.2a.34.34 0 0 1-.27-.4.35.35 0 0 1 .41-.27l46 9.21a.34.34 0 0 1-.07.68z"/><path class="cls-1" d="M44.49 72l-43-3.45a.11.11 0 0 1-.1-.12.12.12 0 0 1 .12-.1l43 3.45a.11.11 0 0 1 .1.13.11.11 0 0 1-.12.09z"/><path class="cls-1" d="M44.49 71.9L11.34 45.1l33.17 26.75zm2.05-26.7a.11.11 0 0 1-.12-.1L44 21.41a.11.11 0 0 1 .1-.13.12.12 0 0 1 .13.1l2.45 23.68a.12.12 0 0 1-.1.12z"/><path class="cls-1" d="M46.54 45.2H11.36a.12.12 0 0 1-.12-.12.12.12 0 0 1 .12-.11h35.18a.11.11 0 0 1 .11.11.12.12 0 0 1-.11.12z"/><path class="cls-1" d="M46.54 45.43a.35.35 0 0 1-.29-.16.34.34 0 0 1 .1-.47l13.91-9.07a.34.34 0 0 1 .47.1.34.34 0 0 1-.1.48l-13.9 9.06a.34.34 0 0 1-.19.06z"/><path class="cls-1" d="M46.54 45.11l52.36-.9v.06l-52.36.9z"/><path class="cls-1" d="M81.31 64.47h-.06L46.48 45.18a.12.12 0 0 1 0-.15.12.12 0 0 1 .16 0l34.72 19.22a.11.11 0 0 1 0 .16.12.12 0 0 1-.05.06z"/><path class="cls-1" d="M90.51 81.19a.12.12 0 0 1-.1-.06l-9.2-16.72a.12.12 0 0 1 0-.16.11.11 0 0 1 .15 0L90.61 81a.11.11 0 0 1 0 .16z"/><path class="cls-1" d="M81.31 64.47a.12.12 0 0 1 0-.23l29.76-1a.12.12 0 0 1 .12.11.11.11 0 0 1-.11.12l-29.76 1z"/><path class="cls-1" d="M57.38 122h-.13a.33.33 0 0 1-.18-.45L81 64.22a.34.34 0 1 1 .63.27L57.69 121.8a.35.35 0 0 1-.31.2zm-53.8 10a.11.11 0 0 1-.1-.06.12.12 0 0 1 0-.16l39.88-24.34a.11.11 0 0 1 .12.2L3.64 132zm21.07-40.78a.2.2 0 0 1-.1 0 .23.23 0 0 1-.11-.3L40.3 56.66a.23.23 0 0 1 .3-.12.23.23 0 0 1 .11.3L24.86 91.09a.23.23 0 0 1-.21.13z"/><path class="cls-1" d="M68.93 68.65h-.09L40.42 57a.23.23 0 0 1-.13-.3.23.23 0 0 1 .3-.13L69 68.21a.23.23 0 0 1 .13.3.24.24 0 0 1-.2.14z"/><path class="cls-1" d="M58.4 97.15h-.09a.23.23 0 0 1-.13-.3l10.54-28.52a.23.23 0 0 1 .28-.13.22.22 0 0 1 .14.29L58.61 97a.22.22 0 0 1-.21.15z"/><path class="cls-1" d="M43.47 107.68a.13.13 0 0 1-.09-.05.12.12 0 0 1 0-.16l14.95-10.64a.12.12 0 0 1 .16 0 .11.11 0 0 1 0 .16l-14.95 10.66z"/><path class="cls-1" d="M89.29 127.25L58.36 97a.06.06 0 0 1 0-.08.07.07 0 0 1 .08 0l30.88 30.28a.06.06 0 0 1 0 .08z"/><path class="cls-1" d="M89.29 127.54h-.06L57.32 122a.34.34 0 0 1-.28-.4.34.34 0 0 1 .4-.28l31.91 5.52a.33.33 0 0 1 .28.4.34.34 0 0 1-.34.3zm-44.8 32.29a.11.11 0 0 1-.11-.11l-1-52.16a.12.12 0 0 1 .12-.12.11.11 0 0 1 .11.11l1 52.16a.11.11 0 0 1-.11.12z"/><path class="cls-1" d="M55.74 150.32a.11.11 0 0 1-.11-.08l-12.27-42.65a.12.12 0 0 1 .08-.14.11.11 0 0 1 .14.08l12.27 42.64a.11.11 0 0 1-.08.14z"/><path class="cls-1" d="M44.49 160.06h-.11a.35.35 0 0 1-.22-.44l12.89-38a.34.34 0 0 1 .44-.21.34.34 0 0 1 .22.44l-12.88 38a.34.34 0 0 1-.34.21z"/><path class="cls-1" d="M44.49 160.06h-.08a.35.35 0 0 1-.26-.41l13.91-62.8a.34.34 0 0 1 .67.15l-13.9 62.79a.34.34 0 0 1-.34.27z"/><path class="cls-1" d="M52.05 137.5L3.57 132a.11.11 0 0 1-.1-.13.11.11 0 0 1 .13-.1l48.47 5.49a.11.11 0 0 1 .1.13.11.11 0 0 1-.12.11zM15 182.48a.06.06 0 0 1-.05-.06l1.43-45a.06.06 0 0 1 .06-.05.05.05 0 0 1 .05.06l-1.43 45a.06.06 0 0 1-.06.05z"/><path class="cls-1" d="M16.47 137.5a.11.11 0 0 1-.11-.09l-14.93-69a.12.12 0 0 1 .09-.14.11.11 0 0 1 .14.09l14.93 69a.11.11 0 0 1-.09.13z"/><path class="cls-1" d="M16.47 137.62a.23.23 0 0 1-.19-.27L24.43 91a.23.23 0 0 1 .26-.18.23.23 0 0 1 .19.26l-8.19 46.4a.23.23 0 0 1-.22.14z"/><path class="cls-1" d="M24.65 91.22a.23.23 0 0 1-.16-.07L1.38 68.58a.23.23 0 0 1 .32-.33l23.11 22.58a.22.22 0 0 1 0 .32.23.23 0 0 1-.16.07z"/><path class="cls-1" d="M58.4 97.15l-33.78-5.93a.23.23 0 0 1-.19-.27.23.23 0 0 1 .26-.19l33.75 5.94a.23.23 0 0 1 .18.27.22.22 0 0 1-.22.18z"/><path class="cls-1" d="M58.4 97a.12.12 0 0 1-.11-.08.12.12 0 0 1 .08-.14l59.34-17.69a.12.12 0 0 1 .14.08.12.12 0 0 1-.08.14L58.43 97z"/><path class="cls-1" d="M90.51 81.42a.34.34 0 0 1 0-.69l27.23-1.84a.35.35 0 0 1 0 .69l-27.2 1.84zm-.61 72.71a.35.35 0 0 1-.35-.34l-.62-26.59a.35.35 0 0 1 .34-.35.35.35 0 0 1 .35.33l.61 26.59a.35.35 0 0 1-.33.35z"/><path class="cls-1" d="M111.07 190a.25.25 0 0 1-.2-.11l-21.17-36a.23.23 0 0 1 .08-.31.23.23 0 0 1 .31.08l21.17 36a.22.22 0 0 1-.08.31.21.21 0 0 1-.11.03z"/><path class="cls-1" d="M124.06 195l-13-5.12a.11.11 0 0 1-.06-.15.11.11 0 0 1 .14-.06l13 5.11a.11.11 0 0 1 .07.15.12.12 0 0 1-.15.07z"/><path class="cls-1" d="M124.06 195.13a.23.23 0 0 1-.23-.2.23.23 0 0 1 .2-.26l21.2-2.56a.23.23 0 0 1 .25.21.23.23 0 0 1-.2.26l-21.2 2.55z"/><path class="cls-1" d="M145.25 192.45a.11.11 0 0 1-.12-.11v-3.58a.12.12 0 0 1 .12-.11.12.12 0 0 1 .12.11v3.58a.11.11 0 0 1-.12.11z"/><path class="cls-1" d="M153.28 192.45h-.05l-8-3.58a.11.11 0 0 1 .09-.21l8 3.58a.12.12 0 0 1 .06.15.11.11 0 0 1-.1.06z"/><path class="cls-1" d="M153.28 192.45a.1.1 0 0 1-.07 0l-5.56-4.6a.11.11 0 0 1 0-.16.12.12 0 0 1 .16 0l5.56 4.6a.11.11 0 0 1 0 .16.1.1 0 0 1-.09 0z"/><path class="cls-1" d="M157.24 192.45h-.05l-9.52-4.6a.12.12 0 0 1-.05-.15.11.11 0 0 1 .15-.06l9.52 4.6a.12.12 0 0 1 .06.15.13.13 0 0 1-.11.06z"/><path class="cls-1" d="M157.24 192.68a.34.34 0 0 1-.21-.07l-8-6a.35.35 0 0 1-.07-.48.36.36 0 0 1 .49-.06l8 6a.35.35 0 0 1 .06.48.34.34 0 0 1-.27.13z"/><path class="cls-1" d="M149.27 186.65h-17.63a.34.34 0 0 1 0-.69h17.63a.34.34 0 1 1 0 .69z"/><path class="cls-1" d="M131.64 186.65a.34.34 0 0 1-.34-.28l-4.93-26.59a.34.34 0 0 1 .28-.4.34.34 0 0 1 .4.28l4.95 26.58a.34.34 0 0 1-.27.4z"/><path class="cls-1" d="M126.71 160.06h-.05a.35.35 0 0 1-.28-.4l4.93-30.83a.34.34 0 1 1 .67.11L127 159.77a.34.34 0 0 1-.29.29z"/><path class="cls-1" d="M131.64 128.94a.06.06 0 0 1 0-.08l12.5-21.32a.05.05 0 0 1 .07 0 .06.06 0 0 1 0 .08l-12.5 21.32a.06.06 0 0 1-.07 0z"/><path class="cls-1" d="M144.14 110.68a.05.05 0 0 1-.06-.05l-.62-26.93a.06.06 0 0 1 .06-.06.06.06 0 0 1 .06.06l.62 26.92a.06.06 0 0 1-.06.06z"/><path class="cls-1" d="M132.64 157.39h-.05a.24.24 0 0 1-.17-.28l11.5-46.53a.23.23 0 1 1 .44.11l-11.49 46.53a.23.23 0 0 1-.23.17z"/><path class="cls-1" d="M134.66 186.53a.23.23 0 0 1-.23-.21l-2-30.07a.24.24 0 0 1 .22-.25.24.24 0 0 1 .25.22l2 30.07a.22.22 0 0 1-.21.24zm12.07-.11a.11.11 0 0 1-.09-.13l2.53-16.36a.12.12 0 0 1 .13-.1.12.12 0 0 1 .09.13l-2.53 16.36a.12.12 0 0 1-.13.1z"/><path class="cls-1" d="M149.27 170.29a.34.34 0 0 1-.19-.05.35.35 0 0 1-.11-.47l25.16-39.07a.34.34 0 1 1 .58.37l-25.16 39.07a.34.34 0 0 1-.28.15zM40.51 176.7a.06.06 0 0 1-.05 0l-24-40.7a.05.05 0 0 1 0-.08.05.05 0 0 1 .08 0l24 40.7a.05.05 0 0 1 0 .08z"/><path class="cls-1" d="M15 182.53a.12.12 0 0 1-.07-.15l28.43-74.86a.12.12 0 0 1 .15-.06.11.11 0 0 1 .07.15l-28.44 74.85a.11.11 0 0 1-.14.07z"/><path class="cls-1" d="M15 182.53a.12.12 0 0 1-.11-.08.11.11 0 0 1 .09-.14l25.46-5.78a.11.11 0 0 1 .14.08.12.12 0 0 1-.09.14l-25.46 5.77z"/><path class="cls-1" d="M63.92 186.36l-23.42-9.67a.06.06 0 0 1 0-.07.06.06 0 0 1 .08 0L64 186.28a.06.06 0 0 1 0 .11zm3.27-3.83l-25.69-5.77a.11.11 0 0 1-.09-.14.12.12 0 0 1 .14-.08l25.67 5.78a.11.11 0 0 1 .09.14.11.11 0 0 1-.12.07z"/><path class="cls-1" d="M42.5 184.72a.11.11 0 0 1-.11-.09l-2-8a.11.11 0 0 1 .08-.14.12.12 0 0 1 .14.08l2 8a.12.12 0 0 1-.08.14z"/><path class="cls-1" d="M67.91 180l-27.41-3.22a.12.12 0 0 1-.1-.13.12.12 0 0 1 .13-.11l27.41 3.23a.11.11 0 0 1 .1.13.12.12 0 0 1-.13.1zm1.02-.74l-28.43-2.51a.12.12 0 0 1-.11-.12.12.12 0 0 1 .13-.11L68.94 179a.12.12 0 0 1 .1.12.12.12 0 0 1-.11.14zm78.79 8.74l-16.09-1.43a.23.23 0 1 1 0-.46l16.07 1.43a.23.23 0 0 1 .21.25.23.23 0 0 1-.19.21z"/><path class="cls-1" d="M145.25 189l-13.62-2.45a.23.23 0 0 1-.18-.27.23.23 0 0 1 .27-.18l13.61 2.45a.23.23 0 0 1 .19.27.23.23 0 0 1-.27.18z"/><path class="cls-1" d="M124.06 195a.14.14 0 0 1-.08 0 .12.12 0 0 1 0-.16l7.59-8.59a.12.12 0 0 1 .17.15l-7.6 8.6a.11.11 0 0 1-.08 0z"/><path class="cls-1" d="M111.07 189.9a.12.12 0 0 1-.12-.09.12.12 0 0 1 .1-.13l20.58-3.48a.12.12 0 0 1 .13.1.11.11 0 0 1-.09.13l-20.58 3.48z"/><path class="cls-1" d="M145.25 192.57h-.09l-13.61-6a.23.23 0 1 1 .19-.42l13.61 6a.23.23 0 0 1-.09.44zm0-.2l-34.19-2.56 34.19 2.56zm-81.33-6.04L12.9 173l51 13.3.02.03z"/><path class="cls-1" d="M12.91 173.13a.11.11 0 0 1-.1-.12l3.56-37.07a.11.11 0 0 1 .13-.1.11.11 0 0 1 .11.12L13 173a.11.11 0 0 1-.09.13z"/><path class="cls-1" transform="rotate(-80.73 86.82 141.33)" d="M71.67 141.11h30.32v.46H71.67z"/><path class="cls-1" transform="rotate(-71.58 81.12 166.087)" d="M70.78 165.85h20.65v.46H70.78z"/><path class="cls-1" d="M96.19 176.44l-18.36-.34a.23.23 0 0 1 0-.46l18.35.34a.23.23 0 0 1 0 .46z"/><path class="cls-1" d="M100.48 180.85a.23.23 0 0 1-.16-.07L96 176.37a.23.23 0 0 1 0-.32.23.23 0 0 1 .33 0l4.29 4.41a.23.23 0 0 1 0 .32.21.21 0 0 1-.14.07z"/><path class="cls-1" d="M100.48 180.74h-.05L94.65 178a.12.12 0 0 1 .1-.21l5.78 2.73a.11.11 0 0 1 .05.15.11.11 0 0 1-.1.07z"/><path class="cls-1" d="M98.34 184.72a.11.11 0 0 1-.1-.06l-3.63-6.71a.11.11 0 0 1 0-.15.11.11 0 0 1 .15 0l3.63 6.71a.12.12 0 0 1 0 .16z"/><path class="cls-1" d="M98.34 184.72h-.07l-6.6-5.2a.11.11 0 0 1 .14-.18l6.6 5.2a.11.11 0 0 1 0 .16.09.09 0 0 1-.07.02z"/><path class="cls-1" d="M89.9 184.72a.11.11 0 0 1-.07-.15l1.84-5.2a.11.11 0 0 1 .14-.07.12.12 0 0 1 .08.15L90 184.64a.12.12 0 0 1-.1.08z"/><path class="cls-1" d="M89.9 184.72l-16.06-1a.11.11 0 0 1-.11-.12.12.12 0 0 1 .12-.11l16.06 1a.12.12 0 0 1 0 .23z"/><path class="cls-1" d="M73.84 183.76l-22.19-7.44a.11.11 0 0 1-.07-.15.12.12 0 0 1 .15-.07l22.18 7.44a.12.12 0 0 1 .07.14.11.11 0 0 1-.14.08zm17.9-4.24L77.81 176a.11.11 0 0 1-.09-.14.11.11 0 0 1 .13-.08l13.91 3.53a.12.12 0 0 1 .08.14.12.12 0 0 1-.1.07z"/><path class="cls-1" d="M94.7 178l-16.87-2a.11.11 0 0 1-.09-.13.11.11 0 0 1 .12-.1l16.87 2a.12.12 0 0 1 .11.13.12.12 0 0 1-.14.1z"/><path class="cls-1" d="M89.9 184.66l-12.07-8.73a.06.06 0 0 1 0-.08.06.06 0 0 1 .08 0l12.07 8.73a.06.06 0 0 1 0 .08h-.08zm-5.53-28.25h-.06l-14.92-9.05a.12.12 0 0 1 0-.16.11.11 0 0 1 .16 0l14.93 9a.12.12 0 0 1 0 .16.13.13 0 0 1-.11.05z"/><path class="cls-1" d="M69.45 147.3a.06.06 0 0 1 0-.07l3.88-29a.06.06 0 0 1 .12 0l-3.88 29a.07.07 0 0 1-.12.07z"/><path class="cls-1" d="M73.33 118.34a.11.11 0 0 1-.06-.15L90.4 81a.12.12 0 0 1 .16-.05.11.11 0 0 1 .05.15l-17.18 37.17a.1.1 0 0 1-.1.07zM40.51 57h-.11a.23.23 0 0 1-.09-.31l6-11.67a.23.23 0 1 1 .41.21l-6 11.67a.22.22 0 0 1-.21.1z"/><path class="cls-1" d="M1.54 68.53a.11.11 0 0 1-.11-.08.11.11 0 0 1 .07-.14l39-11.67a.12.12 0 0 1 .07.22l-39 11.67zm67.39.12a.23.23 0 0 1-.07-.45l12.37-4.07a.23.23 0 0 1 .29.15.24.24 0 0 1-.15.29L69 68.64z"/><path class="cls-1" d="M81.31 64.47a.12.12 0 0 1-.08 0 .11.11 0 0 1 0-.16L98.81 44.1a.11.11 0 0 1 .16 0 .12.12 0 0 1 0 .16L81.4 64.43a.13.13 0 0 1-.09.04zm-3.48 111.44l-8.39-28.63 8.38 28.63z"/><path class="cls-1" d="M69.45 147.3a.06.06 0 0 1-.06 0l-11-50.32a.06.06 0 0 1 0-.07.06.06 0 0 1 .07 0l11 50.31a.06.06 0 0 1-.05.07z"/><path class="cls-1" d="M73.33 118.34a.12.12 0 0 1-.1 0L58.31 97a.11.11 0 1 1 .19-.13l14.93 21.3a.12.12 0 0 1 0 .16z"/><path class="cls-1" d="M89.29 127.25l-16-9a.06.06 0 0 1 0-.08.05.05 0 0 1 .07 0l16 9a.06.06 0 0 1 0 .08z"/><path class="cls-1" d="M51.66 176.33a.12.12 0 0 1-.07-.15l21.67-58a.12.12 0 1 1 .22.08l-21.68 58a.11.11 0 0 1-.14.07z"/><path class="cls-1" d="M51.66 176.33h-.07a.11.11 0 0 1 0-.16l17.79-29a.11.11 0 0 1 .16 0 .11.11 0 0 1 0 .16l-17.79 29a.11.11 0 0 1-.09 0z"/><path class="cls-1" d="M51.66 176.33a.12.12 0 0 1-.11-.12.11.11 0 0 1 .11-.12l26.18-.34a.11.11 0 0 1 .11.11.12.12 0 0 1-.11.12l-26.17.34z"/><path class="cls-1" d="M51.66 176.24l32.72-19.92-32.71 19.91z"/><path class="cls-1" d="M84.37 156.41a.11.11 0 0 1-.11-.09l-11-38.07a.12.12 0 0 1 .08-.15.11.11 0 0 1 .14.08l11 38.07a.11.11 0 0 1-.08.14zm4.92-29.19l28.46-48-28.46 48zM89.9 154h-.11a.23.23 0 0 1-.09-.31l21.17-39.59a.23.23 0 1 1 .4.22L90.1 153.89a.23.23 0 0 1-.2.11z"/><path class="cls-1" d="M111.07 114.31a.11.11 0 0 1-.09-.14l6.68-35a.11.11 0 0 1 .13-.09.11.11 0 0 1 .09.13l-6.67 35a.12.12 0 0 1-.14.1z"/><path class="cls-1" d="M111.07 114.31a.11.11 0 0 1-.11-.09.12.12 0 0 1 .09-.14l33.07-6.63a.11.11 0 0 1 .13.09.11.11 0 0 1-.09.14l-33.07 6.63z"/><path class="cls-1" d="M131.64 129.11a.25.25 0 0 1-.13 0l-20.58-14.7a.23.23 0 0 1 .27-.37l20.58 14.69a.23.23 0 0 1-.13.42zm-4.93 30.72h-.05l-15.64-8a.12.12 0 0 1-.05-.16.12.12 0 0 1 .15 0l15.64 7.95a.12.12 0 0 1 .05.16.11.11 0 0 1-.1.05z"/><path class="cls-1" d="M111.07 151.79l15.19-33.54-15.18 33.55zm15.18-33.54l17.25-34.56-17.27 34.51z"/><path class="cls-1" d="M111.07 114.25v-.08l32.46-30.49a.05.05 0 0 1 .08 0 .06.06 0 0 1 0 .08l-32.46 30.49z"/><path class="cls-1" d="M111.07 152.11a.34.34 0 0 1-.34-.34v-37.58a.34.34 0 0 1 .34-.34.34.34 0 0 1 .34.34v37.57a.34.34 0 0 1-.34.35z"/><path class="cls-1" d="M111.07 189.9a.12.12 0 0 1-.12-.11v-38a.12.12 0 0 1 .12-.11.11.11 0 0 1 .11.11v38a.12.12 0 0 1-.11.11zM89.9 154h-.09a.23.23 0 0 1-.14-.29l27.85-74.55a.23.23 0 0 1 .43.16l-27.84 74.54a.23.23 0 0 1-.21.14z"/><path class="cls-1" d="M126.71 159.94L89.86 154a.23.23 0 0 1-.19-.26.22.22 0 0 1 .26-.19l36.82 5.93a.23.23 0 0 1 .19.26.23.23 0 0 1-.23.2z"/><path class="cls-1" d="M89.9 154.13a.35.35 0 0 1-.35-.31.34.34 0 0 1 .31-.38l21.17-2a.35.35 0 0 1 .37.31.33.33 0 0 1-.31.37l-21.17 2z"/><path class="cls-1" d="M127.61 191.11a.24.24 0 0 1-.16-.07l-37.72-37.09a.24.24 0 0 1 0-.33.23.23 0 0 1 .33 0l37.71 37.09a.23.23 0 0 1 0 .33.24.24 0 0 1-.16.07z"/><path class="cls-1" d="M127.61 191.11a.24.24 0 0 1-.23-.22l-.89-31.16a.22.22 0 0 1 .22-.23.23.23 0 0 1 .23.22l.89 31.16a.23.23 0 0 1-.23.24zm7.05-4.75a.06.06 0 0 1 0-.07l22-80.69a.05.05 0 0 1 .07 0 .06.06 0 0 1 0 .07l-22 80.69a.05.05 0 0 1-.07 0z"/><path class="cls-1" d="M144.14 110.68h-.05a.05.05 0 0 1 0-.07l12.5-5h.07a.05.05 0 0 1 0 .08l-12.5 5zm0-3a.12.12 0 0 1-.11-.1.12.12 0 0 1 .09-.14l12.8-2.66a.11.11 0 0 1 .14.09.11.11 0 0 1-.09.13l-12.8 2.66z"/><path class="cls-1" d="M131.64 129.11a.23.23 0 0 1-.13 0 .23.23 0 0 1-.06-.32L144 110.5a.23.23 0 0 1 .32-.06.23.23 0 0 1 .06.32L131.83 129a.23.23 0 0 1-.19.11zm42.79 1.89a.11.11 0 0 1-.09 0l-17.78-25.26a.11.11 0 0 1 0-.16.12.12 0 0 1 .16 0l17.78 25.26a.12.12 0 0 1 0 .16z"/><path class="cls-1" d="M174.43 131a.13.13 0 0 1-.07-.15l11-27.66a.11.11 0 1 1 .21.08l-11 27.66a.12.12 0 0 1-.14.07zm-8.08-25.27l-9.41-.71a.11.11 0 0 1-.11-.12.12.12 0 0 1 .12-.11l9.42.71a.11.11 0 0 1 .1.12.11.11 0 0 1-.12.11zm8.08 25.17l-8.07-25.26 8.07 25.26zm-10.3-22.66l-7.49-2.51a.11.11 0 0 1-.07-.14.11.11 0 0 1 .14-.08l7.49 2.51a.12.12 0 0 1 .07.14.12.12 0 0 1-.14.08z"/><path class="cls-1" d="M164.13 108.18a.05.05 0 0 1 0-.08l24.56-27a.06.06 0 0 1 .08 0 .06.06 0 0 1 0 .08l-24.55 27.05z"/><path class="cls-1" d="M173.5 129.62a.05.05 0 0 1-.06 0l-9.37-21.44a.06.06 0 0 1 0-.08.05.05 0 0 1 .07 0l9.37 21.44a.05.05 0 0 1 0 .07zm11.97-26.29a.12.12 0 0 1-.1-.13l3.22-22.14a.12.12 0 0 1 .13-.1.11.11 0 0 1 .09.13l-3.22 22.14a.11.11 0 0 1-.12.1zm-53.83 25.89a.34.34 0 0 1-.24-.59l25-23.27a.34.34 0 1 1 .47.5l-25 23.27a.36.36 0 0 1-.23.09z"/><path class="cls-1" d="M149.27 170a.06.06 0 0 1 0-.07l14.86-61.82a.06.06 0 1 1 .11 0L149.32 170a.06.06 0 0 1-.05 0z"/><path class="cls-1" d="M150.19 147.35a.11.11 0 0 1-.09-.05.11.11 0 0 1 0-.16l24.24-16.36a.11.11 0 0 1 .16 0 .11.11 0 0 1 0 .16l-24.24 16.36z"/><path class="cls-1" d="M150.19 147.35a.12.12 0 0 1-.11-.08l-8.16-28a.11.11 0 0 1 .08-.14.11.11 0 0 1 .14.08l8.17 28a.12.12 0 0 1-.08.14z"/><path class="cls-1" d="M146.73 186.36a.06.06 0 0 1-.05-.06l3.45-39.07s0-.06.06 0a.05.05 0 0 1 .05.06l-3.45 39.07a.05.05 0 0 1-.06 0z"/><path class="cls-1" d="M134.66 186.42a.11.11 0 0 1-.08 0 .11.11 0 0 1 0-.16l14.61-16.36a.11.11 0 0 1 .16 0 .11.11 0 0 1 0 .16l-14.61 16.36a.14.14 0 0 1-.08 0zm-2.02-29.14a.12.12 0 0 1-.1-.06.11.11 0 0 1 0-.15l17.54-9.93a.12.12 0 0 1 .15 0 .11.11 0 0 1 0 .15l-17.54 9.92z"/><path class="cls-1" d="M163.89 147.35h-13.7a.12.12 0 0 1-.11-.12.11.11 0 0 1 .11-.11h13.7a.12.12 0 0 1 .12.11.12.12 0 0 1-.12.12z"/><path class="cls-1" d="M163.89 147.35h-.05a.12.12 0 0 1-.05-.15l21.58-44a.12.12 0 0 1 .16-.06.12.12 0 0 1 .05.15l-21.58 44a.11.11 0 0 1-.11.06z"/><path class="cls-1" d="M185.47 103.33a.13.13 0 0 1-.1-.05l-14.18-22.42a.11.11 0 1 1 .19-.12l14.18 22.42a.11.11 0 0 1 0 .16z"/><path class="cls-1" d="M174.43 130.9l-3.14-50.08 3.13 50.08z"/><path class="cls-1" d="M164.13 108.24a.11.11 0 0 1-.08-.14l7.15-27.33a.12.12 0 0 1 .15-.08.12.12 0 0 1 .08.14l-7.16 27.32a.11.11 0 0 1-.14.09zm-36.52 82.69a.05.05 0 0 1-.06 0L111 151.79a.05.05 0 0 1 0-.08.06.06 0 0 1 .07 0l16.54 39.11a.05.05 0 0 1 0 .07z"/><path class="cls-1" d="M111.07 151.88a.12.12 0 0 1-.07 0 .11.11 0 0 1 0-.16l20.57-22.89a.12.12 0 0 1 .17.16l-20.58 22.88a.11.11 0 0 1-.09.01z"/><path class="cls-1" d="M126.71 159.94a.23.23 0 0 1-.22-.15l-15.65-45.53a.23.23 0 0 1 .16-.26.23.23 0 0 1 .29.14l15.65 45.53a.23.23 0 0 1-.14.29zm5.93-3.47a.23.23 0 0 1-.14 0 .22.22 0 0 1 0-.32l24-31.81a.23.23 0 0 1 .32 0 .24.24 0 0 1 0 .32l-24 31.8a.23.23 0 0 1-.18.01z"/><path class="cls-1" d="M156.65 124.55L142 119.33a.12.12 0 0 1 .08-.22l14.62 5.21a.11.11 0 0 1 .07.15.11.11 0 0 1-.12.08z"/><path class="cls-1" d="M150.19 147.35a.11.11 0 0 1-.08-.14l6.47-22.8a.11.11 0 1 1 .21.06l-6.45 22.81a.12.12 0 0 1-.15.07z"/><path class="cls-1" d="M156.65 124.66a.17.17 0 0 1-.09 0 .22.22 0 0 1-.12-.3l7.48-16.36a.24.24 0 0 1 .31-.12.24.24 0 0 1 .11.31l-7.49 16.31a.22.22 0 0 1-.2.16zm-6.46 22.69a.12.12 0 0 1-.09-.19l35.28-44a.11.11 0 0 1 .16 0 .11.11 0 0 1 0 .16l-35.28 44a.11.11 0 0 1-.07.03zm-18.55-18.24a.23.23 0 0 1-.22-.17l-13.9-49.65a.23.23 0 0 1 .16-.28.23.23 0 0 1 .28.16l13.91 49.65a.23.23 0 0 1-.16.28zM111.07 190a.2.2 0 0 1-.1 0 .22.22 0 0 1-.1-.31l15.65-30.07a.23.23 0 0 1 .31-.1.23.23 0 0 1 .1.31l-15.65 30.07a.22.22 0 0 1-.21.1zm0-38.18l-21.83-24.59a.05.05 0 0 1 0-.08.05.05 0 0 1 .08 0l21.78 24.57a.06.06 0 0 1 0 .08zm-70.56 24.94a.12.12 0 0 1-.11-.12l3-66.48a.1.1 0 0 1 .12-.11.12.12 0 0 1 .11.12l-3 66.48a.11.11 0 0 1-.12.11z"/><path class="cls-1" d="M15 182.48a.05.05 0 0 1 0-.08l42.34-60.74a.05.05 0 0 1 .08 0 .06.06 0 0 1 0 .08l-42.34 60.71s-.02.03-.08.03zm27.5 2.15l-26-47.21 26 47.21zm9.16-8.36a.06.06 0 0 1 0-.08l37.63-49a.06.06 0 0 1 .08 0 .06.06 0 0 1 0 .08l-37.63 49zm26.17-.36l-4.5-57.65 4.5 57.65zm-3.99 7.85h-.05a.11.11 0 0 1 0-.16l4-7.77a.11.11 0 0 1 .15-.05.11.11 0 0 1 .05.16l-4 7.77a.11.11 0 0 1-.15.05zM124.06 195a.11.11 0 0 1-.11-.08L111 151.8a.12.12 0 1 1 .22-.07l13 43.13a.12.12 0 0 1-.08.14z"/><path class="cls-1" d="M131.64 186.36l-41.78-32.53a.06.06 0 0 1 0-.08.06.06 0 0 1 .08 0l41.74 32.52a.05.05 0 0 1 0 .08.06.06 0 0 1-.04.01zm15.09.06a.11.11 0 0 1-.11-.07l-14.09-30.07a.11.11 0 0 1 .06-.15.12.12 0 0 1 .15.05l14.08 30.07a.12.12 0 0 1-.05.15z"/><path class="cls-1" d="M146.73 186.53a.23.23 0 0 1-.23-.21l-4.71-67.08a.23.23 0 1 1 .46 0l4.75 67.05a.23.23 0 0 1-.21.25z"/><path class="cls-1" d="M134.66 186.36a.07.07 0 0 1-.05-.06l7.39-67.08s0-.06.06-.05a.06.06 0 0 1 .05.06l-7.37 67.08a.05.05 0 0 1-.08.05zm-94.15-9.69L24.62 91l15.85 85.65zm1.99 8.05a.13.13 0 0 1-.1 0L3.49 132a.12.12 0 0 1 .19-.14l38.91 52.71a.11.11 0 0 1 0 .16z"/><path class="cls-1" d="M3.58 132a.05.05 0 0 1 0-.07l26.29-71.86a.06.06 0 0 1 .08 0 .06.06 0 0 1 0 .07L3.64 131.92a.06.06 0 0 1-.06.08zm85.71-4.78L111 63.38l-21.78 63.8zm73.15-90.31a.23.23 0 0 1-.11 0 .22.22 0 0 1-.08-.31l.62-1.14a.24.24 0 0 1 .32-.09.23.23 0 0 1 .09.31l-.63 1.13a.23.23 0 0 1-.21.1z"/><path class="cls-1" d="M164.86 35.78h-1.78a.23.23 0 1 1 0-.46h1.78a.23.23 0 1 1 0 .46z"/><path class="cls-1" d="M164.86 36.91a.23.23 0 0 1-.23-.23v-1.13a.24.24 0 0 1 .23-.23.23.23 0 0 1 .24.23v1.13a.23.23 0 0 1-.24.23z"/><path class="cls-1" d="M163.67 37.7a.23.23 0 0 1-.19-.1.24.24 0 0 1 .06-.32l1.2-.79a.22.22 0 0 1 .31.07.23.23 0 0 1-.06.32l-1.19.78a.21.21 0 0 1-.13.04z"/><path class="cls-1" d="M163.67 37.7a.21.21 0 0 1-.12 0l-1.23-.79a.23.23 0 0 1 .25-.39l1.23.79a.23.23 0 0 1-.12.42zm-20.33-1.17a.23.23 0 0 1-.2-.12l-.63-1.13a.23.23 0 0 1 .09-.32.24.24 0 0 1 .31.09l.63 1.13a.22.22 0 0 1-.08.31z"/><path class="cls-1" d="M142.71 35.4h-1.79a.22.22 0 0 1-.23-.23.23.23 0 0 1 .23-.23h1.79a.23.23 0 0 1 .23.23.23.23 0 0 1-.23.23z"/><path class="cls-1" d="M140.92 36.53a.22.22 0 0 1-.23-.23v-1.13a.23.23 0 0 1 .23-.23.23.23 0 0 1 .23.23v1.13a.23.23 0 0 1-.23.23z"/><path class="cls-1" d="M142.11 37.32a.22.22 0 0 1-.12 0l-1.19-.79a.23.23 0 1 1 .26-.38l1.19.78a.24.24 0 0 1 .07.32.26.26 0 0 1-.21.07z"/><path class="cls-1" d="M142.11 37.32a.22.22 0 0 1-.19-.11.23.23 0 0 1 .06-.32l1.23-.79a.23.23 0 0 1 .32.07.22.22 0 0 1-.07.31l-1.22.79a.24.24 0 0 1-.13.05zm3.03-.32a.19.19 0 0 1-.12 0l-2.45-1.56a.23.23 0 0 1 .25-.38l2.44 1.56a.23.23 0 0 1 .07.32.22.22 0 0 1-.19.06zm-5.73-1.22a.22.22 0 0 1-.22-.17.23.23 0 0 1 .17-.28l1.51-.38a.23.23 0 0 1 .28.17.23.23 0 0 1-.17.28l-1.52.38zm21.21 1.41a.22.22 0 0 1-.2-.12.23.23 0 0 1 .09-.31l2.49-1.41a.23.23 0 0 1 .23.4l-2.46 1.41a.18.18 0 0 1-.15.03zm5.73-1.19l-1.5-.23a.23.23 0 0 1-.19-.26.23.23 0 0 1 .26-.19l1.5.23a.23.23 0 0 1 .19.26.23.23 0 0 1-.26.19zm-73.62 91.25a4 4 0 1 1-4-4 4 4 0 0 1 4 4z"/><circle class="cls-1" cx="117.76" cy="79.57" r="2.17"/><circle class="cls-1" cx="90.4" cy="153.56" r="2.17"/><circle class="cls-1" cx="110.76" cy="189.16" r="1.77"/><circle class="cls-1" cx="132.62" cy="156.75" r="2.17"/><circle class="cls-1" cx="156.9" cy="105.38" r="1.77"/><circle class="cls-1" cx="125.7" cy="22.55" r="1.77"/><circle class="cls-1" cx="151.45" cy="64.31" r="1.23"/><circle class="cls-1" cx="156.95" cy="92.31" r="1.24"/><circle class="cls-1" cx="160.93" cy="77.87" r="1.23"/><circle class="cls-1" cx="150.49" cy="77.85" r="1.23"/><circle class="cls-1" cx="118.64" cy="51.42" r="1.23"/><circle class="cls-1" cx="190.76" cy="47.85" r="1.23"/><circle class="cls-1" cx="175.64" cy="15.39" r="1.23"/><circle class="cls-1" cx="191.81" cy="34.87" r="1.24"/><circle class="cls-1" cx="116.59" cy="37.62" r="1.23"/><circle class="cls-1" cx="174.54" cy="130.76" r="1.23"/><path class="cls-1" d="M128.06 159.94a1.24 1.24 0 1 1-1.23-1.23 1.23 1.23 0 0 1 1.23 1.23zM112 114.31a1.24 1.24 0 1 1-1.23-1.24 1.23 1.23 0 0 1 1.23 1.24z"/><circle class="cls-1" cx="110.96" cy="151.71" r="1.23"/><circle class="cls-1" cx="150.09" cy="147.17" r="1.23"/><circle class="cls-1" cx="144.14" cy="110.69" r="1.24"/><path class="cls-1" d="M164.87 108.06a1.24 1.24 0 1 1-1.24-1.23 1.23 1.23 0 0 1 1.24 1.23z"/><circle class="cls-1" cx="73.56" cy="118.56" r="1.24"/><path class="cls-1" d="M61.42 97.14A3.1 3.1 0 1 1 58.31 94a3.11 3.11 0 0 1 3.11 3.14z"/><circle class="cls-1" cx="131.99" cy="128.94" r=".93"/><circle class="cls-1" cx="84.41" cy="156.01" r=".93"/><circle class="cls-1" cx="40.62" cy="176.53" r=".94"/><circle class="cls-1" cx="43.74" cy="108.24" r=".93"/><circle class="cls-1" cx="24.62" cy="90.76" r=".94"/><circle class="cls-1" cx="42.59" cy="184.54" r=".94"/><circle class="cls-1" cx="124.14" cy="194.97" r=".93"/><path class="cls-1" d="M56.56 150.19a.93.93 0 1 1-.93-.94.93.93 0 0 1 .93.94zM4.58 132a.94.94 0 1 1-.94-.93.93.93 0 0 1 .94.93z"/><circle class="cls-1" cx="44.15" cy="71.8" r=".93"/><circle class="cls-1" cx="15.05" cy="182.31" r="1.66"/><circle class="cls-1" cx="12.88" cy="173.33" r=".94"/><circle class="cls-1" cx="1.65" cy="68.41" r="1.66"/><circle class="cls-1" cx="44.14" cy="21.83" r="1.23"/><path class="cls-1" d="M86.55 26.79a1.24 1.24 0 1 1-1.23-1.23 1.24 1.24 0 0 1 1.23 1.23zm25.64 36.57a1.23 1.23 0 1 1-1.24-1.23 1.23 1.23 0 0 1 1.24 1.23z"/><circle class="cls-1" cx="140.58" cy="11.05" r="1.23"/><path class="cls-1" d="M167.56 11.18a1.23 1.23 0 1 1-1.23-1.23 1.23 1.23 0 0 1 1.23 1.23z"/></g></svg>