<svg xmlns="http://www.w3.org/2000/svg" viewBox="0 0 332.08 166.95"><g data-name="Layer 1"><path d="M197 137.65a.28.28 0 0 0 .25 0 .28.28 0 0 0 .05-.4l-4.67-6a.28.28 0 1 0-.44.34l4.67 6a.3.3 0 0 0 .14.06z"/><path d="M197.09 139.84h.08a.27.27 0 0 0 .27-.28v-2.19a.28.28 0 0 0-.29-.27.28.28 0 0 0-.27.29v2.18a.29.29 0 0 0 .21.27z"/><path d="M195.21 139.87h1.96a.27.27 0 0 0 .27-.28.28.28 0 0 0-.28-.28h-1.87a.28.28 0 0 0-.08.55z"/><path d="M195.21 139.87a.29.29 0 0 0 .26-.05.28.28 0 0 0 0-.4l-4-4.86a.28.28 0 0 0-.4 0 .28.28 0 0 0 0 .39l4 4.85a.29.29 0 0 0 .14.07z"/><path d="M196.17 140.85a.28.28 0 0 0 .28-.46l-1-1a.28.28 0 0 0-.4 0 .28.28 0 0 0 0 .4l1 1a.29.29 0 0 0 .12.06z"/><path d="M196.21 142.91h.08a.29.29 0 0 0 .28-.29v-2.06a.28.28 0 0 0-.29-.28.28.28 0 0 0-.27.29v2.06a.29.29 0 0 0 .2.28z"/><path d="M193.77 143h2.52a.28.28 0 1 0 0-.56h-2.43a.28.28 0 0 0-.28.29.28.28 0 0 0 .19.27z"/><path d="M193.77 143a.28.28 0 0 0 .26-.05.28.28 0 0 0 0-.39l-5-6.21a.28.28 0 0 0-.4 0 .28.28 0 0 0 0 .4l5 6.21a.28.28 0 0 0 .14.04z"/><path d="M189.26 140.4l2.73.25a.19.19 0 0 0 .2-.17.18.18 0 0 0-.17-.2l-2.73-.25a.19.19 0 0 0-.2.17.19.19 0 0 0 .17.2z"/><path d="M189.26 140.4a.18.18 0 0 0 .15 0 .19.19 0 0 0 .06-.26l-3.35-5.36a.19.19 0 0 0-.26-.06.19.19 0 0 0-.06.26l3.35 5.37a.17.17 0 0 0 .11.05z"/><path d="M185.91 135a.19.19 0 0 0 .21-.16l.65-5.51a.19.19 0 0 0-.17-.21.19.19 0 0 0-.21.16l-.64 5.5a.19.19 0 0 0 .16.22z"/><path d="M192.4 131.54a.19.19 0 0 0 .23-.12.19.19 0 0 0-.11-.24l-5.84-2a.2.2 0 0 0-.24.11.2.2 0 0 0 .12.24l5.84 2zm-5.62 10.09h.08l2.49-.36a.18.18 0 0 0 .16-.21.19.19 0 0 0-.21-.16l-2.49.36a.19.19 0 0 0-.16.21.2.2 0 0 0 .13.16z"/><path d="M186.78 141.63a.19.19 0 0 0 .12-.36l-6-2.13a.19.19 0 1 0-.12.35l6 2.13zm2.5-.36a.18.18 0 0 0 .2-.07.19.19 0 0 0 0-.26l-6.52-4.87a.19.19 0 1 0-.22.3l6.52 4.87z"/><path d="M180.08 136.83h.08l2.67-.43a.19.19 0 0 0 .16-.21.18.18 0 0 0-.21-.15l-2.68.42a.19.19 0 0 0-.16.21.2.2 0 0 0 .14.16z"/><path d="M174.07 135.69l6 1.13a.19.19 0 0 0 .07-.37l-6-1.13a.19.19 0 0 0-.22.15.19.19 0 0 0 .15.22z"/><path d="M180.12 140.16a.28.28 0 0 0 .24-.5l-6.07-4.38a.29.29 0 0 0-.39.06.28.28 0 0 0 .07.39l6.07 4.38z"/><path d="M184.78 142.63a.27.27 0 0 0 .32-.14.28.28 0 0 0-.12-.38l-4.66-2.47a.28.28 0 0 0-.38.12.28.28 0 0 0 .12.38l4.67 2.47z"/><path d="M184.78 142.63l2.31.46a.29.29 0 0 0 .33-.22.28.28 0 0 0-.22-.33l-2.31-.46a.28.28 0 0 0-.13.54z"/><path d="M190.12 144.34a.28.28 0 0 0 .19-.53l-3-1.25a.28.28 0 0 0-.22.52l3 1.25z"/><path d="M190.12 144.34a.27.27 0 0 0 .16 0l2.48-.7a.28.28 0 1 0-.15-.54l-2.48.7a.28.28 0 0 0-.19.35.27.27 0 0 0 .18.19z"/><path d="M192.6 143.64a.28.28 0 0 0 .33-.14l.69-1.26a.28.28 0 0 0-.49-.27l-.7 1.27a.28.28 0 0 0 .12.38zm-5.82-2.01l3.32.71a.19.19 0 0 0 .08-.37l-3.32-.71a.19.19 0 0 0-.22.14.2.2 0 0 0 .14.23z"/><path d="M190.11 142.34h.06l3.21-.06a.19.19 0 0 0 .18-.19.19.19 0 0 0-.19-.18l-3.21.06a.19.19 0 0 0-.19.19.19.19 0 0 0 .14.18zm-.83-1.07l3.43.25a.19.19 0 0 0 .2-.17.18.18 0 0 0-.17-.2l-3.42-.25a.19.19 0 0 0-.2.17.19.19 0 0 0 .16.2zm-15.21-5.58a.19.19 0 0 0 .22-.09.19.19 0 0 0-.08-.25l-4.41-2.29a.19.19 0 0 0-.25.08.19.19 0 0 0 .08.25l4.41 2.29z"/><path d="M169.66 133.4a.19.19 0 0 0 .21-.09.19.19 0 0 0-.07-.25l-9.53-5.37a.19.19 0 0 0-.25.07.19.19 0 0 0 .07.25l9.53 5.38z"/><path d="M160.73 130a.18.18 0 0 0 .1 0 .19.19 0 0 0 .13-.23l-.6-2a.19.19 0 0 0-.24-.12.19.19 0 0 0-.12.23l.6 2a.17.17 0 0 0 .13.12z"/><path d="M156.49 129l4.26.92a.09.09 0 0 0 .11-.07.1.1 0 0 0-.07-.11l-4.26-.92a.1.1 0 0 0-.11.07.09.09 0 0 0 .07.11z"/><path d="M156.21 130.8a.1.1 0 0 0 .11-.08l.28-1.78a.1.1 0 0 0-.07-.11.09.09 0 0 0-.11.08l-.28 1.78a.1.1 0 0 0 .07.11z"/><path d="M152.45 130.08l3.76.71a.09.09 0 0 0 .11-.08.09.09 0 0 0-.08-.11l-3.76-.71a.09.09 0 0 0-.11.08.09.09 0 0 0 .08.11z"/><path d="M152.05 131.84a.09.09 0 0 0 .11-.07l.41-1.76a.09.09 0 0 0-.07-.11.09.09 0 0 0-.11.07l-.41 1.76a.09.09 0 0 0 .07.11z"/><path d="M149.45 132.89h.07l2.6-1a.09.09 0 0 0 0-.12.09.09 0 0 0-.12-.05l-2.6 1a.1.1 0 0 0-.05.12.1.1 0 0 0 .1.05z"/><path d="M149.45 132.89a.1.1 0 0 0 .12-.06.1.1 0 0 0-.07-.12l-3-.94a.09.09 0 0 0-.12.06.09.09 0 0 0 .06.12l3 .94z"/><path d="M144.49 134.67a.09.09 0 0 0 .11 0l1.94-2.72a.09.09 0 0 0-.15-.11l-1.94 2.72a.09.09 0 0 0 0 .13z"/><path d="M141.17 133.86l3.32.81a.09.09 0 0 0 .11-.07.1.1 0 0 0-.07-.11l-3.32-.81a.09.09 0 0 0-.05.18z"/><path d="M138.8 137.15a.09.09 0 0 0 .1 0l2.37-3.29a.09.09 0 1 0-.15-.11l-2.37 3.25a.09.09 0 0 0 0 .13zm42.02 2.35a.2.2 0 0 0 .22-.09.19.19 0 0 0-.07-.26l-6.75-3.8a.19.19 0 0 0-.26.07.18.18 0 0 0 .07.25l6.75 3.8zm7.93-2.84a.19.19 0 0 0 .15-.34l-2.84-1.63a.19.19 0 1 0-.18.33l2.84 1.63zm2.48-1.78a.15.15 0 0 0 .13 0 .14.14 0 0 0 0-.2l-4.66-5.4a.14.14 0 0 0-.2 0 .14.14 0 0 0 0 .2l4.66 5.4a.14.14 0 0 0 .07 0z"/><path d="M191.22 134.93a.19.19 0 0 0 .23-.12l1.18-3.39a.2.2 0 0 0-.11-.24.19.19 0 0 0-.24.12l-1.19 3.39a.19.19 0 0 0 .12.24z"/><path d="M188.75 136.66a.19.19 0 0 0 .16 0l2.46-1.73a.18.18 0 0 0 0-.26.18.18 0 0 0-.26 0l-2.46 1.73a.18.18 0 0 0 0 .26.19.19 0 0 0 .1 0zm3.66-5.17h.07a.13.13 0 0 0 .1-.17l-1.37-5.32a.14.14 0 0 0-.17-.1.14.14 0 0 0-.1.17l1.38 5.34a.13.13 0 0 0 .09.08z"/><path d="M195.06 128.71a.1.1 0 0 0 .11 0 .09.09 0 0 0 0-.13l-4-2.61a.1.1 0 0 0-.13 0 .1.1 0 0 0 0 .13l4 2.61z"/><path d="M195.06 128.71a.09.09 0 0 0 .07 0l1.85-1a.09.09 0 0 0 0-.13.09.09 0 0 0-.13 0l-1.85 1a.1.1 0 0 0 0 .13.11.11 0 0 0 .06 0z"/><path d="M196.91 127.68h.09a.09.09 0 0 0 0-.12l-1.47-3.22a.09.09 0 0 0-.12 0 .09.09 0 0 0 0 .12l1.47 3.22a.1.1 0 0 0 .03 0z"/><path d="M195.44 124.46h2.28a.09.09 0 0 0 .09-.09.09.09 0 0 0-.09-.09h-2.28a.1.1 0 0 0-.09.1.09.09 0 0 0 .09.08z"/><path d="M197.72 124.42a.09.09 0 0 0 .09-.09l-.05-2.81a.09.09 0 0 0-.09-.09.1.1 0 0 0-.09.1l.05 2.81a.09.09 0 0 0 .09.08z"/><path d="M197.66 121.66a.14.14 0 0 0 .16-.06.14.14 0 0 0 0-.19l-2.31-1.58a.14.14 0 1 0-.16.23l2.31 1.58z"/><path d="M195.35 120.08a.14.14 0 0 0 .09 0l4.37-1.64a.14.14 0 0 0-.1-.26l-4.37 1.64a.14.14 0 0 0-.08.18.13.13 0 0 0 .09.08z"/><path d="M199.72 118.43a.14.14 0 0 0 .14-.14l-.06-3.56a.14.14 0 0 0-.28 0l.07 3.55a.14.14 0 0 0 .13.15z"/><path d="M199.65 114.88a.14.14 0 0 0 .14 0l.92-1a.13.13 0 0 0 0-.2.14.14 0 0 0-.19 0l-.92 1a.13.13 0 0 0 0 .2z"/><path d="M200.57 113.92l3.3-.07a.14.14 0 0 0 .14-.14.14.14 0 0 0-.15-.14l-3.3.06a.14.14 0 0 0-.14.14.15.15 0 0 0 .15.15z"/><path d="M203.87 113.86a.14.14 0 0 0 .15 0l2.44-2.92a.14.14 0 1 0-.22-.18l-2.44 2.92a.14.14 0 0 0 0 .2z"/><path d="M207.59 112.35a.16.16 0 0 0 .14 0 .15.15 0 0 0 0-.2l-1.28-1.41a.13.13 0 0 0-.19 0 .14.14 0 0 0 0 .2l1.28 1.41a.16.16 0 0 0 .05 0z"/><path d="M207.6 112.31l3.18-.06a.1.1 0 0 0 .09-.1.1.1 0 0 0-.09-.09l-3.18.06a.1.1 0 0 0-.09.1.1.1 0 0 0 .09.09z"/><path d="M210.78 112.25a.1.1 0 0 0 .1 0l3.1-4.61a.09.09 0 1 0-.15-.11l-3.1 4.62a.09.09 0 0 0 0 .13zM123.3 71.33h.48a.14.14 0 0 0 .13-.15.14.14 0 0 0-.15-.13h-.44a.14.14 0 0 0 0 .27z"/><path d="M123.74 71.29a.14.14 0 0 0 .17-.08l.24-.57a.14.14 0 0 0-.26-.11l-.24.57a.14.14 0 0 0 .07.18z"/><path d="M124 70.72a.14.14 0 0 0 .15 0 .14.14 0 0 0 0-.2l-.69-.61a.15.15 0 0 0-.2 0 .14.14 0 0 0 0 .2l.7.61z"/><path d="M122.54 70.75a.13.13 0 0 0 .13 0l.74-.64a.14.14 0 0 0 0-.2.14.14 0 0 0-.2 0l-.73.64a.14.14 0 0 0 0 .2z"/><path d="M122.74 71.34h.08a.15.15 0 0 0 .09-.18l-.2-.59a.14.14 0 0 0-.17-.09.15.15 0 0 0-.09.18l.2.59a.15.15 0 0 0 .09.09z"/><path d="M122.74 71.34h.6a.14.14 0 0 0 0-.28h-.56a.14.14 0 0 0 0 .28zm-6.84-.59h.1l.62-.2a.14.14 0 0 0 .09-.18.14.14 0 0 0-.18-.09l-.62.2a.14.14 0 0 0-.09.18.14.14 0 0 0 .08.09z"/><path d="M115.9 70.75a.15.15 0 0 0 .12 0 .14.14 0 0 0 0-.2l-.7-1a.14.14 0 0 0-.19 0 .14.14 0 0 0 0 .2l.71 1a.11.11 0 0 0 .06 0z"/><path d="M115.19 69.77a.13.13 0 0 0 .1 0l.34-.16a.14.14 0 0 0 .06-.19.14.14 0 0 0-.19-.07l-.34.16a.14.14 0 0 0-.07.19.13.13 0 0 0 .1.07z"/><path d="M116.51 70.55a.14.14 0 0 0 .14 0 .14.14 0 0 0 0-.2l-1-.95a.14.14 0 0 0-.2 0 .14.14 0 0 0 0 .2l1 .95zm2.28 3.24l5.25.59a.14.14 0 1 0 0-.28l-5.25-.59a.15.15 0 0 0-.15.13.14.14 0 0 0 .15.15z"/><path d="M116.57 73.71l2.22.08a.14.14 0 0 0 .15-.13.15.15 0 0 0-.13-.15l-2.22-.08a.14.14 0 0 0 0 .28z"/><path d="M113.4 74.23h.07l3.17-.53a.14.14 0 0 0 .12-.16.15.15 0 0 0-.16-.12l-3.17.53a.14.14 0 0 0-.12.16.15.15 0 0 0 .09.12z"/><path d="M111.9 75.32a.12.12 0 0 0 .12 0l1.51-1.09a.15.15 0 0 0 0-.2.14.14 0 0 0-.2 0l-1.51 1.09a.14.14 0 0 0 0 .2.12.12 0 0 0 .08 0z"/><path d="M111.63 78.07a.15.15 0 0 0 .15-.13l.26-2.75a.14.14 0 0 0-.12-.15.14.14 0 0 0-.15.13l-.26 2.75a.14.14 0 0 0 .12.15z"/><path d="M111.63 78.07a.14.14 0 0 0 .17-.2l-1.17-2.29a.14.14 0 0 0-.19-.06.14.14 0 0 0-.06.19l1.17 2.29a.14.14 0 0 0 .08.07z"/><path d="M110.46 75.79h.05a.14.14 0 0 0 .13-.15l-.28-3a.14.14 0 1 0-.28 0l.28 3a.13.13 0 0 0 .1.15z"/><path d="M110.19 72.83a.14.14 0 0 0 .18-.09l.73-2.32a.14.14 0 0 0-.09-.18.14.14 0 0 0-.17.09l-.73 2.32a.14.14 0 0 0 .09.18z"/><path d="M110.93 70.51a.14.14 0 0 0 .14 0l1.6-1.9a.14.14 0 0 0 0-.2.14.14 0 0 0-.2 0l-1.6 1.9a.15.15 0 0 0 0 .2z"/><path d="M112.53 68.6h.08l1.23-.34a.14.14 0 0 0 .1-.17.14.14 0 0 0-.17-.1l-1.23.33a.14.14 0 0 0 0 .27z"/><path d="M114.67 68.9a.14.14 0 0 0 .15-.05.14.14 0 0 0 0-.19l-.92-.64a.13.13 0 0 0-.19 0 .14.14 0 0 0 0 .2l.92.64z"/><path d="M114.67 68.9a.14.14 0 0 0 .11 0l.83-.52a.14.14 0 1 0-.14-.24l-.83.52a.13.13 0 0 0 0 .19.12.12 0 0 0 .03.05z"/><path d="M115.5 68.39l1 .23a.15.15 0 0 0 .17-.1.13.13 0 0 0-.11-.17l-1-.23a.14.14 0 0 0-.17.11.15.15 0 0 0 .11.16z"/><path d="M117.43 69.65a.12.12 0 0 0 .13 0 .14.14 0 0 0 0-.2l-1-1a.14.14 0 0 0-.2 0 .14.14 0 0 0 0 .2l1 1z"/><path d="M117.43 69.65a.1.1 0 0 0 .09 0l2.79-1.1a.14.14 0 0 0 .08-.18.14.14 0 0 0-.18-.08l-2.79 1.1a.14.14 0 0 0-.08.18.12.12 0 0 0 .09.08z"/><path d="M120.22 68.55l5.67-.11a.14.14 0 0 0 .14-.14.14.14 0 0 0-.14-.14l-5.67.11a.14.14 0 0 0-.14.14.14.14 0 0 0 .14.14z"/><path d="M126.48 69.48a.12.12 0 0 0 .1 0 .14.14 0 0 0 .05-.19l-.58-1a.14.14 0 0 0-.19-.05.14.14 0 0 0-.06.19l.59 1a.13.13 0 0 0 .09.05z"/><path d="M125.38 72.41a.14.14 0 0 0 .17-.08l1.1-2.94a.15.15 0 0 0-.08-.18.14.14 0 0 0-.18.08l-1.1 2.94a.14.14 0 0 0 .08.18z"/><path d="M122.17 72.48l3.22-.06a.14.14 0 0 0 .14-.14.14.14 0 0 0-.14-.14l-3.21.06a.14.14 0 0 0-.14.15.15.15 0 0 0 .13.13z"/><path d="M122.17 72.48a.14.14 0 0 0 .12 0 .14.14 0 0 0 0-.2l-2.61-3.66a.14.14 0 1 0-.23.16l2.61 3.67a.14.14 0 0 0 .11.03zM123 72h.05l1.44-.18a.14.14 0 0 0 .12-.16.13.13 0 0 0-.15-.12l-1.44.19a.13.13 0 0 0-.12.15.14.14 0 0 0 .1.12z"/><path d="M124.46 71.81a.14.14 0 0 0 .17-.1l.32-1.22a.14.14 0 0 0-.1-.17.14.14 0 0 0-.17.1l-.32 1.23a.14.14 0 0 0 .1.16z"/><path d="M124.78 70.58h.09a.14.14 0 0 0 .08-.18l-.36-1a.14.14 0 0 0-.18-.08.14.14 0 0 0-.08.18l.36 1a.16.16 0 0 0 .09.08z"/><path d="M122.52 69.55h1.91a.14.14 0 0 0 .14-.14.14.14 0 0 0-.13-.15h-1.91a.14.14 0 0 0-.14.14.13.13 0 0 0 .13.15zm-3.37 5.1l4.78.44a.14.14 0 0 0 .15-.13.13.13 0 0 0-.12-.15l-4.78-.44a.14.14 0 0 0-.05.28z"/><path d="M122.25 76.72a.14.14 0 0 0 .16-.06.14.14 0 0 0 0-.19l-3.1-2.06a.14.14 0 0 0-.19 0 .15.15 0 0 0 0 .2l3.1 2.06z"/><path d="M116.49 75.67l5.57 1a.14.14 0 0 0 .16-.11.14.14 0 0 0-.11-.16l-5.57-1.05a.14.14 0 0 0-.07.27z"/><path d="M114.36 76.29h.08l2.13-.62a.14.14 0 0 0 .09-.18.14.14 0 0 0-.17-.1l-2.13.62a.15.15 0 0 0-.1.18.15.15 0 0 0 .1.1z"/><path d="M114.36 76.29a.14.14 0 0 0 .17-.08.14.14 0 0 0-.08-.18l-2.46-1a.14.14 0 1 0-.11.26l2.47 1zm2.13-.62a.14.14 0 0 0 .17-.09.14.14 0 0 0-.08-.18l-3.08-1.25a.15.15 0 0 0-.19.08.14.14 0 0 0 .08.18l3.08 1.25z"/><path d="M112.11 75.32l3.88.36a.14.14 0 0 0 .15-.13.14.14 0 0 0-.13-.15l-3.84-.4a.14.14 0 0 0-.05.27zm4.19.28a.14.14 0 0 0 .16-.12l.28-1.89a.14.14 0 1 0-.28 0l-.28 1.89a.15.15 0 0 0 .12.12z"/><path d="M119.15 74.65a.14.14 0 0 0 .17-.08.14.14 0 0 0-.08-.18l-2.58-.95a.13.13 0 0 0-.18.08.14.14 0 0 0 .08.18l2.58 1zm2.91 2.07a.14.14 0 0 0 .09-.27l-5.59-2.07a.14.14 0 0 0-.18.08.14.14 0 0 0 .09.18l5.59 2.07z"/><path d="M113.41 74.42l3.06.23a.14.14 0 1 0 0-.28l-3.06-.23a.14.14 0 0 0-.15.13.14.14 0 0 0 .15.15z"/><path d="M114.36 76.29a.15.15 0 0 0 .11 0 .14.14 0 0 0 .06-.19l-1-1.87a.14.14 0 0 0-.19-.06.13.13 0 0 0-.06.18l1 1.87a.13.13 0 0 0 .08.07zm7.89.43a.14.14 0 0 0 .14 0l1.68-1.63a.14.14 0 1 0-.19-.2l-1.69 1.62a.14.14 0 0 0 0 .2zm1.75-2.35a.08.08 0 0 0 .07 0l.92-.17a.14.14 0 0 0 .11-.16.14.14 0 0 0-.16-.11l-.92.17a.14.14 0 0 0-.11.16.14.14 0 0 0 .09.11z"/><path d="M124 75a.05.05 0 0 0 .06 0l.11-.72v-.06a.05.05 0 0 0-.06 0l-.11.72V75zm-12.94 1l-.06-3.13.06 3.13zm.62 1.8a.05.05 0 0 0 0-.06l-.62-1.82H111a.05.05 0 0 0 0 .06l.62 1.82a.06.06 0 0 0 .06 0z"/><path d="M111.06 76h.05v-.06l-.57-.28h-.06a.05.05 0 0 0 0 .07l.57.28z"/><path d="M111.06 76l.86-.74v-.07h-.07l-.86.74V76zm2.72-7.82l1.72-1.34v-.07h-.07l-1.72 1.35v.06z"/><path d="M115.5 66.83l1.43-.34v-.06h-.05l-1.43.34a.05.05 0 0 0 0 .06h.05z"/><path d="M116.93 66.49l3-.52v-.06a.05.05 0 0 0-.05 0l-3 .53v.06s.03-.01.05-.01zm2.99-.49l4.91-.1a.05.05 0 0 0-.05 0l-4.9.09a.05.05 0 0 0 .04.01zm4.08 2.39h.06l.87-2.52v-.06a.05.05 0 0 0-.06 0l-.87 2.51v.06zm1.93-.04h.06l.52-2v-.06h-.06l-.52 2v.06z"/><path d="M124.83 65.87l1.61.44h.06v-.06l-1.62-.44h-.05v.06z"/><path d="M130.93 67.77a.09.09 0 0 0 .11-.06.09.09 0 0 0-.06-.12l-4.49-1.41a.1.1 0 0 0-.12.06.09.09 0 0 0 .07.12l4.48 1.41z"/><path d="M139.24 70.39a.1.1 0 0 0 .12-.06.09.09 0 0 0-.06-.12l-8.3-2.62a.1.1 0 0 0-.12.06.09.09 0 0 0 .06.12l8.32 2.62z"/><path d="M139.23 70.44l4.93 1.39a.14.14 0 0 0 .17-.1.16.16 0 0 0-.1-.17l-4.93-1.39a.13.13 0 0 0-.17.1.14.14 0 0 0 .1.17z"/><path d="M145.71 73.15a.14.14 0 0 0 .15 0 .14.14 0 0 0 0-.2l-1.56-1.33a.14.14 0 0 0-.18.21l1.56 1.33z"/><path d="M143.95 75.73a.14.14 0 0 0 .16-.05l1.76-2.58a.14.14 0 0 0 0-.2.14.14 0 0 0-.19 0l-1.76 2.58a.14.14 0 0 0 0 .19z"/><path d="M134.12 72.78l9.88 2.86h.06v-.06l-9.85-2.85h-.05l-.04.05z"/><path d="M134.12 72.78h.05v-.06l-5-3a.06.06 0 0 0-.07 0v.07l5 3z"/><path d="M126.51 69.38l2.6.36h.05v-.05l-2.59-.36h-.05l-.01.05z"/><path d="M129.1 69.74a.05.05 0 0 0 .06 0l1.05-2.26v-.06h-.06l-1.05 2.26v.06zm5.02 3.04h.06l1.77-3.5v-.06h-.06l-1.77 3.5v.06zm8.73 2.53h.06l1.33-3.58v-.06a.06.06 0 0 0-.06 0l-1.33 3.58v.06zm-28.19 2.09v-.05l-.27-1.2h-.05v.05l.27 1.2s.03-.01.05 0z"/><path d="M120.27 84v-.07l-5.6-6.6a.05.05 0 0 0-.07 0v.06l5.61 6.6z"/><path d="M126 93v-.06l-5.72-9h-.06a.05.05 0 0 0 0 .06l5.78 9z"/><path d="M129 96a.2.2 0 0 0 .19-.05.19.19 0 0 0 0-.27l-3.08-2.84a.19.19 0 0 0-.26 0 .19.19 0 0 0 0 .26l3.15 2.81z"/><path d="M129 96a.18.18 0 0 0 .12 0 .18.18 0 0 0 .11-.25l-1-2.6a.19.19 0 0 0-.35.14l1 2.6a.2.2 0 0 0 .12.11z"/><path d="M128 93.35h.11l.49-.13a.19.19 0 0 0 .14-.23.19.19 0 0 0-.23-.13L128 93a.18.18 0 0 0-.13.23.18.18 0 0 0 .13.12z"/><path d="M128.48 93.21h.1a.19.19 0 0 0 .14-.23l-.89-3.76a.19.19 0 0 0-.23-.14.18.18 0 0 0-.14.22l.88 3.76a.19.19 0 0 0 .14.15z"/><path d="M130.4 92.3a.18.18 0 0 0 .18 0 .18.18 0 0 0 0-.26l-2.8-2.85a.19.19 0 0 0-.26 0 .18.18 0 0 0 0 .26l2.8 2.85a.17.17 0 0 0 .08 0z"/><path d="M130.4 92.3h.08a.2.2 0 0 0 .16-.21l-.36-2.52a.19.19 0 0 0-.21-.16.19.19 0 0 0-.16.21l.36 2.52a.19.19 0 0 0 .13.16z"/><path d="M132 91.26a.18.18 0 0 0 .2-.07.19.19 0 0 0 0-.26l-2-1.48a.19.19 0 0 0-.26 0 .19.19 0 0 0 0 .26l2 1.48z"/><path d="M132 91.26h.08a.19.19 0 0 0 .15-.21l-.43-2.63a.18.18 0 0 0-.21-.16.19.19 0 0 0-.16.21l.43 2.63a.18.18 0 0 0 .14.16z"/><path d="M134.42 90.78a.18.18 0 0 0 .2-.07.18.18 0 0 0 0-.26l-2.85-2.15a.19.19 0 0 0-.26 0 .19.19 0 0 0 0 .26l2.85 2.15z"/><path d="M134.42 90.78a.17.17 0 0 0 .11 0 .18.18 0 0 0 .12-.24l-.83-2.5a.19.19 0 1 0-.35.12l.83 2.5a.19.19 0 0 0 .12.12z"/><path d="M139.21 91.45a.19.19 0 0 0 .21-.09.18.18 0 0 0-.07-.25l-5.62-3.17a.18.18 0 0 0-.25.07.19.19 0 0 0 .07.25l5.61 3.17z"/><path d="M139.21 91.45a.2.2 0 0 0 .16 0 .19.19 0 0 0 0-.26L137 87.71a.19.19 0 0 0-.26 0 .18.18 0 0 0 0 .26l2.41 3.45a.18.18 0 0 0 .06.03z"/><path d="M141.07 90.84a.19.19 0 0 0 .21-.08.18.18 0 0 0-.05-.26L137 87.67a.19.19 0 0 0-.26.05.19.19 0 0 0 .05.26l4.21 2.83z"/><path d="M141.07 90.84a.2.2 0 0 0 .16 0 .18.18 0 0 0 0-.26l-2.17-3.22a.19.19 0 0 0-.26-.05.19.19 0 0 0 0 .26l2.2 3.19a.16.16 0 0 0 .07.08z"/><path d="M144.29 89.51a.19.19 0 0 0 .23-.12.18.18 0 0 0-.12-.24l-5.4-1.89a.19.19 0 0 0-.24.11.19.19 0 0 0 .12.24l5.39 1.9z"/><path d="M144.29 89.51a.2.2 0 0 0 .15 0 .19.19 0 0 0 .07-.25l-1.1-2a.19.19 0 1 0-.32.18l1.09 2a.2.2 0 0 0 .11.07z"/><path d="M143.19 87.54h.06l2.81-.05a.19.19 0 0 0 0-.38l-2.8.05a.19.19 0 0 0-.05.36z"/><path d="M146 87.48a.19.19 0 0 0 .18 0 .19.19 0 0 0 0-.26l-2.33-2.83a.19.19 0 1 0-.29.24l2.33 2.83a.17.17 0 0 0 .11.02z"/><path d="M146 85.49a.19.19 0 0 0 .23-.12.19.19 0 0 0-.11-.24l-2.29-.83a.18.18 0 0 0-.24.11.19.19 0 0 0 .12.24l2.29.83z"/><path d="M146 85.49l1.49-.19a.18.18 0 0 0 .16-.21.19.19 0 0 0-.21-.16l-1.49.18a.19.19 0 0 0-.16.21.19.19 0 0 0 .21.17z"/><path d="M147.47 85.26a.13.13 0 0 0 .12 0 .14.14 0 0 0 0-.19l-1.38-2a.14.14 0 0 0-.19 0 .14.14 0 0 0 0 .2l1.38 2a.13.13 0 0 0 .07-.01z"/><path d="M146.09 83.23h.06l1.12-.15a.14.14 0 0 0 0-.28l-1.12.15a.14.14 0 0 0-.12.16.14.14 0 0 0 .06.12z"/><path d="M147.21 83.08a.14.14 0 0 0 .17-.07.14.14 0 0 0-.06-.19l-3.05-1.56a.14.14 0 0 0-.19.06.14.14 0 0 0 .06.19l3.06 1.56z"/><path d="M144.15 81.51l3.76.9a.15.15 0 0 0 .17-.1.14.14 0 0 0-.1-.17l-3.76-.9a.14.14 0 0 0-.07.27z"/><path d="M147.94 82.32l1.65-.51v-.09l-1.65.52v.06z"/><path d="M147.92 81.51l1.66.3h.05a.05.05 0 0 0 0-.06l-1.66-.29h-.05a.05.05 0 0 0 0 .05z"/><path d="M147.9 81.6a.15.15 0 0 0 .15-.05.14.14 0 0 0 0-.2l-1-.73a.14.14 0 0 0-.2 0 .14.14 0 0 0 0 .19l1 .73z"/><path d="M146.92 80.87h1.56a.14.14 0 0 0 0-.28h-1.57a.15.15 0 0 0-.14.15.15.15 0 0 0 .15.13z"/><path d="M148.48 80.84a.15.15 0 0 0 .14 0 .14.14 0 0 0 0-.2l-1.11-1a.14.14 0 0 0-.2 0 .14.14 0 0 0 0 .2l1.11 1z"/><path d="M145.41 79.48l2 .27a.09.09 0 0 0 0-.19l-2-.27a.1.1 0 0 0-.11.08.1.1 0 0 0 .11.11z"/><path d="M145.39 79.52l2.84-.05a.14.14 0 0 0 .13-.14.14.14 0 0 0-.14-.14l-2.84.06a.14.14 0 0 0-.14.14.13.13 0 0 0 .15.13z"/><path d="M148.26 79.38h.05v-.06l-1.36-.85v.08l1.35.85z"/><path d="M146.87 78.62a.15.15 0 0 0 .14 0l.76-.79a.14.14 0 1 0-.2-.19l-.76.79a.15.15 0 0 0 0 .2z"/><path d="M146.34 77.69l1.48.13a.14.14 0 0 0 0-.28l-1.48-.13a.14.14 0 0 0-.05.27zm.03-.09v-.19.19z"/><path d="M144.42 77.33l1.92.18a.14.14 0 0 0 .15-.13.13.13 0 0 0-.12-.15l-1.9-.23a.15.15 0 0 0-.15.13.14.14 0 0 0 .1.2z"/><path d="M144.42 77.33h.05l2.43-.26a.14.14 0 0 0 .13-.16.14.14 0 0 0-.16-.12l-2.43.26a.14.14 0 0 0 0 .28z"/><path d="M146.85 77.06A.14.14 0 0 0 147 77a.14.14 0 0 0-.07-.19L144 75.46a.14.14 0 0 0-.19.07.14.14 0 0 0 .07.19l2.89 1.33zm-17.67-3.56h.06v-.06l-3.77-1.18a.05.05 0 0 0-.06 0v.06l3.77 1.18z"/><path d="M133.42 76.91v-.07l-4.24-3.41h-.07v.07l4.24 3.41zm0 0l7.47 2a.05.05 0 0 0 .06 0 .06.06 0 0 0 0-.06l-7.46-2h-.06l-.01.06z"/><path d="M144.18 81.42a.05.05 0 0 0 .05 0 .06.06 0 0 0 0-.07l-3.29-2.5-.06.07 3.3 2.49zm.26-4.18v-.06l-1.59-1.93h-.07v.07l1.59 1.92zm.98 2.19a.06.06 0 0 0 .06 0 .05.05 0 0 0 0-.06l-2.52-1.62h-.06v.06l2.52 1.62z"/><path d="M137.12 76.13l5.78 1.68h.05a.05.05 0 0 0 0-.06l-5.8-1.75h-.06l.03.13z"/><path d="M133.42 76.91l3.69-.79v-.05a.05.05 0 0 0-.06 0l-3.7.79v.09zm10.76 4.51a.06.06 0 0 0 0-.06L143 77.75h-.06v.06l1.28 3.61h-.04zm-15-7.92l-.07-3.76.07 3.76z"/><path d="M133.42 76.91h.05l.7-4.13v-.05a.06.06 0 0 0-.06 0l-.7 4.13.01.05zm12 2.52l1.48-.9v-.07h-.06l-1.48.9v.07zm1.53 1.35h.06v-.06l-6.06-1.85h-.06v.06l6.06 1.85z"/><path d="M143.71 84.52v-.08l-10.29-7.61h-.07v.07l10.28 7.61zm-.12-1.74a.06.06 0 0 0 .06 0l.58-1.35a.06.06 0 0 0 0-.07.05.05 0 0 0-.07 0l-.58 1.35a.05.05 0 0 0 0 .06zm4.35-.46a.05.05 0 0 0 .06 0v-.07l-4.39-2.58h-.07a.05.05 0 0 0 0 .07l4.4 2.58zm-.55-2.61a.05.05 0 0 0 .05 0v-.07l-2.95-2.47h-.07v.06l2.95 2.47z"/><path d="M146 85.35v-.07l-2.4-2.58h-.07v.07l2.4 2.58zm-6.56-5.24v-.06l-2.33-4h-.06v.06l2.33 4z"/><path d="M134.91 79.79l4.53.32a.05.05 0 0 0 0-.05l-4.53-.32v.05z"/><path d="M143.23 87.4h.05a.05.05 0 0 0 0-.07L135 79.71a.05.05 0 0 0-.07 0 .06.06 0 0 0 0 .06l8.32 7.61zm1.1 1.98v-.06L138 84.24h-.07v.07l6.38 5.06z"/><path d="M137.95 84.32v-.07l-5.48-5.07h-.07v.07l5.48 5.07z"/><path d="M132.47 79.25l2.44.54h.05a.05.05 0 0 0 0-.06l-2.44-.54v.09zm-5.1-3.65h.06a.06.06 0 0 0 0-.07L125 74h-.07v.06l2.38 1.49z"/><path d="M126.55 78.34a.05.05 0 0 0 .06 0l.82-2.74v-.06h-.06l-.82 2.73a.05.05 0 0 0 0 .06z"/><path d="M131.61 88.49v-.06l-5.06-10.16h-.06a.05.05 0 0 0 0 .06l5.07 10.16zm-.16-5.49l6.5 1.31h.05v-.05l-6.5-1.32h-.05V83z"/><path d="M136.84 87.87a.05.05 0 0 0 .06 0l1.1-3.55v-.06h-.05l-1.11 3.54a.05.05 0 0 0 0 .06z"/><path d="M133.63 88.14l3.21-.28v-.05a.05.05 0 0 0-.05 0l-3.21.28s.04.05.05.05zm4.32-3.82a.05.05 0 0 0 .06 0l1.49-4.21v-.06a.05.05 0 0 0-.06 0l-1.49 4.21v.06z"/><path d="M139.44 80.11l1.44-1.18v-.07h-.07L139.42 80v.06zm3.41-4.8l2.88-2.26v-.06h-.06l-2.88 2.25v.07zm-8.73-2.53v-.07l-4-5.3h-.07a.05.05 0 0 0 0 .07l4 5.3z"/><path d="M126.51 69.38l3.65-1.9v-.07a.05.05 0 0 0-.07 0l-3.59 1.89v.06zm-6.26-.92l4.59-2.58v-.06h-.06l-4.59 2.58v.06zm13.38 19.68v-.07l-7.08-9.81a.05.05 0 0 0-.07 0v.07l7.08 9.81zm-1.16-8.89v-.06l-3.29-5.75h-.06v.06l3.29 5.74zM131.45 83v-.06l-4.07-7.4h-.08l4.08 7.4z"/><path d="M122.28 76.63l5.1-1v-.05h-.05l-5.1 1a.05.05 0 0 0 0 .06.05.05 0 0 0 .05-.01zm3.13-4.31l3.69-2.58-.05-.08-3.69 2.59v.06z"/><path d="M127.37 75.6a.05.05 0 0 0 0-.06l-2.13-3.39h-.06v.07l2.12 3.39zm4.24 12.89v-.07l-9.15-11.87h-.07v.07l9.15 11.87zm2.85 2.15v-.07l-2.38-3h-.07v.07l2.38 3z"/><path d="M132.08 87.61l1.77.53h.06v-.06l-1.77-.53h-.06v.06z"/><path d="M131.61 88.49h.05l.47-.88v-.06a.05.05 0 0 0-.06 0l-.46.89v.06z"/><path d="M132.08 87.61l5.92-3.29v-.07h-.06l-5.86 3.29v.07zm-.08 3.52v-.07L129.36 87h-.06v.07l2.7 4.04z"/><path d="M130.07 89.65v-.06l-.71-2.59h-.05v.06l.77 2.58s-.02 0-.01.01z"/><path d="M129.31 87.07V87l-3.08-2.22a.05.05 0 0 0-.07 0v.06l3.08 2.22z"/><path d="M127.63 89.32v-.06l-1.4-4.47a.05.05 0 0 0-.06 0v.06l1.41 4.47z"/><path d="M125.25 87.88h.06l1-3a.05.05 0 0 0 0-.06h-.06l-1 3v.06zm3.82 7.94v-.07l-5.54-9h-.07v.06l5.54 9z"/><path d="M126 93v-.06l-2.46-6.2h-.09l2.55 6.2V93zm-5.73-9l1.15-.08h-.05l-1.15.08v.05l.05-.05zm-.69-5a.05.05 0 0 0 0-.06l-3.06-3.38h-.07v.07l3.06 3.37z"/><path d="M119.58 79a.06.06 0 0 0 .05 0v-.06l-5.18-2.76h-.06v.06l5.17 2.76z"/><path d="M120.27 84a.05.05 0 0 0 0-.05l-.7-5h-.05V79l.7 5h.05zm4.98 3.88a.05.05 0 0 0 0-.06l-3.94-9.13h-.09l3.94 9.12s.08.07.09.07z"/><path d="M121.32 78.76h.06l.77-2.13a.05.05 0 0 0 0-.06h-.06l-.77 2.13v.06z"/><path d="M119.58 79l1.75-.2v-.05h-.05l-1.74.19a.05.05 0 0 0 0 .05s.01.01.04.01z"/><path d="M121.32 78.76h.05a.06.06 0 0 0 0-.07l-4.8-3.18h-.06v.06l4.8 3.18zm126.32 15.81a.1.1 0 0 0 .09-.16l-23.08-18.93a.1.1 0 0 0-.12.15l23.08 18.92zm-6.53 4.12a.11.11 0 0 0 .1 0 .1.1 0 0 0 0-.14L221.25 80a.09.09 0 0 0-.13 0 .1.1 0 0 0 0 .13l19.95 18.53zm-6.84 1.5a.09.09 0 0 0 .09 0 .1.1 0 0 0 0-.14l-16.3-17.56a.09.09 0 0 0-.13 0 .1.1 0 0 0 0 .13l16.32 17.55zm-6.27 2.49a.1.1 0 0 0 .09 0 .1.1 0 0 0 0-.13L213.58 87a.09.09 0 0 0-.13 0 .1.1 0 0 0 0 .14l14.46 15.57zm-8.09 3.53a.11.11 0 0 0 .08 0 .09.09 0 0 0 0-.13l-10.61-14.49a.09.09 0 1 0-.15.11l10.63 14.47a.09.09 0 0 0 .05.04zm-6.03 1.42a.08.08 0 0 0 .08 0 .09.09 0 0 0 0-.13l-9.1-12.43a.09.09 0 0 0-.13 0 .1.1 0 0 0 0 .13l9.1 12.43z"/><path d="M213.88 107.63l3.81-.07a.1.1 0 0 0 .09-.09.09.09 0 0 0-.1-.09l-3.81.07a.1.1 0 0 0-.09.09.1.1 0 0 0 .1.09z"/><path d="M217.69 107.56a.08.08 0 0 0 .08 0l2.23-1.36a.09.09 0 0 0 0-.13.09.09 0 0 0-.13 0l-2.22 1.35a.09.09 0 0 0 0 .17z"/><path d="M219.91 106.21l4.49-.08a.09.09 0 1 0 0-.19l-4.49.08a.09.09 0 0 0 0 .18z"/><path d="M224.4 106.12a.1.1 0 0 0 .09 0l3.56-3.44a.1.1 0 0 0-.14-.13l-3.55 3.45a.1.1 0 0 0 0 .13z"/><path d="M228 102.68l4.12-.08a.09.09 0 0 0 .09-.1.1.1 0 0 0-.1-.09l-4.12.08a.09.09 0 0 0-.09.1.09.09 0 0 0 .1.09z"/><path d="M232.07 102.61a.09.09 0 0 0 .09 0l2.2-2.41a.09.09 0 0 0 0-.13.09.09 0 0 0-.13 0l-2.23 2.38a.1.1 0 0 0 0 .13z"/><path d="M234.27 100.19l5.12-.1a.09.09 0 0 0 .09-.09.1.1 0 0 0-.1-.09l-5.11.1a.09.09 0 0 0-.09.09.08.08 0 0 0 .09.09z"/><path d="M239.39 100.1a.1.1 0 0 0 .09 0l1.72-1.4a.09.09 0 0 0 0-.13.09.09 0 0 0-.13 0l-1.72 1.41a.09.09 0 0 0 0 .13z"/><path d="M241.11 98.69l5.35-1.1a.1.1 0 0 0 .07-.11.1.1 0 0 0-.11-.07l-5.35 1.1a.11.11 0 0 0-.07.11.11.11 0 0 0 .11.07z"/><path d="M246.46 97.59a.09.09 0 0 0 .11-.06l1.19-3a.09.09 0 0 0-.05-.12.1.1 0 0 0-.12.06l-1.19 3a.09.09 0 0 0 .05.12zm-40.12 13.26v-.06l-5.2-10.79h-.06v.06l5.26 10.76zm-5.74 2.99v-.06l-4.38-10a.05.05 0 0 0-.06 0v.06l4.39 10zm-.92.95v-.06l-4.58-9.84h-.06v.06l4.59 9.84zm-4.3 5.21v-.06L190 107.33h-.06v.06l5.39 12.6z"/><path d="M190 107.39a.06.06 0 0 0 0-.06l-13.35-14.4h-.07V93L190 107.37z"/><path d="M176.6 93h.06a.05.05 0 0 0 0-.06l-4.4-1.66h-.06v.06l4.4 1.66z"/><path d="M172.17 91.48a.18.18 0 0 0 .21-.09l6.76-12.16a.18.18 0 0 0-.07-.25.18.18 0 0 0-.25.07l-6.76 12.16a.19.19 0 0 0 .07.26z"/><path d="M178.92 79.32h.1l13.79-3.4a.19.19 0 1 0-.09-.36L178.93 79a.19.19 0 0 0 0 .36z"/><path d="M192.72 75.92a.19.19 0 0 0 .2-.06l13.84-17a.19.19 0 0 0 0-.26.19.19 0 0 0-.26 0l-13.88 17.02a.19.19 0 0 0 0 .26z"/><path d="M206.56 58.87a.2.2 0 0 0 .2-.05l12.17-13.09a.19.19 0 0 0-.28-.26l-12.17 13.09a.19.19 0 0 0 0 .26z"/><path d="M218.73 45.78a.2.2 0 0 0 .16 0l20.2-14.24a.19.19 0 0 0-.21-.31l-20.2 14.24a.19.19 0 0 0 0 .26.19.19 0 0 0 .05.05z"/><path d="M211.09 43.79L239 31.4v-.06h-.06l-27.86 12.37v.06l.01.02z"/><path d="M209.5 46a.19.19 0 0 0 .2-.07l1.55-2a.19.19 0 0 0-.3-.23l-1.56 2a.18.18 0 0 0 0 .26z"/><path d="M159.19 72a.17.17 0 0 0 .13 0l50.31-26.05a.19.19 0 0 0 .08-.25.18.18 0 0 0-.25-.08l-50.31 26.04a.19.19 0 0 0-.08.25.18.18 0 0 0 .12.09z"/><path d="M146.87 77l12.35-5.1v-.06h-.07l-12.35 5.1a.06.06 0 0 0 0 .07zm-2.69-5.27l15-1.77v-.05h-.05l-15 1.77a.05.05 0 0 0 0 .05.06.06 0 0 0 .05 0z"/><path d="M159.17 70a.1.1 0 0 0 .07 0l44.69-22.92a.09.09 0 0 0-.09-.16l-44.68 22.92a.09.09 0 0 0 0 .13.11.11 0 0 0 .01.03z"/><path d="M203.86 47.1a.1.1 0 0 0 .09 0l8.74-6.66a.1.1 0 0 0 0-.13.09.09 0 0 0-.13 0l-8.74 6.66a.09.09 0 0 0 0 .13z"/><path d="M212.6 40.44h.06l26.34-10a.09.09 0 0 0 .06-.12.09.09 0 0 0-.12-.05l-26.33 10a.09.09 0 0 0-.05.12.11.11 0 0 0 .04.05z"/><path d="M238.92 30.5a.14.14 0 0 0 .1 0l22.27-10.41a.14.14 0 0 0 .07-.19.15.15 0 0 0-.19-.07l-22.27 10.4a.15.15 0 0 0-.07.19.14.14 0 0 0 .09.08z"/><path d="M261.18 20.13a.18.18 0 0 0 .14 0L296.66.72a.19.19 0 0 0 .07-.25.19.19 0 0 0-.26-.07l-35.33 19.4a.18.18 0 0 0-.07.25.18.18 0 0 0 .11.08z"/><path d="M294.26 4.77a.05.05 0 0 0 .05 0l2.3-4.19V.51a.05.05 0 0 0-.07 0l-2.31 4.19v.06z"/><path d="M262.8 24.21l31.5-19.45V4.7h-.07l-31.44 19.42v.07zm.04 2.37v-2.37 2.37zm-9.39 4.55l9.41-4.55a.06.06 0 0 0 0-.06.05.05 0 0 0-.07 0L253.44 31v.06z"/><path d="M239 31.4l14.48-.28-14.48.19v.09z"/><path d="M239 31.4l23.83-7.19v-.06a.05.05 0 0 0-.06 0L239 31.32v.06zM195.09 105l1.12-1.08v-.07h-.06l-1.12 1.08a.05.05 0 0 0 0 .07z"/><path d="M196.21 103.87l4.88-3.78v-.07h-.07l-4.87 3.78a.05.05 0 0 0 0 .07z"/><path d="M201.08 100.09l3.72-4.94v-.07h-.06l-3.68 4.92a.05.05 0 0 0 0 .07z"/><path d="M204.8 95.16l4.49-3.47v-.06h-.06l-4.49 3.46v.06z"/><path d="M209.28 91.69l4.27-4.69a.05.05 0 0 0 0-.06h-.07l-4.22 4.63a.06.06 0 0 0 0 .07z"/><path d="M213.51 87.06l4.49-4.48v-.07h-.06L213.48 87v.07z"/><path d="M218 82.59l3.2-2.48v-.06h-.07L218 82.51a.05.05 0 0 0 0 .07z"/><path d="M221.17 80.11a.05.05 0 0 0 .05 0l3.41-4.51v-.07a.05.05 0 0 0-.07 0L221.15 80v.07z"/><path d="M224.58 75.6l5.73-2.6v-.06a.05.05 0 0 0-.07 0l-5.69 2.65v.06z"/><path d="M230.27 73h.06l2.29-4.39v-.06h-.07l-2.29 4.38V73z"/><path d="M232.56 68.57l3.64-2a.05.05 0 0 0 0-.07.05.05 0 0 0-.07 0l-3.64 2a.05.05 0 0 0 0 .06z"/><path d="M236.2 66.57h.05l.71-5.41v-.05h-.05l-.71 5.41v.05z"/><path d="M236.92 61.15l3.44-3.06v-.07h-.07l-3.44 3.06a.05.05 0 0 0 0 .07z"/><path d="M240.35 58.09L247 56v-.06a.05.05 0 0 0-.06 0L240.35 58v.09z"/><path d="M246.93 56l4.45-2.21v-.08l-4.45 2.2v.06zm4.45-2.24h.06l.69-3.26v-.05h-.06l-.68 3.26-.01.05z"/><path d="M252.06 50.5l4-1.82v-.06H256l-4 1.82v.06h.06z"/><path d="M256 48.68l3.31-3.19v-.06h-.07L256 48.6a.05.05 0 0 0 0 .07z"/><path d="M259.32 45.54l25.52 2.63a.1.1 0 0 0 .11-.08.1.1 0 0 0-.09-.1l-25.51-2.64a.09.09 0 0 0-.1.08.09.09 0 0 0 .07.11z"/><path d="M284.84 48.18l39.7.12a.09.09 0 0 0 0-.19L284.87 48a.09.09 0 0 0 0 .18z"/><path d="M297.44 41.2l27.1 7.1a.09.09 0 0 0 .11-.07.1.1 0 0 0-.07-.11L297.49 41a.1.1 0 0 0-.11.07.09.09 0 0 0 .06.13z"/><path d="M280.39 43.47l17.06-2.32v-.05h-.05l-17 2.28v.05l-.01.04z"/><path d="M261.58 38.84l18.82 4.64h.06v-.06l-18.86-4.67h-.06l.04.09zm-3.19 3.05l28.8 4.63h.05v-.05l-28.8-4.63h-.06a.06.06 0 0 0 .01.05z"/><path d="M287.18 46.57l37.35 1.72a.09.09 0 0 0 .1-.09.09.09 0 0 0-.09-.1l-37.36-1.72a.09.09 0 0 0-.1.09.1.1 0 0 0 .1.1zm-27.85-1.07v-.06l-.95-3.6h-.05v.06l.94 3.6z"/><path d="M258.39 41.89l3.19-3.06v-.06h-.06l-3.19 3.06v.07zm-10.75 52.68l4.85-.84a.09.09 0 0 0 .08-.11.09.09 0 0 0-.1-.08l-4.86.84a.1.1 0 0 0-.08.11.1.1 0 0 0 .11.08z"/><path d="M252.5 93.73a.09.09 0 0 0 .1 0l1.21-2.15a.09.09 0 0 0 0-.13.09.09 0 0 0-.13 0l-1.21 2.15a.09.09 0 0 0 0 .13z"/><path d="M253.71 91.58l5.6-.8a.09.09 0 0 0 .08-.11.1.1 0 0 0-.1-.08l-5.6.8a.1.1 0 0 0-.08.11.09.09 0 0 0 .1.08z"/><path d="M259.31 90.78a.1.1 0 0 0 .12-.07l.82-2.82a.1.1 0 0 0-.06-.12.1.1 0 0 0-.11.06l-.82 2.82a.09.09 0 0 0 .05.13z"/><path d="M260.13 88l4.72-1a.09.09 0 1 0 0-.18l-4.72 1a.1.1 0 0 0-.08.11.11.11 0 0 0 .08.07z"/><path d="M264.86 87a.09.09 0 0 0 .11-.06l1.03-3.08a.1.1 0 0 0-.06-.12.09.09 0 0 0-.12.06l-1.06 3.08a.1.1 0 0 0 .06.12z"/><path d="M265.92 83.92l5.85-.92a.09.09 0 0 0 .08-.11.09.09 0 0 0-.11-.08l-5.85.92a.1.1 0 0 0-.08.11.1.1 0 0 0 .11.08z"/><path d="M271.77 83a.09.09 0 0 0 .11-.06l.94-3.26a.09.09 0 0 0-.06-.12.09.09 0 0 0-.12.07l-.94 3.26a.09.09 0 0 0 .07.11z"/><path d="M272.7 79.74h.06l4.09-1.83a.1.1 0 0 0 0-.12.09.09 0 0 0-.12 0l-4.08 1.82a.09.09 0 0 0 0 .13.07.07 0 0 0 .05 0z"/><path d="M276.79 77.91a.09.09 0 0 0 .1-.08l.42-4.54a.1.1 0 0 0-.09-.1.09.09 0 0 0-.1.09l-.42 4.54a.1.1 0 0 0 .09.09z"/><path d="M277.2 73.37h.06L281 72a.09.09 0 0 0-.06-.18l-3.74 1.38a.1.1 0 0 0-.06.12.09.09 0 0 0 .06.05z"/><path d="M280.92 72a.1.1 0 0 0 .08 0l.54-4.35a.09.09 0 0 0-.08-.1.09.09 0 0 0-.1.08l-.54 4.35a.09.09 0 0 0 .1.02z"/><path d="M281.46 67.69l7.93.38a.09.09 0 0 0 .1-.09.09.09 0 0 0-.08-.1l-7.94-.38a.09.09 0 0 0 0 .19z"/><path d="M289.4 68.06a.09.09 0 0 0 .09 0l2.88-2.52a.09.09 0 1 0-.12-.14l-2.88 2.52a.09.09 0 0 0 0 .13z"/><path d="M251.36 53.81l40.92 11.73a.1.1 0 0 0 .12-.07.09.09 0 0 0-.07-.12l-40.91-11.72a.1.1 0 0 0-.11.07.09.09 0 0 0 .05.11z"/><path d="M290.11 64.92h.06l7.72-3.26a.09.09 0 0 0 0-.12.09.09 0 0 0-.12 0l-7.71 3.26a.09.09 0 0 0 0 .12.1.1 0 0 0 .05 0z"/><path d="M297.82 61.66h.05a.1.1 0 0 0 .06-.12l-.67-2.47a.09.09 0 0 0-.12-.07.1.1 0 0 0-.07.11l.67 2.47a.09.09 0 0 0 .08.08z"/><path d="M252.05 50.55l45.1 8.64a.09.09 0 0 0 .11-.08.1.1 0 0 0-.07-.11l-45.1-8.64a.09.09 0 0 0-.11.08.1.1 0 0 0 .07.11z"/><path d="M297.15 59.19h.05l8.2-2.29a.09.09 0 0 0 .06-.12.1.1 0 0 0-.12-.06l-8.2 2.3a.1.1 0 0 0-.07.11.1.1 0 0 0 .08.06z"/><path d="M305.35 56.9a.1.1 0 0 0 .07-.11l-.55-2.6a.09.09 0 0 0-.11-.07.09.09 0 0 0-.07.11l.55 2.6a.08.08 0 0 0 .11.07z"/><path d="M256 48.73l48.79 5.57a.1.1 0 0 0 .11-.08.09.09 0 0 0-.08-.1L256 48.54a.09.09 0 0 0-.1.08.09.09 0 0 0 .1.11z"/><path d="M304.8 54.3l9.49-2.3a.09.09 0 1 0 0-.18l-9.44 2.31a.09.09 0 0 0-.07.11.09.09 0 0 0 .02.06z"/><path d="M314.24 52a.09.09 0 0 0 .1 0 .09.09 0 0 0 0-.13l-5.69-3.74a.1.1 0 0 0-.13 0 .1.1 0 0 0 0 .13l5.7 3.74zm-16.79-10.85l34.52-3a.05.05 0 0 0 0-.05h-.05l-34.52 3v.09z"/><path d="M313.89 33.77l18.11 4.4a.09.09 0 0 0 .11-.07.09.09 0 0 0-.11-.1l-18.06-4.4a.09.09 0 0 0-.11.07.1.1 0 0 0 .06.1z"/><path d="M290.22 34.22l23.68-.45a.1.1 0 0 0 .09-.09.1.1 0 0 0-.1-.09l-23.65.41a.1.1 0 0 0-.09.1.1.1 0 0 0 .07.12z"/><path d="M288.25 36.58h.05l2-2.41v-.07h-.06l-2 2.41v.07z"/><path d="M272.7 39.25l15.55-2.67v-.09l-15.55 2.67v.05s-.02.03 0 .04z"/><path d="M272.7 39.25h.05v-.06l-5.56-3.45h-.06v.07l5.56 3.45z"/><path d="M261.58 38.84l5.56-3a.05.05 0 0 0 0-.07h-.06l-5.56 3a.05.05 0 0 0 0 .06z"/><path d="M267.14 35.8l16.75-5.25v-.06h-.06l-16.75 5.25v.06h.06z"/><path d="M270.77 29.8l13.12.75h.05l-13.12-.75h-.05zm-10.18 2.69l10.18-2.69a.06.06 0 0 0 0-.06h-.06l-10.12 2.66v.06s-.02.03 0 .03z"/><path d="M270.77 29.8l5.51-5.85a.05.05 0 0 0 0-.07h-.06l-5.51 5.85v.07z"/><path d="M276.26 24h.05l51.06-12.58a.09.09 0 0 0 .07-.11.1.1 0 0 0-.12-.07l-51.05 12.58a.09.09 0 0 0-.07.11.1.1 0 0 0 .06.07z"/><path d="M315.64 19.46l11.7-8.09-.05-.08-11.7 8.09v.07z"/><path d="M283.89 30.55l31.74-11.09v-.06h-.06l-31.68 11.06v.09z"/><path d="M295.59 26.5l33-.63a.09.09 0 0 0 .09-.1.1.1 0 0 0-.1-.09l-33 .63a.1.1 0 0 0-.09.1.1.1 0 0 0 .1.09z"/><path d="M313.35 30.24l15.27-4.41v-.06h-.06l-15.27 4.41v.06h.06z"/><path d="M293.4 32.83l19.94-2.59v-.05h-.05l-19.94 2.6v.05l.05-.01z"/><path d="M290.23 34.17l3.17-1.34v-.09l-3.17 1.34v.06zm-27.45-9.87a.13.13 0 0 0 .09 0l53.61-23.12a.13.13 0 0 0 .07-.18.14.14 0 0 0-.18-.07L262.76 24a.14.14 0 0 0-.07.19.13.13 0 0 0 .09.11z"/><path d="M308.71 9.73l7.7-8.63a.06.06 0 0 0 0-.07h-.07l-7.7 8.64v.06z"/><path d="M276.28 24l32.47-14.27v-.06h-.06l-32.42 14.2v.06s-.01.07.01.07zm5.18 43.69a.09.09 0 0 0 .05-.18L247 55.84a.09.09 0 1 0-.06.18l34.55 11.67zm-4.26 5.68a.09.09 0 0 0 .11-.05.09.09 0 0 0-.05-.12L240.4 58a.09.09 0 0 0-.12 0 .09.09 0 0 0 .05.12l36.86 15.24zm-4.5 6.37a.08.08 0 0 0 .11 0 .09.09 0 0 0 0-.12L237 61a.1.1 0 0 0-.13 0 .1.1 0 0 0 0 .13l35.81 18.54zm-6.78 4.18a.1.1 0 0 0 .11 0 .09.09 0 0 0 0-.13l-29.76-17.35a.1.1 0 0 0-.13 0 .1.1 0 0 0 0 .13l29.76 17.34zM260.13 88a.09.09 0 0 0 .1 0 .09.09 0 0 0 0-.13l-27.6-19.42a.09.09 0 0 0-.13 0 .1.1 0 0 0 0 .13L260.1 88zm-6.42 3.58a.09.09 0 0 0 .1 0 .09.09 0 0 0 0-.13l-23.47-18.61a.09.09 0 0 0-.13 0 .1.1 0 0 0 0 .13l23.45 18.59zm7.87-52.74h.05l.67-4.13v-.05h-.05l-.67 4.13a.05.05 0 0 0 0 .05z"/><path d="M259.12 34.13l3.13.58h.05v-.05l-3.16-.66v.09z"/><path d="M259.12 34.13h.05l1.47-1.63v-.07h-.07l-1.47 1.64v.07z"/><path d="M253.45 31.13l7.14 1.36h.05v-.05L253.46 31h-.05l.04.13z"/><path d="M247.4 35l13.19-2.5v-.06h-.05l-13.18 2.5v.05l.04.01zm-2.9-1.4l9.5-2.48v-.06h-.05l-9.44 2.48v.05a.06.06 0 0 0-.01.01zm4.32 3.73l13.43-2.63v-.05h-.05l-13.43 2.63v.05h.05zm-.65-1.17l10.95-2v-.05h-.05l-10.94 2v.06s.03-.01.04-.01zm1.18 2.91l12.23-.23-12.22.16-.01.07zm-1.84 1.85l10.88 1h.05v-.05l-10.88-1a.05.05 0 0 0-.05 0v.05zm8.49 7.76h.05v-.06l-12.62-3.91a.05.05 0 0 0-.06 0v.06L256 48.68zm-3.94 1.82h.06a.06.06 0 0 0 0-.06l-10.18-3.63a.05.05 0 0 0-.06 0 .05.05 0 0 0 0 .06l10.18 3.63zm-6.38-7.5l13.66 2.49h.05c.05 0 0-.05 0-.05l-13.69-2.52v.09zm1.25 13h.05v-.06l-14.72-6h-.06V50l14.72 6zm4.45-2.24a.05.05 0 0 0 .06 0v-.06l-13-4.91h-.06v.06l13 4.91zm-11.03 4.33h.05v-.06l-9.92-6.51h-.06v.06l9.92 6.51z"/><path d="M244.49 33.65a.09.09 0 0 0 .11-.05.09.09 0 0 0-.05-.12L239 31.27a.09.09 0 0 0-.12.05.09.09 0 0 0 .05.12l5.53 2.2z"/><path d="M247.39 35a.1.1 0 0 0 .12-.05.1.1 0 0 0 0-.13l-2.9-1.39a.09.09 0 0 0-.12 0 .09.09 0 0 0 0 .13l2.88 1.44z"/><path d="M248.16 36.21a.1.1 0 0 0 .08 0 .09.09 0 0 0 0-.13l-.77-1.17a.1.1 0 0 0-.13 0 .09.09 0 0 0 0 .13l.77 1.17z"/><path d="M248.8 37.38a.09.09 0 0 0 .07 0 .1.1 0 0 0 0-.13l-.65-1.17a.09.09 0 0 0-.13 0 .1.1 0 0 0 0 .13l.65 1.17a.08.08 0 0 0 .06 0z"/><path d="M249.34 39.12a.1.1 0 0 0 .07-.12l-.54-1.74a.09.09 0 1 0-.18.06l.53 1.74a.09.09 0 0 0 .12.06z"/><path d="M247.5 41a.09.09 0 0 0 .09 0l1.83-1.85a.09.09 0 0 0 0-.13.09.09 0 0 0-.13 0l-1.84 1.84a.1.1 0 0 0 0 .13z"/><path d="M245.67 43.05a.09.09 0 0 0 .1 0l1.84-2.09a.09.09 0 0 0 0-.13.09.09 0 0 0-.13 0l-1.83 2.1a.09.09 0 0 0 0 .13z"/><path d="M243.4 44.82a.09.09 0 0 0 .08 0l2.27-1.82a.1.1 0 0 0 0-.13.1.1 0 0 0-.14 0l-2.28 1.76a.09.09 0 0 0 0 .13z"/><path d="M241.87 46.92a.1.1 0 0 0 .1 0l1.52-2.11a.09.09 0 0 0 0-.13.09.09 0 0 0-.13 0l-1.52 2.11a.09.09 0 0 0 0 .13zm-9.68 3.13l6.22-1.16a.1.1 0 0 0 .07-.11.1.1 0 0 0-.11-.07l-6.22 1.16a.1.1 0 0 0-.08.11.1.1 0 0 0 .12.07z"/><path d="M238.41 48.9a.1.1 0 0 0 .07 0l3.46-2a.1.1 0 0 0 0-.13.1.1 0 0 0-.13 0l-3.46 2a.09.09 0 0 0 0 .13.09.09 0 0 0 .06 0zm-7.99 2.73a.09.09 0 0 0 .09 0l1.77-1.63a.09.09 0 0 0 0-.13.09.09 0 0 0-.13 0l-1.78 1.57a.1.1 0 0 0 0 .13z"/><path d="M229.91 54.65a.09.09 0 0 0 .11-.08l.51-3a.1.1 0 0 0-.19 0l-.5 3a.09.09 0 0 0 .07.08z"/><path d="M225.47 57.11a.09.09 0 0 0 .07 0l4.46-2.46a.09.09 0 1 0-.09-.16l-4.45 2.46a.1.1 0 0 0 0 .13.12.12 0 0 0 .01.03z"/><path d="M225.43 59.49a.09.09 0 0 0 .09-.09v-2.38a.09.09 0 0 0-.09-.1.09.09 0 0 0-.09.09v2.38a.09.09 0 0 0 .09.1z"/><path d="M221.27 60l4.16-.51a.09.09 0 0 0 .08-.11.09.09 0 0 0-.11-.08l-4.15.51a.09.09 0 0 0-.08.1.09.09 0 0 0 .1.09z"/><path d="M220.83 63.13A.09.09 0 0 0 221 63l.44-3.13a.09.09 0 0 0-.08-.1.09.09 0 0 0-.1.08l-.49 3.15a.1.1 0 0 0 .06.13z"/><path d="M216.86 64.28h.05l4-1.15A.09.09 0 0 0 221 63a.1.1 0 0 0-.12-.07l-4 1.15a.09.09 0 0 0-.06.11.09.09 0 0 0 .04.09z"/><path d="M217 68.91a.1.1 0 0 0 .09-.1l-.09-4.62a.1.1 0 0 0-.1-.09.1.1 0 0 0-.09.1l.09 4.63a.09.09 0 0 0 .1.08z"/><path d="M213.17 70.26h.06l3.77-1.35a.09.09 0 0 0 .06-.12.09.09 0 0 0-.12-.06l-3.78 1.35a.1.1 0 0 0-.06.12.11.11 0 0 0 .07.06z"/><path d="M213.07 73.33a.09.09 0 0 0 .1-.09l.1-3.07a.09.09 0 0 0-.19 0l-.1 3.06a.1.1 0 0 0 .09.1z"/><path d="M208.82 74.68h.05l4.26-1.35a.1.1 0 0 0 .06-.12.1.1 0 0 0-.12-.06l-4.25 1.35a.09.09 0 0 0-.06.12.09.09 0 0 0 .06.06z"/><path d="M205.28 78.73a.09.09 0 0 0 .1 0l3.54-4.05a.09.09 0 0 0 0-.13.09.09 0 0 0-.13 0l-3.54 4.05a.09.09 0 0 0 0 .13z"/><path d="M201.67 79.14l3.61-.41a.09.09 0 0 0 .08-.1.09.09 0 0 0-.1-.08l-3.61.41a.09.09 0 0 0-.08.1.09.09 0 0 0 .1.08z"/><path d="M198.74 83.12a.09.09 0 0 0 .1 0l2.92-4a.09.09 0 0 0-.15-.11l-2.92 4a.09.09 0 0 0 0 .13z"/><path d="M196.37 82.81l2.38.3a.09.09 0 0 0 .1-.08.09.09 0 0 0-.08-.1l-2.38-.3a.09.09 0 0 0-.1.08.09.09 0 0 0 .08.1z"/><path d="M193.89 90.13a.1.1 0 0 0 .12-.06l2.48-7.32a.1.1 0 0 0-.06-.12.09.09 0 0 0-.11.06L193.83 90a.09.09 0 0 0 .06.12z"/><path d="M196.63 96.29a.08.08 0 0 0 .07 0 .09.09 0 0 0 0-.12L194 90a.09.09 0 0 0-.12 0 .09.09 0 0 0 0 .12l2.74 6.16a.11.11 0 0 0 .01.01z"/><path d="M195.09 105h.05l1.56-8.71h-.09l-1.55 8.7a.06.06 0 0 0 .03.01zm41.83-43.85a.05.05 0 0 0 0-.07l-7-6.54h-.07v.07l7 6.54zm-.72 5.42a.05.05 0 0 0 .05 0v-.07L225.52 57h-.07v.07l10.73 9.5zm-3.64 2v-.06l-7.12-9.13h-.07v.07l7.11 9.12zM230.27 73v-.07l-9-13h-.07V60l9 13z"/><path d="M230.27 73v-.07L220.9 63a.05.05 0 0 0-.07 0v.07l9.42 9.87zm-5.69 2.6a.05.05 0 0 0 0-.07l-7.71-11.37h-.06v.07l7.7 11.37z"/><path d="M224.58 75.6v-.07L217 68.79h-.07v.07l7.62 6.74zm-3.41 4.51v-.06l-8-9.9h-.07v.07l8 9.9z"/><path d="M221.17 80.11v-.07l-8.09-6.83-.06.07 8.09 6.83zM218 82.59v-.07l-9.14-8h-.07v.07l9.14 8z"/><path d="M218 82.59h.05v-.06l-12.68-3.91h-.06v.06L218 82.59z"/><path d="M213.51 87.06a.06.06 0 0 0 0-.07l-8.21-8.38h-.07a.06.06 0 0 0 0 .07l8.22 8.38zm-4.23 4.63v-.07L198.81 83h-.07v.07l10.53 8.62z"/><path d="M209.28 91.69v-.07L201.73 79h-.06v.07l7.6 12.6zm-4.48 3.47v-.07l-8.36-12.39h-.07v.06l8.41 12.39z"/><path d="M204.8 95.16h.05v-.06L193.93 90h-.06v.06l10.9 5.07zm-3.72 4.93v-.06l-4.44-3.85a.05.05 0 0 0-.07 0v.07l4.44 3.85z"/><path d="M196.21 103.87l.44-7.62-.43 7.62h-.01zm22.56-58.23l19.66 3.21h.05v-.05l-19.65-3.21h-.05a.05.05 0 0 0-.01.05zM221.29 60v-.07l-7.72-8.72h-.07v.07l7.72 8.72zm4.19-2.93h.05v-.06l-10.59-7.25h-.07v.07l10.59 7.25zm-8.78-9.2l13.73 3.71h.06a.05.05 0 0 0 0-.06l-13.73-3.71h-.06v.06zm4.04-3.61l22.67.51-22.66-.52-.01.01zM224 42l20.5-8.36v-.06h-.06L224 41.87v.06zm-1.78 1.21l27.13-4.14v-.05h-.05l-27.14 4.14v.05h.06zm-5.35 21.02v-.06l-5.37-10.78h-.06v.07l5.36 10.78zm-20.49 18.54a.05.05 0 0 0 0-.06l-3.63-7a.05.05 0 0 0-.07 0v.06l3.63 7zm5.3-3.67a.06.06 0 0 0 0-.07l-6.08-6.82-.07.06 6.08 6.82zm3.61-.42v-.07l-7.43-9.19h-.07v.07l7.43 9.19zm3.54-4.05v-.07l-8.25-8.49a.06.06 0 0 0-.07 0v.07l8.25 8.49zm4.35-4.41v-.08l-9.63-7.73h-.06v.07l9.63 7.73zm-.09 3.06v-.06l-10.29-9.86a.06.06 0 0 0-.07 0 .07.07 0 0 0 0 .07l10.3 9.86zm3.91-4.41v-.07l-10.35-10.14h-.07v.07l10.37 10.13z"/><path d="M216.87 64.23a.05.05 0 0 0 0-.07L209.12 56h-.07v.07l7.8 8.16zm-18.11 18.84a.06.06 0 0 0 0-.07l-6-7.28h-.07v.07l6 7.28zm10.07-8.44h.05v-.06l-11-5.14h-.06v.06l11 5.14zm12.02-11.55v-.07l-9.34-9.63a.05.05 0 0 0-.07 0v.07l9.34 9.63zm9.08-8.47a.05.05 0 0 0 .06 0v-.06l-13.22-6.75v.08l13.22 6.74zm-4.49 4.83v-.08l-11.87-8.2a.05.05 0 0 0-.07 0v.06l11.87 8.21zm-6.67-13.8l23.11 1.23a.05.05 0 0 0 .05 0l-23.11-1.23a.05.05 0 0 0-.05 0z"/><path d="M232.21 50h.06v-.06l-13.45-4.37h-.05v.06L232.21 50zm-11.47-5.74l26.77-3.34v-.05a.05.05 0 0 0-.06 0l-26.77 3.34v.05h.06zm2.47-1.47L247.43 35v-.06h-.05l-24.2 7.8a.05.05 0 0 0 0 .06zm-29.31 47.3h.05v-.07L179 79.1h-.07v.07l14.94 10.9zm-21.71 1.3l24.43 4.9a.09.09 0 0 0 .11-.07.1.1 0 0 0-.07-.11l-24.44-4.9a.1.1 0 0 0-.11.07.1.1 0 0 0 .08.11z"/><path d="M196.64 96.25v-.07L179 79.11l-.07.07 17.67 17.06zm-2.74-6.16v-.06l-4-13.59h-.06v.06l4 13.59h.06z"/><path d="M193.9 90.09a.05.05 0 0 0 0-.07l-9.5-12.23h-.07v.06l9.55 12.23zm1.59-4.68v-.06l-5.61-8.91h-.06v.07l5.62 8.91zm1.15 10.84h.05v-.06l-21.16-10.85a.05.05 0 0 0-.07 0v.06l21.14 10.83z"/><path d="M176.6 93v-.05l-1.1-7.58a.06.06 0 0 0-.06 0 .05.05 0 0 0 0 .05l1.13 7.58a.05.05 0 0 0 .03 0zm13.4 14.39v-.06l-11-28.2h-.06v.06l11 28.21zm5.09-2.39v-.06L184.4 77.8h-.06v.06l10.74 27.09z"/><path d="M195.09 105v-.08l-18.45-12h-.06v.06l18.48 11.94zm.29 15l-.29-15 .29 15zm4.36-1.66a.05.05 0 0 0 0-.07l-9.75-11h-.07v.06l9.76 11z"/><path d="M195.46 124.42v-.06l-5.48-17h-.06v.06l5.47 17s.05-.01.07 0zm-35.29 3.48l7.34-1.39v-.05h-.05l-7.34 1.39a.05.05 0 0 0 0 .05.06.06 0 0 0 .05 0z"/><path d="M167.51 126.51l7.42-6.91a.05.05 0 0 0 0-.07.05.05 0 0 0-.07 0l-7.42 6.92v.07z"/><path d="M174.93 119.6h.06l2.71-12v-.05h-.05l-2.71 12a.05.05 0 0 0-.01.05z"/><path d="M177.57 107.85a.25.25 0 0 0 .17 0 .27.27 0 0 0 .18-.35l-5.42-16.28a.28.28 0 0 0-.35-.18.28.28 0 0 0-.18.35l5.43 16.28a.28.28 0 0 0 .17.18zM160.14 128a.14.14 0 0 0 .16-.05.14.14 0 0 0 0-.2l-12.3-8.58a.14.14 0 0 0-.2 0 .14.14 0 0 0 0 .19l12.3 8.64z"/><path d="M147.88 119.42a.14.14 0 0 0 .14 0 .15.15 0 0 0 0-.2l-12.07-11.57a.14.14 0 0 0-.2 0 .14.14 0 0 0 0 .2l12.07 11.56z"/><path d="M135.8 107.85a.14.14 0 0 0 .12 0 .14.14 0 0 0 0-.2l-9.85-14.79a.14.14 0 0 0-.24.16l9.85 14.79a.13.13 0 0 0 .12.04z"/><path d="M135.8 107.85a.13.13 0 0 0 .08 0l9.6-2.93a.14.14 0 0 0 .09-.17.14.14 0 0 0-.17-.09l-9.61 2.93a.14.14 0 0 0-.09.18.13.13 0 0 0 .1.08z"/><path d="M145.42 104.88a.1.1 0 0 0 .1 0l6.2-7a.09.09 0 0 0 0-.13.09.09 0 0 0-.13 0l-6.2 7a.09.09 0 0 0 0 .13z"/><path d="M151.63 97.9a.1.1 0 0 0 .11-.08l1.65-10.64a.09.09 0 0 0-.08-.11.1.1 0 0 0-.11.08l-1.65 10.64a.1.1 0 0 0 .08.11z"/><path d="M153.27 87.3a.13.13 0 0 0 .09 0 .14.14 0 0 0 .08-.18l-4.12-11.19a.14.14 0 0 0-.18-.08.15.15 0 0 0-.09.18l4.12 11.19a.14.14 0 0 0 .1.08zm-5.39 32.12a.12.12 0 0 0 .1 0l8.35-3.71a.14.14 0 1 0-.12-.25l-8.34 3.71a.14.14 0 0 0-.07.19.12.12 0 0 0 .08.06z"/><path d="M156.24 115.66a.09.09 0 0 0 .1 0l4.15-5a.1.1 0 0 0 0-.13.09.09 0 0 0-.13 0l-4.15 5a.09.09 0 0 0 0 .13z"/><path d="M160.39 110.62a.11.11 0 0 0 .1-.09l.61-11.4a.09.09 0 0 0-.1-.13.09.09 0 0 0-.1.09l-.61 11.4a.1.1 0 0 0 .1.13z"/><path d="M161 99.22a.09.09 0 0 0 .08-.1l-1.64-13.27a.09.09 0 0 0-.11-.08.1.1 0 0 0-.08.11l1.64 13.27a.1.1 0 0 0 .11.07z"/><path d="M159.34 86a.15.15 0 0 0 .14 0 .14.14 0 0 0 0-.2l-10.2-9.88a.14.14 0 0 0-.2 0 .14.14 0 0 0 0 .2L159.29 86z"/><path d="M172.18 91.43a.14.14 0 0 0 .09-.26l-12.84-5.44a.14.14 0 0 0-.18.08.14.14 0 0 0 .07.19l12.84 5.44zm2.13 28.22a.09.09 0 0 0 .1 0 .09.09 0 0 0 0-.13l-13.92-9a.09.09 0 1 0-.1.16l13.92 9zm-6.83 6.95a.14.14 0 0 0 .14 0 .13.13 0 0 0 0-.2l-11.25-10.9a.14.14 0 0 0-.2.2l11.26 10.9z"/><path d="M156.23 115.7a.13.13 0 0 0 .14 0 .13.13 0 0 0 0-.19l-10.81-10.78a.14.14 0 0 0-.2 0 .14.14 0 0 0 0 .2l10.81 10.78z"/><path d="M145.41 104.92a.15.15 0 0 0 .15 0 .14.14 0 0 0 0-.2L130.53 92a.14.14 0 0 0-.19 0 .14.14 0 0 0 0 .2l15 12.66zm6.22-7.02a.09.09 0 0 0 .08 0 .09.09 0 0 0 0-.13l-7.3-8.47a.09.09 0 1 0-.14.12l7.31 8.47z"/><path d="M160.39 110.62a.1.1 0 0 0 .08 0 .09.09 0 0 0 0-.13l-8.76-12.72a.1.1 0 0 0-.13 0 .09.09 0 0 0 0 .13l8.76 12.72zm22.39 25.69a.09.09 0 0 0 .08-.17l-15.29-9.76a.1.1 0 0 0-.13 0 .09.09 0 0 0 0 .13l15.29 9.76zm-2.67.43a.09.09 0 0 0 .11-.05.1.1 0 0 0 0-.13l-20-8.79a.09.09 0 1 0-.08.17l20 8.8zm5.83-1.8a.09.09 0 0 0 .08 0 .09.09 0 0 0 0-.13l-11.63-15.29a.09.09 0 0 0-.13 0 .1.1 0 0 0 0 .13l11.63 15.29z"/><path d="M186.59 129.44a.09.09 0 0 0 .08-.16l-12.27-9.78a.1.1 0 0 0-.13 0 .09.09 0 0 0 0 .13l12.27 9.79zm5.78 2.19a.27.27 0 0 0 .22 0 .28.28 0 0 0 .09-.39l-14.8-23.78a.28.28 0 0 0-.39-.09.28.28 0 0 0-.09.39l14.81 23.78a.27.27 0 0 0 .16.09z"/><path d="M191 126.11a.11.11 0 0 0 .08 0 .1.1 0 0 0 0-.13l-13.43-18.43a.1.1 0 0 0-.13 0 .09.09 0 0 0 0 .13L191 126.07z"/><path d="M195.06 128.71a.1.1 0 0 0 .09 0 .09.09 0 0 0 0-.13l-17.44-21a.09.09 0 0 0-.13 0 .09.09 0 0 0 0 .13l17.44 21z"/><path d="M195.06 128.71a.1.1 0 0 0 .11-.09l.38-4.25a.09.09 0 0 0-.08-.1.1.1 0 0 0-.11.08l-.38 4.25a.1.1 0 0 0 .08.11z"/><path d="M195.44 124.46a.09.09 0 0 0 .08-.17l-7.47-4.29a.09.09 0 0 0-.13 0 .09.09 0 0 0 0 .13l7.47 4.29z"/><path d="M188 120.17a.09.09 0 0 0 .1 0l4.32-5.51a.1.1 0 0 0 0-.13.09.09 0 0 0-.13 0l-4.36 5.47a.09.09 0 0 0 0 .13z"/><path d="M192.29 114.66a.1.1 0 0 0 .11 0 .1.1 0 0 0 0-.13l-9.31-5.53a.09.09 0 0 0-.13 0 .09.09 0 0 0 0 .12l9.28 5.47z"/><path d="M183 109.19l7-1.75a.09.09 0 0 0 .07-.12.09.09 0 0 0-.12-.07L183 109a.09.09 0 0 0-.07.12.09.09 0 0 0 .07.07z"/><path d="M188 120.17a.1.1 0 0 0 0-.12l-5-11a.1.1 0 0 0-.13 0 .09.09 0 0 0 0 .12l5 11a.1.1 0 0 0 .13 0z"/><path d="M177.62 107.67l5.39 1.52a.1.1 0 0 0 .12-.07.1.1 0 0 0-.07-.12l-5.4-1.52a.09.09 0 0 0-.11.07.09.09 0 0 0 .07.12z"/><path d="M183 109.19h.06a.1.1 0 0 0 .05-.12l-6.41-16.14a.09.09 0 0 0-.12-.05.09.09 0 0 0-.05.12l6.47 16.13a.09.09 0 0 0 0 .06z"/><path d="M183 109.19a.1.1 0 0 0 .07 0 .09.09 0 0 0 0-.13l-10.83-17.8a.09.09 0 0 0-.13 0 .09.09 0 0 0 0 .13L183 109.15z"/><path d="M177.62 107.67a.09.09 0 0 0 .09-.1l-1-14.62a.1.1 0 0 0-.1-.09.1.1 0 0 0-.09.1l1 14.62a.09.09 0 0 0 .1.09z"/><path d="M177.62 107.67l12.36-.23a.09.09 0 0 0 .09-.1.09.09 0 0 0-.09-.09l-12.35.24a.09.09 0 0 0-.09.1.09.09 0 0 0 .08.08z"/><path d="M188 120.17a.1.1 0 0 0 .11-.08l2-12.74a.09.09 0 1 0-.18 0l-2 12.74a.09.09 0 0 0 .07.08zm7.06 8.54a.09.09 0 0 0 .07-.11l-2.76-14.05a.09.09 0 1 0-.18 0l2.81 14.09a.1.1 0 0 0 .06.07zM159.37 85.9l50.16-40.08v-.07h-.07l-50.11 40.07v.07zM211 43.93a.2.2 0 0 0 .13 0l21.89-9.17a.19.19 0 0 0 .1-.25.19.19 0 0 0-.24-.1L211 43.58a.19.19 0 0 0 0 .35z"/><path d="M212.54 44.88L233 34.62a.05.05 0 0 0 0-.06.05.05 0 0 0-.07 0L212.54 44.8a.06.06 0 0 0 0 .06z"/><path d="M209.54 45.82l3-.94v-.06h-.06l-3 .94v.05a.06.06 0 0 0 .06.01z"/><path d="M183.39 69a.19.19 0 0 0 .17 0l29.12-24a.18.18 0 0 0 0-.26.19.19 0 0 0-.26 0l-29.1 23.89a.19.19 0 0 0 0 .26.2.2 0 0 0 .07.11z"/><path d="M159.37 85.9l24.06-17.08v-.07h-.06l-24.02 17.07v.06z"/><path d="M163 87.61a.19.19 0 0 0 .18 0l20.35-18.66a.19.19 0 1 0-.25-.27L163 87.29a.19.19 0 0 0 0 .27.2.2 0 0 0 0 .05zm2.36.83L189.76 68a.05.05 0 0 0 0-.07h-.07l-24.35 20.43a.05.05 0 0 0 0 .07z"/><path d="M189.71 68L212 45.32a.05.05 0 0 0 0-.07h-.07l-22.24 22.67v.07z"/><path d="M212 45.33l11-3.36v-.06a.05.05 0 0 0-.06 0l-11 3.36v.06h.06z"/><path d="M223 42a.09.09 0 0 0 .08 0l9.92-7.34a.09.09 0 0 0-.11-.15L223 41.86a.09.09 0 0 0 0 .13z"/><path d="M233 34.67l6-3.22a.1.1 0 0 0 0-.13.09.09 0 0 0-.13 0l-6 3.22a.09.09 0 0 0 0 .13.07.07 0 0 0 .13 0zm-12.27 9.63a.08.08 0 0 0 .09 0l2.29-2.3a.09.09 0 0 0 0-.13.09.09 0 0 0-.13 0l-2.29 2.28a.1.1 0 0 0 0 .13zm-53.17 45.08L179 79.18a.05.05 0 0 0 0-.07h-.07L167.55 89.3v.07z"/><path d="M179 79.23a.09.09 0 0 0 .09 0L189.8 68a.09.09 0 0 0-.14-.13l-10.75 11.21a.1.1 0 0 0 0 .13z"/><path d="M189.71 68l29.05-22.35v-.06h-.06l-29 22.32v.07zm-5.37 9.9a.09.09 0 0 0 .09 0l24.72-21.8a.1.1 0 0 0 0-.13.1.1 0 0 0-.13 0L184.3 77.74a.09.09 0 0 0 0 .13zm5.49-1.27a.18.18 0 0 0 .18 0l10.72-10.36a.19.19 0 0 0 0-.27.19.19 0 0 0-.27 0l-10.7 10.32a.19.19 0 0 0 0 .26.19.19 0 0 0 .07.05zM179 79.23a.1.1 0 0 0 .09 0l34.6-27.95a.09.09 0 1 0-.12-.15l-34.65 27.94a.1.1 0 0 0 0 .13zm-14.72 8.9a.19.19 0 0 0 .17 0l54.16-44.64a.19.19 0 0 0 0-.26.18.18 0 0 0-.26 0l-54.14 44.58a.19.19 0 0 0 0 .26.18.18 0 0 0 .07.06z"/><path d="M218.48 43.36l13.52-8.3v-.07h-.07l-13.44 8.3v.06zm-66.32 35.32a.21.21 0 0 0 .15 0l57.33-32.73a.19.19 0 0 0 .07-.25.19.19 0 0 0-.26-.07l-57.33 32.71a.18.18 0 0 0-.07.25.17.17 0 0 0 .11.09z"/><path d="M152.2 78.55l29.47-12.64a.06.06 0 0 0 0-.06.05.05 0 0 0-.07 0l-29.41 12.61v.06z"/><path d="M181.68 65.91l27.86-20.09v-.06h-.07l-27.81 20.07a.05.05 0 0 0 0 .07z"/><path d="M155.52 82.18l26.15-16.26v-.06h-.06l-26.1 16.23v.07zM149.17 76L181 65.93v-.06h-.06l-31.76 10.1v.06a.06.06 0 0 0-.01-.03z"/><path d="M180.94 65.93l6.31-7.38v-.07h-.06l-6.31 7.38v.07z"/><path d="M157.63 84.39a.18.18 0 0 0 .18 0l29.58-25.71a.19.19 0 0 0 0-.26.19.19 0 0 0-.26 0l-29.57 25.65a.18.18 0 0 0 0 .26.16.16 0 0 0 .07.06z"/><path d="M187.25 58.54L214 47.07v-.06h-.06l-26.7 11.45v.06z"/><path d="M214 47.12l6.77-2.82a.09.09 0 1 0-.07-.17l-6.77 2.82a.1.1 0 0 0-.05.12.09.09 0 0 0 .12.05zm-37.72 66.49v-.07l-15.23-14.45h-.06v.07l15.27 14.44z"/><path d="M192.44 131.4a.05.05 0 0 0 0-.07l-16.16-17.79a.05.05 0 0 0-.07 0v.07l16.16 17.79z"/><path d="M176.28 113.61a.05.05 0 0 0 0-.06l-16.86-27.72h-.06v.07l16.91 27.71z"/><path d="M176.28 113.61v-.06l-23-26.4-.07.06 23 26.4z"/><path d="M153.29 87.21v-.06l-3.71-5.41h-.07v.07l3.7 5.41zm6.08-1.31h.05v-.06L148.3 79.3h-.07a.05.05 0 0 0 0 .06l11.12 6.52zm-11.52-8.17l4.34.81h.06v-.06l-4.35-.81h-.05v.06zM144 75.68l15.25-3.76a.09.09 0 0 0 .07-.11.09.09 0 0 0-.11-.07L144 75.5a.09.09 0 0 0-.07.11.09.09 0 0 0 .07.07zm1.72-2.57l13.5-3.11a.1.1 0 0 0 .08-.11.1.1 0 0 0-.11-.07l-13.45 3.1a.09.09 0 0 0 0 .18zM152.85 90v-.08l-5.35-4.88a.06.06 0 0 0-.07 0 .05.05 0 0 0 0 .07l5.41 4.89zm8.15 9.17v-.07l-8.1-9.1h-.07v.07l8.17 9.09z"/><path d="M177.57 107.85a.27.27 0 0 0 .26-.06.28.28 0 0 0 0-.4L159.6 85.68a.28.28 0 0 0-.43.36l18.26 21.72a.35.35 0 0 0 .14.09zM149.17 76a.05.05 0 0 0 0-.07l-3.44-3h-.06V73l3.43 3zm-3.73 28.84v-.07l-11.8-16.69h-.07v.07l11.8 16.69zm14.96 5.73a.05.05 0 0 0 0-.07L139 87.41h-.07v.07l21.46 23.09zm20.76 22.48v-.07l-44.27-45.19h-.06v.07L181.14 133zm4.64 28.7a.19.19 0 0 0 .15 0 .18.18 0 0 0 .07-.25l-15.33-27.92a.19.19 0 0 0-.33.18l15.33 27.92a.17.17 0 0 0 .11.07z"/><path d="M191.42 164.17a.18.18 0 0 0 .22-.1.18.18 0 0 0-.09-.25l-5.62-2.42a.19.19 0 1 0-.15.35l5.62 2.42z"/><path d="M191.45 164.08a.09.09 0 0 0 .1 0l1-1.7a.1.1 0 0 0 0-.13.09.09 0 0 0-.13 0l-1 1.7a.09.09 0 0 0 0 .13z"/><path d="M192.45 162.46a.18.18 0 0 0 .16 0 .18.18 0 0 0 0-.26l-18.38-26.77a.19.19 0 0 0-.26 0 .18.18 0 0 0 0 .26l18.38 26.77a.24.24 0 0 0 .1 0z"/><path d="M192.47 162.37l5.92 1.57a.09.09 0 0 0 .11-.07.08.08 0 0 0-.06-.11l-5.92-1.57a.09.09 0 0 0-.11.06.09.09 0 0 0 .06.12z"/><path d="M198.4 163.94h1a.09.09 0 0 0 .09-.09.09.09 0 0 0-.09-.09h-1a.09.09 0 0 0-.1.09.09.09 0 0 0 .1.09z"/><path d="M199.43 163.93l3.77.87a.09.09 0 0 0 .11-.07.09.09 0 0 0-.07-.11l-3.77-.87a.09.09 0 0 0-.11.07.09.09 0 0 0 .07.11z"/><path d="M208 166.94a.09.09 0 0 0 .11-.05.09.09 0 0 0 0-.12l-4.82-2.15a.09.09 0 0 0-.08.17l4.82 2.16z"/><path d="M208 166.94a.09.09 0 0 0 .11 0l.6-1.14a.09.09 0 0 0 0-.13.1.1 0 0 0-.13 0l-.6 1.14a.1.1 0 0 0 0 .13z"/><path d="M210.22 166.34a.1.1 0 0 0 .12-.06.1.1 0 0 0-.06-.12l-1.6-.53a.09.09 0 1 0-.06.18l1.6.53z"/><path d="M210.22 166.34h2.44a.09.09 0 1 0 0-.19h-2.43a.1.1 0 0 0-.09.1.09.09 0 0 0 .08.09z"/><path d="M212.66 166.29a.09.09 0 0 0 .07 0 .09.09 0 0 0 0-.13l-.87-1.67a.1.1 0 0 0-.13 0 .09.09 0 0 0 0 .13l.88 1.67a.09.09 0 0 0 .05 0z"/><path d="M211.78 164.63l2.73.79a.09.09 0 0 0 .12-.06.09.09 0 0 0-.06-.11l-2.73-.79a.09.09 0 1 0-.05.18z"/><path d="M214.51 165.42a.09.09 0 0 0 .11-.07l.44-1.79a.09.09 0 0 0-.07-.11.09.09 0 0 0-.11.07l-.44 1.79a.09.09 0 0 0 .07.11z"/><path d="M214.94 163.63h.06l4.37-1.35a.09.09 0 0 0-.05-.18l-4.38 1.35a.1.1 0 0 0 0 .18z"/><path d="M219.32 162.28l2.24-.46a.1.1 0 0 0 .07-.11.09.09 0 0 0-.11-.07l-2.24.46a.09.09 0 0 0-.07.11.11.11 0 0 0 .11.07z"/><path d="M221.56 161.82a.1.1 0 0 0 .11-.07l.44-1.6a.1.1 0 0 0-.11-.15.1.1 0 0 0-.12.07l-.44 1.6a.09.09 0 0 0 .12.15z"/><path d="M222 160.22h2.16a.09.09 0 0 0 .09-.1.1.1 0 0 0-.1-.09L222 160a.09.09 0 0 0-.09.1.09.09 0 0 0 .09.12z"/><path d="M224.15 160.18a.09.09 0 0 0 .09-.1l-.06-3.37a.1.1 0 0 0-.09-.09.1.1 0 0 0-.09.1l.07 3.37a.09.09 0 0 0 .08.09z"/><path d="M224.08 156.81a.1.1 0 0 0 .08 0l3.78-2.88a.09.09 0 0 0 0-.13.09.09 0 0 0-.13 0l-3.79 2.88a.09.09 0 0 0 0 .13s.04-.01.06 0z"/><path d="M227.87 153.93a.1.1 0 0 0 .08-.11l-.83-3.92a.09.09 0 0 0-.1-.07.1.1 0 0 0-.07.11l.82 3.92a.1.1 0 0 0 .1.07z"/><path d="M227 150a.1.1 0 0 0 .09 0l2.49-1.9a.09.09 0 0 0 0-.13.09.09 0 0 0-.13 0l-2.49 1.9a.1.1 0 0 0 0 .13z"/><path d="M229.54 148.11a.1.1 0 0 0 .09-.1l-.05-2.92a.09.09 0 0 0-.19 0l.05 2.92a.1.1 0 0 0 .1.1z"/><path d="M229.48 145.19a.09.09 0 0 0 .08 0l3.79-2.5a.09.09 0 0 0 0-.13.09.09 0 0 0-.13 0l-3.76 2.44a.09.09 0 0 0 0 .13.07.07 0 0 0 .02.06z"/><path d="M233.27 142.68a.09.09 0 0 0 .07-.11l-.52-2.71a.09.09 0 0 0-.11-.08.09.09 0 0 0-.07.11l.51 2.7a.1.1 0 0 0 .12.09z"/><path d="M232.74 140a.14.14 0 0 0 .16-.07.14.14 0 0 0-.06-.19l-35.08-18.34a.14.14 0 0 0-.13.25L232.72 140zm.52 2.73a.14.14 0 0 0 .17-.07.14.14 0 0 0-.06-.19l-35.55-18.27a.14.14 0 0 0-.19.06.14.14 0 0 0 .06.19l35.55 18.27z"/><path d="M208 132.59a.09.09 0 0 0 .1 0 .1.1 0 0 0 0-.13l-10.27-8.17a.09.09 0 0 0-.13 0 .09.09 0 0 0 0 .13l10.3 8.15z"/><path d="M208.83 135.35h.06a.1.1 0 0 0 .06-.12l-.85-2.76a.1.1 0 0 0-.12-.06.1.1 0 0 0-.06.12l.85 2.76a.1.1 0 0 0 .06.06z"/><path d="M206 136.24h.06l2.84-.9a.1.1 0 0 0 .06-.12.1.1 0 0 0-.12-.06l-2.84.9a.09.09 0 0 0-.06.12.08.08 0 0 0 .06.06z"/><path d="M205.61 138.93a.09.09 0 0 0 .1-.08l.39-2.69a.1.1 0 0 0-.08-.11.1.1 0 0 0-.11.08l-.38 2.69a.08.08 0 0 0 .08.11z"/><path d="M203.53 139.54h.05l2.08-.6a.09.09 0 0 0 .06-.11.1.1 0 0 0-.12-.07l-2.08.6a.09.09 0 0 0 0 .18zm4.47-6.95h.07l2.78-1.49a.09.09 0 0 0 0-.13.1.1 0 0 0-.13 0l-2.72 1.45a.1.1 0 0 0 0 .13.09.09 0 0 0 0 .04z"/><path d="M210.77 131.1h.06a.1.1 0 0 0 .06-.12l-.91-3.1a.09.09 0 1 0-.18.05l.91 3.1a.08.08 0 0 0 .06.07zm-7.65 11.53a.09.09 0 0 0 .11-.08l.41-3.1a.1.1 0 0 0-.08-.1.09.09 0 0 0-.11.08l-.41 3.09a.09.09 0 0 0 .08.11z"/><path d="M200.68 143.63h.06l2.45-1a.1.1 0 0 0 0-.12.1.1 0 0 0-.12-.05l-2.45 1a.09.09 0 0 0-.05.12.1.1 0 0 0 .11.05z"/><path d="M200.26 146.22a.09.09 0 0 0 .11-.08l.42-2.58a.09.09 0 0 0-.08-.11.09.09 0 0 0-.1.08l-.42 2.58a.09.09 0 0 0 .07.11z"/><path d="M196.56 146.29l3.69-.07a.09.09 0 0 0 .09-.1.09.09 0 0 0-.09-.09l-3.7.07a.1.1 0 0 0-.09.1.1.1 0 0 0 .1.09z"/><path d="M195.91 148.75a.1.1 0 0 0 .11-.07l.65-2.47a.09.09 0 0 0-.06-.11.09.09 0 0 0-.11.07l-.66 2.46a.1.1 0 0 0 .07.12z"/><path d="M192.19 149.36l3.72-.62a.09.09 0 0 0 0-.18l-3.72.62a.09.09 0 0 0-.08.11.1.1 0 0 0 .08.07z"/><path d="M190.86 151.35a.09.09 0 0 0 .1 0l1.33-2a.1.1 0 1 0-.16-.11l-1.32 2a.1.1 0 0 0 0 .13z"/><path d="M187.64 150.43l3.23.92a.1.1 0 0 0 .12-.06.1.1 0 0 0-.07-.12l-3.23-.92a.09.09 0 0 0-.11.06.09.09 0 0 0 .06.12z"/><path d="M186.32 153.41a.09.09 0 0 0 .11-.05l1.31-3a.09.09 0 0 0 0-.12.1.1 0 0 0-.12 0l-1.31 3a.09.09 0 0 0 0 .12z"/><path d="M183.09 152.81l3.23.6a.1.1 0 0 0 .11-.08.09.09 0 0 0-.08-.11l-3.23-.6a.1.1 0 0 0-.11.08.1.1 0 0 0 .08.11z"/><path d="M183.09 152.81a.08.08 0 0 0 .08 0 .09.09 0 0 0 0-.13L170.6 133.6a.09.09 0 1 0-.16.1L183 152.77a.07.07 0 0 0 .09.04z"/><path d="M185.82 161.66h.05a.1.1 0 0 0 .07-.12l-2.73-8.84a.09.09 0 1 0-.18.05l2.73 8.84a.08.08 0 0 0 .06.07z"/><path d="M183.09 152.81a.09.09 0 0 0 .11 0 .1.1 0 0 0 0-.13l-3.35-2.23a.09.09 0 1 0-.1.15l3.35 2.23zm8.36 11.27h.07a.09.09 0 0 0 0-.12l-5.13-10.67a.09.09 0 0 0-.12 0 .1.1 0 0 0 0 .13l5.12 10.58a.09.09 0 0 0 .06.08zm6.95-.14a.09.09 0 0 0 .09 0 .1.1 0 0 0 0-.13l-10.76-13.51a.09.09 0 0 0-.13 0 .1.1 0 0 0 0 .13l10.76 13.51z"/><path d="M198.4 163.94a.09.09 0 0 0 .08 0 .1.1 0 0 0 0-.13L191 151.22a.09.09 0 0 0-.13 0 .09.09 0 0 0 0 .13l7.53 12.59zm4.78.94a.18.18 0 0 0 .16 0 .19.19 0 0 0 0-.26l-11-15.43a.19.19 0 0 0-.26 0 .19.19 0 0 0 0 .26l11 15.43a.2.2 0 0 0 .1 0z"/><path d="M199.43 163.93h.08a.1.1 0 0 0 0-.12l-7.25-14.56a.1.1 0 0 0-.13 0 .1.1 0 0 0 0 .13l7.25 14.56a.1.1 0 0 0 .05-.01zm8.57 3.01a.08.08 0 0 0 .08 0 .09.09 0 0 0 0-.13L196 148.61a.1.1 0 0 0-.13 0 .09.09 0 0 0 0 .13L208 166.91a.07.07 0 0 0 0 .03z"/><path d="M208.62 165.81a.1.1 0 0 0 .08 0 .09.09 0 0 0 0-.13L196 148.6a.1.1 0 0 0-.13 0 .09.09 0 0 0 0 .13l12.71 17.06zm3.13-1.1a.19.19 0 0 0 .15 0 .18.18 0 0 0 .06-.26L200.45 146a.19.19 0 0 0-.26-.06.19.19 0 0 0-.06.26l11.52 18.41a.21.21 0 0 0 .1.1zm-1.53 1.63a.09.09 0 0 0 .08 0 .09.09 0 0 0 0-.13l-13.67-20.06a.09.09 0 0 0-.15.1l13.66 20.06a.09.09 0 0 0 .08.03zm11.34-4.52a.1.1 0 0 0 .09 0 .1.1 0 0 0 0-.13l-18.43-19.19a.09.09 0 0 0-.13 0 .09.09 0 0 0 0 .13l18.43 19.19zm-6.64 1.9a.22.22 0 0 0 .17 0 .19.19 0 0 0 0-.26l-14.26-20a.19.19 0 1 0-.31.22l14.27 20a.2.2 0 0 0 .13.04z"/><path d="M219.32 162.28a.1.1 0 0 0 .09 0 .09.09 0 0 0 0-.13l-18.64-18.65a.09.09 0 0 0-.13 0 .09.09 0 0 0 0 .13l18.64 18.65zm-27.87 1.8a.1.1 0 0 0 .08 0 .09.09 0 0 0 0-.13l-8.35-11.26a.1.1 0 0 0-.13 0 .09.09 0 0 0 0 .13L191.4 164zm32.63-7.27a.09.09 0 0 0 .08-.16l-20.55-17.27a.1.1 0 0 0-.13 0 .1.1 0 0 0 0 .13l20.55 17.27zm3.76-2.81a.18.18 0 0 0 .21-.07.19.19 0 0 0 0-.26l-22.26-15a.18.18 0 0 0-.26.05.19.19 0 0 0 0 .26l22.26 15zm-.84-3.9a.18.18 0 0 0 .21-.07.18.18 0 0 0-.05-.26l-21-13.77a.19.19 0 0 0-.2.31l21 13.77zm2.54-1.99a.09.09 0 0 0 .1 0 .09.09 0 0 0 0-.13l-20.7-12.76a.1.1 0 0 0-.13 0 .09.09 0 0 0 0 .13l20.7 12.76zm-.07-2.88a.13.13 0 0 0 .16-.06.15.15 0 0 0 0-.19l-21.49-12.6a.14.14 0 0 0-.19 0 .14.14 0 0 0 0 .19l21.49 12.6zM222 160.31a.19.19 0 0 0 .19-.05.19.19 0 0 0 0-.26l-18.91-17.6a.19.19 0 1 0-.25.27l18.87 17.59z"/><path d="M224.15 160.18a.08.08 0 0 0 .09 0 .09.09 0 0 0 0-.13l-20.61-20.64a.1.1 0 0 0-.13 0 .09.09 0 0 0 0 .13l20.62 20.64zm-35.91-9.58a.09.09 0 0 0 .08 0 .1.1 0 0 0 0-.13l-8.07-10.62a.09.09 0 0 0-.13 0 .09.09 0 0 0 0 .13l8.07 10.62zm2.62.75a.07.07 0 0 0 .08 0 .1.1 0 0 0 0-.13l-6-8.9a.09.09 0 0 0-.13 0 .1.1 0 0 0 0 .13l6 8.9a.07.07 0 0 0 .05 0zm1.33-1.99h.05a.1.1 0 0 0 .07-.12l-1.54-5.33a.09.09 0 0 0-.12-.07.1.1 0 0 0-.07.11l1.54 5.34a.09.09 0 0 0 .07.07zm4.37-3.07a.09.09 0 0 0 .08 0 .09.09 0 0 0 0-.13l-2.73-3.5a.09.09 0 0 0-.15.11l2.73 3.51zm-.65 2.46a.09.09 0 0 0 .08 0 .09.09 0 0 0 0-.13l-3.25-5.29a.1.1 0 0 0-.13 0 .09.09 0 0 0 0 .13l3.25 5.29zm4.35-2.53a.1.1 0 0 0 .1 0 .1.1 0 0 0 0-.13l-4-3.48a.09.09 0 0 0-.13 0 .1.1 0 0 0 0 .13l4 3.48zm2.86-3.59a.1.1 0 0 0 .12 0 .1.1 0 0 0 0-.12l-6-3a.09.09 0 0 0-.12 0 .09.09 0 0 0 0 .13l6 3zm-2.44 1a.09.09 0 0 0 .1 0 .1.1 0 0 0 0-.13l-4.45-3a.09.09 0 0 0-.13 0 .09.09 0 0 0 0 .13l4.46 3zm4.91-4.63a.18.18 0 0 0 .19 0 .19.19 0 0 0 0-.26L194.93 128a.19.19 0 1 0-.26.26L205.51 139a.18.18 0 0 0 .08 0z"/><path d="M203.53 139.54a.1.1 0 0 0 .1 0 .1.1 0 0 0 0-.13l-11.1-8.09a.09.09 0 0 0-.13 0 .09.09 0 0 0 0 .13l11.11 8.09z"/><path d="M203.53 139.54a.09.09 0 0 0 .12-.06.09.09 0 0 0-.06-.12l-6.44-2.06a.08.08 0 0 0-.12.06.09.09 0 0 0 .06.12l6.44 2.06zm2.47-3.21a.19.19 0 0 0 .19-.05.19.19 0 0 0 0-.26l-9.09-8.57a.19.19 0 0 0-.27 0 .19.19 0 0 0 0 .26l9.09 8.57zm-15.14 15.02h.07a.1.1 0 0 0 0-.12l-3.71-8.45a.09.09 0 0 0-.12 0 .09.09 0 0 0-.05.12l3.71 8.45a.08.08 0 0 0 .1 0zm14.75-12.42a.09.09 0 0 0 .09-.16l-14.57-12.83a.09.09 0 0 0-.13 0 .09.09 0 0 0 0 .13l14.57 12.83zm-66.81-1.78h.05a.1.1 0 0 0 .07-.12l-2.3-7.58a.09.09 0 0 0-.11-.06.09.09 0 0 0-.06.12l2.3 7.58a.1.1 0 0 0 .05.06zm2.37-3.29a.09.09 0 0 0 .07-.11l-1.16-5.82a.1.1 0 0 0-.11-.07.09.09 0 0 0-.07.11l1.16 5.81a.08.08 0 0 0 .11.08zm-8.26 4.83a.09.09 0 0 0 .07 0l3-1.74a.09.09 0 0 0 0-.13.09.09 0 0 0-.13 0l-3 1.74a.1.1 0 0 0 0 .13.08.08 0 0 0 .06 0z"/><path d="M132.91 138.69a.1.1 0 0 0 .11 0 .1.1 0 0 0 0-.13l-3.87-2.36a.1.1 0 0 0-.13 0 .1.1 0 0 0 0 .13l3.86 2.36z"/><path d="M129.09 137.94a.14.14 0 0 0 .14-.15l-.06-1.56a.14.14 0 0 0-.28 0l.05 1.56a.15.15 0 0 0 .15.15z"/><path d="M127.18 139.71a.14.14 0 0 0 .13 0l1.91-1.78a.14.14 0 0 0-.19-.21l-1.91 1.78a.14.14 0 0 0 0 .2.13.13 0 0 0 .06.01z"/><path d="M122.74 138.72l4.46 1a.09.09 0 0 0 .11-.07.09.09 0 0 0-.07-.11l-4.45-1a.1.1 0 0 0-.11.07.09.09 0 0 0 .06.11zm-28.06 4.18a.09.09 0 0 0 .1-.08l2.79-24.32a.09.09 0 0 0-.08-.1.09.09 0 0 0-.1.08l-2.77 24.32a.09.09 0 0 0 .06.1zm6.24.38a.09.09 0 0 0 .09-.09l1.14-24a.09.09 0 0 0-.09-.1.09.09 0 0 0-.1.09l-1.14 24a.1.1 0 0 0 .1.1zm6.08-1.65a.1.1 0 0 0 .09-.1l-1.66-22.71a.09.09 0 0 0-.1-.09.1.1 0 0 0-.09.1l1.66 22.71a.09.09 0 0 0 .1.09zm6.35-.63a.09.09 0 0 0 .08-.1l-2.81-22a.09.09 0 0 0-.1-.08.1.1 0 0 0-.08.11l2.82 22a.09.09 0 0 0 .09.07zm5.03.32a.09.09 0 0 0 .08-.1l-2.71-22a.09.09 0 0 0-.11-.08.09.09 0 0 0-.08.1l2.72 22a.08.08 0 0 0 .1.08z"/><path d="M122.74 138.72a.09.09 0 0 0 .08-.1l-2.45-19.93a.09.09 0 0 0-.11-.08.09.09 0 0 0-.08.1l2.45 19.93a.09.09 0 0 0 .11.08z"/><path d="M120.46 140.85a.09.09 0 0 0 .09 0l2.28-2.13a.1.1 0 0 0 0-.14.09.09 0 0 0-.13 0l-2.29 2.13a.1.1 0 0 0 0 .13z"/><path d="M118.38 141.32l2.08-.47a.09.09 0 0 0 .07-.11.1.1 0 0 0-.11-.07l-2.08.47a.1.1 0 0 0-.07.12.09.09 0 0 0 .11.06z"/><path d="M118.38 141.32a.09.09 0 0 0 .11-.06.09.09 0 0 0-.06-.12l-1-.33a.1.1 0 0 0-.12.06.09.09 0 0 0 .06.12l1 .33z"/><path d="M113.35 141h4.08a.09.09 0 1 0 0-.19h-4.06a.09.09 0 0 0-.09.09.1.1 0 0 0 .07.1z"/><path d="M110.88 143.3a.1.1 0 0 0 .09 0l2.47-2.31a.1.1 0 0 0 0-.13.1.1 0 0 0-.13 0l-2.47 2.3a.09.09 0 0 0 0 .13l.04.01z"/><path d="M110.88 143.3a.09.09 0 0 0 .07-.17l-3.88-1.68a.09.09 0 0 0-.12.05.09.09 0 0 0 0 .12l3.88 1.68z"/><path d="M104.2 143.43a.1.1 0 0 0 .08 0l2.8-1.8a.09.09 0 0 0 0-.13.09.09 0 0 0-.13 0l-2.81 1.8a.09.09 0 0 0 0 .13z"/><path d="M100.92 143.28l3.29.15a.09.09 0 0 0 .09-.09.09.09 0 0 0-.09-.1l-3.28-.15a.1.1 0 0 0-.1.09.1.1 0 0 0 .09.1z"/><path d="M100.92 143.28a.09.09 0 0 0 .1 0 .09.09 0 0 0 0-.13l-3.49-2.5a.09.09 0 0 0-.13 0 .09.09 0 0 0 0 .13l3.49 2.51z"/><path d="M94.68 142.9a.1.1 0 0 0 .08 0l2.74-2.12a.09.09 0 0 0-.11-.15l-2.74 2.12a.09.09 0 0 0 0 .13zm34.32-6.57h.05a.09.09 0 0 0 .07-.11l-3.75-16.75a.1.1 0 0 0-.11-.07.1.1 0 0 0-.08.11l3.82 16.75a.09.09 0 0 0 0 .07zm7 .67a.1.1 0 0 0 .07-.12l-5.63-17.93a.09.09 0 0 0-.12-.06.09.09 0 0 0-.06.12l5.63 17.93a.09.09 0 0 0 .11.06z"/><path d="M136 137a.09.09 0 0 0 .07-.11l-4.33-18.1a.09.09 0 0 0-.11-.07.09.09 0 0 0-.07.11l4.32 18.1a.12.12 0 0 0 .12.07zm4-9a.09.09 0 0 0 .09-.1l-1.58-17.54a.09.09 0 0 0-.1-.08.09.09 0 0 0-.08.1l1.62 17.62a.09.09 0 0 0 .05 0zm-23.2-25.47a.19.19 0 0 0 .13 0l11.75-5.35a.19.19 0 1 0-.15-.34l-11.75 5.35a.19.19 0 0 0 0 .35z"/><path d="M98.4 98.46l18.4 4.07a.19.19 0 1 0 .08-.37L98.49 98.1a.19.19 0 0 0-.22.14.19.19 0 0 0 .13.22z"/><path d="M83.76 97.7l14.64.76a.18.18 0 0 0 .19-.18.18.18 0 0 0-.18-.2l-14.64-.76a.18.18 0 0 0-.2.18.19.19 0 0 0 .19.2z"/><path d="M63.73 100.85h.08l20-3.15a.19.19 0 0 0 .15-.22.19.19 0 0 0-.21-.16l-20 3.15a.18.18 0 0 0-.15.21.18.18 0 0 0 .13.17z"/><path d="M63.76 100.76a.09.09 0 0 0 .08 0l5.32-4.16a.09.09 0 0 0 0-.13.1.1 0 0 0-.13 0l-5.31 4.17a.09.09 0 0 0 0 .13z"/><path d="M69.06 96.68h.09l20.25-4.14a.19.19 0 0 0 .14-.22.19.19 0 0 0-.22-.15l-20.26 4.15a.19.19 0 0 0 0 .36z"/><path d="M89.34 92.4l30.94-7.74v-.06h-.05l-30.88 7.71v.06z"/><path d="M93.36 89.94l26.9-5.24a.1.1 0 0 0 .07-.11.09.09 0 0 0-.11-.07l-26.9 5.24a.09.09 0 0 0-.07.11.09.09 0 0 0 .11.07z"/><path d="M67.59 94.41l25.77-4.47a.09.09 0 0 0 .08-.11.09.09 0 0 0-.11-.08l-25.72 4.48a.09.09 0 0 0-.08.11.08.08 0 0 0 .06.07z"/><path d="M43.41 106l24.23-11.64v-.06h-.06l-24.17 11.64a.05.05 0 0 0 0 .06z"/><path d="M43.87 106a.15.15 0 0 0 .1 0l21.67-9.51a.14.14 0 0 0-.11-.26l-21.67 9.5a.14.14 0 0 0 0 .26z"/><path d="M12.25 115.53h.08L44 106a.14.14 0 0 0 .09-.18.14.14 0 0 0-.17-.09l-31.62 9.56a.14.14 0 0 0-.09.18.13.13 0 0 0 .04.06z"/><path d="M16 116.59v-.09l-3.72-1.14h-.06v.06l3.78 1.17zm0 0l29.63-6.5v-.06h-.05L16 116.5v.09z"/><path d="M47 111.5v-.07L45.68 110h-.06v.07l1.33 1.42zm0 0l8.13-2.69v-.06h-.05L47 111.41v.09z"/><path d="M45.63 110.08l18.14-9.37v-.08L45.62 110a.05.05 0 0 0 0 .06zm84.7 8.92h1.29-1.29zm-84.04 17.8a.1.1 0 0 0 .1 0l13.52-16.12a.1.1 0 0 0 0-.13.1.1 0 0 0-.14 0l-13.52 16.1a.1.1 0 0 0 0 .13z"/><path d="M23 159.54a.1.1 0 0 0 .1 0l23.32-22.73a.11.11 0 0 0 0-.13.09.09 0 0 0-.14 0l-23.34 22.7a.1.1 0 0 0 0 .13z"/><path d="M23 159.54a.1.1 0 0 0 .11 0L35 139.84a.1.1 0 0 0 0-.13.09.09 0 0 0-.13 0L22.92 159.4a.09.09 0 0 0 0 .13z"/><path d="M34.89 139.88a.09.09 0 0 0 .08 0l11.37-8.37a.09.09 0 0 0 0-.13.09.09 0 0 0-.13 0l-11.37 8.37a.09.09 0 0 0 0 .13.08.08 0 0 0 .05 0z"/><path d="M46.27 131.47a.05.05 0 0 0 .06 0L54.75 118v-.06h-.06l-8.44 13.46v.07zM44 137.19a.1.1 0 0 0 .1 0L58.41 118a.09.09 0 0 0 0-.13.09.09 0 0 0-.13 0l-14.33 19.18a.09.09 0 0 0 0 .13z"/><path d="M23 159.54a.09.09 0 0 0 .1 0l21-22.34a.09.09 0 0 0 0-.13.09.09 0 0 0-.13 0l-21 22.34a.09.09 0 0 0 0 .13zm68.34-14.37a.12.12 0 0 0 .08 0l3.34-2.28a.09.09 0 0 0 0-.13.09.09 0 0 0-.13 0L91.32 145a.1.1 0 0 0 0 .13z"/><path d="M89.41 144.6l1.94.57a.09.09 0 0 0 .11-.07.09.09 0 0 0-.06-.11l-1.93-.58a.1.1 0 0 0-.12.06.09.09 0 0 0 .06.13z"/><path d="M85.65 147.32a.09.09 0 0 0 .08 0l3.76-2.73a.09.09 0 0 0-.11-.15l-3.76 2.73a.09.09 0 0 0 0 .13z"/><path d="M85.65 147.32a.08.08 0 0 0 .11 0 .09.09 0 0 0 0-.13L83.63 146a.09.09 0 0 0-.09.16l2.09 1.19z"/><path d="M80.23 148.26a.09.09 0 0 0 .07 0l3.34-2.13a.09.09 0 0 0-.1-.15l-3.34 2.13a.09.09 0 0 0 0 .13.08.08 0 0 0 .03.02z"/><path d="M80.23 148.26a.09.09 0 0 0 .1 0 .09.09 0 0 0 0-.13l-2.39-1.21a.1.1 0 0 0-.12 0 .09.09 0 0 0 0 .13l2.38 1.21z"/><path d="M73.87 149.85a.1.1 0 0 0 .08 0l4-2.8a.1.1 0 0 0 0-.13.09.09 0 0 0-.13 0l-4 2.8a.09.09 0 0 0 0 .13.07.07 0 0 0 .05 0z"/><path d="M73.87 149.85a.09.09 0 0 0 .11 0 .09.09 0 0 0 0-.12l-2.42-1.39a.09.09 0 0 0-.13 0 .1.1 0 0 0 0 .13l2.41 1.39z"/><path d="M68 149.72h.06l3.45-1.26a.09.09 0 0 0 .06-.12.1.1 0 0 0-.12-.06L68 149.55a.09.09 0 0 0-.05.12.09.09 0 0 0 .05.05z"/><path d="M68 149.72a.1.1 0 0 0 .1 0 .09.09 0 0 0 0-.13l-2.83-2.44a.1.1 0 0 0-.13 0 .09.09 0 0 0 0 .13l2.86 2.43z"/><path d="M62.21 148.62h.07l3-1.33a.1.1 0 0 0 0-.12.09.09 0 0 0-.12 0l-3 1.33a.09.09 0 0 0 0 .12.08.08 0 0 0 .05 0z"/><path d="M62.21 148.62a.1.1 0 0 0 .1 0 .09.09 0 0 0 0-.13l-2.8-2.25a.09.09 0 0 0-.13 0 .09.09 0 0 0 0 .13l2.81 2.25z"/><path d="M55 151.12a.1.1 0 0 0 .1 0l4.46-4.75a.1.1 0 0 0 0-.13.09.09 0 0 0-.13 0L54.92 151a.1.1 0 0 0 0 .13z"/><path d="M51.82 151.28l3.13-.16a.09.09 0 0 0 .09-.1.09.09 0 0 0-.1-.09l-3.14.16a.09.09 0 0 0-.09.1.09.09 0 0 0 .11.09z"/><path d="M51.82 151.28a.1.1 0 0 0 .11 0L69.33 121a.09.09 0 0 0 0-.12.09.09 0 0 0-.13 0l-17.4 30.27a.09.09 0 0 0 0 .13z"/><path d="M46.34 152.16h.06l6.4-2.48a.1.1 0 0 0 .06-.12.09.09 0 0 0-.12-.05L46.33 152a.09.09 0 0 0-.05.12.09.09 0 0 0 .06.04z"/><path d="M46.34 152.16a.09.09 0 0 0 .07 0 .1.1 0 0 0 0-.13l-1-1.83a.09.09 0 0 0-.12 0 .1.1 0 0 0 0 .13l1 1.84z"/><path d="M45.32 150.32a.09.09 0 0 0 .1 0l21.63-30.84a.1.1 0 0 0 0-.13.1.1 0 0 0-.14 0l-21.64 30.83a.09.09 0 0 0 0 .13z"/><path d="M39.19 153.65a.09.09 0 0 0 .08 0l6.13-3.33a.09.09 0 0 0-.08-.17l-6.14 3.33a.1.1 0 0 0 0 .13z"/><path d="M39.19 153.65a.1.1 0 0 0 .08 0 .1.1 0 0 0 0-.13l-1.16-1.85a.1.1 0 0 0-.13 0 .1.1 0 0 0 0 .13l1.16 1.85z"/><path d="M38 151.8a.1.1 0 0 0 .1 0l25.56-31.13a.1.1 0 0 0 0-.13.09.09 0 0 0-.13 0L38 151.65a.1.1 0 0 0 0 .13z"/><path d="M31.14 155.84a.09.09 0 0 0 .07 0l6.88-4a.09.09 0 0 0 0-.13.09.09 0 0 0-.13 0l-6.88 4a.09.09 0 0 0 0 .13.07.07 0 0 0 .06 0z"/><path d="M31.14 155.84a.09.09 0 0 0 .11-.07l1.21-5.45a.09.09 0 0 0-.07-.11.09.09 0 0 0-.11.07l-1.22 5.45a.09.09 0 0 0 .08.11zm-18.31 1.97a.09.09 0 0 0 .08 0L35 139.87a.09.09 0 0 0-.12-.15l-22.09 17.93a.09.09 0 0 0 0 .13.07.07 0 0 0 .04.03z"/><path d="M12.83 157.81a.09.09 0 0 0 .1 0l8.12-12.9a.09.09 0 0 0 0-.13.1.1 0 0 0-.13 0l-8.12 12.9a.09.09 0 0 0 0 .13z"/><path d="M21 144.91a.09.09 0 0 0 .09 0l14.2-13.25a.1.1 0 0 0 0-.13.09.09 0 0 0-.13 0l-14.25 13.22a.11.11 0 0 0 0 .13z"/><path d="M35.16 131.61l2.54.29h.05l-2.54-.29h-.05z"/><path d="M37.71 131.9l10.69-7.31v-.07h-.06l-10.68 7.31a.05.05 0 0 0 0 .07z"/><path d="M48.39 124.59h.06l1.3-5.2v-.06h-.06l-1.3 5.21v.05z"/><path d="M49.7 119.38l5-1.38a.05.05 0 0 0 0-.06h-.06l-5 1.39v.06l.06-.01z"/><path d="M36.83 125.85l12.87-6.47v-.08l-12.86 6.47a.05.05 0 0 0 0 .06z"/><path d="M36.83 125.85l7.3-7.93v-.07h-.07l-7.3 7.93a.05.05 0 0 0 0 .07z"/><path d="M44.13 117.92l7.54-4.23a.05.05 0 0 0 0-.07.05.05 0 0 0-.07 0l-7.53 4.23a.05.05 0 0 0 0 .06zm-6.58-.3l6.58.3-6.58-.3zM.28 139.41a.09.09 0 0 0 .07 0l37.26-21.74a.09.09 0 0 0 0-.13.09.09 0 0 0-.13 0L.26 139.24a.09.09 0 0 0 0 .13z"/><path d="M.28 139.41l11.51-1.92a.09.09 0 0 0 .07-.11.09.09 0 0 0-.1-.08L.29 139.23a.1.1 0 0 0-.08.11.1.1 0 0 0 .07.07z"/><path d="M11.79 137.49a.09.09 0 0 0 .07 0l25-11.59a.1.1 0 1 0-.08-.17l-25 11.59a.09.09 0 0 0 0 .12.08.08 0 0 0 .01.05z"/><path d="M7.78 148.65a.09.09 0 0 0 .09 0l19.8-18.47a.09.09 0 1 0-.13-.14L7.75 148.49a.09.09 0 0 0 0 .13z"/><path d="M7.78 148.65a.09.09 0 0 0 .07 0l11.51-6.12a.09.09 0 1 0-.09-.16l-11.5 6.11a.09.09 0 0 0 0 .13.11.11 0 0 0 .01.04z"/><path d="M19.29 142.53a.1.1 0 0 0 .08 0l13.23-9.86a.1.1 0 0 0 0-.13.1.1 0 0 0-.13 0l-13.23 9.86a.1.1 0 0 0 0 .13z"/><path d="M32.53 132.63l2.64-1a.05.05 0 0 0 0-.06h-.06l-2.63 1v.06h.05zM.84 127.16h.08l44.77-17a.14.14 0 0 0 .08-.18.14.14 0 0 0-.18-.08l-44.76 17a.14.14 0 0 0-.08.18.14.14 0 0 0 .09.08z"/><path d="M.86 127.07l9.46.69v-.09L.88 127a.06.06 0 0 0-.05 0l.03.07z"/><path d="M10.33 127.76l27.22-10.14v-.06h-.06l-27.17 10.11v.06l.01.03zm49.08 18.6a.09.09 0 0 0 .11 0l13.69-26.6a.09.09 0 0 0-.16-.08l-13.69 26.6a.09.09 0 0 0 0 .13zm5.76.93a.09.09 0 0 0 .11-.05l13-30a.1.1 0 0 0-.05-.12.09.09 0 0 0-.12 0l-13 30a.09.09 0 0 0 .05.12zm6.28 1.18a.1.1 0 0 0 .12-.06L82.07 117a.1.1 0 0 0-.06-.12.1.1 0 0 0-.12.06l-10.5 31.36a.1.1 0 0 0 .06.12zm6.39-1.41A.09.09 0 0 0 78 147l7.63-27.17a.09.09 0 0 0-.06-.12.1.1 0 0 0-.12.07l-7.63 27.17a.09.09 0 0 0 .02.11zm5.72-.93a.09.09 0 0 0 .11-.07l5.2-27.14a.09.09 0 0 0-.07-.11.09.09 0 0 0-.11.07L83.49 146a.09.09 0 0 0 .07.13zm5.85-1.53a.09.09 0 0 0 .1-.08l3.2-24.33a.09.09 0 0 0-.08-.11.1.1 0 0 0-.11.08l-3.18 24.34a.09.09 0 0 0 .07.1zM55.1 108.81l8.67-8.1v-.07h-.06l-8.68 8.1v.07zm70.21 10.73l5-.56v-.05a.05.05 0 0 0-.06 0l-5 .56a.05.05 0 0 0 0 .05s.04-.01.06 0z"/><path d="M120.3 118.75l5 .79h.05v-.05l-5-.79h-.05v.05z"/><path d="M115.68 119.27l4.62-.52v-.09l-4.62.52a.06.06 0 0 0 0 .05v.04z"/><path d="M110.55 119l5.13.31a.06.06 0 0 0 0-.05l-5.13-.32a.05.05 0 0 0 0 .06zm-5.18-.12l5.18.08-5.18-.08zm-3.3.36l3.29-.37v-.05l-3.3.36a.05.05 0 0 0 0 .05s-.06.01.01.01z"/><path d="M97.48 118.53l4.58.71h.05v-.05l-4.58-.71h-.05v.05z"/><path d="M92.62 120.22l4.86-1.69a.05.05 0 0 0 0-.06.05.05 0 0 0-.06 0l-4.86 1.69v.06h.06z"/><path d="M92.62 120.22h.06v-.06l-3.86-1.28h-.06v.06l3.85 1.28z"/><path d="M85.48 119.84l3.29-.9a.06.06 0 0 0 0-.06.05.05 0 0 0-.06 0l-3.29.9v.06h.06z"/><path d="M85.48 119.84v-.06L82 117l-.06.08 3.5 2.78z"/><path d="M78.2 117.22l3.77-.16v-.09l-3.77.16a.05.05 0 0 0 0 .09z"/><path d="M73.12 119.72l5.08-2.51v-.06a.05.05 0 0 0-.07 0l-5.08 2.5a.05.05 0 0 0 0 .06z"/><path d="M69.23 121l3.88-1.24v-.06a.06.06 0 0 0-.07 0l-3.88 1.24v.06h.07z"/><path d="M69.23 121h.05v-.07L67 119.35h-.06v.07l2.28 1.58z"/><path d="M63.59 120.62l3.41-1.18v-.06h-.06l-3.38 1.19v.06z"/><path d="M59.83 120.64h3.78v-.1h-3.77l-.01.1zm0 0v-.06l-1.5-2.66h-.06v.06l1.5 2.66z"/><path d="M54.7 118h3.63v-.09H54.7a.05.05 0 0 0 0 .09z"/><path d="M54.7 118h.05v-.07L52 115.87a.05.05 0 0 0-.07 0 .05.05 0 0 0 0 .07l2.75 2z"/><path d="M52 115.95l1.52-2.13v-.07a.05.05 0 0 0-.06 0l-1.51 2.13a.05.05 0 0 0 0 .07z"/><path d="M51.67 113.69l1.8.13a.05.05 0 0 0 .05 0 .06.06 0 0 0 0-.05l-1.8-.13h-.05v.05z"/><path d="M51.67 113.69h.05l3.43-4.88v-.07a.05.05 0 0 0-.07 0l-3.42 4.88v.06z"/><path d="M51.67 113.69l9.2-6.05v-.07h-.06l-9.19 6.06v.06zm3.13-4.6l7-3.93v-.06h-.06l-7 3.93a.05.05 0 0 0 0 .06zm-2.8 6.86l9.41-6.12v-.06h-.06l-9.41 6.12a.05.05 0 0 0 0 .06zm1.47-2.13l7.61-5.05v-.07a.05.05 0 0 0-.06 0l-7.61 5.05a.05.05 0 0 0 0 .07zM54.7 118l7.34-6.84a.05.05 0 0 0 0-.07h-.07l-7.34 6.85v.07zm3.62 0a.05.05 0 0 0 .05 0l5.85-6.79v-.07h-.07l-5.85 6.76a.05.05 0 0 0 0 .07zm5.27 2.62h.05l5.2-9.51a.05.05 0 0 0 0-.07h-.06l-5.2 9.51v.06zm3.41-1.18h.05l3.92-7.95v-.06h-.07l-3.93 8a.05.05 0 0 0 0 .06zm-7.17 1.2h.05l6.62-9.26v-.07h-.07l-6.62 9.26v.07zm13.29-.92h.05l5.26-11.91v-.06h-.06l-5.26 11.91v.06zM69.23 121h.05l4.83-10.29v-.06h-.06L69.2 120.9v.06zm8.97-3.78h.06l2.13-9.5a.05.05 0 0 0 0-.06h-.05l-2.13 9.5-.01.06z"/><path d="M61.76 105.21a.09.09 0 0 0 .11 0l2-4.46a.09.09 0 0 0 0-.12.09.09 0 0 0-.12 0l-2 4.45a.1.1 0 0 0 0 .12z"/><path d="M60.84 107.68a.1.1 0 0 0 .12-.06l.91-2.47a.09.09 0 0 0-.05-.12.09.09 0 0 0-.12.06l-.92 2.47a.09.09 0 0 0 .06.12z"/><path d="M61.06 108.81a.09.09 0 0 0 .07-.11l-.13-1.12a.1.1 0 0 0-.11-.07.1.1 0 0 0-.07.11l.22 1.13a.09.09 0 0 0 .02.06z"/><path d="M61.35 109.87h.05a.09.09 0 0 0 .06-.12l-.29-1.06a.1.1 0 0 0-.12-.06.1.1 0 0 0-.07.11l.29 1.06a.09.09 0 0 0 .08.07z"/><path d="M62 111.2h.07a.09.09 0 0 0 0-.13l-.68-1.32a.09.09 0 0 0-.13 0 .09.09 0 0 0 0 .13l.68 1.33a.1.1 0 0 0 .06-.01z"/><path d="M62 111.2h2.13a.09.09 0 1 0 0-.19H62a.09.09 0 0 0 0 .18z"/><path d="M64.16 111.24l2.28.19a.09.09 0 0 0 .1-.09.09.09 0 0 0-.08-.1l-2.28-.19a.09.09 0 0 0-.1.08.09.09 0 0 0 .08.11z"/><path d="M66.43 111.43l2.35-.26a.09.09 0 0 0 .08-.1.1.1 0 0 0-.1-.08l-2.34.27a.09.09 0 0 0-.09.1.1.1 0 0 0 .1.07z"/><path d="M68.78 111.16l2.1.37a.09.09 0 0 0 .11-.07.1.1 0 0 0-.08-.11l-2.1-.37a.1.1 0 0 0-.11.08.09.09 0 0 0 .08.1zm5.22-.44a.09.09 0 0 0 .08 0l4.33-2.87a.1.1 0 0 0 0-.13.09.09 0 0 0-.13 0L74 110.56a.09.09 0 0 0 0 .13z"/><path d="M70.88 111.53l3.17-.81a.09.09 0 0 0 .07-.12.09.09 0 0 0-.11-.07l-3.17.81a.1.1 0 0 0-.07.11.09.09 0 0 0 .11.08zm7.49-3.67l1.95-.09a.09.09 0 0 0 .09-.1.09.09 0 0 0-.1-.09l-1.95.09a.09.09 0 0 0-.09.1.09.09 0 0 0 .1.09z"/><path d="M82.34 109.26a.1.1 0 0 0 .11 0 .1.1 0 0 0 0-.13l-2-1.5a.1.1 0 0 0-.13 0 .1.1 0 0 0 0 .13l2 1.5z"/><path d="M82.34 109.26h.05l4-1.09a.09.09 0 0 0 .07-.11.09.09 0 0 0-.12-.07l-4 1.09a.09.09 0 0 0-.06.11.08.08 0 0 0 .06.07z"/><path d="M87.74 109.55a.09.09 0 0 0 .09 0 .09.09 0 0 0 0-.13L86.46 108a.1.1 0 0 0-.14 0 .1.1 0 0 0 0 .13l1.38 1.38z"/><path d="M87.74 109.55a.08.08 0 0 0 .08 0l2.74-2.07a.09.09 0 0 0 0-.13.09.09 0 0 0-.13 0l-2.74 2.07a.1.1 0 0 0 0 .13z"/><path d="M92.52 109.07a.1.1 0 0 0 .11 0 .1.1 0 0 0 0-.13l-2-1.59a.09.09 0 0 0-.13 0 .09.09 0 0 0 0 .13l2 1.59z"/><path d="M92.52 109.07a.09.09 0 0 0 .07 0l3-1.59a.1.1 0 0 0 0-.13.09.09 0 0 0-.12 0l-3 1.59a.09.09 0 0 0 0 .12.15.15 0 0 0 .05.01z"/><path d="M98.11 110.26a.09.09 0 0 0 .09-.16l-2.59-2.78a.09.09 0 0 0-.13 0 .1.1 0 0 0 0 .13l2.59 2.78z"/><path d="M98.11 110.26h.06l3-1.36a.1.1 0 0 0 0-.12.09.09 0 0 0-.12 0l-3 1.36a.1.1 0 0 0 0 .12.08.08 0 0 0 .06 0z"/><path d="M102.92 110.64a.09.09 0 0 0 .09 0 .1.1 0 0 0 0-.13l-1.81-1.75a.09.09 0 0 0-.13 0 .09.09 0 0 0 0 .13l1.8 1.75z"/><path d="M102.92 110.64a.09.09 0 0 0 .07 0l3.27-1.63a.09.09 0 0 0 0-.12.09.09 0 0 0-.12 0l-3.28 1.63a.1.1 0 0 0 0 .12.09.09 0 0 0 .06 0z"/><path d="M106.19 109l4.4.37a.09.09 0 0 0 0-.19l-4.4-.36a.1.1 0 0 0-.1.09.09.09 0 0 0 .1.09z"/><path d="M110.59 109.38a.08.08 0 0 0 .08 0l2.37-1.82a.1.1 0 0 0 0-.13.1.1 0 0 0-.14 0l-2.36 1.82a.09.09 0 0 0 0 .13z"/><path d="M112.95 107.56l4 .67a.09.09 0 0 0 0-.18l-4-.67a.09.09 0 0 0-.11.08.1.1 0 0 0 .11.1z"/><path d="M116.94 108.23a.1.1 0 0 0 .1 0l1.23-1.53a.09.09 0 0 0 0-.13.1.1 0 0 0-.13 0l-1.23 1.53a.09.09 0 0 0 0 .13z"/><path d="M123.81 109.59a.09.09 0 0 0 .07-.17l-5.64-2.89a.09.09 0 0 0-.12 0 .09.09 0 0 0 0 .13l5.64 2.89z"/><path d="M125.71 114.78h.06a.1.1 0 0 0 .06-.12l-1.9-5.19a.09.09 0 0 0-.12-.06.1.1 0 0 0-.06.12l1.91 5.19a.08.08 0 0 0 .05.06z"/><path d="M131.61 119v-.07l-5.88-4.24a.05.05 0 0 0-.07 0v.07l5.88 4.25zM82 117.06l.38-7.84a.05.05 0 0 0 0-.05l-.44 7.83.06.06zm3.48 2.78a.05.05 0 0 0 .05 0l.9-11.72h-.09l-.9 11.71.04.01zm3.29-.9a.05.05 0 0 0 0-.05l-1-9.44h-.09l1 9.44.09.05zm3.85 1.28v-.06l-2.13-12.79h-.05v.05l2.13 12.79a.05.05 0 0 0 .05.01z"/><path d="M92.62 120.22L92.59 109l.08 11.19-.05.03zm4.86-1.69v-.05l-2-11.09h-.09l2 11.1.09.04zm0 0l.64-8.32v-.05l-.64 8.32v.05zm4.59.71v-.05l-.94-10.39h-.06v.05l.93 10.35.07.04z"/><path d="M102.07 119.24h.05l.86-8.64a.05.05 0 0 0 0-.05l-.87 8.64a.05.05 0 0 0-.04.05zm3.3-.36l.83-9.91v-.05h-.05l-.84 9.91s.04.04.06.05z"/><path d="M105.37 118.88h.05l5.24-9.54v-.06a.05.05 0 0 0-.07 0l-5.23 9.54v.06z"/><path d="M110.55 119l.05-9.62h-.05l-.06 9.62h.06zm5.13.27h.05l1.27-11.12a.05.05 0 0 0 0-.05h-.05l-1.28 11.09.01.08z"/><path d="M115.68 119.27v-.06L113 107.46h-.09l2.71 11.76.06.05zm4.62-.52v-.06l-2.11-12.1a.05.05 0 0 0-.06 0 .05.05 0 0 0 0 .05l2.12 12.1.05.01z"/><path d="M120.3 118.75h.06l3.52-9.2v-.06h-.06l-3.52 9.2a.05.05 0 0 0 0 .06zm5.01.79l.42-4.8h-.09l-.42 4.8a.06.06 0 0 0 .09 0z"/><path d="M130.33 119a.05.05 0 0 0 0-.07l-4.61-4.24h-.07v.07l4.61 4.24zm-56.28-8.32a.05.05 0 0 0 .05 0l9.75-13.11v-.07a.05.05 0 0 0-.07 0L74 110.61a.05.05 0 0 0 0 .07zm16.44-3.25v-.05l-.42-9.54a.05.05 0 0 0-.05 0l.43 9.54a.06.06 0 0 0 .04.05zm-4.12.7h.05l2.1-10.31v-.05h-.06l-2.1 10.32.01.04zm-6.04-.41h.05l6-10v-.06h-.07l-6 10v.06zm-11.53 3.4l13.1-13.25v-.07h-.06L68.77 111v.07zm-7.03-5.95l16.85-6.78v-.06h-.06l-16.85 6.79a.05.05 0 0 0 0 .06zm.23 5.99L80.43 98.1l-.06-.08L62 111.07v.07zm33.53-3.72a.05.05 0 0 0 0-.06l-3-9.41h-.06v.06l3 9.41a.05.05 0 0 0 .06 0zm22.66-.79v-.06l-1.34-4.25a.06.06 0 0 0-.07 0v.06l1.34 4.25h.07zm-5.19.86l-.24-6 .24 6zm-2.4 1.82a.05.05 0 0 0 0-.05l-.85-8.56h-.05l.85 8.56.05.05zm-4.4-.33l-.07-8.93a.05.05 0 0 0-.05 0l.07 8.93h.05zm-5.08-.15h.06l1.21-9.67v-.05a.05.05 0 0 0-.05 0l-1.21 9.67-.01.05zm1.81 1.75l.44-11.18-.44 11.18zm-4.8-.38l.32-11.88a.05.05 0 0 0 0-.05.06.06 0 0 0-.05 0l-.32 11.88a.05.05 0 0 0 .05.05zm-2.6-2.78l-.06-9.26.06 9.26zm21.47.75l-.11-5.79.11 5.79z"/><path d="M106.2 109h.05l3.55-8.2a.05.05 0 0 0 0-.06h-.06l-3.55 8.2v.06zm-13.67 0V98h-.05v11h.05zm-10.18.22h.06l3.94-11.52h-.09l-3.94 11.52v.06zm5.4.28a.06.06 0 0 0 .06 0l2.31-11.62v-.06h-.05l-2.31 11.61-.01.07zm-16.86 1.99l12.96-13.94a.05.05 0 0 0 0-.07h-.07l-12.91 13.93v.07z"/><path d="M78.38 107.81h.05l5.43-10.24a.05.05 0 0 0 0-.06.05.05 0 0 0-.07 0l-5.43 10.24v.06zm-14.2 3.38l17.71-13.32v-.07a.06.06 0 0 0-.07 0l-17.66 13.31a.06.06 0 0 0 0 .07zm-3.32-3.55l18.7-9.22v-.06h-.06l-18.71 9.21a.05.05 0 0 0 0 .06zm62.95 1.95a.09.09 0 0 0 .11-.06L128.7 97a.09.09 0 0 0-.06-.12.09.09 0 0 0-.12.05l-4.77 12.5a.09.09 0 0 0 .06.12zm1.92 5.15h.05l6.08-12.95v-.06a.05.05 0 0 0-.06 0l-6.08 13v.06z"/><path d="M125.73 114.74a.06.06 0 0 0 .05 0l1.16-20.41h-.09l-1.16 20.41a.05.05 0 0 0 .04 0zm-1.91-5.19v-.06l-4.54-8.27a.05.05 0 0 0-.07 0v.07l4.54 8.27z"/><path d="M123.82 109.55a.05.05 0 0 0 0-.05l-1-13.45h-.05l1 13.46.05.04zm-3.6-1.85v-.05l-.93-6.42h-.05v.05l.93 6.42a.06.06 0 0 0 .05 0zm5.51 7.04a.05.05 0 0 0 .06 0l2.76-18a.05.05 0 0 0 0-.05h-.05l-2.76 18-.01.05z"/><path d="M131.61 119v-.06L122.89 96h-.06v.06l8.75 22.94z"/><path d="M131.61 119h.05l4.23-11.22v-.06h-.06l-4.23 11.22v.06z"/><path d="M140 128a.1.1 0 0 0 .09 0 .1.1 0 0 0 0-.13l-8.41-9a.09.09 0 0 0-.13 0 .1.1 0 0 0 0 .13l8.42 9z"/><path d="M136.5 129.57a.09.09 0 0 0 .1-.08l1.93-19.07a.09.09 0 0 0-.08-.1.09.09 0 0 0-.1.08l-1.93 19.07a.09.09 0 0 0 .08.1zM89.34 92.4l34-3.16h-.05l-33.94 3.07-.01.09zm-20.2 6.79l17.89-5.62v-.06h-.05L69.14 99.1v.06z"/><path d="M87 93.57l2.31-1.17v-.06h-.06L87 93.48v.09z"/><path d="M87 93.57l37.42-2.64h-.05L87 93.48v.09z"/><path d="M87.57 93.65h.05l39.27.81a.19.19 0 0 0 .19-.18.19.19 0 0 0-.19-.19l-39.27-.81a.19.19 0 0 0-.06.37z"/><path d="M79.16 98a.2.2 0 0 0 .14 0l8.42-4.32a.18.18 0 0 0 .08-.25.19.19 0 0 0-.25-.08l-8.42 4.32a.18.18 0 0 0-.08.25.18.18 0 0 0 .11.08z"/><path d="M69.13 99.23l10.05-1.35a.09.09 0 0 0 .08-.1.09.09 0 0 0-.11-.08L69.14 99a.1.1 0 0 0-.08.1.09.09 0 0 0 .07.13z"/><path d="M63.76 100.76h.05l5.36-1.53a.1.1 0 0 0 .07-.12.1.1 0 0 0-.12-.06l-5.37 1.53a.09.09 0 0 0-.07.11.12.12 0 0 0 .08.07zm15.42-2.88h2.65a.09.09 0 0 0 .09-.09.09.09 0 0 0-.09-.09h-2.65a.09.09 0 0 0-.09.09.1.1 0 0 0 .09.09zm4.62-.31L128.09 96l-44.28 1.48a.06.06 0 0 0-.01.09z"/><path d="M95.45 98.22L126 93a.09.09 0 0 0 .08-.11.1.1 0 0 0-.11-.08L95.46 98a.1.1 0 0 0-.08.1.11.11 0 0 0 .07.12zm10.64 1.95l13.15 1.24a.19.19 0 0 0 .2-.17.19.19 0 0 0-.17-.2l-13.15-1.24a.19.19 0 0 0-.2.17.2.2 0 0 0 .17.2z"/><path d="M90 97.94l38.53-.85a.09.09 0 1 0 0-.19l-38.54.85a.09.09 0 0 0-.09.1.09.09 0 0 0 .1.09zm-7.37-1.75h.07l43.3-3.07a.19.19 0 1 0 0-.37l-43.33 3.07a.18.18 0 0 0-.17.2.19.19 0 0 0 .13.17zm-17.07.24l3.52.16a.1.1 0 0 0 .1-.09.1.1 0 0 0-.09-.1l-3.52-.16a.09.09 0 0 0-.09.09.09.09 0 0 0 .08.1zm23.78-4.03l32.11-6.53v-.06h-.06l-32.04 6.5v.05a.07.07 0 0 0-.01.04z"/><path d="M89.3 92.53h.08l33-4.59a.19.19 0 0 0 .16-.21.19.19 0 0 0-.21-.16l-33 4.59a.19.19 0 0 0-.16.21.19.19 0 0 0 .13.16z"/><path d="M87.45 95.67l22.35-8.34v-.06h-.06l-22.29 8.31a.05.05 0 0 0 0 .06s-.02.03 0 .03z"/><path d="M81.84 97.92h.06l5.6-2.2a.1.1 0 0 0-.07-.18l-5.6 2.21a.09.09 0 0 0 0 .12.1.1 0 0 0 .01.05zM136 137l2.85.2a.09.09 0 1 0 0-.19l-2.85-.2a.1.1 0 0 0-.1.09.1.1 0 0 0 .1.1zm.5-7.43h.06a.1.1 0 0 0 0-.13l-4.91-10.55a.09.09 0 0 0-.12 0 .09.09 0 0 0 0 .12l4.9 10.54a.09.09 0 0 0 .07.02zm9.94 2.38h.06a.09.09 0 0 0 .05-.12l-8-21.44a.09.09 0 0 0-.12-.06.1.1 0 0 0-.06.12l8 21.44a.07.07 0 0 0 .07.06zm-1.95 2.72a.1.1 0 0 0 .08 0 .09.09 0 0 0 0-.13l-4.48-6.62a.08.08 0 0 0-.13 0 .09.09 0 0 0 0 .13l4.48 6.63zm7.96-4.59h.06a.09.09 0 0 0 .05-.12L148 119.25a.09.09 0 0 0-.12 0 .09.09 0 0 0-.05.12L152.4 130a.09.09 0 0 0 .05.08z"/><path d="M156.5 129a.08.08 0 0 0 .08 0 .09.09 0 0 0 0-.13l-8.6-9.64a.09.09 0 0 0-.14.13l8.6 9.64zm-7.05 3.89h.07a.09.09 0 0 0 0-.13l-11-22.38a.1.1 0 0 0-.13 0 .09.09 0 0 0 0 .12l11 22.39a.1.1 0 0 0 .06 0z"/><path d="M138.41 110.6a.18.18 0 0 0 .23-.12.19.19 0 0 0-.11-.24l-21.6-8.06a.19.19 0 0 0-.13.35l21.61 8.06zM123 99.67l8.72 2.25a.19.19 0 1 0 .09-.36l-8.71-2.25a.19.19 0 0 0-.23.13.18.18 0 0 0 .13.23z"/><path d="M131.63 118.85a.09.09 0 0 0 .09-.09l.16-17a.09.09 0 0 0-.09-.09.09.09 0 0 0-.09.09l-.16 17a.1.1 0 0 0 .09.09zm45.96-11.09a.19.19 0 0 0 .22-.14l6.71-29.77a.19.19 0 1 0-.36-.08l-6.71 29.76a.19.19 0 0 0 .14.23z"/><circle cx="177.78" cy="107.59" r="1.38"/><circle cx="148.11" cy="119.28" r=".94"/><circle cx="138.72" cy="110.28" r=".83"/><circle cx="167.37" cy="126.55" r=".63"/><circle cx="203.07" cy="142.47" r="1.16"/><circle cx="191.44" cy="164" r=".86"/><circle cx="232.97" cy="142.62" r=".86"/><circle cx="197.02" cy="127.59" r=".99"/><circle cx="159.88" cy="86.01" r="1.54"/><circle cx="116.93" cy="102.56" r="1.14"/><circle cx="145.48" cy="104.65" r="1.29"/><path d="M159.93 99a1 1 0 1 0 1-1 1 1 0 0 0-1 1z"/><circle cx="200.96" cy="100.06" r=".97"/><circle cx="205.46" cy="78.89" r=".76"/><circle cx="192.93" cy="75.78" r="1.14"/><circle cx="179.09" cy="79.14" r="1.11"/><circle cx="172.27" cy="91.47" r="1.38"/><circle cx="196.55" cy="96.43" r=".85"/><circle cx="159.03" cy="71.88" r=".86"/><path d="M151.25 78.68a.91.91 0 1 0 .91-.91.91.91 0 0 0-.91.91z"/><circle cx="151.58" cy="97.71" r=".8"/><path d="M143.37 89.33a.76.76 0 1 0 .76-.76.76.76 0 0 0-.76.76z"/><circle cx="144.1" cy="71.64" r=".88"/><circle cx="125.35" cy="119.37" r=".7"/><circle cx="127.28" cy="139.39" r=".64"/><circle cx="118.76" cy="141.03" r=".38"/><circle cx="115.89" cy="119.48" r=".8"/><path d="M133.1 76.71a.39.39 0 1 0 .49-.24.39.39 0 0 0-.49.24z"/><circle cx="129.86" cy="67.45" r=".83"/><circle cx="131.6" cy="82.93" r=".45"/><ellipse cx="125.17" cy="87.81" rx=".5" ry=".51"/><circle cx="120.39" cy="84.25" r=".59"/><circle cx="125.08" cy="74.19" r=".39"/><circle cx="126.52" cy="66.26" r=".42"/><circle cx="143.63" cy="84.39" r=".46"/><circle cx="139.02" cy="70.28" r=".53"/><circle cx="129.12" cy="73.48" r=".52"/><circle cx="126.58" cy="78.42" r=".26"/><circle cx="124.59" cy="90.89" r=".18"/><circle cx="123.5" cy="89.18" r=".24"/><circle cx="122.59" cy="87.74" r=".35"/><circle cx="122.86" cy="96.2" r=".34"/><circle cx="174.95" cy="120.13" r="1.01"/><circle cx="182.58" cy="136.15" r=".45"/><circle cx="190.93" cy="126.02" r=".48"/><circle cx="228.05" cy="153.98" r=".56"/><path d="M211.39 164.51a.43.43 0 1 0 .43-.43.43.43 0 0 0-.43.43z"/><circle cx="203.19" cy="164.9" r=".47"/><circle cx="192.2" cy="149.29" r=".54"/><circle cx="203.54" cy="139.44" r=".41"/><circle cx="210.1" cy="128.09" r=".49"/><circle cx="241.18" cy="98.46" r=".63"/><circle cx="210.76" cy="112.26" r=".37"/><circle cx="224.59" cy="75.68" r=".56"/><circle cx="217.08" cy="64.1" r=".49"/><circle cx="290.4" cy="64.89" r=".47"/><circle cx="297.21" cy="41.06" r=".74"/><circle cx="239.29" cy="31.43" r=".88"/><circle cx="247.54" cy="35.04" r=".55"/><ellipse cx="262.19" cy="34.61" rx=".48" ry=".49"/><circle cx="276.49" cy="23.79" r=".52"/><circle cx="260.97" cy="20.04" r=".67"/><circle cx="262.69" cy="24.12" r=".59"/><path d="M289.64 34.1a.51.51 0 1 0 1 0 .51.51 0 1 0-1 0z"/><circle cx="295.72" cy="26.48" r=".74"/><circle cx="328.7" cy="25.88" r=".53"/><circle cx="296.53" cy=".5" r=".5"/><circle cx="316.32" cy="1.12" r=".62"/><path d="M211.77 44.81a.69.69 0 1 0 .69-.69.69.69 0 0 0-.69.69z"/><circle cx="218.72" cy="43.32" r=".52"/><path d="M186.34 65.67a.74.74 0 1 0 .74-.73.74.74 0 0 0-.74.73zm-5.13 4.17a.88.88 0 1 0 .87-.88.88.88 0 0 0-.87.88z"/><circle cx="251.46" cy="53.91" r=".97"/><circle cx="236.96" cy="61.12" r="1.02"/><circle cx="259.23" cy="45.45" r=".77"/><circle cx="272.92" cy="79.66" r=".65"/><path d="M259.19 88a1.18 1.18 0 1 0 1.18-1.17 1.17 1.17 0 0 0-1.18 1.17z"/><circle cx="230.07" cy="72.97" r="1.27"/><circle cx="213.65" cy="86.97" r=".96"/><circle cx="245.83" cy="42.83" r=".91"/><circle cx="144.47" cy="134.48" r=".93"/><circle cx="110.95" cy="143.35" r=".76"/><circle cx="85.36" cy="147.3" r="1.12"/><circle cx="55.17" cy="150.9" r="1"/><circle cx="92.66" cy="120.32" r="1.38"/><circle cx="105.76" cy="118.91" r="1.18"/><circle cx="95.18" cy="107.37" r="1.34"/><circle cx="131.62" cy="102.02" r=".93"/><circle cx="69.05" cy="96.69" r="1.16"/><circle cx="67.59" cy="94.39" r=".82"/><circle cx="97.34" cy="140.82" r=".93"/><circle cx="54.76" cy="118.05" r="1.13"/><circle cx="68.82" cy="111.16" r=".94"/><circle cx="80.16" cy="107.6" r=".95"/><circle cx="63.64" cy="100.88" r=".98"/><circle cx="45.44" cy="110.1" r="1.02"/><circle cx="43.81" cy="105.95" r=".99"/><circle cx="37.55" cy="117.56" r=".97"/><circle cx="46.78" cy="151.96" r=".76"/><circle cx="68.26" cy="149.54" r=".78"/><circle cx="81.96" cy="117.31" r=".98"/><path d="M85.46 97.75a.84.84 0 1 0 .84-.84.84.84 0 0 0-.84.84z"/><circle cx="79.31" cy="97.6" r=".78"/><circle cx="105.98" cy="100.24" r="1.15"/><circle cx="104.5" cy="143.41" r=".7"/><circle cx="35.43" cy="131.67" r="1.03"/><circle cx="12.56" cy="115.42" r="1.21"/><circle cx="52.61" cy="149.63" r=".56"/><circle cx="32.74" cy="132.57" r=".5"/><circle cx="20.9" cy="144.79" r=".42"/><circle cx=".95" cy="126.81" r=".96"/><circle cx="36.94" cy="125.71" r=".71"/><circle cx="65.66" cy="96.27" r=".54"/><circle cx="224.5" cy="106.11" r=".68"/><path d="M235.39 66.41a.73.73 0 1 0 .73-.73.73.73 0 0 0-.73.73zm-28.21 45.76a.66.66 0 1 0 .66-.65.66.66 0 0 0-.66.65z"/><circle cx="289.41" cy="67.94" r=".63"/><circle cx="304.97" cy="54.27" r=".91"/><circle cx="324.32" cy="48.33" r=".51"/><ellipse cx="327.42" cy="11.48" rx=".75" ry=".75"/><circle cx="252.32" cy="93.57" r=".81"/><circle cx="234.11" cy="99.96" r=".65"/><path d="M217.19 107.55a.6.6 0 0 0 1.19 0 .6.6 0 1 0-1.19 0z"/><circle cx="221.08" cy="79.92" r=".68"/><circle cx="277.4" cy="73.29" r=".67"/><circle cx="287.18" cy="46.53" r=".75"/><circle cx="122.55" cy="68.41" r=".3"/><circle cx="115.51" cy="66.8" r=".18"/><ellipse cx="123.46" cy="70.73" rx=".38" ry=".38"/><circle cx="121.85" cy="74" r=".26"/></g></svg>