<svg xmlns="http://www.w3.org/2000/svg" viewBox="0 0 396.62 175.63"><g data-name="Layer 1"><path d="M396.61 52.47v-.06l-4.5-3.8a.3.3 0 0 0-.34 0l-25.37-7.19a.22.22 0 0 0-.21.05l-25.5-4.87a.23.23 0 0 0-.17-.13L321.82 34 301 32.82 274 33l-19 1.38-9.68-.25-9-8.2-1.1-1.06L214.9 5.34l-6.11-3.47h-.11l-3.55.05a.62.62 0 0 0-.65-.45.75.75 0 0 0-.61.81v.27l-1.53 1.78a.57.57 0 0 0-.37 0 .77.77 0 0 0-.52.89L203.81 19l2.25 20.11-.43 5.08-3.91 4.58-6.78 5.86-25.32 11.91a.73.73 0 0 0-.35.37l-33 16.46a.56.56 0 0 0-.27.34l-11.4 5.88-3.37-.55a.24.24 0 0 0-.22.1l-4.84-2-6.38 1v5l-4.93 8.4-14 8.85-12.36-3.9a.15.15 0 0 0-.22-.09l-.12.06-8.16-.38-.17-.09-25-5.19-40.56-7.39H4.2l-3.46.9.58 3.4a.39.39 0 0 0 .06.6l10.51 5.87 56.92 32.78 2.82 34.67 1 2.1a.61.61 0 0 0-.09.62.47.47 0 0 0 .36.29.45.45 0 0 0 .3-.06l4.53-2.6a.53.53 0 0 0 .14-.13v-.05a.56.56 0 0 0 .05-.09l6.43-15.23 8.32-27.94a.63.63 0 0 0 0-.2l2.33-2.39 11.78-1.89a.33.33 0 0 0 .19-.11l10.68 2.84v.28l-1.71 6.65a.4.4 0 0 0-.2.48.32.32 0 0 0 .2.2l.28 1.64a.15.15 0 0 0 .1.07h.06l2.6-1.83a.29.29 0 0 0 .09 0h.12a.38.38 0 0 0 .26-.37l4.48-3.15.83-.38a.37.37 0 0 0 .13-.15 5.39 5.39 0 0 0 0-.14.41.41 0 0 0 0-.12l5.18-8.82 3-1 7 1.27h.06l11.26-2.48 1.13 3.27-.25 1.91a.37.37 0 0 0 0 .06.4.4 0 0 0 0 .07.37.37 0 0 0 0 .07v.11h.06l1.26.29h.14l12.18-5.72 8.38 1.18a.15.15 0 0 0 .12 0l3.59-3.77h15.92l14.47-.08 12.86-2-7.3 5.4a.78.78 0 0 0-.29.52l-11.48 11.33a.6.6 0 0 0-.17.44l-11.68 12.75a.4.4 0 0 0-.09.34l-1.81 3.57a.31.31 0 0 0 0 .1.3.3 0 0 0 0 .2l1.09 1.61a.4.4 0 0 0 0 .09.33.33 0 0 0 .26.28h.22l8.23-2.13h.06l12.13-7.25h.09a.46.46 0 0 0 .35-.09l29.28-21.84 10.44-8a.61.61 0 0 0 .47-.14l.43-.35 49.89-7.94 27.07-5.75L344.29 92l19.32-10.06a.35.35 0 0 0 .13-.12l2.63-4.47a.41.41 0 0 0 0-.06.46.46 0 0 0 0-.07.4.4 0 0 0 0-.07.42.42 0 0 0 0-.07.41.41 0 0 0 0-.07v-.11l-3.83-2.55h-.25l-.1.06-.71-.44 8.65-1.8a.74.74 0 0 0 .54-.65l13.63-6.94 8.12-5.39a.36.36 0 0 0 .1-.11l4.1-6.36v-.06zM370.3 70.76h-.06l.76-1.9 4-.46zm-4.68 6.46l-5 1.72 1.55-3.88h.08zm-56.44 23.51l-3.06-.66 4.53-2 4.27 1.4zm-7.9 1.68l-.89.14 5.43-2.35 2.91.62zm-29.67 4.72l2.36-2.39.52 1.92h-.1zm-5.3.84l-3.31-6.36 4.72-3.85 3 9.52zm-16 2.27a.77.77 0 0 0-.25.41l-4.93 3.77 17.34-16.19h.05l.05 2zm-23.72 18.1l-1.63-1.28 11.11-5.8zm-6.59 4.87l-1.53-1.84 6.1-4.21h.05a.15.15 0 0 0 .09 0l1.65 1.3zm-29.47 16.74l6.07-7.17 4.15-1.54-6.48 7.76zm23.75-29a.61.61 0 0 0 .35-.11l8.74-6.46 4.37-2.59-1.51 1.21h-.12l-12.19 11-5.21 5.2.07-2.77zm-20.38-5h-2.2l9.49-1.88 6.23 1.8zm-15.32 0l8.37-3.55 1.93 2.3L185 116zm-4.29 3.73l-2.52-3.63 3.07-1.5 2.75 1.65zm-19.71 4l.73-2.06 13.31-4.83zm-2.5-5.24l-1.12-2 5.63-.44-1.77 5-1.63.59-1.09-3.15zm-35.89 15.87l2.47-1.12.14.79-2.38 1.67zm1.61-1.52l.7-.51v.18zm1.3-.95l3.38-2.46 1.33.68-4.65 2.11zm-76.87-10.73L55 125l-1.92 2.41zm-30.16-17.37l-6.46-3.61 4.53 1.87 3.14 2.44zm12.21-6.28l.39 1.16-15.16-3.87zm20.26 3.72l12.32 2.56-.24.69-10.91-1.33-2.4-2.1zm62.72-3.53l.26.81-3.36 4.47zm62.39-29.73h.1a.59.59 0 0 0 .35-.05l12-5.66-1.18 3.16-12.2 3zm58.47-49.12l.11.58-10.19-8-2.33-4.5zm7.83 7.55l2.76 2.51.51 4.15-.59.15-2.92-7zm19 8.57l4.93-.36-3.02 5.44L246 34.69zm19-1.38l10.34-.06-1 1.78-12.29-1.5zm27-.17l5.71.33-5.83 1.49-4.69-1.78zm39.36 3.33a.23.23 0 0 0 .18-.06l6.72 1.28-1.12 2.21-8.09-3.7zm43.57 27.14l-.32.16-6.51-.94.28-2 6.46-1 .21 3.74zm-43.11 28l-8.5 1 2.14-2.37 7.25 1zm1.26-.33l.68.09-1.28.15zm-26.64 7.93L312 97.52l6.2-2.68-2.43 4.49zm-16.29 3.34l2.68-3.41 3.71.8-5.85 2.53zm-1.29.2l-6.83-1.2 7.31-3.17 3.31.71-2.75 3.49zm-87.53 37.52l-1.61-1.93 1.65-1.55 6.1-4.21-5 6.86zm-11.46 7l5.92-8L208 138l.42.51-9.48 8.9zm3.18-11.04l-1 4.5-4.12 1.53zm.23-.27l.08-.09 4.39.49-2 2.76-3.48 1.55zm11.91-11.91l11-9.95-9.59 13.67-6.5 1.33zm-62.91-5.67l-7.75.53 5.86-4.2 2.06 3.64zm-26.47 4.77l-6.7.08-.52-3 8.46 2.34zm1.52-.51l1.72.47h-2.8zm-7.81 3.67l3.45-1.61 4.61 1zm8.36-.43l-3.8 2.76-4.25-2.17zm-8.59.31l-.17-.09.11-2.25 3.47.78zm-45 45.22l1-13.37 1.37 6.21-2.1 7.16zm.16.37l-.25.86.06-.86zM2.26 98.26l2.58-.37L9 101.15l-6.1-2.53zm3.08-.45L8 97.43l4.62 5.19-2.33-1zm139.75-15.6l-.38 1.57-12.34 5.67 2-4.13 1.33-.69zm12.23-8.15l6.07 1.14-10.17 4.67 3-5.27zm9.48-.23l3.2-1.32 3.6 2.89-2.86 1-6.74-1.27zm1.2-5.07l12.86-3.15-1 2.7-9.77 4-3.53-2.83zm15-6.91l2 2.55-3.92 1 1.2-3.21zm2.22 2.7l1 1.18-6.22 2.49 1-2.66zm20-61.79l.6.27-.57.25zm.07 1.09l1.19-.52 2.77 1.26.4 6.42-3-2.54-1.29-4.31zM261 34.48l7.43 1-1.37 5.18-7.07.82L257 40l3.11-5.49zm9-.65l13.23 1.61-1 1.83-13.55-1.9.39-1.47zm25.65-.42l4.89 1.86-5.54 1.41-3.14-.38 3.14-2.89zM347.49 38l3.9 3.74-1.7.05-3.42-1.56L347.4 38zm22.32 32.67l-.49.1-1.77-1.52 2.31-.26v1.68zm-2.45-1.58l-2.52-2.17 5-3.13a.3.3 0 0 0 .15.1l-.07 4.92zm-10.36.82l2-3.21-.33 2.8h-.12l-1 1.08zm-28.33 26.64l1.33-3.27 1.81-.22-3.14 3.48zm1.45-3.47l1.27-3 2.84.38-2.23 2.39zm-24.19 1l3.49-4.44 3.73 2-7.15 2.48zm-34.16-.21a.74.74 0 0 0-.09-.24.62.62 0 0 0-.23-.21l1.22-5.67h.13l5 6zm-46.64 32.68l2.66-4.62 11.82-5.21-14.36 9.83zm-75.19-11.94l4-1.95 6.54-.38-9.93 3.47zm-6.79 1.77l-2.83-2.69 12.32-1.19-3.31 1.6v.17zm-25.79 4l.52 3-10.57.13zM107 123.51a.34.34 0 0 0-.09-.12l2.39-6.69 7.67-.74.39 4.3zm2.37-7l.21-.57 7.29-1.09.09.93zm.41-1.16l1.49-4.17 5.08-1.92.46 5zm-18.09 13.12v.11l-1 .1.25-1.65.92 1.24a.59.59 0 0 0-.17.2zm-1.41.25l-5 .49 1.84-7.26 3.5 4.72zm-7.4 17.44l-1.12 2.13-.69-2.66.8-3.14.69-.2zm-.16-3.91l2.61-.76-2.33 4.39zm-7 5.28l3 6.5-2.88 9.81-1.48-6.7zm120.57-92.26l20.31-1.47-6.48 5-14-3.44zM207 43.53l4.64-9.53 1.9 6.13-6.54 3.74zm-.47-18.58l3.91-2.25 1 10-4.88-6.87zM212.67 14l1.23 3.49-3.12 4.2-.61-9.77zm-2.53-2.58l-.35-5.59 2.65 7.5zm133.72 30.7h.64l.39.19.09.08-1.98 3.84-1.64-.12-2.77-1.8zm9.59 1.56l7.39 1.32-3.36 2.34-1.36-.1-10.45-5.16 4-.12zm12.7-2.05l.73 4.24-5.61-1 4.76-3.31zm8.69 11.79l.51-3.82 5.06 2.13-.74.43zm.49 7.7a.3.3 0 0 0-.14-.11l-1.44-.45h-.19l-1.49-2.72v-.05l5 1.17v1a.4.4 0 0 0 0 .1zm-20 5.78l-2.91-5.21 3.5-1.79.25.08h.16l2.58 6.09a.39.39 0 0 0-.11.23zm-77.24 26.62l-4.82-5.78 5.1 2.37.68.69zm-37.77 22.65l-12.56 5.53-.56-3.27a.2.2 0 0 0 0-.05l15.19-8.18-2.07 6zm-24-12.79l-10.46 1.88-3.37-3.7 12.72-4 2.37 5zm-.69.31l-8 3.56-1.66-1.83zm-17.12 1.19l.47-1.56 2.72-1.4-.18 4.14-1.41.6zm1.26 1.92l-2.1.89.73-2.41zM169 112.18l-5.36-.7 1.89-3.84h10.93l-7.22 4.64zm-14.8-.26l-.19-2.61 10.71-1.6-1.83 3.7zm-16.45-.75l-4.63-8.17h10.1l-5.29 8.18zm-56.42 18.4l-2.09.2-3.16-1.06 5.07-3.17.32 3.84zm-.44 16.06l-2 7.8-.41-10 1.7-.5zm-.53-2.71l1.32-.38-.68 2.76zm-1.88.17l-.33-8 2 7.53zm-51.77-38.62l6.8 2.53-3.2 2.83-5.55-4.92zm-2.29.17l-2-1.8 3.71 1.4zm2.94-.32l9-2 2.12.32-4.72 4.17zm11.54-1.6l5.1 7.89-9.85-3.71zm42.26 20.7v-.06l5.36-1.36-5.21 3.26-.15-1.8zm.08-.28l.55-4.71 4.92 3.29zm-18-8.12l9.76-1.07 7.6 9zm16.2 7.61l-15.14-5.07-1.3-2.4zm-15.79-8l6.79-3.63 2.23 2.65zm-11.13-.85L51.7 115l-6.34-3.59zm-7.43-2.7l9.13.14-1.6 2.39zm7.76 2.81L56 115l-4 .14zm.11-.16l1.6-2.4 3.6 3.56-1.6.06zm2-2.3l7.25 3.31-3.75.13zm3.61 3.81l.56.55-1.53-.51zm.25 0l3.88-.14 1.21 2.3-4.39-1.48zm5.21 2.4l3 5.7-7.21-7.12zm3.68 6.26l-3.21-6.1 16.15 5.44zm13.29-.4l.15 1.85-4.73 3zM77.84 134l-2.57-1.32.7-3.5zM76 128.89l3.11 1-1.11 4.16zm2.3 14.25l-2 .59 1.7-8.39zm1-13.18l1.89-.18-3 4.13zm2-4.52l5.41-3.39-5.1 7.12zm134-108.94l4.39 8.89-3-1.09-2.31-6.54zm40.18 26.08l-.76 2.59-4.19.3-1.65-3.47zm34-3.93h.07l2.93 3.17-5.73 1.18h-.23l2.88-4.25zm42.35 1.64h.06l2.53 5.37-2.45.75-6.77-5.9 5.16-.3zm37.21 8.48l3.15 4-7.78-2 1.26-2.26zM366 48l1-1.83 1.58 2zm8 6.84l-2 2.46a.31.31 0 0 0-.41.1l-1.18-.54 2.46-2.32zm-4.59 5.74l-1.74-3 2.16-.45-.31 3.25zm-24.29 15.19l-9.23 2.39 3.79-5.06 5.7.67-.15 2zM326.93 86l-2.32-2 2.86-.26a.77.77 0 0 0 0 .1.63.63 0 0 0 .48.39.6.6 0 0 0 .36-.06l.45.89zm1.92-.81l2.22 4.41-4-3.48zm-30.74.45l1.51-1.25 6.95 3.75-3.74 4.2zm-5.81 4.56l-.73-.38-4.68-6 3.85-.78L295 88zm2.77-2.07l5.41 6.37-8-4.22zm-61.22 16.25l2-1.18.36-.12-2.81 3.62zm11.44-6.74l-.5 2.1-7.38 2.54zm-13.69-6.25l4.9-.44-3.79 1.64zm-78.41 17.49l-7.7-5.91h7.41l.43 5.91zm51.6-43.7l9.28-1.66L203.71 71l-.33.07.65-5.68zm15.73-29.91l2-4.44 9.77 11.36-11.07-4.93zm.28 1.8l-.91-.41.43-1zm17.71 4l-.51 5.31-2.78-2.15L238.5 41zm-.38 5.34l.54-5.3h.22l6.66 4.74zm-3.09-2.24l-1.59-1.23 4.64-1.73zm-14.69-9.32l-1.12-3.18 2.9-.75zm2.59-4l7.79 1.45 1.94 9.88zm10.19 12.33l1.64 1.27-2.47 2.35-6.42.47zm1.78 1.37l2.5 1.93-4.86.35zm11.33 1.85l6.41 4.56h-.07l-14.74-1.79.22-2.2zm88.4-.19h.54l6.55 2.6-1.83 3.62h-.31l-.55.08-6.55-5.71zm13.42 17.22l-.31-.36 2.55-2.81v-.12l.64.15zm-13.16 15h-.2l-2.36-2.58 3.3-3.29 3.81.45-3.85 5.15zm-4.23 2.71L329 79.26l1-1 .78 2.8zm-1.82-2l-5.34-5.83 4.56-1.5.1.11 1.72 6.18zm-1.41 4.19l-2.82.26 1.59-1.59 1.29 1.15a.8.8 0 0 0-.05.18zm-46.27 1.46l-.21-.74 1-5.28 4.59 4.91zm-3.56-.36l.73 2.74-1.69-3.39.74.24zm-15.54 2.9l1.18-2.69 2.56-.47v2.44zm-7.83 8.6h.14l-.12.14zm-.3.24a.41.41 0 0 0-.06.09l-3.63.06 3.66-.36zm-53.48 2.32l1.51-5h.13l-.2 4.53zm1.41.06l-.1 2.19-1.47-1.62zm-45.09-7.94l14.9-2.45 1.79.49-1.83 7.08L153 95.4l3.62-4.76zm16.9-2.09l.18-.71L190 85.16l-4.64 6.56zm11.51 3.36l-2.86 4-10.52-.19 1.82-7zm-11.67-3.4l-1.4-.39 1.57-.26zm-19.89 7.31l17.92.32-1.68 6.5zm15.58 6.94h-15.69l-.5-6.83zm.76.27l2-.26-5.29 3.48zm1.75-6.89l10.35.18-2.24 3.17-9.78 3.12zm10.76.19l6.9.12-9 2.88zm.26-.37l2.8-4 4.79 1.32v2.77zm2.91-4.12l4.66-6.59v7.88zm5-6.46l5.2 9.27-5.18-1.43zm.21-.33l11.68-1.5-.39 8.79-.24.8-5.69 1.47zm61.8-33.56l-2.59 5.15a.26.26 0 0 0-.13.11l-13.26 2.38 15.45-7.48zM323.78 73l3.84-2.8.47 1.34a.19.19 0 0 0 0 .05zm-7.7 8.5l-2.76-.73 5.1-5.73.18.16 1.25 1.92zm3.87-4.23l4.15 6.36-7.84-2.08zm-20.66 3.79l-3.5.71 3-3.8 2.77 2.35zm-18.92.83l-1-6 2.48 2.66-.95 5.08zm-4.87 1.8l1.56 3.13-2.58-3.58.88.15zm-1.18-.66l-4.17-5.78h2.23a.57.57 0 0 0 0 .14l2.81 5.75zm-2.1-.72L269 77.48l.83-.09 4 5.59-1.19-.21zm-2.59.68l-3.13-4.72.5-.17 3.31 4.9-.56.14zm-7.73 4.21l-2.16-2 3.34-.62zm-2.37-2.14l-2.89-2.67 8.83-3.82.1.14-2.46 5.62zm-55.88-13.3l12 4.17-.73 2.9-9.73 3.58-1.82-10.59zm46.3-14.66l-.43 3.5-6 1.36L241 58.7zm66.68-11.44l.91.31 5.64 3.11-8.18 2.5-6.35-4.2zm33.1 14l-.43-.1a.83.83 0 0 0 0-.15l-.3-1.72.59.2zm-21.42 11.87h-.07l-.48-1.37 8.61-6.29 7.46.24zM327.7 70l-2.26-6.48 10.64.35zm-49.24 5.24v-.11L277 63.66l.84.2 1.09 11.39zM270 77.1l-2.81-8.85-.37-2.25 3.4-1.36 2.14 12.47H270zm-7.18-16.23l2.53-1.3 3.05.7-2.07 5.19a.43.43 0 0 0-.13 0 .48.48 0 0 0-.13.07zm-.09 6.63l-8.17 3.39 1.16-6.39h.07zm-10.19 11.15l-2-1.85 6.55.77-.58 1zm3.85.07L255 81l-2.3-2.13zm-31.13 5.76l-4.82-6.82 8 3.81-3.12 3zm-7.3-16l5 3.66-2.77 4.75h-.08l-2.14-8.43zm2.44 8.34l2.69-4.61 14.25-.49zm.23.69l17.37-5.2-9.38 9zm23.21-14.9l4.53 5.78-6.75 2-.47-7.2zm-2.74-.13l-.24-3.68 2.48 3.2zm14.28 2.26l-1.16 6.35-4.09 4.95-1.22-7.04zm2 12.28l-7-.82 4-4.86 4.64 2.87zm1.84-2.73l5.89 3.71-7.54-.89zM248.6 69.1l1.23 7.16-.49.24-6.89 2.28 6.08-9.66zm-7.15 1.4l-2.52.76.45-7.61 1.6-.36zm0 .74l.47 7.13a.08.08 0 0 0 .07.08.09.09 0 0 0 .08-.1l-.47-7.16 6.62-2-6.09 9.67-3.05-6.86zm5.37 6.46l-2.48 1.21h-1.27zm2.78-.75l-1.1 1.83-2.85.09zm.27-.13l.15-.07h.17l2.06 1.9-3.55.11zm7.35.78l6.13.72-6.69.21zm2.07-3.43l3.57-5.93 2.35 9.59zm-.14-.09l-4.52-2.8 8.15-3.39v.12zm49.18-26.64l6.37 4.21-4.7 1.45h-.19l-1.48-5.63zm37.65 8h-.48a.67.67 0 0 0-.15.11h-.06l-.09.11-3.72-1.66 6.08 1.33-.89.37zm-2.5 2.34l-2-.39-1.48-3.51h.13l3.44 3.78zm-3.86-3.86h.18l1.46 3.45-3.71-.72 1.77-2.65zM278 63.51l-1.05-.25a.48.48 0 0 0-.56-.45.47.47 0 0 0-.17.08l-1.27-1.18 8.65.78zm-7 .31a.43.43 0 0 0-.39-.1.53.53 0 0 0-.34.32l-.87-.08 3.6-1.65zm-1-6.64l14.29 2.62.4 2.34v.06l-10.23-.92-5.57-1.28zm-1.45 2.74l-2.68-.62 3.68-1.89zm50.61-4.11l-9.09 1.24-.1-3.2zm-7.83 14.91l-7.77-4.41 4.3-.26h.06l4.17 3.54zm.88-1l.41.35-1 .53zM308.13 66l8-2.6-4 6.05zm8.29-3.06l-7.35-.06 12.57-2.66v.22zm5.28-2.13l.27 2.4L317 63zm-24.84-2.29l.27-.1 9.37 4.42-12.12-.33zm-2.87 4l-7.6-.21 10-3.59zm28-2.35l.57-.12-.55.26zm0-.36v-.17h.67zm-.06-.54l-.29-2.61h.05l2 2.71zm-11.91-1.39l10.83-1.48a.61.61 0 0 0 .41.29l.29 2.56-11.92-.62zm11.62 1.74v.26l-13.92 2.95 1.76-3.84zm-14.26 3.22l-9.46-4.46 11.24.59zM285 62l-.38-2.2 9.28-1zm-11.17-.46l-5.26 2.4-1.84 1.51 2-5.11zm-5.16 2.76l1.19.1-2.57 1zm25.08-1.45l-1.26 2-6.4-2.23zm.39 0l12.18.33-9.54 3.18-4-1.38zm13.24.36l7.92.07-7.47 2.41-4.78.29a.15.15 0 0 0-.19-.1.18.18 0 0 0-.1.12l-4.61.28zm-4.16 3.13l7.92 4.5-6.11 3.31-1.89-7.8zm7.9 4.71l-5 7.61-1.05-4.34zm1.64-.89l4.9 4.17-6.15-3.49zm.17-.09l4.22-2.29 1.18 6.88zm-.15-.12l-.48-.41 4.08-6.22.73 4.28zm3.75-6.7h.1l5.34.17.17 1.5-4.87 2.64zm5.77.14l2.44.08-2.29 1.24zm0-.19l-.3-2.57 1.94-.92 1.23 3.52-.09.05zm1.81-3.53h.17l6.48.58-5.44 2.95zm.8-.17l11.53-2.37-5.38 2.87zm-.91-.2l-2-2.77 2.06-.31 11.81.64zm-13-6l4.33-1.3 4.9 3.24zm-1.43.54l.1 3.27-4-1.87zm-4.42 1.6l4.37 2a.36.36 0 0 0 .06.14l-.42.9-11-.57zm-8.37 2.25l-12.3 1.34.78-5.45 12.34 1.47-.73 2.61zm-26.54-1.24l3.82-5.27 9.49 7.71zm-5.51 2.58l-2.9-.67 6.35-1.11zm-3.73-.3h.07l1.16 1.67-5.49 2.82 4.06-4.41zm.23-.11l3 .7-1.87 1zm9.87 5.52l3.27-2.44 1.63 1.46a.61.61 0 0 0 0 .27l.13 1-2.13 11.9-2.19-8.33zm7-.29l6.53-1.22a.3.3 0 0 0 .1.09l-2.42 13-3.13-.4zm6.8-1.09l3.91 13.75-6.33-.81zm.28.37l7.5 13.87-3.68-.46zm0-.44l7.32 2.55 2.06 12-1.67-.24zm7.51 2.61l4 1.39-.9 10.7-1-.13zm3.08 12.28l-.14 1.71-.49.24-.36-2.08zm2.67.34h-.09.08zm-.55.19a.08.08 0 0 0 .06 0l-2.15 1 .13-1.61 2.2.28-.2.11a.1.1 0 0 0-.03.23zm-2.28 1.39l-.16 1.88-.29-1.67zm.17-.08l2.67-1.3-2.87 3.65zm2.63-1.68l-2.41-.31.86-10.24 1.82 10.44zm-1.49-10.86l6.2 8.31-4.34 2.35zm.09-.17l5.8-.35 1.92 7.95-1.47.8zm7.77 7.77l.95 3.92-2.35-3.16zm6.6-3.52l6.86 3.89-12 3.94zm7.18 3.77l-1.21-7 4.86-2.64.92 8.2-4.52 1.49zm3.92-9.84l2.62-1.42h.15l2.29 6.59-4.14 3zm2.94-1.6l5.65-3.06 8.84.79-3.59 2.63zm5.94-3.22L337 57l.25-.05 4.18.81.69 1.62-2 1.47zm10.29-2.27l1.77.34v.24l-1.17.86zm2-.29l-3.32-3.65h.41l4.31 2.07zm4.17-2.15l1 .21-.38.76-1.52-.56zm.87 1.2l-.09-.09.4-.81.86.19zm.61-1.63l.11-.22 1.72.2-.47.32zm-.17 0H349l.18-.08zm.81 2.33l-1.14-.38a.7.7 0 0 0 0-.07v-.05l1.28-.87 2.35.52-2.18 1zm1-1.95l.5-.34 3.36.4-1.21.53zm4.64-2.52l.16 1.94-3.36-.4 2.17-1.47zm1.07 2h-.16l.12-.05zm.59-.35l4-1.74-3.86 2zm-1.1.29h-.23l-.13-1.62.76 1.47zm-1.94-1.88l-2.09 1.41-1.29-.15 2.93-1.23zm-5.46 1.93l-1.74-.37 2 .24zm-11.52 1.78h-.09l-3.26-1.8 5-.74zm-.51 0L325.89 56l7.69-1.14zm-15.47-1.38a.66.66 0 0 0-.41.25h-.13L315.55 52l8.29-2.52 7.62 4.2zm-13.13-7.69l1.48 5.64-4.42 1.59 1.67-6.44 1.1-.82zM305 54.78l-.19.07-2.75-3 4.59-3.45zm-.37.13l-7.52 2.71.72-2.57 4.1-3.08zm-6.89 0l-12.23-1.46 11.28-7 5 5.43zm-12.58-1.35l-.79 5.51L284 59l-9.76-7.93 2.36-3.26.18-.06h.15zm-8.84-5.65l-2.2 3.09-1-.84 3.14-2.17zM274 51.1l-3.87 5.34h-.27l-.11.06-4-1.35 7.16-5zm-4.76 5.64l-7.7 1.34 3.83-2.65zm-13.34 6.9l-.39.2-6.56 4.26.83-6.83 10.5-2.38zm-7.34 4.71L244 62.59l5.4-1.23zm-7.64-5.8l-1.4.32L240.7 59zm-1.72 1.14l-.46 7.63-.73.22-15 .52-4.88-3.59zm-19.67 3.71l8.79-4.25 8.58.31zm.24 9.64l-.15.06-3.75-1.3 1.78-7.1zm-.43.16l-4.22 1.55.7-2.77zM205.68 83l7.92 1.14-1.6 6.26-6.45-7.4zm.37-.13l8.68-3.19-1.08 4.32zm-.91.33h.05l6.53 7.4-9.42 2.4v-.68l2.75-9.14zm8.63 1l9.23 1.29-10.8 4.92zm0-.18l1.1-4.37 5.15-1.89 4.87 6.9-1.61.74zm11.34.92l.07.08.29.68-1.47-.26zm.42.45l.34.37h-.19zm3-3.82l2.27 1.08-5.18 1.72zm.14-.14l9.58-9.2.6-.18 3.15 6.87-10.89 3.61zm13.75-2.25h1.48l-9.9 4.74-2.45-1.17zm2.79-.09l3.14-.1-5.52 9.18-8.24-3.93zm3.34-.1l3.85-.12 2.47 2.28-1.51 2.51-10.29 4.45zm6.44 2.27l1.24 1.15-2.62 1.13zm.09-.16l1.42-2.36 8-.25.57.07-8.71 3.77zm11.24-3.1l-1.17-4.79 1.69 4.61zm-2.72-10.86a.44.44 0 0 0-.5-.15.51.51 0 0 0-.22.17l-6.61-2.91 6.41-3.3 3.28 4.7a.6.6 0 0 0-.13.39zm6 9.9l-.91.1-1.11-6.45zm2.84-5.09l1.3 5h-.43zm3.73-6.4l1.21 9.77-3.24 1.56zM279 75.74l.56 3.28-1-3.41zm.32-.09v-.16l3.07.39-.47 2.53zm3.21.25l6.42.82 1.46 5.15-3.63 1.77-4.78-5.09zm6.6.84l3.7.47 1.44 2.79-3.74 1.82zm3.91.5l1.61.21.37 2.18-.56.27zm2 2.56l.3 1.75-.81-1.5zm3.82-2v-.1l4.41-2.39 2.62 3.51v.09l-4.13 1.36zm19.36-2.76l-5.06 5.68-6.76-1.8zm.9.61l1.15 1-.27.35zm-.35-.79l4.26-1.4-2.53 2.94zm10.09-3.41l14.94-7.17-5.58 5.56zm9.14-1.37l-2.37 2.36-6.74-.79zm6-6.33v.11l-7.28-.24 3.47-2.62 2.78.25 1 2.43zm-3.55-2.87l1.82-1.33.65 1.55zm2-1.43l1.14-.83.44 2.58-.87-.08zm2.85 1.31l-.42-2.46L346 57l1.68.62.31 1.79-1.34 1.83zm3.92-.74a.8.8 0 0 0 .07-.14l.41.1-2.23 2.46zm1.25-.15l-.14-1.78.54.18.3 1.76zm.79-2.25l-.67-.22 2.22-1 .84.18-2.14 1.09zm2.71-1.7l1.26-.55.65.08-1.19.61zm1.93-.26l.06.69-1-.22zm.16-.08l.19-.09.9.11.59 1.15-1.61-.35zm1.91.11l1.33.16-.81.84zm-.41-.79v-.06l5.08-2.58h.18l-2.84 2.94zm6.25-2.73h.18l.49.13 2.08 3.7-5.84-.69zm3 3.82l-2-3.4 4.11 3.64zm-9.61-1.7l-.82-1.59 5.35-.39zm-6.71-.22l-.65-.08.43-.85 3-.21zm-.83-.1l-4.15-.49 4.56-.33zm-17.88-.38l-7.68-4.23 1.83-.56 11.6 3.93zM323.42 49l-4.9-2.7 6.48 2.21zm-6.69-3.89h-.22l-.89-.84 8.33-3.36-7.1 4.23zm-.43.06l-6.13 1.32 5.27-2.13zM307 48l.18-.71.61.11zm-.21.16L302 51.74l-5-5.42 1.13-.71 8.87 1.65zm-9.91-2l-.9-1 1.89.35zm-1.19-1l1 1.12-11.32 7.05.67-7 9.05-1.32zm-10.49 8.18l-8-5.67 8.66-1.27zM272.94 50l-.77-.62 3.42-1.21zm-.15.11l-7.23 5-4.9-1.66 11.31-4zm-7.6 5.26l-4 2.74a.29.29 0 0 0-.28-.1l-11.08 2.51.41-3.4 9.82-3.48zm-24.59 3.4l-1.25 4.13-1.75.4-8.93-.3 6.79-3.29zM228.29 63l-9.29-.37 15.77-2.82zm-10.07-.19l9.69.35-9.18 4.44-.89.2.17-5zm-.72 5.84l-1.79 7.14L204 71.68zm-12.61 13.83l-2.13.27.44-10.1zm0 .74l-2.55 8.46.36-8.17zM202.14 93v.08zm.15.42l9.71-2.54.1.1 1.33 2.79-11.34 4.13zm10.17-2l2 2-.89.32zm2.38 1.9l-2.49-2.51 11.31-5.15 1.94.28.76 1.79zm11-7.36h.31l1.17 1.27-.77.37zm.86.12l2.38.34-1.42.69zm-.2-.22l-.95-1 5.82-1.93 2.46 1.07-4.5 2.18zm8-1.48l7.89 3.76-12.07-1.74zm18.82-.43l-1.61 2.67-8 1.47zm.26-.11l2.92-1.26 2.85 2.63-7.43 1.37zm5.94 1.53l2.21 2-.2.11-8.54 1.75-.06.06-2.76.25 1.71-2.83zm-6.88 4.21l-6.28 6.22 3.61-6zm-6 6.79l6.78-3.83.54 3.12zm.22-.53l6.1-6 .41 2.37zm6.45-5.93l1.58 1.39-1.22.69zm.14-.35l7-1.56-5.33 3zm10-5.09l2.24-5.47.11.17v4.8zm2.65-5l2.67 4-2.68.5zm4.45 3.8l.84 1.7-1.37-1.56zm.25-.25l-3.46-5.11-2.78-7.57-.68-2.79 2.14-1 1.9 11.07v.05a.55.55 0 0 0 .05.13l3.39 5.07zm3.31.26l2.55 3.53-3.8-3.81zm2.57.35l-.19-.39-2.85-5.83h.39l3.39 6.49zm-2.37-6.44l3.29-1.58 2.64 9.16-2.36-.76zM290.43 82l.23.81-3.25.66zm.15-.07l3.78-1.84 1 1.78-4.49.91zm8.73-.69l2.38-.78 1.17 1-3.25 2.68-4-2.14zm2.58-.85l3.74-1.23-2.63 2.2zm11.1.48L309.33 85l-3-5.89zm.18 0l2.77.73-5.22 6.07-1.31-2.57zm2.95.78l7.67 2L311 87.67zm8.24 1.88h-.08l-4.22-6.47.3-.35 5.72 5.1zm-3.77-7.08l2.62-3 5.4 5.9-2.28 2.27zm7.84-4.35L332 76l-2 2zm.13-.38l6.85.8-3.2 3.19zm7.24.66l2.46-2.38 4-.69-2.67 3.57zm2.68-2.66L344 64.3a.29.29 0 0 0 .13.06l1.67.21-3.4 4.55zm5.65-6.17l-1-2.32.83.07v.13a.76.76 0 0 0 0 .15.68.68 0 0 0 .14.2.59.59 0 0 0 .16.1l2.16.71h.09a.59.59 0 0 0 .2 0h.06l.15-.07-.21.23zm9.71-7l2.1.46.17 2.06-4.44-1.41zm2.26.5l1.54.34-1.39 1.55zm4-1.22l5.36.63-6.25.28zm9.92.32l-4-3.57 6.1 1.6zm-15-4.94l-1.27-1.17 3-2.05 5.47 2.7zm-.25 0l-3 .22 1.87-1.3zm-5.14.37l-7.62-3 .75-1.49 6.93 4.51zm-.42 0l-9.07.65 1.79-3.55zm-10.39.81h-.08l-11.89-4 5.45-1.66zm-12.85-4.32l-8.87-3 7.53-4.48.41-.06a.23.23 0 0 0 .1 0l6.67 5.81zm-10.46-4.08l-1.91-1.79 10-1.46zm-.18.07l-6.15 2.48-1 .21-.89-.17.94-3.61 5.12-.75zm-6.92-1.67l1-3.77h.17l3.31 3.11zm.81-3.85l-1 3.87-6.84 1zM308 43.17l-.92 3.55-8.33-1.54 1.39-.87zm-9.51 2l-1.74-.32 3-.43zm-12.45.69l.23-2.38 7.09 1.31zm.06-2.39l-.23 2.41L278 47l7.82-3.55zM271.68 49l-5.07-4.12h.09l9.45 2.54zm-5.33-4.1l5.13 4.1-11.65 4.12-3.26-1.1 9.35-7.16zm-7.08 8.49l-8.17 2.89 5.12-3.92zm-8.7 3.08l2.57-5.11h.06l2.84 1zm-4-10.13l4.05-.29 2.25 4.78zM252.1 51l-14.55 1.1.28-2.79zm-.8.24l-14.08 4 .31-3zm-.18.62L236 59.22l-18 3.22v-1.06zm-33.38 9.56v1l-2.55.46 1.71-1.23zm0 1.4l-.17 5-13.39 3 10.33-7.45zm-14.63 9l-.48 10.88-12 1.54-1.63-9.16zm-14.37 3.26l1.58 9.21L174.09 87l1.44-5.56 13-6.27zm-14.77 11.9l-3.45.57-4.88-1.34 9.76-4.72zm-3.89.64l-11.17 1.84 6.47-3.13zM156.2 90.7l-3.36 4.42.07-3.6zm-3.28.06l.08-7.36 3.42 6.6zm-.24 4.4a.36.36 0 0 0-.24.26l-5.83 1.83-1-3.94 7.08-1.75zm-6.22 2.14l-5.82 1.83-4.49-3.45 9.36-2.32zm-.42.51l-4.8 1.78-.25-.19zm.32.26l-2.36 3.72-2.43-1.87zM141 99.73l-8 3-.36-.63 8.14-2.55zm.34.26l2.54 1.95-.55.85h-9.59zm2.67 2l1 .74h-1.44zm.1-.15l2.46-3.84 5.82-2.16.5 6.87h-7.64zm9.48 1.06h16l-4.2 4.1a.31.31 0 0 0-.34.1L154 108.76zm19.21-.31l3.9 4.41h-10.65zm-.05-.37l-.81.11 7.6-2.42-1.23 1.73zm7.25-2.44l7.77-2.48-8.94 4.12zm10.64-6.4l4.94 1.36-4.89 1.26zm11.12.14l-1.52 5-.36.13-3.45-3.79zm0 7.72v.47l-2.66 1.37 1.08-3.6zm.16.17l.13.14-.14.07zm0-.5l.11-2.43 11.6-4.23 1.51 3.16-12.77 4zm11.87-6.71l1.07-.39 2.8 2.83-2.35.74zm1.41-.55l11.32-5.5 1.77 4.22-10.22 4.13zm11.48-5.57l.94-.46 3.38 3.66-2.53 1zm4.73 3.14L228 87.46l2-1 12.62 1.82-5.62 2.44zm11.36-2.8l-.53 1.84-4.67.42zm.19-.07l8.54-1.58-1.69 2.81-7.39.66zm6.73 1.43L246 95.92a.58.58 0 0 0-.58 0l-5.54 3.27 2.51-8.76zm-4 7.64l.32-.19a.76.76 0 0 0 .34-.48l6.78-.11-8 3zm9.21-1.55l4.62-.45 2.19 1.94-7.05-1.21zm.35-.4l1.87-2.18 2 1.8zm-.49 0l-.55.05-.56-3.26 1.44-.81 1.78 1.57zm.65-4.21l5.73-3.24-4 4.72zM265.62 87l-.71 2.39-2.42-1.75zm.3.14l4.44 6.19-5.17-3.73zm0-.56V84.1l2.79-.52.1.16 2.8 3.18zm7 .27l-.83-.95-1.39-2.79.61-.16.08.13 6.12 6.22-4.53-2.11a.57.57 0 0 0 .02-.35zm6.12 1.82l-1.16-4.37v-.09l2.3.74.08.27a.48.48 0 0 0 .26.3l-1 4zm2.17-3.67l5.49-1.13 4.7 6-3.12 2.13-7.15-6.71a.61.61 0 0 0 .08-.29zm10.31 5l.63.33-3 2.46-.76-.71zm-.59-7l4.47-.91 2.46 3.49-2.78 2.3zm4.85-.67l3.68 2-1.46 1.15zm4 1.95l3.22-2.69 5.34 4.54-1.65 1.87zm3.36-2.78l2.86-2.35 3.13 6.14-.63.7zm6 4l1 2-1.61-1.37zm14.89-1.39l-2.58 4.76-.19.07-9.94-.95zm.23-.07h.08l2.39 2.08-5 2.63zm3.51-1.2a.68.68 0 0 0-.09.08l-1.25-1.11 2.27-2.26 1.64 1.79zm3.89-2.26l-.8.46-.79-2.85 2-2 2.32 2.53zm8.09-7.61l2.72-3.64 3.24-.56-.38 4.85zm2.88-3.85l3.37-4.53-.31 3.94zm3.51-5.21l1-.26.08-.06.33-.36.24.28zm5.42-3.27l.56 1-2.86 1.46zm.12-.14v-.13a.37.37 0 0 0 0-.06.42.42 0 0 0 0-.08l-.28-1.63 4.13 1.31-3.34 1.71zm6.75-2.82l7-.32L357.2 59zm5.83-6.91h-.31l-.75.05-5.77-2.85 8.07.61zM356.49 48l-2.9 2-2.91-2.67 5.31.4zM350 46.76l-4.55-4.18 9.19 4.53zm-.29 0l-6.51-.49 1.89-3.75zm.66.61l3 2.8-2.08 1.45-1.39.1-7.08-4.72.13-.25zm-7.71-.4l-.31-.2h.4zm-.08.16l-.77 1.52-6-2.39 6.17.47zM313 41.88l-3.25-3.06 2.91.19 10.9 1.32zm-12.13 1.77l-5.66.83-2.37-2.57 16-3.21zm-5.89.83L287.23 43l5.45-1.09zm-17.64 2.62h-.32l1.74-3.1 6.52-.47zm-.52.08h-.13l-.24.09-9.2-2.48 11.31-.79zM256.37 52l-3.09-1a.25.25 0 0 0-.07-.1l1.51-5.13 10.89-.79zm-3.32-1.2l-2.28-4.8 3.77-.27zm-2.72-5.31l-4.5.33-6.58-4.69 9.44.85zm-12.08-4.75l-5 1.85-2-10.25 1.25.23zm-5-8l3.38.63 1.44 6.24zm-2.06-.76l-.35-1.76 1.37 2zm-1.36-3.21l.29.42-8.41-3-2.78-13zm.43 1.05l.4 2.06-8-1.48-.13-.26-.71-3.33zm-8.3-.91l-1.25-2.52.76.27zm.14 1.45l-3.05.79-2.16-6.15 3.11 1.1zm-5.87-6.17L211 22.27l3.1-4.18zm.24.67l2.25 6.37-6.89 1.77-1-10.21zm2.43 6.88l1.25 3.54-.57 1.27-7.07-3.15zm2.14 6.06l2.31 6.53-7.5 1.27 3.8-8.42zm.42.19l10.82 4.82-8.6 1.46zm10.39 5.27l-7.09 4-.95-2.68zm-.18 4.16l-.9.87-4.16-.51zm.27 0l6-.43-.22 2.17-6.72-.86zm5.73 1.92l-.29 2.82-11.16.81 4.6-4.46zm-.31 3l-.31 3.07-1.11.32-14.38 1.75 4.44-4.36zM234.82 56l-16.72 4.8 3.25-3.15zM218 60.67a.16.16 0 0 0-.12.06l-7.17-1.77 10.42-1.27zM214.76 63l-6.51 1.16 8.12-2.32zm-11.08 2.49l-.68 5.66-14 3.18.85-4zm-13.47 4.12l5.67-7.68 7.5 3.09zm-14.5 11.16l.74-2.85 9.73-2.21zm-.19.09l-10.72 5.2-10.93-3L176.26 78zm-11 5.3L157 89.84h-.23l-3.48-6.69h.21zm-11.71-2.95l-.14 7.63-7.27 1.8-1.3-5.38zM144 87.36l1.29 5.35-9.93 2.46-3.07-2.36zm-11.9 5.55l3 2.33-2.9.76-.15-3zm3.77 2.89l4.51 3.46-7.89 2.48-.25-5zm-3.55 6l-8 2.51-2.59-5 10.33-2.56zm-10.75-2.45l2.6 5-8 2.5-1-5.92zm-6.72 1.78l1 5.84-3.49 1.1zm-2.67 7l-10.78 3.38 13.21-10.18zm-12.7 4l-1.09.34-1.15-1.54 14.51-8.27zm-7.59 5.85l-3.17-2.1 9.73-3.05v.06zm6.73-5.2zm-.41-.25l-8.38 2.63 7.26-4.16zm-6.49 5.78l-4.41 3.08 1.1-5.28zm7.19-4.86l1.2 1.6-6.45 2.44zm.14-.11l1.53-1.18 11.42-3.63-.81 2.27-10.92 4.2zm13.18-4.84l3.71-1.16.28 1.61-4.79 1.82zm4.3.33l-.27-1.59 8.09-2.54.54 1zm8-4.18l7.91-2.48.36.64-7.8 2.83zm18.86-1.65h1.8l7.75 5.95-14.81 2.21zm33.61 4h-.1l-3.9-4.39 5.3-.56 2.9 3.46zm1.64-5.12l11.83-5.46v.05l1.73 5-10.71 3.9zm12.17-5.09l3.51 3.89-1.92.7zm0-.49l5.29-1.3 3.47 3.82-4.89 1.78zm9.11 2.9l.08.09-1.16 3.84-1.28.66-2.48-2.79zm-1.14 4.17l-.4 1.32-.69-.76zm2.91 2.59l.18-4.18.27-.14 3.31 3.64zm13.69-8.48l2.42-.76 3.36 3.39-3.43 2.28zm2.79-.89l10.2-4.11.94 2.23-7.8 5.29zm10.36-4.18l2.58-1 1.22 1.33-2.89 1.92zm8.5-1.57l5.15-.46-2.54 8.87-.51.3-6.33-6.88zm-3.81 16.54l3.53-4.56 6.89-2.37-10.43 7zm11.78-7.32l8.48-3.17-9.53 7.67 1-4.49zm8.15-2.68l-10.3 12 1-4.55zm1-.59l7.7 1.32-18.34 11.05zm8.28.67l-2.43-2.1 3.23-.31-.72 2.44zm-2.8-2.46l-2.29-2 4.51-5.26h.17l2.79 2-1.46 4.93zm5.46-5.09l5.33 3.85-.26.21-6.45.63zm6 3.43a.6.6 0 0 0-.24.07L266.23 87l5.81.42.22.25.09.07zm8.61-2.63a.58.58 0 0 0 .05-.1.6.6 0 0 0 0-.09.64.64 0 0 0 0-.11.62.62 0 0 0 0-.1.58.58 0 0 0 0-.1.57.57 0 0 0 0-.11l-.19-.37 1-4.2a.43.43 0 0 0 .2 0 .5.5 0 0 0 .16-.11l7.1 6.66-5.51 3.69-2.91-5zm8.52 1.43l.74.7-5.48 2.47zm4.05-1.76l8.41 4.43-2.43 3.53-9-5.49zm2.9-2.39l2.83-2.25 4.73 6.72-1.86 2.21zm11.51.18l1.72.93-5.2 3zm.12-.14l1.62-1.82 1.94 1.65v.09l-1.83 1zm3.46.2l-.92 1.16-.57-.31zm10.57.77l-6.2 2.12-3.74-3.06zm.44 0l-2.83 5.22-3.69-3zm5.6-2.89l4.17 3.63-9.39-.89zm2.1-1.1l3.78-2 5 3.24-6.43 3.47zm-.08-.16l-.45-.89 3-1.76 1.11.72zm2.94-2.86l.42-.24 2.95-2 1.2-.31 2.23.3-5.71 3zm5.55-2.81l4.62-1.1-2.74 1.44zm7.94-3.55l.15-1.93 5.86.68zm6.58-1.37l-6.42-.75.38-4.9 4.43-.77 3.23 6.16zm-6-5.83l.3-3.91 2.06-.53 1.94 3.71zm2.56-4.43l.48-.52 3.3-1.69 2.89 5.17-4.7.81zM359 66l-2.56-6 5.35 4.6zm-2.33-6.07l10.84-2.26 1.79 3.06-7.3 3.71zm12.65 1.59l.36 2.1-5 3.17-2.12-1.82zm.41-1.37l.29-3h.07l.06-.06 1.22.56zm7.68-1.56h-.11v.06l-5-1.17a.38.38 0 0 0 0-.18l2.1-2.53.26.07h.06a.59.59 0 0 0 .24 0l.32-.08 3.11 3.5zm-2.06-9.14v-.16l8.19.62-3 1.74zm-.16-.07l-.32-.13h.33zm0 .19l-.52 3.92-2.17-.57-3.2-4.1 5 .38zm-6.35-1.34l-1.55-2 5.41 2.28zm-2-2.13l-1.02 1.9-8.06-.61 3.33-2.39zm-25.86 0l-5.62-.43 3-1.26zm-6-.46h-.4l-2.52-5.34 6.16 4zm-9.79-5.31a.23.23 0 0 0-.25-.17l-.17-.32 4.13.27zm-.45-.14l-.47.07-8.19-1 8.46.56zm-32 1.59l-2.94-3.18L296 37l12.74 1.55zm-3.56-3.07l-2.84 4.19h-.09l-7.18.52 2.07-3.77zm-7.71.34l.86-1.57 5.72.8zm-2.59 4.38l-12.56.91.81-3.07 13.81-1.61zm-12.73.93h-.3L261 42l6-.7zm-.67 0l-10.6.77.75-2.56 5-.58zm-16.88-3l-3.16-6.72L255 42zm-3.44-6.74h.09l3.16 6.71-9.41-.79 6.08-5.89zm-8-1.24l1.06.2.09 4.79zm-.09-.39l-.2-.86.94 1zm-.54-.1l-3.6-.67-2.35-3.35-.85-4.33 6.46 6.86zm-6.66-5l-8.64-12.34 7.85 8.34zm-11.42-15.3l2.9 13.41-1-.35-4.76-9.65 2.84-3.41zm-4.34 4.58l-1-2.74L215 16zm-3.92 3.45l-3.44-11.53 2.89 2.41zm1.89 13.15l7 3.13-5.08 2.96zm7.15 3.47l-3.6 8-1.56-5zm4.22 7.41l.93 2.62-7.56-1.49zm1.17 3.24h.06l.94-.07 5 .6-4.62 4.52-8.79.64 7.36-5.7zm1.09 5.24l-4.47 4.33-10.84 1.32 6.47-5zm-8.47 7.64l-9.24.43 2.16-2.2zm.28.17l-13.06 3.76 3.32-3.31zm-13.4 3.86l-.28.08-.18.06-7.37-3 11.25-.51zm-14.19 4.92l-.24.08-3.28-4 9.19-3.8zm-.42.14l-11.61 4 2-5.46 6.29-2.58zm0 .57l-.84 4-12 2.72 1-2.55zm-13 6.73l-.31.07-1.88-1.51 3.13-1.09zm-.53.12h-.2l-3.94-.74 2.28-.8zm-.66.15l-16.94 3.84 13.1-4.56zm-22.67 5.29l-8.48 4 .67-2.76 8.08-3.71-.07 2.33a.35.35 0 0 0-.2.15zm-8.67 4l-11.93 5.56.2-2.63L144.66 84zM131.88 93l.15 3-10.55 2.62-.12-.7zm-10.68 5l.11.67-3.3.82zm-6.31 2.26h-.07l-1 .77-14.92 8.52 4.12-3 11.49-7.23 1.41-.76-.86 1.69zm-.45-1.14l-10.8 6.79 4.88-4.71 8.8-5.44-1.26 2.49zm-5.25 1.46l6.81-6.36 1.36 1.28zm-.39.13l4.8-8.75 2.3 2.16zm-5.7 5.49l.07-.46 3.32-2.81zm-.2.18l-3.81 2.82 3.89-3.3zm-14.36 9.07l1.69-3.67 6.14-.8zm-1.6 6l-5.1-3.45.59-5.06 5.67 2.91zm-5.41-3.62l-6.22-4.16 6.8-.76zm0 .41l-.54 4.64-7.57-9 1.38-.15zm-8.4-4.69l-1.79-2.12 3 2zm-9.72.79l2.72-3.44 3.93-.13zm-.72.37h-.1L55 111.3l10.6-.36zm-6.9-3.82l13.36-4.35-3.17 4zm-11.09 0h-.06L39.48 103l14.42 8zm-17.82-6.82l-1.13-3.39 9.71 1.45zm-.38-.09l-4.83-1.82-2.84-2.52 6.55 1zm-5.77-2.18l-5.18-2-.12-.72 2.76.41zm-5.37-3.06l-.35-2 2.66 2.36zM15 98.6l-3.5-1.67 3.08-.45zm0 .4l.11.67-6.36-2.4 2.07-.3zm.19 1.09l.66 3.82-2.5-1-4.66-5.23zm.73 4.25l.3 1.76-2.3-2.58zm.68 2l-.31-1.82 3.15 1.3-2.65.63zm-.39-2.25l-.66-3.84 5.88 2.22 2.57 2.28-3.93.94zm8.1.93l5 4.48-8.73-3.6zm9.54 2.13l9.39 3.54-12.53-.78zM50 115.54l.84.65-1.78 2.66-3.4-3.16zm-4.65-.21l-.68-3.94 4.87 3.79zm5.21.19h.75l-.27.4zm-.45-.35L46 112l5.56 3.14zm6.85.13l2.35.79 7.59 7.49-14.37-8.13zm23.84 8.11l-4.91 5.16h-.18l-7.94-4.49zm-5.8 9.12L68.2 129l7.48-.12zm-.07.37l-.44 2.23-3.52 1-3.1-6.83zm.3.16l2.36 1.21-2.79.73zm2.64 1.51L76 143.64l-2.44-2.4 1.16-5.82zm-1.6 9.56l2.12-.62.41 9.83-2.93-6.45zm-.65 2.21l-.2-.44.39-.83zM81 146l.66 2.54-2.53 4.84zm1-3.88l.43-1.68.13 1.52zm-.18.05l-1.51.44-2.1-8.08v-.14l3.22-4.5h.09l.85 10.15zm-.12-12.4l3.35-.32-2.54 10zm0-.18v-.11l5.21-7.28-1.79 7.06zm5.57-7.7l4.58-3.2-1.19 7.78zm13.09-6.52l1 1.29-7.2 1.07zm.17-.06l10.56-4-1.47 4.12-8.09 1.21zm16-6l5 4.36-4.52.67zm.15-.11L125 106l3.4 6.54-6.73 1zm8.52-3.2l7.76-2.88 4.62 8.11-9 1.34zm28.17 3.44l.19 2.68-.44.21-13 1.25-2-1.87zm15.48 3.5l3.88 1.14-14.22 1.12 4.64-3zM175 114l-5.41-1.59 7.32-4.71h.09l.51 4.88zm2.14-6.43l4.42-1.61 2.23 2.67-6.15 3.76zm4.77-1.74l10.52-3.83 1.13 3.25-9.44 3.21zm10.67-3.89l2.13-.78 2.55 2.82-3.55 1.21zm4.81 2.19l.91 1-.79 2.64-2.51 1.08-1.21-3.48zm0 3.87l-1.28 4.25-1.06-3.25zm.2-.08l2.3-1 2.44 2.7-6.07 2.71zm2.64-1.12l1.38-.59 4-.71 1.73 1.91-4.66 2.08zm7.22.75l3.39 3.73-5 1.68-3-3.32zm.34-.15l8.57-3.83 1.6-.22 2.3 4.79-9.05 3zm8.92-4.07l.94-.62.22.46zm1.08-.72l3.48-2.31 2.08 2.1-5.3.74zm3.78-2.51l7.78-5.17 2.63 6.26-8.2 1.15zm7.93-5.26l2.94-1.95 6.36 6.91-1 .57-5.66.79zm7.91 5.78l-4.39 2.59-.78-1.86zm-4.74 8.26l.11-.1.08-.09a.81.81 0 0 0 .06-.12.79.79 0 0 0 .05-.14l.08-.4 11.61-7.75-1 4.52-6 4.84-5.74-.25zm11.01-3.88l-1.06 4.66-.08.1-4.53-.2zm-1.36 5l-14.47 7.79 9.93-8zm-25.7 17.1l9.53-13.53.79 4.62zm9.46-7.71l-5.54 7.74a.18.18 0 0 0 0 .07l-3 2.86-1.59-1.92zm-6 8.55l-2.08 2.77-.41-.49zm7-9.29l.53 3.11-6.09 4.65zm15.76-8.6l17.89-10.78-19.84 16.46zm20.06-12.72l.69-2.32 5.88-.57zM278.18 94h.05l1.07-3h.19l2.91 5-6.4 6.42zm11-1l9 5.48-7.41 3.21-7.94-5.81zm11.72 1.91l3.32 1.09-2.46 3.13-3.29-.71zm.12-.15l1.84-2.18 2.83 1.58-1.33 1.69zm2-2.3l5.62-3.23.65.35-3.51 4.42zm6.53-2.94l1.07-1.36h.1l3.76 3.08-1.09.37zm5.1 1.84l3.24 2.64-4.29-2.31zm4 3.06l2.87-5.31 9.7.92-1.29 3.08-11.23 1.34zm13-4.53l6-3.26-3.29 3.63zm20.71-8.22l.47 5-14-.55 13.39-4.5zM338.59 86l7.18-5.26 6 .82zm-.41.09l-5-3.21 5.82-3.03 6.52.88zm1.39-6.57l3.2-1.68 2.56-.66.56-.12 3 1a.79.79 0 0 0 0 .14l-3 2.2zm9.54-2.18l-1.77-.58 3.52-.73-1.67 1.22a.68.68 0 0 0-.08.13zm4.58-3.34l-3.18-6.08 4.7-.81 1.57 2.81-2.42 3.94zm1.7-6.92l3.38-.59a.33.33 0 0 0 .06.08l-1.95 3.17zm3.4 2.43l.3-2.59.47 2.71zm.43-2.84L362.4 65l2.13 1.83-4.53 2.94a.3.3 0 0 0-.18-.11zm5.45.33l2.44 2.1-7 .8zm5.65-3.66l-.38-2.34 2-3 1.46 2.66v.06l-.27 1.71zm3.58-1.94l.71.22-.84.62zm3.29-1.2a.31.31 0 0 0 .11.09l-.1.68-1.7.26zm.61-1l.2-.05-.21.25zm1.1-.66l4.51-2.61.19.07.1 2.57zm4.92-2.54l.35-.09 7.48 2.76-7.73-.08zm-5 2.38a.3.3 0 0 0-.31-.12h-.11l-3.11-3.5 3-.77 4.95 1.82zm1.79-6.57l.15.06-.47.12zm2 .13a.6.6 0 0 0-.7-.35l-.83.22-.25-.1 3.08-1.81a.3.3 0 0 0 .16.1l2.36.54-3.72 1.41zm2.87-2.39l5.52-.75-3.32 1.26zm-10-.86l.37-2.8 7.34 3.39zm-.16 0l-2-.15-6-2.51 6.06-1.26 2.3 1.06zm-8.22-2.8l-.72-4.2.91.26 5.83 2.69zm-1.2-4.4l-4.83 3.36-7.54-1.33-1.69-1.62 14-.42zm-12.9 1.8l-3-1.35h1.51zm-3.77-1.51l-3.85.12.77-1.52zm-4 .08l-.68-.34-.38-.09-6.56-5L346 40.3zm-8.12-5.53l6.58 5-10.35-2.37 3.33-2.67zm6.74 5.6h-.44a.09.09 0 0 0-.08.09.08.08 0 0 0 0 .08l-4.95 2.06-6.33-4.13a.29.29 0 0 0 0-.09l.68-.55zM332 39.79a.25.25 0 0 0-.12-.05l-7.43-.49-1-2 9.15 2.1zm-7.74-.56l-14.9-1-.76-4.39 14.59 3.35zm-15.06-.94l-.06.06-7.4-2.82 6.7-1.71zm-.62 0l-12.08-1.47 4.93-1.26zm-14.08-1.52l-4.42 1.13 1.6-1.47zM289.74 38l-.28.07-.69.08-6.35-.89 1-1.83 8.05 1zm-7.59-.59l-.89 1.62-14 1.63 1.36-5.13zm-22.44 4.13l-3.81.46 1-1.8zm-4 .47h-.31l-9.4-7.13 10.76 5.25zm-16.78-1.65l.79-6.83 5.16 1.06zm-.11-3.28l-.06-3.41.47-.12zm-2.15-6l-.75-3.08 1.79 4.31zm-.68-.72l-6.41-6.82-.58-2.87 5.8 4.57zm-7.06-7.5L220.52 14l7.86 6.2zm-11.24-11.09l.51.54-2.73 3.27-.34-6zm-2.6-2.92L215 6.54l2 3.94zm.05 6.78l-2.2-1.84-3.06-8.67 4.91 4.18zM207.12 3l1.37-.6.51 1.49zm-1 5l-.62-.52-.12-1.94zm.19.63l4 13.41v.24l-3.82 2.2-1-16.5zm1.09 30.39v-.12l-.76-12.51 4.82 6.79-4.33 8.9zm-.45 5.29v-.01l6.72-3.84 1.59 5.12zm8.54 1.67h.06l7.45 1.59-12.8.95zm8.82 1.77l-7.43 5.76-20.34 1.47.52-.45L209.25 49zm-28.81 8.09l.08-.06h.08l.35-.3L210 59l-2.24 2.24-11.79.53-.57-5.77zm-9.2 9.72l-.95-1.15 9.35-2.29zm-6.55 2.88l-2 5.45-3.88 1.35-3.61-2.9zm-9.32 8l-16.76 5.84-.62.14.07-2.37 10.6-4.87zM144.9 83.7l.37-1.53 6.78-1.76zm-10.74 1.75l-2 4.12-5.72 3.09 7.48-7.06zm-2.07 4.34l-.2 2.62-10.33 4.82 4.35-4.1zm-10.63 7.3l1-2.09 2.88-1.55zm-.34.33l-5.81 2.71.9-1.77 6-3.25zm-4.81.69l1.28-2.52 6.91-5.37-2.18 4.65zm1.09-2.82l-1.25-1.17.9-.84zm-.2-2.15l3.59-3.33-3.22 5.48zM116 94l-2.34-2.2 2.38-4.33 1 5.61zm-.56-5.8l-1.91 3.48-.42-.39zm-2.45 3l-.48-.45 2.91-2.75zm.45.67l-5 9.08-.79-2.41 5.35-7.12zm-5.1 9.26l-5.16 4.38.2-1.27 4.17-5.53zm-5.34 4.5l-4.83 4.09 5-5.31zm-12.69 6l.43-.94 5.2.21zm-.19 0l-5.52.72-4.17-3.79 10.14 2.09zm-.09.2l-1.74 3.78-.22-.11-3.28-3zm-2.57 3.36l-4.7-2.41 1.8-.23zm-12.63-1.8l-4-2.64 3.49-1.87 7.31 3.75zm-4.29-2.87l-.11-.07-4 .14 3.26-4.12 4.31 2.19zm-15.82.35l2.1-6 11.92 1.45zm-.34 0l-8.19-7.29 10.3 1.25zm-1.28-.66l-13.26-7.4 5.73.7zM39 102.29l-1.24-.29 4.9-1.11 2.43 2.11zm-13.4-2l-.38-1.14 10.19 2.6zm-.37-.06l-6.92-1-2.91-2.59L24.81 99zm-14.31-3.59l-5-2.42 7.84 2zm-.65.09L8.12 97 5.2 94.27zm-5.33.77l-3.11-2.41 5.49 2.07zm8.24 5.75l1.9 2.13-3.7-2.87zm6.82 2.82l8 3.27-10.7-2.62zm24.31 5.08l.71 4.13-12.29-2.86-2-2.11zm.55 4.47l-4.76 4.28-.48-.28-6.42-6.72zm-4.44 4.46l4.81-4.32 3.65 3.39-2 3-6.08-1.83zm8.71-.7l5.46 5.07-7.36-2.22zm6.21 5.28l-6-5.59 1.79-2.68 10.09 7.85zm-4-8.57l.41-.62h.46L67 123.84l-5.26.37zm16.15 8.08l7.81 4.42-7.87.12-5.31-4.13zm3.1 12l-1.52.42a.31.31 0 0 0-.08-.08h-.05l-1.09-6.36zm.15.34l1.61 3.55-3.18-3.12zm.33-.09l3.29-.9-1.08 5.48-.24-.24zm2.39 5.24l2.43 2.34-.69 1.47-1.73-3.82zm1.54 4.25l-4.18 9 2.52-12.62zm.18.4l.3.66-1.46 10-3.38-.86zm.57 18.84l1.34 6.08-.07.17-.39.22h-2.79zm1.57 5.55L76 164.48l2.89-9.82.85 10.23-.45 1.25zM79 154.23v-.07l3.84 2-3 8.38zm0-.26a.2.2 0 0 0 0-.06l2.7-5.16 1.58 6.1-.39 1.15zm4.43 1.43l.1.4-.13.45-.23-.12zm.2.09l-.1-.37.07-.19v.51zm-.24-.93l-1.57-6 1.08-2.06.64 7.68zm-.35-8.37l2.5-4.77 2.5-.73-1.56 5.25-2.81 7.83zm5.12-5.92l-2.39.7 3.7-7.07-.61 4zm-2.61.76l-2.87.84-.16-2 2.67-10.52 5.05-.49-.69 4.49zm5-12.16l1-.1-.51 1.71-1.06 2zm1.33-.71l-1-1.37 1.07-7 .1 8.32a.48.48 0 0 0-.13.05zm9.74-11l.1.13-2.7.26zm.2 0l7.51-1.12-.2.56-7.21.69zm7.24-.36l-2.36 6.61h-.2l-4.45-6zm8.81 6.93v.22l-6.1-.15zm.21.23v-.24l6.26-.07-2.47 1.15zm.15-3.42l11.42.61-3.43 1.6zm-.77-.23l-.39-4.29 6.34-.61 6.35 5.56zm-.41-4.48l-.09-.94 5-.75 1.25 1.09zm5.16-1.72l6.61-1 2 1.38-7.37.71zm6.87-1l8.92-1.41 2 1.86-8.76.84zm11 .71l2.87 2.73-5.89 2-5.68-3.87zm8.76 1.12l-6.05 4.34-8.56.59zm11.54-1.76l-3.38 2.09-3.69.29zm11.71 1.73l-16.45 6 1.69-4.8zm3-.59l2.43-1.49.33 3.22zM178 116l-.35-3.41 6.25-3.82 3 3.53-8.73 3.7zm6.23-7.37l9.37-3.19 1.21 3.49-7.62 3.24zm10.64.47l1.17 3.37-6.79 2.16-1.95-2.33zm7.61.7l3 3.27-4.21.84-4.8-1.39zm3.09 3.43l2.37 2.63-6.32-1.86zm2.87 2.66L206 113.1l5-1.68 1.9 2.09-4.29 2.33zm2.92-4.57l9-3 .44.93-7.59 4.11zm9.16-3.05l5.43-1.81-5 2.71zm-.08-.16l-2.28-4.76 5.38-.75 3.34 3.37zm3.56-5.61l8.11-1.14.81 1.93-.07.08-.09.1a1.45 1.45 0 0 0-.11.26l-.05.27-5.3 1.77zm8.54 1.74l-.68 3.5-1.68 1-2.76-2.79zm-.86 5.25l5.81.26-10.4 8.37-.82-4.78a.19.19 0 0 0 0-.07l2.56-2zm-16.07 18.78h.09l1.61 1.94-7.07 6.64-2.18 1-1.06-1.35zm-8.76 8.37l1 1.25-2.85 1.31zm1.35 1.36l1.66-.74-1.28 1.2zm3-1.76l6.24-5.86.43.52-1.11 1.51zM218 131l.28.34-1.08.74zm.11-.15l2.54-3.46a.15.15 0 0 0 .1 0l6.34-4.85-2.53 4.4a.19.19 0 0 0 0 .07l-6.14 4.24zm22.27-14.45l-.43 2-.34.26-1.75 1.31-11.25 5.87zm-.23 1.83l.4-1.86 17.58-14.59-15.82 14.77zm22.54-20l5-2.22-5 4.1v-1.87zm8.61-3.33l2.64 9.66-2.59 2.63-.45.07-3-9.61zm.14-.12l.1-.08a.78.78 0 0 0 .25-.43l6.24-.21-2.22 8.6-1.73 1.76zm4.26 8.22l-.93 3.59h-.12l-.55-2zm.23-.23l6.66-6.77 7.9 5.78-15.49 4.74zm26-3.57l2.45-3.11 6 2-4.58 2zm2.57-3.27l1.31-1.66 5.81 3.25-1 .42zm7.32 1.7l3 1.69-3.91-1.32zm0-.2l-5.65-3.17 7.18-2.45 5 2.72v.07zm18-4.11l-1.39 3.32-.15.05-.52.11-8.61-2.2zm-.82 3.1l3.07-3.4 8.05-1-8 3.3zm5.55-6.14l3.44-3.8 14.22.56L342 91.28zm23-10h.05l2 .52-.5 1.24-5.84 4.3 4.14-6zm2.29.5l.72.18-1.13.83zm.07-.17l.58-1.45 4.77-1.66-4.51 3.32zm-.16 0l-1.91-.48 2.44-.85zm-1.75-.75l3.91-4.58-1.46 3.72zm-5 6.73l-.46-5 4.81-1.28zm-.6-5.3l-6.21-.84 2.81-2.07a.58.58 0 0 0 .84.14l.37-.27 6.32-.18-4 3.18zm-1.11-3.81l2.6-1.89 1.9 1.77zm3.3-3.69l2.29-3.72.4.72a.4.4 0 0 0-.06.41l-2.51 2.57zm4.17-3.56h.19l-.4.18zm8.54-1l1.79 1.54L368 71l-7.51-1zm2.7 1.41v-1.7l.8-.09-.72 1.81zm0-1.89l.07-4.9a.37.37 0 0 0 .24-.34l2.75-.71a.34.34 0 0 0 .09.12l-2.28 5.73zm3.3-5.76a.29.29 0 0 0 .14 0l2.56 4.87-.54.27-4.39.5zm2.84 4.79l-2.56-4.9a.38.38 0 0 0 .07-.11l3.21.46-.66 4.52zm-2.44-5.2v-.11l1.09-.8.17.05a.34.34 0 0 0 .37-.27.36.36 0 0 0 0-.05l1.78-.27-.28 1.9zm3.66-1.66l.09-.63a.37.37 0 0 0 .3-.35v-.27l.52-.59.34-.09a.36.36 0 0 0 .25-.26l4.88.05v1.17zm6.54-2.15l7.11.07-7.01 1.09zm7.94-.22l-7.39-2.72 1.19-.31 4.21-.48 2 3.47zm-4.92-3.36l2.54-.66h.1l.2.33zm2.84-.65l2.15.08-2 .22zm-6 .72l-4.24-1.56 2.63-.68a.66.66 0 0 0 .33-.22l5.52 1.38zm3-4.67L392.9 52l-9.68-.07zm1.25-.47l3.49-1.32a.33.33 0 0 0 .07.09l3.32 2.8zm-3.06-.7l-.71-.16a.3.3 0 0 0-.26.07h-.28l-7.84-3.62.17-1.28 14.85 4.21zm-9.24-3.8l-2-.93 1.91-.4.28.08zm-2.3-1.06l-5-2.3 6.8 1.93zm-21.77-2.86l-3.83-3.7 17.14 3.27zm-18.5-2.81l-10-2.3-1-2 14.39 1.66zm-11.38-4.33h.09l1 2-11.1-2.56zm-30.1 1.71l-8.14-1 1-1.81 10.26-.06zm-23.12-.93l-6.6-.92 7-.51zM239.72 33l-.45-3.61 5 4.55zm-10.9-13.12l-.09-.45 2.17 2.09zM214.56 5.77v.06l.15 2.73-5.09-4.33-.54-1.55zm-8.1-3l-.74-.34h1.56zm-2.37 3.63l-1.27-1.06-.07-.34 1.25-.58zm0 .49l.56 9.32-1.74-10.32zM206.72 45a.72.72 0 0 0 0-.08.76.76 0 0 0 .08-.13l8.09 1.16-5.76 2.68-5.91.44zm-4.19 4.89v-.05l.32-.38 5.3-.39-10.15 4.7zM195.24 56l.52 5.72-10.55 2.58-2.11-2.58zm-28.89 13.57l3.52 2.82-3.12 1.28-3.06 1.4-6.09-1.14zM153 80l-7.65 2 .53-2.19 10.12-5zm-7.83 2l-7.85 2 8.37-4.17zm-19.35 11l-3.25 1.75 2.09-4.45a.3.3 0 0 0 .18 0l8.48-4.38zm-8 2.2l3.27-5.57 3.2.52zm3.1-5.74l-3.76 3.49-1-5.57 4.7 2a.3.3 0 0 0 .07.05zm-8.51 1.16l-2.5-2.34 5.92-.91zm-.13.12L109.84 93v-4.65zm-2.46 2.58l2.59-2.46.5.47-5.27 7-.27-.84zm-12.6 17.18l.48-3.39 5.27-2.67zm-.22.13l-.12.07-5.81-.23 6.42-3.25zm-4.64-1l5.26-3.31-.1.7zm-12.18-1.34l-1.62-1.47L89 110.1zm-.34-.07l-3.09-.64 1.5-.81zm.27.24l4.28 3.9-1.91.25-7.72-4 1.73-.93zm-5.72 0l-3.8-1.95 5.37 1.11zm-17.42-4l.23-.66 8 1.66zm-20-2.7l-11.92-3-.4-1.19 17.13 3.15zm-32.8-8l3.11 3-5.91-2.24zm.26 3.78L1.74 98l-.18-.1-.51-3zm25.77 12.69l1.91 2-8.81-2.05-5-2.85zm2.38 2.49l6 6.24-14.13-8.14zm22.73 12.35l11.39 10.1-13.32-7.67zm.43-.1l5.92-.42 5.65 4.4 1.25 7.3-.32-.18zm17 16l.35.78L70.47 155 69 137.3zM74 157.29l-1.07 14.36h-1.11l-1.24-15.23zM72.88 172l-.13 1.73-.8-1.72zm.86 0H76l-2.7 1.55zm9.38-15.71l.23.12-1.82 4.31zm.66-1.3v-.45l1-2.83zM90 133l.89-1.7-1.29 4.34zm2.28-5l-.11-9.25 2.48 6.57zm2.54-2.79l-2.52-6.69h.06l3.26-.49 6.33-.61 4.46 6zm23.2-1.18l-.11 2.26h-.07l-9.82-2.61zm4.39 5.3l-3.24 2.36-.76-4.4zm2.37.39l-1.58-.72 3.48-2.53zm2.27-3.87l-4.85-1.09 2.61-1.22h3.61zm1.51-2.58l-2-.55 3.19-1.49zm1.5-2.48l-6.31-5.52 7.42-.71 5.75 3.92zm12.5-1.43l-2.3 1.64-5.93-1zm.66 0l6.82-.47-8.91 2zm10.14 3.05l1.22-.44-.72 2-.69-.16zm35.64-7.53l.9 1.08h-4.31zm.36-.12l6.77-2.16 4.68 1.35-10.05 2h-.39zm23.64-1.12l1.19 1.32-5.09.8zm1.61 1.25l-1.29-1.42 7.54-4.09 1.36 2.85-7.22 2.61zm6.4-5.59l5.89-3.19h.11l2.83 2.85-2.45 1.45-5 1.8zm5.54 1.56l-3.74 2.21-.35-.74zM208.8 129.6l6.59-1.35-8.56 8.15-4.36-.49zm-6.73 6.25l-5.82 6.88-4.81 1.79 10.22-11.16.43 2.48zm-11.37 9.42a.34.34 0 0 0 .12-.08l.34-.38L196 143l-6 7.08h-.07l-1-1.43zm10.42-4.16l3.34-1.48-6 8.12-.46.25-3.46.9zm7.45-2.44l1.62 1.94a.6.6 0 0 0-.08.19l-10.44 6.2zm8.3-6.17l1.51-1 1.54 1.85-8 6zm73.83-30.61l6.58 1.15-21.6 3.44zm27.79-7.16l.2-.09 8.7 2.22L316 99.28zM340.83 92l2.06-.25-8.09 2.74zm3.27-.66l-.51.17-1.2-.16 8.19-3.39zm14.9-8.73l-.48 1.2-3.92 2zm.25-.19l1.81-1.33 1.8.46-4.11 2.14zm4-1.1l-.18.09-1.85-.47 4-2.92zm-5.78-1.38L353 81.15l3.71-2.95.07.07.08.05h.61l.09-.06.06-.06.06-.06.37-.56 3-1.84zm-2.06-4.83l3.07-.64-1.44 2.15zm5-2.52a.6.6 0 0 0-.69.14l-4.71 1 2.31-2.37a.3.3 0 0 0 .13.06.31.31 0 0 0 .27-.1l.48-.49 1.06-.49.39.06a.33.33 0 0 0 .35-.23l7.42 1zM377 63.25l6.25.9-6.9 3.51zm7.07.45l-.07-3.59 7.17-1.11zm7.93-5.33l-2-3.34 3.1-.35h1.22zm2.86-4.37l-5.34-.2-4.42-1.1 10.55.07zM203.93 3.85l-.92.4.88-1zM103.29 104.09l-5.6 2.83.1-.73 6.76-4.26zm-27.09 3.38l-5.43-1.12 6.91.32zm41.58 20.39l.74 4.29-1.46 1.06-.74.33zm1.66 5.76l-.11-.65 2.94-1.33zm52.05-17.37l2.44 3.5-7.43-1zm44.51-1.56l6.37-2.29.37.78-.79.59zm-7.37 11.92l-.07 2.77-6.32 6.31-.43-2.49.71-.77a.47.47 0 0 0 .35-.13zm54.3-24.89l3.23 6.28-13.56 2.16zm99-27.28L359 76.18l1.4-2.09.68-.14z"/><ellipse cx="269.55" cy="56.39" rx="2.91" ry="2.57" transform="rotate(-81.11 269.546 56.398)"/><ellipse cx="296.81" cy="57.73" rx="1.41" ry="1.24" transform="rotate(-81.11 296.8 57.727)"/><ellipse cx="286.31" cy="43.44" rx="1.41" ry="1.24" transform="rotate(-81.11 286.313 43.439)"/><ellipse cx="265.92" cy="44.9" rx="1.41" ry="1.24" transform="rotate(-81.11 265.915 44.91)"/><ellipse cx="238.27" cy="40.53" rx="2.91" ry="2.57" transform="rotate(-81.11 238.26 40.537)"/><ellipse cx="306.18" cy="78.99" rx="2.91" ry="2.57" transform="rotate(-81.11 306.17 78.995)"/><ellipse cx="232.32" cy="108.59" rx="2.91" ry="2.57" transform="rotate(-81.11 232.31 108.593)"/><ellipse cx="270.15" cy="94.01" rx="2.91" ry="2.57" transform="rotate(-81.11 270.14 94.013)"/><ellipse cx="153.25" cy="95.86" rx="2.91" ry="2.57" transform="rotate(-81.11 153.248 95.857)"/><ellipse cx="92.21" cy="118.22" rx="2.91" ry="2.57" transform="rotate(-81.11 92.208 118.219)"/><ellipse cx="68.75" cy="136.55" rx="2.91" ry="2.57" transform="rotate(-81.11 68.74 136.547)"/><ellipse cx="54.29" cy="110.99" rx="2.91" ry="2.57" transform="rotate(-81.11 54.29 110.983)"/><ellipse cx="196.33" cy="94.9" rx="2.91" ry="2.57" transform="rotate(-81.11 196.316 94.898)"/><ellipse cx="325.02" cy="40.56" rx="1.41" ry="1.24" transform="rotate(-81.11 325.006 40.568)"/><ellipse cx="308.62" cy="33.84" rx="1.41" ry="1.24" transform="rotate(-81.11 308.607 33.852)"/><ellipse cx="328.46" cy="97.38" rx="1.41" ry="1.24" transform="rotate(-81.11 328.447 97.39)"/><ellipse cx="245.31" cy="34.12" rx="1.41" ry="1.24" transform="rotate(-81.11 245.305 34.126)"/><ellipse cx="280.65" cy="85.24" rx="1.41" ry="1.24" transform="rotate(-81.11 280.634 85.24)"/><ellipse cx="382.59" cy="52.4" rx="1.41" ry="1.24" transform="rotate(-81.11 382.584 52.4)"/><ellipse cx="366.18" cy="41.63" rx="1.41" ry="1.24" transform="rotate(-81.1 366.207 41.622)"/><ellipse cx="327.93" cy="83.77" rx="1.41" ry="1.24" transform="rotate(-81.11 327.918 83.778)"/><ellipse cx="353.52" cy="87.24" rx="1.41" ry="1.24" transform="rotate(-81.11 353.506 87.244)"/><ellipse cx="369.94" cy="71.33" rx="1.41" ry="1.24" transform="rotate(-81.11 369.924 71.334)"/><ellipse cx="298.69" cy="98.5" rx="1.41" ry="1.24" transform="rotate(-81.11 298.683 98.508)"/><ellipse cx="169.65" cy="67.5" rx="1.41" ry="1.24" transform="rotate(-81.11 169.643 67.508)"/><ellipse cx="205.13" cy="82.92" rx="1.41" ry="1.24" transform="rotate(-81.11 205.115 82.923)"/><ellipse cx="238.56" cy="71.93" rx="1.41" ry="1.24" transform="rotate(-81.11 238.557 71.935)"/><ellipse cx="217.82" cy="60.72" rx="1.41" ry="1.24" transform="rotate(-81.11 217.81 60.72)"/><ellipse cx="246.55" cy="96.31" rx="1.41" ry="1.24" transform="rotate(-81.11 246.534 96.312)"/><ellipse cx="214.18" cy="120.39" rx="1.41" ry="1.24" transform="rotate(-81.11 214.175 120.393)"/><ellipse cx="194.86" cy="55.13" rx="1.41" ry="1.24" transform="rotate(-81.11 194.845 55.136)"/><ellipse cx="204.44" cy="1.41" rx="1.41" ry="1.24" transform="rotate(-81.11 204.446 1.408)"/><ellipse cx="202.19" cy="5.13" rx="1.41" ry="1.24" transform="rotate(-81.11 202.188 5.134)"/><ellipse cx="215.5" cy="15.68" rx="1.41" ry="1.24" transform="rotate(-81.11 215.493 15.69)"/><ellipse cx="215.69" cy="45.27" rx="1.41" ry="1.24" transform="rotate(-81.11 215.688 45.27)"/><ellipse cx="208.47" cy="115.86" rx="1.41" ry="1.24" transform="rotate(-81.11 208.467 115.863)"/><ellipse cx="202.47" cy="131.71" rx="1.41" ry="1.24" transform="rotate(-81.11 202.461 131.716)"/><ellipse cx="210.4" cy="141.45" rx="1.41" ry="1.24" transform="rotate(-81.11 210.39 141.446)"/><ellipse cx="190.57" cy="150.11" rx="1.41" ry="1.24" transform="rotate(-81.11 190.562 150.116)"/><ellipse cx="250.91" cy="110.71" rx="1.41" ry="1.24" transform="rotate(-81.11 250.904 110.71)"/><ellipse cx="152.64" cy="82.86" rx="1.41" ry="1.24" transform="rotate(-81.11 152.636 82.863)"/><ellipse cx="175.01" cy="114" rx="1.41" ry="1.24" transform="rotate(-81.11 175.002 113.997)"/><ellipse cx="190.6" cy="84.32" rx="1.41" ry="1.24" transform="rotate(-81.11 190.59 84.32)"/><ellipse cx="136.92" cy="83.45" rx="1.41" ry="1.24" transform="rotate(-81.11 136.908 83.453)"/><ellipse cx="120.98" cy="89.16" rx="1.41" ry="1.24" transform="rotate(-81.11 120.979 89.164)"/><ellipse cx="115.17" cy="100.93" rx="1.41" ry="1.24" transform="rotate(-81.11 115.163 100.928)"/><ellipse cx="118.19" cy="126.62" rx="1.41" ry="1.24" transform="rotate(-81.11 118.18 126.617)"/><ellipse cx="106.92" cy="123.94" rx="1.41" ry="1.24" transform="rotate(-81.11 106.916 123.942)"/><ellipse cx="137.88" cy="111.09" rx="1.41" ry="1.24" transform="rotate(-81.11 137.873 111.091)"/><ellipse cx="39.96" cy="120.26" rx="1.41" ry="1.24" transform="rotate(-81.11 39.957 120.257)"/><ellipse cx="1.25" cy="98.54" rx="1.41" ry="1.24" transform="rotate(-81.11 1.25 98.531)"/><ellipse cx="24.56" cy="97.11" rx="1.41" ry="1.24" transform="rotate(-81.11 24.555 97.107)"/><ellipse cx="77.83" cy="134.57" rx="1.41" ry="1.24" transform="rotate(-81.11 77.825 134.565)"/><ellipse cx="78.69" cy="154.02" rx="1.41" ry="1.24" transform="rotate(-81.11 78.683 154.013)"/><ellipse cx="72.72" cy="174.22" rx="1.41" ry="1.24" transform="rotate(-81.11 72.71 174.216)"/></g></svg>