<svg xmlns="http://www.w3.org/2000/svg" viewBox="0 0 1680 800"><style>path{opacity:0;stroke-width:1.5px}</style><path d="M1642 747l174 41 1-142z" fill="#ff6400" stroke="#ff6400"><animate attributeType="CSS" attributeName="opacity" from="0" to="1" dur="0.5s" begin="0.1s" fill="freeze" repeatCount="1"/></path><path d="M1788 502l-146 245 175-101z" fill="#ff7600" stroke="#ff7600"><animate attributeType="CSS" attributeName="opacity" from="0" to="1" dur="0.5s" begin="0.15s" fill="freeze" repeatCount="1"/></path><path d="M1719-187l-78 107 165 27z" fill="#ff6800" stroke="#ff6800"><animate attributeType="CSS" attributeName="opacity" from="0" to="1" dur="0.5s" begin="0.2s" fill="freeze" repeatCount="1"/></path><path d="M1448-289l271 102 92-118z" fill="#ff6100" stroke="#ff6100"><animate attributeType="CSS" attributeName="opacity" from="0" to="1" dur="0.5s" begin="0.25s" fill="freeze" repeatCount="1"/></path><path d="M1642 747l27 99 147-58z" fill="#ff6b00" stroke="#ff6b00"><animate attributeType="CSS" attributeName="opacity" from="0" to="1" dur="0.5s" begin="0.3s" fill="freeze" repeatCount="1"/></path><path d="M1504 628l138 119 146-245z" fill="#ff8000" stroke="#ff8000"><animate attributeType="CSS" attributeName="opacity" from="0" to="1" dur="0.5s" begin="0.35s" fill="freeze" repeatCount="1"/></path><path d="M1715 261l-204 46 277 195z" fill="#ff7c00" stroke="#ff7c00"><animate attributeType="CSS" attributeName="opacity" from="0" to="1" dur="0.5s" begin="0.4s" fill="freeze" repeatCount="1"/></path><path d="M1641-80l-70 52 197 135z" fill="#ff7900" stroke="#ff7900"><animate attributeType="CSS" attributeName="opacity" from="0" to="1" dur="0.5s" begin="0.4s" fill="freeze" repeatCount="1"/></path><path d="M1511 307l-7 321 284-126z" fill="#ff8f00" stroke="#ff8f00"><animate attributeType="CSS" attributeName="opacity" from="0" to="1" dur="0.5s" begin="0.42s" fill="freeze" repeatCount="1"/></path><path d="M1719-187l87 134 5-252z" fill="#ff5b00" stroke="#ff5b00"><animate attributeType="CSS" attributeName="opacity" from="0" to="1" dur="0.5s" begin="0.43s" fill="freeze" repeatCount="1"/></path><path d="M1489 128l226 133 53-154z" fill="#ff7200" stroke="#ff7200"><animate attributeType="CSS" attributeName="opacity" from="0" to="1" dur="0.5s" begin="0.44s" fill="freeze" repeatCount="1"/></path><path d="M1571-28l-82 156 279-21z" fill="#ff8100" stroke="#ff8100"><animate attributeType="CSS" attributeName="opacity" from="0" to="1" dur="0.5s" begin="0.46s" fill="freeze" repeatCount="1"/></path><path d="M1440 584l64 44 7-321z" fill="#ff8b00" stroke="#ff8b00"><animate attributeType="CSS" attributeName="opacity" from="0" to="1" dur="0.5s" begin="0.48s" fill="freeze" repeatCount="1"/></path><path d="M1669 846l-85 69 120 59z" fill="#f70" stroke="#f70"><animate attributeType="CSS" attributeName="opacity" from="0" to="1" dur="0.5s" begin="0.5s" fill="freeze" repeatCount="1"/></path><path d="M1489 128l22 179 204-46z" fill="#ff7a01" stroke="#ff7a01"><animate attributeType="CSS" attributeName="opacity" from="0" to="1" dur="0.5s" begin="0.52s" fill="freeze" repeatCount="1"/></path><path d="M1448-289l193 209 78-107z" fill="#ff6c01" stroke="#ff6c01"><animate attributeType="CSS" attributeName="opacity" from="0" to="1" dur="0.5s" begin="0.54s" fill="freeze" repeatCount="1"/></path><path d="M874-308l249 75 238-38z" fill="#ff7400" stroke="#ff7400"><animate attributeType="CSS" attributeName="opacity" from="0" to="1" dur="0.5s" begin="0.56s" fill="freeze" repeatCount="1"/></path><path d="M1584 915l-30 97 150-38z" fill="#ff7200" stroke="#ff7200"><animate attributeType="CSS" attributeName="opacity" from="0" to="1" dur="0.5s" begin="0.58s" fill="freeze" repeatCount="1"/></path><path d="M1642 747l-58 168 85-69z" fill="#f70" stroke="#f70"><animate attributeType="CSS" attributeName="opacity" from="0" to="1" dur="0.5s" begin="0.60s" fill="freeze" repeatCount="1"/></path><path d="M1448-289l123 261 70-52z" fill="#ff7301" stroke="#ff7301"><animate attributeType="CSS" attributeName="opacity" from="0" to="1" dur="0.5s" begin="0.62s" fill="freeze" repeatCount="1"/></path><path d="M1380 798l204 117 58-168z" fill="#ff7900" stroke="#ff7900"><animate attributeType="CSS" attributeName="opacity" from="0" to="1" dur="0.5s" begin="0.64s" fill="freeze" repeatCount="1"/></path><path d="M1504 628l-124 170 262-51z" fill="#ff7300" stroke="#ff7300"><animate attributeType="CSS" attributeName="opacity" from="0" to="1" dur="0.5s" begin="0.66s" fill="freeze" repeatCount="1"/></path><path d="M1448-289l-154 123 277 138z" fill="#ff6800" stroke="#ff6800"><animate attributeType="CSS" attributeName="opacity" from="0" to="1" dur="0.5s" begin="0.68s" fill="freeze" repeatCount="1"/></path><path d="M1380 798l174 214 30-97z" fill="#ff7b00" stroke="#ff7b00"><animate attributeType="CSS" attributeName="opacity" from="0" to="1" dur="0.5s" begin="0.70s" fill="freeze" repeatCount="1"/></path><path d="M1240 45l249 83 82-156z" fill="#ff7d00" stroke="#ff7d00"><animate attributeType="CSS" attributeName="opacity" from="0" to="1" dur="0.5s" begin="0.72s" fill="freeze" repeatCount="1"/></path><path d="M1294-166l-54 211 331-73z" fill="#ff6d00" stroke="#ff6d00"><animate attributeType="CSS" attributeName="opacity" from="0" to="1" dur="0.5s" begin="0.74s" fill="freeze" repeatCount="1"/></path><path d="M1361-271l-67 105 154-123z" fill="#ff5b00" stroke="#ff5b00"><animate attributeType="CSS" attributeName="opacity" from="0" to="1" dur="0.5s" begin="0.76s" fill="freeze" repeatCount="1"/></path><path d="M1380 798l-117 212 291 2z" fill="#ff6f00" stroke="#ff6f00"><animate attributeType="CSS" attributeName="opacity" from="0" to="1" dur="0.5s" begin="0.78s" fill="freeze" repeatCount="1"/></path><path d="M1440 584l-60 214 124-170z" fill="#f70" stroke="#f70"><animate attributeType="CSS" attributeName="opacity" from="0" to="1" dur="0.5s" begin="0.80s" fill="freeze" repeatCount="1"/></path><path d="M1248 542l192 42 71-277z" fill="#ff8700" stroke="#ff8700"><animate attributeType="CSS" attributeName="opacity" from="0" to="1" dur="0.5s" begin="0.82s" fill="freeze" repeatCount="1"/></path><path d="M1233 226l15 316 263-235z" fill="#ff7a00" stroke="#ff7a00"><animate attributeType="CSS" attributeName="opacity" from="0" to="1" dur="0.5s" begin="0.84s" fill="freeze" repeatCount="1"/></path><path d="M1489 128l-256 98 278 81z" fill="#ff6e00" stroke="#ff6e00"><animate attributeType="CSS" attributeName="opacity" from="0" to="1" dur="0.5s" begin="0.86s" fill="freeze" repeatCount="1"/></path><path d="M1240 45l-7 181 256-98z" fill="#ff7300" stroke="#ff7300"><animate attributeType="CSS" attributeName="opacity" from="0" to="1" dur="0.5s" begin="0.88s" fill="freeze" repeatCount="1"/></path><path d="M1202 108l31 118 7-181z" fill="#ff7f00" stroke="#ff7f00"><animate attributeType="CSS" attributeName="opacity" from="0" to="1" dur="0.5s" begin="0.90s" fill="freeze" repeatCount="1"/></path><path d="M1221 718l159 80 60-214z" fill="#ff6d00" stroke="#ff6d00"><animate attributeType="CSS" attributeName="opacity" from="0" to="1" dur="0.5s" begin="0.94s" fill="freeze" repeatCount="1"/></path><path d="M1248 542l-27 176 219-134z" fill="#ff8000" stroke="#ff8000"><animate attributeType="CSS" attributeName="opacity" from="0" to="1" dur="0.5s" begin="1s" fill="freeze" repeatCount="1"/></path><path d="M1233 226l-156 201 171 115z" fill="#ff8e00" stroke="#ff8e00"><animate attributeType="CSS" attributeName="opacity" from="0" to="1" dur="0.5s" begin="1.05s" fill="freeze" repeatCount="1"/></path><path d="M1221 718l42 292 117-212z" fill="#f70" stroke="#f70"><animate attributeType="CSS" attributeName="opacity" from="0" to="1" dur="0.5s" begin="1.1s" fill="freeze" repeatCount="1"/></path><path d="M1123-233l171 67 67-105z" fill="#ff6800" stroke="#ff6800"><animate attributeType="CSS" attributeName="opacity" from="0" to="1" dur="0.5s" begin="1.15s" fill="freeze" repeatCount="1"/></path><path d="M1221 718l-156 222 198 70z" fill="#ff8601" stroke="#ff8601"><animate attributeType="CSS" attributeName="opacity" from="0" to="1" dur="0.5s" begin="1.20s" fill="freeze" repeatCount="1"/></path><path d="M1114-32l126 77 54-211z" fill="#ff7d00" stroke="#ff7d00"><animate attributeType="CSS" attributeName="opacity" from="0" to="1" dur="0.5s" begin="1.25s" fill="freeze" repeatCount="1"/></path><path d="M1123-233l-9 201 180-134z" fill="#ff7901" stroke="#ff7901"><animate attributeType="CSS" attributeName="opacity" from="0" to="1" dur="0.5s" begin="1.3s" fill="freeze" repeatCount="1"/></path><path d="M1046 239l31 188 156-201z" fill="#ff8901" stroke="#ff8901"><animate attributeType="CSS" attributeName="opacity" from="0" to="1" dur="0.5s" begin="1.35s" fill="freeze" repeatCount="1"/></path><path d="M1096 600l125 118 27-176z" fill="#ff8b00" stroke="#ff8b00"><animate attributeType="CSS" attributeName="opacity" from="0" to="1" dur="0.5s" begin="1.4s" fill="freeze" repeatCount="1"/></path><path d="M1065 940l43 127 155-57z" fill="#ff7900" stroke="#ff7900"><animate attributeType="CSS" attributeName="opacity" from="0" to="1" dur="0.5s" begin="1.45s" fill="freeze" repeatCount="1"/></path><path d="M1077 427l19 173 152-58z" fill="#ff9700" stroke="#ff9700"><animate attributeType="CSS" attributeName="opacity" from="0" to="1" dur="0.5s" begin="1.5s" fill="freeze" repeatCount="1"/></path><path d="M1202 108l-156 131 187-13z" fill="#ff7e01" stroke="#ff7e01"><animate attributeType="CSS" attributeName="opacity" from="0" to="1" dur="0.5s" begin="1.55s" fill="freeze" repeatCount="1"/></path><path d="M1114-32l88 140 38-63z" fill="#ff8900" stroke="#ff8900"><animate attributeType="CSS" attributeName="opacity" from="0" to="1" dur="0.5s" begin="1.6s" fill="freeze" repeatCount="1"/></path><path d="M1096 600l-31 340 156-222z" fill="#ff7d00" stroke="#ff7d00"><animate attributeType="CSS" attributeName="opacity" from="0" to="1" dur="0.5s" begin="1.65s" fill="freeze" repeatCount="1"/></path><path d="M870 798l195 142 31-340z" fill="#ff8500" stroke="#ff8500"><animate attributeType="CSS" attributeName="opacity" from="0" to="1" dur="0.5s" begin="1.7s" fill="freeze" repeatCount="1"/></path><path d="M1114-32L929 143l273-35z" fill="#ff8f00" stroke="#ff8f00"><animate attributeType="CSS" attributeName="opacity" from="0" to="1" dur="0.5s" begin="1.75s" fill="freeze" repeatCount="1"/></path><path d="M929 143l117 96 156-131z" fill="#ff8601" stroke="#ff8601"><animate attributeType="CSS" attributeName="opacity" from="0" to="1" dur="0.5s" begin="1.8s" fill="freeze" repeatCount="1"/></path><path d="M844 751l26 47 226-198z" fill="#ff8900" stroke="#ff8900"><animate attributeType="CSS" attributeName="opacity" from="0" to="1" dur="0.5s" begin="1.85s" fill="freeze" repeatCount="1"/></path><path d="M1077 427l-147 54 166 119z" fill="#ff9d00" stroke="#ff9d00"><animate attributeType="CSS" attributeName="opacity" from="0" to="1" dur="0.5s" begin="1.9s" fill="freeze" repeatCount="1"/></path><path d="M882-64l47 207 185-175z" fill="#ff9100" stroke="#ff9100"><animate attributeType="CSS" attributeName="opacity" from="0" to="1" dur="0.5s" begin="1.95s" fill="freeze" repeatCount="1"/></path><path d="M882-64l232 32 9-201z" fill="#ff8300" stroke="#ff8300"><animate attributeType="CSS" attributeName="opacity" from="0" to="1" dur="0.5s" begin="2.0s" fill="freeze" repeatCount="1"/></path><path d="M874-308l8 244 241-169z" fill="#ff7f00" stroke="#ff7f00"><animate attributeType="CSS" attributeName="opacity" from="0" to="1" dur="0.5s" begin="2.05s" fill="freeze" repeatCount="1"/></path><path d="M828 691l16 60 252-151z" fill="#ff8d00" stroke="#ff8d00"><animate attributeType="CSS" attributeName="opacity" from="0" to="1" dur="0.5s" begin="2.1s" fill="freeze" repeatCount="1"/></path><path d="M1065 940l-138 98 181 29z" fill="#ff7e00" stroke="#ff7e00"><animate attributeType="CSS" attributeName="opacity" from="0" to="1" dur="0.5s" begin="2.15s" fill="freeze" repeatCount="1"/></path><path d="M1046 239L930 481l147-54z" fill="#ff9500" stroke="#ff9500"><animate attributeType="CSS" attributeName="opacity" from="0" to="1" dur="0.5s" begin="2.2s" fill="freeze" repeatCount="1"/></path><path d="M930 481L828 691l268-91z" fill="#ff9a00" stroke="#ff9a00"><animate attributeType="CSS" attributeName="opacity" from="0" to="1" dur="0.5s" begin="2.25s" fill="freeze" repeatCount="1"/></path><path d="M874-308l-52 185 60 59z" fill="#ff7c00" stroke="#ff7c00"><animate attributeType="CSS" attributeName="opacity" from="0" to="1" dur="0.5s" begin="2.3s" fill="freeze" repeatCount="1"/></path><path d="M886 217l44 264 116-242z" fill="#ff9000" stroke="#ff9000"><animate attributeType="CSS" attributeName="opacity" from="0" to="1" dur="0.5s" begin="2.35s" fill="freeze" repeatCount="1"/></path><path d="M870 798l57 240 138-98z" fill="#ff8d00" stroke="#ff8d00"><animate attributeType="CSS" attributeName="opacity" from="0" to="1" dur="0.5s" begin="2.4s" fill="freeze" repeatCount="1"/></path><path d="M886 217l-55 224 99 40z" fill="#ff9400" stroke="#ff9400"><animate attributeType="CSS" attributeName="opacity" from="0" to="1" dur="0.5s" begin="2.45s" fill="freeze" repeatCount="1"/></path><path d="M929 143l-43 74 160 22z" fill="#f80" stroke="#f80"><animate attributeType="CSS" attributeName="opacity" from="0" to="1" dur="0.5s" begin="2.5s" fill="freeze" repeatCount="1"/></path><path d="M87-292l193 65 411-89z" fill="#ff6c00" stroke="#ff6c00"><animate attributeType="CSS" attributeName="opacity" from="0" to="1" dur="0.5s" begin="2.55s" fill="freeze" repeatCount="1"/></path><path d="M796 239l35 202 55-224z" fill="#f80" stroke="#f80"><animate attributeType="CSS" attributeName="opacity" from="0" to="1" dur="0.5s" begin="2.6s" fill="freeze" repeatCount="1"/></path><path d="M870 798l-65 33 122 207z" fill="#ff8c00" stroke="#ff8c00"><animate attributeType="CSS" attributeName="opacity" from="0" to="1" dur="0.5s" begin="2.65s" fill="freeze" repeatCount="1"/></path><path d="M805 831l-7 197 129 10z" fill="#ff8000" stroke="#ff8000"><animate attributeType="CSS" attributeName="opacity" from="0" to="1" dur="0.5s" begin="2.7s" fill="freeze" repeatCount="1"/></path><path d="M882-64L720 136l209 7z" fill="#ff8d00" stroke="#ff8d00"><animate attributeType="CSS" attributeName="opacity" from="0" to="1" dur="0.5s" begin="2.75s" fill="freeze" repeatCount="1"/></path><path d="M831 441l-3 250 102-210z" fill="#ff9800" stroke="#ff9800"><animate attributeType="CSS" attributeName="opacity" from="0" to="1" dur="0.5s" begin="2.8s" fill="freeze" repeatCount="1"/></path><path d="M720 136l166 81 43-74z" fill="#ff8300" stroke="#ff8300"><animate attributeType="CSS" attributeName="opacity" from="0" to="1" dur="0.5s" begin="2.85s" fill="freeze" repeatCount="1"/></path><path d="M632 549l196 142 3-250z" fill="#ff8f01" stroke="#ff8f01"><animate attributeType="CSS" attributeName="opacity" from="0" to="1" dur="0.5s" begin="2.88s" fill="freeze" repeatCount="1"/></path><path d="M691-316l131 193 52-185z" fill="#ff7000" stroke="#ff7000"><animate attributeType="CSS" attributeName="opacity" from="0" to="1" dur="0.5s" begin="2.9s" fill="freeze" repeatCount="1"/></path><path d="M822-123L720 136 882-64z" fill="#ff8500" stroke="#ff8500"><animate attributeType="CSS" attributeName="opacity" from="0" to="1" dur="0.5s" begin="2.92s" fill="freeze" repeatCount="1"/></path><path d="M720 136l76 103 90-22z" fill="#ff7d01" stroke="#ff7d01"><animate attributeType="CSS" attributeName="opacity" from="0" to="1" dur="0.5s" begin="2.94s" fill="freeze" repeatCount="1"/></path><path d="M844 751l-39 80 65-33z" fill="#ff8100" stroke="#ff8100"><animate attributeType="CSS" attributeName="opacity" from="0" to="1" dur="0.5s" begin="2.96s" fill="freeze" repeatCount="1"/></path><path d="M640 1017l158 11 7-197z" fill="#ff7900" stroke="#ff7900"><animate attributeType="CSS" attributeName="opacity" from="0" to="1" dur="0.5s" begin="2.98s" fill="freeze" repeatCount="1"/></path><path d="M545-19l175 155 102-259z" fill="#ff7f01" stroke="#ff7f01"><animate attributeType="CSS" attributeName="opacity" from="0" to="1" dur="0.5s" begin="3s" fill="freeze" repeatCount="1"/></path><path d="M691-316l-86 117 217 76z" fill="#ff6b01" stroke="#ff6b01"><animate attributeType="CSS" attributeName="opacity" from="0" to="1" dur="0.5s" begin="3.02s" fill="freeze" repeatCount="1"/></path><path d="M796 239L499 340l332 101z" fill="#ff8201" stroke="#ff8201"><animate attributeType="CSS" attributeName="opacity" from="0" to="1" dur="0.5s" begin="3.04s" fill="freeze" repeatCount="1"/></path><path d="M828 691l-23 140 39-80z" fill="#ff7c00" stroke="#ff7c00"><animate attributeType="CSS" attributeName="opacity" from="0" to="1" dur="0.5s" begin="3.06s" fill="freeze" repeatCount="1"/></path><path d="M602 189L499 340l297-101z" fill="#ff7701" stroke="#ff7701"><animate attributeType="CSS" attributeName="opacity" from="0" to="1" dur="0.5s" begin="3.08s" fill="freeze" repeatCount="1"/></path><path d="M571 676l234 155 23-140z" fill="#ff7500" stroke="#ff7500"><animate attributeType="CSS" attributeName="opacity" from="0" to="1" dur="0.5s" begin="3.10s" fill="freeze" repeatCount="1"/></path><path d="M632 549l-61 127 257 15z" fill="#ff8200" stroke="#ff8200"><animate attributeType="CSS" attributeName="opacity" from="0" to="1" dur="0.5s" begin="3.12s" fill="freeze" repeatCount="1"/></path><path d="M499 340l133 209 199-108z" fill="#ff8b00" stroke="#ff8b00"><animate attributeType="CSS" attributeName="opacity" from="0" to="1" dur="0.5s" begin="3.14s" fill="freeze" repeatCount="1"/></path><path d="M605-199L545-19l277-104z" fill="#ff7201" stroke="#ff7201"><animate attributeType="CSS" attributeName="opacity" from="0" to="1" dur="0.5s" begin="3.16s" fill="freeze" repeatCount="1"/></path><path d="M514 848l126 169 165-186z" fill="#ff7c01" stroke="#ff7c01"><animate attributeType="CSS" attributeName="opacity" from="0" to="1" dur="0.5s" begin="3.18s" fill="freeze" repeatCount="1"/></path><path d="M571 676l-57 172 291-17z" fill="#ff7200" stroke="#ff7200"><animate attributeType="CSS" attributeName="opacity" from="0" to="1" dur="0.5s" begin="3.2s" fill="freeze" repeatCount="1"/></path><path d="M720 136l-118 53 194 50z" fill="#ff7601" stroke="#ff7601"><animate attributeType="CSS" attributeName="opacity" from="0" to="1" dur="0.5s" begin="3.24s" fill="freeze" repeatCount="1"/></path><path d="M545-19l57 208 118-53z" fill="#ff7c00" stroke="#ff7c00"><animate attributeType="CSS" attributeName="opacity" from="0" to="1" dur="0.5s" begin="3.28s" fill="freeze" repeatCount="1"/></path><path d="M404-163l201-36 86-117z" fill="#ff6101" stroke="#ff6101"><animate attributeType="CSS" attributeName="opacity" from="0" to="1" dur="0.5s" begin="3.3s" fill="freeze" repeatCount="1"/></path><path d="M280-227l124 64 287-153z" fill="#ff6500" stroke="#ff6500"><animate attributeType="CSS" attributeName="opacity" from="0" to="1" dur="0.5s" begin="3.32s" fill="freeze" repeatCount="1"/></path><path d="M499 340l-62 242 195-33z" fill="#ff8700" stroke="#ff8700"><animate attributeType="CSS" attributeName="opacity" from="0" to="1" dur="0.5s" begin="3.34s" fill="freeze" repeatCount="1"/></path><path d="M514 848l-60 27 186 142z" fill="#ff7301" stroke="#ff7301"><animate attributeType="CSS" attributeName="opacity" from="0" to="1" dur="0.5s" begin="3.36s" fill="freeze" repeatCount="1"/></path><path d="M454 875l-86 165 272-23z" fill="#ff6d00" stroke="#ff6d00"><animate attributeType="CSS" attributeName="opacity" from="0" to="1" dur="0.5s" begin="3.38s" fill="freeze" repeatCount="1"/></path><path d="M437 582l134 94 61-127z" fill="#ff8001" stroke="#ff8001"><animate attributeType="CSS" attributeName="opacity" from="0" to="1" dur="0.5s" begin="3.4s" fill="freeze" repeatCount="1"/></path><path d="M545-19L370 27l232 162z" fill="#ff7c00" stroke="#ff7c00"><animate attributeType="CSS" attributeName="opacity" from="0" to="1" dur="0.5s" begin="3.44s" fill="freeze" repeatCount="1"/></path><path d="M404-163L545-19l60-180z" fill="#ff6a01" stroke="#ff6a01"><animate attributeType="CSS" attributeName="opacity" from="0" to="1" dur="0.5s" begin="3.46s" fill="freeze" repeatCount="1"/></path><path d="M304 264l195 76 103-151z" fill="#ff7601" stroke="#ff7601"><animate attributeType="CSS" attributeName="opacity" from="0" to="1" dur="0.5s" begin="3.48s" fill="freeze" repeatCount="1"/></path><path d="M370 27l-66 237 298-75z" fill="#ff7800" stroke="#ff7800"><animate attributeType="CSS" attributeName="opacity" from="0" to="1" dur="0.5s" begin="3.50s" fill="freeze" repeatCount="1"/></path><path d="M330 645l184 203 57-172z" fill="#ff7000" stroke="#ff7000"><animate attributeType="CSS" attributeName="opacity" from="0" to="1" dur="0.5s" begin="3.52s" fill="freeze" repeatCount="1"/></path><path d="M437 582l-107 63 241 31z" fill="#ff8100" stroke="#ff8100"><animate attributeType="CSS" attributeName="opacity" from="0" to="1" dur="0.5s" begin="3.54s" fill="freeze" repeatCount="1"/></path><path d="M330 645l124 230 60-27z" fill="#ff7400" stroke="#ff7400"><animate attributeType="CSS" attributeName="opacity" from="0" to="1" dur="0.5s" begin="3.56s" fill="freeze" repeatCount="1"/></path><path d="M404-163L370 27l175-46z" fill="#ff7701" stroke="#ff7701"><animate attributeType="CSS" attributeName="opacity" from="0" to="1" dur="0.5s" begin="3.58s" fill="freeze" repeatCount="1"/></path><path d="M304 264l133 318 62-242z" fill="#ff8700" stroke="#ff8700"><animate attributeType="CSS" attributeName="opacity" from="0" to="1" dur="0.5s" begin="4s" fill="freeze" repeatCount="1"/></path><path d="M304 264L153 423l284 159z" fill="#ff9000" stroke="#ff9000"><animate attributeType="CSS" attributeName="opacity" from="0" to="1" dur="0.5s" begin="4.02s" fill="freeze" repeatCount="1"/></path><path d="M104 1028l-86 72 350-60z" fill="#ff6900" stroke="#ff6900"><animate attributeType="CSS" attributeName="opacity" from="0" to="1" dur="0.5s" begin="4.04s" fill="freeze" repeatCount="1"/></path><path d="M237 106l67 158 66-237z" fill="#ff8200" stroke="#ff8200"><animate attributeType="CSS" attributeName="opacity" from="0" to="1" dur="0.5s" begin="4.06s" fill="freeze" repeatCount="1"/></path><path d="M153 423l177 222 107-63z" fill="#ff9100" stroke="#ff9100"><animate attributeType="CSS" attributeName="opacity" from="0" to="1" dur="0.5s" begin="4.08s" fill="freeze" repeatCount="1"/></path><path d="M153 945l215 95 86-165z" fill="#ff7d00" stroke="#ff7d00"><animate attributeType="CSS" attributeName="opacity" from="0" to="1" dur="0.5s" begin="4.10s" fill="freeze" repeatCount="1"/></path><path d="M330 645L153 945l301-70z" fill="#ff8000" stroke="#ff8000"><animate attributeType="CSS" attributeName="opacity" from="0" to="1" dur="0.5s" begin="4.12s" fill="freeze" repeatCount="1"/></path><path d="M105 666l48 279 177-300z" fill="#ff7000" stroke="#ff7000"><animate attributeType="CSS" attributeName="opacity" from="0" to="1" dur="0.5s" begin="4.14s" fill="freeze" repeatCount="1"/></path><path d="M280-227l90 254 34-190z" fill="#ff7800" stroke="#ff7800"><animate attributeType="CSS" attributeName="opacity" from="0" to="1" dur="0.5s" begin="4.16s" fill="freeze" repeatCount="1"/></path><path d="M237 106l-5 121 72 37z" fill="#f70" stroke="#f70"><animate attributeType="CSS" attributeName="opacity" from="0" to="1" dur="0.5s" begin="4.18s" fill="freeze" repeatCount="1"/></path><path d="M280-227L95-164 370 27z" fill="#ff7400" stroke="#ff7400"><animate attributeType="CSS" attributeName="opacity" from="0" to="1" dur="0.5s" begin="4.20s" fill="freeze" repeatCount="1"/></path><path d="M95-164l142 270 133-79z" fill="#ff7f00" stroke="#ff7f00"><animate attributeType="CSS" attributeName="opacity" from="0" to="1" dur="0.5s" begin="4.22s" fill="freeze" repeatCount="1"/></path><path d="M153 945l-49 83 264 12z" fill="#ff6f00" stroke="#ff6f00"><animate attributeType="CSS" attributeName="opacity" from="0" to="1" dur="0.5s" begin="4.24s" fill="freeze" repeatCount="1"/></path><path d="M95-164L75 58l162 48z" fill="#ff7900" stroke="#ff7900"><animate attributeType="CSS" attributeName="opacity" from="0" to="1" dur="0.5s" begin="4.26s" fill="freeze" repeatCount="1"/></path><path d="M232 227l-79 196 151-159z" fill="#ff7f01" stroke="#ff7f01"><animate attributeType="CSS" attributeName="opacity" from="0" to="1" dur="0.5s" begin="4.28s" fill="freeze" repeatCount="1"/></path><path d="M153 423l-48 243 225-21z" fill="#f80" stroke="#f80"><animate attributeType="CSS" attributeName="opacity" from="0" to="1" dur="0.5s" begin="4.30s" fill="freeze" repeatCount="1"/></path><path d="M59 482l46 184 48-243z" fill="#ff8500" stroke="#ff8500"><animate attributeType="CSS" attributeName="opacity" from="0" to="1" dur="0.5s" begin="4.32s" fill="freeze" repeatCount="1"/></path><path d="M87-292l8 128 185-63z" fill="#ff6401" stroke="#ff6401"><animate attributeType="CSS" attributeName="opacity" from="0" to="1" dur="0.5s" begin="4.34s" fill="freeze" repeatCount="1"/></path><path d="M105 666L8 742l145 203z" fill="#ff6c01" stroke="#ff6c01"><animate attributeType="CSS" attributeName="opacity" from="0" to="1" dur="0.5s" begin="4.36s" fill="freeze" repeatCount="1"/></path><path d="M-41 235l194 188 79-196z" fill="#ff7501" stroke="#ff7501"><animate attributeType="CSS" attributeName="opacity" from="0" to="1" dur="0.5s" begin="4.38s" fill="freeze" repeatCount="1"/></path><path d="M75 58l157 169 5-121z" fill="#ff7901" stroke="#ff7901"><animate attributeType="CSS" attributeName="opacity" from="0" to="1" dur="0.5s" begin="4.40s" fill="freeze" repeatCount="1"/></path><path d="M75 58L-41 235l273-8z" fill="#ff6e01" stroke="#ff6e01"><animate attributeType="CSS" attributeName="opacity" from="0" to="1" dur="0.5s" begin="4.42s" fill="freeze" repeatCount="1"/></path><path d="M-23 14l98 44 20-222z" fill="#ff7000" stroke="#ff7000"><animate attributeType="CSS" attributeName="opacity" from="0" to="1" dur="0.5s" begin="4.44s" fill="freeze" repeatCount="1"/></path><path d="M-41 235L59 482l94-59z" fill="#ff7b00" stroke="#ff7b00"><animate attributeType="CSS" attributeName="opacity" from="0" to="1" dur="0.5s" begin="4.46s" fill="freeze" repeatCount="1"/></path><path d="M-3 920l107 108 49-83z" fill="#ff6b01" stroke="#ff6b01"><animate attributeType="CSS" attributeName="opacity" from="0" to="1" dur="0.5s" begin="4.48s" fill="freeze" repeatCount="1"/></path><path d="M8 742L-3 920l156 25z" fill="#ff7301" stroke="#ff7301"><animate attributeType="CSS" attributeName="opacity" from="0" to="1" dur="0.5s" begin="4.50s" fill="freeze" repeatCount="1"/></path><path d="M-41 235l-83 71L59 482z" fill="#ff7101" stroke="#ff7101"><animate attributeType="CSS" attributeName="opacity" from="0" to="1" dur="0.5s" begin="4.52s" fill="freeze" repeatCount="1"/></path><path d="M87-292l-168-2L95-164z" fill="#ff5a01" stroke="#ff5a01"><animate attributeType="CSS" attributeName="opacity" from="0" to="1" dur="0.5s" begin="4.54s" fill="freeze" repeatCount="1"/></path><path d="M-113-56l90 70L95-164z" fill="#ff6801" stroke="#ff6801"><animate attributeType="CSS" attributeName="opacity" from="0" to="1" dur="0.5s" begin="4.55s" fill="freeze" repeatCount="1"/></path><path d="M-3 920l21 180 86-72z" fill="#ff6100" stroke="#ff6100"><animate attributeType="CSS" attributeName="opacity" from="0" to="1" dur="0.5s" begin="4.56s" fill="freeze" repeatCount="1"/></path><path d="M59 482L8 742l97-76z" fill="#ff7901" stroke="#ff7901"><animate attributeType="CSS" attributeName="opacity" from="0" to="1" dur="0.5s" begin="4.57s" fill="freeze" repeatCount="1"/></path><path d="M-239 646L8 742l51-260z" fill="#ff7400" stroke="#ff7400"><animate attributeType="CSS" attributeName="opacity" from="0" to="1" dur="0.5s" begin="4.58s" fill="freeze" repeatCount="1"/></path><path d="M-23 14l-18 221L75 58z" fill="#ff7100" stroke="#ff7100"><animate attributeType="CSS" attributeName="opacity" from="0" to="1" dur="0.5s" begin="4.6s" fill="freeze" repeatCount="1"/></path><path d="M-81-294l-48 68 224 62z" fill="#ff5701" stroke="#ff5701"><animate attributeType="CSS" attributeName="opacity" from="0" to="1" dur="0.5s" begin="4.62s" fill="freeze" repeatCount="1"/></path><path d="M-129-226l16 170L95-164z" fill="#ff5e01" stroke="#ff5e01"><animate attributeType="CSS" attributeName="opacity" from="0" to="1" dur="0.5s" begin="4.64s" fill="freeze" repeatCount="1"/></path><path d="M-124 306l-158 100 341 76z" fill="#ff7400" stroke="#ff7400"><animate attributeType="CSS" attributeName="opacity" from="0" to="1" dur="0.5s" begin="4.66s" fill="freeze" repeatCount="1"/></path><path d="M-282 406l43 240L59 482z" fill="#ff7900" stroke="#ff7900"><animate attributeType="CSS" attributeName="opacity" from="0" to="1" dur="0.5s" begin="4.68s" fill="freeze" repeatCount="1"/></path><path d="M-232 29l191 206 18-221z" fill="#ff6c00" stroke="#ff6c00"><animate attributeType="CSS" attributeName="opacity" from="0" to="1" dur="0.5s" begin="4.70s" fill="freeze" repeatCount="1"/></path><path d="M-196 926l193-6L8 742z" fill="#ff6c01" stroke="#ff6c01"><animate attributeType="CSS" attributeName="opacity" from="0" to="1" dur="0.5s" begin="4.71s" fill="freeze" repeatCount="1"/></path><path d="M-3 920l-166 152 187 28z" fill="#ff5a01" stroke="#ff5a01"><animate attributeType="CSS" attributeName="opacity" from="0" to="1" dur="0.5s" begin="4.72s" fill="freeze" repeatCount="1"/></path><path d="M-196 926l27 146L-3 920z" fill="#ff5d00" stroke="#ff5d00"><animate attributeType="CSS" attributeName="opacity" from="0" to="1" dur="0.5s" begin="4.74s" fill="freeze" repeatCount="1"/></path><path d="M-239 646l43 280L8 742z" fill="#ff5c00" stroke="#ff5c00"><animate attributeType="CSS" attributeName="opacity" from="0" to="1" dur="0.5s" begin="4.75s" fill="freeze" repeatCount="1"/></path><path d="M-113-56l-119 85 209-15z" fill="#ff6900" stroke="#ff6900"><animate attributeType="CSS" attributeName="opacity" from="0" to="1" dur="0.5s" begin="4.76s" fill="freeze" repeatCount="1"/></path><path d="M-232 29l108 277 83-71z" fill="#ff5e01" stroke="#ff5e01"><animate attributeType="CSS" attributeName="opacity" from="0" to="1" dur="0.5s" begin="4.78s" fill="freeze" repeatCount="1"/></path><path d="M-239 646l-43-240 86 520z" fill="#f60" stroke="#f60"><animate attributeType="CSS" attributeName="opacity" from="0" to="1" dur="0.5s" begin="4.80s" fill="freeze" repeatCount="1"/></path><path d="M-232 29l-50 377 158-100z" fill="#ff6000" stroke="#ff6000"><animate attributeType="CSS" attributeName="opacity" from="0" to="1" dur="0.5s" begin="4.82s" fill="freeze" repeatCount="1"/></path><path d="M-129-226L-232 29l119-85z" fill="#ff5f01" stroke="#ff5f01"><animate attributeType="CSS" attributeName="opacity" from="0" to="1" dur="0.5s" begin="4.83s" fill="freeze" repeatCount="1"/></path></svg>