<svg xmlns="http://www.w3.org/2000/svg" width="1680" height="800"><path d="M709 1094l-185 2 576 10z" fill="#ff7400" stroke="#ff7400" stroke-width="1.51"/><path d="M1032-260l163 16 355-59z" fill="#ff6200" stroke="#ff6200" stroke-width="1.51"/><path d="M705-305l327 45 518-43z" fill="#ff7100" stroke="#ff7100" stroke-width="1.51"/><path d="M1787-146l-7 304 99-9z" fill="#ff7200" stroke="#ff7200" stroke-width="1.51"/><path d="M1812 553l79 124 3-206z" fill="#ff7a00" stroke="#ff7a00" stroke-width="1.51"/><path d="M1891 677l-138 71 143 183zm-104-823l92 295 49-301z" fill="#f60" stroke="#f60" stroke-width="1.51"/><path d="M1879 149l10 160 39-461z" fill="#ff7100" stroke="#ff7100" stroke-width="1.51"/><path d="M1889 309l5 162 34-623z" fill="#ff6400" stroke="#ff6400" stroke-width="1.51"/><path d="M1891 677l5 254 37 73z" fill="#ff6e00" stroke="#ff6e00" stroke-width="1.51"/><path d="M1894 471l-3 206 42 327z" fill="#ff6200" stroke="#ff6200" stroke-width="1.51"/><path d="M1550-303l173 15 232-7z" fill="#ff5000" stroke="#ff5000" stroke-width="1.51"/><path d="M1787-146l141-6 27-143z" fill="#ff5700" stroke="#ff5700" stroke-width="1.51"/><path d="M1723-288l64 142 168-149z" fill="#ff5300" stroke="#ff5300" stroke-width="1.51"/><path d="M1894 471l39 533 22-1299z" fill="#ff7900" stroke="#ff7900" stroke-width="1.51"/><path d="M1928-152l-34 623 61-766z" fill="#ff6d00" stroke="#ff6d00" stroke-width="1.51"/><path d="M1637 18l143 140 7-304z" fill="#ff6f00" stroke="#ff6f00" stroke-width="1.51"/><path d="M1753 748l-33 85 176 98z" fill="#ff6c00" stroke="#ff6c00" stroke-width="1.51"/><path d="M1896 931l-222 180 259-107z" fill="#ff5b00" stroke="#ff5b00" stroke-width="1.51"/><path d="M1879 149l-99 9 109 151z" fill="#ff6300" stroke="#ff6300" stroke-width="1.51"/><path d="M1657 268l3 200 229-159z" fill="#ff7400" stroke="#ff7400" stroke-width="1.51"/><path d="M1812 553l-39 26 118 98z" fill="#f70" stroke="#f70" stroke-width="1.51"/><path d="M1889 309l-229 159 234 3z" fill="#ff7b00" stroke="#ff7b00" stroke-width="1.51"/><path d="M1660 468l152 85 82-82z" fill="#ff7f00" stroke="#ff7f00" stroke-width="1.51"/><path d="M1720 833l-46 278 222-180z" fill="#ff5f00" stroke="#ff5f00" stroke-width="1.51"/><path d="M1780 158l-123 110 232 41z" fill="#ff6700" stroke="#ff6700" stroke-width="1.51"/><path d="M1773 579l-20 169 138-71z" fill="#ff6b00" stroke="#ff6b00" stroke-width="1.51"/><path d="M1410 1008l-237 51 501 52z" fill="#ff6500" stroke="#ff6500" stroke-width="1.51"/><path d="M1173 1059l-73 47 574 5z" fill="#ff6400" stroke="#ff6400" stroke-width="1.51"/><path d="M1607 895l67 216 46-278z" fill="#ff6b00" stroke="#ff6b00" stroke-width="1.51"/><path d="M1613-140l24 158 150-164z" fill="#ff6901" stroke="#ff6901" stroke-width="1.51"/><path d="M1660 468l113 111 39-26z" fill="#ff7d00" stroke="#ff7d00" stroke-width="1.51"/><path d="M1524 679l229 69 20-169z" fill="#ff7100" stroke="#ff7100" stroke-width="1.51"/><path d="M1560 545l-36 134 249-100z" fill="#ff8300" stroke="#ff8300" stroke-width="1.51"/><path d="M1723-288l-110 148 174-6z" fill="#ff5c00" stroke="#ff5c00" stroke-width="1.51"/><path d="M1556 172l101 96 123-110z" fill="#ff6d01" stroke="#ff6d01" stroke-width="1.51"/><path d="M1637 18l-81 154 224-14z" fill="#ff7800" stroke="#ff7800" stroke-width="1.51"/><path d="M1660 468l-100 77 213 34z" fill="#ff8400" stroke="#ff8400" stroke-width="1.51"/><path d="M1524 679l196 154 33-85z" fill="#ff6c00" stroke="#ff6c00" stroke-width="1.51"/><path d="M1657 268l-149 125 152 75z" fill="#ff8300" stroke="#ff8300" stroke-width="1.51"/><path d="M1607 895l-113 87 180 129z" fill="#ff6b00" stroke="#ff6b00" stroke-width="1.51"/><path d="M1524 679l83 216 113-62z" fill="#ff7600" stroke="#ff7600" stroke-width="1.51"/><path d="M1550-303l63 163 110-148z" fill="#ff6100" stroke="#ff6100" stroke-width="1.51"/><path d="M1494 982l-84 26 264 103z" fill="#ff6d00" stroke="#ff6d00" stroke-width="1.51"/><path d="M1524 679l-94 136 177 80z" fill="#ff7900" stroke="#ff7900" stroke-width="1.51"/><path d="M1508 393l52 152 100-77z" fill="#ff9000" stroke="#ff9000" stroke-width="1.51"/><path d="M1556 172l-48 221 149-125z" fill="#ff7b01" stroke="#ff7b01" stroke-width="1.51"/><path d="M1366 125l190 47 81-154z" fill="#ff8100" stroke="#ff8100" stroke-width="1.51"/><path d="M1613-140l-238-23 262 181z" fill="#ff7401" stroke="#ff7401" stroke-width="1.51"/><path d="M1375-163l-9 288 271-107z" fill="#f70" stroke="#f70" stroke-width="1.51"/><path d="M1301-87l65 212 9-288z" fill="#ff6b00" stroke="#ff6b00" stroke-width="1.51"/><path d="M1550-303l-175 140 238 23z" fill="#ff6801" stroke="#ff6801" stroke-width="1.51"/><path d="M1430 815l64 167 113-87z" fill="#ff7a00" stroke="#ff7a00" stroke-width="1.51"/><path d="M1343 207l-1 119 166 67z" fill="#ff7500" stroke="#ff7500" stroke-width="1.51"/><path d="M1343 207l165 186 48-221z" fill="#ff7601" stroke="#ff7601" stroke-width="1.51"/><path d="M1508 393l-163 106 215 46z" fill="#ff8c00" stroke="#ff8c00" stroke-width="1.51"/><path d="M1382 693l142-14 36-134z" fill="#ff7e00" stroke="#ff7e00" stroke-width="1.51"/><path d="M1345 499l37 194 178-148z" fill="#ff8200" stroke="#ff8200" stroke-width="1.51"/><path d="M1195-244l180 81 175-140z" fill="#ff5a00" stroke="#ff5a00" stroke-width="1.51"/><path d="M1366 125l-23 82 213-35z" fill="#ff7200" stroke="#ff7200" stroke-width="1.51"/><path d="M1382 693l48 122 94-136z" fill="#ff6b00" stroke="#ff6b00" stroke-width="1.51"/><path d="M1430 815l-20 193 84-26z" fill="#ff6f00" stroke="#ff6f00" stroke-width="1.51"/><path d="M1342 326l3 173 163-106z" fill="#ff8000" stroke="#ff8000" stroke-width="1.51"/><path d="M1318 245l24 81 1-119z" fill="#ff6e00" stroke="#ff6e00" stroke-width="1.51"/><path d="M1301-87l-44 130 109 82z" fill="#f70" stroke="#f70" stroke-width="1.51"/><path d="M1327-137l-26 50 74-76z" fill="#ff6400" stroke="#ff6400" stroke-width="1.51"/><path d="M1345 499l-97 144 134 50z" fill="#ff7b00" stroke="#ff7b00" stroke-width="1.51"/><path d="M1178 846l232 162 20-193z" fill="#ff6f00" stroke="#ff6f00" stroke-width="1.51"/><path d="M1382 693l-204 153 252-31z" fill="#ff6d00" stroke="#ff6d00" stroke-width="1.51"/><path d="M1178 846l-5 213 237-51z" fill="#ff6e00" stroke="#ff6e00" stroke-width="1.51"/><path d="M1146 753l32 93 70-203z" fill="#ff7900" stroke="#ff7900" stroke-width="1.51"/><path d="M1342 326l-147 126 150 47zm-124 209l30 108 97-144z" fill="#ff8600" stroke="#ff8600" stroke-width="1.51"/><path d="M1195-244l132 107 48-26z" fill="#ff6300" stroke="#ff6300" stroke-width="1.51"/><path d="M1248 643l-70 203 204-153z" fill="#ff6d00" stroke="#ff6d00" stroke-width="1.51"/><path d="M1257 43l86 164 23-82z" fill="#ff7500" stroke="#ff7500" stroke-width="1.51"/><path d="M1257 43l61 202 25-38z" fill="#ff7200" stroke="#ff7200" stroke-width="1.51"/><path d="M1195 452l23 83 127-36z" fill="#ff8d00" stroke="#ff8d00" stroke-width="1.51"/><path d="M1318 245l-123 207 147-126z" fill="#ff7c00" stroke="#ff7c00" stroke-width="1.51"/><path d="M1257 43l-172 199 233 3z" fill="#ff7a00" stroke="#ff7a00" stroke-width="1.51"/><path d="M1085 242l110 210 123-207z" fill="#ff8200" stroke="#ff8200" stroke-width="1.51"/><path d="M1195-244l106 157 26-50z" fill="#ff6800" stroke="#ff6800" stroke-width="1.51"/><path d="M1067 91l18 151 172-199z" fill="#ff8900" stroke="#ff8900" stroke-width="1.51"/><path d="M1136-40l121 83 44-130z" fill="#ff7a00" stroke="#ff7a00" stroke-width="1.51"/><path d="M1195-244l-59 204 165-47z" fill="#ff7300" stroke="#ff7300" stroke-width="1.51"/><path d="M705-305l200 66 127-21z" fill="#ff7500" stroke="#ff7500" stroke-width="1.51"/><path d="M1136-40l-69 131 190-48z" fill="#ff8900" stroke="#ff8900" stroke-width="1.51"/><path d="M1218 535l-139-23 169 131z" fill="#ff8f00" stroke="#ff8f00" stroke-width="1.51"/><path d="M1079 512l67 241 102-110z" fill="#ff8900" stroke="#ff8900" stroke-width="1.51"/><path d="M1121 835l52 224 5-213z" fill="#ff8100" stroke="#ff8100" stroke-width="1.51"/><path d="M1085 242l-60 232 170-22z" fill="#ff9300" stroke="#ff9300" stroke-width="1.51"/><path d="M1032-260l104 220 59-204z" fill="#ff7600" stroke="#ff7600" stroke-width="1.51"/><path d="M1195 452l-116 60 139 23z" fill="#ff9600" stroke="#ff9600" stroke-width="1.51"/><path d="M1121 835l-21 271 73-47z" fill="#ff7800" stroke="#ff7800" stroke-width="1.51"/><path d="M1146 753l-25 82 57 11z" fill="#ff8400" stroke="#ff8400" stroke-width="1.51"/><path d="M1025 474l54 38 116-60z" fill="#ff9b00" stroke="#ff9b00" stroke-width="1.51"/><path d="M876 994l224 112 21-271z" fill="#ff7f00" stroke="#ff7f00" stroke-width="1.51"/><path d="M974 815l-98 179 245-159z" fill="#ff8d00" stroke="#ff8d00" stroke-width="1.51"/><path d="M1032-260L958-85l178 45z" fill="#ff7f00" stroke="#ff7f00" stroke-width="1.51"/><path d="M864 599l110 216 105-303z" fill="#ff9100" stroke="#ff9100" stroke-width="1.51"/><path d="M1079 512L974 815l172-62z" fill="#ff8500" stroke="#ff8500" stroke-width="1.51"/><path d="M974 815l147 20 25-82z" fill="#ff8700" stroke="#ff8700" stroke-width="1.51"/><path d="M958-85l109 176 69-131z" fill="#ff8901" stroke="#ff8901" stroke-width="1.51"/><path d="M851 333l174 141 60-232z" fill="#ff9200" stroke="#ff9200" stroke-width="1.51"/><path d="M876 994l-167 100 391 12z" fill="#ff7e00" stroke="#ff7e00" stroke-width="1.51"/><path d="M958-85L902 3l165 88z" fill="#ff8e00" stroke="#ff8e00" stroke-width="1.51"/><path d="M1025 474L864 599l215-87z" fill="#ff9c00" stroke="#ff9c00" stroke-width="1.51"/><path d="M1067 91l-210 90 228 61z" fill="#ff8900" stroke="#ff8900" stroke-width="1.51"/><path d="M857 181l-6 152 234-91z" fill="#ff8b00" stroke="#ff8b00" stroke-width="1.51"/><path d="M864 599l-23 149 133 67z" fill="#ff8200" stroke="#ff8200" stroke-width="1.51"/><path d="M905-239l53 154 74-175z" fill="#ff7d00" stroke="#ff7d00" stroke-width="1.51"/><path d="M902 3l-45 178 210-90z" fill="#ff9500" stroke="#ff9500" stroke-width="1.51"/><path d="M851 333l-26 61 200 80z" fill="#ff9700" stroke="#ff9700" stroke-width="1.51"/><path d="M825 394l39 205 161-125z" fill="#ff9e00" stroke="#ff9e00" stroke-width="1.51"/><path d="M841 748l35 246 98-179z" fill="#ff8e00" stroke="#ff8e00" stroke-width="1.51"/><path d="M841 748l-106 61 141 185z" fill="#f80" stroke="#f80" stroke-width="1.51"/><path d="M905-239L753-103l205 18z" fill="#ff7c00" stroke="#ff7c00" stroke-width="1.51"/><path d="M753-103L902 3l56-88zm-3 379l101 57 6-152z" fill="#ff8300" stroke="#ff8300" stroke-width="1.51"/><path d="M825 394L694 505l170 94z" fill="#ff9500" stroke="#ff9500" stroke-width="1.51"/><path d="M758 107l99 74L902 3z" fill="#ff8c00" stroke="#ff8c00" stroke-width="1.51"/><path d="M670-235l83 132 152-136z" fill="#ff7000" stroke="#ff7000" stroke-width="1.51"/><path d="M705-305l-35 70 235-4z" fill="#ff6a00" stroke="#ff6a00" stroke-width="1.51"/><path d="M753-103l5 210L902 3z" fill="#ff8500" stroke="#ff8500" stroke-width="1.51"/><path d="M720 663l121 85 23-149z" fill="#ff8300" stroke="#ff8300" stroke-width="1.51"/><path d="M735 809l-26 285 167-100z" fill="#ff7600" stroke="#ff7600" stroke-width="1.51"/><path d="M694 505l26 158 144-64z" fill="#ff8c01" stroke="#ff8c01" stroke-width="1.51"/><path d="M758 107l-8 169 107-95z" fill="#ff7d01" stroke="#ff7d01" stroke-width="1.51"/><path d="M596 868l113 226 26-285z" fill="#ff7600" stroke="#ff7600" stroke-width="1.51"/><path d="M750 276l75 118 26-61z" fill="#f80" stroke="#f80" stroke-width="1.51"/><path d="M753-103L645 49l113 58z" fill="#ff8000" stroke="#ff8000" stroke-width="1.51"/><path d="M720 663l15 146 106-61z" fill="#f70" stroke="#f70" stroke-width="1.51"/><path d="M750 276l-56 229 131-111z" fill="#ff8b00" stroke="#ff8b00" stroke-width="1.51"/><path d="M228-275l277 80 200-110z" fill="#ff6000" stroke="#ff6000" stroke-width="1.51"/><path d="M596 868l-84 126 197 100z" fill="#ff6700" stroke="#ff6700" stroke-width="1.51"/><path d="M694 505l-99 79 125 79z" fill="#ff8701" stroke="#ff8701" stroke-width="1.51"/><path d="M555 409l139 96 56-229z" fill="#ff8600" stroke="#ff8600" stroke-width="1.51"/><path d="M670-235l-19 118 102 14z" fill="#ff6d01" stroke="#ff6d01" stroke-width="1.51"/><path d="M651-117l-6 166 108-152zM548 203l202 73 8-169z" fill="#ff7501" stroke="#ff7501" stroke-width="1.51"/><path d="M645 49l-97 154 210-96z" fill="#ff7c00" stroke="#ff7c00" stroke-width="1.51"/><path d="M548 203l7 206 195-133z" fill="#ff7801" stroke="#ff7801" stroke-width="1.51"/><path d="M720 663l-162-17 177 163zm-162-17l38 222 139-59z" fill="#ff7300" stroke="#ff7300" stroke-width="1.51"/><path d="M512 994l12 102 185-2z" fill="#ff6700" stroke="#ff6700" stroke-width="1.51"/><path d="M595 584l-37 62 162 17z" fill="#ff7e00" stroke="#ff7e00" stroke-width="1.51"/><path d="M505-195l165-40 35-70z" fill="#ff6200" stroke="#ff6200" stroke-width="1.51"/><path d="M555 409l40 175 99-79z" fill="#ff8a00" stroke="#ff8a00" stroke-width="1.51"/><path d="M555 409l-51 110 91 65z" fill="#ff8600" stroke="#ff8600" stroke-width="1.51"/><path d="M558 646l-75 178 113 44z" fill="#ff6e01" stroke="#ff6e01" stroke-width="1.51"/><path d="M454-88L645 49l6-166z" fill="#ff7001" stroke="#ff7001" stroke-width="1.51"/><path d="M505-195l146 78 19-118z" fill="#ff6501" stroke="#ff6501" stroke-width="1.51"/><path d="M511 200l37 3 97-154z" fill="#ff7400" stroke="#ff7400" stroke-width="1.51"/><path d="M505-195L454-88l197-29z" fill="#ff6501" stroke="#ff6501" stroke-width="1.51"/><path d="M405 57l106 143L645 49z" fill="#ff7900" stroke="#ff7900" stroke-width="1.51"/><path d="M454-88L405 57l240-8z" fill="#f70" stroke="#f70" stroke-width="1.51"/><path d="M548 203l-37-3 44 209z" fill="#ff7101" stroke="#ff7101" stroke-width="1.51"/><path d="M511 200L394 357l161 52z" fill="#ff7a01" stroke="#ff7a01" stroke-width="1.51"/><path d="M419 738l64 86 75-178z" fill="#ff6c00" stroke="#ff6c00" stroke-width="1.51"/><path d="M483 824l29 170 84-126z" fill="#ff7200" stroke="#ff7200" stroke-width="1.51"/><path d="M504 519l54 127 37-62z" fill="#ff8101" stroke="#ff8101" stroke-width="1.51"/><path d="M504 519l-182 96 236 31z" fill="#ff8400" stroke="#ff8400" stroke-width="1.51"/><path d="M322 615l97 123 139-92z" fill="#ff7b00" stroke="#ff7b00" stroke-width="1.51"/><path d="M394 357l110 162 51-110z" fill="#ff8700" stroke="#ff8700" stroke-width="1.51"/><path d="M355 240l39 117 117-157z" fill="#ff7a00" stroke="#ff7a00" stroke-width="1.51"/><path d="M483 824L320 942l192 52z" fill="#ff7600" stroke="#ff7600" stroke-width="1.51"/><path d="M512 994l-192-52 204 154z" fill="#ff6a00" stroke="#ff6a00" stroke-width="1.51"/><path d="M320 942l-87 128 291 26z" fill="#ff7200" stroke="#ff7200" stroke-width="1.51"/><path d="M-136-207l308-40 56-28z" fill="#ff5b00" stroke="#ff5b00" stroke-width="1.51"/><path d="M405 57l-50 183 156-40z" fill="#ff7900" stroke="#ff7900" stroke-width="1.51"/><path d="M394 357l-72 258 182-96z" fill="#ff8f00" stroke="#ff8f00" stroke-width="1.51"/><path d="M228-275L454-88l51-107z" fill="#ff6c00" stroke="#ff6c00" stroke-width="1.51"/><path d="M283 379l39 236 72-258z" fill="#ff9500" stroke="#ff9500" stroke-width="1.51"/><path d="M341-7l64 64 49-145z" fill="#ff7d00" stroke="#ff7d00" stroke-width="1.51"/><path d="M419 738l-99 204 163-118z" fill="#ff7f01" stroke="#ff7f01" stroke-width="1.51"/><path d="M228-275l-60 129L341-7z" fill="#ff6f00" stroke="#ff6f00" stroke-width="1.51"/><path d="M272 767l48 175 99-204z" fill="#ff8100" stroke="#ff8100" stroke-width="1.51"/><path d="M228-275L341-7l113-81z" fill="#f70" stroke="#f70" stroke-width="1.51"/><path d="M250 46l105 194 50-183z" fill="#ff8600" stroke="#ff8600" stroke-width="1.51"/><path d="M322 615l-50 152 147-29z" fill="#ff7b00" stroke="#ff7b00" stroke-width="1.51"/><path d="M355 240l-72 139 111-22z" fill="#ff8500" stroke="#ff8500" stroke-width="1.51"/><path d="M341-7l-91 53 155 11z" fill="#ff8700" stroke="#ff8700" stroke-width="1.51"/><path d="M-108 965l-148 51 489 54z" fill="#ff5a01" stroke="#ff5a01" stroke-width="1.51"/><path d="M283 379l-182 80 221 156z" fill="#ff8f00" stroke="#ff8f00" stroke-width="1.51"/><path d="M168-146l82 192 91-53z" fill="#ff7a00" stroke="#ff7a00" stroke-width="1.51"/><path d="M61 224l222 155 72-139z" fill="#ff7c01" stroke="#ff7c01" stroke-width="1.51"/><path d="M250 46L61 224l294 16z" fill="#ff7800" stroke="#ff7800" stroke-width="1.51"/><path d="M272 767l-119 38 167 137z" fill="#ff7f01" stroke="#ff7f01" stroke-width="1.51"/><path d="M124 966l109 104 87-128z" fill="#ff6c00" stroke="#ff6c00" stroke-width="1.51"/><path d="M153 805l-29 161 196-24z" fill="#f70" stroke="#f70" stroke-width="1.51"/><path d="M48 752l105 53 169-190z" fill="#ff6d00" stroke="#ff6d00" stroke-width="1.51"/><path d="M60 529L48 752l274-137z" fill="#ff7b00" stroke="#ff7b00" stroke-width="1.51"/><path d="M153 805l119-38 50-152z" fill="#ff7200" stroke="#ff7200" stroke-width="1.51"/><path d="M101 459l-41 70 262 86z" fill="#ff8700" stroke="#ff8700" stroke-width="1.51"/><path d="M172-247l-4 101 60-129z" fill="#ff6401" stroke="#ff6401" stroke-width="1.51"/><path d="M102 19L61 224 250 46z" fill="#ff7b00" stroke="#ff7b00" stroke-width="1.51"/><path d="M168-146L102 19l148 27z" fill="#ff7501" stroke="#ff7501" stroke-width="1.51"/><path d="M61 224l40 235 182-80z" fill="#ff7c01" stroke="#ff7c01" stroke-width="1.51"/><path d="M124 966l-232-1 341 105z" fill="#ff6200" stroke="#ff6200" stroke-width="1.51"/><path d="M-30 597l78 155 12-223z" fill="#ff7500" stroke="#ff7500" stroke-width="1.51"/><path d="M61 224l-38 5 78 230z" fill="#ff7201" stroke="#ff7201" stroke-width="1.51"/><path d="M48 752l76 214 29-161z" fill="#ff7501" stroke="#ff7501" stroke-width="1.51"/><path d="M36-128l66 147 66-165z" fill="#ff6a01" stroke="#ff6a01" stroke-width="1.51"/><path d="M36-128l132-18 4-101z" fill="#ff6301" stroke="#ff6301" stroke-width="1.51"/><path d="M-47-165l83 37 136-119z" fill="#ff5d01" stroke="#ff5d01" stroke-width="1.51"/><path d="M-136-207l89 42 219-82z" fill="#ff5701" stroke="#ff5701" stroke-width="1.51"/><path d="M23 229l-44 219 122 11z" fill="#ff7901" stroke="#ff7901" stroke-width="1.51"/><path d="M-13 749l-101 108L48 752z" fill="#f60" stroke="#f60" stroke-width="1.51"/><path d="M23 229l38-5 41-205z" fill="#ff6f00" stroke="#ff6f00" stroke-width="1.51"/><path d="M-62 21l85 208 79-210z" fill="#ff7500" stroke="#ff7500" stroke-width="1.51"/><path d="M48 752l-162 105 238 109z" fill="#ff7201" stroke="#ff7201" stroke-width="1.51"/><path d="M-114 857l6 108 232 1z" fill="#ff6300" stroke="#ff6300" stroke-width="1.51"/><path d="M-30 597l17 152 61 3z" fill="#f60" stroke="#f60" stroke-width="1.51"/><path d="M36-128L-62 21l164-2z" fill="#ff6b01" stroke="#ff6b01" stroke-width="1.51"/><path d="M-21 448l81 81 41-70z" fill="#ff8400" stroke="#ff8400" stroke-width="1.51"/><path d="M-132 241l111 207 44-219z" fill="#ff6c01" stroke="#ff6c01" stroke-width="1.51"/><path d="M-123-64l61 85 98-149z" fill="#ff6301" stroke="#ff6301" stroke-width="1.51"/><path d="M-21 448l-9 149 90-68z" fill="#ff7e00" stroke="#ff7e00" stroke-width="1.51"/><path d="M-62 21l-70 220 155-12z" fill="#ff6601" stroke="#ff6601" stroke-width="1.51"/><path d="M-47-165l-76 101 159-64z" fill="#ff5d01" stroke="#ff5d01" stroke-width="1.51"/><path d="M-132 241l-133 84 244 123z" fill="#ff6a00" stroke="#ff6a00" stroke-width="1.51"/><path d="M-229 527l199 70 9-149z" fill="#ff7900" stroke="#ff7900" stroke-width="1.51"/><path d="M-30 597l-163 166 180-14z" fill="#ff6000" stroke="#ff6000" stroke-width="1.51"/><path d="M-193 763l79 94 101-108z" fill="#ff6200" stroke="#ff6200" stroke-width="1.51"/><path d="M-265 325l36 202 208-79z" fill="#ff7600" stroke="#ff7600" stroke-width="1.51"/><path d="M-223 7l91 234 70-220z" fill="#ff6d00" stroke="#ff6d00" stroke-width="1.51"/><path d="M-229 527l36 236 163-166z" fill="#ff6c00" stroke="#ff6c00" stroke-width="1.51"/><path d="M-136-207l13 143 76-101z" fill="#ff5701" stroke="#ff5701" stroke-width="1.51"/><path d="M-123-64L-223 7l161 14z" fill="#ff6501" stroke="#ff6501" stroke-width="1.51"/><path d="M-193 763l23 123 56-29z" fill="#ff6601" stroke="#ff6601" stroke-width="1.51"/><path d="M-114 857l-56 29 62 79z" fill="#ff6300" stroke="#ff6300" stroke-width="1.51"/><path d="M-170 886l-86 130 148-51z" fill="#ff5800" stroke="#ff5800" stroke-width="1.51"/><path d="M-223 7l-42 318 133-84z" fill="#ff5c00" stroke="#ff5c00" stroke-width="1.51"/><path d="M-136-207L-223 7l100-71z" fill="#ff5a00" stroke="#ff5a00" stroke-width="1.51"/><path d="M-193 763l-63 253 86-130z" fill="#ff6300" stroke="#ff6300" stroke-width="1.51"/><path d="M-229 527l-27 489 63-253z" fill="#ff5a00" stroke="#ff5a00" stroke-width="1.51"/><path d="M-265 325l9 691 27-489z" fill="#ff6900" stroke="#ff6900" stroke-width="1.51"/></svg>