<svg version="1.1" id="Layer_1" xmlns="http://www.w3.org/2000/svg" x="0" y="0" viewBox="-147 378.9 301 85" xml:space="preserve"><style>.st8{fill:#ff8a22}.st10{fill:#ffab30}.st12{fill:#ff7729}.st16{fill:#fb3c12}.st17{fill:#ffa428}.st22{fill:#fd4114}.st23{fill:#ffaf32}.st31{fill:#ff991c}.st32{fill:#ff7b0a}.st47{fill:#ffa634}.st54{fill:#ff9213}.st66{fill:#ff771f}.st71{fill:#ff7728}.st90{fill:#ff7d07}.st109{fill:#ff5129}.st112{fill:#ffaa47}.st116{fill:#ff8b20}</style><path fill="#ff7308" d="M-66.8 426.4l-.2-1.2 2.6-4.8-2.6-4.1 1-2.4-2.4-1.9-.3-5.1-4.8-2.1-.9-2-1.4-.5-2.1-3.3-4.4.2-3.7-3.4-3.4 1.2-1.1-.6-2.7 1.3-5.3-1.1-2 2.2-1.5-.2-2 3.2-5.8 1.8-1.3 5.2-1 .8-.1 1.1-.5.5v.7l-3.4 3.9 1.5 4.1-1.3 2.3 1.4 2.4-1 4 3.6 3.6.3 3.1 2.3 1.2 1.6 4.8 5.4.9 1.7 2.3 2.6-.1 3.2 2.3 4-1.5 4.6 1.8 2-1.7 1.7.4 2.9-3.2 5.2-.7 1.3-3.3 1-.4.8-2.9 4.7-3.1-.6-5.2z"/><path fill="#898a8d" d="M-72.3 431.2l-1.1 2.2 2.3-5z"/><path fill="#a0a1a3" d="M-80.4 441.1l-1.6.6 4.6-3.4z"/><path fill="#8d8e91" d="M-68.1 417.8l-2-6.1 1.8 3.2z"/><path fill="#6c6e70" d="M-101.6 441.2l-1.7-.9 5.6 2z"/><path fill="#ff7308" d="M-66.8 426.4l-1.7 2.4 1.2-5.4z"/><path fill="#ffa64a" d="M-112.6 413.7l-.1-2.5 2.8-2.7z"/><path fill="#a0a0a0" d="M-78.2 440.7l3.7-2.1 2.4-.5z"/><path class="st8" d="M-72.1 438.1l-2.4.5 3.6-4.4z"/><path fill="#ff7c00" d="M-77.3 402l2.9.8 1.4 3.2z"/><path class="st10" d="M-80.6 400.7l6.2 2.1-2.9-.8z"/><path fill="#ff521e" d="M-111.7 431.4l3.5 5.5-3.4-1.6z"/><path class="st12" d="M-111.7 431.4l.1 3.9-.9-7z"/><path fill="#fb470e" d="M-82.5 445.7l-6.1-1.3 3.9.2z"/><path fill="#ff8a2c" d="M-82.5 445.7l-2.2-1.1 5.4-2.5z"/><path fill="#ff782a" d="M-113.8 425.1l1.3 3.2-3.4-6.1z"/><path class="st12" d="M-114.3 419.2l.5 5.9-2.1-2.9z"/><path class="st16" d="M-88.6 444.4l-6.2 2.3 4.1-1.8z"/><path class="st17" d="M-86 395.8l5.4 4.9-2.1-1.5z"/><path fill="#fb7100" d="M-64.4 420.4l-3-3.1-.9-3z"/><path fill="#808183" d="M-67.4 417.3l-1.8-5.9.9 2.9z"/><path fill="#fc7800" d="M-68.3 414.3l-.9-2.9.5-4.5z"/><path fill="#ff591d" d="M-94.8 446.7l-2.3-2.8 6.4 1z"/><path class="st22" d="M-94.8 446.7l-5.8-4.2 3.5 1.4z"/><path class="st23" d="M-99.5 399.4l-3.5 2.1 4.5-4.9z"/><path fill="#ff911b" d="M-98.5 396.6l6.2 1.4-1.9.2z"/><path fill="#f92" d="M-99.5 399.4l1-2.8 4.3 1.6z"/><path fill="#ff991a" d="M-88.5 397.9l2.5-2.1 3.3 3.4z"/><path fill="#9c9ea0" d="M-92.3 398l3.8-.1-5.7.3z"/><path fill="#ff9f20" d="M-92.3 398l6.3-2.2-2.5 2.1z"/><path fill="#b9b9ba" d="M-104.6 402.7l1.6-1.2 3.5-2.1z"/><path fill="#ff9528" d="M-104.6 402.7l-5.2.9 6.8-2.1z"/><path class="st31" d="M-64.4 420.4l-3 2.2v-5.3z"/><path class="st32" d="M-67.4 425.7v-3.1l3-2.2z"/><path fill="#ff7a23" d="M-84.7 444.6l3.6-2 1.8-.5z"/><path class="st12" d="M-113.9 421.8l.1 3.3-.5-5.9z"/><path fill="#6e6f72" d="M-100.6 442.5l-2.5-1.3 6 2.7z"/><path fill="#fe4117" d="M-100.6 442.5l-7.1-1.2 4.6-.1z"/><path fill="#ff992d" d="M-109.4 407.8l-.4-4.2 5.2-.9z"/><path fill="#ff8c28" d="M-109.4 407.8l-2.2 2.9 1.8-7.1z"/><path fill="#ff9311" d="M-74.4 404.4l5.7 2.5-3.6.6z"/><path fill="#ff9a18" d="M-72.3 407.5l3.6-.6-.5 4.5z"/><path fill="#fb3f11" d="M-97.1 443.9l3.9.4 2.5.6z"/><path fill="#ff8213" d="M-66.6 432.1l-2.1-5 1.3-1.4z"/><path fill="#ff7207" d="M-68.7 427.1l1.3-4.5v3.1z"/><path fill="#b9baba" d="M-112.3 413.3l.7-2.6 2.2-2.9z"/><path fill="#ffae5f" d="M-112.3 413.3l-3.8 2.5 4.5-5.1z"/><path fill="#ff9417" d="M-88.5 397.9l5.8 1.3-2 .3z"/><path class="st23" d="M-84.7 399.5l2-.3 4.8-.2z"/><path fill="#ff9620" d="M-99.5 399.4l5.3-1.2-1.6 1.2z"/><path class="st47" d="M-109.4 407.8l4.8-5.1-1.6 2.4z"/><path fill="#ff471a" d="M-107.3 436.4l4.2 4.8-4.6.1z"/><path fill="#ff511e" d="M-107.3 436.4l-.4 4.9-2.3-7.1z"/><path fill="#ff9b26" d="M-66.6 432.1l-4.4-.4 2.3-4.6z"/><path fill="#ff9625" d="M-72 435.7l1-4 4.4.4z"/><path fill="#f67408" d="M-67.4 417.3l-1.2 1 2.6-4.4z"/><path fill="#ff7c08" d="M-67.4 422.6l-1.2-4.3 1.2-1z"/><path class="st54" d="M-70.5 412.1l1.3-.7 3.2 2.5z"/><path fill="#ffa422" d="M-70.5 412.1l4.5 1.8-2.6 4.4z"/><path fill="#ff7a02" d="M-72.3 407.5l3.1 3.9-1.3.7z"/><path fill="#ff8a2d" d="M-112.3 413.3l-.5 5.3-3.3-2.8z"/><path fill="#ff631e" d="M-112.8 418.6l-1.1 3.2-2.2-6z"/><path fill="#ff8105" d="M-74.4 404.4l2.1 3.1-3.7-2.7z"/><path fill="#ff8506" d="M-77.9 399l3.5 5.4-1.6.4z"/><path class="st23" d="M-95.8 399.4l1.6-1.2 3.7-1.8z"/><path fill="#ff8721" d="M-74.4 441.8l.1-6 2.3-.1z"/><path fill="#ff8e23" d="M-74.3 435.8l3.3-4.1-1 4z"/><path fill="#ff5518" d="M-86.2 447l-7-2.7 4.3-1z"/><path fill="#ff7021" d="M-86.2 447l-2.7-3.7 5.7-1.5z"/><path fill="#ff9230" d="M-86.2 447l3-5.2 2.1.8z"/><path class="st66" d="M-81.1 442.6l2.6-3.4 4.1 2.6z"/><path fill="#ff8d27" d="M-74.4 441.8l-4.1-2.6 4.2-3.4z"/><path fill="#ff8e2c" d="M-83.2 441.8l4.7-2.6-2.6 3.4z"/><path fill="#ff4d1a" d="M-110.4 430.4l.4 3.8-5.5-5.6z"/><path fill="#ff4a19" d="M-107.3 436.4l-2.7-2.2-.4-3.8z"/><path class="st16" d="M-112.2 424.2l1.8 6.2-5.1-1.8z"/><path class="st71" d="M-112.2 424.2l-1.7-2.4 1.1-3.2z"/><path fill="#ff913a" d="M-112.2 424.2l-3.3 4.4 1.6-6.8z"/><path fill="#ff9a19" d="M-80.8 402.7l2.9-3.7 1.9 5.8z"/><path class="st54" d="M-84.7 399.5l6.8-.5-2.9 3.7z"/><path fill="#ff9324" d="M-101.8 403.5l-4.4 1.6 4.2-6.5z"/><path fill="#ff792b" d="M-93.2 444.3l-7.4.2 5.4-2.2z"/><path fill="#ff5018" d="M-93.2 444.3l-2-2 6.3 1z"/><path fill="#ff4517" d="M-103.4 438l.3 3.2-4.2-4.8z"/><path fill="#ff5820" d="M-103.4 438l2.8 6.5-2.5-3.3z"/><path fill="#ff8519" d="M-101.8 403.5l-.2-4.9 5.6 3z"/><path fill="#ff9521" d="M-102 398.6l6.2.8-.6 2.2z"/><path fill="#ff7c24" d="M-112.1 409.6l1.6 6-1.8-2.3z"/><path fill="#ff852a" d="M-110.5 415.6l-2.3 3 .5-5.3z"/><path class="st31" d="M-84.7 399.5l3.9 3.2-5.2-1z"/><path fill="#ff9218" d="M-90.5 396.4l5.8 3.1-1.3 2.2z"/><path class="st47" d="M-106.3 408.5l.1-3.4 4.4-1.6z"/><path fill="#ff982e" d="M-106.3 408.5l-5.8 1.1 5.9-4.5z"/><path class="st17" d="M-95.8 399.4l5.3-3-.9 5z"/><path class="st32" d="M-91.4 401.4l.9-5 4.5 5.3z"/><path fill="#ff901c" d="M-95.8 399.4l4.4 2-5 .2z"/><path fill="#ff9419" d="M-70.5 412.1l1.9 6.2-3.1-2.4z"/><path fill="#ff7b09" d="M-71.7 415.9l3.1 2.4 1.4 4.4z"/><path fill="#ff8819" d="M-71 431.7l-.4-4.9 2.7.3z"/><path fill="#ff951e" d="M-68.7 427.1l-2.7-.3 4.2-4.1z"/><path class="st90" d="M-76 404.8l3.7 2.7.4.4z"/><path fill="#ff810a" d="M-71.9 407.9l1.4 4.2-1.2 3.8z"/><path class="st22" d="M-99 438.7l-1.6 5.8-2.8-6.5z"/><path fill="#ff581e" d="M-99 438.7l3.8 3.6-5.4 2.2z"/><path fill="#ff9114" d="M-80.8 402.7l4.8 2.1-1.7 2.3z"/><path fill="#ff9a1a" d="M-77.7 407.1l1.7-2.3 4.1 3.1z"/><path fill="#ff7b26" d="M-88.9 443.3l2.2-3.2 3.5 1.7z"/><path fill="#ff8c30" d="M-88.9 443.3l-2.2.8 4.4-4z"/><path fill="#ff541a" d="M-108.9 426.7l-1.5 3.7-1.8-6.2z"/><path fill="#fd500e" d="M-107.2 413.5l-3.3 2.1-1.6-6z"/><path fill="#ff7d22" d="M-106.3 408.5l-.9 5-4.9-3.9z"/><path fill="#ff9229" d="M-78.5 439.2l.6-4.6 3.6 1.2z"/><path fill="#ff9a21" d="M-71.7 415.9l4.5 6.8-6.2-2.6z"/><path fill="#ff8b17" d="M-73.4 420.1l6.2 2.6-4.2 4.1z"/><path fill="#ff9c28" d="M-101.8 403.5l5.4-1.9-1.5 3.9z"/><path fill="#ff9e23" d="M-71.7 415.9l-1.7 4.2-2.2-7.1z"/><path fill="#ff9e1f" d="M-71.9 407.9l.2 8-3.9-2.9z"/><path fill="#ff870d" d="M-77.7 407.1l5.8.8-3.7 5.1z"/><path class="st16" d="M-108.6 434.1l5.2 3.9-3.9-1.6z"/><path fill="#ff762b" d="M-108.9 426.7l.3 7.4-1.8-3.7z"/><path fill="#fd4813" d="M-93.2 439l2.1 5.1-4.1-1.8z"/><path class="st109" d="M-93.2 439l-2 3.3-3.8-3.6z"/><path fill="#ff7b28" d="M-93.2 439l6.5 1.1-4.4 4z"/><path fill="#ff5318" d="M-112.4 420.5l3.5 6.2-3.3-2.5z"/><path class="st112" d="M-110.5 415.6l-1.9 4.9-.4-1.9z"/><path class="st71" d="M-112.4 420.5l.2 3.7-.6-5.6z"/><path fill="#ff9124" d="M-103.9 404.8l2.1-1.3 3.9 2z"/><path fill="#ff9126" d="M-74.3 435.8l-3.6-1.2 5.5-2.6z"/><path fill="#ff7712" d="M-71 431.7l-1.4.3 1-5.2z"/><path class="st116" d="M-74.3 435.8l1.9-3.8 1.4-.3z"/><path fill="#ff921b" d="M-91.4 401.4l5.4.3-1.7 3.1z"/><path fill="#ff4a17" d="M-101.5 434.3l-1.9 3.7-5.2-3.9z"/><path fill="#ff542c" d="M-99 438.7l-4.4-.7 1.9-3.7z"/><path fill="#ff922a" d="M-102.5 410.6l-4.7 2.9.9-5z"/><path fill="#ff7818" d="M-103.9 404.8l6 .7-4.6 5.1z"/><path fill="#ff5f0d" d="M-103.9 404.8l1.4 5.8-3.8-2.1z"/><path fill="#ff6317" d="M-83.2 441.8l-3.5-1.7 5.7-.5z"/><path fill="#ff8524" d="M-78.5 439.2l-2.5.4 3.1-5z"/><path fill="#ff8828" d="M-83.2 441.8l2.2-2.2 2.5-.4z"/><path fill="#ff7721" d="M-106.5 418.1l-4-2.5 3.3-2.1z"/><path fill="#ff9b39" d="M-106.5 418.1l-5.9 2.4 1.9-4.9z"/><path fill="#ff9c20" d="M-87.7 404.8l1.7-3.1 4.6 2.2z"/><path fill="#ff981a" d="M-86 401.7l5.2 1-.6 1.2z"/><path class="st90" d="M-81.4 403.9l.6-1.2 3.1 4.4z"/><path fill="#ff9c26" d="M-73.4 420.1l2 6.7-4.8-2.3z"/><path fill="#ffa02a" d="M-76.2 424.5l4.8 2.3-1 5.2z"/><path fill="#ff581c" d="M-103.9 429.1l-4.7 5-.3-7.4z"/><path fill="#f8380e" d="M-103.9 429.1l2.4 5.2-7.1-.2z"/><path fill="#ff971d" d="M-77.7 407.1l2.1 5.9-5-2z"/><path fill="#ff9e21" d="M-81.4 403.9l3.7 3.2-2.9 3.9z"/><path fill="#fe5210" d="M-88.5 436l7.5 3.6-5.7.5z"/><path fill="#ff6319" d="M-88.5 436l1.8 4.1-6.5-1.1z"/><path fill="#f73a0b" d="M-103.9 429.1l-5-2.4 3.4-3.1z"/><path fill="#ff5112" d="M-106.5 418.1l1 5.5-6.9-3.1z"/><path fill="#fc4610" d="M-105.5 423.6l-3.4 3.1-3.5-6.2z"/><path fill="#ff961f" d="M-93 402.7l1.6-1.3 3.7 3.4z"/><path fill="#ff8b19" d="M-96.4 401.6l5-.2-1.6 1.3z"/><path class="st10" d="M-97.9 405.5l1.5-3.9 3.4 1.1z"/><path fill="#ff8f22" d="M-76.2 424.5l3.8 7.5-7.3-3.2z"/><path fill="#ff630c" d="M-79.7 428.8l7.3 3.2-5.5 2.6z"/><path fill="#ff9d31" d="M-84 432.8l6.1 1.8-3.1 5z"/><path fill="#fe570e" d="M-84 432.8l3 6.8-7.5-3.6z"/><path fill="#ff7a1b" d="M-79.7 428.8l1.8 5.8-6.1-1.8z"/><path fill="#ff9524" d="M-97.9 405.5l4.9-2.8-4 7.3z"/><path class="st8" d="M-97.9 405.5l.9 4.5-5.5.6z"/><path fill="#ff7708" d="M-87.7 404.8l6.3-.9-4.6 5.8z"/><path fill="#ff8914" d="M-81.4 403.9l.8 7.1-5.4-1.3z"/><path fill="#fa5d03" d="M-93 402.7l1.3 6.5-5.3.8z"/><path fill="#ff9b24" d="M-93 402.7l5.3 2.1-4 4.4z"/><path fill="#ff750c" d="M-87.7 404.8l1.7 4.9-5.7-.5z"/><path fill="#f9400d" d="M-98.1 430.6l-3.4 3.7-2.4-5.2z"/><path fill="#ff5d13" d="M-84 432.8l-4.5 3.2-2.7-4.5z"/><path fill="#fd4f0f" d="M-101.4 420.2l-4.1 3.4-1-5.5z"/><path fill="#fe4814" d="M-96.4 436.8l3.2 2.2-5.8-.3z"/><path fill="#ff5e13" d="M-98.1 430.6l6.9.9-5.2 5.3z"/><path fill="#ff7924" d="M-91.2 431.5l2.7 4.5-7.9.8z"/><path fill="#ff7a27" d="M-96.4 436.8l7.9-.8-4.7 3z"/><path fill="#f42e00" d="M-98.1 430.6l1.7 6.2-5.1-2.5z"/><path fill="#fe4813" d="M-96.4 436.8l-2.6 1.9-2.5-4.4z"/><path fill="#ff9224" d="M-76.2 424.5l-3.5 4.3-2.7-6.7z"/><path fill="#fd5d08" d="M-91.7 409.2l-5.1 5.8-.2-5z"/><path fill="#ff8818" d="M-80.6 411l-4 4.5-1.4-5.8z"/><path fill="#ff8f19" d="M-75.6 413l2.2 7.1-3.6-3.3z"/><path fill="#ff760c" d="M-80.6 411l3.6 5.8-7.6-1.3z"/><path fill="#ff8a15" d="M-80.6 411l5 2-1.4 3.8z"/><path fill="#ff710c" d="M-77 416.8l.8 7.7-6.2-2.4z"/><path fill="#ff901e" d="M-77 416.8l3.6 3.3-2.8 4.4z"/><path fill="#f95c02" d="M-84.6 415.5l7.6 1.3-5.4 5.3z"/><path fill="#ff6412" d="M-103.7 414.6l6.9.4-4.6 5.2z"/><path fill="#ff7216" d="M-97 410l.2 5-6.9-.4z"/><path fill="#fb4e0c" d="M-103.7 414.6l2.3 5.6-5.1-2.1z"/><path fill="#ff6a19" d="M-103.7 414.6l-2.8 3.5-.7-4.6z"/><path class="st112" d="M-102.5 410.6l-1.2 4-3.5-1.1z"/><path fill="#ff9d30" d="M-102.5 410.6l5.5-.6-6.7 4.6z"/><path fill="#ef3b0a" d="M-93.5 426l2.3 5.5-6.9-.9z"/><path fill="#fb530a" d="M-96.8 415l1.3 5.5-5.9-.3z"/><path class="st109" d="M-89 420.6l-4.5 5.4-2-5.5z"/><path fill="#ff821a" d="M-84.6 415.5l2.2 6.6-6.6-1.5z"/><path fill="#ff5c14" d="M-101 426.2l7.5-.2-4.6 4.6z"/><path fill="#f44719" d="M-101 426.2l2.9 4.4-5.8-1.5z"/><path fill="#ff8127" d="M-101.4 420.2l.4 6-4.5-2.6z"/><path fill="#ff5012" d="M-101 426.2l-2.9 2.9-1.6-5.5z"/><path class="st66" d="M-95.5 420.5l2 5.5-7.5.2z"/><path fill="#ff6716" d="M-101.4 420.2l5.9.3-5.5 5.7z"/><path class="st116" d="M-91.1 413.6l6.5 1.9-4.4 5.1z"/><path fill="#ff9724" d="M-86 409.7l1.4 5.8-6.5-1.9z"/><path fill="#ff8c1e" d="M-91.7 409.2l5.7.5-5.1 3.9z"/><path fill="#f64a03" d="M-91.1 413.6l2.1 7-6.5-.1z"/><path fill="#ffa730" d="M-91.7 409.2l.6 4.4-5.7 1.4z"/><path fill="#fa5606" d="M-96.8 415l5.7-1.4-4.4 6.9z"/><path fill="#ff9e2e" d="M-82.4 422.1l2.7 6.7-6.5-1.2z"/><path fill="#ff811f" d="M-86.2 427.6l6.5 1.2-4.3 4z"/><path fill="#fc550a" d="M-89 420.6l2.8 7-7.3-1.6z"/><path fill="#ff831d" d="M-89 420.6l6.6 1.5-3.8 5.5z"/><path fill="#ff6816" d="M-86.2 427.6l2.2 5.2-7.2-1.3z"/><path fill="#f74707" d="M-93.5 426l7.3 1.6-5 3.9z"/><path d="M-56.1 416.6h1.8c.1 1.1.6 2 1.6 2.7 1 .7 2.2 1 3.7 1 1.4 0 2.6-.3 3.5-1 .9-.7 1.4-1.6 1.4-2.6 0-.9-.3-1.6-.9-2.1-.6-.5-1.6-1-3-1.4l-2.3-.6c-1.7-.4-3-1-3.8-1.8-.8-.8-1.2-1.8-1.2-3 0-1.5.6-2.7 1.8-3.7 1.2-1 2.7-1.5 4.6-1.5 1.8 0 3.3.5 4.5 1.4 1.2 1 1.8 2.2 1.9 3.7h-1.8c-.1-1.1-.6-1.9-1.4-2.6s-2-1-3.3-1c-1.3 0-2.4.3-3.2 1s-1.3 1.5-1.3 2.5c0 .8.3 1.5.9 2s1.6.9 3 1.3l2 .5c1.9.5 3.3 1.1 4.1 1.9.8.8 1.3 1.8 1.3 3.1 0 1.6-.6 3-1.8 4s-2.9 1.5-5 1.5c-2 0-3.6-.5-4.8-1.5-1.5-.9-2.2-2.2-2.3-3.8zm35-13.6v18.8h-1.7v-15.4h-.1l-6.5 15.3h-1.5l-6.5-15.3h-.1v15.4h-1.7V403h2l7 16.4h.1l6.9-16.4h2.1zm16.6 18.7l-2.1-5.7h-7.9l-2.1 5.7h-1.9l7-18.8h1.8l7 18.8h-1.8zm-6-16.5l-3.4 9.3h6.8l-3.4-9.3zM1.9 414v7.7H.2V403h6.7c1.8 0 3.3.5 4.4 1.5 1.1 1 1.6 2.3 1.6 4 0 1.3-.4 2.5-1.1 3.4-.7.9-1.7 1.6-3 1.9l4.5 8h-2.1L7 414H1.9zm0-9.4v7.9h4.8c1.4 0 2.4-.3 3.2-1 .8-.7 1.1-1.7 1.1-2.9s-.4-2.2-1.2-2.9-1.8-1-3.2-1H1.9zm21.2 17.1h-1.8v-17.1H15V403h14.3v1.6H23v17.1zm23.5-19c2.6 0 4.7.9 6.2 2.6 1.5 1.7 2.3 4.1 2.3 7.1s-.8 5.3-2.3 7.1c-1.5 1.7-3.6 2.6-6.2 2.6s-4.7-.9-6.2-2.6c-1.5-1.7-2.3-4.1-2.3-7.1s.8-5.3 2.3-7.1c1.6-1.8 3.6-2.6 6.2-2.6zm4.9 3.8c-1.2-1.4-2.8-2.2-4.9-2.2s-3.7.7-4.9 2.2c-1.2 1.4-1.8 3.4-1.8 5.9 0 2.5.6 4.4 1.8 5.8s2.8 2.2 4.9 2.2c2.1 0 3.7-.7 4.9-2.2 1.2-1.4 1.8-3.4 1.8-5.8 0-2.5-.6-4.5-1.8-5.9zm8.9 7.5v7.7h-1.8V403h6.7c1.8 0 3.3.5 4.4 1.5 1.1 1 1.6 2.3 1.6 4 0 1.3-.4 2.5-1.1 3.4-.7.9-1.7 1.6-3 1.9l4.5 8h-2.1l-4.3-7.7h-4.9zm0-9.4v7.9h4.8c1.4 0 2.4-.3 3.2-1 .8-.7 1.1-1.7 1.1-2.9s-.4-2.2-1.2-2.9-1.8-1-3.2-1h-4.7zm26.9 17.1l-2.1-5.7h-7.9l-2.1 5.7h-1.9l7-18.8h1.8l7 18.8h-1.8zm-6.1-16.5l-3.4 9.3h6.8l-3.4-9.3zm12.5 16.5h-1.8V403h1.8l11 15.7h.1V403h1.8v18.8h-1.7l-11-15.7h-.1v15.6zm32.4-7.6c0 2.5-.7 4.4-2.1 5.8-1.4 1.4-3.3 2.1-5.7 2.1-2.5 0-4.6-.9-6.1-2.7-1.5-1.8-2.3-4.2-2.3-7.1 0-2.9.8-5.2 2.3-7s3.6-2.6 6.1-2.6c2 0 3.6.5 5 1.6s2.3 2.5 2.6 4.3h-1.8c-.4-1.3-1.1-2.4-2.1-3.1-1-.8-2.3-1.1-3.7-1.1-2 0-3.6.7-4.8 2.1-1.2 1.4-1.8 3.3-1.8 5.8s.6 4.5 1.8 5.9c1.2 1.5 2.8 2.2 4.8 2.2 1.8 0 3.3-.5 4.4-1.6 1.1-1.1 1.7-2.5 1.7-4.3v-.7h-5.8v-1.6h7.6v2zm14.9 6v1.6h-11.3V403H141v1.6h-9.6v6.7h9.1v1.6h-9.1v7.2h9.6z" fill="#fffefe"/><path d="M-52.3 441.9c-1.2 0-2.1-.4-2.8-1.2s-1-1.9-1-3.2c0-1.3.3-2.4 1-3.2s1.6-1.2 2.8-1.2c.9 0 1.7.2 2.3.7s1 1.1 1.2 2h-1.1c-.2-.5-.4-.9-.9-1.3s-.9-.5-1.5-.5c-.8 0-1.5.3-2 .9s-.7 1.4-.7 2.5c0 1 .2 1.9.7 2.5s1.2.9 2 .9c.6 0 1.1-.1 1.5-.4s.7-.6.9-1.1h1.1c-.2.8-.6 1.4-1.2 1.9s-1.4.7-2.3.7zm10-.9c-.5.6-1.2.9-2.1.9s-1.6-.3-2.1-.9-.8-1.4-.8-2.3.3-1.8.8-2.3 1.2-.9 2.1-.9 1.6.3 2.1.9.8 1.4.8 2.3-.2 1.7-.8 2.3zm-2.1-.1c.6 0 1-.2 1.4-.6s.5-1 .5-1.7-.2-1.3-.5-1.7-.8-.6-1.4-.6-1 .2-1.4.6-.5 1-.5 1.7.2 1.3.5 1.7.8.6 1.4.6zm6.8 1c-.7 0-1.3-.2-1.7-.5s-.7-.7-.8-1.3h1c.1.3.2.5.5.6s.6.2 1 .2c.5 0 .8-.1 1.1-.3s.4-.5.4-.8c0-.4-.1-.6-.4-.8s-.6-.3-1.1-.3h-1v-.8h1c.8 0 1.2-.3 1.2-.9 0-.3-.1-.5-.3-.7s-.5-.3-.9-.3-.7.1-.9.2-.4.4-.4.6h-1c.1-.5.3-.9.7-1.2s1-.5 1.6-.5c.7 0 1.2.2 1.6.5s.6.7.6 1.2c0 .3-.1.6-.3.9s-.4.4-.8.5c.4.1.7.3.9.5s.3.6.3.9c0 .6-.2 1.1-.7 1.4s-.9.9-1.6.9zm4.6 1.6h-1V441h.5c.2-.1.4-.4.5-.7s.2-.8.2-1.2l.2-3.5h4.3v5.5h1v2.5h-.9v-1.7H-33v1.6zm3.9-2.6v-4.6h-2.4l-.2 2.7c-.1.9-.2 1.5-.5 1.9h3.1zm5.4 1c-.6 0-1.2-.2-1.5-.5s-.6-.8-.6-1.3.2-1 .6-1.3 1-.5 1.8-.5l1.8-.1v-.5c0-.4-.1-.7-.4-.9s-.6-.3-1.1-.3c-.4 0-.7.1-.9.3s-.4.4-.5.7h-1c0-.5.3-1 .7-1.3s1-.5 1.7-.5 1.3.2 1.8.6.7.9.7 1.5v4.3h-1V441c-.2.4-.5.6-.8.8s-.9.1-1.3.1zm.2-.9c.5 0 .9-.1 1.3-.4s.5-.7.5-1.1v-.5l-1.7.1c-1 .1-1.4.4-1.4 1 0 .3.1.5.4.7s.5.2.9.2zm9.1.8v-2.9h-3.2v2.9h-1v-6.3h1v2.6h3.2v-2.6h1v6.3h-1zm4.1 0h-1v-6.3h1v4.7l3.3-4.7h1v6.3h-1v-4.7l-3.3 4.7zM.3 440h1c-.1.5-.4 1-.9 1.3s-1.1.5-1.8.5c-.9 0-1.6-.3-2.1-.9s-.8-1.4-.8-2.3.3-1.8.8-2.4 1.2-.9 2.1-.9c.8 0 1.5.3 2 .8s.7 1.3.7 2.3v.4h-4.5v.1c0 .6.2 1.1.5 1.4s.8.5 1.4.5c.4 0 .7-.1 1-.3s.5-.2.6-.5zm-1.7-3.7c-.5 0-.9.2-1.2.5s-.5.8-.5 1.3H.4c0-.5-.2-1-.5-1.3s-.8-.5-1.3-.5zm9 5.5h-1v-6.3h1v4.7l3.3-4.7h1v6.3h-1v-4.7l-3.3 4.7zm14.1 0v-5.5h-3.2v5.5h-1v-6.3h5.2v6.3h-1zm6.1-6.4c.8 0 1.5.3 2 .9s.7 1.4.7 2.3-.2 1.7-.7 2.3-1.1.9-1.9.9c-.4 0-.8-.1-1.2-.3s-.6-.5-.8-.8v3.1h-1v-8.4h1v1c.2-.3.5-.6.8-.8s.7-.2 1.1-.2zm-.2 5.5c.6 0 1-.2 1.3-.6s.5-1 .5-1.7-.2-1.3-.5-1.7-.8-.6-1.3-.6-1 .2-1.3.6-.5 1-.5 1.7.2 1.2.5 1.7.8.6 1.3.6zm9.4.1c-.5.6-1.2.9-2.1.9s-1.6-.3-2.1-.9-.8-1.4-.8-2.3.3-1.8.8-2.3 1.2-.9 2.1-.9 1.6.3 2.1.9.8 1.4.8 2.3-.2 1.7-.8 2.3zm-2.1-.1c.6 0 1-.2 1.4-.6s.5-1 .5-1.7-.2-1.3-.5-1.7-.8-.6-1.4-.6-1 .2-1.4.6-.5 1-.5 1.7.2 1.3.5 1.7.8.6 1.4.6zm5 2.6H39V441h.5c.2-.1.4-.4.5-.7s.2-.8.2-1.2l.2-3.5h4.3v5.5h1v2.5h-.9v-1.7h-4.9v1.6zm3.9-2.6v-4.6h-2.4l-.2 2.7c-.1.9-.2 1.5-.5 1.9h3.1zm3.6.9v-6.3h2.7c.6 0 1 .1 1.4.4s.5.7.5 1.2c0 .3-.1.6-.3.9s-.4.4-.7.5c.4.1.7.2 1 .5s.4.6.4 1c0 .6-.2 1-.6 1.3s-.9.5-1.6.5h-2.8zm2.5-5.5h-1.6v1.8h1.4c.8 0 1.2-.3 1.2-.9 0-.3-.1-.5-.3-.7s-.3-.2-.7-.2zm0 2.6h-1.5v2h1.7c.4 0 .7-.1.9-.3s.3-.4.3-.7c0-.3-.1-.6-.3-.8s-.7-.2-1.1-.2zm5.2 2.9h-1v-6.3h1v4.7l3.3-4.7h1v6.3h-1v-4.7l-3.3 4.7zm11.8-3.3l2.9 3.3h-1.3l-2.6-3.1v3.1h-1v-3.1l-2.6 3.1H61l2.9-3.3-2.8-3h1.3l2.6 2.8v-2.8h1v2.8l2.6-2.8h1.3l-3 3zm8.4 1.5h1c-.1.5-.4 1-.9 1.3s-1.1.5-1.8.5c-.9 0-1.6-.3-2.1-.9s-.8-1.4-.8-2.3.3-1.8.8-2.4 1.2-.9 2.1-.9c.8 0 1.5.3 2 .8s.7 1.3.7 2.3v.4h-4.5v.1c0 .6.2 1.1.5 1.4s.8.5 1.4.5c.4 0 .7-.1 1-.3s.5-.2.6-.5zm-1.7-3.7c-.5 0-.9.2-1.2.5s-.5.8-.5 1.3h3.5c0-.5-.2-1-.5-1.3s-.8-.5-1.3-.5zm8.8 5.5v-2.9h-3.2v2.9h-1v-6.3h1v2.6h3.2v-2.6h1v6.3h-1zm4.1 0h-1v-6.3h1v4.7l3.3-4.7h1v6.3h-1v-4.7l-3.3 4.7zm10.6-1.8h1c-.1.5-.4 1-.9 1.3s-1.1.5-1.8.5c-.9 0-1.6-.3-2.1-.9s-.8-1.4-.8-2.3.3-1.8.8-2.4 1.2-.9 2.1-.9c.8 0 1.5.3 2 .8s.7 1.3.7 2.3v.4h-4.5v.1c0 .6.2 1.1.5 1.4s.8.5 1.4.5c.4 0 .7-.1 1-.3s.5-.2.6-.5zm-1.7-3.7c-.5 0-.9.2-1.2.5s-.5.8-.5 1.3h3.5c0-.5-.2-1-.5-1.3s-.8-.5-1.3-.5zm13.2 1.1h-1c-.1-.3-.3-.6-.6-.8s-.6-.3-1.1-.3c-.6 0-1 .2-1.3.6s-.5 1-.5 1.7.2 1.3.5 1.7.8.6 1.4.6c.4 0 .8-.1 1-.3s.5-.4.6-.8h1c-.1.6-.4 1.1-.9 1.4s-1.1.5-1.8.5c-.9 0-1.6-.3-2.1-.9s-.8-1.4-.8-2.3c0-1 .3-1.7.8-2.3s1.2-.9 2.1-.9c.7 0 1.3.2 1.8.6s.8.9.9 1.5zm3.6 4.5c-.6 0-1.2-.2-1.5-.5s-.6-.8-.6-1.3.2-1 .6-1.3 1-.5 1.8-.5l1.8-.1v-.5c0-.4-.1-.7-.4-.9s-.6-.3-1.1-.3c-.4 0-.7.1-.9.3s-.4.4-.5.7h-1c0-.5.3-1 .7-1.3s1-.5 1.7-.5 1.3.2 1.8.6.7.9.7 1.5v4.3h-1V441c-.2.4-.5.6-.8.8s-.9.1-1.3.1zm.2-.9c.5 0 .9-.1 1.3-.4s.5-.7.5-1.1v-.5l-1.7.1c-1 .1-1.4.4-1.4 1 0 .3.1.5.4.7s.5.2.9.2zm5.9.8h-1v-6.3h1v4.7l3.3-4.7h1v6.3h-1v-4.7l-3.3 4.7zm-.3-9.1h.8c0 .3.1.6.3.9s.5.3.8.3.6-.1.8-.3.3-.5.3-.9h.8c0 .5-.2 1-.5 1.3s-.8.5-1.4.5-1-.2-1.4-.5-.5-.8-.5-1.3zm11.3 2.8v.8h-2.1v5.5h-1v-5.5h-2.1v-.8h5.2zm6.2 5.5c-.5.6-1.2.9-2.1.9s-1.6-.3-2.1-.9-.8-1.4-.8-2.3.3-1.8.8-2.3 1.2-.9 2.1-.9 1.6.3 2.1.9.8 1.4.8 2.3-.3 1.7-.8 2.3zm-2.2-.1c.6 0 1-.2 1.4-.6s.5-1 .5-1.7-.2-1.3-.5-1.7-.8-.6-1.4-.6-1 .2-1.4.6-.5 1-.5 1.7.2 1.3.5 1.7.8.6 1.4.6zm4.7.9v-6.3h2.7c.6 0 1 .1 1.4.4s.5.7.5 1.2c0 .3-.1.6-.3.9s-.4.4-.7.5c.4.1.7.2 1 .5s.4.6.4 1c0 .6-.2 1-.6 1.3s-.9.5-1.6.5H138zm2.6-5.5H139v1.8h1.4c.8 0 1.2-.3 1.2-.9 0-.3-.1-.5-.3-.7s-.4-.2-.7-.2zm-.1 2.6H139v2h1.7c.4 0 .7-.1.9-.3s.3-.4.3-.7c0-.3-.1-.6-.3-.8s-.6-.2-1.1-.2z" fill="#ea5008"/><path opacity=".4" fill="#ea5008" d="M-56.1 428.6h197.8v1H-56.1z"/></svg>