<svg xmlns="http://www.w3.org/2000/svg" id="Layer_1" viewBox="81 258.3 241.8 264.1" version="1.1" width="241.8" height="264.1"><style id="style3361">.st9{fill:#ff8a22}.st11{fill:#ffab30}.st13{fill:#ff7729}.st17{fill:#fb3c12}.st18{fill:#ffa428}.st23{fill:#fd4114}.st24{fill:#ffaf32}.st32{fill:#ff991c}.st33{fill:#ff7b0a}.st48{fill:#ffa634}.st55{fill:#ff9213}.st67{fill:#ff771f}.st72{fill:#ff7728}.st91{fill:#ff7d07}.st110{fill:#ff5129}.st113{fill:#ffaa47}.st117{fill:#ff8b20}.st198{fill:#96a91a}.st199{fill:#b8ce2b}.st200{fill:#a9c015}</style><path d="M311.9 428.8l-1-5.6 11.9-21.7-11.6-18.4 4.5-11.3-10.9-8.5-1.5-23-21.7-9.7-4-9.3-6.3-2.1-9.6-15.1-20.1.9-17-15.1-15.5 5.3-4.9-2.7-12.4 6-23.7-5.1-9.4 10-6.6-.9-9.2 14.3-26.4 8.3-5.7 23.7-4.7 3.5-.3 5.3-2.3 2.3.1 3.2-15.9 17.5 6.9 18.5-5.8 10.8 6.2 10.8-4.2 18.1 16 16.3 1.8 14.3 10.4 5.1 7.2 21.9 24.3 4.2 8.1 10.6 11.8-.4 14.3 10.5 18.4-7 20.8 8.1 8.9-7.6 7.9 1.6 13.2-14.6 23.4-2.8 6.1-15.3 4.4-1.9 4-12.9 21.1-14.1-2.7-23.5z" id="path3363" fill="#f4a73b"/><path d="M287 450.4l-5.1 10.4 10.4-22.8z" id="path3365" fill="#898a8d"/><path d="M250.3 495.4l-7.3 2.9 20.7-15.2z" id="path3367" fill="#a0a1a3"/><path d="M306 389.5l-8.8-27.6 8.1 14.6z" id="path3369" fill="#8d8e91"/><path d="M153.8 496.1l-7.7-4.3 25.5 9.1z" id="path3371" fill="#6c6e70"/><path d="M311.9 428.8l-7.6 11.1 5.3-24.8z" id="path3373" fill="#ff7308"/><path d="M103.7 371.2l-.2-11.3 12.7-12.4z" id="path3375" fill="#ffa64a"/><path d="M260.2 493.6l16.7-9.2 10.9-2.6z" id="path3377" fill="#a0a0a0"/><path class="st9" d="M287.8 481.8l-10.9 2.6 16.4-20.3z" id="path3379" fill="#ff8a22"/><path d="M264.2 318l13.4 3.3 6.4 14.9z" id="path3381" fill="#ff7c00"/><path class="st11" d="M249.5 312l28.1 9.3-13.4-3.3z" id="path3383" fill="#ffab30"/><path d="M107.8 451.5l15.9 25.2-15.1-7.3z" id="path3385" fill="#ff521e"/><path class="st13" d="M107.8 451.5l.8 17.9-4.1-32z" id="path3387" fill="#ff7729"/><path d="M240.7 516.4l-27.9-5.8 18 .8z" id="path3389" fill="#fb470e"/><path d="M240.7 516.4l-9.9-5 24.4-11.1z" id="path3391" fill="#ff8a2c"/><path d="M98.4 422.7l6.1 14.7-15.7-27.5z" id="path3393" fill="#ff782a"/><path class="st13" d="M96.2 396l2.2 26.7-9.6-12.8z" id="path3395" fill="#ff7729"/><path class="st17" d="M212.8 510.6l-28.1 10.7 18.9-8.2z" id="path3397" fill="#fb3c12"/><path class="st18" d="M224.6 289.9l24.9 22.1-9.9-6.9z" id="path3399" fill="#ffa428"/><path d="M322.8 401.5l-13.3-14.1-4.1-13.6z" id="path3401" fill="#fb7100"/><path d="M309.5 387.4l-8.4-27 4.3 13.4z" id="path3403" fill="#808183"/><path d="M305.4 373.8l-4.3-13.4 2.2-20.1z" id="path3405" fill="#fc7800"/><path d="M184.7 521.3l-10.6-13.1 29.5 4.9z" id="path3407" fill="#ff591d"/><path class="st23" d="M184.7 521.3L158.5 502l15.6 6.2z" id="path3409" fill="#fd4114"/><path class="st24" d="M163.3 306l-15.8 9.4 20.6-22z" id="path3411" fill="#ffaf32"/><path d="M168.1 293.4l28.2 6.1-8.8 1z" id="path3413" fill="#ff911b"/><path d="M163.3 306l4.8-12.6 19.4 7.1z" id="path3415" fill="#f92"/><path d="M213.3 299.4l11.3-9.5 15 15.2z" id="path3417" fill="#ff991a"/><path d="M196.3 299.5l17-.1-25.8 1.1z" id="path3419" fill="#9c9ea0"/><path d="M196.3 299.5l28.3-9.6-11.3 9.5z" id="path3421" fill="#ff9f20"/><path d="M140 321.1l7.5-5.7 15.8-9.4z" id="path3423" fill="#b9b9ba"/><path d="M140 321.1l-23.5 4 31-9.7z" id="path3425" fill="#ff9528"/><path class="st32" d="M322.8 401.5l-13.7 9.9.4-24z" id="path3427" fill="#ff991c"/><path class="st33" d="M309.5 425.8l-.4-14.4 13.7-9.9z" id="path3429" fill="#ff7b0a"/><path d="M230.8 511.4l16.1-8.8 8.3-2.3z" id="path3431" fill="#ff7a23"/><path class="st13" d="M97.9 408l.5 14.7-2.2-26.7z" id="path3433" fill="#ff7729"/><path d="M158.5 502l-11.4-6 27 12.2z" id="path3435" fill="#6e6f72"/><path d="M158.5 502l-32.3-5.6 20.9-.4z" id="path3437" fill="#fe4117"/><path d="M118.5 344.4l-2-19.3 23.5-4z" id="path3439" fill="#ff992d"/><path d="M118.5 344.4l-9.9 13.1 7.9-32.4z" id="path3441" fill="#ff8c28"/><path d="M277.3 328.7l26 11.6-16.4 2.5z" id="path3443" fill="#ff9311"/><path d="M286.9 342.8l16.4-2.5-2.2 20.1z" id="path3445" fill="#ff9a18"/><path d="M174.1 508.2l17.7 1.8 11.8 3.1z" id="path3447" fill="#fb3f11"/><path d="M312.9 454.8l-9.5-22.7 6.1-6.3z" id="path3449" fill="#ff8213"/><path d="M303.4 432.1l5.7-20.7.4 14.4z" id="path3451" fill="#ff7207"/><path d="M105.3 369.2l3.3-11.7 9.9-13.1z" id="path3453" fill="#b9baba"/><path d="M105.3 369.2l-17.6 11.4 20.9-23.1z" id="path3455" fill="#ffae5f"/><path d="M213.3 299.4l26.3 5.7-8.8 1.4z" id="path3457" fill="#ff9417"/><path class="st24" d="M230.8 306.5l8.8-1.4 22.1-1z" id="path3459" fill="#ffaf32"/><path d="M163.3 306l24.2-5.5-7.3 5.7z" id="path3461" fill="#ff9620"/><path class="st48" d="M118.5 344.4l21.5-23.3-7 11.1z" id="path3463" fill="#ffa634"/><path d="M128 474.3l19.1 21.7-20.9.4z" id="path3465" fill="#ff471a"/><path d="M128 474.3l-1.8 22.1-10.6-32.2z" id="path3467" fill="#ff511e"/><path d="M312.9 454.8l-20-1.7 10.5-21z" id="path3469" fill="#ff9b26"/><path d="M288.2 471.3l4.7-18.2 20 1.7z" id="path3471" fill="#ff9625"/><path d="M309.5 387.4l-5.5 4.5 11.7-20.1z" id="path3473" fill="#f67408"/><path d="M309.1 411.4l-5.1-19.5 5.5-4.5z" id="path3475" fill="#ff7c08"/><path class="st55" d="M295.2 363.8l5.9-3.4 14.6 11.4z" id="path3477" fill="#ff9213"/><path d="M295.2 363.8l20.5 8-11.7 20.1z" id="path3479" fill="#ffa422"/><path d="M286.9 342.8l14.2 17.6-5.9 3.4z" id="path3481" fill="#ff7a02"/><path d="M105.3 369.2l-2.2 24-15.4-12.6z" id="path3483" fill="#ff8a2d"/><path d="M103.1 393.2L97.9 408l-10.2-27.4z" id="path3485" fill="#ff631e"/><path d="M277.3 328.7l9.6 14.1-16.9-12.1z" id="path3487" fill="#ff8105"/><path d="M261.7 304.1l15.6 24.6-7.3 2z" id="path3489" fill="#ff8506"/><path class="st24" d="M180.2 306.2l7.3-5.7 16.7-8z" id="path3491" fill="#ffaf32"/><path d="M277.3 499l.7-27.6 10.2-.1z" id="path3493" fill="#ff8721"/><path d="M278 471.4l14.9-18.3-4.7 18.2z" id="path3495" fill="#ff8e23"/><path d="M223.9 522.4L191.8 510l19.7-4.2z" id="path3497" fill="#ff5518"/><path d="M223.9 522.4l-12.4-16.6 26.1-7.1z" id="path3499" fill="#ff7021"/><path d="M223.9 522.4l13.7-23.7 9.3 3.9z" id="path3501" fill="#ff9230"/><path class="st67" d="M246.9 502.6l11.8-15.6 18.6 12z" id="path3503" fill="#ff771f"/><path d="M277.3 499l-18.6-12 19.3-15.6z" id="path3505" fill="#ff8d27"/><path d="M237.6 498.7l21.1-11.7-11.8 15.6z" id="path3507" fill="#ff8e2c"/><path d="M113.8 446.9l1.8 17.3-24.8-25.4z" id="path3509" fill="#ff4d1a"/><path d="M128 474.3l-12.4-10.1-1.8-17.3z" id="path3511" fill="#ff4a19"/><path class="st17" d="M105.7 418.9l8.1 28-23-8.1z" id="path3513" fill="#fb3c12"/><path class="st72" d="M105.7 418.9L97.9 408l5.2-14.8z" id="path3515" fill="#ff7728"/><path d="M105.7 418.9l-14.9 19.9 7.1-30.8z" id="path3517" fill="#ff913a"/><path d="M248.4 321.1l13.3-17 8.3 26.6z" id="path3519" fill="#ff9a19"/><path class="st55" d="M230.8 306.5l30.9-2.4-13.3 17z" id="path3521" fill="#ff9213"/><path d="M152.9 324.9l-19.9 7.3 19.1-29.7z" id="path3523" fill="#ff9324"/><path d="M191.8 510l-33.2 1.2 24.2-10.1z" id="path3525" fill="#ff792b"/><path d="M191.8 510l-9-8.9 28.7 4.7z" id="path3527" fill="#ff5018"/><path d="M145.5 481.7l1.6 14.3-19.1-21.7z" id="path3529" fill="#ff4517"/><path d="M145.5 481.7l13.1 29.5-11.5-15.2z" id="path3531" fill="#ff5820"/><path d="M152.9 324.9l-.8-22.4 25.2 13.6z" id="path3533" fill="#ff8519"/><path d="M152.1 302.5l28.1 3.7-2.9 9.9z" id="path3535" fill="#ff9521"/><path d="M106.1 352.3l7.4 27.2-8.2-10.3z" id="path3537" fill="#ff7c24"/><path d="M113.5 379.5l-10.4 13.7 2.2-24z" id="path3539" fill="#ff852a"/><path class="st32" d="M230.8 306.5l17.6 14.6-23.5-4.7z" id="path3541" fill="#ff991c"/><path d="M204.2 292.5l26.6 14-5.9 9.9z" id="path3543" fill="#ff9218"/><path class="st48" d="M132.3 347.4l.7-15.2 19.9-7.3z" id="path3545" fill="#ffa634"/><path d="M132.3 347.4l-26.2 4.9 26.9-20.1z" id="path3547" fill="#ff982e"/><path class="st18" d="M180.2 306.2l24-13.7-4 22.5z" id="path3549" fill="#ffa428"/><path class="st33" d="M200.2 315l4-22.5 20.7 23.9z" id="path3551" fill="#ff7b0a"/><path d="M180.2 306.2l20 8.8-22.9 1.1z" id="path3553" fill="#ff901c"/><path d="M295.2 363.8l8.8 28.1-14.2-10.9z" id="path3555" fill="#ff9419"/><path d="M289.8 381l14.2 10.9 6.4 20.2z" id="path3557" fill="#ff7b09"/><path d="M292.9 453.1l-1.9-22.7 12.4 1.7z" id="path3559" fill="#ff8819"/><path d="M303.4 432.1l-12.4-1.7 19.4-18.3z" id="path3561" fill="#ff951e"/><path class="st91" d="M270 330.7l16.9 12.1 2.1 2.1z" id="path3563" fill="#ff7d07"/><path d="M289 344.9l6.2 18.9-5.4 17.2z" id="path3565" fill="#ff810a"/><path class="st23" d="M165.7 484.9l-7.1 26.3-13.1-29.5z" id="path3567" fill="#fd4114"/><path d="M165.7 484.9l17.1 16.2-24.2 10.1z" id="path3569" fill="#ff581e"/><path d="M248.4 321.1l21.6 9.6-7.7 10.2z" id="path3571" fill="#ff9114"/><path d="M262.3 340.9l7.7-10.2 19 14.2z" id="path3573" fill="#ff9a1a"/><path d="M211.5 505.8l10.2-14.5 15.9 7.4z" id="path3575" fill="#ff7b26"/><path d="M211.5 505.8l-9.8 3.3 20-17.8z" id="path3577" fill="#ff8c30"/><path d="M120.8 430.1l-7 16.8-8.1-28z" id="path3579" fill="#ff541a"/><path d="M128.2 370.1l-14.7 9.4-7.4-27.2z" id="path3581" fill="#fd500e"/><path d="M132.3 347.4l-4.1 22.7-22.1-17.8z" id="path3583" fill="#ff7d22"/><path d="M258.7 487l3-20.9 16.3 5.3z" id="path3585" fill="#ff9229"/><path d="M289.8 381l20.6 31.1-28.4-11.9z" id="path3587" fill="#ff9a21"/><path d="M282 400.2l28.4 11.9-19.4 18.3z" id="path3589" fill="#ff8b17"/><path d="M152.9 324.9l24.4-8.8-6.5 17.7z" id="path3591" fill="#ff9c28"/><path d="M289.8 381l-7.8 19.2-10-32.1z" id="path3593" fill="#ff9e23"/><path d="M289 344.9l.8 36.1-17.8-12.9z" id="path3595" fill="#ff9e1f"/><path d="M262.3 340.9l26.7 4-17 23.2z" id="path3597" fill="#ff870d"/><path class="st17" d="M121.8 463.6l23.7 18.1-17.5-7.4z" id="path3599" fill="#fb3c12"/><path d="M120.8 430.1l1 33.5-8-16.7z" id="path3601" fill="#ff762b"/><path d="M192.1 486.3l9.6 22.8-18.9-8z" id="path3603" fill="#fd4813"/><path class="st110" d="M192.1 486.3l-9.3 14.8-17.1-16.2z" id="path3605" fill="#ff5129"/><path d="M192.1 486.3l29.6 5-20 17.8z" id="path3607" fill="#ff7b28"/><path d="M104.9 402l15.9 28.1-15.1-11.2z" id="path3609" fill="#ff5318"/><path class="st113" d="M113.5 379.5l-8.6 22.5-1.8-8.8z" id="path3611" fill="#ffaa47"/><path class="st72" d="M104.9 402l.8 16.9-2.6-25.7z" id="path3613" fill="#ff7728"/><path d="M143.2 330.7l9.7-5.8 17.9 8.9z" id="path3615" fill="#ff9124"/><path d="M278 471.4l-16.3-5.3 24.8-12z" id="path3617" fill="#ff9126"/><path d="M292.9 453.1l-6.4 1 4.5-23.7z" id="path3619" fill="#ff7712"/><path class="st117" d="M278 471.4l8.5-17.3 6.4-1z" id="path3621" fill="#ff8b20"/><path d="M200.2 315l24.7 1.4-7.8 14z" id="path3623" fill="#ff921b"/><path d="M154.1 464.8l-8.6 16.9-23.7-18.1z" id="path3625" fill="#ff4a17"/><path d="M165.7 484.9l-20.2-3.2 8.6-16.9z" id="path3627" fill="#ff542c"/><path d="M149.6 357.1l-21.4 13 4.1-22.7z" id="path3629" fill="#ff922a"/><path d="M143.2 330.7l27.6 3.1-21.2 23.3z" id="path3631" fill="#ff7818"/><path d="M143.2 330.7l6.4 26.4-17.3-9.7z" id="path3633" fill="#ff5f0d"/><path d="M237.6 498.7l-15.9-7.4 25.8-2.4z" id="path3635" fill="#ff6317"/><path d="M258.7 487l-11.2 1.9 14.2-22.8z" id="path3637" fill="#ff8524"/><path d="M237.6 498.7l9.9-9.8 11.2-1.9z" id="path3639" fill="#ff8828"/><path d="M131.6 391.2l-18.1-11.7 14.7-9.4z" id="path3641" fill="#ff7721"/><path d="M131.6 391.2L104.9 402l8.6-22.5z" id="path3643" fill="#ff9b39"/><path d="M217.1 330.4l7.8-14 20.6 10z" id="path3645" fill="#ff9c20"/><path d="M224.9 316.4l23.5 4.7-2.9 5.3z" id="path3647" fill="#ff981a"/><path class="st91" d="M245.5 326.4l2.9-5.3 13.9 19.8z" id="path3649" fill="#ff7d07"/><path d="M282 400.2l9 30.2-21.8-10.1z" id="path3651" fill="#ff9c26"/><path d="M269.2 420.3l21.8 10.1-4.5 23.7z" id="path3653" fill="#ffa02a"/><path d="M143.3 441l-21.5 22.6-1-33.5z" id="path3655" fill="#ff581c"/><path d="M143.3 441l10.8 23.8-32.3-1.2z" id="path3657" fill="#f8380e"/><path d="M262.3 340.9l9.7 27.2-22.6-9.2z" id="path3659" fill="#ff971d"/><path d="M245.5 326.4l16.8 14.5-12.9 18z" id="path3661" fill="#ff9e21"/><path d="M213.3 472.3l34.2 16.6-25.8 2.4z" id="path3663" fill="#fe5210"/><path d="M213.3 472.3l8.4 19-29.6-5z" id="path3665" fill="#ff6319"/><path d="M143.3 441l-22.5-10.9 15.5-14z" id="path3667" fill="#f73a0b"/><path d="M131.6 391.2l4.7 24.9-31.4-14.1z" id="path3669" fill="#ff5112"/><path d="M136.3 416.1l-15.5 14-15.9-28.1z" id="path3671" fill="#fc4610"/><path d="M193.1 321.2l7.1-6.2 16.9 15.4z" id="path3673" fill="#ff961f"/><path d="M177.3 316.1l22.9-1.1-7.1 6.2z" id="path3675" fill="#ff8b19"/><path class="st11" d="M170.8 333.8l6.5-17.7 15.8 5.1z" id="path3677" fill="#ffab30"/><path d="M269.2 420.3l17.3 33.8-33.3-14.6z" id="path3679" fill="#ff8f22"/><path d="M253.2 439.5l33.3 14.6-24.8 12z" id="path3681" fill="#ff630c"/><path d="M233.9 457.8l27.8 8.3-14.2 22.8z" id="path3683" fill="#ff9d31"/><path d="M233.9 457.8l13.6 31.1-34.2-16.6z" id="path3685" fill="#fe570e"/><path d="M253.2 439.5l8.5 26.6-27.8-8.3z" id="path3687" fill="#ff7a1b"/><path d="M170.8 333.8l22.3-12.6-18.4 33.1z" id="path3689" fill="#ff9524"/><path class="st9" d="M170.8 333.8l3.9 20.5-25.1 2.8z" id="path3691" fill="#ff8a22"/><path d="M217.1 330.4l28.4-4-20.8 26.4z" id="path3693" fill="#ff7708"/><path d="M245.5 326.4l3.9 32.5-24.7-6.1z" id="path3695" fill="#ff8914"/><path d="M193.1 321.2l5.7 29.4-24.1 3.7z" id="path3697" fill="#fa5d03"/><path d="M193.1 321.2l24 9.2-18.3 20.2z" id="path3699" fill="#ff9b24"/><path d="M217.1 330.4l7.6 22.4-25.9-2.2z" id="path3701" fill="#ff750c"/><path d="M169.9 447.9l-15.8 16.9-10.8-23.8z" id="path3703" fill="#f9400d"/><path d="M233.9 457.8l-20.6 14.5-12.4-20.5z" id="path3705" fill="#ff5d13"/><path d="M154.8 400.6l-18.5 15.5-4.7-24.9z" id="path3707" fill="#fd4f0f"/><path d="M177.5 475.9l14.6 10.4-26.4-1.4z" id="path3709" fill="#fe4814"/><path d="M169.9 447.9l31 3.9-23.4 24.1z" id="path3711" fill="#ff5e13"/><path d="M200.9 451.8l12.4 20.5-35.8 3.6z" id="path3713" fill="#ff7924"/><path d="M177.5 475.9l35.8-3.6-21.2 14z" id="path3715" fill="#ff7a27"/><path d="M169.9 447.9l7.6 28-23.4-11.1z" id="path3717" fill="#f42e00"/><path d="M177.5 475.9l-11.8 9-11.6-20.1z" id="path3719" fill="#fe4813"/><path d="M269.2 420.3l-16 19.2-12-30.4z" id="path3721" fill="#ff9224"/><path d="M198.8 350.6l-23.3 26.2-.8-22.5z" id="path3723" fill="#fd5d08"/><path d="M249.4 358.9L231 379.4l-6.3-26.6z" id="path3725" fill="#ff8818"/><path d="M272 368.1l10 32.1-16.5-14.9z" id="path3727" fill="#ff8f19"/><path d="M249.4 358.9l16.1 26.4-34.5-5.9z" id="path3729" fill="#ff760c"/><path d="M249.4 358.9l22.6 9.2-6.5 17.2z" id="path3731" fill="#ff8a15"/><path d="M265.5 385.3l3.7 35-28-11.2z" id="path3733" fill="#ff710c"/><path d="M265.5 385.3l16.5 14.9-12.8 20.1z" id="path3735" fill="#ff901e"/><path d="M231 379.4l34.5 5.9-24.3 23.8z" id="path3737" fill="#f95c02"/><path d="M144.4 375.3l31.1 1.5-20.7 23.8z" id="path3739" fill="#ff6412"/><path d="M174.7 354.3l.8 22.5-31.1-1.5z" id="path3741" fill="#ff7216"/><path d="M144.4 375.3l10.4 25.3-23.2-9.4z" id="path3743" fill="#fb4e0c"/><path d="M144.4 375.3l-12.8 15.9-3.4-21.1z" id="path3745" fill="#ff6a19"/><path class="st113" d="M149.6 357.1l-5.2 18.2-16.2-5.2z" id="path3747" fill="#ffaa47"/><path d="M149.6 357.1l25.1-2.8-30.3 21z" id="path3749" fill="#ff9d30"/><path d="M190.6 427l10.3 24.8-31-3.9z" id="path3751" fill="#ef3b0a"/><path d="M175.5 376.8l6.2 25.1-26.9-1.3z" id="path3753" fill="#fb530a"/><path class="st110" d="M211.1 402.5L190.6 427l-8.9-25.1z" id="path3755" fill="#ff5129"/><path d="M231 379.4l10.2 29.7-30.1-6.6z" id="path3757" fill="#ff821a"/><path d="M156.7 427.8l33.9-.8-20.7 20.9z" id="path3759" fill="#ff5c14"/><path d="M156.7 427.8l13.2 20.1-26.6-6.9z" id="path3761" fill="#f44719"/><path d="M154.8 400.6l1.9 27.2-20.4-11.7z" id="path3763" fill="#ff8127"/><path d="M156.7 427.8L143.3 441l-7-24.9z" id="path3765" fill="#ff5012"/><path class="st67" d="M181.7 401.9l8.9 25.1-33.9.8z" id="path3767" fill="#ff771f"/><path d="M154.8 400.6l26.9 1.3-25 25.9z" id="path3769" fill="#ff6716"/><path class="st117" d="M201.5 370.5l29.5 8.9-19.9 23.1z" id="path3771" fill="#ff8b20"/><path d="M224.7 352.8l6.3 26.6-29.5-8.9z" id="path3773" fill="#ff9724"/><path d="M198.8 350.6l25.9 2.2-23.2 17.7z" id="path3775" fill="#ff8c1e"/><path d="M201.5 370.5l9.6 32-29.4-.6z" id="path3777" fill="#f64a03"/><path d="M198.8 350.6l2.7 19.9-26 6.3z" id="path3779" fill="#ffa730"/><path d="M175.5 376.8l26-6.3-19.8 31.4z" id="path3781" fill="#fa5606"/><path d="M241.2 409.1l12 30.4-29.3-5.1z" id="path3783" fill="#ff9e2e"/><path d="M223.9 434.4l29.3 5.1-19.3 18.3z" id="path3785" fill="#ff811f"/><path d="M211.1 402.5l12.8 31.9-33.3-7.4z" id="path3787" fill="#fc550a"/><path d="M211.1 402.5l30.1 6.6-17.3 25.3z" id="path3789" fill="#ff831d"/><path d="M223.9 434.4l10 23.4-33-6z" id="path3791" fill="#ff6816"/><path d="M190.6 427l33.3 7.4-23 17.4z" id="path3793" fill="#f74707"/><path class="st198" d="M106.1 287.6l23.2 9.9 8.7 20.8z" id="path3795" fill="#96a91a"/><path class="st199" d="M133 288.8l5 29.5-8.7-20.8-8-17.6z" id="path3797" fill="#b8ce2b"/><path class="st200" d="M89.1 279.9l17 7.7 23.2 9.9-8-17.6z" id="path3799" fill="#a9c015"/><path d="M107.5 267.3l13.8 12.6H89.1z" id="path3801" fill="#c9d676"/><path class="st198" d="M81 267.3h26.5l-18.4 12.6z" id="path3803" fill="#96a91a"/><path class="st200" d="M107.5 267.3l17.9 1.3-16.2-10.3-28.2 9z" id="path3805" fill="#a9c015"/><path class="st199" d="M133.8 268.6h-8.4l-16.2-10.3z" id="path3807" fill="#b8ce2b"/><path class="st198" d="M133 288.8l-7.6-20.2-17.9-1.3 13.8 12.6zm9.9 28l-9.9-28 5 29.5z" id="path3809" fill="#96a91a"/><path class="st200" d="M133.8 268.6l9.1 48.2-9.9-28-7.6-20.2z" id="path3811" fill="#a9c015"/></svg>