<svg xmlns="http://www.w3.org/2000/svg" id="Layer_1" viewBox="81 258.3 673.124 84.987" width="673.123" height="84.987"><style id="style3337">.st9{fill:#ff8a22}.st11{fill:#ffab30}.st13{fill:#ff7729}.st17{fill:#fb3c12}.st18{fill:#ffa428}.st23{fill:#fd4114}.st24{fill:#ffaf32}.st32{fill:#ff991c}.st33{fill:#ff7b0a}.st48{fill:#ffa634}.st55{fill:#ff9213}.st67{fill:#ff771f}.st72{fill:#ff7728}.st91{fill:#ff7d07}.st110{fill:#ff5129}.st113{fill:#ffaa47}.st117{fill:#ff8b20}.st196{fill:#f74707}.st197{fill:#fff;stroke:#fff;stroke-width:.5;stroke-miterlimit:10}.st198{fill:#96a91a}.st199{fill:#b8ce2b}.st200{fill:#a9c015}</style><g id="g3881"><g id="g3367"><path id="polygon3369" fill="#f4a73b" d="M148.112 335.757l2.086-4.923 1.504-.612 1.368-4.15 7.213-4.538-.923-7.563.58-.803-.34-1.802 4.068-6.983-3.966-5.92 1.54-3.638-3.728-2.735-.513-7.402-7.418-3.122-1.367-2.993-2.154-.675-3.28-4.86-6.873.29-5.812-4.86-5.3 1.706-1.675-.868-4.24 1.93-8.102-1.64-3.213 3.217-2.257-.29-3.145 4.602-9.026 2.67-1.95 7.628-1.606 1.126-.1 1.705-.788.74.035 1.03-5.436 5.63 2.36 5.954-1.983 3.475 2.12 3.475-1.437 5.825 5.47 5.245.616 4.602 3.556 1.64 2.46 7.048 8.31 1.352 2.768 3.41 4.035-.128 4.89 3.38 6.29-2.253 7.11 2.607 3.043-2.446 2.7.516 4.514-4.698z"/><path id="polygon3371" fill="#898a8d" d="M153.24 316.127l-1.812 3.99-1.743 3.347z"/><path id="polygon3373" fill="#a0a1a3" d="M143.463 330.64l-4.582 3.96-2.495.932z"/><path id="polygon3375" fill="#8d8e91" d="M157.685 296.337l.24 4.183-3.01-8.882z"/><path id="polygon3377" fill="#6c6e70" d="M111.975 336.368l-6.086-1.544-2.633-1.384z"/><path id="polygon3379" fill="#ff7308" d="M159.155 308.758l.786 4.41-2.597 3.57z"/><path id="polygon3381" fill="#ffa64a" d="M93.034 287.004l-4.273 7.627-.068-3.635z"/><path id="polygon3383" fill="#a0a0a0" d="M151.702 330.222l-9.436 3.797 5.71-2.96z"/><path id="polygon3385" class="st9" fill="#ff8a22" d="M153.582 324.526l-1.88 5.696-3.727.837z"/><path id="polygon3387" fill="#ff7c00" d="M150.403 283.368l-6.77-5.857 4.582 1.063z"/><path id="polygon3389" class="st11" fill="#ffab30" d="M143.633 277.51l-5.025-1.93 9.607 2.993z"/><path id="polygon3391" fill="#ff521e" d="M90.436 326.232l-.273-5.76 5.436 8.11z"/><path id="polygon3393" class="st13" fill="#ff7729" d="M89.034 315.934l1.13 4.538.272 5.76z"/><path id="polygon3395" fill="#fb470e" d="M132.214 339.747l3.385 1.61-9.54-1.867z"/><path id="polygon3397" fill="#ff8a2c" d="M140.556 336.175l-4.957 5.18-3.386-1.608z"/><path id="polygon3399" fill="#ff782a" d="M83.667 307.085l3.282 4.12 2.084 4.73z"/><path id="polygon3401" class="st13" fill="#ff7729" d="M83.667 307.085l2.53-4.473.752 8.592z"/><path id="polygon3403" class="st17" fill="#fb3c12" d="M122.915 340.294l3.146-.804-9.606 3.443z"/><path id="polygon3405" class="st18" fill="#ffa428" d="M135.223 273.36l-5.128-4.89 8.513 7.11z"/><path id="polygon3407" fill="#fb7100" d="M157.72 295.468l5.948 8.914-4.547-4.538z"/><path id="polygon3409" fill="#808183" d="M157.72 295.468l1.4 4.376-2.87-8.688z"/><path id="polygon3411" fill="#fc7800" d="M157 284.688l.72 10.78-1.47-4.312z"/><path id="polygon3413" fill="#ff591d" d="M122.915 340.294l-6.46 2.64-3.625-4.216z"/><path id="polygon3415" class="st23" fill="#fd4114" d="M112.83 338.718l3.624 4.215-8.958-6.21z"/><path id="polygon3417" class="st24" fill="#ffaf32" d="M110.778 269.595l-1.64 4.055-5.403 3.025z"/><path id="polygon3419" fill="#ff911b" d="M117.41 271.88l-6.632-2.285 9.64 1.963z"/><path id="polygon3421" fill="#f92" d="M117.41 271.88l-8.273 1.77 1.64-4.055z"/><path id="polygon3423" fill="#ff991a" d="M135.223 273.36l-8.992-1.834 3.865-3.057z"/><path id="polygon3425" fill="#9c9ea0" d="M117.41 271.88l3.01-.322 5.81-.032z"/><path id="polygon3427" fill="#ff9f20" d="M126.23 271.526l-5.81.032 9.675-3.09z"/><path id="polygon3429" fill="#b9b9ba" d="M109.137 273.65l-7.966 4.86 2.565-1.835z"/><path id="polygon3431" fill="#ff9528" d="M103.735 276.675l-2.564 1.834-8.033 1.286z"/><path id="polygon3433" class="st32" fill="#ff991c" d="M159.12 299.844l4.548 4.538-4.684 3.185z"/><path id="polygon3435" class="st33" fill="#ff7b0a" d="M163.668 304.382l-4.547 7.82-.136-4.635z"/><path id="polygon3437" fill="#ff7a23" d="M140.556 336.175l-8.342 3.572 5.505-2.83z"/><path id="polygon3439" class="st13" fill="#ff7729" d="M86.197 302.612l.58 3.86.172 4.732z"/><path id="polygon3441" fill="#6e6f72" d="M112.83 338.718l-5.334-1.996-3.897-1.93z"/><path id="polygon3443" fill="#fe4117" d="M103.6 334.792l3.896 1.93-11.043-1.802z"/><path id="polygon3445" fill="#ff992d" d="M101.17 278.51l-7.35 7.497-.683-6.21z"/><path id="polygon3447" fill="#ff8c28" d="M93.137 279.796l.684 6.21-3.384 4.216z"/><path id="polygon3449" fill="#ff9311" d="M151.394 285.492l-3.282-4.537 8.89 3.733z"/><path id="polygon3451" fill="#ff9a18" d="M156.25 291.156l-4.856-5.664 5.607-.804z"/><path id="polygon3453" fill="#fb3f11" d="M122.915 340.294l-10.085-1.576 6.05.58z"/><path id="polygon3455" fill="#ff8213" d="M159.12 312.2l1.163 9.334-3.248-7.305z"/><path id="polygon3457" fill="#ff7207" d="M159.12 312.2l-2.085 2.03 1.95-6.663z"/><path id="polygon3459" fill="#b9baba" d="M93.82 286.007l-4.512 7.98 1.128-3.765z"/><path id="polygon3461" fill="#ffae5f" d="M90.436 290.222l-1.128 3.766-6.017 3.668z"/><path id="polygon3463" fill="#ff9417" d="M132.214 273.81l-5.983-2.284 8.993 1.834z"/><path id="polygon3465" class="st24" fill="#ffaf32" d="M142.78 273.038l-10.566.773 3.01-.45z"/><path id="polygon3467" fill="#ff9620" d="M114.915 273.714l-5.778-.064 8.274-1.77z"/><path id="polygon3469" class="st48" fill="#ffa634" d="M98.778 282.08l-4.957 3.927 7.35-7.498z"/><path id="polygon3471" fill="#ff471a" d="M96.453 334.92l.616-7.11 6.53 6.982z"/><path id="polygon3473" fill="#ff511e" d="M92.83 324.558l4.24 3.25-.617 7.112z"/><path id="polygon3475" fill="#ff9b26" d="M157.035 314.23l3.248 7.304-6.837-.548z"/><path id="polygon3477" fill="#ff9625" d="M160.283 321.534l-8.444 5.31 1.606-5.858z"/><path id="polygon3479" fill="#f67408" d="M161.24 294.824l-2.12 5.02-1.88 1.448z"/><path id="polygon3481" fill="#ff7c08" d="M159.12 299.844l-.136 7.723-1.743-6.275z"/><path id="polygon3483" class="st55" fill="#ff9213" d="M161.24 294.824l-7.008-2.574 2.017-1.094z"/><path id="polygon3485" fill="#ffa422" d="M157.24 301.292l-3.008-9.042 7.01 2.574z"/><path id="polygon3487" fill="#ff7a02" d="M154.232 292.25l-2.838-6.758 4.855 5.664z"/><path id="polygon3489" fill="#ff8a2d" d="M83.29 297.656l6.018-3.668-.752 7.723z"/><path id="polygon3491" fill="#ff631e" d="M83.29 297.656l5.266 4.055-1.778 4.763z"/><path id="polygon3493" fill="#ff8105" d="M145.616 281.598l2.496-.643 3.282 4.537z"/><path id="polygon3495" fill="#ff8506" d="M145.616 281.598l-2.837-8.56 5.332 7.917z"/><path id="polygon3497" class="st24" fill="#ffaf32" d="M123.12 269.306l-8.205 4.408 2.496-1.834z"/><path id="polygon3499" fill="#ff8721" d="M151.84 326.843l-3.728 8.914.24-8.882z"/><path id="polygon3501" fill="#ff8e23" d="M151.84 326.843l-3.49.032 5.096-5.89z"/><path id="polygon3503" fill="#ff5518" d="M125.616 337.945l4.24 5.342-10.975-3.99z"/><path id="polygon3505" fill="#ff7021" d="M134.54 335.66l-4.685 7.627-4.24-5.342z"/><path id="polygon3507" fill="#ff9230" d="M137.72 336.916l-7.865 6.37 4.684-7.625z"/><path id="polygon3509" class="st67" fill="#ff771f" d="M148.112 335.757l-10.393 1.16 4.033-5.022z"/><path id="polygon3511" fill="#ff8d27" d="M148.35 326.875l-.238 8.882-6.36-3.862z"/><path id="polygon3513" fill="#ff8e2c" d="M137.72 336.916l-3.18-1.255 7.213-3.765z"/><path id="polygon3515" fill="#ff4d1a" d="M84.35 316.385l7.864 2.606.615 5.568z"/><path id="polygon3517" fill="#ff4a19" d="M92.214 318.99l4.855 8.82-4.24-3.252z"/><path id="polygon3519" class="st17" fill="#fb3c12" d="M84.35 316.385l5.095-6.404 2.77 9.01z"/><path id="polygon3521" class="st72" fill="#ff7728" d="M88.556 301.71l.89 8.27-2.668-3.507z"/><path id="polygon3523" fill="#ff913a" d="M86.778 306.473l2.667 3.508-5.095 6.405z"/><path id="polygon3525" fill="#ff9a19" d="M145.616 281.598l-7.384-3.09 4.547-5.47z"/><path id="polygon3527" class="st55" fill="#ff9213" d="M138.232 278.51l-6.018-4.7 10.565-.772z"/><path id="polygon3529" fill="#ff9324" d="M105.308 272.524l.274 7.208-6.804 2.35z"/><path id="polygon3531" fill="#ff792b" d="M115.804 336.433l3.077 2.864-11.35.386z"/><path id="polygon3533" fill="#ff5018" d="M125.616 337.945l-6.735 1.352-3.076-2.864z"/><path id="polygon3535" fill="#ff4517" d="M97.07 327.81l5.982 2.38.547 4.602z"/><path id="polygon3537" fill="#ff5820" d="M103.6 334.792l-.548-4.602 4.478 9.493z"/><path id="polygon3539" fill="#ff8519" d="M113.924 276.9l-8.342 2.832-.274-7.208z"/><path id="polygon3541" fill="#ff9521" d="M113.924 276.9l-8.616-4.376 9.607 1.19z"/><path id="polygon3543" fill="#ff7c24" d="M89.308 293.988l.273-5.44 2.53 8.754z"/><path id="polygon3545" fill="#ff852a" d="M89.308 293.988l2.803 3.314-3.554 4.41z"/><path id="polygon3547" class="st32" fill="#ff991c" d="M130.197 276.997l2.017-3.186 6.018 4.7z"/><path id="polygon3549" fill="#ff9218" d="M130.197 276.997l-7.077-7.69 9.094 4.504z"/><path id="polygon3551" class="st48" fill="#ffa634" d="M105.582 279.732l-7.043 7.24.238-4.89z"/><path id="polygon3553" fill="#ff982e" d="M98.778 282.08l-.24 4.892-8.957 1.577z"/><path id="polygon3555" class="st18" fill="#ffa428" d="M121.753 276.546l-6.838-2.832 8.205-4.408z"/><path id="polygon3557" class="st33" fill="#ff7b0a" d="M130.197 276.997l-8.444-.45 1.367-7.24z"/><path id="polygon3559" fill="#ff901c" d="M113.924 276.9l.99-3.186 6.84 2.832z"/><path id="polygon3561" fill="#ff9419" d="M152.386 297.785l1.846-5.535 3.01 9.042z"/><path id="polygon3563" fill="#ff7b09" d="M159.43 307.793l-7.044-10.008 4.855 3.507z"/><path id="polygon3565" fill="#ff8819" d="M157.035 314.23l-3.59 6.756-.65-7.304z"/><path id="polygon3567" fill="#ff951e" d="M159.43 307.793l-2.395 6.436-4.24-.548z"/><path id="polygon3569" class="st91" fill="#ff7d07" d="M152.112 286.168l-6.496-4.57 5.778 3.894z"/><path id="polygon3571" fill="#ff810a" d="M152.386 297.785l-.274-11.617 2.12 6.082z"/><path id="polygon3573" class="st23" fill="#fd4114" d="M103.052 330.19l6.906 1.03-2.428 8.463z"/><path id="polygon3575" fill="#ff581e" d="M107.53 339.683l2.428-8.463 5.846 5.213z"/><path id="polygon3577" fill="#ff9114" d="M142.984 284.88l-4.752-6.37 7.384 3.088z"/><path id="polygon3579" fill="#ff9a1a" d="M152.112 286.168l-9.128-1.287 2.632-3.282z"/><path id="polygon3581" fill="#ff7b26" d="M134.54 335.66l-8.924 2.285 3.487-4.666z"/><path id="polygon3583" fill="#ff8c30" d="M129.103 333.28l-3.487 4.665-3.35 1.062z"/><path id="polygon3585" fill="#ff541a" d="M89.445 309.98l5.162 3.605-2.393 5.406z"/><path id="polygon3587" fill="#fd500e" d="M89.58 288.55l7.557 5.727-5.026 3.025z"/><path id="polygon3589" fill="#ff7d22" d="M89.58 288.55l8.96-1.578-1.403 7.305z"/><path id="polygon3591" fill="#ff9229" d="M148.35 326.875l-6.597 5.02 1.026-6.725z"/><path id="polygon3593" fill="#ff9a21" d="M149.72 303.963l2.666-6.178 7.043 10.008z"/><path id="polygon3595" fill="#ff8b17" d="M152.796 313.682l-3.077-9.72 9.71 3.83z"/><path id="polygon3597" fill="#ff9c28" d="M111.7 282.596l-6.118-2.864 8.342-2.832z"/><path id="polygon3599" fill="#ff9e23" d="M146.3 293.634l6.086 4.15-2.667 6.18z"/><path id="polygon3601" fill="#ff9e1f" d="M146.3 293.634l5.812-7.466.274 11.617z"/><path id="polygon3603" fill="#ff870d" d="M146.3 293.634l-3.316-8.753 9.128 1.288z"/><path id="polygon3605" class="st17" fill="#fb3c12" d="M97.07 327.81l-2.12-3.445 8.102 5.825z"/><path id="polygon3607" fill="#ff762b" d="M92.214 318.99l2.393-5.405.342 10.78z"/><path id="polygon3609" fill="#fd4813" d="M115.804 336.433l3.18-4.763 3.282 7.337z"/><path id="polygon3611" class="st110" fill="#ff5129" d="M109.958 331.22l9.026.45-3.18 4.763z"/><path id="polygon3613" fill="#ff7b28" d="M122.266 339.007l-3.282-7.337 10.12 1.61z"/><path id="polygon3615" fill="#ff5318" d="M89.445 309.98l-.274-5.437 5.437 9.042z"/><path id="polygon3617" class="st113" fill="#ffaa47" d="M88.556 301.71l3.555-4.408-2.94 7.24z"/><path id="polygon3619" class="st72" fill="#ff7728" d="M88.556 301.71l.615 2.833.275 5.438z"/><path id="polygon3621" fill="#ff9124" d="M111.7 282.596l-9.435-.998 3.317-1.866z"/><path id="polygon3623" fill="#ff9126" d="M151.258 321.308l-2.907 5.567-5.57-1.705z"/><path id="polygon3625" fill="#ff7712" d="M152.796 313.682l.65 7.304-2.188.322z"/><path id="polygon3627" class="st117" fill="#ff8b20" d="M153.446 320.986l-5.095 5.89 2.908-5.568z"/><path id="polygon3629" fill="#ff921b" d="M127.53 281.502l-5.777-4.956 8.444.45z"/><path id="polygon3631" fill="#ff4a17" d="M94.95 324.365l11.042.387-2.94 5.438z"/><path id="polygon3633" fill="#ff542c" d="M105.992 324.752l3.966 6.468-6.906-1.03z"/><path id="polygon3635" fill="#ff922a" d="M98.54 286.972l5.913 3.122-7.316 4.183z"/><path id="polygon3637" fill="#ff7818" d="M104.453 290.094l-2.188-8.496 9.436.998z"/><path id="polygon3639" fill="#ff5f0d" d="M98.54 286.972l3.725-5.374 2.188 8.496z"/><path id="polygon3641" fill="#ff6317" d="M137.924 332.507l-3.385 3.154-5.437-2.38z"/><path id="polygon3643" fill="#ff8524" d="M142.78 325.17l-1.027 6.725-3.83.612z"/><path id="polygon3645" fill="#ff8828" d="M141.753 331.895l-7.214 3.766 3.384-3.153z"/><path id="polygon3647" fill="#ff7721" d="M97.137 294.277l1.162 6.79-6.19-3.765z"/><path id="polygon3649" fill="#ff9b39" d="M92.11 297.302l6.19 3.765-9.13 3.476z"/><path id="polygon3651" fill="#ff9c20" d="M137.24 280.215l-9.71 1.287 2.667-4.505z"/><path id="polygon3653" fill="#ff981a" d="M137.24 280.215l-7.043-3.218 8.035 1.512z"/><path id="polygon3655" class="st91" fill="#ff7d07" d="M142.984 284.88l-5.744-4.665.992-1.706z"/><path id="polygon3657" fill="#ff9c26" d="M145.343 310.43l4.376-6.467 3.076 9.72z"/><path id="polygon3659" fill="#ffa02a" d="M151.258 321.308l-5.915-10.877 7.453 3.252z"/><path id="polygon3661" fill="#ff581c" d="M94.607 313.585l7.692 3.508-7.35 7.272z"/><path id="polygon3663" fill="#f8380e" d="M94.95 324.365l7.35-7.272 3.692 7.66z"/><path id="polygon3665" fill="#ff971d" d="M138.574 290.673l4.41-5.792 3.316 8.754z"/><path id="polygon3667" fill="#ff9e21" d="M138.574 290.673l-1.334-10.458 5.744 4.666z"/><path id="polygon3669" fill="#fe5210" d="M129.103 333.28l-2.872-6.115 11.694 5.342z"/><path id="polygon3671" fill="#ff6319" d="M118.984 331.67l7.247-4.505 2.873 6.114z"/><path id="polygon3673" fill="#f73a0b" d="M99.906 309.08l2.393 8.013-7.693-3.508z"/><path id="polygon3675" fill="#ff5112" d="M89.17 304.543l9.13-3.476 1.606 8.013z"/><path id="polygon3677" fill="#fc4610" d="M89.17 304.543l10.736 4.537-5.3 4.505z"/><path id="polygon3679" fill="#ff961f" d="M127.53 281.502l-8.205-2.96 2.428-1.996z"/><path id="polygon3681" fill="#ff8b19" d="M119.325 278.54l-5.4-1.64 7.828-.354z"/><path id="polygon3683" class="st11" fill="#ffab30" d="M119.325 278.54l-7.624 4.056 2.224-5.696z"/><path id="polygon3685" fill="#ff8f22" d="M139.873 316.61l5.47-6.18 5.915 10.878z"/><path id="polygon3687" fill="#ff630c" d="M142.78 325.17l-2.907-8.56 11.385 4.698z"/><path id="polygon3689" fill="#ff9d31" d="M137.924 332.507l-4.65-10.008 9.505 2.67z"/><path id="polygon3691" fill="#fe570e" d="M126.23 327.165l7.044-4.666 4.65 10.007z"/><path id="polygon3693" fill="#ff7a1b" d="M133.274 322.5l6.6-5.89 2.905 8.56z"/><path id="polygon3695" fill="#ff9524" d="M113.035 289.193l-1.334-6.597 7.625-4.055z"/><path id="polygon3697" class="st9" fill="#ff8a22" d="M104.453 290.094l7.248-7.498 1.335 6.597z"/><path id="polygon3699" fill="#ff7708" d="M130.13 288.71l-2.6-7.208 9.71-1.287z"/><path id="polygon3701" fill="#ff8914" d="M130.13 288.71l7.11-8.495 1.334 10.458z"/><path id="polygon3703" fill="#fa5d03" d="M113.035 289.193l6.29-10.652 1.95 9.462z"/><path id="polygon3705" fill="#ff9b24" d="M121.274 288.002l-1.95-9.46 8.207 2.96z"/><path id="polygon3707" fill="#ff750c" d="M121.274 288.002l6.257-6.5 2.6 7.208z"/><path id="polygon3709" fill="#f9400d" d="M102.3 317.093l9.094 2.22-5.402 5.44z"/><path id="polygon3711" fill="#ff5d13" d="M121.992 320.568l11.282 1.93-7.043 4.667z"/><path id="polygon3713" fill="#fd4f0f" d="M98.3 301.067l7.93 3.025-6.324 4.988z"/><path id="polygon3715" fill="#fe4814" d="M109.958 331.22l4.034-2.897 4.992 3.347z"/><path id="polygon3717" fill="#ff5e13" d="M113.992 328.323l-2.598-9.01 10.598 1.255z"/><path id="polygon3719" fill="#ff7924" d="M113.992 328.323l8-7.755 4.24 6.597z"/><path id="polygon3721" fill="#ff7a27" d="M118.984 331.67l-4.992-3.347 12.24-1.158z"/><path id="polygon3723" fill="#f42e00" d="M105.992 324.752l5.402-5.44 2.598 9.01z"/><path id="polygon3725" fill="#fe4813" d="M105.992 324.752l8 3.57-4.034 2.898z"/><path id="polygon3727" fill="#ff9224" d="M135.77 306.827l9.573 3.604-5.47 6.18z"/><path id="polygon3729" fill="#fd5d08" d="M113.035 289.193l8.24-1.19-7.967 8.43z"/><path id="polygon3731" fill="#ff8818" d="M130.13 288.71l8.444 1.963-6.29 6.597z"/><path id="polygon3733" fill="#ff8f19" d="M144.078 299.168l2.222-5.534 3.42 10.33z"/><path id="polygon3735" fill="#ff760c" d="M132.283 297.27l6.29-6.597 5.505 8.495z"/><path id="polygon3737" fill="#ff8a15" d="M144.078 299.168l-5.504-8.495 7.726 2.96z"/><path id="polygon3739" fill="#ff710c" d="M135.77 306.827l8.308-7.66 1.265 11.264z"/><path id="polygon3741" fill="#ff901e" d="M145.343 310.43l-1.265-11.262 5.64 4.795z"/><path id="polygon3743" fill="#f95c02" d="M135.77 306.827l-3.487-9.557 11.795 1.898z"/><path id="polygon3745" fill="#ff6412" d="M106.23 304.092l-3.554-8.142 10.632.483z"/><path id="polygon3747" fill="#ff7216" d="M102.676 295.95l10.36-6.757.272 7.24z"/><path id="polygon3749" fill="#fb4e0c" d="M98.3 301.067l4.376-5.117 3.555 8.142z"/><path id="polygon3751" fill="#ff6a19" d="M97.137 294.277l5.54 1.673-4.378 5.117z"/><path id="polygon3753" class="st113" fill="#ffaa47" d="M97.137 294.277l7.316-4.183-1.777 5.856z"/><path id="polygon3755" fill="#ff9d30" d="M102.676 295.95l1.777-5.856 8.582-.9z"/><path id="polygon3757" fill="#ef3b0a" d="M111.394 319.313l7.077-6.725 3.522 7.98z"/><path id="polygon3759" fill="#fb530a" d="M106.23 304.092l7.078-7.66 2.12 8.078z"/><path id="polygon3761" class="st110" fill="#ff5129" d="M115.428 304.51l10.05.193-7.007 7.885z"/><path id="polygon3763" fill="#ff821a" d="M125.48 304.703l6.803-7.433 3.487 9.557z"/><path id="polygon3765" fill="#ff5c14" d="M111.394 319.313l-4.513-6.468 11.59-.257z"/><path id="polygon3767" fill="#f44719" d="M102.3 317.093l4.58-4.248 4.514 6.468z"/><path id="polygon3769" fill="#ff8127" d="M99.906 309.08l6.325-4.988.65 8.753z"/><path id="polygon3771" fill="#ff5012" d="M99.906 309.08l6.975 3.765-4.58 4.248z"/><path id="polygon3773" class="st67" fill="#ff771f" d="M106.88 312.845l8.548-8.335 3.043 8.078z"/><path id="polygon3775" fill="#ff6716" d="M106.88 312.845l-.65-8.753 9.198.418z"/><path id="polygon3777" class="st117" fill="#ff8b20" d="M125.48 304.703l-3.283-10.297 10.086 2.864z"/><path id="polygon3779" fill="#ff9724" d="M122.197 294.406l7.932-5.696 2.153 8.56z"/><path id="polygon3781" fill="#ff8c1e" d="M122.197 294.406l-.923-6.404 8.855.708z"/><path id="polygon3783" fill="#f64a03" d="M115.428 304.51l6.77-10.104 3.28 10.297z"/><path id="polygon3785" fill="#ffa730" d="M113.308 296.433l7.966-8.43.923 6.403z"/><path id="polygon3787" fill="#fa5606" d="M115.428 304.51l-2.12-8.077 8.89-2.027z"/><path id="polygon3789" fill="#ff9e2e" d="M129.855 314.97l5.915-8.143 4.103 9.783z"/><path id="polygon3791" fill="#ff811f" d="M133.274 322.5l-3.42-7.53 10.02 1.64z"/><path id="polygon3793" fill="#fc550a" d="M118.47 312.588l7.01-7.885 4.375 10.266z"/><path id="polygon3795" fill="#ff831d" d="M129.855 314.97l-4.376-10.267 10.29 2.124z"/><path id="polygon3797" fill="#ff6816" d="M121.992 320.568l7.863-5.6 3.42 7.53z"/><path id="polygon3799" class="st196" fill="#f74707" d="M121.992 320.568l-3.52-7.98 11.383 2.38z"/></g><path id="polygon3855" class="st198" fill="#96a91a" d="M100.487 277.608l-10.906-9.88 7.933 3.187z"/><path id="polygon3857" class="st199" fill="#b8ce2b" d="M98.778 268.115l1.71 9.493-2.975-6.693-2.735-5.664z"/><path id="polygon3859" class="st200" fill="#a9c015" d="M83.77 265.25l5.81 2.48 7.933 3.185-2.735-5.664z"/><path id="polygon3861" fill="#c9d676" d="M83.77 265.25l6.29-4.054 4.718 4.055z"/><path id="polygon3863" class="st198" fill="#96a91a" d="M83.77 265.25L81 261.197h9.06z"/><path id="polygon3865" class="st200" fill="#a9c015" d="M90.06 261.196l6.12.42-5.54-3.316-9.64 2.896z"/><path id="polygon3867" class="st199" fill="#b8ce2b" d="M90.64 258.3l8.412 3.315H96.18z"/><path id="polygon3869" class="st198" fill="#96a91a" d="M98.778 268.115l-2.598-6.5-6.12-.42 4.718 4.056z"/><path id="polygon3871" class="st198" fill="#96a91a" d="M100.487 277.608l1.676-.483-3.385-9.01z"/><path id="polygon3873" class="st200" fill="#a9c015" d="M99.052 261.615l3.11 15.51-3.384-9.01-2.598-6.5z"/></g><g class="st196" id="g439" fill="#fff" stroke="#fff" stroke-width=".16" stroke-miterlimit="10"><path class="st197" d="M-56.1 416.6h1.8c.1 1.1.6 2 1.6 2.7 1 .7 2.2 1 3.7 1 1.4 0 2.6-.3 3.5-1 .9-.7 1.4-1.6 1.4-2.6 0-.9-.3-1.6-.9-2.1-.6-.5-1.6-1-3-1.4l-2.3-.6c-1.7-.4-3-1-3.8-1.8-.8-.8-1.2-1.8-1.2-3 0-1.5.6-2.7 1.8-3.7 1.2-1 2.7-1.5 4.6-1.5 1.8 0 3.3.5 4.5 1.4 1.2 1 1.8 2.2 1.9 3.7h-1.8c-.1-1.1-.6-1.9-1.4-2.6-.8-.7-2-1-3.3-1-1.3 0-2.4.3-3.2 1-.8.7-1.3 1.5-1.3 2.5 0 .8.3 1.5.9 2 .6.5 1.6.9 3 1.3l2 .5c1.9.5 3.3 1.1 4.1 1.9.8.8 1.3 1.8 1.3 3.1 0 1.6-.6 3-1.8 4-1.2 1-2.9 1.5-5 1.5-2 0-3.6-.5-4.8-1.5-1.5-.9-2.2-2.2-2.3-3.8z" id="path441" transform="matrix(2.84314 0 0 2.67927 352.984 -800.3)"/><path class="st197" d="M-21.1 403v18.8h-1.7v-15.4h-.1l-6.5 15.3h-1.5l-6.5-15.3h-.1v15.4h-1.7V403h2l7 16.4h.1l6.9-16.4h2.1z" id="path443" transform="matrix(2.84314 0 0 2.67927 352.984 -800.3)"/><path class="st197" d="M-4.5 421.7l-2.1-5.7h-7.9l-2.1 5.7h-1.9l7-18.8h1.8l7 18.8h-1.8zm-6-16.5l-3.4 9.3h6.8l-3.4-9.3z" id="path445" transform="matrix(2.84314 0 0 2.67927 352.984 -800.3)"/><path class="st197" d="M1.9 414v7.7H.2V403h6.7c1.8 0 3.3.5 4.4 1.5 1.1 1 1.6 2.3 1.6 4 0 1.3-.4 2.5-1.1 3.4-.7.9-1.7 1.6-3 1.9l4.5 8h-2.1L7 414H1.9zm0-9.4v7.9h4.8c1.4 0 2.4-.3 3.2-1 .8-.7 1.1-1.7 1.1-2.9s-.4-2.2-1.2-2.9c-.8-.7-1.8-1-3.2-1H1.9z" id="path447" transform="matrix(2.84314 0 0 2.67927 352.984 -800.3)"/><path class="st197" d="M23.1 421.7h-1.8v-17.1H15V403h14.3v1.6H23v17.1z" id="path449" transform="matrix(2.84314 0 0 2.67927 352.984 -800.3)"/><path class="st197" d="M46.6 402.7c2.6 0 4.7.9 6.2 2.6 1.5 1.7 2.3 4.1 2.3 7.1s-.8 5.3-2.3 7.1c-1.5 1.7-3.6 2.6-6.2 2.6s-4.7-.9-6.2-2.6c-1.5-1.7-2.3-4.1-2.3-7.1s.8-5.3 2.3-7.1c1.6-1.8 3.6-2.6 6.2-2.6zm4.9 3.8c-1.2-1.4-2.8-2.2-4.9-2.2-2.1 0-3.7.7-4.9 2.2-1.2 1.4-1.8 3.4-1.8 5.9 0 2.5.6 4.4 1.8 5.8 1.2 1.4 2.8 2.2 4.9 2.2 2.1 0 3.7-.7 4.9-2.2 1.2-1.4 1.8-3.4 1.8-5.8 0-2.5-.6-4.5-1.8-5.9z" id="path451" transform="matrix(2.84314 0 0 2.67927 352.984 -800.3)"/><path class="st197" d="M60.4 414v7.7h-1.8V403h6.7c1.8 0 3.3.5 4.4 1.5 1.1 1 1.6 2.3 1.6 4 0 1.3-.4 2.5-1.1 3.4-.7.9-1.7 1.6-3 1.9l4.5 8h-2.1l-4.3-7.7h-4.9zm0-9.4v7.9h4.8c1.4 0 2.4-.3 3.2-1 .8-.7 1.1-1.7 1.1-2.9s-.4-2.2-1.2-2.9c-.8-.7-1.8-1-3.2-1h-4.7z" id="path453" transform="matrix(2.84314 0 0 2.67927 352.984 -800.3)"/><path class="st197" d="M87.3 421.7l-2.1-5.7h-7.9l-2.1 5.7h-1.9l7-18.8h1.8l7 18.8h-1.8zm-6.1-16.5l-3.4 9.3h6.8l-3.4-9.3z" id="path455" transform="matrix(2.84314 0 0 2.67927 352.984 -800.3)"/><path class="st197" d="M93.7 421.7h-1.8V403h1.8l11 15.7h.1V403h1.8v18.8h-1.7l-11-15.7h-.1v15.6z" id="path457" transform="matrix(2.84314 0 0 2.67927 352.984 -800.3)"/><path class="st197" d="M126.1 414.1c0 2.5-.7 4.4-2.1 5.8-1.4 1.4-3.3 2.1-5.7 2.1-2.5 0-4.6-.9-6.1-2.7-1.5-1.8-2.3-4.2-2.3-7.1 0-2.9.8-5.2 2.3-7 1.5-1.8 3.6-2.6 6.1-2.6 2 0 3.6.5 5 1.6s2.3 2.5 2.6 4.3h-1.8c-.4-1.3-1.1-2.4-2.1-3.1-1-.8-2.3-1.1-3.7-1.1-2 0-3.6.7-4.8 2.1-1.2 1.4-1.8 3.3-1.8 5.8s.6 4.5 1.8 5.9c1.2 1.5 2.8 2.2 4.8 2.2 1.8 0 3.3-.5 4.4-1.6 1.1-1.1 1.7-2.5 1.7-4.3v-.7h-5.8v-1.6h7.6v2z" id="path459" transform="matrix(2.84314 0 0 2.67927 352.984 -800.3)"/><path class="st197" d="M141 420.1v1.6h-11.3V403H141v1.6h-9.6v6.7h9.1v1.6h-9.1v7.2h9.6z" id="path461" transform="matrix(2.84314 0 0 2.67927 352.984 -800.3)"/></g></svg>