<svg version="1.1" id="Layer_1" xmlns="http://www.w3.org/2000/svg" x="0" y="0" viewBox="81 258.3 757.6 325.6" xml:space="preserve"><style>.st9{fill:#ff8a22}.st11{fill:#ffab30}.st13{fill:#ff7729}.st17{fill:#fb3c12}.st18{fill:#ffa428}.st23{fill:#fd4114}.st24{fill:#ffaf32}.st32{fill:#ff991c}.st33{fill:#ff7b0a}.st48{fill:#ffa634}.st55{fill:#ff9213}.st67{fill:#ff771f}.st72{fill:#ff7728}.st91{fill:#ff7d07}.st110{fill:#ff5129}.st113{fill:#ffaa47}.st117{fill:#ff8b20}.st198{fill:#96a91a}.st199{fill:#b8ce2b}.st200{fill:#a9c015}</style><path d="M369.2 502.8h440v44.9h-440zm28.9-122.4h2.7c.3 5.7 2.8 10.4 7.6 14 4.8 3.6 10.8 5.5 18 5.5 7 0 12.8-1.8 17.3-5.4 4.5-3.6 6.7-8.2 6.7-13.8 0-4.4-1.5-7.9-4.6-10.6-3.1-2.7-8.1-4.9-15.1-6.6l-9.1-2.3c-7.4-1.8-12.8-4.3-16.2-7.3-3.4-3-5.1-7-5.1-11.8 0-5.9 2.5-10.9 7.4-14.9s10.9-6 17.8-6c7.3 0 13.4 1.9 18.4 5.7 5 3.8 7.6 8.5 7.8 14.1H449c-.3-4.9-2.6-9-7.1-12.3-4.4-3.3-9.9-4.9-16.4-4.9-6.3 0-11.6 1.7-15.9 5.2-4.4 3.5-6.5 7.8-6.5 13.1 0 4.2 1.5 7.5 4.6 10.1 3.1 2.6 8 4.7 14.8 6.4l9 2.2c7.5 1.9 13.1 4.4 16.5 7.5 3.5 3.1 5.2 7.2 5.2 12.2 0 6.4-2.5 11.6-7.5 15.7s-11.4 6.1-19.4 6.1c-8 0-14.6-2.1-19.9-6.2-5.2-4-8-9.3-8.3-15.7zm140.2-58v78.9h-2.7v-72.6h-.2l-31.9 72.6h-2.9l-31.9-72.6h-.2v72.6h-2.7v-78.9h2.9l33.3 75.5h.2l33.1-75.5h3zm71.2 78.9l-10.3-27.4h-36.7l-10.4 27.4h-3l30.4-78.9h2.8l30.4 78.9h-3.2zm-28.8-75.2l-17.2 45.2h34.7L581 326.1h-.3zm45.3 40.7v34.5h-2.7v-78.9h24.5c7.9 0 14.1 2 18.6 5.9 4.5 4 6.8 9.4 6.8 16.3 0 5.8-1.7 10.6-5 14.4s-8 6.3-13.9 7.3l20.8 35H672l-20.6-34.6c-1.3.1-2.5.1-3.6.1H626zm0-41.9v39.4h21.7c7 0 12.6-1.8 16.6-5.3 4-3.5 6-8.3 6-14.4 0-6.2-2-11-6-14.5s-9.6-5.2-16.7-5.2H626zm85.6 76.4h-2.7V325h-28.5v-2.6H740v2.6h-28.5v76.3zm-278.1 8c10.6 0 19.1 3.7 25.3 11 6.3 7.3 9.4 17.2 9.4 29.6 0 12.4-3.1 22.3-9.4 29.6-6.3 7.3-14.7 11-25.4 11s-19.1-3.7-25.4-11c-6.3-7.3-9.4-17.2-9.4-29.6 0-12.4 3.1-22.2 9.4-29.6 6.4-7.4 14.8-11 25.5-11zm0 2.5c-9.8 0-17.6 3.4-23.4 10.3-5.8 6.8-8.7 16.1-8.7 27.7 0 11.6 2.9 20.8 8.7 27.7 5.8 6.9 13.6 10.3 23.4 10.3 9.7 0 17.5-3.4 23.3-10.3 5.8-6.9 8.7-16.1 8.7-27.7s-2.9-20.8-8.7-27.7c-5.8-6.8-13.5-10.3-23.3-10.3zm50.5 43v34.5h-2.7v-78.9h24.5c7.9 0 14.1 2 18.6 5.9 4.5 4 6.8 9.4 6.8 16.3 0 5.8-1.7 10.6-5 14.4-3.4 3.8-8 6.3-13.9 7.3l20.8 35H530l-20.6-34.6c-1.3.1-2.5.1-3.6.1H484zm0-41.9v39.4h21.7c7 0 12.6-1.8 16.6-5.3 4-3.5 6-8.3 6-14.4 0-6.2-2-11-6-14.5s-9.6-5.2-16.7-5.2H484zm116.3 76.4L590 461.9h-36.7l-10.4 27.4h-3l30.4-78.9h2.8l30.4 78.9h-3.2zm-28.8-75.2l-17.2 45.2H589l-17.2-45.2h-.3zm45.3 75.2H614v-78.9h3l52.4 73.7h.2v-73.7h2.7v78.9h-2.5L617 415h-.2v74.3zm134-30.9c0 9.9-2.8 17.7-8.4 23.4-5.6 5.7-13.3 8.5-23 8.5-6.6 0-12.5-1.7-17.7-5.2-5.2-3.4-9.2-8.3-12-14.5-2.9-6.2-4.3-13.4-4.3-21.4 0-12 3.1-21.7 9.4-29 6.2-7.3 14.5-11 24.7-11 7.8 0 14.5 2.2 20.2 6.5 5.7 4.3 9.2 9.9 10.7 16.9h-2.7c-1.5-6.3-4.9-11.3-10-15.1-5.1-3.8-11.2-5.7-18.2-5.7-9.4 0-17 3.4-22.7 10.3-5.7 6.9-8.6 15.9-8.6 27.2 0 11.4 2.9 20.7 8.7 27.8 5.8 7.1 13.3 10.7 22.6 10.7 8.9 0 15.9-2.6 21-7.8 5.1-5.2 7.7-12.4 7.7-21.4v-5.5h-29v-2.5h31.7v7.8zm58.8 28.3v2.6h-45.2v-78.9h45.2v2.6h-42.4v34.6h40.5v2.5h-40.5v36.7h42.4z"/><path fill="#f4a73b" d="M361.4 453.2l-1-5.6 11.9-21.7-11.6-18.4 4.5-11.3-10.9-8.5-1.5-23-21.7-9.7-4-9.3-6.3-2.1-9.6-15.1-20.1.9-17-15.1-15.5 5.3-4.9-2.7-12.4 6-23.7-5.1-9.4 10-6.6-.9-9.2 14.3-26.4 8.3-5.7 23.7-4.7 3.5-.3 5.3-2.3 2.3.1 3.2-15.9 17.5 6.9 18.5-5.8 10.8 6.2 10.8-4.2 18.1 16 16.3 1.8 14.3 10.4 5.1 7.2 21.9L200 525l8.1 10.6 11.8-.4 14.3 10.5 18.4-7 20.8 8.1 8.9-7.6 7.9 1.6 13.2-14.6 23.4-2.8 6.1-15.3 4.4-1.9 4-12.9 21.1-14.1-2.7-23.5z"/><path fill="#898a8d" d="M336.5 474.8l-5.1 10.4 10.4-22.8z"/><path fill="#a0a1a3" d="M299.8 519.8l-7.3 2.9 20.7-15.2z"/><path fill="#8d8e91" d="M355.5 413.9l-8.8-27.6 8.1 14.6z"/><path fill="#6c6e70" d="M203.3 520.5l-7.7-4.3 25.5 9.1z"/><path fill="#ff7308" d="M361.4 453.2l-7.6 11.1 5.3-24.8z"/><path fill="#ffa64a" d="M153.2 395.6l-.2-11.3 12.7-12.4z"/><path fill="#a0a0a0" d="M309.7 518l16.7-9.2 10.9-2.6z"/><path class="st9" d="M337.3 506.2l-10.9 2.6 16.4-20.3z"/><path fill="#ff7c00" d="M313.7 342.4l13.4 3.3 6.4 14.9z"/><path class="st11" d="M299 336.4l28.1 9.3-13.4-3.3z"/><path fill="#ff521e" d="M157.3 475.9l15.9 25.2-15.1-7.3z"/><path class="st13" d="M157.3 475.9l.8 17.9-4.1-32z"/><path fill="#fb470e" d="M290.2 540.8l-27.9-5.8 18 .8z"/><path fill="#ff8a2c" d="M290.2 540.8l-9.9-5 24.4-11.1z"/><path fill="#ff782a" d="M147.9 447.1l6.1 14.7-15.7-27.5z"/><path class="st13" d="M145.7 420.4l2.2 26.7-9.6-12.8z"/><path class="st17" d="M262.3 535l-28.1 10.7 18.9-8.2z"/><path class="st18" d="M274.1 314.3l24.9 22.1-9.9-6.9z"/><path fill="#fb7100" d="M372.3 425.9L359 411.8l-4.1-13.6z"/><path fill="#808183" d="M359 411.8l-8.4-27 4.3 13.4z"/><path fill="#fc7800" d="M354.9 398.2l-4.3-13.4 2.2-20.1z"/><path fill="#ff591d" d="M234.2 545.7l-10.6-13.1 29.5 4.9z"/><path class="st23" d="M234.2 545.7L208 526.4l15.6 6.2z"/><path class="st24" d="M212.8 330.4l-15.8 9.4 20.6-22z"/><path fill="#ff911b" d="M217.6 317.8l28.2 6.1-8.8 1z"/><path fill="#f92" d="M212.8 330.4l4.8-12.6 19.4 7.1z"/><path fill="#ff991a" d="M262.8 323.8l11.3-9.5 15 15.2z"/><path fill="#9c9ea0" d="M245.8 323.9l17-.1-25.8 1.1z"/><path fill="#ff9f20" d="M245.8 323.9l28.3-9.6-11.3 9.5z"/><path fill="#b9b9ba" d="M189.5 345.5l7.5-5.7 15.8-9.4z"/><path fill="#ff9528" d="M189.5 345.5l-23.5 4 31-9.7z"/><path class="st32" d="M372.3 425.9l-13.7 9.9.4-24z"/><path class="st33" d="M359 450.2l-.4-14.4 13.7-9.9z"/><path fill="#ff7a23" d="M280.3 535.8l16.1-8.8 8.3-2.3z"/><path class="st13" d="M147.4 432.4l.5 14.7-2.2-26.7z"/><path fill="#6e6f72" d="M208 526.4l-11.4-6 27 12.2z"/><path fill="#fe4117" d="M208 526.4l-32.3-5.6 20.9-.4z"/><path fill="#ff992d" d="M168 368.8l-2-19.3 23.5-4z"/><path fill="#ff8c28" d="M168 368.8l-9.9 13.1 7.9-32.4z"/><path fill="#ff9311" d="M326.8 353.1l26 11.6-16.4 2.5z"/><path fill="#ff9a18" d="M336.4 367.2l16.4-2.5-2.2 20.1z"/><path fill="#fb3f11" d="M223.6 532.6l17.7 1.8 11.8 3.1z"/><path fill="#ff8213" d="M362.4 479.2l-9.5-22.7 6.1-6.3z"/><path fill="#ff7207" d="M352.9 456.5l5.7-20.7.4 14.4z"/><path fill="#b9baba" d="M154.8 393.6l3.3-11.7 9.9-13.1z"/><path fill="#ffae5f" d="M154.8 393.6L137.2 405l20.9-23.1z"/><path fill="#ff9417" d="M262.8 323.8l26.3 5.7-8.8 1.4z"/><path class="st24" d="M280.3 330.9l8.8-1.4 22.1-1z"/><path fill="#ff9620" d="M212.8 330.4l24.2-5.5-7.3 5.7z"/><path class="st48" d="M168 368.8l21.5-23.3-7 11.1z"/><path fill="#ff471a" d="M177.5 498.7l19.1 21.7-20.9.4z"/><path fill="#ff511e" d="M177.5 498.7l-1.8 22.1-10.6-32.2z"/><path fill="#ff9b26" d="M362.4 479.2l-20-1.7 10.5-21z"/><path fill="#ff9625" d="M337.7 495.7l4.7-18.2 20 1.7z"/><path fill="#f67408" d="M359 411.8l-5.5 4.5 11.7-20.1z"/><path fill="#ff7c08" d="M358.6 435.8l-5.1-19.5 5.5-4.5z"/><path class="st55" d="M344.7 388.2l5.9-3.4 14.6 11.4z"/><path fill="#ffa422" d="M344.7 388.2l20.5 8-11.7 20.1z"/><path fill="#ff7a02" d="M336.4 367.2l14.2 17.6-5.9 3.4z"/><path fill="#ff8a2d" d="M154.8 393.6l-2.2 24-15.4-12.6z"/><path fill="#ff631e" d="M152.6 417.6l-5.2 14.8-10.2-27.4z"/><path fill="#ff8105" d="M326.8 353.1l9.6 14.1-16.9-12.1z"/><path fill="#ff8506" d="M311.2 328.5l15.6 24.6-7.3 2z"/><path class="st24" d="M229.7 330.6l7.3-5.7 16.7-8z"/><path fill="#ff8721" d="M326.8 523.4l.7-27.6 10.2-.1z"/><path fill="#ff8e23" d="M327.5 495.8l14.9-18.3-4.7 18.2z"/><path fill="#ff5518" d="M273.4 546.8l-32.1-12.4 19.7-4.2z"/><path fill="#ff7021" d="M273.4 546.8L261 530.2l26.1-7.1z"/><path fill="#ff9230" d="M273.4 546.8l13.7-23.7 9.3 3.9z"/><path class="st67" d="M296.4 527l11.8-15.6 18.6 12z"/><path fill="#ff8d27" d="M326.8 523.4l-18.6-12 19.3-15.6z"/><path fill="#ff8e2c" d="M287.1 523.1l21.1-11.7-11.8 15.6z"/><path fill="#ff4d1a" d="M163.3 471.3l1.8 17.3-24.8-25.4z"/><path fill="#ff4a19" d="M177.5 498.7l-12.4-10.1-1.8-17.3z"/><path class="st17" d="M155.2 443.3l8.1 28-23-8.1z"/><path class="st72" d="M155.2 443.3l-7.8-10.9 5.2-14.8z"/><path fill="#ff913a" d="M155.2 443.3l-14.9 19.9 7.1-30.8z"/><path fill="#ff9a19" d="M297.9 345.5l13.3-17 8.3 26.6z"/><path class="st55" d="M280.3 330.9l30.9-2.4-13.3 17z"/><path fill="#ff9324" d="M202.4 349.3l-19.9 7.3 19.1-29.7z"/><path fill="#ff792b" d="M241.3 534.4l-33.2 1.2 24.2-10.1z"/><path fill="#ff5018" d="M241.3 534.4l-9-8.9 28.7 4.7z"/><path fill="#ff4517" d="M195 506.1l1.6 14.3-19.1-21.7z"/><path fill="#ff5820" d="M195 506.1l13.1 29.5-11.5-15.2z"/><path fill="#ff8519" d="M202.4 349.3l-.8-22.4 25.2 13.6z"/><path fill="#ff9521" d="M201.6 326.9l28.1 3.7-2.9 9.9z"/><path fill="#ff7c24" d="M155.6 376.7l7.4 27.2-8.2-10.3z"/><path fill="#ff852a" d="M163 403.9l-10.4 13.7 2.2-24z"/><path class="st32" d="M280.3 330.9l17.6 14.6-23.5-4.7z"/><path fill="#ff9218" d="M253.7 316.9l26.6 14-5.9 9.9z"/><path class="st48" d="M181.8 371.8l.7-15.2 19.9-7.3z"/><path fill="#ff982e" d="M181.8 371.8l-26.2 4.9 26.9-20.1z"/><path class="st18" d="M229.7 330.6l24-13.7-4 22.5z"/><path class="st33" d="M249.7 339.4l4-22.5 20.7 23.9z"/><path fill="#ff901c" d="M229.7 330.6l20 8.8-22.9 1.1z"/><path fill="#ff9419" d="M344.7 388.2l8.8 28.1-14.2-10.9z"/><path fill="#ff7b09" d="M339.3 405.4l14.2 10.9 6.4 20.2z"/><path fill="#ff8819" d="M342.4 477.5l-1.9-22.7 12.4 1.7z"/><path fill="#ff951e" d="M352.9 456.5l-12.4-1.7 19.4-18.3z"/><path class="st91" d="M319.5 355.1l16.9 12.1 2.1 2.1z"/><path fill="#ff810a" d="M338.5 369.3l6.2 18.9-5.4 17.2z"/><path class="st23" d="M215.2 509.3l-7.1 26.3-13.1-29.5z"/><path fill="#ff581e" d="M215.2 509.3l17.1 16.2-24.2 10.1z"/><path fill="#ff9114" d="M297.9 345.5l21.6 9.6-7.7 10.2z"/><path fill="#ff9a1a" d="M311.8 365.3l7.7-10.2 19 14.2z"/><path fill="#ff7b26" d="M261 530.2l10.2-14.5 15.9 7.4z"/><path fill="#ff8c30" d="M261 530.2l-9.8 3.3 20-17.8z"/><path fill="#ff541a" d="M170.3 454.5l-7 16.8-8.1-28z"/><path fill="#fd500e" d="M177.7 394.5l-14.7 9.4-7.4-27.2z"/><path fill="#ff7d22" d="M181.8 371.8l-4.1 22.7-22.1-17.8z"/><path fill="#ff9229" d="M308.2 511.4l3-20.9 16.3 5.3z"/><path fill="#ff9a21" d="M339.3 405.4l20.6 31.1-28.4-11.9z"/><path fill="#ff8b17" d="M331.5 424.6l28.4 11.9-19.4 18.3z"/><path fill="#ff9c28" d="M202.4 349.3l24.4-8.8-6.5 17.7z"/><path fill="#ff9e23" d="M339.3 405.4l-7.8 19.2-10-32.1z"/><path fill="#ff9e1f" d="M338.5 369.3l.8 36.1-17.8-12.9z"/><path fill="#ff870d" d="M311.8 365.3l26.7 4-17 23.2z"/><path class="st17" d="M171.3 488l23.7 18.1-17.5-7.4z"/><path fill="#ff762b" d="M170.3 454.5l1 33.5-8-16.7z"/><path fill="#fd4813" d="M241.6 510.7l9.6 22.8-18.9-8z"/><path class="st110" d="M241.6 510.7l-9.3 14.8-17.1-16.2z"/><path fill="#ff7b28" d="M241.6 510.7l29.6 5-20 17.8z"/><path fill="#ff5318" d="M154.4 426.4l15.9 28.1-15.1-11.2z"/><path class="st113" d="M163 403.9l-8.6 22.5-1.8-8.8z"/><path class="st72" d="M154.4 426.4l.8 16.9-2.6-25.7z"/><path fill="#ff9124" d="M192.7 355.1l9.7-5.8 17.9 8.9z"/><path fill="#ff9126" d="M327.5 495.8l-16.3-5.3 24.8-12z"/><path fill="#ff7712" d="M342.4 477.5l-6.4 1 4.5-23.7z"/><path class="st117" d="M327.5 495.8l8.5-17.3 6.4-1z"/><path fill="#ff921b" d="M249.7 339.4l24.7 1.4-7.8 14z"/><path fill="#ff4a17" d="M203.6 489.2l-8.6 16.9-23.7-18.1z"/><path fill="#ff542c" d="M215.2 509.3l-20.2-3.2 8.6-16.9z"/><path fill="#ff922a" d="M199.1 381.5l-21.4 13 4.1-22.7z"/><path fill="#ff7818" d="M192.7 355.1l27.6 3.1-21.2 23.3z"/><path fill="#ff5f0d" d="M192.7 355.1l6.4 26.4-17.3-9.7z"/><path fill="#ff6317" d="M287.1 523.1l-15.9-7.4 25.8-2.4z"/><path fill="#ff8524" d="M308.2 511.4l-11.2 1.9 14.2-22.8z"/><path fill="#ff8828" d="M287.1 523.1l9.9-9.8 11.2-1.9z"/><path fill="#ff7721" d="M181.1 415.6L163 403.9l14.7-9.4z"/><path fill="#ff9b39" d="M181.1 415.6l-26.7 10.8 8.6-22.5z"/><path fill="#ff9c20" d="M266.6 354.8l7.8-14 20.6 10z"/><path fill="#ff981a" d="M274.4 340.8l23.5 4.7-2.9 5.3z"/><path class="st91" d="M295 350.8l2.9-5.3 13.9 19.8z"/><path fill="#ff9c26" d="M331.5 424.6l9 30.2-21.8-10.1z"/><path fill="#ffa02a" d="M318.7 444.7l21.8 10.1-4.5 23.7z"/><path fill="#ff581c" d="M192.8 465.4L171.3 488l-1-33.5z"/><path fill="#f8380e" d="M192.8 465.4l10.8 23.8-32.3-1.2z"/><path fill="#ff971d" d="M311.8 365.3l9.7 27.2-22.6-9.2z"/><path fill="#ff9e21" d="M295 350.8l16.8 14.5-12.9 18z"/><path fill="#fe5210" d="M262.8 496.7l34.2 16.6-25.8 2.4z"/><path fill="#ff6319" d="M262.8 496.7l8.4 19-29.6-5z"/><path fill="#f73a0b" d="M192.8 465.4l-22.5-10.9 15.5-14z"/><path fill="#ff5112" d="M181.1 415.6l4.7 24.9-31.4-14.1z"/><path fill="#fc4610" d="M185.8 440.5l-15.5 14-15.9-28.1z"/><path fill="#ff961f" d="M242.6 345.6l7.1-6.2 16.9 15.4z"/><path fill="#ff8b19" d="M226.8 340.5l22.9-1.1-7.1 6.2z"/><path class="st11" d="M220.3 358.2l6.5-17.7 15.8 5.1z"/><path fill="#ff8f22" d="M318.7 444.7l17.3 33.8-33.3-14.6z"/><path fill="#ff630c" d="M302.7 463.9l33.3 14.6-24.8 12z"/><path fill="#ff9d31" d="M283.4 482.2l27.8 8.3-14.2 22.8z"/><path fill="#fe570e" d="M283.4 482.2l13.6 31.1-34.2-16.6z"/><path fill="#ff7a1b" d="M302.7 463.9l8.5 26.6-27.8-8.3z"/><path fill="#ff9524" d="M220.3 358.2l22.3-12.6-18.4 33.1z"/><path class="st9" d="M220.3 358.2l3.9 20.5-25.1 2.8z"/><path fill="#ff7708" d="M266.6 354.8l28.4-4-20.8 26.4z"/><path fill="#ff8914" d="M295 350.8l3.9 32.5-24.7-6.1z"/><path fill="#fa5d03" d="M242.6 345.6l5.7 29.4-24.1 3.7z"/><path fill="#ff9b24" d="M242.6 345.6l24 9.2-18.3 20.2z"/><path fill="#ff750c" d="M266.6 354.8l7.6 22.4-25.9-2.2z"/><path fill="#f9400d" d="M219.4 472.3l-15.8 16.9-10.8-23.8z"/><path fill="#ff5d13" d="M283.4 482.2l-20.6 14.5-12.4-20.5z"/><path fill="#fd4f0f" d="M204.3 425l-18.5 15.5-4.7-24.9z"/><path fill="#fe4814" d="M227 500.3l14.6 10.4-26.4-1.4z"/><path fill="#ff5e13" d="M219.4 472.3l31 3.9-23.4 24.1z"/><path fill="#ff7924" d="M250.4 476.2l12.4 20.5-35.8 3.6z"/><path fill="#ff7a27" d="M227 500.3l35.8-3.6-21.2 14z"/><path fill="#f42e00" d="M219.4 472.3l7.6 28-23.4-11.1z"/><path fill="#fe4813" d="M227 500.3l-11.8 9-11.6-20.1z"/><path fill="#ff9224" d="M318.7 444.7l-16 19.2-12-30.4z"/><path fill="#fd5d08" d="M248.3 375L225 401.2l-.8-22.5z"/><path fill="#ff8818" d="M298.9 383.3l-18.4 20.5-6.3-26.6z"/><path fill="#ff8f19" d="M321.5 392.5l10 32.1-16.5-14.9z"/><path fill="#ff760c" d="M298.9 383.3l16.1 26.4-34.5-5.9z"/><path fill="#ff8a15" d="M298.9 383.3l22.6 9.2-6.5 17.2z"/><path fill="#ff710c" d="M315 409.7l3.7 35-28-11.2z"/><path fill="#ff901e" d="M315 409.7l16.5 14.9-12.8 20.1z"/><path fill="#f95c02" d="M280.5 403.8l34.5 5.9-24.3 23.8z"/><path fill="#ff6412" d="M193.9 399.7l31.1 1.5-20.7 23.8z"/><path fill="#ff7216" d="M224.2 378.7l.8 22.5-31.1-1.5z"/><path fill="#fb4e0c" d="M193.9 399.7l10.4 25.3-23.2-9.4z"/><path fill="#ff6a19" d="M193.9 399.7l-12.8 15.9-3.4-21.1z"/><path class="st113" d="M199.1 381.5l-5.2 18.2-16.2-5.2z"/><path fill="#ff9d30" d="M199.1 381.5l25.1-2.8-30.3 21z"/><path fill="#ef3b0a" d="M240.1 451.4l10.3 24.8-31-3.9z"/><path fill="#fb530a" d="M225 401.2l6.2 25.1-26.9-1.3z"/><path class="st110" d="M260.6 426.9l-20.5 24.5-8.9-25.1z"/><path fill="#ff821a" d="M280.5 403.8l10.2 29.7-30.1-6.6z"/><path fill="#ff5c14" d="M206.2 452.2l33.9-.8-20.7 20.9z"/><path fill="#f44719" d="M206.2 452.2l13.2 20.1-26.6-6.9z"/><path fill="#ff8127" d="M204.3 425l1.9 27.2-20.4-11.7z"/><path fill="#ff5012" d="M206.2 452.2l-13.4 13.2-7-24.9z"/><path class="st67" d="M231.2 426.3l8.9 25.1-33.9.8z"/><path fill="#ff6716" d="M204.3 425l26.9 1.3-25 25.9z"/><path class="st117" d="M251 394.9l29.5 8.9-19.9 23.1z"/><path fill="#ff9724" d="M274.2 377.2l6.3 26.6-29.5-8.9z"/><path fill="#ff8c1e" d="M248.3 375l25.9 2.2-23.2 17.7z"/><path fill="#f64a03" d="M251 394.9l9.6 32-29.4-.6z"/><path fill="#ffa730" d="M248.3 375l2.7 19.9-26 6.3z"/><path fill="#fa5606" d="M225 401.2l26-6.3-19.8 31.4z"/><path fill="#ff9e2e" d="M290.7 433.5l12 30.4-29.3-5.1z"/><path fill="#ff811f" d="M273.4 458.8l29.3 5.1-19.3 18.3z"/><path fill="#fc550a" d="M260.6 426.9l12.8 31.9-33.3-7.4z"/><path fill="#ff831d" d="M260.6 426.9l30.1 6.6-17.3 25.3z"/><path fill="#ff6816" d="M273.4 458.8l10 23.4-33-6z"/><path fill="#f74707" d="M240.1 451.4l33.3 7.4-23 17.4z"/><path d="M409.9 516.8c-1.5 0-2.7.8-3.6 2.4s-1.3 3.8-1.3 6.6c0 1.8.2 3.4.6 4.8s1 2.4 1.8 3.1 1.7 1.1 2.7 1.1c1 0 1.9-.2 2.7-.6v1.2c-.7.4-1.6.6-2.8.6-1.3 0-2.4-.4-3.3-1.2-1-.8-1.7-2-2.2-3.6s-.8-3.4-.8-5.5c0-3.2.6-5.7 1.7-7.5s2.7-2.7 4.6-2.7c1.2 0 2.3.3 3.2.8l-.6 1.2c-.8-.5-1.7-.7-2.7-.7zm17.7 9c0 3.3-.5 5.9-1.5 7.6-1 1.8-2.4 2.7-4.3 2.7s-3.3-.9-4.3-2.7c-1-1.8-1.5-4.3-1.5-7.6 0-3.4.5-6 1.4-7.7 1-1.7 2.4-2.5 4.3-2.5s3.3.9 4.3 2.7c1.1 1.6 1.6 4.2 1.6 7.5zm-10.1 0c0 3 .4 5.2 1.1 6.7.7 1.5 1.8 2.3 3.2 2.3 1.4 0 2.5-.8 3.3-2.3.7-1.5 1.1-3.8 1.1-6.8s-.4-5.2-1.1-6.7c-.7-1.5-1.8-2.3-3.2-2.3-1.5 0-2.6.8-3.3 2.3-.8 1.6-1.1 3.8-1.1 6.8zm21.7 4.6c0 1.8-.4 3.2-1.3 4.1-.9 1-2.1 1.5-3.8 1.5-1.3 0-2.4-.3-3.5-.8v-1.5c.5.3 1 .5 1.6.7.6.2 1.2.3 1.9.3 2.5 0 3.7-1.4 3.7-4.3 0-1.5-.4-2.6-1.1-3.3s-1.8-1.1-3.3-1.1H432v-1.3h1.4c1.3 0 2.3-.4 3-1.1.7-.7 1.1-1.8 1.1-3.3 0-1.2-.3-2.1-.8-2.7s-1.3-.9-2.2-.9c-.5 0-1 .1-1.5.4s-.8.5-1.1.9l-.9-.9c1-1.1 2.2-1.6 3.6-1.6s2.4.4 3.2 1.3c.8.9 1.1 2 1.1 3.6 0 1.3-.3 2.4-.9 3.3s-1.4 1.5-2.5 1.7v.1c1.2.2 2.1.7 2.8 1.5.6.9.9 2 .9 3.4zm14.7 10.4h-1.3v-5H443v5h-1.3v-6.3h1.2c1.1-3.3 1.8-6.3 2.3-9.2s.7-6 .7-9.5h6.2v18.7h1.7v6.3zm-3.1-6.3v-17.4h-3.6c-.2 6.4-1.2 12.2-2.9 17.4h6.5zm14.1 1.3l-1.8-7.2h-4.9l-1.7 7.2h-1.4l4.8-20h1.4l4.9 20h-1.3zm-2.1-8.6l-1.8-7.5c-.2-.8-.3-1.6-.4-2.4-.1.8-.2 1.6-.4 2.4l-1.7 7.5h4.3zm16 8.6h-1.3V526h-7v9.8h-1.3v-20h1.3v8.9h7v-8.9h1.3v20zm5.1-20h1.3v14.9c0 .3 0 1.2-.1 2.8h.1l7.5-17.7h1.7v20h-1.3v-14.3c0-1.1.1-2.3.2-3.6h-.1l-7.6 17.9h-1.7v-20zm22.8 20h-7.2v-20h7.2v1.3h-5.9v7.6h5.6v1.3h-5.6v8.5h5.9v1.3zm10.2-20h1.3v14.9c0 .3 0 1.2-.1 2.8h.1l7.5-17.7h1.7v20h-1.3v-14.3c0-1.1.1-2.3.2-3.6h-.1l-7.6 17.9h-1.7v-20zm31.2 20h-1.3v-18.7h-7v18.7h-1.3v-20h9.7v20zm13.5-14.3c0 2.1-.5 3.6-1.4 4.5s-2.3 1.4-4.2 1.4h-1.4v8.3h-1.3v-20h2.7c2 0 3.4.5 4.3 1.4s1.3 2.5 1.3 4.4zm-7 4.8h1.3c1.6 0 2.7-.4 3.3-1.1s1-2 1-3.7c0-1.6-.3-2.8-1-3.5-.7-.7-1.7-1-3.2-1h-1.5v9.3zm21.7-.5c0 3.3-.5 5.9-1.5 7.6-1 1.8-2.4 2.7-4.3 2.7s-3.3-.9-4.3-2.7c-1-1.8-1.5-4.3-1.5-7.6 0-3.4.5-6 1.4-7.7 1-1.7 2.4-2.5 4.3-2.5s3.3.9 4.3 2.7c1.1 1.6 1.6 4.2 1.6 7.5zm-10.2 0c0 3 .4 5.2 1.1 6.7.7 1.5 1.8 2.3 3.2 2.3 1.4 0 2.5-.8 3.3-2.3.7-1.5 1.1-3.8 1.1-6.8s-.4-5.2-1.1-6.7c-.7-1.5-1.8-2.3-3.2-2.3-1.5 0-2.6.8-3.3 2.3-.7 1.6-1.1 3.8-1.1 6.8zm24.6 15h-1.3v-5h-9.6v5h-1.3v-6.3h1.2c1.1-3.3 1.8-6.3 2.3-9.2s.7-6 .7-9.5h6.2v18.7h1.7v6.3zm-3-6.3v-17.4h-3.6c-.2 6.4-1.2 12.2-2.9 17.4h6.5zm6.5-18.7h3.8c1.6 0 2.8.4 3.6 1.2s1.3 2 1.3 3.6c0 2.7-1 4.3-3 4.6v.1c1.1.2 2 .7 2.5 1.5s.8 1.9.8 3.3c0 1.8-.4 3.2-1.2 4.2s-1.9 1.5-3.3 1.5h-4.6v-20zm1.3 8.9h2.5c1.2 0 2.1-.3 2.7-1s.8-1.7.8-3.1c0-1.1-.3-2-.9-2.6s-1.5-.9-2.6-.9h-2.5v7.6zm0 1.2v8.6h3.1c2.2 0 3.3-1.5 3.3-4.5 0-1.3-.3-2.4-1-3.1s-1.6-1.1-2.7-1.1h-2.7zm11.8-10.1h1.3v14.9c0 .3 0 1.2-.1 2.8h.1l7.5-17.7h1.7v20h-1.3v-14.3c0-1.1.1-2.3.2-3.6h-.1l-7.6 17.9h-1.7v-20zm20.4 0h1.3v9.7l5.4-9.7h1.4l-5.5 9.7 5.6 10.3h-1.5l-5.5-10.2v10.2h-1.3v-10.2l-5.5 10.2h-1.5l5.6-10.3-5.5-9.7h1.5l5.4 9.7v-9.7zm18.5 20H639v-20h7.2v1.3h-5.9v7.6h5.6v1.3h-5.6v8.5h5.9v1.3zm13.9 0h-1.3V526h-7v9.8h-1.3v-20h1.3v8.9h7v-8.9h1.3v20zm5-20h1.3v14.9c0 .3 0 1.2-.1 2.8h.1l7.5-17.7h1.7v20h-1.3v-14.3c0-1.1.1-2.3.2-3.6h-.1l-7.6 17.9h-1.7v-20zm22.9 20h-7.2v-20h7.2v1.3h-5.9v7.6h5.6v1.3h-5.6v8.5h5.9v1.3zm15.8-19c-1.5 0-2.7.8-3.6 2.4s-1.3 3.8-1.3 6.6c0 1.8.2 3.4.6 4.8s1 2.4 1.8 3.1 1.7 1.1 2.7 1.1c1 0 1.9-.2 2.7-.6v1.2c-.7.4-1.6.6-2.8.6-1.3 0-2.4-.4-3.3-1.2-1-.8-1.7-2-2.2-3.6s-.8-3.4-.8-5.5c0-3.2.6-5.7 1.7-7.5s2.7-2.7 4.6-2.7c1.2 0 2.3.3 3.2.8l-.6 1.2c-.8-.5-1.7-.7-2.7-.7zm14.4 19l-1.8-7.2h-4.9l-1.7 7.2h-1.4l4.8-20h1.4l4.9 20h-1.3zm-2.1-8.6l-1.8-7.5c-.2-.8-.3-1.6-.4-2.4-.1.8-.2 1.6-.4 2.4l-1.7 7.5h4.3zm6.3-11.4h1.3v14.9c0 .3 0 1.2-.1 2.8h.1l7.5-17.7h1.7v20h-1.3v-14.3c0-1.1.1-2.3.2-3.6h-.1l-7.6 17.9h-1.7v-20zm5.3-1.6c-1.1 0-2-.3-2.5-.9s-.9-1.6-1-2.9h1.3c.1 1 .3 1.8.7 2.2s.9.6 1.6.6c.8 0 1.3-.2 1.7-.7s.6-1.2.6-2.1h1.3c-.3 2.5-1.5 3.8-3.7 3.8zm13.7 21.6H740v-18.7h-4v-1.3h9.3v1.3h-4v18.7zm17.9-10c0 3.3-.5 5.9-1.5 7.6s-2.4 2.7-4.3 2.7-3.3-.9-4.3-2.7-1.5-4.3-1.5-7.6c0-3.4.5-6 1.4-7.7s2.4-2.5 4.3-2.5 3.3.9 4.3 2.7 1.6 4.2 1.6 7.5zm-10.1 0c0 3 .4 5.2 1.1 6.7s1.8 2.3 3.2 2.3c1.4 0 2.5-.8 3.3-2.3s1.1-3.8 1.1-6.8-.4-5.2-1.1-6.7-1.8-2.3-3.2-2.3c-1.5 0-2.6.8-3.3 2.3s-1.1 3.8-1.1 6.8zm14.5-10h3.8c1.6 0 2.8.4 3.6 1.2s1.3 2 1.3 3.6c0 2.7-1 4.3-3 4.6v.1c1.1.2 2 .7 2.5 1.5s.8 1.9.8 3.3c0 1.8-.4 3.2-1.2 4.2s-1.9 1.5-3.3 1.5h-4.6v-20zm1.4 8.9h2.5c1.2 0 2.1-.3 2.7-1s.8-1.7.8-3.1c0-1.1-.3-2-.9-2.6s-1.5-.9-2.6-.9h-2.5v7.6zm0 1.2v8.6h3.1c2.2 0 3.3-1.5 3.3-4.5 0-1.3-.3-2.4-1-3.1s-1.6-1.1-2.7-1.1h-2.7z" fill="#fff" stroke="#fff" stroke-width=".5" stroke-miterlimit="10"/><path class="st198" d="M155.6 312l23.2 9.9 8.7 20.8z"/><path class="st199" d="M182.5 313.2l5 29.5-8.7-20.8-8-17.6z"/><path class="st200" d="M138.6 304.3l17 7.7 23.2 9.9-8-17.6z"/><path fill="#c9d676" d="M157 291.7l13.8 12.6h-32.2z"/><path class="st198" d="M130.5 291.7H157l-18.4 12.6z"/><path class="st200" d="M157 291.7l17.9 1.3-16.2-10.3-28.2 9z"/><path class="st199" d="M183.3 293h-8.4l-16.2-10.3z"/><path class="st198" d="M182.5 313.2l-7.6-20.2-17.9-1.3 13.8 12.6zm9.9 28l-9.9-28 5 29.5z"/><path class="st200" d="M183.3 293l9.1 48.2-9.9-28-7.6-20.2z"/></svg>