<svg xmlns="http://www.w3.org/2000/svg" xmlns:xlink="http://www.w3.org/1999/xlink" width="28" height="41" viewBox="0 0 28 41"><defs><path id="rep3a" d="M942.069 1093.364c.21.24.41.394.606.501l.01.005.392.126.392-.126.01-.005c.195-.107.397-.26.607-.5 0 0 11.609-12.972 12.775-24.212.07-.58.117-1.167.117-1.764 0-7.946-6.269-14.387-14-14.387-7.734 0-14.002 6.441-14.002 14.387 0 .607.047 1.2.12 1.789 1.196 11.235 12.973 24.186 12.973 24.186z"/><path id="rep3b" d="M939.976 1062.519a.498.498 0 1 1-.996-.001.498.498 0 0 1 .996 0zm4.981 6.01c0 .879-.208 1.724-.601 2.49h-.395a1.994 1.994 0 0 0-1.992-1.992c-.807 0-1.5.484-1.813 1.176a1.992 1.992 0 0 0-1.176 1.812v.996h-2.13c-.365 0-.71-.124-.968-.35a5.479 5.479 0 0 1-1.882-4.132c0-1.787.881-3.496 2.329-4.517a3.462 3.462 0 0 1-.337-1.493c0-1.912 1.552-3.519 3.486-3.52 2.06 0 3.511 1.67 3.486 3.563a3.49 3.49 0 0 1-.336 1.45 5.562 5.562 0 0 1 2.329 4.517zm-3.984-6.01c0-.824-.67-1.495-1.495-1.495a1.496 1.496 0 0 0 0 2.988c.824 0 1.495-.67 1.495-1.493zm1.992 8.5v3.985a.996.996 0 1 1-1.992 0 .996.996 0 0 1-.996-.996v-1.993c0-.55.445-.996.996-.996a.996.996 0 1 1 1.992 0zm8.035.996v1.993c0 .55-.446.996-.996.996 0 .55-.48.996-1.03.996a.996.996 0 0 1-.996-.996v-3.985c0-.55.446-.996.997-.996.55 0 1.029.446 1.029.996.55 0 .996.446.996.996zm-7.04 0h3.022v1.993h-3.021z"/></defs><g><g transform="translate(-929 -1053)"><use fill="#568f0a" xlink:href="#rep3a"/></g><g transform="translate(-929 -1053)"><use fill="#fff" xlink:href="#rep3b"/></g></g></svg>