<svg xmlns="http://www.w3.org/2000/svg" xmlns:xlink="http://www.w3.org/1999/xlink" width="28" height="41" viewBox="0 0 28 41"><defs><path id="v9xva" d="M966.069 734.364c.21.24.41.394.606.501l.01.006.392.125.392-.125.01-.006c.195-.107.397-.26.607-.5 0 0 11.609-12.972 12.775-24.212.07-.58.117-1.167.117-1.764 0-7.946-6.269-14.387-14-14.387-7.734 0-14.002 6.441-14.002 14.387 0 .607.047 1.2.12 1.789 1.196 11.235 12.973 24.186 12.973 24.186z"/><path id="v9xvb" d="M972.168 708.168v3.14c0 .011.004.023.004.034 0 1.468-2.54 2.658-5.67 2.658-3.131 0-5.67-1.19-5.67-2.658v-3.174l5.668 1.9zM966.5 702l9.5 3.982-3.832 1.494-5.668 1.9-5.668-1.9-.462-.18.999-.354.094-.254-1.339.33v.365l-.239 4.393c-.9.585-1.8 0-1.8 0-.21-1.607 1.23-4.89 1.231-4.89l.093-.3.638-.166-.106-.12-.744.069-.172.403-2.025-.79z"/></defs><g><g transform="translate(-953 -694)"><use fill="#568f0a" xlink:href="#v9xva"/></g><g transform="translate(-953 -694)"><use fill="#fff" xlink:href="#v9xvb"/></g></g></svg>