<svg id="Layer_1" data-name="Layer 1" xmlns="http://www.w3.org/2000/svg" viewBox="0 0 1413.03 794.83"><defs><style>.cls-1{fill:#fff;}.cls-2{fill:#fff;}</style></defs><title>h_&amp;amp;_p_RGB</title><path class="cls-1" d="M286,472.4h12.86v30.44h34.93V472.4h12.87v73.22H333.76V514.76H298.82v30.86H286V472.4Z"/><path class="cls-1" d="M372.68,509.22V509c0-20.6,15.9-37.86,38.39-37.86s38.18,17,38.18,37.65V509c0,20.61-15.9,37.86-38.39,37.86S372.68,529.82,372.68,509.22Zm63.08,0V509c0-14.23-10.35-25.94-24.9-25.94s-24.69,11.51-24.69,25.73V509c0,14.23,10.35,25.94,24.9,25.94S435.76,523.44,435.76,509.22Z"/><path class="cls-1" d="M475.31,472.4H489L511.29,507l22.28-34.62h13.7v73.22H534.41v-52.5l-23.12,34.51h-0.42L488,493.32v52.3H475.31V472.4Z"/><path class="cls-1" d="M576.58,472.4h54.28v11.51H589.45v19h36.71v11.61H589.45v19.56h41.94v11.51H576.58V472.4Z"/><path class="cls-1" d="M729.18,539c-4.93,4.6-10.69,7.48-17.59,7.48-10.77,0-18.9-6.49-18.9-16.44v-0.17c0-7.4,4.44-12.74,12.33-16-3.28-4.27-4.76-7.81-4.76-12v-0.17c0-7.81,6.24-14.55,16.52-14.55,9.12,0,15.29,6.16,15.29,13.89v0.17c0,7.56-5,12.08-12.66,15l9.86,10A92.62,92.62,0,0,0,735.43,515l7.64,4a85.9,85.9,0,0,1-7.81,13.07l9.12,9.21-7.56,5.42ZM723.43,533L710.61,520c-5.35,2.3-7.65,5.84-7.65,9.53v0.17c0,4.85,4,8.38,9.62,8.38C716.52,538.06,720.14,536.17,723.43,533Zm-0.33-31.31v-0.16a6.21,6.21,0,0,0-6.49-6.49,6.65,6.65,0,0,0-6.9,6.9v0.16c0,2.88,1.15,5,4.36,8.55C720,508.55,723.1,505.84,723.1,501.73Z"/><path class="cls-1" d="M806.22,472.4h28.87c17.15,0,27.82,9.73,27.82,24.48v0.21c0,16.42-13.18,25-29.28,25H819.08v23.53H806.22V472.4ZM834,510.47c9.73,0,15.8-5.44,15.8-13.07v-0.21c0-8.57-6.17-13.07-15.8-13.07h-15v26.36h15Z"/><path class="cls-1" d="M905.18,471.88h11.92l32.21,73.74H935.72l-7.43-17.68H893.67l-7.53,17.68H873Zm18.41,44.66-12.66-29.29-12.55,29.29h25.21Z"/><path class="cls-1" d="M972.35,472.4H1005c9.21,0,16.42,2.72,21.13,7.33a22.12,22.12,0,0,1,6.07,15.79v0.21c0,12-7.22,19.24-17.36,22.17l19.77,27.72h-15.27l-18-25.52H985.22v25.52H972.35V472.4ZM1004,508.7c9.21,0,15.06-4.81,15.06-12.24v-0.21c0-7.84-5.65-12.13-15.16-12.13H985.22V508.7H1004Z"/><path class="cls-1" d="M1058.45,472.4h12.86v36.82L1106,472.4h16l-30.54,31.48,31.9,41.73h-15.69l-25-32.95-11.4,11.72v21.23h-12.86V472.4Z"/><path class="cls-1" d="M332.3,594.76v-0.07c0-7.1,6-12.66,14.07-12.66,5.47,0,9,2.09,11.35,5L352.14,591a7.49,7.49,0,0,0-5.85-2.85,6.3,6.3,0,0,0-6.38,6.47v0.07a6.27,6.27,0,0,0,6.38,6.5,7.52,7.52,0,0,0,6-3l5.58,3.62c-2.52,3.16-5.93,5.5-11.81,5.5C338.45,607.35,332.3,602,332.3,594.76Z"/><path class="cls-1" d="M390.1,594.76v-0.07c0-7,6.19-12.66,14.45-12.66s14.38,5.6,14.38,12.59v0.07c0,7-6.19,12.66-14.45,12.66S390.1,601.75,390.1,594.76Zm21.22,0v-0.07a6.83,6.83,0,0,0-13.65-.07v0.07a6.63,6.63,0,0,0,6.88,6.57A6.49,6.49,0,0,0,411.32,594.76Z"/><path class="cls-1" d="M453.37,582.52h7.84l6.38,9.43,6.38-9.43h7.84v24.35h-7.38v-14l-6.84,9.53h-0.16l-6.8-9.5v13.95h-7.27V582.52Z"/><path class="cls-1" d="M517.17,582.52h21.41v5.91h-14v4.14h12.66v5.6H524.6v8.69h-7.42V582.52Z"/><path class="cls-1" d="M571.72,594.76v-0.07c0-7,6.19-12.66,14.45-12.66s14.38,5.6,14.38,12.59v0.07c0,7-6.19,12.66-14.45,12.66S571.72,601.75,571.72,594.76Zm21.22,0v-0.07a6.57,6.57,0,0,0-6.84-6.57,6.5,6.5,0,0,0-6.8,6.5v0.07a6.62,6.62,0,0,0,6.88,6.57A6.49,6.49,0,0,0,592.95,594.76Z"/><path class="cls-1" d="M635,582.52h12.66c4.09,0,6.92,1,8.71,2.61a7.24,7.24,0,0,1,2.37,5.67v0.07c0,3.76-2.18,6.23-5.51,7.51l6.38,8.49h-8.52l-5.39-7.38h-3.29v7.38H635V582.52Zm12.35,11.69c2.48,0,4-1.11,4-2.89v-0.07c0-1.95-1.57-2.92-4-2.92h-4.89v5.88h4.93Z"/><path class="cls-1" d="M699.64,588.43h-8v-5.91h23.44v5.91h-8v18.44h-7.42V588.43Z"/><path class="cls-1" d="M790.15,582.52h7.42v9.11h9.52v-9.11h7.42v24.35h-7.42v-9.25h-9.52v9.25h-7.42V582.52Z"/><path class="cls-1" d="M849,594.76v-0.07c0-7,6.19-12.66,14.45-12.66s14.38,5.6,14.38,12.59v0.07c0,7-6.19,12.66-14.45,12.66S849,601.75,849,594.76Zm21.22,0v-0.07a6.57,6.57,0,0,0-6.84-6.57,6.5,6.5,0,0,0-6.8,6.5v0.07a6.62,6.62,0,0,0,6.88,6.57A6.49,6.49,0,0,0,870.2,594.76Z"/><path class="cls-1" d="M911.95,596.19V582.52h7.49V596c0,3.52,2,5.18,4.93,5.18s5-1.6,5-5v-13.7h7.5V596c0,7.83-4.93,11.31-12.54,11.31S911.95,603.8,911.95,596.19Z"/><path class="cls-1" d="M969.82,603.25l4.13-4.49a14.73,14.73,0,0,0,8.68,2.92c2,0,3.09-.63,3.09-1.67v-0.07c0-1-.88-1.56-4.55-2.36-5.7-1.18-10.09-2.65-10.09-7.62v-0.07c0-4.52,3.94-7.79,10.36-7.79a18,18,0,0,1,11,3.23l-3.71,4.76a14,14,0,0,0-7.5-2.4c-1.8,0-2.68.66-2.68,1.57v0.07c0,1.11.92,1.6,4.67,2.37,6.12,1.22,9.94,3,9.94,7.59v0.07c0,5-4.32,7.93-10.82,7.93A20,20,0,0,1,969.82,603.25Z"/><path class="cls-1" d="M1027.39,582.52h21.53v5.7h-14.19v3.73h12.85v5.32h-12.85v3.86h14.38v5.74h-21.72V582.52Z"/><path class="cls-2" d="M724.91,212.35a6.07,6.07,0,0,1-6-5.38c-0.07-.65-1.71-16,7.08-28.16s24.07-15.84,24.72-16a6.07,6.07,0,0,1,7.44,5.21c0.07,0.65,1.71,16-7.07,28.16h0c-8.72,12.05-24.07,15.83-24.72,16A6.11,6.11,0,0,1,724.91,212.35Zm20.74-34.58a28.62,28.62,0,0,0-9.86,8.16,26.78,26.78,0,0,0-4.44,11.3,28.66,28.66,0,0,0,9.86-8.15h0A26.78,26.78,0,0,0,745.65,177.77Zm0.48,14.86h0Z"/><path class="cls-2" d="M715,176.16a6.07,6.07,0,0,1-5.51-3.51c-0.31-.67-7.55-16.56-2.71-32.42s19.7-25,20.33-25.39a6.07,6.07,0,0,1,8.65,2.64c0.31,0.67,7.55,16.55,2.71,32.42h0c-4.84,15.86-19.7,25-20.33,25.4A6.07,6.07,0,0,1,715,176.16Zm12.13-45.87c-3.3,3.21-7,7.82-8.73,13.48s-1.22,11.56-.27,16.06c3.3-3.21,7-7.82,8.74-13.48S728.05,134.8,727.1,130.29Zm5.54,17.83h0Z"/><path class="cls-2" d="M700.29,202.89c-7.95,0-22.24-1.25-34.81-9-18.28-11.19-25.42-31.42-25.72-32.27a6.07,6.07,0,0,1,5-8c0.92-.11,22.74-2.48,40.94,8.67h0c18.28,11.2,25.43,31.42,25.72,32.27a6.07,6.07,0,0,1-5,8A57.54,57.54,0,0,1,700.29,202.89Zm-45.22-37.26c3.25,5.63,8.69,13,16.75,18s17.61,6.6,24.32,7c-3.26-5.62-8.7-13-16.74-17.93h0C671.15,167.63,661.76,166,655.07,165.64Z"/><path class="cls-2" d="M772.09,367.07V266.85l-66.14-34L639.89,267v100H612.1v15.4H799.89v-15.4H772.09ZM655.3,276.41L706,250.21l50.71,26v90.81H723.06V312.81H689v54.26H655.3V276.41ZM701,366.1V324.8h10.05v41.3H701Z"/></svg>