<svg xmlns="http://www.w3.org/2000/svg" xmlns:xlink="http://www.w3.org/1999/xlink" width="13" height="13"><defs><path id="a" d="M1310 662.5c0 3.584-2.916 6.5-6.5 6.5a6.508 6.508 0 0 1-6.5-6.5c0-3.584 2.916-6.5 6.5-6.5s6.5 2.916 6.5 6.5zm-1.383 0a5.123 5.123 0 0 0-5.117-5.117 5.123 5.123 0 0 0-5.117 5.117 5.123 5.123 0 0 0 5.117 5.117 5.123 5.123 0 0 0 5.117-5.117zm-1.194.334c0 .296-.24.536-.535.536h-3.457a.535.535 0 0 1-.535-.536v-4.047a.535.535 0 1 1 1.07 0v3.512h2.922c.295 0 .535.24.535.535z"/></defs><use fill="#568f0a" xlink:href="#a" transform="translate(-1297 -656)"/></svg>