<svg xmlns="http://www.w3.org/2000/svg" xmlns:xlink="http://www.w3.org/1999/xlink" width="13" height="9"><defs><path id="a" d="M978.217 658.994h10.566c.476 0 .56.24.186.532l-4.68 3.671c-.213.167-.505.24-.79.227-.284.014-.576-.06-.788-.227l-4.681-3.671c-.374-.292-.29-.532.187-.532zm11.78 1.84v6.31c0 .471-.39.857-.866.857h-11.263a.865.865 0 0 1-.866-.858v-6.309c0-.471.31-.624.69-.34l5.116 3.846c.192.142.442.212.692.209.25.003.5-.067.692-.209l5.115-3.845c.38-.285.69-.132.69.34z"/></defs><use fill="#568f0a" xlink:href="#a" transform="translate(-977 -659)"/></svg>