<svg xmlns="http://www.w3.org/2000/svg" xmlns:xlink="http://www.w3.org/1999/xlink" width="26" height="11"><defs><path id="a" d="M427 492v-1h23v1z"/><path id="b" d="M425.5 490a1.5 1.5 0 1 1 0 3 1.5 1.5 0 0 1 0-3z"/><path id="c" d="M427 500v-1h23v1z"/><path id="d" d="M425.5 498a1.5 1.5 0 1 1 0 3 1.5 1.5 0 0 1 0-3z"/><path id="e" d="M424 496v-1h23v1z"/><path id="f" d="M448.5 494a1.5 1.5 0 1 1 0 3 1.5 1.5 0 0 1 0-3z"/></defs><g class="svg--color" fill="#fff" transform="translate(-424 -490)"><use xlink:href="#a"/><use xlink:href="#b"/><use xlink:href="#c"/><use xlink:href="#d"/><use xlink:href="#e"/><use xlink:href="#f"/></g></svg>