<svg class="leaves-w-w-icon" xmlns="http://www.w3.org/2000/svg" viewBox="0 0 111 94"><path d="M86.1 56.5c-2.2 1.2-4.7 2.9-6.5 5.4-1.7 2.4-2.5 5.1-2.9 7.4 2.2-1.2 4.7-2.9 6.5-5.4 1.7-2.3 2.5-5 2.9-7.4M72.5 79.3c-.8 0-1.6-.2-2.3-.7-.9-.7-1.5-1.7-1.7-2.8 0-.4-1.1-10.5 4.7-18.5 5.7-7.9 15.9-10.4 16.3-10.5 1.1-.3 2.3 0 3.2.6.9.7 1.5 1.7 1.7 2.8 0 .4 1.1 10.5-4.7 18.5-5.7 7.9-15.9 10.4-16.3 10.5-.3.1-.6.1-.9.1m1.4-54c-2.2 2.1-4.6 5.1-5.8 8.9-1.1 3.7-.8 7.6-.2 10.6 2.2-2.1 4.6-5.2 5.8-8.9 1.2-3.8.8-7.7.2-10.6m-8 30.2c-.4 0-.8-.1-1.2-.2-1.1-.3-2-1.1-2.5-2.1-.2-.4-5-10.9-1.8-21.3s13-16.5 13.4-16.7c1-.6 2.1-.7 3.2-.4s2 1.1 2.5 2.1c.2.4 5 10.9 1.8 21.3s-13 16.5-13.4 16.7c-.5.4-1.3.6-2 .6m-39.4-6.9c2.1 3.7 5.7 8.6 11 11.8 5.4 3.3 11.6 4.3 16 4.6-2.1-3.7-5.7-8.6-11-11.8-5.4-3.3-11.6-4.4-16-4.6m29.7 24.5c-5.2 0-14.6-.8-22.9-5.9-12-7.4-16.7-20.7-16.9-21.3-.4-1.1-.3-2.4.4-3.4.6-1 1.7-1.7 2.9-1.8.6-.1 15-1.6 27 5.7 12 7.4 16.7 20.7 16.9 21.3.4 1.1.3 2.4-.4 3.4-.6 1-1.7 1.7-2.9 1.8-.2 0-1.7.2-4.1.2" fill="none" stroke="#fff" stroke-width="3" stroke-linecap="round" stroke-linejoin="round" stroke-miterlimit="10"/></svg>