<svg xmlns="http://www.w3.org/2000/svg" xmlns:xlink="http://www.w3.org/1999/xlink" width="11" height="16"><defs><path id="a" d="M659.05 754.313a5.688 5.688 0 0 1-.047-.698c0-3.1 2.462-5.614 5.5-5.614s5.5 2.513 5.5 5.614c0 .233-.018.463-.046.689-.458 4.386-5.018 9.448-5.018 9.448a.877.877 0 0 1-.238.195l-.005.002-.154.05-.154-.05-.004-.002a.871.871 0 0 1-.238-.195s-4.626-5.054-5.096-9.439zm1.915-.698c0 1.99 1.588 3.611 3.538 3.611 1.951 0 3.538-1.62 3.538-3.61 0-1.992-1.587-3.612-3.538-3.612-1.95 0-3.538 1.62-3.538 3.611z"/></defs><use fill="#568f0a" xlink:href="#a" transform="translate(-659 -748)"/></svg>