<svg class="menuIcon" version="1.1" id="Layer_1" xmlns="http://www.w3.org/2000/svg" x="0" y="0" width="50" height="50" viewBox="0 0 125.7 123.3" xml:space="preserve"><style>.st0{fill:#fff}</style><g class="leaves"><path class="st0" d="M111.5 92.6zm-.3-8c-1.8 1-3.8 2.4-5.3 4.4-1.4 1.9-2 4.1-2.4 6 1.8-1 3.8-2.4 5.3-4.4 1.4-1.8 2.1-4 2.4-6m-11 18.5c-.6 0-1.3-.2-1.9-.6-.7-.6-1.2-1.4-1.4-2.3 0-.3-.9-8.5 3.8-15 4.6-6.4 12.9-8.4 13.2-8.5.9-.2 1.9 0 2.6.5.7.6 1.2 1.4 1.4 2.3 0 .3.9 8.5-3.8 15-4.6 6.4-12.9 8.4-13.2 8.5-.2.1-.5.1-.7.1m4-34.3zm-2.9-9.4c-1.8 1.7-3.7 4.1-4.7 7.2-.9 3-.6 6.2-.2 8.6 1.8-1.7 3.7-4.2 4.7-7.2 1-3.1.7-6.3.2-8.6m-6.5 24.4c-.3 0-.6-.1-1-.2-.9-.2-1.6-.9-2-1.7-.2-.3-4.1-8.8-1.5-17.3s10.5-13.4 10.9-13.5c.8-.5 1.7-.6 2.6-.3s1.6.9 2 1.7c.2.3 4.1 8.8 1.5 17.3S96.8 83.2 96.5 83.3c-.4.4-1.1.5-1.7.5m-31.9-5.6c1.7 3 4.6 7 8.9 9.6 4.4 2.7 9.4 3.5 13 3.7-1.7-3-4.6-7-8.9-9.6-4.4-2.6-9.4-3.5-13-3.7M87 98.1c-4.2 0-11.8-.6-18.6-4.8-9.7-6-13.5-16.8-13.7-17.3-.3-.9-.2-1.9.3-2.8.5-.8 1.4-1.4 2.4-1.5.5-.1 12.2-1.3 21.9 4.6 9.7 6 13.5 16.8 13.7 17.3.3.9.2 1.9-.3 2.8-.5.8-1.4 1.4-2.4 1.5-.2 0-1.4.2-3.3.2"/></g><g class="word"><path class="st0 m" d="M7.6 6.5h5.1L21 19.3l8.3-12.8h5.1v27.1h-4.8V14.2L21 26.9h-.2l-8.5-12.7v19.4H7.6V6.5z"/><path class="st0 e" d="M40 23.4c0-5.9 4.1-10.7 10-10.7 6.5 0 9.8 5.1 9.8 11 0 .3 0 1.1-.1 1.3h-15c.5 3.3 2.9 5.2 5.9 5.2 2.3 0 3.9-.9 5.5-2.4l2.8 2.4C57 32.5 54.3 34 50.5 34c-5.9.1-10.5-4.2-10.5-10.6zm15.1-1.5c-.3-3-2.1-5.4-5.2-5.4-2.9 0-4.9 2.2-5.3 5.4h10.5z"/><path class="st0 n" d="M64.9 13.1h4.7v8.3h9v-8.3h4.7v20.5h-4.7v-8.3h-9v8.3h-4.7V13.1z"/><path class="st0 u" d="M97.8 25.3h-3.5v8.3h-4.7V13.1h4.7v8.3h3.5c.8-4.9 4.6-8.7 10.1-8.7 6.2 0 10.2 4.8 10.2 10.7 0 5.8-4.1 10.7-10.3 10.7-5.5 0-9.3-3.8-10-8.8zm15.6-1.9c0-3.6-2.1-6.6-5.6-6.6-3.6 0-5.5 2.9-5.5 6.6 0 3.6 2.1 6.6 5.6 6.6 3.6 0 5.5-3 5.5-6.6z"/></g><path class="st0 top" d="M7.6 50.7H80v9H7.6z"/><path class="st0 middle" d="M7.6 79.3h38v9h-38z"/><path class="st0 bottom" d="M7.6 107.8H118v9H7.6z"/><path class="st0 cross_1" d="M0 0h110.4v9H0z"/><path class="st0 cross_2" d="M0 0h110.4v9H0z"/></svg>