<svg xmlns="http://www.w3.org/2000/svg" xmlns:xlink="http://www.w3.org/1999/xlink" width="23" height="20"><defs><path id="a" d="M421.284 640.179c-.272 0-.374-.163-.79-.484.343-.044.667-.056.925-.056.455 0 .538.068.601.101a.812.812 0 0 1-.118.213c-.157.221-.499.226-.618.226zm-9.33 3.201c.032-.285.476-.79 1.57-1.407-.83 1.535-1.274 1.738-1.35 1.762-.24-.183-.225-.307-.22-.355zM405 647v-18.5c0-1.03.653-1.5 1.259-1.5h14.833c.253 0 .5.103.68.282l5.947 5.967c.234.236.281.526.281.92v12.83zm15.844-12.82h5.423a.263.263 0 0 0 .185-.45l-5.16-5.177a.262.262 0 0 0-.448.186zm-9.175 10.255c.146.11.317.167.495.167.447 0 .899-.343 1.422-1.08.38-.537.79-1.27 1.218-2.18a24.422 24.422 0 0 1 4.512-1.447c.807.778 1.53 1.172 2.152 1.172.457 0 .85-.212 1.135-.611.296-.416.362-.789.199-1.108-.198-.386-.683-.573-1.483-.573-.47 0-1.047.062-1.717.184-.935-.996-1.911-2.45-2.6-3.878.683-2.887.341-3.295.19-3.488-.16-.205-.386-.538-.644-.538-.108 0-.403.049-.52.088-.294.098-.452.326-.579.623-.361.848.134 2.293.645 3.407a34.495 34.495 0 0 1-1.936 5.513c-1.938.89-2.966 1.764-3.06 2.599-.033.303.038.749.571 1.15zm6.96-5.272a25.47 25.47 0 0 0-3.32 1.036c.518-1.24 1-2.61 1.366-3.88a17.546 17.546 0 0 0 1.954 2.844zm-2.215-5.533c-.729-.749-.1-1.633-.049-1.65.022-.007.534.565.05 1.65z"/></defs><use fill="#568f0a" xlink:href="#a" transform="translate(-405 -627)"/></svg>