<svg xmlns="http://www.w3.org/2000/svg" xmlns:xlink="http://www.w3.org/1999/xlink" width="9" height="13" viewBox="0 0 9 13"><defs><path id="s7c8a" d="M492.117 6352.932c0-1.62.35-2.934 2.383-2.934 2.032 0 2.382 1.313 2.382 2.934 0 1.62-1.067 2.934-2.382 2.934-1.316 0-2.383-1.314-2.383-2.934zm-2.117 8.414c0-.027 0-.098 0 0zm8.999.078c0-.188.001-.027 0 0zm0 0v.219s-.663 1.354-4.5 1.354c-3.836 0-4.499-1.354-4.499-1.354v-.297c0 .027.003.015.007-.21.05-2.749.436-3.54 3.188-4.045 0 0 .392.506 1.305.506.912 0 1.304-.506 1.304-.506 2.782.51 3.146 1.314 3.19 4.137.003.18.004.212.005.196z"/></defs><g><g transform="translate(-490 -6350)"><use fill="#fff" xlink:href="#s7c8a"/></g></g></svg>