<svg xmlns="http://www.w3.org/2000/svg" xmlns:xlink="http://www.w3.org/1999/xlink" width="21" height="10">
	<defs>
		<path id="key-icon" d="M1310.489 4086.533c-2.013 1.953-5.268 1.953-7.28 0a5.552 5.552 0 0 1-1.072-1.456h-3.854l-1.285-1.247-1.285 1.247-1.285-1.247-1.285 1.247-2.141-2.078 2.141-2.08h8.994c.3-.54.643-1.039 1.071-1.454 2.013-1.954 5.268-1.954 7.28 0a4.891 4.891 0 0 1 0 7.068zm-.214-2.287c.728-.707.728-1.788 0-2.495a1.823 1.823 0 0 0-2.57 0c-.728.707-.728 1.788 0 2.495a1.821 1.821 0 0 0 2.57 0z"/>
	</defs>
	<use fill="#fff" xlink:href="#key-icon" transform="translate(-1291 -4078)"/>
</svg>