<svg xmlns="http://www.w3.org/2000/svg" xmlns:xlink="http://www.w3.org/1999/xlink" width="28" height="41" viewBox="0 0 28 41"><defs><path id="sfpta" d="M643.069 935.364c.21.24.41.394.606.501l.01.006.392.125.392-.125.01-.006c.195-.107.397-.26.607-.5 0 0 11.609-12.972 12.775-24.212.07-.58.117-1.167.117-1.764 0-7.946-6.269-14.386-14-14.386-7.734 0-14.002 6.44-14.002 14.386 0 .607.047 1.2.12 1.789 1.196 11.235 12.973 24.186 12.973 24.186z"/><path id="sfptb" d="M643.355 904.435h-2.883c.223-.35.466-.675.78-.953a5.834 5.834 0 0 1 1.751-1.068 6.173 6.173 0 0 1 3.872-.19c1.697.474 3.03 1.756 3.685 3.342a5.701 5.701 0 0 1 .204 3.822c-.714 2.409-2.952 4.12-5.474 4.12h-2.14v-2.084h2.14c1.809 0 3.4-1.41 3.624-3.203.27-2.17-1.32-4.366-3.605-4.366-.712 0-1.395.226-1.954.58zm-7.352 1.295a.566.566 0 0 1 .565-.629h10.175c.337 0 .602.294.564.63a5.691 5.691 0 0 1-4.8 4.994v3.648a18.8 18.8 0 0 0-1.704-.496v-3.152a5.69 5.69 0 0 1-4.8-4.995zm3.969 14.27a.285.285 0 0 1-.28-.331 1.987 1.987 0 0 1 1.107-1.466v-.92c.504.145 1.104.281 1.704.531v.389a2.25 2.25 0 0 1 .379.237c.379.299.646.732.729 1.228a.284.284 0 0 1-.28.332zm.46-5.534a17.506 17.506 0 0 1 2.071.59c1.593.56 3.126 1.345 4.412 2.448a1.041 1.041 0 0 1 .29 1.174l-.023.053a1.024 1.024 0 0 1-.154.24 1.04 1.04 0 0 1-1.469.112c-1.46-1.252-3.342-2.032-5.193-2.496h-.002c-.409-.102-.82-.19-1.183-.415a2.59 2.59 0 0 1-1.22-2.182c0-1.379.81-2.508 2.176-2.562v2.092c-.538.122-.538.762.295.946z"/></defs><g><g transform="translate(-630 -895)"><use fill="#568f0a" xlink:href="#sfpta"/></g><g transform="translate(-630 -895)"><use fill="#fff" xlink:href="#sfptb"/></g></g></svg>