<svg xmlns="http://www.w3.org/2000/svg" xmlns:xlink="http://www.w3.org/1999/xlink" width="28" height="41" viewBox="0 0 28 41"><defs><path id="5pwba" d="M558.069 760.364c.21.24.41.394.606.501l.01.005.392.126.392-.126.01-.005c.195-.107.397-.26.607-.5 0 0 11.609-12.972 12.774-24.212.071-.58.118-1.167.118-1.764 0-7.946-6.269-14.387-14-14.387-7.734 0-14.002 6.441-14.002 14.387 0 .607.047 1.2.12 1.789 1.196 11.235 12.973 24.186 12.973 24.186z"/><path id="5pwbb" d="M567 733.333a.312.312 0 0 0-.098-.227.312.312 0 0 0-.227-.098h-4.358a.312.312 0 0 1-.228-.097.312.312 0 0 1-.097-.228v-4.358a.312.312 0 0 0-.098-.227.312.312 0 0 0-.227-.098h-5.334a.312.312 0 0 0-.227.098.312.312 0 0 0-.098.227v4.358a.312.312 0 0 1-.097.228.312.312 0 0 1-.228.097h-4.358a.312.312 0 0 0-.228.098.312.312 0 0 0-.097.227v5.334c0 .086.032.162.097.227a.312.312 0 0 0 .228.098h4.358c.087 0 .163.032.228.097s.097.141.097.228v4.358c0 .086.033.162.098.227a.312.312 0 0 0 .227.098h5.334a.312.312 0 0 0 .227-.098.312.312 0 0 0 .098-.227v-4.358c0-.087.032-.163.097-.228a.312.312 0 0 1 .228-.097h4.358a.312.312 0 0 0 .227-.098.312.312 0 0 0 .098-.227v-5.334z"/></defs><g><g transform="translate(-545 -720)"><use fill="#568f0a" xlink:href="#5pwba"/></g><g transform="translate(-545 -720)"><use fill="#fff" xlink:href="#5pwbb"/></g></g></svg>