<svg xmlns="http://www.w3.org/2000/svg" xmlns:xlink="http://www.w3.org/1999/xlink" viewBox="0 0 1680 800" width="100%" height="100%">
  <style> path{opacity:0;stroke-width:1.5px;}</style>
  <path d="M1642,747L1816,788L1817,646Z" fill="#ff6400" stroke="#ff6400" ><animate attributeType="CSS" attributeName="opacity" from="0" to="1" dur="0.5s" begin="0.1s" fill="freeze" repeatCount="1" /></path>
  <path d="M1788,502L1642,747L1817,646Z" fill="#ff7600" stroke="#ff7600" ><animate attributeType="CSS" attributeName="opacity" from="0" to="1" dur="0.5s" begin="0.15s" fill="freeze" repeatCount="1" /></path>
  <path d="M1719,-187L1641,-80L1806,-53Z" fill="#ff6800" stroke="#ff6800" ><animate attributeType="CSS" attributeName="opacity" from="0" to="1" dur="0.5s" begin="0.2s" fill="freeze" repeatCount="1" /></path>
  <path d="M1448,-289L1719,-187L1811,-305Z" fill="#ff6100" stroke="#ff6100" ><animate attributeType="CSS" attributeName="opacity" from="0" to="1" dur="0.5s" begin="0.25s" fill="freeze" repeatCount="1" /></path>
  <path d="M1642,747L1669,846L1816,788Z" fill="#ff6b00" stroke="#ff6b00" ><animate attributeType="CSS" attributeName="opacity" from="0" to="1" dur="0.5s" begin="0.3s" fill="freeze" repeatCount="1" /></path>
  <path d="M1504,628L1642,747L1788,502Z" fill="#ff8000" stroke="#ff8000"><animate attributeType="CSS" attributeName="opacity" from="0" to="1" dur="0.5s" begin="0.35s" fill="freeze" repeatCount="1" /></path>
  <path d="M1715,261L1511,307L1788,502Z" fill="#ff7c00" stroke="#ff7c00"><animate attributeType="CSS" attributeName="opacity" from="0" to="1" dur="0.5s" begin="0.4s" fill="freeze" repeatCount="1" /></path>
  <path d="M1641,-80L1571,-28L1768,107Z" fill="#ff7900" stroke="#ff7900"><animate attributeType="CSS" attributeName="opacity" from="0" to="1" dur="0.5s" begin="0.4s" fill="freeze" repeatCount="1" /></path>
  <path d="M1511,307L1504,628L1788,502Z" fill="#ff8f00" stroke="#ff8f00"><animate attributeType="CSS" attributeName="opacity" from="0" to="1" dur="0.5s" begin="0.42s" fill="freeze" repeatCount="1" /></path>
  <path d="M1719,-187L1806,-53L1811,-305Z" fill="#ff5b00" stroke="#ff5b00"><animate attributeType="CSS" attributeName="opacity" from="0" to="1" dur="0.5s" begin="0.43s" fill="freeze" repeatCount="1" /></path>
  <path d="M1489,128L1715,261L1768,107Z" fill="#ff7200" stroke="#ff7200"><animate attributeType="CSS" attributeName="opacity" from="0" to="1" dur="0.5s" begin="0.44s" fill="freeze" repeatCount="1" /></path>
  <path d="M1571,-28L1489,128L1768,107Z" fill="#ff8100" stroke="#ff8100"><animate attributeType="CSS" attributeName="opacity" from="0" to="1" dur="0.5s" begin="0.46s" fill="freeze" repeatCount="1" /></path>
  <path d="M1440,584L1504,628L1511,307Z" fill="#ff8b00" stroke="#ff8b00"><animate attributeType="CSS" attributeName="opacity" from="0" to="1" dur="0.5s" begin="0.48s" fill="freeze" repeatCount="1" /></path>
  <path d="M1669,846L1584,915L1704,974Z" fill="#ff7700" stroke="#ff7700"><animate attributeType="CSS" attributeName="opacity" from="0" to="1" dur="0.5s" begin="0.5s" fill="freeze" repeatCount="1" /></path>
  <path d="M1489,128L1511,307L1715,261Z" fill="#ff7a01" stroke="#ff7a01"><animate attributeType="CSS" attributeName="opacity" from="0" to="1" dur="0.5s" begin="0.52s" fill="freeze" repeatCount="1" /></path>
  <path d="M1448,-289L1641,-80L1719,-187Z" fill="#ff6c01" stroke="#ff6c01"><animate attributeType="CSS" attributeName="opacity" from="0" to="1" dur="0.5s" begin="0.54s" fill="freeze" repeatCount="1" /></path>
  <path d="M874,-308L1123,-233L1361,-271Z" fill="#ff7400" stroke="#ff7400"><animate attributeType="CSS" attributeName="opacity" from="0" to="1" dur="0.5s" begin="0.56s" fill="freeze" repeatCount="1" /></path>
  <path d="M1584,915L1554,1012L1704,974Z" fill="#ff7200" stroke="#ff7200"><animate attributeType="CSS" attributeName="opacity" from="0" to="1" dur="0.5s" begin="0.58s" fill="freeze" repeatCount="1" /></path>
  <path d="M1642,747L1584,915L1669,846Z" fill="#ff7700" stroke="#ff7700"><animate attributeType="CSS" attributeName="opacity" from="0" to="1" dur="0.5s" begin="0.60s" fill="freeze" repeatCount="1" /></path>
  <path d="M1448,-289L1571,-28L1641,-80Z" fill="#ff7301" stroke="#ff7301"><animate attributeType="CSS" attributeName="opacity" from="0" to="1" dur="0.5s" begin="0.62s" fill="freeze" repeatCount="1" /></path>
  <path d="M1380,798L1584,915L1642,747Z" fill="#ff7900" stroke="#ff7900"><animate attributeType="CSS" attributeName="opacity" from="0" to="1" dur="0.5s" begin="0.64s" fill="freeze" repeatCount="1" /></path>
  <path d="M1504,628L1380,798L1642,747Z" fill="#ff7300" stroke="#ff7300"><animate attributeType="CSS" attributeName="opacity" from="0" to="1" dur="0.5s" begin="0.66s" fill="freeze" repeatCount="1" /></path>
  <path d="M1448,-289L1294,-166L1571,-28Z" fill="#ff6800" stroke="#ff6800"><animate attributeType="CSS" attributeName="opacity" from="0" to="1" dur="0.5s" begin="0.68s" fill="freeze" repeatCount="1" /></path>
  <path d="M1380,798L1554,1012L1584,915Z" fill="#ff7b00" stroke="#ff7b00"><animate attributeType="CSS" attributeName="opacity" from="0" to="1" dur="0.5s" begin="0.70s" fill="freeze" repeatCount="1" /></path>
  <path d="M1240,45L1489,128L1571,-28Z" fill="#ff7d00" stroke="#ff7d00"><animate attributeType="CSS" attributeName="opacity" from="0" to="1" dur="0.5s" begin="0.72s" fill="freeze" repeatCount="1" /></path>
  <path d="M1294,-166L1240,45L1571,-28Z" fill="#ff6d00" stroke="#ff6d00"><animate attributeType="CSS" attributeName="opacity" from="0" to="1" dur="0.5s" begin="0.74s" fill="freeze" repeatCount="1" /></path>
  <path d="M1361,-271L1294,-166L1448,-289Z" fill="#ff5b00" stroke="#ff5b00"><animate attributeType="CSS" attributeName="opacity" from="0" to="1" dur="0.5s" begin="0.76s" fill="freeze" repeatCount="1" /></path>
  <path d="M1380,798L1263,1010L1554,1012Z" fill="#ff6f00" stroke="#ff6f00"><animate attributeType="CSS" attributeName="opacity" from="0" to="1" dur="0.5s" begin="0.78s" fill="freeze" repeatCount="1" /></path>
  <path d="M1440,584L1380,798L1504,628Z" fill="#ff7700" stroke="#ff7700"><animate attributeType="CSS" attributeName="opacity" from="0" to="1" dur="0.5s" begin="0.80s" fill="freeze" repeatCount="1" /></path>
  <path d="M1248,542L1440,584L1511,307Z" fill="#ff8700" stroke="#ff8700"><animate attributeType="CSS" attributeName="opacity" from="0" to="1" dur="0.5s" begin="0.82s" fill="freeze" repeatCount="1" /></path>
  <path d="M1233,226L1248,542L1511,307Z" fill="#ff7a00" stroke="#ff7a00"><animate attributeType="CSS" attributeName="opacity" from="0" to="1" dur="0.5s" begin="0.84s" fill="freeze" repeatCount="1" /></path>
  <path d="M1489,128L1233,226L1511,307Z" fill="#ff6e00" stroke="#ff6e00"><animate attributeType="CSS" attributeName="opacity" from="0" to="1" dur="0.5s" begin="0.86s" fill="freeze" repeatCount="1" /></path>
  <path d="M1240,45L1233,226L1489,128Z" fill="#ff7300" stroke="#ff7300"><animate attributeType="CSS" attributeName="opacity" from="0" to="1" dur="0.5s" begin="0.88s" fill="freeze" repeatCount="1" /></path>
  <path d="M1202,108L1233,226L1240,45Z" fill="#ff7f00" stroke="#ff7f00"><animate attributeType="CSS" attributeName="opacity" from="0" to="1" dur="0.5s" begin="0.90s" fill="freeze" repeatCount="1" /></path>
  <path d="M1221,718L1380,798L1440,584Z" fill="#ff6d00" stroke="#ff6d00"><animate attributeType="CSS" attributeName="opacity" from="0" to="1" dur="0.5s" begin="0.94s" fill="freeze" repeatCount="1" /></path>
  <path d="M1248,542L1221,718L1440,584Z" fill="#ff8000" stroke="#ff8000"><animate attributeType="CSS" attributeName="opacity" from="0" to="1" dur="0.5s" begin="1s" fill="freeze" repeatCount="1" /></path>
  <path d="M1233,226L1077,427L1248,542Z" fill="#ff8e00" stroke="#ff8e00"><animate attributeType="CSS" attributeName="opacity" from="0" to="1" dur="0.5s" begin="1.05s" fill="freeze" repeatCount="1" /></path>
  <path d="M1221,718L1263,1010L1380,798Z" fill="#ff7700" stroke="#ff7700"><animate attributeType="CSS" attributeName="opacity" from="0" to="1" dur="0.5s" begin="1.1s" fill="freeze" repeatCount="1" /></path>
  <path d="M1123,-233L1294,-166L1361,-271Z" fill="#ff6800" stroke="#ff6800"><animate attributeType="CSS" attributeName="opacity" from="0" to="1" dur="0.5s" begin="1.15s" fill="freeze" repeatCount="1" /></path>
  <path d="M1221,718L1065,940L1263,1010Z" fill="#ff8601" stroke="#ff8601"><animate attributeType="CSS" attributeName="opacity" from="0" to="1" dur="0.5s" begin="1.20s" fill="freeze" repeatCount="1" /></path>
  <path d="M1114,-32L1240,45L1294,-166Z" fill="#ff7d00" stroke="#ff7d00"><animate attributeType="CSS" attributeName="opacity" from="0" to="1" dur="0.5s" begin="1.25s" fill="freeze" repeatCount="1" /></path>
  <path d="M1123,-233L1114,-32L1294,-166Z" fill="#ff7901" stroke="#ff7901"><animate attributeType="CSS" attributeName="opacity" from="0" to="1" dur="0.5s" begin="1.3s" fill="freeze" repeatCount="1" /></path>
  <path d="M1046,239L1077,427L1233,226Z" fill="#ff8901" stroke="#ff8901"><animate attributeType="CSS" attributeName="opacity" from="0" to="1" dur="0.5s" begin="1.35s" fill="freeze" repeatCount="1" /></path>
  <path d="M1096,600L1221,718L1248,542Z" fill="#ff8b00" stroke="#ff8b00"><animate attributeType="CSS" attributeName="opacity" from="0" to="1" dur="0.5s" begin="1.4s" fill="freeze" repeatCount="1" /></path>
  <path d="M1065,940L1108,1067L1263,1010Z" fill="#ff7900" stroke="#ff7900"><animate attributeType="CSS" attributeName="opacity" from="0" to="1" dur="0.5s" begin="1.45s" fill="freeze" repeatCount="1" /></path>
  <path d="M1077,427L1096,600L1248,542Z" fill="#ff9700" stroke="#ff9700"><animate attributeType="CSS" attributeName="opacity" from="0" to="1" dur="0.5s" begin="1.5s" fill="freeze" repeatCount="1" /></path>
  <path d="M1202,108L1046,239L1233,226Z" fill="#ff7e01" stroke="#ff7e01"><animate attributeType="CSS" attributeName="opacity" from="0" to="1" dur="0.5s" begin="1.55s" fill="freeze" repeatCount="1" /></path>
  <path d="M1114,-32L1202,108L1240,45Z" fill="#ff8900" stroke="#ff8900"><animate attributeType="CSS" attributeName="opacity" from="0" to="1" dur="0.5s" begin="1.6s" fill="freeze" repeatCount="1" /></path>
  <path d="M1096,600L1065,940L1221,718Z" fill="#ff7d00" stroke="#ff7d00"><animate attributeType="CSS" attributeName="opacity" from="0" to="1" dur="0.5s" begin="1.65s" fill="freeze" repeatCount="1" /></path>
  <path d="M870,798L1065,940L1096,600Z" fill="#ff8500" stroke="#ff8500"><animate attributeType="CSS" attributeName="opacity" from="0" to="1" dur="0.5s" begin="1.7s" fill="freeze" repeatCount="1" /></path>
  <path d="M1114,-32L929,143L1202,108Z" fill="#ff8f00" stroke="#ff8f00"><animate attributeType="CSS" attributeName="opacity" from="0" to="1" dur="0.5s" begin="1.75s" fill="freeze" repeatCount="1" /></path>
  <path d="M929,143L1046,239L1202,108Z" fill="#ff8601" stroke="#ff8601"><animate attributeType="CSS" attributeName="opacity" from="0" to="1" dur="0.5s" begin="1.8s" fill="freeze" repeatCount="1" /></path>
  <path d="M844,751L870,798L1096,600Z" fill="#ff8900" stroke="#ff8900"><animate attributeType="CSS" attributeName="opacity" from="0" to="1" dur="0.5s" begin="1.85s" fill="freeze" repeatCount="1" /></path>
  <path d="M1077,427L930,481L1096,600Z" fill="#ff9d00" stroke="#ff9d00"><animate attributeType="CSS" attributeName="opacity" from="0" to="1" dur="0.5s" begin="1.9s" fill="freeze" repeatCount="1" /></path>
  <path d="M882,-64L929,143L1114,-32Z" fill="#ff9100" stroke="#ff9100"><animate attributeType="CSS" attributeName="opacity" from="0" to="1" dur="0.5s" begin="1.95s" fill="freeze" repeatCount="1" /></path>
  <path d="M882,-64L1114,-32L1123,-233Z" fill="#ff8300" stroke="#ff8300"><animate attributeType="CSS" attributeName="opacity" from="0" to="1" dur="0.5s" begin="2.0s" fill="freeze" repeatCount="1" /></path>
  <path d="M874,-308L882,-64L1123,-233Z" fill="#ff7f00" stroke="#ff7f00"><animate attributeType="CSS" attributeName="opacity" from="0" to="1" dur="0.5s" begin="2.05s" fill="freeze" repeatCount="1" /></path>
  <path d="M828,691L844,751L1096,600Z" fill="#ff8d00" stroke="#ff8d00"><animate attributeType="CSS" attributeName="opacity" from="0" to="1" dur="0.5s" begin="2.1s" fill="freeze" repeatCount="1" /></path>
  <path d="M1065,940L927,1038L1108,1067Z" fill="#ff7e00" stroke="#ff7e00"><animate attributeType="CSS" attributeName="opacity" from="0" to="1" dur="0.5s" begin="2.15s" fill="freeze" repeatCount="1" /></path>
  <path d="M1046,239L930,481L1077,427Z" fill="#ff9500" stroke="#ff9500"><animate attributeType="CSS" attributeName="opacity" from="0" to="1" dur="0.5s" begin="2.2s" fill="freeze" repeatCount="1" /></path>
  <path d="M930,481L828,691L1096,600Z" fill="#ff9a00" stroke="#ff9a00"><animate attributeType="CSS" attributeName="opacity" from="0" to="1" dur="0.5s" begin="2.25s" fill="freeze" repeatCount="1" /></path>
  <path d="M874,-308L822,-123L882,-64Z" fill="#ff7c00" stroke="#ff7c00"><animate attributeType="CSS" attributeName="opacity" from="0" to="1" dur="0.5s" begin="2.3s" fill="freeze" repeatCount="1" /></path>
  <path d="M886,217L930,481L1046,239Z" fill="#ff9000" stroke="#ff9000"><animate attributeType="CSS" attributeName="opacity" from="0" to="1" dur="0.5s" begin="2.35s" fill="freeze" repeatCount="1" /></path>
  <path d="M870,798L927,1038L1065,940Z" fill="#ff8d00" stroke="#ff8d00"><animate attributeType="CSS" attributeName="opacity" from="0" to="1" dur="0.5s" begin="2.4s" fill="freeze" repeatCount="1" /></path>
  <path d="M886,217L831,441L930,481Z" fill="#ff9400" stroke="#ff9400"><animate attributeType="CSS" attributeName="opacity" from="0" to="1" dur="0.5s" begin="2.45s" fill="freeze" repeatCount="1" /></path>
  <path d="M929,143L886,217L1046,239Z" fill="#ff8800" stroke="#ff8800"><animate attributeType="CSS" attributeName="opacity" from="0" to="1" dur="0.5s" begin="2.5s" fill="freeze" repeatCount="1" /></path>
  <path d="M87,-292L280,-227L691,-316Z" fill="#ff6c00" stroke="#ff6c00"><animate attributeType="CSS" attributeName="opacity" from="0" to="1" dur="0.5s" begin="2.55s" fill="freeze" repeatCount="1" /></path>
  <path d="M796,239L831,441L886,217Z" fill="#ff8800" stroke="#ff8800"><animate attributeType="CSS" attributeName="opacity" from="0" to="1" dur="0.5s" begin="2.6s" fill="freeze" repeatCount="1" /></path>
  <path d="M870,798L805,831L927,1038Z" fill="#ff8c00" stroke="#ff8c00"><animate attributeType="CSS" attributeName="opacity" from="0" to="1" dur="0.5s" begin="2.65s" fill="freeze" repeatCount="1" /></path>
  <path d="M805,831L798,1028L927,1038Z" fill="#ff8000" stroke="#ff8000"><animate attributeType="CSS" attributeName="opacity" from="0" to="1" dur="0.5s" begin="2.7s" fill="freeze" repeatCount="1" /></path>
  <path d="M882,-64L720,136L929,143Z" fill="#ff8d00" stroke="#ff8d00"><animate attributeType="CSS" attributeName="opacity" from="0" to="1" dur="0.5s" begin="2.75s" fill="freeze" repeatCount="1" /></path>
  <path d="M831,441L828,691L930,481Z" fill="#ff9800" stroke="#ff9800"><animate attributeType="CSS" attributeName="opacity" from="0" to="1" dur="0.5s" begin="2.8s" fill="freeze" repeatCount="1" /></path>
  <path d="M720,136L886,217L929,143Z" fill="#ff8300" stroke="#ff8300"><animate attributeType="CSS" attributeName="opacity" from="0" to="1" dur="0.5s" begin="2.85s" fill="freeze" repeatCount="1" /></path>
  <path d="M632,549L828,691L831,441Z" fill="#ff8f01" stroke="#ff8f01"><animate attributeType="CSS" attributeName="opacity" from="0" to="1" dur="0.5s" begin="2.88s" fill="freeze" repeatCount="1" /></path>
  <path d="M691,-316L822,-123L874,-308Z" fill="#ff7000" stroke="#ff7000"><animate attributeType="CSS" attributeName="opacity" from="0" to="1" dur="0.5s" begin="2.9s" fill="freeze" repeatCount="1" /></path>
  <path d="M822,-123L720,136L882,-64Z" fill="#ff8500" stroke="#ff8500"><animate attributeType="CSS" attributeName="opacity" from="0" to="1" dur="0.5s" begin="2.92s" fill="freeze" repeatCount="1" /></path>
  <path d="M720,136L796,239L886,217Z" fill="#ff7d01" stroke="#ff7d01"><animate attributeType="CSS" attributeName="opacity" from="0" to="1" dur="0.5s" begin="2.94s" fill="freeze" repeatCount="1" /></path>
  <path d="M844,751L805,831L870,798Z" fill="#ff8100" stroke="#ff8100"><animate attributeType="CSS" attributeName="opacity" from="0" to="1" dur="0.5s" begin="2.96s" fill="freeze" repeatCount="1" /></path>
  <path d="M640,1017L798,1028L805,831Z" fill="#ff7900" stroke="#ff7900"><animate attributeType="CSS" attributeName="opacity" from="0" to="1" dur="0.5s" begin="2.98s" fill="freeze" repeatCount="1" /></path>
  <path d="M545,-19L720,136L822,-123Z" fill="#ff7f01" stroke="#ff7f01"><animate attributeType="CSS" attributeName="opacity" from="0" to="1" dur="0.5s" begin="3s" fill="freeze" repeatCount="1" /></path>
  <path d="M691,-316L605,-199L822,-123Z" fill="#ff6b01" stroke="#ff6b01"><animate attributeType="CSS" attributeName="opacity" from="0" to="1" dur="0.5s" begin="3.02s" fill="freeze" repeatCount="1" /></path>
  <path d="M796,239L499,340L831,441Z" fill="#ff8201" stroke="#ff8201"><animate attributeType="CSS" attributeName="opacity" from="0" to="1" dur="0.5s" begin="3.04s" fill="freeze" repeatCount="1" /></path>
  <path d="M828,691L805,831L844,751Z" fill="#ff7c00" stroke="#ff7c00"><animate attributeType="CSS" attributeName="opacity" from="0" to="1" dur="0.5s" begin="3.06s" fill="freeze" repeatCount="1" /></path>
  <path d="M602,189L499,340L796,239Z" fill="#ff7701" stroke="#ff7701"><animate attributeType="CSS" attributeName="opacity" from="0" to="1" dur="0.5s" begin="3.08s" fill="freeze" repeatCount="1" /></path>
  <path d="M571,676L805,831L828,691Z" fill="#ff7500" stroke="#ff7500"><animate attributeType="CSS" attributeName="opacity" from="0" to="1" dur="0.5s" begin="3.10s" fill="freeze" repeatCount="1" /></path>
  <path d="M632,549L571,676L828,691Z" fill="#ff8200" stroke="#ff8200"><animate attributeType="CSS" attributeName="opacity" from="0" to="1" dur="0.5s" begin="3.12s" fill="freeze" repeatCount="1" /></path>
  <path d="M499,340L632,549L831,441Z" fill="#ff8b00" stroke="#ff8b00"><animate attributeType="CSS" attributeName="opacity" from="0" to="1" dur="0.5s" begin="3.14s" fill="freeze" repeatCount="1" /></path>
  <path d="M605,-199L545,-19L822,-123Z" fill="#ff7201" stroke="#ff7201"><animate attributeType="CSS" attributeName="opacity" from="0" to="1" dur="0.5s" begin="3.16s" fill="freeze" repeatCount="1" /></path>
  <path d="M514,848L640,1017L805,831Z" fill="#ff7c01" stroke="#ff7c01"><animate attributeType="CSS" attributeName="opacity" from="0" to="1" dur="0.5s" begin="3.18s" fill="freeze" repeatCount="1" /></path>
  <path d="M571,676L514,848L805,831Z" fill="#ff7200" stroke="#ff7200"><animate attributeType="CSS" attributeName="opacity" from="0" to="1" dur="0.5s" begin="3.2s" fill="freeze" repeatCount="1" /></path>
  <path d="M720,136L602,189L796,239Z" fill="#ff7601" stroke="#ff7601"><animate attributeType="CSS" attributeName="opacity" from="0" to="1" dur="0.5s" begin="3.24s" fill="freeze" repeatCount="1" /></path>
  <path d="M545,-19L602,189L720,136Z" fill="#ff7c00" stroke="#ff7c00"><animate attributeType="CSS" attributeName="opacity" from="0" to="1" dur="0.5s" begin="3.28s" fill="freeze" repeatCount="1" /></path>
  <path d="M404,-163L605,-199L691,-316Z" fill="#ff6101" stroke="#ff6101"><animate attributeType="CSS" attributeName="opacity" from="0" to="1" dur="0.5s" begin="3.3s" fill="freeze" repeatCount="1" /></path>
  <path d="M280,-227L404,-163L691,-316Z" fill="#ff6500" stroke="#ff6500"><animate attributeType="CSS" attributeName="opacity" from="0" to="1" dur="0.5s" begin="3.32s" fill="freeze" repeatCount="1" /></path>
  <path d="M499,340L437,582L632,549Z" fill="#ff8700" stroke="#ff8700"><animate attributeType="CSS" attributeName="opacity" from="0" to="1" dur="0.5s" begin="3.34s" fill="freeze" repeatCount="1" /></path>
  <path d="M514,848L454,875L640,1017Z" fill="#ff7301" stroke="#ff7301"><animate attributeType="CSS" attributeName="opacity" from="0" to="1" dur="0.5s" begin="3.36s" fill="freeze" repeatCount="1" /></path>
  <path d="M454,875L368,1040L640,1017Z" fill="#ff6d00" stroke="#ff6d00"><animate attributeType="CSS" attributeName="opacity" from="0" to="1" dur="0.5s" begin="3.38s" fill="freeze" repeatCount="1" /></path>
  <path d="M437,582L571,676L632,549Z" fill="#ff8001" stroke="#ff8001"><animate attributeType="CSS" attributeName="opacity" from="0" to="1" dur="0.5s" begin="3.4s" fill="freeze" repeatCount="1" /></path>
  <path d="M545,-19L370,27L602,189Z" fill="#ff7c00" stroke="#ff7c00"><animate attributeType="CSS" attributeName="opacity" from="0" to="1" dur="0.5s" begin="3.44s" fill="freeze" repeatCount="1" /></path>
  <path d="M404,-163L545,-19L605,-199Z" fill="#ff6a01" stroke="#ff6a01"><animate attributeType="CSS" attributeName="opacity" from="0" to="1" dur="0.5s" begin="3.46s" fill="freeze" repeatCount="1" /></path>
  <path d="M304,264L499,340L602,189Z" fill="#ff7601" stroke="#ff7601"><animate attributeType="CSS" attributeName="opacity" from="0" to="1" dur="0.5s" begin="3.48s" fill="freeze" repeatCount="1" /></path>
  <path d="M370,27L304,264L602,189Z" fill="#ff7800" stroke="#ff7800"><animate attributeType="CSS" attributeName="opacity" from="0" to="1" dur="0.5s" begin="3.50s" fill="freeze" repeatCount="1" /></path>
  <path d="M330,645L514,848L571,676Z" fill="#ff7000" stroke="#ff7000"><animate attributeType="CSS" attributeName="opacity" from="0" to="1" dur="0.5s" begin="3.52s" fill="freeze" repeatCount="1" /></path>
  <path d="M437,582L330,645L571,676Z" fill="#ff8100" stroke="#ff8100"><animate attributeType="CSS" attributeName="opacity" from="0" to="1" dur="0.5s" begin="3.54s" fill="freeze" repeatCount="1" /></path>
  <path d="M330,645L454,875L514,848Z" fill="#ff7400" stroke="#ff7400"><animate attributeType="CSS" attributeName="opacity" from="0" to="1" dur="0.5s" begin="3.56s" fill="freeze" repeatCount="1" /></path>
  <path d="M404,-163L370,27L545,-19Z" fill="#ff7701" stroke="#ff7701"><animate attributeType="CSS" attributeName="opacity" from="0" to="1" dur="0.5s" begin="3.58s" fill="freeze" repeatCount="1" /></path>
  <path d="M304,264L437,582L499,340Z" fill="#ff8700" stroke="#ff8700"><animate attributeType="CSS" attributeName="opacity" from="0" to="1" dur="0.5s" begin="4s" fill="freeze" repeatCount="1" /></path>
  <path d="M304,264L153,423L437,582Z" fill="#ff9000" stroke="#ff9000"><animate attributeType="CSS" attributeName="opacity" from="0" to="1" dur="0.5s" begin="4.02s" fill="freeze" repeatCount="1" /></path>
  <path d="M104,1028L18,1100L368,1040Z" fill="#ff6900" stroke="#ff6900"><animate attributeType="CSS" attributeName="opacity" from="0" to="1" dur="0.5s" begin="4.04s" fill="freeze" repeatCount="1" /></path>
  <path d="M237,106L304,264L370,27Z" fill="#ff8200" stroke="#ff8200"><animate attributeType="CSS" attributeName="opacity" from="0" to="1" dur="0.5s" begin="4.06s" fill="freeze" repeatCount="1" /></path>
  <path d="M153,423L330,645L437,582Z" fill="#ff9100" stroke="#ff9100"><animate attributeType="CSS" attributeName="opacity" from="0" to="1" dur="0.5s" begin="4.08s" fill="freeze" repeatCount="1" /></path>
  <path d="M153,945L368,1040L454,875Z" fill="#ff7d00" stroke="#ff7d00"><animate attributeType="CSS" attributeName="opacity" from="0" to="1" dur="0.5s" begin="4.10s" fill="freeze" repeatCount="1" /></path>
  <path d="M330,645L153,945L454,875Z" fill="#ff8000" stroke="#ff8000"><animate attributeType="CSS" attributeName="opacity" from="0" to="1" dur="0.5s" begin="4.12s" fill="freeze" repeatCount="1" /></path>
  <path d="M105,666L153,945L330,645Z" fill="#ff7000" stroke="#ff7000"><animate attributeType="CSS" attributeName="opacity" from="0" to="1" dur="0.5s" begin="4.14s" fill="freeze" repeatCount="1" /></path>
  <path d="M280,-227L370,27L404,-163Z" fill="#ff7800" stroke="#ff7800"><animate attributeType="CSS" attributeName="opacity" from="0" to="1" dur="0.5s" begin="4.16s" fill="freeze" repeatCount="1" /></path>
  <path d="M237,106L232,227L304,264Z" fill="#ff7700" stroke="#ff7700"><animate attributeType="CSS" attributeName="opacity" from="0" to="1" dur="0.5s" begin="4.18s" fill="freeze" repeatCount="1" /></path>
  <path d="M280,-227L95,-164L370,27Z" fill="#ff7400" stroke="#ff7400"><animate attributeType="CSS" attributeName="opacity" from="0" to="1" dur="0.5s" begin="4.20s" fill="freeze" repeatCount="1" /></path>
  <path d="M95,-164L237,106L370,27Z" fill="#ff7f00" stroke="#ff7f00"><animate attributeType="CSS" attributeName="opacity" from="0" to="1" dur="0.5s" begin="4.22s" fill="freeze" repeatCount="1" /></path>
  <path d="M153,945L104,1028L368,1040Z" fill="#ff6f00" stroke="#ff6f00"><animate attributeType="CSS" attributeName="opacity" from="0" to="1" dur="0.5s" begin="4.24s" fill="freeze" repeatCount="1" /></path>
  <path d="M95,-164L75,58L237,106Z" fill="#ff7900" stroke="#ff7900"><animate attributeType="CSS" attributeName="opacity" from="0" to="1" dur="0.5s" begin="4.26s" fill="freeze" repeatCount="1" /></path>
  <path d="M232,227L153,423L304,264Z" fill="#ff7f01" stroke="#ff7f01"><animate attributeType="CSS" attributeName="opacity" from="0" to="1" dur="0.5s" begin="4.28s" fill="freeze" repeatCount="1" /></path>
  <path d="M153,423L105,666L330,645Z" fill="#ff8800" stroke="#ff8800"><animate attributeType="CSS" attributeName="opacity" from="0" to="1" dur="0.5s" begin="4.30s" fill="freeze" repeatCount="1" /></path>
  <path d="M59,482L105,666L153,423Z" fill="#ff8500" stroke="#ff8500"><animate attributeType="CSS" attributeName="opacity" from="0" to="1" dur="0.5s" begin="4.32s" fill="freeze" repeatCount="1" /></path>
  <path d="M87,-292L95,-164L280,-227Z" fill="#ff6401" stroke="#ff6401"><animate attributeType="CSS" attributeName="opacity" from="0" to="1" dur="0.5s" begin="4.34s" fill="freeze" repeatCount="1" /></path>
  <path d="M105,666L8,742L153,945Z" fill="#ff6c01" stroke="#ff6c01"><animate attributeType="CSS" attributeName="opacity" from="0" to="1" dur="0.5s" begin="4.36s" fill="freeze" repeatCount="1" /></path>
  <path d="M-41,235L153,423L232,227Z" fill="#ff7501" stroke="#ff7501"><animate attributeType="CSS" attributeName="opacity" from="0" to="1" dur="0.5s" begin="4.38s" fill="freeze" repeatCount="1" /></path>
  <path d="M75,58L232,227L237,106Z" fill="#ff7901" stroke="#ff7901"><animate attributeType="CSS" attributeName="opacity" from="0" to="1" dur="0.5s" begin="4.40s" fill="freeze" repeatCount="1" /></path>
  <path d="M75,58L-41,235L232,227Z" fill="#ff6e01" stroke="#ff6e01"><animate attributeType="CSS" attributeName="opacity" from="0" to="1" dur="0.5s" begin="4.42s" fill="freeze" repeatCount="1" /></path>
  <path d="M-23,14L75,58L95,-164Z" fill="#ff7000" stroke="#ff7000"><animate attributeType="CSS" attributeName="opacity" from="0" to="1" dur="0.5s" begin="4.44s" fill="freeze" repeatCount="1" /></path>
  <path d="M-41,235L59,482L153,423Z" fill="#ff7b00" stroke="#ff7b00"><animate attributeType="CSS" attributeName="opacity" from="0" to="1" dur="0.5s" begin="4.46s" fill="freeze" repeatCount="1" /></path>
  <path d="M-3,920L104,1028L153,945Z" fill="#ff6b01" stroke="#ff6b01"><animate attributeType="CSS" attributeName="opacity" from="0" to="1" dur="0.5s" begin="4.48s" fill="freeze" repeatCount="1" /></path>
  <path d="M8,742L-3,920L153,945Z" fill="#ff7301" stroke="#ff7301"><animate attributeType="CSS" attributeName="opacity" from="0" to="1" dur="0.5s" begin="4.50s" fill="freeze" repeatCount="1" /></path>
  <path d="M-41,235L-124,306L59,482Z" fill="#ff7101" stroke="#ff7101"><animate attributeType="CSS" attributeName="opacity" from="0" to="1" dur="0.5s" begin="4.52s" fill="freeze" repeatCount="1" /></path>
  <path d="M87,-292L-81,-294L95,-164Z" fill="#ff5a01" stroke="#ff5a01"><animate attributeType="CSS" attributeName="opacity" from="0" to="1" dur="0.5s" begin="4.54s" fill="freeze" repeatCount="1" /></path>
  <path d="M-113,-56L-23,14L95,-164Z" fill="#ff6801" stroke="#ff6801"><animate attributeType="CSS" attributeName="opacity" from="0" to="1" dur="0.5s" begin="4.55s" fill="freeze" repeatCount="1" /></path>
  <path d="M-3,920L18,1100L104,1028Z" fill="#ff6100" stroke="#ff6100"><animate attributeType="CSS" attributeName="opacity" from="0" to="1" dur="0.5s" begin="4.56s" fill="freeze" repeatCount="1" /></path>
  <path d="M59,482L8,742L105,666Z" fill="#ff7901" stroke="#ff7901"><animate attributeType="CSS" attributeName="opacity" from="0" to="1" dur="0.5s" begin="4.57s" fill="freeze" repeatCount="1" /></path>
  <path d="M-239,646L8,742L59,482Z" fill="#ff7400" stroke="#ff7400"><animate attributeType="CSS" attributeName="opacity" from="0" to="1" dur="0.5s" begin="4.58s" fill="freeze" repeatCount="1" /></path>
  <path d="M-23,14L-41,235L75,58Z" fill="#ff7100" stroke="#ff7100"><animate attributeType="CSS" attributeName="opacity" from="0" to="1" dur="0.5s" begin="4.6s" fill="freeze" repeatCount="1" /></path>
  <path d="M-81,-294L-129,-226L95,-164Z" fill="#ff5701" stroke="#ff5701"><animate attributeType="CSS" attributeName="opacity" from="0" to="1" dur="0.5s" begin="4.62s" fill="freeze" repeatCount="1" /></path>
  <path d="M-129,-226L-113,-56L95,-164Z" fill="#ff5e01" stroke="#ff5e01"><animate attributeType="CSS" attributeName="opacity" from="0" to="1" dur="0.5s" begin="4.64s" fill="freeze" repeatCount="1" /></path>
  <path d="M-124,306L-282,406L59,482Z" fill="#ff7400" stroke="#ff7400"><animate attributeType="CSS" attributeName="opacity" from="0" to="1" dur="0.5s" begin="4.66s" fill="freeze" repeatCount="1" /></path>
  <path d="M-282,406L-239,646L59,482Z" fill="#ff7900" stroke="#ff7900"><animate attributeType="CSS" attributeName="opacity" from="0" to="1" dur="0.5s" begin="4.68s" fill="freeze" repeatCount="1" /></path>
  <path d="M-232,29L-41,235L-23,14Z" fill="#ff6c00" stroke="#ff6c00"><animate attributeType="CSS" attributeName="opacity" from="0" to="1" dur="0.5s" begin="4.70s" fill="freeze" repeatCount="1" /></path>
  <path d="M-196,926L-3,920L8,742Z" fill="#ff6c01" stroke="#ff6c01"><animate attributeType="CSS" attributeName="opacity" from="0" to="1" dur="0.5s" begin="4.71s" fill="freeze" repeatCount="1" /></path>
  <path d="M-3,920L-169,1072L18,1100Z" fill="#ff5a01" stroke="#ff5a01"><animate attributeType="CSS" attributeName="opacity" from="0" to="1" dur="0.5s" begin="4.72s" fill="freeze" repeatCount="1" /></path>
  <path d="M-196,926L-169,1072L-3,920Z" fill="#ff5d00" stroke="#ff5d00"><animate attributeType="CSS" attributeName="opacity" from="0" to="1" dur="0.5s" begin="4.74s" fill="freeze" repeatCount="1" /></path>
  <path d="M-239,646L-196,926L8,742Z" fill="#ff5c00" stroke="#ff5c00"><animate attributeType="CSS" attributeName="opacity" from="0" to="1" dur="0.5s" begin="4.75s" fill="freeze" repeatCount="1" /></path>
  <path d="M-113,-56L-232,29L-23,14Z" fill="#ff6900" stroke="#ff6900"><animate attributeType="CSS" attributeName="opacity" from="0" to="1" dur="0.5s" begin="4.76s" fill="freeze" repeatCount="1" /></path>
  <path d="M-232,29L-124,306L-41,235Z" fill="#ff5e01" stroke="#ff5e01"><animate attributeType="CSS" attributeName="opacity" from="0" to="1" dur="0.5s" begin="4.78s" fill="freeze" repeatCount="1" /></path>
  <path d="M-239,646L-282,406L-196,926Z" fill="#ff6600" stroke="#ff6600"><animate attributeType="CSS" attributeName="opacity" from="0" to="1" dur="0.5s" begin="4.80s" fill="freeze" repeatCount="1" /></path>
  <path d="M-232,29L-282,406L-124,306Z" fill="#ff6000" stroke="#ff6000"><animate attributeType="CSS" attributeName="opacity" from="0" to="1" dur="0.5s" begin="4.82s" fill="freeze" repeatCount="1" /></path>
  <path d="M-129,-226L-232,29L-113,-56Z" fill="#ff5f01" stroke="#ff5f01"><animate attributeType="CSS" attributeName="opacity" from="0" to="1" dur="0.5s" begin="4.83s" fill="freeze" repeatCount="1" /></path>
</svg>
