<svg xmlns="http://www.w3.org/2000/svg" width="1680" height="800"><path d="M709,1094L524,1096L1100,1106Z" fill="#ff7400" stroke="#ff7400" stroke-width="1.51"/><path d="M1032,-260L1195,-244L1550,-303Z" fill="#ff6200" stroke="#ff6200" stroke-width="1.51"/><path d="M705,-305L1032,-260L1550,-303Z" fill="#ff7100" stroke="#ff7100" stroke-width="1.51"/><path d="M1787,-146L1780,158L1879,149Z" fill="#ff7200" stroke="#ff7200" stroke-width="1.51"/><path d="M1812,553L1891,677L1894,471Z" fill="#ff7a00" stroke="#ff7a00" stroke-width="1.51"/><path d="M1891,677L1753,748L1896,931Z" fill="#ff6600" stroke="#ff6600" stroke-width="1.51"/><path d="M1787,-146L1879,149L1928,-152Z" fill="#ff6600" stroke="#ff6600" stroke-width="1.51"/><path d="M1879,149L1889,309L1928,-152Z" fill="#ff7100" stroke="#ff7100" stroke-width="1.51"/><path d="M1889,309L1894,471L1928,-152Z" fill="#ff6400" stroke="#ff6400" stroke-width="1.51"/><path d="M1891,677L1896,931L1933,1004Z" fill="#ff6e00" stroke="#ff6e00" stroke-width="1.51"/><path d="M1894,471L1891,677L1933,1004Z" fill="#ff6200" stroke="#ff6200" stroke-width="1.51"/><path d="M1550,-303L1723,-288L1955,-295Z" fill="#ff5000" stroke="#ff5000" stroke-width="1.51"/><path d="M1787,-146L1928,-152L1955,-295Z" fill="#ff5700" stroke="#ff5700" stroke-width="1.51"/><path d="M1723,-288L1787,-146L1955,-295Z" fill="#ff5300" stroke="#ff5300" stroke-width="1.51"/><path d="M1894,471L1933,1004L1955,-295Z" fill="#ff7900" stroke="#ff7900" stroke-width="1.51"/><path d="M1928,-152L1894,471L1955,-295Z" fill="#ff6d00" stroke="#ff6d00" stroke-width="1.51"/><path d="M1637,18L1780,158L1787,-146Z" fill="#ff6f00" stroke="#ff6f00" stroke-width="1.51"/><path d="M1753,748L1720,833L1896,931Z" fill="#ff6c00" stroke="#ff6c00" stroke-width="1.51"/><path d="M1896,931L1674,1111L1933,1004Z" fill="#ff5b00" stroke="#ff5b00" stroke-width="1.51"/><path d="M1879,149L1780,158L1889,309Z" fill="#ff6300" stroke="#ff6300" stroke-width="1.51"/><path d="M1657,268L1660,468L1889,309Z" fill="#ff7400" stroke="#ff7400" stroke-width="1.51"/><path d="M1812,553L1773,579L1891,677Z" fill="#ff7700" stroke="#ff7700" stroke-width="1.51"/><path d="M1889,309L1660,468L1894,471Z" fill="#ff7b00" stroke="#ff7b00" stroke-width="1.51"/><path d="M1660,468L1812,553L1894,471Z" fill="#ff7f00" stroke="#ff7f00" stroke-width="1.51"/><path d="M1720,833L1674,1111L1896,931Z" fill="#ff5f00" stroke="#ff5f00" stroke-width="1.51"/><path d="M1780,158L1657,268L1889,309Z" fill="#ff6700" stroke="#ff6700" stroke-width="1.51"/><path d="M1773,579L1753,748L1891,677Z" fill="#ff6b00" stroke="#ff6b00" stroke-width="1.51"/><path d="M1410,1008L1173,1059L1674,1111Z" fill="#ff6500" stroke="#ff6500" stroke-width="1.51"/><path d="M1173,1059L1100,1106L1674,1111Z" fill="#ff6400" stroke="#ff6400" stroke-width="1.51"/><path d="M1607,895L1674,1111L1720,833Z" fill="#ff6b00" stroke="#ff6b00" stroke-width="1.51"/><path d="M1613,-140L1637,18L1787,-146Z" fill="#ff6901" stroke="#ff6901" stroke-width="1.51"/><path d="M1660,468L1773,579L1812,553Z" fill="#ff7d00" stroke="#ff7d00" stroke-width="1.51"/><path d="M1524,679L1753,748L1773,579Z" fill="#ff7100" stroke="#ff7100" stroke-width="1.51"/><path d="M1560,545L1524,679L1773,579Z" fill="#ff8300" stroke="#ff8300" stroke-width="1.51"/><path d="M1723,-288L1613,-140L1787,-146Z" fill="#ff5c00" stroke="#ff5c00" stroke-width="1.51"/><path d="M1556,172L1657,268L1780,158Z" fill="#ff6d01" stroke="#ff6d01" stroke-width="1.51"/><path d="M1637,18L1556,172L1780,158Z" fill="#ff7800" stroke="#ff7800" stroke-width="1.51"/><path d="M1660,468L1560,545L1773,579Z" fill="#ff8400" stroke="#ff8400" stroke-width="1.51"/><path d="M1524,679L1720,833L1753,748Z" fill="#ff6c00" stroke="#ff6c00" stroke-width="1.51"/><path d="M1657,268L1508,393L1660,468Z" fill="#ff8300" stroke="#ff8300" stroke-width="1.51"/><path d="M1607,895L1494,982L1674,1111Z" fill="#ff6b00" stroke="#ff6b00" stroke-width="1.51"/><path d="M1524,679L1607,895L1720,833Z" fill="#ff7600" stroke="#ff7600" stroke-width="1.51"/><path d="M1550,-303L1613,-140L1723,-288Z" fill="#ff6100" stroke="#ff6100" stroke-width="1.51"/><path d="M1494,982L1410,1008L1674,1111Z" fill="#ff6d00" stroke="#ff6d00" stroke-width="1.51"/><path d="M1524,679L1430,815L1607,895Z" fill="#ff7900" stroke="#ff7900" stroke-width="1.51"/><path d="M1508,393L1560,545L1660,468Z" fill="#ff9000" stroke="#ff9000" stroke-width="1.51"/><path d="M1556,172L1508,393L1657,268Z" fill="#ff7b01" stroke="#ff7b01" stroke-width="1.51"/><path d="M1366,125L1556,172L1637,18Z" fill="#ff8100" stroke="#ff8100" stroke-width="1.51"/><path d="M1613,-140L1375,-163L1637,18Z" fill="#ff7401" stroke="#ff7401" stroke-width="1.51"/><path d="M1375,-163L1366,125L1637,18Z" fill="#ff7700" stroke="#ff7700" stroke-width="1.51"/><path d="M1301,-87L1366,125L1375,-163Z" fill="#ff6b00" stroke="#ff6b00" stroke-width="1.51"/><path d="M1550,-303L1375,-163L1613,-140Z" fill="#ff6801" stroke="#ff6801" stroke-width="1.51"/><path d="M1430,815L1494,982L1607,895Z" fill="#ff7a00" stroke="#ff7a00" stroke-width="1.51"/><path d="M1343,207L1342,326L1508,393Z" fill="#ff7500" stroke="#ff7500" stroke-width="1.51"/><path d="M1343,207L1508,393L1556,172Z" fill="#ff7601" stroke="#ff7601" stroke-width="1.51"/><path d="M1508,393L1345,499L1560,545Z" fill="#ff8c00" stroke="#ff8c00" stroke-width="1.51"/><path d="M1382,693L1524,679L1560,545Z" fill="#ff7e00" stroke="#ff7e00" stroke-width="1.51"/><path d="M1345,499L1382,693L1560,545Z" fill="#ff8200" stroke="#ff8200" stroke-width="1.51"/><path d="M1195,-244L1375,-163L1550,-303Z" fill="#ff5a00" stroke="#ff5a00" stroke-width="1.51"/><path d="M1366,125L1343,207L1556,172Z" fill="#ff7200" stroke="#ff7200" stroke-width="1.51"/><path d="M1382,693L1430,815L1524,679Z" fill="#ff6b00" stroke="#ff6b00" stroke-width="1.51"/><path d="M1430,815L1410,1008L1494,982Z" fill="#ff6f00" stroke="#ff6f00" stroke-width="1.51"/><path d="M1342,326L1345,499L1508,393Z" fill="#ff8000" stroke="#ff8000" stroke-width="1.51"/><path d="M1318,245L1342,326L1343,207Z" fill="#ff6e00" stroke="#ff6e00" stroke-width="1.51"/><path d="M1301,-87L1257,43L1366,125Z" fill="#ff7700" stroke="#ff7700" stroke-width="1.51"/><path d="M1327,-137L1301,-87L1375,-163Z" fill="#ff6400" stroke="#ff6400" stroke-width="1.51"/><path d="M1345,499L1248,643L1382,693Z" fill="#ff7b00" stroke="#ff7b00" stroke-width="1.51"/><path d="M1178,846L1410,1008L1430,815Z" fill="#ff6f00" stroke="#ff6f00" stroke-width="1.51"/><path d="M1382,693L1178,846L1430,815Z" fill="#ff6d00" stroke="#ff6d00" stroke-width="1.51"/><path d="M1178,846L1173,1059L1410,1008Z" fill="#ff6e00" stroke="#ff6e00" stroke-width="1.51"/><path d="M1146,753L1178,846L1248,643Z" fill="#ff7900" stroke="#ff7900" stroke-width="1.51"/><path d="M1342,326L1195,452L1345,499Z" fill="#ff8600" stroke="#ff8600" stroke-width="1.51"/><path d="M1218,535L1248,643L1345,499Z" fill="#ff8600" stroke="#ff8600" stroke-width="1.51"/><path d="M1195,-244L1327,-137L1375,-163Z" fill="#ff6300" stroke="#ff6300" stroke-width="1.51"/><path d="M1248,643L1178,846L1382,693Z" fill="#ff6d00" stroke="#ff6d00" stroke-width="1.51"/><path d="M1257,43L1343,207L1366,125Z" fill="#ff7500" stroke="#ff7500" stroke-width="1.51"/><path d="M1257,43L1318,245L1343,207Z" fill="#ff7200" stroke="#ff7200" stroke-width="1.51"/><path d="M1195,452L1218,535L1345,499Z" fill="#ff8d00" stroke="#ff8d00" stroke-width="1.51"/><path d="M1318,245L1195,452L1342,326Z" fill="#ff7c00" stroke="#ff7c00" stroke-width="1.51"/><path d="M1257,43L1085,242L1318,245Z" fill="#ff7a00" stroke="#ff7a00" stroke-width="1.51"/><path d="M1085,242L1195,452L1318,245Z" fill="#ff8200" stroke="#ff8200" stroke-width="1.51"/><path d="M1195,-244L1301,-87L1327,-137Z" fill="#ff6800" stroke="#ff6800" stroke-width="1.51"/><path d="M1067,91L1085,242L1257,43Z" fill="#ff8900" stroke="#ff8900" stroke-width="1.51"/><path d="M1136,-40L1257,43L1301,-87Z" fill="#ff7a00" stroke="#ff7a00" stroke-width="1.51"/><path d="M1195,-244L1136,-40L1301,-87Z" fill="#ff7300" stroke="#ff7300" stroke-width="1.51"/><path d="M705,-305L905,-239L1032,-260Z" fill="#ff7500" stroke="#ff7500" stroke-width="1.51"/><path d="M1136,-40L1067,91L1257,43Z" fill="#ff8900" stroke="#ff8900" stroke-width="1.51"/><path d="M1218,535L1079,512L1248,643Z" fill="#ff8f00" stroke="#ff8f00" stroke-width="1.51"/><path d="M1079,512L1146,753L1248,643Z" fill="#ff8900" stroke="#ff8900" stroke-width="1.51"/><path d="M1121,835L1173,1059L1178,846Z" fill="#ff8100" stroke="#ff8100" stroke-width="1.51"/><path d="M1085,242L1025,474L1195,452Z" fill="#ff9300" stroke="#ff9300" stroke-width="1.51"/><path d="M1032,-260L1136,-40L1195,-244Z" fill="#ff7600" stroke="#ff7600" stroke-width="1.51"/><path d="M1195,452L1079,512L1218,535Z" fill="#ff9600" stroke="#ff9600" stroke-width="1.51"/><path d="M1121,835L1100,1106L1173,1059Z" fill="#ff7800" stroke="#ff7800" stroke-width="1.51"/><path d="M1146,753L1121,835L1178,846Z" fill="#ff8400" stroke="#ff8400" stroke-width="1.51"/><path d="M1025,474L1079,512L1195,452Z" fill="#ff9b00" stroke="#ff9b00" stroke-width="1.51"/><path d="M876,994L1100,1106L1121,835Z" fill="#ff7f00" stroke="#ff7f00" stroke-width="1.51"/><path d="M974,815L876,994L1121,835Z" fill="#ff8d00" stroke="#ff8d00" stroke-width="1.51"/><path d="M1032,-260L958,-85L1136,-40Z" fill="#ff7f00" stroke="#ff7f00" stroke-width="1.51"/><path d="M864,599L974,815L1079,512Z" fill="#ff9100" stroke="#ff9100" stroke-width="1.51"/><path d="M1079,512L974,815L1146,753Z" fill="#ff8500" stroke="#ff8500" stroke-width="1.51"/><path d="M974,815L1121,835L1146,753Z" fill="#ff8700" stroke="#ff8700" stroke-width="1.51"/><path d="M958,-85L1067,91L1136,-40Z" fill="#ff8901" stroke="#ff8901" stroke-width="1.51"/><path d="M851,333L1025,474L1085,242Z" fill="#ff9200" stroke="#ff9200" stroke-width="1.51"/><path d="M876,994L709,1094L1100,1106Z" fill="#ff7e00" stroke="#ff7e00" stroke-width="1.51"/><path d="M958,-85L902,3L1067,91Z" fill="#ff8e00" stroke="#ff8e00" stroke-width="1.51"/><path d="M1025,474L864,599L1079,512Z" fill="#ff9c00" stroke="#ff9c00" stroke-width="1.51"/><path d="M1067,91L857,181L1085,242Z" fill="#ff8900" stroke="#ff8900" stroke-width="1.51"/><path d="M857,181L851,333L1085,242Z" fill="#ff8b00" stroke="#ff8b00" stroke-width="1.51"/><path d="M864,599L841,748L974,815Z" fill="#ff8200" stroke="#ff8200" stroke-width="1.51"/><path d="M905,-239L958,-85L1032,-260Z" fill="#ff7d00" stroke="#ff7d00" stroke-width="1.51"/><path d="M902,3L857,181L1067,91Z" fill="#ff9500" stroke="#ff9500" stroke-width="1.51"/><path d="M851,333L825,394L1025,474Z" fill="#ff9700" stroke="#ff9700" stroke-width="1.51"/><path d="M825,394L864,599L1025,474Z" fill="#ff9e00" stroke="#ff9e00" stroke-width="1.51"/><path d="M841,748L876,994L974,815Z" fill="#ff8e00" stroke="#ff8e00" stroke-width="1.51"/><path d="M841,748L735,809L876,994Z" fill="#ff8800" stroke="#ff8800" stroke-width="1.51"/><path d="M905,-239L753,-103L958,-85Z" fill="#ff7c00" stroke="#ff7c00" stroke-width="1.51"/><path d="M753,-103L902,3L958,-85Z" fill="#ff8300" stroke="#ff8300" stroke-width="1.51"/><path d="M750,276L851,333L857,181Z" fill="#ff8300" stroke="#ff8300" stroke-width="1.51"/><path d="M825,394L694,505L864,599Z" fill="#ff9500" stroke="#ff9500" stroke-width="1.51"/><path d="M758,107L857,181L902,3Z" fill="#ff8c00" stroke="#ff8c00" stroke-width="1.51"/><path d="M670,-235L753,-103L905,-239Z" fill="#ff7000" stroke="#ff7000" stroke-width="1.51"/><path d="M705,-305L670,-235L905,-239Z" fill="#ff6a00" stroke="#ff6a00" stroke-width="1.51"/><path d="M753,-103L758,107L902,3Z" fill="#ff8500" stroke="#ff8500" stroke-width="1.51"/><path d="M720,663L841,748L864,599Z" fill="#ff8300" stroke="#ff8300" stroke-width="1.51"/><path d="M735,809L709,1094L876,994Z" fill="#ff7600" stroke="#ff7600" stroke-width="1.51"/><path d="M694,505L720,663L864,599Z" fill="#ff8c01" stroke="#ff8c01" stroke-width="1.51"/><path d="M758,107L750,276L857,181Z" fill="#ff7d01" stroke="#ff7d01" stroke-width="1.51"/><path d="M596,868L709,1094L735,809Z" fill="#ff7600" stroke="#ff7600" stroke-width="1.51"/><path d="M750,276L825,394L851,333Z" fill="#ff8800" stroke="#ff8800" stroke-width="1.51"/><path d="M753,-103L645,49L758,107Z" fill="#ff8000" stroke="#ff8000" stroke-width="1.51"/><path d="M720,663L735,809L841,748Z" fill="#ff7700" stroke="#ff7700" stroke-width="1.51"/><path d="M750,276L694,505L825,394Z" fill="#ff8b00" stroke="#ff8b00" stroke-width="1.51"/><path d="M228,-275L505,-195L705,-305Z" fill="#ff6000" stroke="#ff6000" stroke-width="1.51"/><path d="M596,868L512,994L709,1094Z" fill="#ff6700" stroke="#ff6700" stroke-width="1.51"/><path d="M694,505L595,584L720,663Z" fill="#ff8701" stroke="#ff8701" stroke-width="1.51"/><path d="M555,409L694,505L750,276Z" fill="#ff8600" stroke="#ff8600" stroke-width="1.51"/><path d="M670,-235L651,-117L753,-103Z" fill="#ff6d01" stroke="#ff6d01" stroke-width="1.51"/><path d="M651,-117L645,49L753,-103Z" fill="#ff7501" stroke="#ff7501" stroke-width="1.51"/><path d="M548,203L750,276L758,107Z" fill="#ff7501" stroke="#ff7501" stroke-width="1.51"/><path d="M645,49L548,203L758,107Z" fill="#ff7c00" stroke="#ff7c00" stroke-width="1.51"/><path d="M548,203L555,409L750,276Z" fill="#ff7801" stroke="#ff7801" stroke-width="1.51"/><path d="M720,663L558,646L735,809Z" fill="#ff7300" stroke="#ff7300" stroke-width="1.51"/><path d="M558,646L596,868L735,809Z" fill="#ff7300" stroke="#ff7300" stroke-width="1.51"/><path d="M512,994L524,1096L709,1094Z" fill="#ff6700" stroke="#ff6700" stroke-width="1.51"/><path d="M595,584L558,646L720,663Z" fill="#ff7e00" stroke="#ff7e00" stroke-width="1.51"/><path d="M505,-195L670,-235L705,-305Z" fill="#ff6200" stroke="#ff6200" stroke-width="1.51"/><path d="M555,409L595,584L694,505Z" fill="#ff8a00" stroke="#ff8a00" stroke-width="1.51"/><path d="M555,409L504,519L595,584Z" fill="#ff8600" stroke="#ff8600" stroke-width="1.51"/><path d="M558,646L483,824L596,868Z" fill="#ff6e01" stroke="#ff6e01" stroke-width="1.51"/><path d="M454,-88L645,49L651,-117Z" fill="#ff7001" stroke="#ff7001" stroke-width="1.51"/><path d="M505,-195L651,-117L670,-235Z" fill="#ff6501" stroke="#ff6501" stroke-width="1.51"/><path d="M511,200L548,203L645,49Z" fill="#ff7400" stroke="#ff7400" stroke-width="1.51"/><path d="M505,-195L454,-88L651,-117Z" fill="#ff6501" stroke="#ff6501" stroke-width="1.51"/><path d="M405,57L511,200L645,49Z" fill="#ff7900" stroke="#ff7900" stroke-width="1.51"/><path d="M454,-88L405,57L645,49Z" fill="#ff7700" stroke="#ff7700" stroke-width="1.51"/><path d="M548,203L511,200L555,409Z" fill="#ff7101" stroke="#ff7101" stroke-width="1.51"/><path d="M511,200L394,357L555,409Z" fill="#ff7a01" stroke="#ff7a01" stroke-width="1.51"/><path d="M419,738L483,824L558,646Z" fill="#ff6c00" stroke="#ff6c00" stroke-width="1.51"/><path d="M483,824L512,994L596,868Z" fill="#ff7200" stroke="#ff7200" stroke-width="1.51"/><path d="M504,519L558,646L595,584Z" fill="#ff8101" stroke="#ff8101" stroke-width="1.51"/><path d="M504,519L322,615L558,646Z" fill="#ff8400" stroke="#ff8400" stroke-width="1.51"/><path d="M322,615L419,738L558,646Z" fill="#ff7b00" stroke="#ff7b00" stroke-width="1.51"/><path d="M394,357L504,519L555,409Z" fill="#ff8700" stroke="#ff8700" stroke-width="1.51"/><path d="M355,240L394,357L511,200Z" fill="#ff7a00" stroke="#ff7a00" stroke-width="1.51"/><path d="M483,824L320,942L512,994Z" fill="#ff7600" stroke="#ff7600" stroke-width="1.51"/><path d="M512,994L320,942L524,1096Z" fill="#ff6a00" stroke="#ff6a00" stroke-width="1.51"/><path d="M320,942L233,1070L524,1096Z" fill="#ff7200" stroke="#ff7200" stroke-width="1.51"/><path d="M-136,-207L172,-247L228,-275Z" fill="#ff5b00" stroke="#ff5b00" stroke-width="1.51"/><path d="M405,57L355,240L511,200Z" fill="#ff7900" stroke="#ff7900" stroke-width="1.51"/><path d="M394,357L322,615L504,519Z" fill="#ff8f00" stroke="#ff8f00" stroke-width="1.51"/><path d="M228,-275L454,-88L505,-195Z" fill="#ff6c00" stroke="#ff6c00" stroke-width="1.51"/><path d="M283,379L322,615L394,357Z" fill="#ff9500" stroke="#ff9500" stroke-width="1.51"/><path d="M341,-7L405,57L454,-88Z" fill="#ff7d00" stroke="#ff7d00" stroke-width="1.51"/><path d="M419,738L320,942L483,824Z" fill="#ff7f01" stroke="#ff7f01" stroke-width="1.51"/><path d="M228,-275L168,-146L341,-7Z" fill="#ff6f00" stroke="#ff6f00" stroke-width="1.51"/><path d="M272,767L320,942L419,738Z" fill="#ff8100" stroke="#ff8100" stroke-width="1.51"/><path d="M228,-275L341,-7L454,-88Z" fill="#ff7700" stroke="#ff7700" stroke-width="1.51"/><path d="M250,46L355,240L405,57Z" fill="#ff8600" stroke="#ff8600" stroke-width="1.51"/><path d="M322,615L272,767L419,738Z" fill="#ff7b00" stroke="#ff7b00" stroke-width="1.51"/><path d="M355,240L283,379L394,357Z" fill="#ff8500" stroke="#ff8500" stroke-width="1.51"/><path d="M341,-7L250,46L405,57Z" fill="#ff8700" stroke="#ff8700" stroke-width="1.51"/><path d="M-108,965L-256,1016L233,1070Z" fill="#ff5a01" stroke="#ff5a01" stroke-width="1.51"/><path d="M283,379L101,459L322,615Z" fill="#ff8f00" stroke="#ff8f00" stroke-width="1.51"/><path d="M168,-146L250,46L341,-7Z" fill="#ff7a00" stroke="#ff7a00" stroke-width="1.51"/><path d="M61,224L283,379L355,240Z" fill="#ff7c01" stroke="#ff7c01" stroke-width="1.51"/><path d="M250,46L61,224L355,240Z" fill="#ff7800" stroke="#ff7800" stroke-width="1.51"/><path d="M272,767L153,805L320,942Z" fill="#ff7f01" stroke="#ff7f01" stroke-width="1.51"/><path d="M124,966L233,1070L320,942Z" fill="#ff6c00" stroke="#ff6c00" stroke-width="1.51"/><path d="M153,805L124,966L320,942Z" fill="#ff7700" stroke="#ff7700" stroke-width="1.51"/><path d="M48,752L153,805L322,615Z" fill="#ff6d00" stroke="#ff6d00" stroke-width="1.51"/><path d="M60,529L48,752L322,615Z" fill="#ff7b00" stroke="#ff7b00" stroke-width="1.51"/><path d="M153,805L272,767L322,615Z" fill="#ff7200" stroke="#ff7200" stroke-width="1.51"/><path d="M101,459L60,529L322,615Z" fill="#ff8700" stroke="#ff8700" stroke-width="1.51"/><path d="M172,-247L168,-146L228,-275Z" fill="#ff6401" stroke="#ff6401" stroke-width="1.51"/><path d="M102,19L61,224L250,46Z" fill="#ff7b00" stroke="#ff7b00" stroke-width="1.51"/><path d="M168,-146L102,19L250,46Z" fill="#ff7501" stroke="#ff7501" stroke-width="1.51"/><path d="M61,224L101,459L283,379Z" fill="#ff7c01" stroke="#ff7c01" stroke-width="1.51"/><path d="M124,966L-108,965L233,1070Z" fill="#ff6200" stroke="#ff6200" stroke-width="1.51"/><path d="M-30,597L48,752L60,529Z" fill="#ff7500" stroke="#ff7500" stroke-width="1.51"/><path d="M61,224L23,229L101,459Z" fill="#ff7201" stroke="#ff7201" stroke-width="1.51"/><path d="M48,752L124,966L153,805Z" fill="#ff7501" stroke="#ff7501" stroke-width="1.51"/><path d="M36,-128L102,19L168,-146Z" fill="#ff6a01" stroke="#ff6a01" stroke-width="1.51"/><path d="M36,-128L168,-146L172,-247Z" fill="#ff6301" stroke="#ff6301" stroke-width="1.51"/><path d="M-47,-165L36,-128L172,-247Z" fill="#ff5d01" stroke="#ff5d01" stroke-width="1.51"/><path d="M-136,-207L-47,-165L172,-247Z" fill="#ff5701" stroke="#ff5701" stroke-width="1.51"/><path d="M23,229L-21,448L101,459Z" fill="#ff7901" stroke="#ff7901" stroke-width="1.51"/><path d="M-13,749L-114,857L48,752Z" fill="#ff6600" stroke="#ff6600" stroke-width="1.51"/><path d="M23,229L61,224L102,19Z" fill="#ff6f00" stroke="#ff6f00" stroke-width="1.51"/><path d="M-62,21L23,229L102,19Z" fill="#ff7500" stroke="#ff7500" stroke-width="1.51"/><path d="M48,752L-114,857L124,966Z" fill="#ff7201" stroke="#ff7201" stroke-width="1.51"/><path d="M-114,857L-108,965L124,966Z" fill="#ff6300" stroke="#ff6300" stroke-width="1.51"/><path d="M-30,597L-13,749L48,752Z" fill="#ff6600" stroke="#ff6600" stroke-width="1.51"/><path d="M36,-128L-62,21L102,19Z" fill="#ff6b01" stroke="#ff6b01" stroke-width="1.51"/><path d="M-21,448L60,529L101,459Z" fill="#ff8400" stroke="#ff8400" stroke-width="1.51"/><path d="M-132,241L-21,448L23,229Z" fill="#ff6c01" stroke="#ff6c01" stroke-width="1.51"/><path d="M-123,-64L-62,21L36,-128Z" fill="#ff6301" stroke="#ff6301" stroke-width="1.51"/><path d="M-21,448L-30,597L60,529Z" fill="#ff7e00" stroke="#ff7e00" stroke-width="1.51"/><path d="M-62,21L-132,241L23,229Z" fill="#ff6601" stroke="#ff6601" stroke-width="1.51"/><path d="M-47,-165L-123,-64L36,-128Z" fill="#ff5d01" stroke="#ff5d01" stroke-width="1.51"/><path d="M-132,241L-265,325L-21,448Z" fill="#ff6a00" stroke="#ff6a00" stroke-width="1.51"/><path d="M-229,527L-30,597L-21,448Z" fill="#ff7900" stroke="#ff7900" stroke-width="1.51"/><path d="M-30,597L-193,763L-13,749Z" fill="#ff6000" stroke="#ff6000" stroke-width="1.51"/><path d="M-193,763L-114,857L-13,749Z" fill="#ff6200" stroke="#ff6200" stroke-width="1.51"/><path d="M-265,325L-229,527L-21,448Z" fill="#ff7600" stroke="#ff7600" stroke-width="1.51"/><path d="M-223,7L-132,241L-62,21Z" fill="#ff6d00" stroke="#ff6d00" stroke-width="1.51"/><path d="M-229,527L-193,763L-30,597Z" fill="#ff6c00" stroke="#ff6c00" stroke-width="1.51"/><path d="M-136,-207L-123,-64L-47,-165Z" fill="#ff5701" stroke="#ff5701" stroke-width="1.51"/><path d="M-123,-64L-223,7L-62,21Z" fill="#ff6501" stroke="#ff6501" stroke-width="1.51"/><path d="M-193,763L-170,886L-114,857Z" fill="#ff6601" stroke="#ff6601" stroke-width="1.51"/><path d="M-114,857L-170,886L-108,965Z" fill="#ff6300" stroke="#ff6300" stroke-width="1.51"/><path d="M-170,886L-256,1016L-108,965Z" fill="#ff5800" stroke="#ff5800" stroke-width="1.51"/><path d="M-223,7L-265,325L-132,241Z" fill="#ff5c00" stroke="#ff5c00" stroke-width="1.51"/><path d="M-136,-207L-223,7L-123,-64Z" fill="#ff5a00" stroke="#ff5a00" stroke-width="1.51"/><path d="M-193,763L-256,1016L-170,886Z" fill="#ff6300" stroke="#ff6300" stroke-width="1.51"/><path d="M-229,527L-256,1016L-193,763Z" fill="#ff5a00" stroke="#ff5a00" stroke-width="1.51"/><path d="M-265,325L-256,1016L-229,527Z" fill="#ff6900" stroke="#ff6900" stroke-width="1.51"/></svg>