<?xml version="1.0" encoding="utf-8"?>
<!-- Generator: Adobe Illustrator 19.0.0, SVG Export Plug-In . SVG Version: 6.00 Build 0)  -->
<svg version="1.1" id="Layer_1" xmlns="http://www.w3.org/2000/svg" xmlns:xlink="http://www.w3.org/1999/xlink" x="0px" y="0px"
	 viewBox="-147 378.9 301 85" style="enable-background:new -147 378.9 301 85;" xml:space="preserve">
<style type="text/css">
	.st0{fill:#FF7308;}
	.st1{fill:#898A8D;}
	.st2{fill:#A0A1A3;}
	.st3{fill:#8D8E91;}
	.st4{fill:#6C6E70;}
	.st5{fill:#FF7308;}
	.st6{fill:#FFA64A;}
	.st7{fill:#A0A0A0;}
	.st8{fill:#FF8A22;}
	.st9{fill:#FF7C00;}
	.st10{fill:#FFAB30;}
	.st11{fill:#FF521E;}
	.st12{fill:#FF7729;}
	.st13{fill:#FB470E;}
	.st14{fill:#FF8A2C;}
	.st15{fill:#FF782A;}
	.st16{fill:#FB3C12;}
	.st17{fill:#FFA428;}
	.st18{fill:#FB7100;}
	.st19{fill:#808183;}
	.st20{fill:#FC7800;}
	.st21{fill:#FF591D;}
	.st22{fill:#FD4114;}
	.st23{fill:#FFAF32;}
	.st24{fill:#FF911B;}
	.st25{fill:#FF9922;}
	.st26{fill:#FF991A;}
	.st27{fill:#9C9EA0;}
	.st28{fill:#FF9F20;}
	.st29{fill:#B9B9BA;}
	.st30{fill:#FF9528;}
	.st31{fill:#FF991C;}
	.st32{fill:#FF7B0A;}
	.st33{fill:#FF7A23;}
	.st34{fill:#6E6F72;}
	.st35{fill:#FE4117;}
	.st36{fill:#FF992D;}
	.st37{fill:#FF8C28;}
	.st38{fill:#FF9311;}
	.st39{fill:#FF9A18;}
	.st40{fill:#FB3F11;}
	.st41{fill:#FF8213;}
	.st42{fill:#FF7207;}
	.st43{fill:#B9BABA;}
	.st44{fill:#FFAE5F;}
	.st45{fill:#FF9417;}
	.st46{fill:#FF9620;}
	.st47{fill:#FFA634;}
	.st48{fill:#FF471A;}
	.st49{fill:#FF511E;}
	.st50{fill:#FF9B26;}
	.st51{fill:#FF9625;}
	.st52{fill:#F67408;}
	.st53{fill:#FF7C08;}
	.st54{fill:#FF9213;}
	.st55{fill:#FFA422;}
	.st56{fill:#FF7A02;}
	.st57{fill:#FF8A2D;}
	.st58{fill:#FF631E;}
	.st59{fill:#FF8105;}
	.st60{fill:#FF8506;}
	.st61{fill:#FF8721;}
	.st62{fill:#FF8E23;}
	.st63{fill:#FF5518;}
	.st64{fill:#FF7021;}
	.st65{fill:#FF9230;}
	.st66{fill:#FF771F;}
	.st67{fill:#FF8D27;}
	.st68{fill:#FF8E2C;}
	.st69{fill:#FF4D1A;}
	.st70{fill:#FF4A19;}
	.st71{fill:#FF7728;}
	.st72{fill:#FF913A;}
	.st73{fill:#FF9A19;}
	.st74{fill:#FF9324;}
	.st75{fill:#FF792B;}
	.st76{fill:#FF5018;}
	.st77{fill:#FF4517;}
	.st78{fill:#FF5820;}
	.st79{fill:#FF8519;}
	.st80{fill:#FF9521;}
	.st81{fill:#FF7C24;}
	.st82{fill:#FF852A;}
	.st83{fill:#FF9218;}
	.st84{fill:#FF982E;}
	.st85{fill:#FF901C;}
	.st86{fill:#FF9419;}
	.st87{fill:#FF7B09;}
	.st88{fill:#FF8819;}
	.st89{fill:#FF951E;}
	.st90{fill:#FF7D07;}
	.st91{fill:#FF810A;}
	.st92{fill:#FF581E;}
	.st93{fill:#FF9114;}
	.st94{fill:#FF9A1A;}
	.st95{fill:#FF7B26;}
	.st96{fill:#FF8C30;}
	.st97{fill:#FF541A;}
	.st98{fill:#FD500E;}
	.st99{fill:#FF7D22;}
	.st100{fill:#FF9229;}
	.st101{fill:#FF9A21;}
	.st102{fill:#FF8B17;}
	.st103{fill:#FF9C28;}
	.st104{fill:#FF9E23;}
	.st105{fill:#FF9E1F;}
	.st106{fill:#FF870D;}
	.st107{fill:#FF762B;}
	.st108{fill:#FD4813;}
	.st109{fill:#FF5129;}
	.st110{fill:#FF7B28;}
	.st111{fill:#FF5318;}
	.st112{fill:#FFAA47;}
	.st113{fill:#FF9124;}
	.st114{fill:#FF9126;}
	.st115{fill:#FF7712;}
	.st116{fill:#FF8B20;}
	.st117{fill:#FF921B;}
	.st118{fill:#FF4A17;}
	.st119{fill:#FF542C;}
	.st120{fill:#FF922A;}
	.st121{fill:#FF7818;}
	.st122{fill:#FF5F0D;}
	.st123{fill:#FF6317;}
	.st124{fill:#FF8524;}
	.st125{fill:#FF8828;}
	.st126{fill:#FF7721;}
	.st127{fill:#FF9B39;}
	.st128{fill:#FF9C20;}
	.st129{fill:#FF981A;}
	.st130{fill:#FF9C26;}
	.st131{fill:#FFA02A;}
	.st132{fill:#FF581C;}
	.st133{fill:#F8380E;}
	.st134{fill:#FF971D;}
	.st135{fill:#FF9E21;}
	.st136{fill:#FE5210;}
	.st137{fill:#FF6319;}
	.st138{fill:#F73A0B;}
	.st139{fill:#FF5112;}
	.st140{fill:#FC4610;}
	.st141{fill:#FF961F;}
	.st142{fill:#FF8B19;}
	.st143{fill:#FF8F22;}
	.st144{fill:#FF630C;}
	.st145{fill:#FF9D31;}
	.st146{fill:#FE570E;}
	.st147{fill:#FF7A1B;}
	.st148{fill:#FF9524;}
	.st149{fill:#FF7708;}
	.st150{fill:#FF8914;}
	.st151{fill:#FA5D03;}
	.st152{fill:#FF9B24;}
	.st153{fill:#FF750C;}
	.st154{fill:#F9400D;}
	.st155{fill:#FF5D13;}
	.st156{fill:#FD4F0F;}
	.st157{fill:#FE4814;}
	.st158{fill:#FF5E13;}
	.st159{fill:#FF7924;}
	.st160{fill:#FF7A27;}
	.st161{fill:#F42E00;}
	.st162{fill:#FE4813;}
	.st163{fill:#FF9224;}
	.st164{fill:#FD5D08;}
	.st165{fill:#FF8818;}
	.st166{fill:#FF8F19;}
	.st167{fill:#FF760C;}
	.st168{fill:#FF8A15;}
	.st169{fill:#FF710C;}
	.st170{fill:#FF901E;}
	.st171{fill:#F95C02;}
	.st172{fill:#FF6412;}
	.st173{fill:#FF7216;}
	.st174{fill:#FB4E0C;}
	.st175{fill:#FF6A19;}
	.st176{fill:#FF9D30;}
	.st177{fill:#EF3B0A;}
	.st178{fill:#FB530A;}
	.st179{fill:#FF821A;}
	.st180{fill:#FF5C14;}
	.st181{fill:#F44719;}
	.st182{fill:#FF8127;}
	.st183{fill:#FF5012;}
	.st184{fill:#FF6716;}
	.st185{fill:#FF9724;}
	.st186{fill:#FF8C1E;}
	.st187{fill:#F64A03;}
	.st188{fill:#FFA730;}
	.st189{fill:#FA5606;}
	.st190{fill:#FF9E2E;}
	.st191{fill:#FF811F;}
	.st192{fill:#FC550A;}
	.st193{fill:#FF831D;}
	.st194{fill:#FF6816;}
	.st195{fill:#F74707;}
	.st196{enable-background:new    ;}
	.st197{fill:#FFFEFE;}
	.st198{fill:#EA5008;}
	.st199{opacity:0.4;fill:#EA5008;enable-background:new    ;}
</style>
<g>
	<polygon class="st0" points="-66.8,426.4 -67,425.2 -64.4,420.4 -67,416.3 -66,413.9 -68.4,412 -68.7,406.9 -73.5,404.8
		-74.4,402.8 -75.8,402.3 -77.9,399 -82.3,399.2 -86,395.8 -89.4,397 -90.5,396.4 -93.2,397.7 -98.5,396.6 -100.5,398.8 -102,398.6
		-104,401.8 -109.8,403.6 -111.1,408.8 -112.1,409.6 -112.2,410.7 -112.7,411.2 -112.7,411.9 -116.1,415.8 -114.6,419.9
		-115.9,422.2 -114.5,424.6 -115.5,428.6 -111.9,432.2 -111.6,435.3 -109.3,436.5 -107.7,441.3 -102.3,442.2 -100.6,444.5
		-98,444.4 -94.8,446.7 -90.8,445.2 -86.2,447 -84.2,445.3 -82.5,445.7 -79.6,442.5 -74.4,441.8 -73.1,438.5 -72.1,438.1
		-71.3,435.2 -66.6,432.1 -67.2,426.9 	"/>
	<polygon class="st1" points="-72.3,431.2 -73.4,433.4 -71.1,428.4 	"/>
	<polygon class="st2" points="-80.4,441.1 -82,441.7 -77.4,438.3 	"/>
	<polygon class="st3" points="-68.1,417.8 -70.1,411.7 -68.3,414.9 	"/>
	<polygon class="st4" points="-101.6,441.2 -103.3,440.3 -97.7,442.3 	"/>
	<polygon class="st5" points="-66.8,426.4 -68.5,428.8 -67.3,423.4 	"/>
	<polygon class="st6" points="-112.6,413.7 -112.7,411.2 -109.9,408.5 	"/>
	<polygon class="st7" points="-78.2,440.7 -74.5,438.6 -72.1,438.1 	"/>
	<polygon class="st8" points="-72.1,438.1 -74.5,438.6 -70.9,434.2 	"/>
	<polygon class="st9" points="-77.3,402 -74.4,402.8 -73,406 	"/>
	<polygon class="st10" points="-80.6,400.7 -74.4,402.8 -77.3,402 	"/>
	<polygon class="st11" points="-111.7,431.4 -108.2,436.9 -111.6,435.3 	"/>
	<polygon class="st12" points="-111.7,431.4 -111.6,435.3 -112.5,428.3 	"/>
	<polygon class="st13" points="-82.5,445.7 -88.6,444.4 -84.7,444.6 	"/>
	<polygon class="st14" points="-82.5,445.7 -84.7,444.6 -79.3,442.1 	"/>
	<polygon class="st15" points="-113.8,425.1 -112.5,428.3 -115.9,422.2 	"/>
	<polygon class="st12" points="-114.3,419.2 -113.8,425.1 -115.9,422.2 	"/>
	<polygon class="st16" points="-88.6,444.4 -94.8,446.7 -90.7,444.9 	"/>
	<polygon class="st17" points="-86,395.8 -80.6,400.7 -82.7,399.2 	"/>
	<polygon class="st18" points="-64.4,420.4 -67.4,417.3 -68.3,414.3 	"/>
	<polygon class="st19" points="-67.4,417.3 -69.2,411.4 -68.3,414.3 	"/>
	<polygon class="st20" points="-68.3,414.3 -69.2,411.4 -68.7,406.9 	"/>
	<polygon class="st21" points="-94.8,446.7 -97.1,443.9 -90.7,444.9 	"/>
	<polygon class="st22" points="-94.8,446.7 -100.6,442.5 -97.1,443.9 	"/>
	<polygon class="st23" points="-99.5,399.4 -103,401.5 -98.5,396.6 	"/>
	<polygon class="st24" points="-98.5,396.6 -92.3,398 -94.2,398.2 	"/>
	<polygon class="st25" points="-99.5,399.4 -98.5,396.6 -94.2,398.2 	"/>
	<polygon class="st26" points="-88.5,397.9 -86,395.8 -82.7,399.2 	"/>
	<polygon class="st27" points="-92.3,398 -88.5,397.9 -94.2,398.2 	"/>
	<polygon class="st28" points="-92.3,398 -86,395.8 -88.5,397.9 	"/>
	<polygon class="st29" points="-104.6,402.7 -103,401.5 -99.5,399.4 	"/>
	<polygon class="st30" points="-104.6,402.7 -109.8,403.6 -103,401.5 	"/>
	<polygon class="st31" points="-64.4,420.4 -67.4,422.6 -67.4,417.3 	"/>
	<polygon class="st32" points="-67.4,425.7 -67.4,422.6 -64.4,420.4 	"/>
	<polygon class="st33" points="-84.7,444.6 -81.1,442.6 -79.3,442.1 	"/>
	<polygon class="st12" points="-113.9,421.8 -113.8,425.1 -114.3,419.2 	"/>
	<polygon class="st34" points="-100.6,442.5 -103.1,441.2 -97.1,443.9 	"/>
	<polygon class="st35" points="-100.6,442.5 -107.7,441.3 -103.1,441.2 	"/>
	<polygon class="st36" points="-109.4,407.8 -109.8,403.6 -104.6,402.7 	"/>
	<polygon class="st37" points="-109.4,407.8 -111.6,410.7 -109.8,403.6 	"/>
	<polygon class="st38" points="-74.4,404.4 -68.7,406.9 -72.3,407.5 	"/>
	<polygon class="st39" points="-72.3,407.5 -68.7,406.9 -69.2,411.4 	"/>
	<polygon class="st40" points="-97.1,443.9 -93.2,444.3 -90.7,444.9 	"/>
	<polygon class="st41" points="-66.6,432.1 -68.7,427.1 -67.4,425.7 	"/>
	<polygon class="st42" points="-68.7,427.1 -67.4,422.6 -67.4,425.7 	"/>
	<polygon class="st43" points="-112.3,413.3 -111.6,410.7 -109.4,407.8 	"/>
	<polygon class="st44" points="-112.3,413.3 -116.1,415.8 -111.6,410.7 	"/>
	<polygon class="st45" points="-88.5,397.9 -82.7,399.2 -84.7,399.5 	"/>
	<polygon class="st23" points="-84.7,399.5 -82.7,399.2 -77.9,399 	"/>
	<polygon class="st46" points="-99.5,399.4 -94.2,398.2 -95.8,399.4 	"/>
	<polygon class="st47" points="-109.4,407.8 -104.6,402.7 -106.2,405.1 	"/>
	<polygon class="st48" points="-107.3,436.4 -103.1,441.2 -107.7,441.3 	"/>
	<polygon class="st49" points="-107.3,436.4 -107.7,441.3 -110,434.2 	"/>
	<polygon class="st50" points="-66.6,432.1 -71,431.7 -68.7,427.1 	"/>
	<polygon class="st51" points="-72,435.7 -71,431.7 -66.6,432.1 	"/>
	<polygon class="st52" points="-67.4,417.3 -68.6,418.3 -66,413.9 	"/>
	<polygon class="st53" points="-67.4,422.6 -68.6,418.3 -67.4,417.3 	"/>
	<polygon class="st54" points="-70.5,412.1 -69.2,411.4 -66,413.9 	"/>
	<polygon class="st55" points="-70.5,412.1 -66,413.9 -68.6,418.3 	"/>
	<polygon class="st56" points="-72.3,407.5 -69.2,411.4 -70.5,412.1 	"/>
	<polygon class="st57" points="-112.3,413.3 -112.8,418.6 -116.1,415.8 	"/>
	<polygon class="st58" points="-112.8,418.6 -113.9,421.8 -116.1,415.8 	"/>
	<polygon class="st59" points="-74.4,404.4 -72.3,407.5 -76,404.8 	"/>
	<polygon class="st60" points="-77.9,399 -74.4,404.4 -76,404.8 	"/>
	<polygon class="st23" points="-95.8,399.4 -94.2,398.2 -90.5,396.4 	"/>
	<polygon class="st61" points="-74.4,441.8 -74.3,435.8 -72,435.7 	"/>
	<polygon class="st62" points="-74.3,435.8 -71,431.7 -72,435.7 	"/>
	<polygon class="st63" points="-86.2,447 -93.2,444.3 -88.9,443.3 	"/>
	<polygon class="st64" points="-86.2,447 -88.9,443.3 -83.2,441.8 	"/>
	<polygon class="st65" points="-86.2,447 -83.2,441.8 -81.1,442.6 	"/>
	<polygon class="st66" points="-81.1,442.6 -78.5,439.2 -74.4,441.8 	"/>
	<polygon class="st67" points="-74.4,441.8 -78.5,439.2 -74.3,435.8 	"/>
	<polygon class="st68" points="-83.2,441.8 -78.5,439.2 -81.1,442.6 	"/>
	<polygon class="st69" points="-110.4,430.4 -110,434.2 -115.5,428.6 	"/>
	<polygon class="st70" points="-107.3,436.4 -110,434.2 -110.4,430.4 	"/>
	<polygon class="st16" points="-112.2,424.2 -110.4,430.4 -115.5,428.6 	"/>
	<polygon class="st71" points="-112.2,424.2 -113.9,421.8 -112.8,418.6 	"/>
	<polygon class="st72" points="-112.2,424.2 -115.5,428.6 -113.9,421.8 	"/>
	<polygon class="st73" points="-80.8,402.7 -77.9,399 -76,404.8 	"/>
	<polygon class="st54" points="-84.7,399.5 -77.9,399 -80.8,402.7 	"/>
	<polygon class="st74" points="-101.8,403.5 -106.2,405.1 -102,398.6 	"/>
	<polygon class="st75" points="-93.2,444.3 -100.6,444.5 -95.2,442.3 	"/>
	<polygon class="st76" points="-93.2,444.3 -95.2,442.3 -88.9,443.3 	"/>
	<polygon class="st77" points="-103.4,438 -103.1,441.2 -107.3,436.4 	"/>
	<polygon class="st78" points="-103.4,438 -100.6,444.5 -103.1,441.2 	"/>
	<polygon class="st79" points="-101.8,403.5 -102,398.6 -96.4,401.6 	"/>
	<polygon class="st80" points="-102,398.6 -95.8,399.4 -96.4,401.6 	"/>
	<polygon class="st81" points="-112.1,409.6 -110.5,415.6 -112.3,413.3 	"/>
	<polygon class="st82" points="-110.5,415.6 -112.8,418.6 -112.3,413.3 	"/>
	<polygon class="st31" points="-84.7,399.5 -80.8,402.7 -86,401.7 	"/>
	<polygon class="st83" points="-90.5,396.4 -84.7,399.5 -86,401.7 	"/>
	<polygon class="st47" points="-106.3,408.5 -106.2,405.1 -101.8,403.5 	"/>
	<polygon class="st84" points="-106.3,408.5 -112.1,409.6 -106.2,405.1 	"/>
	<polygon class="st17" points="-95.8,399.4 -90.5,396.4 -91.4,401.4 	"/>
	<polygon class="st32" points="-91.4,401.4 -90.5,396.4 -86,401.7 	"/>
	<polygon class="st85" points="-95.8,399.4 -91.4,401.4 -96.4,401.6 	"/>
	<polygon class="st86" points="-70.5,412.1 -68.6,418.3 -71.7,415.9 	"/>
	<polygon class="st87" points="-71.7,415.9 -68.6,418.3 -67.2,422.7 	"/>
	<polygon class="st88" points="-71,431.7 -71.4,426.8 -68.7,427.1 	"/>
	<polygon class="st89" points="-68.7,427.1 -71.4,426.8 -67.2,422.7 	"/>
	<polygon class="st90" points="-76,404.8 -72.3,407.5 -71.9,407.9 	"/>
	<polygon class="st91" points="-71.9,407.9 -70.5,412.1 -71.7,415.9 	"/>
	<polygon class="st22" points="-99,438.7 -100.6,444.5 -103.4,438 	"/>
	<polygon class="st92" points="-99,438.7 -95.2,442.3 -100.6,444.5 	"/>
	<polygon class="st93" points="-80.8,402.7 -76,404.8 -77.7,407.1 	"/>
	<polygon class="st94" points="-77.7,407.1 -76,404.8 -71.9,407.9 	"/>
	<polygon class="st95" points="-88.9,443.3 -86.7,440.1 -83.2,441.8 	"/>
	<polygon class="st96" points="-88.9,443.3 -91.1,444.1 -86.7,440.1 	"/>
	<polygon class="st97" points="-108.9,426.7 -110.4,430.4 -112.2,424.2 	"/>
	<polygon class="st98" points="-107.2,413.5 -110.5,415.6 -112.1,409.6 	"/>
	<polygon class="st99" points="-106.3,408.5 -107.2,413.5 -112.1,409.6 	"/>
	<polygon class="st100" points="-78.5,439.2 -77.9,434.6 -74.3,435.8 	"/>
	<polygon class="st101" points="-71.7,415.9 -67.2,422.7 -73.4,420.1 	"/>
	<polygon class="st102" points="-73.4,420.1 -67.2,422.7 -71.4,426.8 	"/>
	<polygon class="st103" points="-101.8,403.5 -96.4,401.6 -97.9,405.5 	"/>
	<polygon class="st104" points="-71.7,415.9 -73.4,420.1 -75.6,413 	"/>
	<polygon class="st105" points="-71.9,407.9 -71.7,415.9 -75.6,413 	"/>
	<polygon class="st106" points="-77.7,407.1 -71.9,407.9 -75.6,413 	"/>
	<polygon class="st16" points="-108.6,434.1 -103.4,438 -107.3,436.4 	"/>
	<polygon class="st107" points="-108.9,426.7 -108.6,434.1 -110.4,430.4 	"/>
	<polygon class="st108" points="-93.2,439 -91.1,444.1 -95.2,442.3 	"/>
	<polygon class="st109" points="-93.2,439 -95.2,442.3 -99,438.7 	"/>
	<polygon class="st110" points="-93.2,439 -86.7,440.1 -91.1,444.1 	"/>
	<polygon class="st111" points="-112.4,420.5 -108.9,426.7 -112.2,424.2 	"/>
	<polygon class="st112" points="-110.5,415.6 -112.4,420.5 -112.8,418.6 	"/>
	<polygon class="st71" points="-112.4,420.5 -112.2,424.2 -112.8,418.6 	"/>
	<polygon class="st113" points="-103.9,404.8 -101.8,403.5 -97.9,405.5 	"/>
	<polygon class="st114" points="-74.3,435.8 -77.9,434.6 -72.4,432 	"/>
	<polygon class="st115" points="-71,431.7 -72.4,432 -71.4,426.8 	"/>
	<polygon class="st116" points="-74.3,435.8 -72.4,432 -71,431.7 	"/>
	<polygon class="st117" points="-91.4,401.4 -86,401.7 -87.7,404.8 	"/>
	<polygon class="st118" points="-101.5,434.3 -103.4,438 -108.6,434.1 	"/>
	<polygon class="st119" points="-99,438.7 -103.4,438 -101.5,434.3 	"/>
	<polygon class="st120" points="-102.5,410.6 -107.2,413.5 -106.3,408.5 	"/>
	<polygon class="st121" points="-103.9,404.8 -97.9,405.5 -102.5,410.6 	"/>
	<polygon class="st122" points="-103.9,404.8 -102.5,410.6 -106.3,408.5 	"/>
	<polygon class="st123" points="-83.2,441.8 -86.7,440.1 -81,439.6 	"/>
	<polygon class="st124" points="-78.5,439.2 -81,439.6 -77.9,434.6 	"/>
	<polygon class="st125" points="-83.2,441.8 -81,439.6 -78.5,439.2 	"/>
	<polygon class="st126" points="-106.5,418.1 -110.5,415.6 -107.2,413.5 	"/>
	<polygon class="st127" points="-106.5,418.1 -112.4,420.5 -110.5,415.6 	"/>
	<polygon class="st128" points="-87.7,404.8 -86,401.7 -81.4,403.9 	"/>
	<polygon class="st129" points="-86,401.7 -80.8,402.7 -81.4,403.9 	"/>
	<polygon class="st90" points="-81.4,403.9 -80.8,402.7 -77.7,407.1 	"/>
	<polygon class="st130" points="-73.4,420.1 -71.4,426.8 -76.2,424.5 	"/>
	<polygon class="st131" points="-76.2,424.5 -71.4,426.8 -72.4,432 	"/>
	<polygon class="st132" points="-103.9,429.1 -108.6,434.1 -108.9,426.7 	"/>
	<polygon class="st133" points="-103.9,429.1 -101.5,434.3 -108.6,434.1 	"/>
	<polygon class="st134" points="-77.7,407.1 -75.6,413 -80.6,411 	"/>
	<polygon class="st135" points="-81.4,403.9 -77.7,407.1 -80.6,411 	"/>
	<polygon class="st136" points="-88.5,436 -81,439.6 -86.7,440.1 	"/>
	<polygon class="st137" points="-88.5,436 -86.7,440.1 -93.2,439 	"/>
	<polygon class="st138" points="-103.9,429.1 -108.9,426.7 -105.5,423.6 	"/>
	<polygon class="st139" points="-106.5,418.1 -105.5,423.6 -112.4,420.5 	"/>
	<polygon class="st140" points="-105.5,423.6 -108.9,426.7 -112.4,420.5 	"/>
	<polygon class="st141" points="-93,402.7 -91.4,401.4 -87.7,404.8 	"/>
	<polygon class="st142" points="-96.4,401.6 -91.4,401.4 -93,402.7 	"/>
	<polygon class="st10" points="-97.9,405.5 -96.4,401.6 -93,402.7 	"/>
	<polygon class="st143" points="-76.2,424.5 -72.4,432 -79.7,428.8 	"/>
	<polygon class="st144" points="-79.7,428.8 -72.4,432 -77.9,434.6 	"/>
	<polygon class="st145" points="-84,432.8 -77.9,434.6 -81,439.6 	"/>
	<polygon class="st146" points="-84,432.8 -81,439.6 -88.5,436 	"/>
	<polygon class="st147" points="-79.7,428.8 -77.9,434.6 -84,432.8 	"/>
	<polygon class="st148" points="-97.9,405.5 -93,402.7 -97,410 	"/>
	<polygon class="st8" points="-97.9,405.5 -97,410 -102.5,410.6 	"/>
	<polygon class="st149" points="-87.7,404.8 -81.4,403.9 -86,409.7 	"/>
	<polygon class="st150" points="-81.4,403.9 -80.6,411 -86,409.7 	"/>
	<polygon class="st151" points="-93,402.7 -91.7,409.2 -97,410 	"/>
	<polygon class="st152" points="-93,402.7 -87.7,404.8 -91.7,409.2 	"/>
	<polygon class="st153" points="-87.7,404.8 -86,409.7 -91.7,409.2 	"/>
	<polygon class="st154" points="-98.1,430.6 -101.5,434.3 -103.9,429.1 	"/>
	<polygon class="st155" points="-84,432.8 -88.5,436 -91.2,431.5 	"/>
	<polygon class="st156" points="-101.4,420.2 -105.5,423.6 -106.5,418.1 	"/>
	<polygon class="st157" points="-96.4,436.8 -93.2,439 -99,438.7 	"/>
	<polygon class="st158" points="-98.1,430.6 -91.2,431.5 -96.4,436.8 	"/>
	<polygon class="st159" points="-91.2,431.5 -88.5,436 -96.4,436.8 	"/>
	<polygon class="st160" points="-96.4,436.8 -88.5,436 -93.2,439 	"/>
	<polygon class="st161" points="-98.1,430.6 -96.4,436.8 -101.5,434.3 	"/>
	<polygon class="st162" points="-96.4,436.8 -99,438.7 -101.5,434.3 	"/>
	<polygon class="st163" points="-76.2,424.5 -79.7,428.8 -82.4,422.1 	"/>
	<polygon class="st164" points="-91.7,409.2 -96.8,415 -97,410 	"/>
	<polygon class="st165" points="-80.6,411 -84.6,415.5 -86,409.7 	"/>
	<polygon class="st166" points="-75.6,413 -73.4,420.1 -77,416.8 	"/>
	<polygon class="st167" points="-80.6,411 -77,416.8 -84.6,415.5 	"/>
	<polygon class="st168" points="-80.6,411 -75.6,413 -77,416.8 	"/>
	<polygon class="st169" points="-77,416.8 -76.2,424.5 -82.4,422.1 	"/>
	<polygon class="st170" points="-77,416.8 -73.4,420.1 -76.2,424.5 	"/>
	<polygon class="st171" points="-84.6,415.5 -77,416.8 -82.4,422.1 	"/>
	<polygon class="st172" points="-103.7,414.6 -96.8,415 -101.4,420.2 	"/>
	<polygon class="st173" points="-97,410 -96.8,415 -103.7,414.6 	"/>
	<polygon class="st174" points="-103.7,414.6 -101.4,420.2 -106.5,418.1 	"/>
	<polygon class="st175" points="-103.7,414.6 -106.5,418.1 -107.2,413.5 	"/>
	<polygon class="st112" points="-102.5,410.6 -103.7,414.6 -107.2,413.5 	"/>
	<polygon class="st176" points="-102.5,410.6 -97,410 -103.7,414.6 	"/>
	<polygon class="st177" points="-93.5,426 -91.2,431.5 -98.1,430.6 	"/>
	<polygon class="st178" points="-96.8,415 -95.5,420.5 -101.4,420.2 	"/>
	<polygon class="st109" points="-89,420.6 -93.5,426 -95.5,420.5 	"/>
	<polygon class="st179" points="-84.6,415.5 -82.4,422.1 -89,420.6 	"/>
	<polygon class="st180" points="-101,426.2 -93.5,426 -98.1,430.6 	"/>
	<polygon class="st181" points="-101,426.2 -98.1,430.6 -103.9,429.1 	"/>
	<polygon class="st182" points="-101.4,420.2 -101,426.2 -105.5,423.6 	"/>
	<polygon class="st183" points="-101,426.2 -103.9,429.1 -105.5,423.6 	"/>
	<polygon class="st66" points="-95.5,420.5 -93.5,426 -101,426.2 	"/>
	<polygon class="st184" points="-101.4,420.2 -95.5,420.5 -101,426.2 	"/>
	<polygon class="st116" points="-91.1,413.6 -84.6,415.5 -89,420.6 	"/>
	<polygon class="st185" points="-86,409.7 -84.6,415.5 -91.1,413.6 	"/>
	<polygon class="st186" points="-91.7,409.2 -86,409.7 -91.1,413.6 	"/>
	<polygon class="st187" points="-91.1,413.6 -89,420.6 -95.5,420.5 	"/>
	<polygon class="st188" points="-91.7,409.2 -91.1,413.6 -96.8,415 	"/>
	<polygon class="st189" points="-96.8,415 -91.1,413.6 -95.5,420.5 	"/>
	<polygon class="st190" points="-82.4,422.1 -79.7,428.8 -86.2,427.6 	"/>
	<polygon class="st191" points="-86.2,427.6 -79.7,428.8 -84,432.8 	"/>
	<polygon class="st192" points="-89,420.6 -86.2,427.6 -93.5,426 	"/>
	<polygon class="st193" points="-89,420.6 -82.4,422.1 -86.2,427.6 	"/>
	<polygon class="st194" points="-86.2,427.6 -84,432.8 -91.2,431.5 	"/>
	<polygon class="st195" points="-93.5,426 -86.2,427.6 -91.2,431.5 	"/>
</g>
<g class="st196">
	<path class="st197" d="M-56.1,416.6h1.8c0.1,1.1,0.6,2,1.6,2.7c1,0.7,2.2,1,3.7,1c1.4,0,2.6-0.3,3.5-1c0.9-0.7,1.4-1.6,1.4-2.6
		c0-0.9-0.3-1.6-0.9-2.1c-0.6-0.5-1.6-1-3-1.4l-2.3-0.6c-1.7-0.4-3-1-3.8-1.8c-0.8-0.8-1.2-1.8-1.2-3c0-1.5,0.6-2.7,1.8-3.7
		c1.2-1,2.7-1.5,4.6-1.5c1.8,0,3.3,0.5,4.5,1.4c1.2,1,1.8,2.2,1.9,3.7h-1.8c-0.1-1.1-0.6-1.9-1.4-2.6s-2-1-3.3-1
		c-1.3,0-2.4,0.3-3.2,1s-1.3,1.5-1.3,2.5c0,0.8,0.3,1.5,0.9,2s1.6,0.9,3,1.3l2,0.5c1.9,0.5,3.3,1.1,4.1,1.9c0.8,0.8,1.3,1.8,1.3,3.1
		c0,1.6-0.6,3-1.8,4s-2.9,1.5-5,1.5c-2,0-3.6-0.5-4.8-1.5C-55.3,419.5-56,418.2-56.1,416.6z"/>
	<path class="st197" d="M-21.1,403v18.8h-1.7v-15.4h-0.1l-6.5,15.3h-1.5l-6.5-15.3h-0.1v15.4h-1.7V403h2l7,16.4h0.1l6.9-16.4H-21.1z
		"/>
	<path class="st197" d="M-4.5,421.7l-2.1-5.7h-7.9l-2.1,5.7h-1.9l7-18.8h1.8l7,18.8H-4.5z M-10.5,405.2l-3.4,9.3h6.8L-10.5,405.2
		L-10.5,405.2z"/>
	<path class="st197" d="M1.9,414v7.7H0.2V403h6.7c1.8,0,3.3,0.5,4.4,1.5c1.1,1,1.6,2.3,1.6,4c0,1.3-0.4,2.5-1.1,3.4
		c-0.7,0.9-1.7,1.6-3,1.9l4.5,8h-2.1L7,414H6.7H1.9z M1.9,404.6v7.9h4.8c1.4,0,2.4-0.3,3.2-1c0.8-0.7,1.1-1.7,1.1-2.9
		c0-1.2-0.4-2.2-1.2-2.9s-1.8-1-3.2-1H1.9z"/>
	<path class="st197" d="M23.1,421.7h-1.8v-17.1h-6.3V403h14.3v1.6h-6.3V421.7z"/>
	<path class="st197" d="M46.6,402.7c2.6,0,4.7,0.9,6.2,2.6c1.5,1.7,2.3,4.1,2.3,7.1c0,3-0.8,5.3-2.3,7.1c-1.5,1.7-3.6,2.6-6.2,2.6
		s-4.7-0.9-6.2-2.6c-1.5-1.7-2.3-4.1-2.3-7.1c0-3,0.8-5.3,2.3-7.1C42,403.5,44,402.7,46.6,402.7z M51.5,406.5
		c-1.2-1.4-2.8-2.2-4.9-2.2s-3.7,0.7-4.9,2.2c-1.2,1.4-1.8,3.4-1.8,5.9c0,2.5,0.6,4.4,1.8,5.8s2.8,2.2,4.9,2.2
		c2.1,0,3.7-0.7,4.9-2.2c1.2-1.4,1.8-3.4,1.8-5.8C53.3,409.9,52.7,407.9,51.5,406.5z"/>
	<path class="st197" d="M60.4,414v7.7h-1.8V403h6.7c1.8,0,3.3,0.5,4.4,1.5c1.1,1,1.6,2.3,1.6,4c0,1.3-0.4,2.5-1.1,3.4
		c-0.7,0.9-1.7,1.6-3,1.9l4.5,8h-2.1l-4.3-7.7h-0.3H60.4z M60.4,404.6v7.9h4.8c1.4,0,2.4-0.3,3.2-1c0.8-0.7,1.1-1.7,1.1-2.9
		c0-1.2-0.4-2.2-1.2-2.9s-1.8-1-3.2-1H60.4z"/>
	<path class="st197" d="M87.3,421.7l-2.1-5.7h-7.9l-2.1,5.7h-1.9l7-18.8h1.8l7,18.8H87.3z M81.2,405.2l-3.4,9.3h6.8L81.2,405.2
		L81.2,405.2z"/>
	<path class="st197" d="M93.7,421.7h-1.8V403h1.8l11,15.7h0.1V403h1.8v18.8h-1.7l-11-15.7h-0.1V421.7z"/>
	<path class="st197" d="M126.1,414.1c0,2.5-0.7,4.4-2.1,5.8c-1.4,1.4-3.3,2.1-5.7,2.1c-2.5,0-4.6-0.9-6.1-2.7
		c-1.5-1.8-2.3-4.2-2.3-7.1c0-2.9,0.8-5.2,2.3-7s3.6-2.6,6.1-2.6c2,0,3.6,0.5,5,1.6c1.4,1.1,2.3,2.5,2.6,4.3h-1.8
		c-0.4-1.3-1.1-2.4-2.1-3.1c-1-0.8-2.3-1.1-3.7-1.1c-2,0-3.6,0.7-4.8,2.1c-1.2,1.4-1.8,3.3-1.8,5.8c0,2.5,0.6,4.5,1.8,5.9
		c1.2,1.5,2.8,2.2,4.8,2.2c1.8,0,3.3-0.5,4.4-1.6c1.1-1.1,1.7-2.5,1.7-4.3v-0.7h-5.8v-1.6h7.6V414.1z"/>
	<path class="st197" d="M141,420.1v1.6h-11.3V403H141v1.6h-9.6v6.7h9.1v1.6h-9.1v7.2H141z"/>
</g>
<g class="st196">
	<path class="st198" d="M-52.3,441.9c-1.2,0-2.1-0.4-2.8-1.2s-1-1.9-1-3.2c0-1.3,0.3-2.4,1-3.2s1.6-1.2,2.8-1.2
		c0.9,0,1.7,0.2,2.3,0.7s1,1.1,1.2,2h-1.1c-0.2-0.5-0.4-0.9-0.9-1.3s-0.9-0.5-1.5-0.5c-0.8,0-1.5,0.3-2,0.9s-0.7,1.4-0.7,2.5
		c0,1,0.2,1.9,0.7,2.5s1.2,0.9,2,0.9c0.6,0,1.1-0.1,1.5-0.4s0.7-0.6,0.9-1.1h1.1c-0.2,0.8-0.6,1.4-1.2,1.9S-51.4,441.9-52.3,441.9z"
		/>
	<path class="st198" d="M-42.3,441c-0.5,0.6-1.2,0.9-2.1,0.9s-1.6-0.3-2.1-0.9s-0.8-1.4-0.8-2.3s0.3-1.8,0.8-2.3s1.2-0.9,2.1-0.9
		s1.6,0.3,2.1,0.9s0.8,1.4,0.8,2.3S-41.7,440.4-42.3,441z M-44.4,440.9c0.6,0,1-0.2,1.4-0.6s0.5-1,0.5-1.7c0-0.7-0.2-1.3-0.5-1.7
		s-0.8-0.6-1.4-0.6s-1,0.2-1.4,0.6s-0.5,1-0.5,1.7s0.2,1.3,0.5,1.7S-45,440.9-44.4,440.9z"/>
	<path class="st198" d="M-37.6,441.9c-0.7,0-1.3-0.2-1.7-0.5s-0.7-0.7-0.8-1.3h1c0.1,0.3,0.2,0.5,0.5,0.6s0.6,0.2,1,0.2
		c0.5,0,0.8-0.1,1.1-0.3s0.4-0.5,0.4-0.8c0-0.4-0.1-0.6-0.4-0.8s-0.6-0.3-1.1-0.3h-1v-0.8h1c0.8,0,1.2-0.3,1.2-0.9
		c0-0.3-0.1-0.5-0.3-0.7s-0.5-0.3-0.9-0.3c-0.4,0-0.7,0.1-0.9,0.2s-0.4,0.4-0.4,0.6h-1c0.1-0.5,0.3-0.9,0.7-1.2s1-0.5,1.6-0.5
		c0.7,0,1.2,0.2,1.6,0.5s0.6,0.7,0.6,1.2c0,0.3-0.1,0.6-0.3,0.9s-0.4,0.4-0.8,0.5v0c0.4,0.1,0.7,0.3,0.9,0.5s0.3,0.6,0.3,0.9
		c0,0.6-0.2,1.1-0.7,1.4S-36.9,441.9-37.6,441.9z"/>
	<path class="st198" d="M-33,443.5H-34v-2.5h0.5c0.2-0.1,0.4-0.4,0.5-0.7s0.2-0.8,0.2-1.2l0.2-3.5h4.3v5.5h1v2.5h-0.9v-1.7H-33
		V443.5z M-29.1,440.9v-4.6h-2.4l-0.2,2.7c-0.1,0.9-0.2,1.5-0.5,1.9v0H-29.1z"/>
	<path class="st198" d="M-23.7,441.9c-0.6,0-1.2-0.2-1.5-0.5s-0.6-0.8-0.6-1.3c0-0.5,0.2-1,0.6-1.3s1-0.5,1.8-0.5l1.8-0.1v-0.5
		c0-0.4-0.1-0.7-0.4-0.9s-0.6-0.3-1.1-0.3c-0.4,0-0.7,0.1-0.9,0.3s-0.4,0.4-0.5,0.7h-1c0-0.5,0.3-1,0.7-1.3s1-0.5,1.7-0.5
		c0.7,0,1.3,0.2,1.8,0.6s0.7,0.9,0.7,1.5v4.3h-1v-1.1h0c-0.2,0.4-0.5,0.6-0.8,0.8S-23.3,441.9-23.7,441.9z M-23.5,441
		c0.5,0,0.9-0.1,1.3-0.4s0.5-0.7,0.5-1.1v-0.5l-1.7,0.1c-1,0.1-1.4,0.4-1.4,1c0,0.3,0.1,0.5,0.4,0.7S-23.9,441-23.5,441z"/>
	<path class="st198" d="M-14.4,441.8v-2.9h-3.2v2.9h-1v-6.3h1v2.6h3.2v-2.6h1v6.3H-14.4z"/>
	<path class="st198" d="M-10.3,441.8h-1v-6.3h1v4.7h0l3.3-4.7h1v6.3h-1v-4.7h0L-10.3,441.8z"/>
	<path class="st198" d="M0.3,440h1c-0.1,0.5-0.4,1-0.9,1.3s-1.1,0.5-1.8,0.5c-0.9,0-1.6-0.3-2.1-0.9s-0.8-1.4-0.8-2.3
		s0.3-1.8,0.8-2.4s1.2-0.9,2.1-0.9c0.8,0,1.5,0.3,2,0.8s0.7,1.3,0.7,2.3v0.4h-4.5v0.1c0,0.6,0.2,1.1,0.5,1.4s0.8,0.5,1.4,0.5
		c0.4,0,0.7-0.1,1-0.3S0.2,440.3,0.3,440z M-1.4,436.3c-0.5,0-0.9,0.2-1.2,0.5s-0.5,0.8-0.5,1.3h3.5c0-0.5-0.2-1-0.5-1.3
		S-0.9,436.3-1.4,436.3z"/>
	<path class="st198" d="M7.6,441.8h-1v-6.3h1v4.7h0l3.3-4.7h1v6.3h-1v-4.7h0L7.6,441.8z"/>
	<path class="st198" d="M21.7,441.8v-5.5h-3.2v5.5h-1v-6.3h5.2v6.3H21.7z"/>
	<path class="st198" d="M27.8,435.4c0.8,0,1.5,0.3,2,0.9s0.7,1.4,0.7,2.3s-0.2,1.7-0.7,2.3s-1.1,0.9-1.9,0.9c-0.4,0-0.8-0.1-1.2-0.3
		s-0.6-0.5-0.8-0.8h0v3.1h-1v-8.4h1v1h0c0.2-0.3,0.5-0.6,0.8-0.8S27.4,435.4,27.8,435.4z M27.6,440.9c0.6,0,1-0.2,1.3-0.6
		s0.5-1,0.5-1.7c0-0.7-0.2-1.3-0.5-1.7s-0.8-0.6-1.3-0.6c-0.5,0-1,0.2-1.3,0.6s-0.5,1-0.5,1.7s0.2,1.2,0.5,1.7
		S27.1,440.9,27.6,440.9z"/>
	<path class="st198" d="M37,441c-0.5,0.6-1.2,0.9-2.1,0.9s-1.6-0.3-2.1-0.9s-0.8-1.4-0.8-2.3s0.3-1.8,0.8-2.3s1.2-0.9,2.1-0.9
		s1.6,0.3,2.1,0.9s0.8,1.4,0.8,2.3S37.6,440.4,37,441z M34.9,440.9c0.6,0,1-0.2,1.4-0.6s0.5-1,0.5-1.7c0-0.7-0.2-1.3-0.5-1.7
		s-0.8-0.6-1.4-0.6s-1,0.2-1.4,0.6s-0.5,1-0.5,1.7s0.2,1.3,0.5,1.7S34.3,440.9,34.9,440.9z"/>
	<path class="st198" d="M39.9,443.5H39v-2.5h0.5c0.2-0.1,0.4-0.4,0.5-0.7s0.2-0.8,0.2-1.2l0.2-3.5h4.3v5.5h1v2.5h-0.9v-1.7h-4.9
		V443.5z M43.8,440.9v-4.6h-2.4l-0.2,2.7c-0.1,0.9-0.2,1.5-0.5,1.9v0H43.8z"/>
	<path class="st198" d="M47.4,441.8v-6.3h2.7c0.6,0,1,0.1,1.4,0.4s0.5,0.7,0.5,1.2c0,0.3-0.1,0.6-0.3,0.9s-0.4,0.4-0.7,0.5v0
		c0.4,0.1,0.7,0.2,1,0.5s0.4,0.6,0.4,1c0,0.6-0.2,1-0.6,1.3s-0.9,0.5-1.6,0.5H47.4z M49.9,436.3h-1.6v1.8h1.4c0.8,0,1.2-0.3,1.2-0.9
		c0-0.3-0.1-0.5-0.3-0.7S50.3,436.3,49.9,436.3z M49.9,438.9h-1.5v2h1.7c0.4,0,0.7-0.1,0.9-0.3s0.3-0.4,0.3-0.7
		c0-0.3-0.1-0.6-0.3-0.8S50.3,438.9,49.9,438.9z"/>
	<path class="st198" d="M55.1,441.8h-1v-6.3h1v4.7h0l3.3-4.7h1v6.3h-1v-4.7h0L55.1,441.8z"/>
	<path class="st198" d="M66.9,438.5l2.9,3.3h-1.3l-2.6-3.1h0v3.1h-1v-3.1h0l-2.6,3.1h-1.3l2.9-3.3l-2.8-3h1.3l2.6,2.8h0v-2.8h1v2.8
		h0l2.6-2.8h1.3L66.9,438.5z"/>
	<path class="st198" d="M75.3,440h1c-0.1,0.5-0.4,1-0.9,1.3s-1.1,0.5-1.8,0.5c-0.9,0-1.6-0.3-2.1-0.9s-0.8-1.4-0.8-2.3
		s0.3-1.8,0.8-2.4s1.2-0.9,2.1-0.9c0.8,0,1.5,0.3,2,0.8s0.7,1.3,0.7,2.3v0.4h-4.5v0.1c0,0.6,0.2,1.1,0.5,1.4s0.8,0.5,1.4,0.5
		c0.4,0,0.7-0.1,1-0.3S75.2,440.3,75.3,440z M73.6,436.3c-0.5,0-0.9,0.2-1.2,0.5s-0.5,0.8-0.5,1.3h3.5c0-0.5-0.2-1-0.5-1.3
		S74.1,436.3,73.6,436.3z"/>
	<path class="st198" d="M82.4,441.8v-2.9h-3.2v2.9h-1v-6.3h1v2.6h3.2v-2.6h1v6.3H82.4z"/>
	<path class="st198" d="M86.5,441.8h-1v-6.3h1v4.7h0l3.3-4.7h1v6.3h-1v-4.7h0L86.5,441.8z"/>
	<path class="st198" d="M97.1,440h1c-0.1,0.5-0.4,1-0.9,1.3s-1.1,0.5-1.8,0.5c-0.9,0-1.6-0.3-2.1-0.9s-0.8-1.4-0.8-2.3
		s0.3-1.8,0.8-2.4s1.2-0.9,2.1-0.9c0.8,0,1.5,0.3,2,0.8s0.7,1.3,0.7,2.3v0.4h-4.5v0.1c0,0.6,0.2,1.1,0.5,1.4s0.8,0.5,1.4,0.5
		c0.4,0,0.7-0.1,1-0.3S97,440.3,97.1,440z M95.4,436.3c-0.5,0-0.9,0.2-1.2,0.5s-0.5,0.8-0.5,1.3h3.5c0-0.5-0.2-1-0.5-1.3
		S95.9,436.3,95.4,436.3z"/>
	<path class="st198" d="M108.6,437.4h-1c-0.1-0.3-0.3-0.6-0.6-0.8s-0.6-0.3-1.1-0.3c-0.6,0-1,0.2-1.3,0.6s-0.5,1-0.5,1.7
		c0,0.7,0.2,1.3,0.5,1.7s0.8,0.6,1.4,0.6c0.4,0,0.8-0.1,1-0.3s0.5-0.4,0.6-0.8h1c-0.1,0.6-0.4,1.1-0.9,1.4s-1.1,0.5-1.8,0.5
		c-0.9,0-1.6-0.3-2.1-0.9s-0.8-1.4-0.8-2.3c0-1,0.3-1.7,0.8-2.3s1.2-0.9,2.1-0.9c0.7,0,1.3,0.2,1.8,0.6S108.5,436.8,108.6,437.4z"/>
	<path class="st198" d="M112.2,441.9c-0.6,0-1.2-0.2-1.5-0.5s-0.6-0.8-0.6-1.3c0-0.5,0.2-1,0.6-1.3s1-0.5,1.8-0.5l1.8-0.1v-0.5
		c0-0.4-0.1-0.7-0.4-0.9s-0.6-0.3-1.1-0.3c-0.4,0-0.7,0.1-0.9,0.3s-0.4,0.4-0.5,0.7h-1c0-0.5,0.3-1,0.7-1.3s1-0.5,1.7-0.5
		c0.7,0,1.3,0.2,1.8,0.6s0.7,0.9,0.7,1.5v4.3h-1v-1.1h0c-0.2,0.4-0.5,0.6-0.8,0.8S112.6,441.9,112.2,441.9z M112.4,441
		c0.5,0,0.9-0.1,1.3-0.4s0.5-0.7,0.5-1.1v-0.5l-1.7,0.1c-1,0.1-1.4,0.4-1.4,1c0,0.3,0.1,0.5,0.4,0.7S112,441,112.4,441z"/>
	<path class="st198" d="M118.3,441.8h-1v-6.3h1v4.7h0l3.3-4.7h1v6.3h-1v-4.7h0L118.3,441.8z M118,432.7h0.8c0,0.3,0.1,0.6,0.3,0.9
		s0.5,0.3,0.8,0.3s0.6-0.1,0.8-0.3s0.3-0.5,0.3-0.9h0.8c0,0.5-0.2,1-0.5,1.3s-0.8,0.5-1.4,0.5s-1-0.2-1.4-0.5S118,433.2,118,432.7z"
		/>
	<path class="st198" d="M129.3,435.5v0.8h-2.1v5.5h-1v-5.5h-2.1v-0.8H129.3z"/>
	<path class="st198" d="M135.5,441c-0.5,0.6-1.2,0.9-2.1,0.9s-1.6-0.3-2.1-0.9s-0.8-1.4-0.8-2.3s0.3-1.8,0.8-2.3s1.2-0.9,2.1-0.9
		s1.6,0.3,2.1,0.9s0.8,1.4,0.8,2.3S136,440.4,135.5,441z M133.3,440.9c0.6,0,1-0.2,1.4-0.6s0.5-1,0.5-1.7c0-0.7-0.2-1.3-0.5-1.7
		s-0.8-0.6-1.4-0.6s-1,0.2-1.4,0.6s-0.5,1-0.5,1.7s0.2,1.3,0.5,1.7S132.7,440.9,133.3,440.9z"/>
	<path class="st198" d="M138,441.8v-6.3h2.7c0.6,0,1,0.1,1.4,0.4s0.5,0.7,0.5,1.2c0,0.3-0.1,0.6-0.3,0.9s-0.4,0.4-0.7,0.5v0
		c0.4,0.1,0.7,0.2,1,0.5s0.4,0.6,0.4,1c0,0.6-0.2,1-0.6,1.3s-0.9,0.5-1.6,0.5H138z M140.6,436.3H139v1.8h1.4c0.8,0,1.2-0.3,1.2-0.9
		c0-0.3-0.1-0.5-0.3-0.7S140.9,436.3,140.6,436.3z M140.5,438.9H139v2h1.7c0.4,0,0.7-0.1,0.9-0.3s0.3-0.4,0.3-0.7
		c0-0.3-0.1-0.6-0.3-0.8S141,438.9,140.5,438.9z"/>
</g>
<rect x="-56.1" y="428.6" class="st199" width="197.8" height="1"/>
</svg>
