<svg xmlns="http://www.w3.org/2000/svg" id="Layer_1" viewBox="81 258.3 241.80001 264.1" width="241.8" height="264.1"><style id="style3361">.st0{enable-background:new}.st1{fill:#f4a73b}.st2{fill:#898a8d}.st3{fill:#a0a1a3}.st4{fill:#8d8e91}.st5{fill:#6c6e70}.st6{fill:#ff7308}.st7{fill:#ffa64a}.st8{fill:#a0a0a0}.st9{fill:#ff8a22}.st10{fill:#ff7c00}.st11{fill:#ffab30}.st12{fill:#ff521e}.st13{fill:#ff7729}.st14{fill:#fb470e}.st15{fill:#ff8a2c}.st16{fill:#ff782a}.st17{fill:#fb3c12}.st18{fill:#ffa428}.st19{fill:#fb7100}.st20{fill:#808183}.st21{fill:#fc7800}.st22{fill:#ff591d}.st23{fill:#fd4114}.st24{fill:#ffaf32}.st25{fill:#ff911b}.st26{fill:#f92}.st27{fill:#ff991a}.st28{fill:#9c9ea0}.st29{fill:#ff9f20}.st30{fill:#b9b9ba}.st31{fill:#ff9528}.st32{fill:#ff991c}.st33{fill:#ff7b0a}.st34{fill:#ff7a23}.st35{fill:#6e6f72}.st36{fill:#fe4117}.st37{fill:#ff992d}.st38{fill:#ff8c28}.st39{fill:#ff9311}.st40{fill:#ff9a18}.st41{fill:#fb3f11}.st42{fill:#ff8213}.st43{fill:#ff7207}.st44{fill:#b9baba}.st45{fill:#ffae5f}.st46{fill:#ff9417}.st47{fill:#ff9620}.st48{fill:#ffa634}.st49{fill:#ff471a}.st50{fill:#ff511e}.st51{fill:#ff9b26}.st52{fill:#ff9625}.st53{fill:#f67408}.st54{fill:#ff7c08}.st55{fill:#ff9213}.st56{fill:#ffa422}.st57{fill:#ff7a02}.st58{fill:#ff8a2d}.st59{fill:#ff631e}.st60{fill:#ff8105}.st61{fill:#ff8506}.st62{fill:#ff8721}.st63{fill:#ff8e23}.st64{fill:#ff5518}.st65{fill:#ff7021}.st66{fill:#ff9230}.st67{fill:#ff771f}.st68{fill:#ff8d27}.st69{fill:#ff8e2c}.st70{fill:#ff4d1a}.st71{fill:#ff4a19}.st72{fill:#ff7728}.st73{fill:#ff913a}.st74{fill:#ff9a19}.st75{fill:#ff9324}.st76{fill:#ff792b}.st77{fill:#ff5018}.st78{fill:#ff4517}.st79{fill:#ff5820}.st80{fill:#ff8519}.st81{fill:#ff9521}.st82{fill:#ff7c24}.st83{fill:#ff852a}.st84{fill:#ff9218}.st85{fill:#ff982e}.st86{fill:#ff901c}.st87{fill:#ff9419}.st88{fill:#ff7b09}.st89{fill:#ff8819}.st90{fill:#ff951e}.st91{fill:#ff7d07}.st92{fill:#ff810a}.st93{fill:#ff581e}.st94{fill:#ff9114}.st95{fill:#ff9a1a}.st96{fill:#ff7b26}.st97{fill:#ff8c30}.st98{fill:#ff541a}.st99{fill:#fd500e}.st100{fill:#ff7d22}.st101{fill:#ff9229}.st102{fill:#ff9a21}.st103{fill:#ff8b17}.st104{fill:#ff9c28}.st105{fill:#ff9e23}.st106{fill:#ff9e1f}.st107{fill:#ff870d}.st108{fill:#ff762b}.st109{fill:#fd4813}.st110{fill:#ff5129}.st111{fill:#ff7b28}.st112{fill:#ff5318}.st113{fill:#ffaa47}.st114{fill:#ff9124}.st115{fill:#ff9126}.st116{fill:#ff7712}.st117{fill:#ff8b20}.st118{fill:#ff921b}.st119{fill:#ff4a17}.st120{fill:#ff542c}.st121{fill:#ff922a}.st122{fill:#ff7818}.st123{fill:#ff5f0d}.st124{fill:#ff6317}.st125{fill:#ff8524}.st126{fill:#ff8828}.st127{fill:#ff7721}.st128{fill:#ff9b39}.st129{fill:#ff9c20}.st130{fill:#ff981a}.st131{fill:#ff9c26}.st132{fill:#ffa02a}.st133{fill:#ff581c}.st134{fill:#f8380e}.st135{fill:#ff971d}.st136{fill:#ff9e21}.st137{fill:#fe5210}.st138{fill:#ff6319}.st139{fill:#f73a0b}.st140{fill:#ff5112}.st141{fill:#fc4610}.st142{fill:#ff961f}.st143{fill:#ff8b19}.st144{fill:#ff8f22}.st145{fill:#ff630c}.st146{fill:#ff9d31}.st147{fill:#fe570e}.st148{fill:#ff7a1b}.st149{fill:#ff9524}.st150{fill:#ff7708}.st151{fill:#ff8914}.st152{fill:#fa5d03}.st153{fill:#ff9b24}.st154{fill:#ff750c}.st155{fill:#f9400d}.st156{fill:#ff5d13}.st157{fill:#fd4f0f}.st158{fill:#fe4814}.st159{fill:#ff5e13}.st160{fill:#ff7924}.st161{fill:#ff7a27}.st162{fill:#f42e00}.st163{fill:#fe4813}.st164{fill:#ff9224}.st165{fill:#fd5d08}.st166{fill:#ff8818}.st167{fill:#ff8f19}.st168{fill:#ff760c}.st169{fill:#ff8a15}.st170{fill:#ff710c}.st171{fill:#ff901e}.st172{fill:#f95c02}.st173{fill:#ff6412}.st174{fill:#ff7216}.st175{fill:#fb4e0c}.st176{fill:#ff6a19}.st177{fill:#ff9d30}.st178{fill:#ef3b0a}.st179{fill:#fb530a}.st180{fill:#ff821a}.st181{fill:#ff5c14}.st182{fill:#f44719}.st183{fill:#ff8127}.st184{fill:#ff5012}.st185{fill:#ff6716}.st186{fill:#ff9724}.st187{fill:#ff8c1e}.st188{fill:#f64a03}.st189{fill:#ffa730}.st190{fill:#fa5606}.st191{fill:#ff9e2e}.st192{fill:#ff811f}.st193{fill:#fc550a}.st194{fill:#ff831d}.st195{fill:#ff6816}.st196{fill:#f74707}.st197{fill:#fff;stroke:#fff;stroke-width:.5;stroke-miterlimit:10}.st198{fill:#96a91a}.st199{fill:#b8ce2b}.st200{fill:#a9c015}.st201{fill:#c9d676}</style><path class="st1" d="M311.9 428.8l-1-5.6 11.9-21.7-11.6-18.4 4.5-11.3-10.9-8.5-1.5-23-21.7-9.7-4-9.3-6.3-2.1-9.6-15.1-20.1.9-17-15.1-15.5 5.3-4.9-2.7-12.4 6-23.7-5.1-9.4 10-6.6-.9-9.2 14.3-26.4 8.3-5.7 23.7-4.7 3.5-.3 5.3-2.3 2.3.1 3.2-15.9 17.5 6.9 18.5-5.8 10.8 6.2 10.8-4.2 18.1 16 16.3 1.8 14.3 10.4 5.1 7.2 21.9 24.3 4.2 8.1 10.6 11.8-.4 14.3 10.5 18.4-7 20.8 8.1 8.9-7.6 7.9 1.6 13.2-14.6 23.4-2.8 6.1-15.3 4.4-1.9 4-12.9 21.1-14.1-2.7-23.5z" id="path3363" fill="#f4a73b"/><path class="st2" d="M287 450.4l-5.1 10.4 10.4-22.8z" id="path3365" fill="#898a8d"/><path class="st3" d="M250.3 495.4l-7.3 2.9 20.7-15.2z" id="path3367" fill="#a0a1a3"/><path class="st4" d="M306 389.5l-8.8-27.6 8.1 14.6z" id="path3369" fill="#8d8e91"/><path class="st5" d="M153.8 496.1l-7.7-4.3 25.5 9.1z" id="path3371" fill="#6c6e70"/><path class="st6" d="M311.9 428.8l-7.6 11.1 5.3-24.8z" id="path3373" fill="#ff7308"/><path class="st7" d="M103.7 371.2l-.2-11.3 12.7-12.4z" id="path3375" fill="#ffa64a"/><path class="st8" d="M260.2 493.6l16.7-9.2 10.9-2.6z" id="path3377" fill="#a0a0a0"/><path class="st9" d="M287.8 481.8l-10.9 2.6 16.4-20.3z" id="path3379" fill="#ff8a22"/><path class="st10" d="M264.2 318l13.4 3.3 6.4 14.9z" id="path3381" fill="#ff7c00"/><path class="st11" d="M249.5 312l28.1 9.3-13.4-3.3z" id="path3383" fill="#ffab30"/><path class="st12" d="M107.8 451.5l15.9 25.2-15.1-7.3z" id="path3385" fill="#ff521e"/><path class="st13" d="M107.8 451.5l.8 17.9-4.1-32z" id="path3387" fill="#ff7729"/><path class="st14" d="M240.7 516.4l-27.9-5.8 18 .8z" id="path3389" fill="#fb470e"/><path class="st15" d="M240.7 516.4l-9.9-5 24.4-11.1z" id="path3391" fill="#ff8a2c"/><path class="st16" d="M98.4 422.7l6.1 14.7-15.7-27.5z" id="path3393" fill="#ff782a"/><path class="st13" d="M96.2 396l2.2 26.7-9.6-12.8z" id="path3395" fill="#ff7729"/><path class="st17" d="M212.8 510.6l-28.1 10.7 18.9-8.2z" id="path3397" fill="#fb3c12"/><path class="st18" d="M224.6 289.9l24.9 22.1-9.9-6.9z" id="path3399" fill="#ffa428"/><path class="st19" d="M322.8 401.5l-13.3-14.1-4.1-13.6z" id="path3401" fill="#fb7100"/><path class="st20" d="M309.5 387.4l-8.4-27 4.3 13.4z" id="path3403" fill="#808183"/><path class="st21" d="M305.4 373.8l-4.3-13.4 2.2-20.1z" id="path3405" fill="#fc7800"/><path class="st22" d="M184.7 521.3l-10.6-13.1 29.5 4.9z" id="path3407" fill="#ff591d"/><path class="st23" d="M184.7 521.3L158.5 502l15.6 6.2z" id="path3409" fill="#fd4114"/><path class="st24" d="M163.3 306l-15.8 9.4 20.6-22z" id="path3411" fill="#ffaf32"/><path class="st25" d="M168.1 293.4l28.2 6.1-8.8 1z" id="path3413" fill="#ff911b"/><path class="st26" d="M163.3 306l4.8-12.6 19.4 7.1z" id="path3415" fill="#f92"/><path class="st27" d="M213.3 299.4l11.3-9.5 15 15.2z" id="path3417" fill="#ff991a"/><path class="st28" d="M196.3 299.5l17-.1-25.8 1.1z" id="path3419" fill="#9c9ea0"/><path class="st29" d="M196.3 299.5l28.3-9.6-11.3 9.5z" id="path3421" fill="#ff9f20"/><path class="st30" d="M140 321.1l7.5-5.7 15.8-9.4z" id="path3423" fill="#b9b9ba"/><path class="st31" d="M140 321.1l-23.5 4 31-9.7z" id="path3425" fill="#ff9528"/><path class="st32" d="M322.8 401.5l-13.7 9.9.4-24z" id="path3427" fill="#ff991c"/><path class="st33" d="M309.5 425.8l-.4-14.4 13.7-9.9z" id="path3429" fill="#ff7b0a"/><path class="st34" d="M230.8 511.4l16.1-8.8 8.3-2.3z" id="path3431" fill="#ff7a23"/><path class="st13" d="M97.9 408l.5 14.7-2.2-26.7z" id="path3433" fill="#ff7729"/><path class="st35" d="M158.5 502l-11.4-6 27 12.2z" id="path3435" fill="#6e6f72"/><path class="st36" d="M158.5 502l-32.3-5.6 20.9-.4z" id="path3437" fill="#fe4117"/><path class="st37" d="M118.5 344.4l-2-19.3 23.5-4z" id="path3439" fill="#ff992d"/><path class="st38" d="M118.5 344.4l-9.9 13.1 7.9-32.4z" id="path3441" fill="#ff8c28"/><path class="st39" d="M277.3 328.7l26 11.6-16.4 2.5z" id="path3443" fill="#ff9311"/><path class="st40" d="M286.9 342.8l16.4-2.5-2.2 20.1z" id="path3445" fill="#ff9a18"/><path class="st41" d="M174.1 508.2l17.7 1.8 11.8 3.1z" id="path3447" fill="#fb3f11"/><path class="st42" d="M312.9 454.8l-9.5-22.7 6.1-6.3z" id="path3449" fill="#ff8213"/><path class="st43" d="M303.4 432.1l5.7-20.7.4 14.4z" id="path3451" fill="#ff7207"/><path class="st44" d="M105.3 369.2l3.3-11.7 9.9-13.1z" id="path3453" fill="#b9baba"/><path class="st45" d="M105.3 369.2l-17.6 11.4 20.9-23.1z" id="path3455" fill="#ffae5f"/><path class="st46" d="M213.3 299.4l26.3 5.7-8.8 1.4z" id="path3457" fill="#ff9417"/><path class="st24" d="M230.8 306.5l8.8-1.4 22.1-1z" id="path3459" fill="#ffaf32"/><path class="st47" d="M163.3 306l24.2-5.5-7.3 5.7z" id="path3461" fill="#ff9620"/><path class="st48" d="M118.5 344.4l21.5-23.3-7 11.1z" id="path3463" fill="#ffa634"/><path class="st49" d="M128 474.3l19.1 21.7-20.9.4z" id="path3465" fill="#ff471a"/><path class="st50" d="M128 474.3l-1.8 22.1-10.6-32.2z" id="path3467" fill="#ff511e"/><path class="st51" d="M312.9 454.8l-20-1.7 10.5-21z" id="path3469" fill="#ff9b26"/><path class="st52" d="M288.2 471.3l4.7-18.2 20 1.7z" id="path3471" fill="#ff9625"/><path class="st53" d="M309.5 387.4l-5.5 4.5 11.7-20.1z" id="path3473" fill="#f67408"/><path class="st54" d="M309.1 411.4l-5.1-19.5 5.5-4.5z" id="path3475" fill="#ff7c08"/><path class="st55" d="M295.2 363.8l5.9-3.4 14.6 11.4z" id="path3477" fill="#ff9213"/><path class="st56" d="M295.2 363.8l20.5 8-11.7 20.1z" id="path3479" fill="#ffa422"/><path class="st57" d="M286.9 342.8l14.2 17.6-5.9 3.4z" id="path3481" fill="#ff7a02"/><path class="st58" d="M105.3 369.2l-2.2 24-15.4-12.6z" id="path3483" fill="#ff8a2d"/><path class="st59" d="M103.1 393.2L97.9 408l-10.2-27.4z" id="path3485" fill="#ff631e"/><path class="st60" d="M277.3 328.7l9.6 14.1-16.9-12.1z" id="path3487" fill="#ff8105"/><path class="st61" d="M261.7 304.1l15.6 24.6-7.3 2z" id="path3489" fill="#ff8506"/><path class="st24" d="M180.2 306.2l7.3-5.7 16.7-8z" id="path3491" fill="#ffaf32"/><path class="st62" d="M277.3 499l.7-27.6 10.2-.1z" id="path3493" fill="#ff8721"/><path class="st63" d="M278 471.4l14.9-18.3-4.7 18.2z" id="path3495" fill="#ff8e23"/><path class="st64" d="M223.9 522.4L191.8 510l19.7-4.2z" id="path3497" fill="#ff5518"/><path class="st65" d="M223.9 522.4l-12.4-16.6 26.1-7.1z" id="path3499" fill="#ff7021"/><path class="st66" d="M223.9 522.4l13.7-23.7 9.3 3.9z" id="path3501" fill="#ff9230"/><path class="st67" d="M246.9 502.6l11.8-15.6 18.6 12z" id="path3503" fill="#ff771f"/><path class="st68" d="M277.3 499l-18.6-12 19.3-15.6z" id="path3505" fill="#ff8d27"/><path class="st69" d="M237.6 498.7l21.1-11.7-11.8 15.6z" id="path3507" fill="#ff8e2c"/><path class="st70" d="M113.8 446.9l1.8 17.3-24.8-25.4z" id="path3509" fill="#ff4d1a"/><path class="st71" d="M128 474.3l-12.4-10.1-1.8-17.3z" id="path3511" fill="#ff4a19"/><path class="st17" d="M105.7 418.9l8.1 28-23-8.1z" id="path3513" fill="#fb3c12"/><path class="st72" d="M105.7 418.9L97.9 408l5.2-14.8z" id="path3515" fill="#ff7728"/><path class="st73" d="M105.7 418.9l-14.9 19.9 7.1-30.8z" id="path3517" fill="#ff913a"/><path class="st74" d="M248.4 321.1l13.3-17 8.3 26.6z" id="path3519" fill="#ff9a19"/><path class="st55" d="M230.8 306.5l30.9-2.4-13.3 17z" id="path3521" fill="#ff9213"/><path class="st75" d="M152.9 324.9l-19.9 7.3 19.1-29.7z" id="path3523" fill="#ff9324"/><path class="st76" d="M191.8 510l-33.2 1.2 24.2-10.1z" id="path3525" fill="#ff792b"/><path class="st77" d="M191.8 510l-9-8.9 28.7 4.7z" id="path3527" fill="#ff5018"/><path class="st78" d="M145.5 481.7l1.6 14.3-19.1-21.7z" id="path3529" fill="#ff4517"/><path class="st79" d="M145.5 481.7l13.1 29.5-11.5-15.2z" id="path3531" fill="#ff5820"/><path class="st80" d="M152.9 324.9l-.8-22.4 25.2 13.6z" id="path3533" fill="#ff8519"/><path class="st81" d="M152.1 302.5l28.1 3.7-2.9 9.9z" id="path3535" fill="#ff9521"/><path class="st82" d="M106.1 352.3l7.4 27.2-8.2-10.3z" id="path3537" fill="#ff7c24"/><path class="st83" d="M113.5 379.5l-10.4 13.7 2.2-24z" id="path3539" fill="#ff852a"/><path class="st32" d="M230.8 306.5l17.6 14.6-23.5-4.7z" id="path3541" fill="#ff991c"/><path class="st84" d="M204.2 292.5l26.6 14-5.9 9.9z" id="path3543" fill="#ff9218"/><path class="st48" d="M132.3 347.4l.7-15.2 19.9-7.3z" id="path3545" fill="#ffa634"/><path class="st85" d="M132.3 347.4l-26.2 4.9 26.9-20.1z" id="path3547" fill="#ff982e"/><path class="st18" d="M180.2 306.2l24-13.7-4 22.5z" id="path3549" fill="#ffa428"/><path class="st33" d="M200.2 315l4-22.5 20.7 23.9z" id="path3551" fill="#ff7b0a"/><path class="st86" d="M180.2 306.2l20 8.8-22.9 1.1z" id="path3553" fill="#ff901c"/><path class="st87" d="M295.2 363.8l8.8 28.1-14.2-10.9z" id="path3555" fill="#ff9419"/><path class="st88" d="M289.8 381l14.2 10.9 6.4 20.2z" id="path3557" fill="#ff7b09"/><path class="st89" d="M292.9 453.1l-1.9-22.7 12.4 1.7z" id="path3559" fill="#ff8819"/><path class="st90" d="M303.4 432.1l-12.4-1.7 19.4-18.3z" id="path3561" fill="#ff951e"/><path class="st91" d="M270 330.7l16.9 12.1 2.1 2.1z" id="path3563" fill="#ff7d07"/><path class="st92" d="M289 344.9l6.2 18.9-5.4 17.2z" id="path3565" fill="#ff810a"/><path class="st23" d="M165.7 484.9l-7.1 26.3-13.1-29.5z" id="path3567" fill="#fd4114"/><path class="st93" d="M165.7 484.9l17.1 16.2-24.2 10.1z" id="path3569" fill="#ff581e"/><path class="st94" d="M248.4 321.1l21.6 9.6-7.7 10.2z" id="path3571" fill="#ff9114"/><path class="st95" d="M262.3 340.9l7.7-10.2 19 14.2z" id="path3573" fill="#ff9a1a"/><path class="st96" d="M211.5 505.8l10.2-14.5 15.9 7.4z" id="path3575" fill="#ff7b26"/><path class="st97" d="M211.5 505.8l-9.8 3.3 20-17.8z" id="path3577" fill="#ff8c30"/><path class="st98" d="M120.8 430.1l-7 16.8-8.1-28z" id="path3579" fill="#ff541a"/><path class="st99" d="M128.2 370.1l-14.7 9.4-7.4-27.2z" id="path3581" fill="#fd500e"/><path class="st100" d="M132.3 347.4l-4.1 22.7-22.1-17.8z" id="path3583" fill="#ff7d22"/><path class="st101" d="M258.7 487l3-20.9 16.3 5.3z" id="path3585" fill="#ff9229"/><path class="st102" d="M289.8 381l20.6 31.1-28.4-11.9z" id="path3587" fill="#ff9a21"/><path class="st103" d="M282 400.2l28.4 11.9-19.4 18.3z" id="path3589" fill="#ff8b17"/><path class="st104" d="M152.9 324.9l24.4-8.8-6.5 17.7z" id="path3591" fill="#ff9c28"/><path class="st105" d="M289.8 381l-7.8 19.2-10-32.1z" id="path3593" fill="#ff9e23"/><path class="st106" d="M289 344.9l.8 36.1-17.8-12.9z" id="path3595" fill="#ff9e1f"/><path class="st107" d="M262.3 340.9l26.7 4-17 23.2z" id="path3597" fill="#ff870d"/><path class="st17" d="M121.8 463.6l23.7 18.1-17.5-7.4z" id="path3599" fill="#fb3c12"/><path class="st108" d="M120.8 430.1l1 33.5-8-16.7z" id="path3601" fill="#ff762b"/><path class="st109" d="M192.1 486.3l9.6 22.8-18.9-8z" id="path3603" fill="#fd4813"/><path class="st110" d="M192.1 486.3l-9.3 14.8-17.1-16.2z" id="path3605" fill="#ff5129"/><path class="st111" d="M192.1 486.3l29.6 5-20 17.8z" id="path3607" fill="#ff7b28"/><path class="st112" d="M104.9 402l15.9 28.1-15.1-11.2z" id="path3609" fill="#ff5318"/><path class="st113" d="M113.5 379.5l-8.6 22.5-1.8-8.8z" id="path3611" fill="#ffaa47"/><path class="st72" d="M104.9 402l.8 16.9-2.6-25.7z" id="path3613" fill="#ff7728"/><path class="st114" d="M143.2 330.7l9.7-5.8 17.9 8.9z" id="path3615" fill="#ff9124"/><path class="st115" d="M278 471.4l-16.3-5.3 24.8-12z" id="path3617" fill="#ff9126"/><path class="st116" d="M292.9 453.1l-6.4 1 4.5-23.7z" id="path3619" fill="#ff7712"/><path class="st117" d="M278 471.4l8.5-17.3 6.4-1z" id="path3621" fill="#ff8b20"/><path class="st118" d="M200.2 315l24.7 1.4-7.8 14z" id="path3623" fill="#ff921b"/><path class="st119" d="M154.1 464.8l-8.6 16.9-23.7-18.1z" id="path3625" fill="#ff4a17"/><path class="st120" d="M165.7 484.9l-20.2-3.2 8.6-16.9z" id="path3627" fill="#ff542c"/><path class="st121" d="M149.6 357.1l-21.4 13 4.1-22.7z" id="path3629" fill="#ff922a"/><path class="st122" d="M143.2 330.7l27.6 3.1-21.2 23.3z" id="path3631" fill="#ff7818"/><path class="st123" d="M143.2 330.7l6.4 26.4-17.3-9.7z" id="path3633" fill="#ff5f0d"/><path class="st124" d="M237.6 498.7l-15.9-7.4 25.8-2.4z" id="path3635" fill="#ff6317"/><path class="st125" d="M258.7 487l-11.2 1.9 14.2-22.8z" id="path3637" fill="#ff8524"/><path class="st126" d="M237.6 498.7l9.9-9.8 11.2-1.9z" id="path3639" fill="#ff8828"/><path class="st127" d="M131.6 391.2l-18.1-11.7 14.7-9.4z" id="path3641" fill="#ff7721"/><path class="st128" d="M131.6 391.2L104.9 402l8.6-22.5z" id="path3643" fill="#ff9b39"/><path class="st129" d="M217.1 330.4l7.8-14 20.6 10z" id="path3645" fill="#ff9c20"/><path class="st130" d="M224.9 316.4l23.5 4.7-2.9 5.3z" id="path3647" fill="#ff981a"/><path class="st91" d="M245.5 326.4l2.9-5.3 13.9 19.8z" id="path3649" fill="#ff7d07"/><path class="st131" d="M282 400.2l9 30.2-21.8-10.1z" id="path3651" fill="#ff9c26"/><path class="st132" d="M269.2 420.3l21.8 10.1-4.5 23.7z" id="path3653" fill="#ffa02a"/><path class="st133" d="M143.3 441l-21.5 22.6-1-33.5z" id="path3655" fill="#ff581c"/><path class="st134" d="M143.3 441l10.8 23.8-32.3-1.2z" id="path3657" fill="#f8380e"/><path class="st135" d="M262.3 340.9l9.7 27.2-22.6-9.2z" id="path3659" fill="#ff971d"/><path class="st136" d="M245.5 326.4l16.8 14.5-12.9 18z" id="path3661" fill="#ff9e21"/><path class="st137" d="M213.3 472.3l34.2 16.6-25.8 2.4z" id="path3663" fill="#fe5210"/><path class="st138" d="M213.3 472.3l8.4 19-29.6-5z" id="path3665" fill="#ff6319"/><path class="st139" d="M143.3 441l-22.5-10.9 15.5-14z" id="path3667" fill="#f73a0b"/><path class="st140" d="M131.6 391.2l4.7 24.9-31.4-14.1z" id="path3669" fill="#ff5112"/><path class="st141" d="M136.3 416.1l-15.5 14-15.9-28.1z" id="path3671" fill="#fc4610"/><path class="st142" d="M193.1 321.2l7.1-6.2 16.9 15.4z" id="path3673" fill="#ff961f"/><path class="st143" d="M177.3 316.1l22.9-1.1-7.1 6.2z" id="path3675" fill="#ff8b19"/><path class="st11" d="M170.8 333.8l6.5-17.7 15.8 5.1z" id="path3677" fill="#ffab30"/><path class="st144" d="M269.2 420.3l17.3 33.8-33.3-14.6z" id="path3679" fill="#ff8f22"/><path class="st145" d="M253.2 439.5l33.3 14.6-24.8 12z" id="path3681" fill="#ff630c"/><path class="st146" d="M233.9 457.8l27.8 8.3-14.2 22.8z" id="path3683" fill="#ff9d31"/><path class="st147" d="M233.9 457.8l13.6 31.1-34.2-16.6z" id="path3685" fill="#fe570e"/><path class="st148" d="M253.2 439.5l8.5 26.6-27.8-8.3z" id="path3687" fill="#ff7a1b"/><path class="st149" d="M170.8 333.8l22.3-12.6-18.4 33.1z" id="path3689" fill="#ff9524"/><path class="st9" d="M170.8 333.8l3.9 20.5-25.1 2.8z" id="path3691" fill="#ff8a22"/><path class="st150" d="M217.1 330.4l28.4-4-20.8 26.4z" id="path3693" fill="#ff7708"/><path class="st151" d="M245.5 326.4l3.9 32.5-24.7-6.1z" id="path3695" fill="#ff8914"/><path class="st152" d="M193.1 321.2l5.7 29.4-24.1 3.7z" id="path3697" fill="#fa5d03"/><path class="st153" d="M193.1 321.2l24 9.2-18.3 20.2z" id="path3699" fill="#ff9b24"/><path class="st154" d="M217.1 330.4l7.6 22.4-25.9-2.2z" id="path3701" fill="#ff750c"/><path class="st155" d="M169.9 447.9l-15.8 16.9-10.8-23.8z" id="path3703" fill="#f9400d"/><path class="st156" d="M233.9 457.8l-20.6 14.5-12.4-20.5z" id="path3705" fill="#ff5d13"/><path class="st157" d="M154.8 400.6l-18.5 15.5-4.7-24.9z" id="path3707" fill="#fd4f0f"/><path class="st158" d="M177.5 475.9l14.6 10.4-26.4-1.4z" id="path3709" fill="#fe4814"/><path class="st159" d="M169.9 447.9l31 3.9-23.4 24.1z" id="path3711" fill="#ff5e13"/><path class="st160" d="M200.9 451.8l12.4 20.5-35.8 3.6z" id="path3713" fill="#ff7924"/><path class="st161" d="M177.5 475.9l35.8-3.6-21.2 14z" id="path3715" fill="#ff7a27"/><path class="st162" d="M169.9 447.9l7.6 28-23.4-11.1z" id="path3717" fill="#f42e00"/><path class="st163" d="M177.5 475.9l-11.8 9-11.6-20.1z" id="path3719" fill="#fe4813"/><path class="st164" d="M269.2 420.3l-16 19.2-12-30.4z" id="path3721" fill="#ff9224"/><path class="st165" d="M198.8 350.6l-23.3 26.2-.8-22.5z" id="path3723" fill="#fd5d08"/><path class="st166" d="M249.4 358.9L231 379.4l-6.3-26.6z" id="path3725" fill="#ff8818"/><path class="st167" d="M272 368.1l10 32.1-16.5-14.9z" id="path3727" fill="#ff8f19"/><path class="st168" d="M249.4 358.9l16.1 26.4-34.5-5.9z" id="path3729" fill="#ff760c"/><path class="st169" d="M249.4 358.9l22.6 9.2-6.5 17.2z" id="path3731" fill="#ff8a15"/><path class="st170" d="M265.5 385.3l3.7 35-28-11.2z" id="path3733" fill="#ff710c"/><path class="st171" d="M265.5 385.3l16.5 14.9-12.8 20.1z" id="path3735" fill="#ff901e"/><path class="st172" d="M231 379.4l34.5 5.9-24.3 23.8z" id="path3737" fill="#f95c02"/><path class="st173" d="M144.4 375.3l31.1 1.5-20.7 23.8z" id="path3739" fill="#ff6412"/><path class="st174" d="M174.7 354.3l.8 22.5-31.1-1.5z" id="path3741" fill="#ff7216"/><path class="st175" d="M144.4 375.3l10.4 25.3-23.2-9.4z" id="path3743" fill="#fb4e0c"/><path class="st176" d="M144.4 375.3l-12.8 15.9-3.4-21.1z" id="path3745" fill="#ff6a19"/><path class="st113" d="M149.6 357.1l-5.2 18.2-16.2-5.2z" id="path3747" fill="#ffaa47"/><path class="st177" d="M149.6 357.1l25.1-2.8-30.3 21z" id="path3749" fill="#ff9d30"/><path class="st178" d="M190.6 427l10.3 24.8-31-3.9z" id="path3751" fill="#ef3b0a"/><path class="st179" d="M175.5 376.8l6.2 25.1-26.9-1.3z" id="path3753" fill="#fb530a"/><path class="st110" d="M211.1 402.5L190.6 427l-8.9-25.1z" id="path3755" fill="#ff5129"/><path class="st180" d="M231 379.4l10.2 29.7-30.1-6.6z" id="path3757" fill="#ff821a"/><path class="st181" d="M156.7 427.8l33.9-.8-20.7 20.9z" id="path3759" fill="#ff5c14"/><path class="st182" d="M156.7 427.8l13.2 20.1-26.6-6.9z" id="path3761" fill="#f44719"/><path class="st183" d="M154.8 400.6l1.9 27.2-20.4-11.7z" id="path3763" fill="#ff8127"/><path class="st184" d="M156.7 427.8L143.3 441l-7-24.9z" id="path3765" fill="#ff5012"/><path class="st67" d="M181.7 401.9l8.9 25.1-33.9.8z" id="path3767" fill="#ff771f"/><path class="st185" d="M154.8 400.6l26.9 1.3-25 25.9z" id="path3769" fill="#ff6716"/><path class="st117" d="M201.5 370.5l29.5 8.9-19.9 23.1z" id="path3771" fill="#ff8b20"/><path class="st186" d="M224.7 352.8l6.3 26.6-29.5-8.9z" id="path3773" fill="#ff9724"/><path class="st187" d="M198.8 350.6l25.9 2.2-23.2 17.7z" id="path3775" fill="#ff8c1e"/><path class="st188" d="M201.5 370.5l9.6 32-29.4-.6z" id="path3777" fill="#f64a03"/><path class="st189" d="M198.8 350.6l2.7 19.9-26 6.3z" id="path3779" fill="#ffa730"/><path class="st190" d="M175.5 376.8l26-6.3-19.8 31.4z" id="path3781" fill="#fa5606"/><path class="st191" d="M241.2 409.1l12 30.4-29.3-5.1z" id="path3783" fill="#ff9e2e"/><path class="st192" d="M223.9 434.4l29.3 5.1-19.3 18.3z" id="path3785" fill="#ff811f"/><path class="st193" d="M211.1 402.5l12.8 31.9-33.3-7.4z" id="path3787" fill="#fc550a"/><path class="st194" d="M211.1 402.5l30.1 6.6-17.3 25.3z" id="path3789" fill="#ff831d"/><path class="st195" d="M223.9 434.4l10 23.4-33-6z" id="path3791" fill="#ff6816"/><path class="st196" d="M190.6 427l33.3 7.4-23 17.4z" id="path3793" fill="#f74707"/><path class="st198" d="M106.1 287.6l23.2 9.9 8.7 20.8z" id="path3795" fill="#96a91a"/><path class="st199" d="M133 288.8l5 29.5-8.7-20.8-8-17.6z" id="path3797" fill="#b8ce2b"/><path class="st200" d="M89.1 279.9l17 7.7 23.2 9.9-8-17.6z" id="path3799" fill="#a9c015"/><path class="st201" d="M107.5 267.3l13.8 12.6H89.1z" id="path3801" fill="#c9d676"/><path class="st198" d="M81 267.3h26.5l-18.4 12.6z" id="path3803" fill="#96a91a"/><path class="st200" d="M107.5 267.3l17.9 1.3-16.2-10.3-28.2 9z" id="path3805" fill="#a9c015"/><path class="st199" d="M133.8 268.6h-8.4l-16.2-10.3z" id="path3807" fill="#b8ce2b"/><path class="st198" d="M133 288.8l-7.6-20.2-17.9-1.3 13.8 12.6zm9.9 28l-9.9-28 5 29.5z" id="path3809" fill="#96a91a"/><path class="st200" d="M133.8 268.6l9.1 48.2-9.9-28-7.6-20.2z" id="path3811" fill="#a9c015"/></svg>