<?xml version="1.0" encoding="UTF-8" standalone="no"?>
<svg
   xmlns:dc="http://purl.org/dc/elements/1.1/"
   xmlns:cc="http://creativecommons.org/ns#"
   xmlns:rdf="http://www.w3.org/1999/02/22-rdf-syntax-ns#"
   xmlns:svg="http://www.w3.org/2000/svg"
   xmlns="http://www.w3.org/2000/svg"
   xmlns:sodipodi="http://sodipodi.sourceforge.net/DTD/sodipodi-0.dtd"
   xmlns:inkscape="http://www.inkscape.org/namespaces/inkscape"
   id="Layer_1"
   viewBox="81 258.3 241.80001 264.1"
   version="1.1"
   inkscape:version="0.91 r13725"
   sodipodi:docname="smart_logo_or.svg"
   width="241.8"
   height="264.10001">
  <metadata
     id="metadata3817">
    <rdf:RDF>
      <cc:Work
         rdf:about="">
        <dc:format>image/svg+xml</dc:format>
        <dc:type
           rdf:resource="http://purl.org/dc/dcmitype/StillImage" />
        <dc:title></dc:title>
      </cc:Work>
    </rdf:RDF>
  </metadata>
  <defs
     id="defs3815" />
  <sodipodi:namedview
     pagecolor="#ffffff"
     bordercolor="#666666"
     borderopacity="1"
     objecttolerance="10"
     gridtolerance="10"
     guidetolerance="10"
     inkscape:pageopacity="0"
     inkscape:pageshadow="2"
     inkscape:window-width="1366"
     inkscape:window-height="705"
     id="namedview3813"
     showgrid="false"
     fit-margin-top="0"
     fit-margin-left="0"
     fit-margin-right="0"
     fit-margin-bottom="0"
     inkscape:zoom="0.49498418"
     inkscape:cx="293.94532"
     inkscape:cy="125.70001"
     inkscape:window-x="-8"
     inkscape:window-y="-8"
     inkscape:window-maximized="1"
     inkscape:current-layer="Layer_1" />
  <style
     id="style3361">.st0{enable-background:new}.st1{fill:#f4a73b}.st2{fill:#898a8d}.st3{fill:#a0a1a3}.st4{fill:#8d8e91}.st5{fill:#6c6e70}.st6{fill:#ff7308}.st7{fill:#ffa64a}.st8{fill:#a0a0a0}.st9{fill:#ff8a22}.st10{fill:#ff7c00}.st11{fill:#ffab30}.st12{fill:#ff521e}.st13{fill:#ff7729}.st14{fill:#fb470e}.st15{fill:#ff8a2c}.st16{fill:#ff782a}.st17{fill:#fb3c12}.st18{fill:#ffa428}.st19{fill:#fb7100}.st20{fill:#808183}.st21{fill:#fc7800}.st22{fill:#ff591d}.st23{fill:#fd4114}.st24{fill:#ffaf32}.st25{fill:#ff911b}.st26{fill:#F92}.st27{fill:#ff991a}.st28{fill:#9c9ea0}.st29{fill:#ff9f20}.st30{fill:#b9b9ba}.st31{fill:#ff9528}.st32{fill:#ff991c}.st33{fill:#ff7b0a}.st34{fill:#ff7a23}.st35{fill:#6e6f72}.st36{fill:#fe4117}.st37{fill:#ff992d}.st38{fill:#ff8c28}.st39{fill:#ff9311}.st40{fill:#ff9a18}.st41{fill:#fb3f11}.st42{fill:#ff8213}.st43{fill:#ff7207}.st44{fill:#b9baba}.st45{fill:#ffae5f}.st46{fill:#ff9417}.st47{fill:#ff9620}.st48{fill:#ffa634}.st49{fill:#ff471a}.st50{fill:#ff511e}.st51{fill:#ff9b26}.st52{fill:#ff9625}.st53{fill:#f67408}.st54{fill:#ff7c08}.st55{fill:#ff9213}.st56{fill:#ffa422}.st57{fill:#ff7a02}.st58{fill:#ff8a2d}.st59{fill:#ff631e}.st60{fill:#ff8105}.st61{fill:#ff8506}.st62{fill:#ff8721}.st63{fill:#ff8e23}.st64{fill:#ff5518}.st65{fill:#ff7021}.st66{fill:#ff9230}.st67{fill:#ff771f}.st68{fill:#ff8d27}.st69{fill:#ff8e2c}.st70{fill:#ff4d1a}.st71{fill:#ff4a19}.st72{fill:#ff7728}.st73{fill:#ff913a}.st74{fill:#ff9a19}.st75{fill:#ff9324}.st76{fill:#ff792b}.st77{fill:#ff5018}.st78{fill:#ff4517}.st79{fill:#ff5820}.st80{fill:#ff8519}.st81{fill:#ff9521}.st82{fill:#ff7c24}.st83{fill:#ff852a}.st84{fill:#ff9218}.st85{fill:#ff982e}.st86{fill:#ff901c}.st87{fill:#ff9419}.st88{fill:#ff7b09}.st89{fill:#ff8819}.st90{fill:#ff951e}.st91{fill:#ff7d07}.st92{fill:#ff810a}.st93{fill:#ff581e}.st94{fill:#ff9114}.st95{fill:#ff9a1a}.st96{fill:#ff7b26}.st97{fill:#ff8c30}.st98{fill:#ff541a}.st99{fill:#fd500e}.st100{fill:#ff7d22}.st101{fill:#ff9229}.st102{fill:#ff9a21}.st103{fill:#ff8b17}.st104{fill:#ff9c28}.st105{fill:#ff9e23}.st106{fill:#ff9e1f}.st107{fill:#ff870d}.st108{fill:#ff762b}.st109{fill:#fd4813}.st110{fill:#ff5129}.st111{fill:#ff7b28}.st112{fill:#ff5318}.st113{fill:#ffaa47}.st114{fill:#ff9124}.st115{fill:#ff9126}.st116{fill:#ff7712}.st117{fill:#ff8b20}.st118{fill:#ff921b}.st119{fill:#ff4a17}.st120{fill:#ff542c}.st121{fill:#ff922a}.st122{fill:#ff7818}.st123{fill:#ff5f0d}.st124{fill:#ff6317}.st125{fill:#ff8524}.st126{fill:#ff8828}.st127{fill:#ff7721}.st128{fill:#ff9b39}.st129{fill:#ff9c20}.st130{fill:#ff981a}.st131{fill:#ff9c26}.st132{fill:#ffa02a}.st133{fill:#ff581c}.st134{fill:#f8380e}.st135{fill:#ff971d}.st136{fill:#ff9e21}.st137{fill:#fe5210}.st138{fill:#ff6319}.st139{fill:#f73a0b}.st140{fill:#ff5112}.st141{fill:#fc4610}.st142{fill:#ff961f}.st143{fill:#ff8b19}.st144{fill:#ff8f22}.st145{fill:#ff630c}.st146{fill:#ff9d31}.st147{fill:#fe570e}.st148{fill:#ff7a1b}.st149{fill:#ff9524}.st150{fill:#ff7708}.st151{fill:#ff8914}.st152{fill:#fa5d03}.st153{fill:#ff9b24}.st154{fill:#ff750c}.st155{fill:#f9400d}.st156{fill:#ff5d13}.st157{fill:#fd4f0f}.st158{fill:#fe4814}.st159{fill:#ff5e13}.st160{fill:#ff7924}.st161{fill:#ff7a27}.st162{fill:#f42e00}.st163{fill:#fe4813}.st164{fill:#ff9224}.st165{fill:#fd5d08}.st166{fill:#ff8818}.st167{fill:#ff8f19}.st168{fill:#ff760c}.st169{fill:#ff8a15}.st170{fill:#ff710c}.st171{fill:#ff901e}.st172{fill:#f95c02}.st173{fill:#ff6412}.st174{fill:#ff7216}.st175{fill:#fb4e0c}.st176{fill:#ff6a19}.st177{fill:#ff9d30}.st178{fill:#ef3b0a}.st179{fill:#fb530a}.st180{fill:#ff821a}.st181{fill:#ff5c14}.st182{fill:#f44719}.st183{fill:#ff8127}.st184{fill:#ff5012}.st185{fill:#ff6716}.st186{fill:#ff9724}.st187{fill:#ff8c1e}.st188{fill:#f64a03}.st189{fill:#ffa730}.st190{fill:#fa5606}.st191{fill:#ff9e2e}.st192{fill:#ff811f}.st193{fill:#fc550a}.st194{fill:#ff831d}.st195{fill:#ff6816}.st196{fill:#f74707}.st197{fill:#FFF;stroke:#FFF;stroke-width:.5;stroke-miterlimit:10}.st198{fill:#96a91a}.st199{fill:#b8ce2b}.st200{fill:#a9c015}.st201{fill:#c9d676}</style>
  <path
     class="st1"
     d="m 311.9,428.79999 -1,-5.6 11.9,-21.7 -11.6,-18.4 4.5,-11.3 -10.9,-8.5 -1.5,-23 -21.7,-9.7 -4,-9.3 -6.3,-2.1 -9.6,-15.1 -20.1,0.9 -17,-15.1 -15.5,5.3 -4.9,-2.7 -12.4,6 -23.7,-5.1 -9.4,10 -6.6,-0.9 -9.2,14.3 -26.4,8.3 -5.7,23.7 -4.7,3.5 -0.3,5.3 -2.3,2.3 0.1,3.2 -15.9,17.5 6.9,18.5 -5.8,10.8 6.2,10.8 -4.2,18.1 16,16.3 1.8,14.3 10.4,5.1 7.2,21.9 24.3,4.2 8.1,10.6 11.8,-0.4 14.3,10.5 18.4,-7 20.8,8.1 8.9,-7.6 7.9,1.6 13.2,-14.6 23.4,-2.8 6.1,-15.3 4.4,-1.9 4,-12.9 21.1,-14.1 -2.7,-23.5 z"
     id="path3363"
     inkscape:connector-curvature="0"
     style="fill:#f4a73b" />
  <path
     class="st2"
     d="m 287,450.39999 -5.1,10.4 10.4,-22.8 z"
     id="path3365"
     inkscape:connector-curvature="0"
     style="fill:#898a8d" />
  <path
     class="st3"
     d="m 250.3,495.39999 -7.3,2.9 20.7,-15.2 z"
     id="path3367"
     inkscape:connector-curvature="0"
     style="fill:#a0a1a3" />
  <path
     class="st4"
     d="m 306,389.49999 -8.8,-27.6 8.1,14.6 z"
     id="path3369"
     inkscape:connector-curvature="0"
     style="fill:#8d8e91" />
  <path
     class="st5"
     d="m 153.8,496.09999 -7.7,-4.3 25.5,9.1 z"
     id="path3371"
     inkscape:connector-curvature="0"
     style="fill:#6c6e70" />
  <path
     class="st6"
     d="m 311.9,428.79999 -7.6,11.1 5.3,-24.8 z"
     id="path3373"
     inkscape:connector-curvature="0"
     style="fill:#ff7308" />
  <path
     class="st7"
     d="m 103.7,371.19999 -0.2,-11.3 12.7,-12.4 z"
     id="path3375"
     inkscape:connector-curvature="0"
     style="fill:#ffa64a" />
  <path
     class="st8"
     d="m 260.2,493.59999 16.7,-9.2 10.9,-2.6 z"
     id="path3377"
     inkscape:connector-curvature="0"
     style="fill:#a0a0a0" />
  <path
     class="st9"
     d="m 287.8,481.79999 -10.9,2.6 16.4,-20.3 z"
     id="path3379"
     inkscape:connector-curvature="0"
     style="fill:#ff8a22" />
  <path
     class="st10"
     d="m 264.2,317.99999 13.4,3.3 6.4,14.9 z"
     id="path3381"
     inkscape:connector-curvature="0"
     style="fill:#ff7c00" />
  <path
     class="st11"
     d="m 249.5,311.99999 28.1,9.3 -13.4,-3.3 z"
     id="path3383"
     inkscape:connector-curvature="0"
     style="fill:#ffab30" />
  <path
     class="st12"
     d="m 107.8,451.49999 15.9,25.2 -15.1,-7.3 z"
     id="path3385"
     inkscape:connector-curvature="0"
     style="fill:#ff521e" />
  <path
     class="st13"
     d="m 107.8,451.49999 0.8,17.9 -4.1,-32 z"
     id="path3387"
     inkscape:connector-curvature="0"
     style="fill:#ff7729" />
  <path
     class="st14"
     d="m 240.7,516.39999 -27.9,-5.8 18,0.8 z"
     id="path3389"
     inkscape:connector-curvature="0"
     style="fill:#fb470e" />
  <path
     class="st15"
     d="m 240.7,516.39999 -9.9,-5 24.4,-11.1 z"
     id="path3391"
     inkscape:connector-curvature="0"
     style="fill:#ff8a2c" />
  <path
     class="st16"
     d="m 98.4,422.69999 6.1,14.7 -15.7,-27.5 z"
     id="path3393"
     inkscape:connector-curvature="0"
     style="fill:#ff782a" />
  <path
     class="st13"
     d="m 96.2,395.99999 2.2,26.7 -9.6,-12.8 z"
     id="path3395"
     inkscape:connector-curvature="0"
     style="fill:#ff7729" />
  <path
     class="st17"
     d="m 212.8,510.59999 -28.1,10.7 18.9,-8.2 z"
     id="path3397"
     inkscape:connector-curvature="0"
     style="fill:#fb3c12" />
  <path
     class="st18"
     d="m 224.6,289.89999 24.9,22.1 -9.9,-6.9 z"
     id="path3399"
     inkscape:connector-curvature="0"
     style="fill:#ffa428" />
  <path
     class="st19"
     d="m 322.8,401.49999 -13.3,-14.1 -4.1,-13.6 z"
     id="path3401"
     inkscape:connector-curvature="0"
     style="fill:#fb7100" />
  <path
     class="st20"
     d="m 309.5,387.39999 -8.4,-27 4.3,13.4 z"
     id="path3403"
     inkscape:connector-curvature="0"
     style="fill:#808183" />
  <path
     class="st21"
     d="m 305.4,373.79999 -4.3,-13.4 2.2,-20.1 z"
     id="path3405"
     inkscape:connector-curvature="0"
     style="fill:#fc7800" />
  <path
     class="st22"
     d="m 184.7,521.29999 -10.6,-13.1 29.5,4.9 z"
     id="path3407"
     inkscape:connector-curvature="0"
     style="fill:#ff591d" />
  <path
     class="st23"
     d="m 184.7,521.29999 -26.2,-19.3 15.6,6.2 z"
     id="path3409"
     inkscape:connector-curvature="0"
     style="fill:#fd4114" />
  <path
     class="st24"
     d="m 163.3,305.99999 -15.8,9.4 20.6,-22 z"
     id="path3411"
     inkscape:connector-curvature="0"
     style="fill:#ffaf32" />
  <path
     class="st25"
     d="m 168.1,293.39999 28.2,6.1 -8.8,1 z"
     id="path3413"
     inkscape:connector-curvature="0"
     style="fill:#ff911b" />
  <path
     class="st26"
     d="m 163.3,305.99999 4.8,-12.6 19.4,7.1 z"
     id="path3415"
     inkscape:connector-curvature="0"
     style="fill:#ff9922" />
  <path
     class="st27"
     d="m 213.3,299.39999 11.3,-9.5 15,15.2 z"
     id="path3417"
     inkscape:connector-curvature="0"
     style="fill:#ff991a" />
  <path
     class="st28"
     d="m 196.3,299.49999 17,-0.1 -25.8,1.1 z"
     id="path3419"
     inkscape:connector-curvature="0"
     style="fill:#9c9ea0" />
  <path
     class="st29"
     d="m 196.3,299.49999 28.3,-9.6 -11.3,9.5 z"
     id="path3421"
     inkscape:connector-curvature="0"
     style="fill:#ff9f20" />
  <path
     class="st30"
     d="m 140,321.09999 7.5,-5.7 15.8,-9.4 z"
     id="path3423"
     inkscape:connector-curvature="0"
     style="fill:#b9b9ba" />
  <path
     class="st31"
     d="m 140,321.09999 -23.5,4 31,-9.7 z"
     id="path3425"
     inkscape:connector-curvature="0"
     style="fill:#ff9528" />
  <path
     class="st32"
     d="m 322.8,401.49999 -13.7,9.9 0.4,-24 z"
     id="path3427"
     inkscape:connector-curvature="0"
     style="fill:#ff991c" />
  <path
     class="st33"
     d="m 309.5,425.79999 -0.4,-14.4 13.7,-9.9 z"
     id="path3429"
     inkscape:connector-curvature="0"
     style="fill:#ff7b0a" />
  <path
     class="st34"
     d="m 230.8,511.39999 16.1,-8.8 8.3,-2.3 z"
     id="path3431"
     inkscape:connector-curvature="0"
     style="fill:#ff7a23" />
  <path
     class="st13"
     d="m 97.9,407.99999 0.5,14.7 -2.2,-26.7 z"
     id="path3433"
     inkscape:connector-curvature="0"
     style="fill:#ff7729" />
  <path
     class="st35"
     d="m 158.5,501.99999 -11.4,-6 27,12.2 z"
     id="path3435"
     inkscape:connector-curvature="0"
     style="fill:#6e6f72" />
  <path
     class="st36"
     d="m 158.5,501.99999 -32.3,-5.6 20.9,-0.4 z"
     id="path3437"
     inkscape:connector-curvature="0"
     style="fill:#fe4117" />
  <path
     class="st37"
     d="m 118.5,344.39999 -2,-19.3 23.5,-4 z"
     id="path3439"
     inkscape:connector-curvature="0"
     style="fill:#ff992d" />
  <path
     class="st38"
     d="m 118.5,344.39999 -9.9,13.1 7.9,-32.4 z"
     id="path3441"
     inkscape:connector-curvature="0"
     style="fill:#ff8c28" />
  <path
     class="st39"
     d="m 277.3,328.69999 26,11.6 -16.4,2.5 z"
     id="path3443"
     inkscape:connector-curvature="0"
     style="fill:#ff9311" />
  <path
     class="st40"
     d="m 286.9,342.79999 16.4,-2.5 -2.2,20.1 z"
     id="path3445"
     inkscape:connector-curvature="0"
     style="fill:#ff9a18" />
  <path
     class="st41"
     d="m 174.1,508.19999 17.7,1.8 11.8,3.1 z"
     id="path3447"
     inkscape:connector-curvature="0"
     style="fill:#fb3f11" />
  <path
     class="st42"
     d="m 312.9,454.79999 -9.5,-22.7 6.1,-6.3 z"
     id="path3449"
     inkscape:connector-curvature="0"
     style="fill:#ff8213" />
  <path
     class="st43"
     d="m 303.4,432.09999 5.7,-20.7 0.4,14.4 z"
     id="path3451"
     inkscape:connector-curvature="0"
     style="fill:#ff7207" />
  <path
     class="st44"
     d="m 105.3,369.19999 3.3,-11.7 9.9,-13.1 z"
     id="path3453"
     inkscape:connector-curvature="0"
     style="fill:#b9baba" />
  <path
     class="st45"
     d="m 105.3,369.19999 -17.6,11.4 20.9,-23.1 z"
     id="path3455"
     inkscape:connector-curvature="0"
     style="fill:#ffae5f" />
  <path
     class="st46"
     d="m 213.3,299.39999 26.3,5.7 -8.8,1.4 z"
     id="path3457"
     inkscape:connector-curvature="0"
     style="fill:#ff9417" />
  <path
     class="st24"
     d="m 230.8,306.49999 8.8,-1.4 22.1,-1 z"
     id="path3459"
     inkscape:connector-curvature="0"
     style="fill:#ffaf32" />
  <path
     class="st47"
     d="m 163.3,305.99999 24.2,-5.5 -7.3,5.7 z"
     id="path3461"
     inkscape:connector-curvature="0"
     style="fill:#ff9620" />
  <path
     class="st48"
     d="m 118.5,344.39999 21.5,-23.3 -7,11.1 z"
     id="path3463"
     inkscape:connector-curvature="0"
     style="fill:#ffa634" />
  <path
     class="st49"
     d="m 128,474.29999 19.1,21.7 -20.9,0.4 z"
     id="path3465"
     inkscape:connector-curvature="0"
     style="fill:#ff471a" />
  <path
     class="st50"
     d="m 128,474.29999 -1.8,22.1 -10.6,-32.2 z"
     id="path3467"
     inkscape:connector-curvature="0"
     style="fill:#ff511e" />
  <path
     class="st51"
     d="m 312.9,454.79999 -20,-1.7 10.5,-21 z"
     id="path3469"
     inkscape:connector-curvature="0"
     style="fill:#ff9b26" />
  <path
     class="st52"
     d="m 288.2,471.29999 4.7,-18.2 20,1.7 z"
     id="path3471"
     inkscape:connector-curvature="0"
     style="fill:#ff9625" />
  <path
     class="st53"
     d="m 309.5,387.39999 -5.5,4.5 11.7,-20.1 z"
     id="path3473"
     inkscape:connector-curvature="0"
     style="fill:#f67408" />
  <path
     class="st54"
     d="m 309.1,411.39999 -5.1,-19.5 5.5,-4.5 z"
     id="path3475"
     inkscape:connector-curvature="0"
     style="fill:#ff7c08" />
  <path
     class="st55"
     d="m 295.2,363.79999 5.9,-3.4 14.6,11.4 z"
     id="path3477"
     inkscape:connector-curvature="0"
     style="fill:#ff9213" />
  <path
     class="st56"
     d="m 295.2,363.79999 20.5,8 -11.7,20.1 z"
     id="path3479"
     inkscape:connector-curvature="0"
     style="fill:#ffa422" />
  <path
     class="st57"
     d="m 286.9,342.79999 14.2,17.6 -5.9,3.4 z"
     id="path3481"
     inkscape:connector-curvature="0"
     style="fill:#ff7a02" />
  <path
     class="st58"
     d="m 105.3,369.19999 -2.2,24 -15.4,-12.6 z"
     id="path3483"
     inkscape:connector-curvature="0"
     style="fill:#ff8a2d" />
  <path
     class="st59"
     d="m 103.1,393.19999 -5.2,14.8 -10.2,-27.4 z"
     id="path3485"
     inkscape:connector-curvature="0"
     style="fill:#ff631e" />
  <path
     class="st60"
     d="m 277.3,328.69999 9.6,14.1 -16.9,-12.1 z"
     id="path3487"
     inkscape:connector-curvature="0"
     style="fill:#ff8105" />
  <path
     class="st61"
     d="m 261.7,304.09999 15.6,24.6 -7.3,2 z"
     id="path3489"
     inkscape:connector-curvature="0"
     style="fill:#ff8506" />
  <path
     class="st24"
     d="m 180.2,306.19999 7.3,-5.7 16.7,-8 z"
     id="path3491"
     inkscape:connector-curvature="0"
     style="fill:#ffaf32" />
  <path
     class="st62"
     d="m 277.3,498.99999 0.7,-27.6 10.2,-0.1 z"
     id="path3493"
     inkscape:connector-curvature="0"
     style="fill:#ff8721" />
  <path
     class="st63"
     d="m 278,471.39999 14.9,-18.3 -4.7,18.2 z"
     id="path3495"
     inkscape:connector-curvature="0"
     style="fill:#ff8e23" />
  <path
     class="st64"
     d="m 223.9,522.39999 -32.1,-12.4 19.7,-4.2 z"
     id="path3497"
     inkscape:connector-curvature="0"
     style="fill:#ff5518" />
  <path
     class="st65"
     d="m 223.9,522.39999 -12.4,-16.6 26.1,-7.1 z"
     id="path3499"
     inkscape:connector-curvature="0"
     style="fill:#ff7021" />
  <path
     class="st66"
     d="m 223.9,522.39999 13.7,-23.7 9.3,3.9 z"
     id="path3501"
     inkscape:connector-curvature="0"
     style="fill:#ff9230" />
  <path
     class="st67"
     d="m 246.9,502.59999 11.8,-15.6 18.6,12 z"
     id="path3503"
     inkscape:connector-curvature="0"
     style="fill:#ff771f" />
  <path
     class="st68"
     d="m 277.3,498.99999 -18.6,-12 19.3,-15.6 z"
     id="path3505"
     inkscape:connector-curvature="0"
     style="fill:#ff8d27" />
  <path
     class="st69"
     d="m 237.6,498.69999 21.1,-11.7 -11.8,15.6 z"
     id="path3507"
     inkscape:connector-curvature="0"
     style="fill:#ff8e2c" />
  <path
     class="st70"
     d="m 113.8,446.89999 1.8,17.3 -24.8,-25.4 z"
     id="path3509"
     inkscape:connector-curvature="0"
     style="fill:#ff4d1a" />
  <path
     class="st71"
     d="m 128,474.29999 -12.4,-10.1 -1.8,-17.3 z"
     id="path3511"
     inkscape:connector-curvature="0"
     style="fill:#ff4a19" />
  <path
     class="st17"
     d="m 105.7,418.89999 8.1,28 -23,-8.1 z"
     id="path3513"
     inkscape:connector-curvature="0"
     style="fill:#fb3c12" />
  <path
     class="st72"
     d="m 105.7,418.89999 -7.8,-10.9 5.2,-14.8 z"
     id="path3515"
     inkscape:connector-curvature="0"
     style="fill:#ff7728" />
  <path
     class="st73"
     d="m 105.7,418.89999 -14.9,19.9 7.1,-30.8 z"
     id="path3517"
     inkscape:connector-curvature="0"
     style="fill:#ff913a" />
  <path
     class="st74"
     d="m 248.4,321.09999 13.3,-17 8.3,26.6 z"
     id="path3519"
     inkscape:connector-curvature="0"
     style="fill:#ff9a19" />
  <path
     class="st55"
     d="m 230.8,306.49999 30.9,-2.4 -13.3,17 z"
     id="path3521"
     inkscape:connector-curvature="0"
     style="fill:#ff9213" />
  <path
     class="st75"
     d="m 152.9,324.89999 -19.9,7.3 19.1,-29.7 z"
     id="path3523"
     inkscape:connector-curvature="0"
     style="fill:#ff9324" />
  <path
     class="st76"
     d="m 191.8,509.99999 -33.2,1.2 24.2,-10.1 z"
     id="path3525"
     inkscape:connector-curvature="0"
     style="fill:#ff792b" />
  <path
     class="st77"
     d="m 191.8,509.99999 -9,-8.9 28.7,4.7 z"
     id="path3527"
     inkscape:connector-curvature="0"
     style="fill:#ff5018" />
  <path
     class="st78"
     d="m 145.5,481.69999 1.6,14.3 -19.1,-21.7 z"
     id="path3529"
     inkscape:connector-curvature="0"
     style="fill:#ff4517" />
  <path
     class="st79"
     d="m 145.5,481.69999 13.1,29.5 -11.5,-15.2 z"
     id="path3531"
     inkscape:connector-curvature="0"
     style="fill:#ff5820" />
  <path
     class="st80"
     d="m 152.9,324.89999 -0.8,-22.4 25.2,13.6 z"
     id="path3533"
     inkscape:connector-curvature="0"
     style="fill:#ff8519" />
  <path
     class="st81"
     d="m 152.1,302.49999 28.1,3.7 -2.9,9.9 z"
     id="path3535"
     inkscape:connector-curvature="0"
     style="fill:#ff9521" />
  <path
     class="st82"
     d="m 106.1,352.29999 7.4,27.2 -8.2,-10.3 z"
     id="path3537"
     inkscape:connector-curvature="0"
     style="fill:#ff7c24" />
  <path
     class="st83"
     d="m 113.5,379.49999 -10.4,13.7 2.2,-24 z"
     id="path3539"
     inkscape:connector-curvature="0"
     style="fill:#ff852a" />
  <path
     class="st32"
     d="m 230.8,306.49999 17.6,14.6 -23.5,-4.7 z"
     id="path3541"
     inkscape:connector-curvature="0"
     style="fill:#ff991c" />
  <path
     class="st84"
     d="m 204.2,292.49999 26.6,14 -5.9,9.9 z"
     id="path3543"
     inkscape:connector-curvature="0"
     style="fill:#ff9218" />
  <path
     class="st48"
     d="m 132.3,347.39999 0.7,-15.2 19.9,-7.3 z"
     id="path3545"
     inkscape:connector-curvature="0"
     style="fill:#ffa634" />
  <path
     class="st85"
     d="m 132.3,347.39999 -26.2,4.9 26.9,-20.1 z"
     id="path3547"
     inkscape:connector-curvature="0"
     style="fill:#ff982e" />
  <path
     class="st18"
     d="m 180.2,306.19999 24,-13.7 -4,22.5 z"
     id="path3549"
     inkscape:connector-curvature="0"
     style="fill:#ffa428" />
  <path
     class="st33"
     d="m 200.2,314.99999 4,-22.5 20.7,23.9 z"
     id="path3551"
     inkscape:connector-curvature="0"
     style="fill:#ff7b0a" />
  <path
     class="st86"
     d="m 180.2,306.19999 20,8.8 -22.9,1.1 z"
     id="path3553"
     inkscape:connector-curvature="0"
     style="fill:#ff901c" />
  <path
     class="st87"
     d="m 295.2,363.79999 8.8,28.1 -14.2,-10.9 z"
     id="path3555"
     inkscape:connector-curvature="0"
     style="fill:#ff9419" />
  <path
     class="st88"
     d="m 289.8,380.99999 14.2,10.9 6.4,20.2 z"
     id="path3557"
     inkscape:connector-curvature="0"
     style="fill:#ff7b09" />
  <path
     class="st89"
     d="m 292.9,453.09999 -1.9,-22.7 12.4,1.7 z"
     id="path3559"
     inkscape:connector-curvature="0"
     style="fill:#ff8819" />
  <path
     class="st90"
     d="m 303.4,432.09999 -12.4,-1.7 19.4,-18.3 z"
     id="path3561"
     inkscape:connector-curvature="0"
     style="fill:#ff951e" />
  <path
     class="st91"
     d="m 270,330.69999 16.9,12.1 2.1,2.1 z"
     id="path3563"
     inkscape:connector-curvature="0"
     style="fill:#ff7d07" />
  <path
     class="st92"
     d="m 289,344.89999 6.2,18.9 -5.4,17.2 z"
     id="path3565"
     inkscape:connector-curvature="0"
     style="fill:#ff810a" />
  <path
     class="st23"
     d="m 165.7,484.89999 -7.1,26.3 -13.1,-29.5 z"
     id="path3567"
     inkscape:connector-curvature="0"
     style="fill:#fd4114" />
  <path
     class="st93"
     d="m 165.7,484.89999 17.1,16.2 -24.2,10.1 z"
     id="path3569"
     inkscape:connector-curvature="0"
     style="fill:#ff581e" />
  <path
     class="st94"
     d="m 248.4,321.09999 21.6,9.6 -7.7,10.2 z"
     id="path3571"
     inkscape:connector-curvature="0"
     style="fill:#ff9114" />
  <path
     class="st95"
     d="m 262.3,340.89999 7.7,-10.2 19,14.2 z"
     id="path3573"
     inkscape:connector-curvature="0"
     style="fill:#ff9a1a" />
  <path
     class="st96"
     d="m 211.5,505.79999 10.2,-14.5 15.9,7.4 z"
     id="path3575"
     inkscape:connector-curvature="0"
     style="fill:#ff7b26" />
  <path
     class="st97"
     d="m 211.5,505.79999 -9.8,3.3 20,-17.8 z"
     id="path3577"
     inkscape:connector-curvature="0"
     style="fill:#ff8c30" />
  <path
     class="st98"
     d="m 120.8,430.09999 -7,16.8 -8.1,-28 z"
     id="path3579"
     inkscape:connector-curvature="0"
     style="fill:#ff541a" />
  <path
     class="st99"
     d="m 128.2,370.09999 -14.7,9.4 -7.4,-27.2 z"
     id="path3581"
     inkscape:connector-curvature="0"
     style="fill:#fd500e" />
  <path
     class="st100"
     d="m 132.3,347.39999 -4.1,22.7 -22.1,-17.8 z"
     id="path3583"
     inkscape:connector-curvature="0"
     style="fill:#ff7d22" />
  <path
     class="st101"
     d="m 258.7,486.99999 3,-20.9 16.3,5.3 z"
     id="path3585"
     inkscape:connector-curvature="0"
     style="fill:#ff9229" />
  <path
     class="st102"
     d="m 289.8,380.99999 20.6,31.1 -28.4,-11.9 z"
     id="path3587"
     inkscape:connector-curvature="0"
     style="fill:#ff9a21" />
  <path
     class="st103"
     d="m 282,400.19999 28.4,11.9 -19.4,18.3 z"
     id="path3589"
     inkscape:connector-curvature="0"
     style="fill:#ff8b17" />
  <path
     class="st104"
     d="m 152.9,324.89999 24.4,-8.8 -6.5,17.7 z"
     id="path3591"
     inkscape:connector-curvature="0"
     style="fill:#ff9c28" />
  <path
     class="st105"
     d="m 289.8,380.99999 -7.8,19.2 -10,-32.1 z"
     id="path3593"
     inkscape:connector-curvature="0"
     style="fill:#ff9e23" />
  <path
     class="st106"
     d="m 289,344.89999 0.8,36.1 -17.8,-12.9 z"
     id="path3595"
     inkscape:connector-curvature="0"
     style="fill:#ff9e1f" />
  <path
     class="st107"
     d="m 262.3,340.89999 26.7,4 -17,23.2 z"
     id="path3597"
     inkscape:connector-curvature="0"
     style="fill:#ff870d" />
  <path
     class="st17"
     d="m 121.8,463.59999 23.7,18.1 -17.5,-7.4 z"
     id="path3599"
     inkscape:connector-curvature="0"
     style="fill:#fb3c12" />
  <path
     class="st108"
     d="m 120.8,430.09999 1,33.5 -8,-16.7 z"
     id="path3601"
     inkscape:connector-curvature="0"
     style="fill:#ff762b" />
  <path
     class="st109"
     d="m 192.1,486.29999 9.6,22.8 -18.9,-8 z"
     id="path3603"
     inkscape:connector-curvature="0"
     style="fill:#fd4813" />
  <path
     class="st110"
     d="m 192.1,486.29999 -9.3,14.8 -17.1,-16.2 z"
     id="path3605"
     inkscape:connector-curvature="0"
     style="fill:#ff5129" />
  <path
     class="st111"
     d="m 192.1,486.29999 29.6,5 -20,17.8 z"
     id="path3607"
     inkscape:connector-curvature="0"
     style="fill:#ff7b28" />
  <path
     class="st112"
     d="m 104.9,401.99999 15.9,28.1 -15.1,-11.2 z"
     id="path3609"
     inkscape:connector-curvature="0"
     style="fill:#ff5318" />
  <path
     class="st113"
     d="m 113.5,379.49999 -8.6,22.5 -1.8,-8.8 z"
     id="path3611"
     inkscape:connector-curvature="0"
     style="fill:#ffaa47" />
  <path
     class="st72"
     d="m 104.9,401.99999 0.8,16.9 -2.6,-25.7 z"
     id="path3613"
     inkscape:connector-curvature="0"
     style="fill:#ff7728" />
  <path
     class="st114"
     d="m 143.2,330.69999 9.7,-5.8 17.9,8.9 z"
     id="path3615"
     inkscape:connector-curvature="0"
     style="fill:#ff9124" />
  <path
     class="st115"
     d="m 278,471.39999 -16.3,-5.3 24.8,-12 z"
     id="path3617"
     inkscape:connector-curvature="0"
     style="fill:#ff9126" />
  <path
     class="st116"
     d="m 292.9,453.09999 -6.4,1 4.5,-23.7 z"
     id="path3619"
     inkscape:connector-curvature="0"
     style="fill:#ff7712" />
  <path
     class="st117"
     d="m 278,471.39999 8.5,-17.3 6.4,-1 z"
     id="path3621"
     inkscape:connector-curvature="0"
     style="fill:#ff8b20" />
  <path
     class="st118"
     d="m 200.2,314.99999 24.7,1.4 -7.8,14 z"
     id="path3623"
     inkscape:connector-curvature="0"
     style="fill:#ff921b" />
  <path
     class="st119"
     d="m 154.1,464.79999 -8.6,16.9 -23.7,-18.1 z"
     id="path3625"
     inkscape:connector-curvature="0"
     style="fill:#ff4a17" />
  <path
     class="st120"
     d="m 165.7,484.89999 -20.2,-3.2 8.6,-16.9 z"
     id="path3627"
     inkscape:connector-curvature="0"
     style="fill:#ff542c" />
  <path
     class="st121"
     d="m 149.6,357.09999 -21.4,13 4.1,-22.7 z"
     id="path3629"
     inkscape:connector-curvature="0"
     style="fill:#ff922a" />
  <path
     class="st122"
     d="m 143.2,330.69999 27.6,3.1 -21.2,23.3 z"
     id="path3631"
     inkscape:connector-curvature="0"
     style="fill:#ff7818" />
  <path
     class="st123"
     d="m 143.2,330.69999 6.4,26.4 -17.3,-9.7 z"
     id="path3633"
     inkscape:connector-curvature="0"
     style="fill:#ff5f0d" />
  <path
     class="st124"
     d="m 237.6,498.69999 -15.9,-7.4 25.8,-2.4 z"
     id="path3635"
     inkscape:connector-curvature="0"
     style="fill:#ff6317" />
  <path
     class="st125"
     d="m 258.7,486.99999 -11.2,1.9 14.2,-22.8 z"
     id="path3637"
     inkscape:connector-curvature="0"
     style="fill:#ff8524" />
  <path
     class="st126"
     d="m 237.6,498.69999 9.9,-9.8 11.2,-1.9 z"
     id="path3639"
     inkscape:connector-curvature="0"
     style="fill:#ff8828" />
  <path
     class="st127"
     d="m 131.6,391.19999 -18.1,-11.7 14.7,-9.4 z"
     id="path3641"
     inkscape:connector-curvature="0"
     style="fill:#ff7721" />
  <path
     class="st128"
     d="m 131.6,391.19999 -26.7,10.8 8.6,-22.5 z"
     id="path3643"
     inkscape:connector-curvature="0"
     style="fill:#ff9b39" />
  <path
     class="st129"
     d="m 217.1,330.39999 7.8,-14 20.6,10 z"
     id="path3645"
     inkscape:connector-curvature="0"
     style="fill:#ff9c20" />
  <path
     class="st130"
     d="m 224.9,316.39999 23.5,4.7 -2.9,5.3 z"
     id="path3647"
     inkscape:connector-curvature="0"
     style="fill:#ff981a" />
  <path
     class="st91"
     d="m 245.5,326.39999 2.9,-5.3 13.9,19.8 z"
     id="path3649"
     inkscape:connector-curvature="0"
     style="fill:#ff7d07" />
  <path
     class="st131"
     d="m 282,400.19999 9,30.2 -21.8,-10.1 z"
     id="path3651"
     inkscape:connector-curvature="0"
     style="fill:#ff9c26" />
  <path
     class="st132"
     d="m 269.2,420.29999 21.8,10.1 -4.5,23.7 z"
     id="path3653"
     inkscape:connector-curvature="0"
     style="fill:#ffa02a" />
  <path
     class="st133"
     d="m 143.3,440.99999 -21.5,22.6 -1,-33.5 z"
     id="path3655"
     inkscape:connector-curvature="0"
     style="fill:#ff581c" />
  <path
     class="st134"
     d="m 143.3,440.99999 10.8,23.8 -32.3,-1.2 z"
     id="path3657"
     inkscape:connector-curvature="0"
     style="fill:#f8380e" />
  <path
     class="st135"
     d="m 262.3,340.89999 9.7,27.2 -22.6,-9.2 z"
     id="path3659"
     inkscape:connector-curvature="0"
     style="fill:#ff971d" />
  <path
     class="st136"
     d="m 245.5,326.39999 16.8,14.5 -12.9,18 z"
     id="path3661"
     inkscape:connector-curvature="0"
     style="fill:#ff9e21" />
  <path
     class="st137"
     d="m 213.3,472.29999 34.2,16.6 -25.8,2.4 z"
     id="path3663"
     inkscape:connector-curvature="0"
     style="fill:#fe5210" />
  <path
     class="st138"
     d="m 213.3,472.29999 8.4,19 -29.6,-5 z"
     id="path3665"
     inkscape:connector-curvature="0"
     style="fill:#ff6319" />
  <path
     class="st139"
     d="m 143.3,440.99999 -22.5,-10.9 15.5,-14 z"
     id="path3667"
     inkscape:connector-curvature="0"
     style="fill:#f73a0b" />
  <path
     class="st140"
     d="m 131.6,391.19999 4.7,24.9 -31.4,-14.1 z"
     id="path3669"
     inkscape:connector-curvature="0"
     style="fill:#ff5112" />
  <path
     class="st141"
     d="m 136.3,416.09999 -15.5,14 -15.9,-28.1 z"
     id="path3671"
     inkscape:connector-curvature="0"
     style="fill:#fc4610" />
  <path
     class="st142"
     d="m 193.1,321.19999 7.1,-6.2 16.9,15.4 z"
     id="path3673"
     inkscape:connector-curvature="0"
     style="fill:#ff961f" />
  <path
     class="st143"
     d="m 177.3,316.09999 22.9,-1.1 -7.1,6.2 z"
     id="path3675"
     inkscape:connector-curvature="0"
     style="fill:#ff8b19" />
  <path
     class="st11"
     d="m 170.8,333.79999 6.5,-17.7 15.8,5.1 z"
     id="path3677"
     inkscape:connector-curvature="0"
     style="fill:#ffab30" />
  <path
     class="st144"
     d="m 269.2,420.29999 17.3,33.8 -33.3,-14.6 z"
     id="path3679"
     inkscape:connector-curvature="0"
     style="fill:#ff8f22" />
  <path
     class="st145"
     d="m 253.2,439.49999 33.3,14.6 -24.8,12 z"
     id="path3681"
     inkscape:connector-curvature="0"
     style="fill:#ff630c" />
  <path
     class="st146"
     d="m 233.9,457.79999 27.8,8.3 -14.2,22.8 z"
     id="path3683"
     inkscape:connector-curvature="0"
     style="fill:#ff9d31" />
  <path
     class="st147"
     d="m 233.9,457.79999 13.6,31.1 -34.2,-16.6 z"
     id="path3685"
     inkscape:connector-curvature="0"
     style="fill:#fe570e" />
  <path
     class="st148"
     d="m 253.2,439.49999 8.5,26.6 -27.8,-8.3 z"
     id="path3687"
     inkscape:connector-curvature="0"
     style="fill:#ff7a1b" />
  <path
     class="st149"
     d="m 170.8,333.79999 22.3,-12.6 -18.4,33.1 z"
     id="path3689"
     inkscape:connector-curvature="0"
     style="fill:#ff9524" />
  <path
     class="st9"
     d="m 170.8,333.79999 3.9,20.5 -25.1,2.8 z"
     id="path3691"
     inkscape:connector-curvature="0"
     style="fill:#ff8a22" />
  <path
     class="st150"
     d="m 217.1,330.39999 28.4,-4 -20.8,26.4 z"
     id="path3693"
     inkscape:connector-curvature="0"
     style="fill:#ff7708" />
  <path
     class="st151"
     d="m 245.5,326.39999 3.9,32.5 -24.7,-6.1 z"
     id="path3695"
     inkscape:connector-curvature="0"
     style="fill:#ff8914" />
  <path
     class="st152"
     d="m 193.1,321.19999 5.7,29.4 -24.1,3.7 z"
     id="path3697"
     inkscape:connector-curvature="0"
     style="fill:#fa5d03" />
  <path
     class="st153"
     d="m 193.1,321.19999 24,9.2 -18.3,20.2 z"
     id="path3699"
     inkscape:connector-curvature="0"
     style="fill:#ff9b24" />
  <path
     class="st154"
     d="m 217.1,330.39999 7.6,22.4 -25.9,-2.2 z"
     id="path3701"
     inkscape:connector-curvature="0"
     style="fill:#ff750c" />
  <path
     class="st155"
     d="m 169.9,447.89999 -15.8,16.9 -10.8,-23.8 z"
     id="path3703"
     inkscape:connector-curvature="0"
     style="fill:#f9400d" />
  <path
     class="st156"
     d="m 233.9,457.79999 -20.6,14.5 -12.4,-20.5 z"
     id="path3705"
     inkscape:connector-curvature="0"
     style="fill:#ff5d13" />
  <path
     class="st157"
     d="m 154.8,400.59999 -18.5,15.5 -4.7,-24.9 z"
     id="path3707"
     inkscape:connector-curvature="0"
     style="fill:#fd4f0f" />
  <path
     class="st158"
     d="m 177.5,475.89999 14.6,10.4 -26.4,-1.4 z"
     id="path3709"
     inkscape:connector-curvature="0"
     style="fill:#fe4814" />
  <path
     class="st159"
     d="m 169.9,447.89999 31,3.9 -23.4,24.1 z"
     id="path3711"
     inkscape:connector-curvature="0"
     style="fill:#ff5e13" />
  <path
     class="st160"
     d="m 200.9,451.79999 12.4,20.5 -35.8,3.6 z"
     id="path3713"
     inkscape:connector-curvature="0"
     style="fill:#ff7924" />
  <path
     class="st161"
     d="m 177.5,475.89999 35.8,-3.6 -21.2,14 z"
     id="path3715"
     inkscape:connector-curvature="0"
     style="fill:#ff7a27" />
  <path
     class="st162"
     d="m 169.9,447.89999 7.6,28 -23.4,-11.1 z"
     id="path3717"
     inkscape:connector-curvature="0"
     style="fill:#f42e00" />
  <path
     class="st163"
     d="m 177.5,475.89999 -11.8,9 -11.6,-20.1 z"
     id="path3719"
     inkscape:connector-curvature="0"
     style="fill:#fe4813" />
  <path
     class="st164"
     d="m 269.2,420.29999 -16,19.2 -12,-30.4 z"
     id="path3721"
     inkscape:connector-curvature="0"
     style="fill:#ff9224" />
  <path
     class="st165"
     d="m 198.8,350.59999 -23.3,26.2 -0.8,-22.5 z"
     id="path3723"
     inkscape:connector-curvature="0"
     style="fill:#fd5d08" />
  <path
     class="st166"
     d="m 249.4,358.89999 -18.4,20.5 -6.3,-26.6 z"
     id="path3725"
     inkscape:connector-curvature="0"
     style="fill:#ff8818" />
  <path
     class="st167"
     d="m 272,368.09999 10,32.1 -16.5,-14.9 z"
     id="path3727"
     inkscape:connector-curvature="0"
     style="fill:#ff8f19" />
  <path
     class="st168"
     d="m 249.4,358.89999 16.1,26.4 -34.5,-5.9 z"
     id="path3729"
     inkscape:connector-curvature="0"
     style="fill:#ff760c" />
  <path
     class="st169"
     d="m 249.4,358.89999 22.6,9.2 -6.5,17.2 z"
     id="path3731"
     inkscape:connector-curvature="0"
     style="fill:#ff8a15" />
  <path
     class="st170"
     d="m 265.5,385.29999 3.7,35 -28,-11.2 z"
     id="path3733"
     inkscape:connector-curvature="0"
     style="fill:#ff710c" />
  <path
     class="st171"
     d="m 265.5,385.29999 16.5,14.9 -12.8,20.1 z"
     id="path3735"
     inkscape:connector-curvature="0"
     style="fill:#ff901e" />
  <path
     class="st172"
     d="m 231,379.39999 34.5,5.9 -24.3,23.8 z"
     id="path3737"
     inkscape:connector-curvature="0"
     style="fill:#f95c02" />
  <path
     class="st173"
     d="m 144.4,375.29999 31.1,1.5 -20.7,23.8 z"
     id="path3739"
     inkscape:connector-curvature="0"
     style="fill:#ff6412" />
  <path
     class="st174"
     d="m 174.7,354.29999 0.8,22.5 -31.1,-1.5 z"
     id="path3741"
     inkscape:connector-curvature="0"
     style="fill:#ff7216" />
  <path
     class="st175"
     d="m 144.4,375.29999 10.4,25.3 -23.2,-9.4 z"
     id="path3743"
     inkscape:connector-curvature="0"
     style="fill:#fb4e0c" />
  <path
     class="st176"
     d="m 144.4,375.29999 -12.8,15.9 -3.4,-21.1 z"
     id="path3745"
     inkscape:connector-curvature="0"
     style="fill:#ff6a19" />
  <path
     class="st113"
     d="m 149.6,357.09999 -5.2,18.2 -16.2,-5.2 z"
     id="path3747"
     inkscape:connector-curvature="0"
     style="fill:#ffaa47" />
  <path
     class="st177"
     d="m 149.6,357.09999 25.1,-2.8 -30.3,21 z"
     id="path3749"
     inkscape:connector-curvature="0"
     style="fill:#ff9d30" />
  <path
     class="st178"
     d="m 190.6,426.99999 10.3,24.8 -31,-3.9 z"
     id="path3751"
     inkscape:connector-curvature="0"
     style="fill:#ef3b0a" />
  <path
     class="st179"
     d="m 175.5,376.79999 6.2,25.1 -26.9,-1.3 z"
     id="path3753"
     inkscape:connector-curvature="0"
     style="fill:#fb530a" />
  <path
     class="st110"
     d="m 211.1,402.49999 -20.5,24.5 -8.9,-25.1 z"
     id="path3755"
     inkscape:connector-curvature="0"
     style="fill:#ff5129" />
  <path
     class="st180"
     d="m 231,379.39999 10.2,29.7 -30.1,-6.6 z"
     id="path3757"
     inkscape:connector-curvature="0"
     style="fill:#ff821a" />
  <path
     class="st181"
     d="m 156.7,427.79999 33.9,-0.8 -20.7,20.9 z"
     id="path3759"
     inkscape:connector-curvature="0"
     style="fill:#ff5c14" />
  <path
     class="st182"
     d="m 156.7,427.79999 13.2,20.1 -26.6,-6.9 z"
     id="path3761"
     inkscape:connector-curvature="0"
     style="fill:#f44719" />
  <path
     class="st183"
     d="m 154.8,400.59999 1.9,27.2 -20.4,-11.7 z"
     id="path3763"
     inkscape:connector-curvature="0"
     style="fill:#ff8127" />
  <path
     class="st184"
     d="m 156.7,427.79999 -13.4,13.2 -7,-24.9 z"
     id="path3765"
     inkscape:connector-curvature="0"
     style="fill:#ff5012" />
  <path
     class="st67"
     d="m 181.7,401.89999 8.9,25.1 -33.9,0.8 z"
     id="path3767"
     inkscape:connector-curvature="0"
     style="fill:#ff771f" />
  <path
     class="st185"
     d="m 154.8,400.59999 26.9,1.3 -25,25.9 z"
     id="path3769"
     inkscape:connector-curvature="0"
     style="fill:#ff6716" />
  <path
     class="st117"
     d="m 201.5,370.49999 29.5,8.9 -19.9,23.1 z"
     id="path3771"
     inkscape:connector-curvature="0"
     style="fill:#ff8b20" />
  <path
     class="st186"
     d="m 224.7,352.79999 6.3,26.6 -29.5,-8.9 z"
     id="path3773"
     inkscape:connector-curvature="0"
     style="fill:#ff9724" />
  <path
     class="st187"
     d="m 198.8,350.59999 25.9,2.2 -23.2,17.7 z"
     id="path3775"
     inkscape:connector-curvature="0"
     style="fill:#ff8c1e" />
  <path
     class="st188"
     d="m 201.5,370.49999 9.6,32 -29.4,-0.6 z"
     id="path3777"
     inkscape:connector-curvature="0"
     style="fill:#f64a03" />
  <path
     class="st189"
     d="m 198.8,350.59999 2.7,19.9 -26,6.3 z"
     id="path3779"
     inkscape:connector-curvature="0"
     style="fill:#ffa730" />
  <path
     class="st190"
     d="m 175.5,376.79999 26,-6.3 -19.8,31.4 z"
     id="path3781"
     inkscape:connector-curvature="0"
     style="fill:#fa5606" />
  <path
     class="st191"
     d="m 241.2,409.09999 12,30.4 -29.3,-5.1 z"
     id="path3783"
     inkscape:connector-curvature="0"
     style="fill:#ff9e2e" />
  <path
     class="st192"
     d="m 223.9,434.39999 29.3,5.1 -19.3,18.3 z"
     id="path3785"
     inkscape:connector-curvature="0"
     style="fill:#ff811f" />
  <path
     class="st193"
     d="m 211.1,402.49999 12.8,31.9 -33.3,-7.4 z"
     id="path3787"
     inkscape:connector-curvature="0"
     style="fill:#fc550a" />
  <path
     class="st194"
     d="m 211.1,402.49999 30.1,6.6 -17.3,25.3 z"
     id="path3789"
     inkscape:connector-curvature="0"
     style="fill:#ff831d" />
  <path
     class="st195"
     d="m 223.9,434.39999 10,23.4 -33,-6 z"
     id="path3791"
     inkscape:connector-curvature="0"
     style="fill:#ff6816" />
  <path
     class="st196"
     d="m 190.6,426.99999 33.3,7.4 -23,17.4 z"
     id="path3793"
     inkscape:connector-curvature="0"
     style="fill:#f74707" />
  <path
     class="st198"
     d="m 106.1,287.59999 23.2,9.9 8.7,20.8 z"
     id="path3795"
     inkscape:connector-curvature="0"
     style="fill:#96a91a" />
  <path
     class="st199"
     d="m 133,288.79999 5,29.5 -8.7,-20.8 -8,-17.6 z"
     id="path3797"
     inkscape:connector-curvature="0"
     style="fill:#b8ce2b" />
  <path
     class="st200"
     d="m 89.1,279.89999 17,7.7 23.2,9.9 -8,-17.6 z"
     id="path3799"
     inkscape:connector-curvature="0"
     style="fill:#a9c015" />
  <path
     class="st201"
     d="m 107.5,267.29999 13.8,12.6 -32.2,0 z"
     id="path3801"
     inkscape:connector-curvature="0"
     style="fill:#c9d676" />
  <path
     class="st198"
     d="m 81,267.29999 26.5,0 -18.4,12.6 z"
     id="path3803"
     inkscape:connector-curvature="0"
     style="fill:#96a91a" />
  <path
     class="st200"
     d="m 107.5,267.29999 17.9,1.3 -16.2,-10.3 -28.2,9 z"
     id="path3805"
     inkscape:connector-curvature="0"
     style="fill:#a9c015" />
  <path
     class="st199"
     d="m 133.8,268.59999 -8.4,0 -16.2,-10.3 z"
     id="path3807"
     inkscape:connector-curvature="0"
     style="fill:#b8ce2b" />
  <path
     class="st198"
     d="m 133,288.79999 -7.6,-20.2 -17.9,-1.3 13.8,12.6 z m 9.9,28 -9.9,-28 5,29.5 z"
     id="path3809"
     inkscape:connector-curvature="0"
     style="fill:#96a91a" />
  <path
     class="st200"
     d="m 133.8,268.59999 9.1,48.2 -9.9,-28 -7.6,-20.2 z"
     id="path3811"
     inkscape:connector-curvature="0"
     style="fill:#a9c015" />
</svg>
