<?xml version="1.0" encoding="utf-8"?>
<!-- Generator: Adobe Illustrator 19.0.0, SVG Export Plug-In . SVG Version: 6.00 Build 0)  -->
<svg version="1.1" id="Layer_1" xmlns="http://www.w3.org/2000/svg" xmlns:xlink="http://www.w3.org/1999/xlink" x="0px" y="0px"
	 viewBox="81 258.3 757.6 325.6" style="enable-background:new 81 258.3 757.6 325.6;" xml:space="preserve">
<style type="text/css">
	.st0{enable-background:new;}
	.st1{fill:#f4a73b;}.st2{fill:#898A8D;}.st3{fill:#A0A1A3;}.st4{fill:#8D8E91;}.st5{fill:#6C6E70;}.st6{fill:#FF7308;}.st7{fill:#FFA64A;}.st8{fill:#A0A0A0;}.st9{fill:#FF8A22;}.st10{fill:#FF7C00;}.st11{fill:#FFAB30;}.st12{fill:#FF521E;}.st13{fill:#FF7729;}.st14{fill:#FB470E;}
	.st15{fill:#FF8A2C;}.st16{fill:#FF782A;}.st17{fill:#FB3C12;}.st18{fill:#FFA428;}.st19{fill:#FB7100;}.st20{fill:#808183;}.st21{fill:#FC7800;}.st22{fill:#FF591D;}
	.st23{fill:#FD4114;}.st24{fill:#FFAF32;}.st25{fill:#FF911B;}.st26{fill:#FF9922;}.st27{fill:#FF991A;}.st28{fill:#9C9EA0;}.st29{fill:#FF9F20;}.st30{fill:#B9B9BA;}
	.st31{fill:#FF9528;}.st32{fill:#FF991C;}.st33{fill:#FF7B0A;}.st34{fill:#FF7A23;}.st35{fill:#6E6F72;}.st36{fill:#FE4117;}.st37{fill:#FF992D;}.st38{fill:#FF8C28;}
	.st39{fill:#FF9311;}.st40{fill:#FF9A18;}.st41{fill:#FB3F11;}.st42{fill:#FF8213;}.st43{fill:#FF7207;}.st44{fill:#B9BABA;}.st45{fill:#FFAE5F;}.st46{fill:#FF9417;}
	.st47{fill:#FF9620;}.st48{fill:#FFA634;}.st49{fill:#FF471A;}.st50{fill:#FF511E;}.st51{fill:#FF9B26;}.st52{fill:#FF9625;}.st53{fill:#F67408;}.st54{fill:#FF7C08;}.st55{fill:#FF9213;}
	.st56{fill:#FFA422;}.st57{fill:#FF7A02;}.st58{fill:#FF8A2D;}.st59{fill:#FF631E;}.st60{fill:#FF8105;}.st61{fill:#FF8506;}.st62{fill:#FF8721;}.st63{fill:#FF8E23;}
	.st64{fill:#FF5518;}.st65{fill:#FF7021;}.st66{fill:#FF9230;}.st67{fill:#FF771F;}.st68{fill:#FF8D27;}.st69{fill:#FF8E2C;}.st70{fill:#FF4D1A;}.st71{fill:#FF4A19;}.st72{fill:#FF7728;}
	.st73{fill:#FF913A;}.st74{fill:#FF9A19;}.st75{fill:#FF9324;}.st76{fill:#FF792B;}.st77{fill:#FF5018;}.st78{fill:#FF4517;}.st79{fill:#FF5820;}.st80{fill:#FF8519;}
	.st81{fill:#FF9521;}.st82{fill:#FF7C24;}.st83{fill:#FF852A;}.st84{fill:#FF9218;}.st85{fill:#FF982E;}.st86{fill:#FF901C;}.st87{fill:#FF9419;}.st88{fill:#FF7B09;}.st89{fill:#FF8819;}
	.st90{fill:#FF951E;}.st91{fill:#FF7D07;}.st92{fill:#FF810A;}.st93{fill:#FF581E;}.st94{fill:#FF9114;}.st95{fill:#FF9A1A;}.st96{fill:#FF7B26;}.st97{fill:#FF8C30;}.st98{fill:#FF541A;}
	.st99{fill:#FD500E;}.st100{fill:#FF7D22;}.st101{fill:#FF9229;}.st102{fill:#FF9A21;}.st103{fill:#FF8B17;}.st104{fill:#FF9C28;}.st105{fill:#FF9E23;}.st106{fill:#FF9E1F;}.st107{fill:#FF870D;}.st108{fill:#FF762B;}
	.st109{fill:#FD4813;}.st110{fill:#FF5129;}.st111{fill:#FF7B28;}.st112{fill:#FF5318;}.st113{fill:#FFAA47;}.st114{fill:#FF9124;}.st115{fill:#FF9126;}.st116{fill:#FF7712;}.st117{fill:#FF8B20;}
	.st118{fill:#FF921B;}.st119{fill:#FF4A17;}.st120{fill:#FF542C;}.st121{fill:#FF922A;}.st122{fill:#FF7818;}.st123{fill:#FF5F0D;}.st124{fill:#FF6317;}.st125{fill:#FF8524;}.st126{fill:#FF8828;}.st127{fill:#FF7721;}.st128{fill:#FF9B39;}
	.st129{fill:#FF9C20;}.st130{fill:#FF981A;}.st131{fill:#FF9C26;}.st132{fill:#FFA02A;}.st133{fill:#FF581C;}.st134{fill:#F8380E;}.st135{fill:#FF971D;}.st136{fill:#FF9E21;}.st137{fill:#FE5210;}.st138{fill:#FF6319;}.st139{fill:#F73A0B;}.st140{fill:#FF5112;}.st141{fill:#FC4610;}
	.st142{fill:#FF961F;}.st143{fill:#FF8B19;}.st144{fill:#FF8F22;}.st145{fill:#FF630C;}.st146{fill:#FF9D31;}.st147{fill:#FE570E;}.st148{fill:#FF7A1B;}.st149{fill:#FF9524;}.st150{fill:#FF7708;}.st151{fill:#FF8914;}.st152{fill:#FA5D03;}.st153{fill:#FF9B24;}.st154{fill:#FF750C;}
	.st155{fill:#F9400D;}.st156{fill:#FF5D13;}.st157{fill:#FD4F0F;}.st158{fill:#FE4814;}.st159{fill:#FF5E13;}.st160{fill:#FF7924;}.st161{fill:#FF7A27;}.st162{fill:#F42E00;}.st163{fill:#FE4813;}.st164{fill:#FF9224;}.st165{fill:#FD5D08;}.st166{fill:#FF8818;}.st167{fill:#FF8F19;}
	.st168{fill:#FF760C;}.st169{fill:#FF8A15;}.st170{fill:#FF710C;}.st171{fill:#FF901E;}.st172{fill:#F95C02;}.st173{fill:#FF6412;}.st174{fill:#FF7216;}.st175{fill:#FB4E0C;}.st176{fill:#FF6A19;}.st177{fill:#FF9D30;}.st178{fill:#EF3B0A;}.st179{fill:#FB530A;}.st180{fill:#FF821A;}
	.st181{fill:#FF5C14;}.st182{fill:#F44719;}.st183{fill:#FF8127;}.st184{fill:#FF5012;}.st185{fill:#FF6716;}.st186{fill:#FF9724;}.st187{fill:#FF8C1E;}.st188{fill:#F64A03;}.st189{fill:#FFA730;}.st190{fill:#FA5606;}.st191{fill:#FF9E2E;}.st192{fill:#FF811F;}.st193{fill:#FC550A;}
	.st194{fill:#FF831D;}.st195{fill:#FF6816;}.st196{fill:#F74707;}.st197{fill:#FFFFFF;stroke:#FFFFFF;stroke-width:0.5;stroke-miterlimit:10;}.st198{fill:#96A91A;}.st199{fill:#B8CE2B;}.st200{fill:#A9C015;}.st201{fill:#C9D676;}</style>
<rect x="369.2" y="502.8" width="440" height="44.9"/>
<g class="st0">
	<path d="M398.1,380.4h2.7c0.3,5.7,2.8,10.4,7.6,14c4.8,3.6,10.8,5.5,18,5.5c7,0,12.8-1.8,17.3-5.4c4.5-3.6,6.7-8.2,6.7-13.8
		c0-4.4-1.5-7.9-4.6-10.6c-3.1-2.7-8.1-4.9-15.1-6.6l-9.1-2.3c-7.4-1.8-12.8-4.3-16.2-7.3c-3.4-3-5.1-7-5.1-11.8
		c0-5.9,2.5-10.9,7.4-14.9c4.9-4,10.9-6,17.8-6c7.3,0,13.4,1.9,18.4,5.7c5,3.8,7.6,8.5,7.8,14.1H449c-0.3-4.9-2.6-9-7.1-12.3
		c-4.4-3.3-9.9-4.9-16.4-4.9c-6.3,0-11.6,1.7-15.9,5.2c-4.4,3.5-6.5,7.8-6.5,13.1c0,4.2,1.5,7.5,4.6,10.1c3.1,2.6,8,4.7,14.8,6.4
		l9,2.2c7.5,1.9,13.1,4.4,16.5,7.5c3.5,3.1,5.2,7.2,5.2,12.2c0,6.4-2.5,11.6-7.5,15.7c-5,4.1-11.4,6.1-19.4,6.1
		c-8,0-14.6-2.1-19.9-6.2C401.2,392.1,398.4,386.8,398.1,380.4z"/>
	<path d="M538.3,322.4v78.9h-2.7v-72.6h-0.2l-31.9,72.6h-2.9l-31.9-72.6h-0.2v72.6h-2.7v-78.9h2.9l33.3,75.5h0.2l33.1-75.5H538.3z"
		/>
	<path d="M609.5,401.3l-10.3-27.4h-36.7l-10.4,27.4h-3l30.4-78.9h2.8l30.4,78.9H609.5z M580.7,326.1l-17.2,45.2h34.7l-17.2-45.2
		H580.7z"/>
	<path d="M626,366.8v34.5h-2.7v-78.9h24.5c7.9,0,14.1,2,18.6,5.9c4.5,4,6.8,9.4,6.8,16.3c0,5.8-1.7,10.6-5,14.4s-8,6.3-13.9,7.3
		l20.8,35h-3.1l-20.6-34.6c-1.3,0.1-2.5,0.1-3.6,0.1H626z M626,324.9v39.4h21.7c7,0,12.6-1.8,16.6-5.3c4-3.5,6-8.3,6-14.4
		c0-6.2-2-11-6-14.5c-4-3.5-9.6-5.2-16.7-5.2H626z"/>
	<path d="M711.6,401.3h-2.7v-76.3h-28.5v-2.6H740v2.6h-28.5V401.3z"/>
</g>
<g class="st0">
	<path d="M433.5,409.3c10.6,0,19.1,3.7,25.3,11c6.3,7.3,9.4,17.2,9.4,29.6c0,12.4-3.1,22.3-9.4,29.6c-6.3,7.3-14.7,11-25.4,11
		c-10.7,0-19.1-3.7-25.4-11c-6.3-7.3-9.4-17.2-9.4-29.6c0-12.4,3.1-22.2,9.4-29.6C414.4,412.9,422.8,409.3,433.5,409.3z
		 M433.5,411.8c-9.8,0-17.6,3.4-23.4,10.3c-5.8,6.8-8.7,16.1-8.7,27.7c0,11.6,2.9,20.8,8.7,27.7c5.8,6.9,13.6,10.3,23.4,10.3
		c9.7,0,17.5-3.4,23.3-10.3c5.8-6.9,8.7-16.1,8.7-27.7s-2.9-20.8-8.7-27.7C451,415.3,443.3,411.8,433.5,411.8z"/>
	<path d="M484,454.8v34.5h-2.7v-78.9h24.5c7.9,0,14.1,2,18.6,5.9c4.5,4,6.8,9.4,6.8,16.3c0,5.8-1.7,10.6-5,14.4
		c-3.4,3.8-8,6.3-13.9,7.3l20.8,35h-3.1l-20.6-34.6c-1.3,0.1-2.5,0.1-3.6,0.1H484z M484,412.9v39.4h21.7c7,0,12.6-1.8,16.6-5.3
		c4-3.5,6-8.3,6-14.4c0-6.2-2-11-6-14.5c-4-3.5-9.6-5.2-16.7-5.2H484z"/>
	<path d="M600.3,489.3L590,461.9h-36.7l-10.4,27.4h-3l30.4-78.9h2.8l30.4,78.9H600.3z M571.5,414.1l-17.2,45.2H589l-17.2-45.2H571.5
		z"/>
	<path d="M616.8,489.3H614v-78.9h3l52.4,73.7h0.2v-73.7h2.7v78.9h-2.5L617,415h-0.2V489.3z"/>
	<path d="M750.8,458.4c0,9.9-2.8,17.7-8.4,23.4c-5.6,5.7-13.3,8.5-23,8.5c-6.6,0-12.5-1.7-17.7-5.2c-5.2-3.4-9.2-8.3-12-14.5
		c-2.9-6.2-4.3-13.4-4.3-21.4c0-12,3.1-21.7,9.4-29c6.2-7.3,14.5-11,24.7-11c7.8,0,14.5,2.2,20.2,6.5c5.7,4.3,9.2,9.9,10.7,16.9
		h-2.7c-1.5-6.3-4.9-11.3-10-15.1c-5.1-3.8-11.2-5.7-18.2-5.7c-9.4,0-17,3.4-22.7,10.3c-5.7,6.9-8.6,15.9-8.6,27.2
		c0,11.4,2.9,20.7,8.7,27.8c5.8,7.1,13.3,10.7,22.6,10.7c8.9,0,15.9-2.6,21-7.8c5.1-5.2,7.7-12.4,7.7-21.4v-5.5h-29v-2.5h31.7V458.4
		z"/>
	<path d="M809.6,486.7v2.6h-45.2v-78.9h45.2v2.6h-42.4v34.6h40.5v2.5h-40.5v36.7H809.6z"/>
</g>
<g>
	<polygon class="st1" points="361.4,453.2 360.4,447.6 372.3,425.9 360.7,407.5 365.2,396.2 354.3,387.7 352.8,364.7 331.1,355
		327.1,345.7 320.8,343.6 311.2,328.5 291.1,329.4 274.1,314.3 258.6,319.6 253.7,316.9 241.3,322.9 217.6,317.8 208.2,327.8
		201.6,326.9 192.4,341.2 166,349.5 160.3,373.2 155.6,376.7 155.3,382 153,384.3 153.1,387.5 137.2,405 144.1,423.5 138.3,434.3
		144.5,445.1 140.3,463.2 156.3,479.5 158.1,493.8 168.5,498.9 175.7,520.8 200,525 208.1,535.6 219.9,535.2 234.2,545.7
		252.6,538.7 273.4,546.8 282.3,539.2 290.2,540.8 303.4,526.2 326.8,523.4 332.9,508.1 337.3,506.2 341.3,493.3 362.4,479.2
		359.7,455.7 	"/>
	<polygon class="st2" points="336.5,474.8 331.4,485.2 341.8,462.4 	"/>
	<polygon class="st3" points="299.8,519.8 292.5,522.7 313.2,507.5 	"/>
	<polygon class="st4" points="355.5,413.9 346.7,386.3 354.8,400.9 	"/>
	<polygon class="st5" points="203.3,520.5 195.6,516.2 221.1,525.3 	"/>
	<polygon class="st6" points="361.4,453.2 353.8,464.3 359.1,439.5 	"/>
	<polygon class="st7" points="153.2,395.6 153,384.3 165.7,371.9 	"/>
	<polygon class="st8" points="309.7,518 326.4,508.8 337.3,506.2 	"/>
	<polygon class="st9" points="337.3,506.2 326.4,508.8 342.8,488.5 	"/>
	<polygon class="st10" points="313.7,342.4 327.1,345.7 333.5,360.6 	"/>
	<polygon class="st11" points="299,336.4 327.1,345.7 313.7,342.4 	"/>
	<polygon class="st12" points="157.3,475.9 173.2,501.1 158.1,493.8 	"/>
	<polygon class="st13" points="157.3,475.9 158.1,493.8 154,461.8 	"/>
	<polygon class="st14" points="290.2,540.8 262.3,535 280.3,535.8 	"/>
	<polygon class="st15" points="290.2,540.8 280.3,535.8 304.7,524.7 	"/>
	<polygon class="st16" points="147.9,447.1 154,461.8 138.3,434.3 	"/>
	<polygon class="st13" points="145.7,420.4 147.9,447.1 138.3,434.3 	"/>
	<polygon class="st17" points="262.3,535 234.2,545.7 253.1,537.5 	"/>
	<polygon class="st18" points="274.1,314.3 299,336.4 289.1,329.5 	"/>
	<polygon class="st19" points="372.3,425.9 359,411.8 354.9,398.2 	"/>
	<polygon class="st20" points="359,411.8 350.6,384.8 354.9,398.2 	"/>
	<polygon class="st21" points="354.9,398.2 350.6,384.8 352.8,364.7 	"/>
	<polygon class="st22" points="234.2,545.7 223.6,532.6 253.1,537.5 	"/>
	<polygon class="st23" points="234.2,545.7 208,526.4 223.6,532.6 	"/>
	<polygon class="st24" points="212.8,330.4 197,339.8 217.6,317.8 	"/>
	<polygon class="st25" points="217.6,317.8 245.8,323.9 237,324.9 	"/>
	<polygon class="st26" points="212.8,330.4 217.6,317.8 237,324.9 	"/>
	<polygon class="st27" points="262.8,323.8 274.1,314.3 289.1,329.5 	"/>
	<polygon class="st28" points="245.8,323.9 262.8,323.8 237,324.9 	"/>
	<polygon class="st29" points="245.8,323.9 274.1,314.3 262.8,323.8 	"/>
	<polygon class="st30" points="189.5,345.5 197,339.8 212.8,330.4 	"/>
	<polygon class="st31" points="189.5,345.5 166,349.5 197,339.8 	"/>
	<polygon class="st32" points="372.3,425.9 358.6,435.8 359,411.8 	"/>
	<polygon class="st33" points="359,450.2 358.6,435.8 372.3,425.9 	"/>
	<polygon class="st34" points="280.3,535.8 296.4,527 304.7,524.7 	"/>
	<polygon class="st13" points="147.4,432.4 147.9,447.1 145.7,420.4 	"/>
	<polygon class="st35" points="208,526.4 196.6,520.4 223.6,532.6 	"/>
	<polygon class="st36" points="208,526.4 175.7,520.8 196.6,520.4 	"/>
	<polygon class="st37" points="168,368.8 166,349.5 189.5,345.5 	"/>
	<polygon class="st38" points="168,368.8 158.1,381.9 166,349.5 	"/>
	<polygon class="st39" points="326.8,353.1 352.8,364.7 336.4,367.2 	"/>
	<polygon class="st40" points="336.4,367.2 352.8,364.7 350.6,384.8 	"/>
	<polygon class="st41" points="223.6,532.6 241.3,534.4 253.1,537.5 	"/>
	<polygon class="st42" points="362.4,479.2 352.9,456.5 359,450.2 	"/>
	<polygon class="st43" points="352.9,456.5 358.6,435.8 359,450.2 	"/>
	<polygon class="st44" points="154.8,393.6 158.1,381.9 168,368.8 	"/>
	<polygon class="st45" points="154.8,393.6 137.2,405 158.1,381.9 	"/>
	<polygon class="st46" points="262.8,323.8 289.1,329.5 280.3,330.9 	"/>
	<polygon class="st24" points="280.3,330.9 289.1,329.5 311.2,328.5 	"/>
	<polygon class="st47" points="212.8,330.4 237,324.9 229.7,330.6 	"/>
	<polygon class="st48" points="168,368.8 189.5,345.5 182.5,356.6 	"/>
	<polygon class="st49" points="177.5,498.7 196.6,520.4 175.7,520.8 	"/>
	<polygon class="st50" points="177.5,498.7 175.7,520.8 165.1,488.6 	"/>
	<polygon class="st51" points="362.4,479.2 342.4,477.5 352.9,456.5 	"/>
	<polygon class="st52" points="337.7,495.7 342.4,477.5 362.4,479.2 	"/>
	<polygon class="st53" points="359,411.8 353.5,416.3 365.2,396.2 	"/>
	<polygon class="st54" points="358.6,435.8 353.5,416.3 359,411.8 	"/>
	<polygon class="st55" points="344.7,388.2 350.6,384.8 365.2,396.2 	"/>
	<polygon class="st56" points="344.7,388.2 365.2,396.2 353.5,416.3 	"/>
	<polygon class="st57" points="336.4,367.2 350.6,384.8 344.7,388.2 	"/>
	<polygon class="st58" points="154.8,393.6 152.6,417.6 137.2,405 	"/>
	<polygon class="st59" points="152.6,417.6 147.4,432.4 137.2,405 	"/>
	<polygon class="st60" points="326.8,353.1 336.4,367.2 319.5,355.1 	"/>
	<polygon class="st61" points="311.2,328.5 326.8,353.1 319.5,355.1 	"/>
	<polygon class="st24" points="229.7,330.6 237,324.9 253.7,316.9 	"/>
	<polygon class="st62" points="326.8,523.4 327.5,495.8 337.7,495.7 	"/>
	<polygon class="st63" points="327.5,495.8 342.4,477.5 337.7,495.7 	"/>
	<polygon class="st64" points="273.4,546.8 241.3,534.4 261,530.2 	"/>
	<polygon class="st65" points="273.4,546.8 261,530.2 287.1,523.1 	"/>
	<polygon class="st66" points="273.4,546.8 287.1,523.1 296.4,527 	"/>
	<polygon class="st67" points="296.4,527 308.2,511.4 326.8,523.4 	"/>
	<polygon class="st68" points="326.8,523.4 308.2,511.4 327.5,495.8 	"/>
	<polygon class="st69" points="287.1,523.1 308.2,511.4 296.4,527 	"/>
	<polygon class="st70" points="163.3,471.3 165.1,488.6 140.3,463.2 	"/>
	<polygon class="st71" points="177.5,498.7 165.1,488.6 163.3,471.3 	"/>
	<polygon class="st17" points="155.2,443.3 163.3,471.3 140.3,463.2 	"/>
	<polygon class="st72" points="155.2,443.3 147.4,432.4 152.6,417.6 	"/>
	<polygon class="st73" points="155.2,443.3 140.3,463.2 147.4,432.4 	"/>
	<polygon class="st74" points="297.9,345.5 311.2,328.5 319.5,355.1 	"/>
	<polygon class="st55" points="280.3,330.9 311.2,328.5 297.9,345.5 	"/>
	<polygon class="st75" points="202.4,349.3 182.5,356.6 201.6,326.9 	"/>
	<polygon class="st76" points="241.3,534.4 208.1,535.6 232.3,525.5 	"/>
	<polygon class="st77" points="241.3,534.4 232.3,525.5 261,530.2 	"/>
	<polygon class="st78" points="195,506.1 196.6,520.4 177.5,498.7 	"/>
	<polygon class="st79" points="195,506.1 208.1,535.6 196.6,520.4 	"/>
	<polygon class="st80" points="202.4,349.3 201.6,326.9 226.8,340.5 	"/>
	<polygon class="st81" points="201.6,326.9 229.7,330.6 226.8,340.5 	"/>
	<polygon class="st82" points="155.6,376.7 163,403.9 154.8,393.6 	"/>
	<polygon class="st83" points="163,403.9 152.6,417.6 154.8,393.6 	"/>
	<polygon class="st32" points="280.3,330.9 297.9,345.5 274.4,340.8 	"/>
	<polygon class="st84" points="253.7,316.9 280.3,330.9 274.4,340.8 	"/>
	<polygon class="st48" points="181.8,371.8 182.5,356.6 202.4,349.3 	"/>
	<polygon class="st85" points="181.8,371.8 155.6,376.7 182.5,356.6 	"/>
	<polygon class="st18" points="229.7,330.6 253.7,316.9 249.7,339.4 	"/>
	<polygon class="st33" points="249.7,339.4 253.7,316.9 274.4,340.8 	"/>
	<polygon class="st86" points="229.7,330.6 249.7,339.4 226.8,340.5 	"/>
	<polygon class="st87" points="344.7,388.2 353.5,416.3 339.3,405.4 	"/>
	<polygon class="st88" points="339.3,405.4 353.5,416.3 359.9,436.5 	"/>
	<polygon class="st89" points="342.4,477.5 340.5,454.8 352.9,456.5 	"/>
	<polygon class="st90" points="352.9,456.5 340.5,454.8 359.9,436.5 	"/>
	<polygon class="st91" points="319.5,355.1 336.4,367.2 338.5,369.3 	"/>
	<polygon class="st92" points="338.5,369.3 344.7,388.2 339.3,405.4 	"/>
	<polygon class="st23" points="215.2,509.3 208.1,535.6 195,506.1 	"/>
	<polygon class="st93" points="215.2,509.3 232.3,525.5 208.1,535.6 	"/>
	<polygon class="st94" points="297.9,345.5 319.5,355.1 311.8,365.3 	"/>
	<polygon class="st95" points="311.8,365.3 319.5,355.1 338.5,369.3 	"/>
	<polygon class="st96" points="261,530.2 271.2,515.7 287.1,523.1 	"/>
	<polygon class="st97" points="261,530.2 251.2,533.5 271.2,515.7 	"/>
	<polygon class="st98" points="170.3,454.5 163.3,471.3 155.2,443.3 	"/>
	<polygon class="st99" points="177.7,394.5 163,403.9 155.6,376.7 	"/>
	<polygon class="st100" points="181.8,371.8 177.7,394.5 155.6,376.7 	"/>
	<polygon class="st101" points="308.2,511.4 311.2,490.5 327.5,495.8 	"/>
	<polygon class="st102" points="339.3,405.4 359.9,436.5 331.5,424.6 	"/>
	<polygon class="st103" points="331.5,424.6 359.9,436.5 340.5,454.8 	"/>
	<polygon class="st104" points="202.4,349.3 226.8,340.5 220.3,358.2 	"/>
	<polygon class="st105" points="339.3,405.4 331.5,424.6 321.5,392.5 	"/>
	<polygon class="st106" points="338.5,369.3 339.3,405.4 321.5,392.5 	"/>
	<polygon class="st107" points="311.8,365.3 338.5,369.3 321.5,392.5 	"/>
	<polygon class="st17" points="171.3,488 195,506.1 177.5,498.7 	"/>
	<polygon class="st108" points="170.3,454.5 171.3,488 163.3,471.3 	"/>
	<polygon class="st109" points="241.6,510.7 251.2,533.5 232.3,525.5 	"/>
	<polygon class="st110" points="241.6,510.7 232.3,525.5 215.2,509.3 	"/>
	<polygon class="st111" points="241.6,510.7 271.2,515.7 251.2,533.5 	"/>
	<polygon class="st112" points="154.4,426.4 170.3,454.5 155.2,443.3 	"/>
	<polygon class="st113" points="163,403.9 154.4,426.4 152.6,417.6 	"/>
	<polygon class="st72" points="154.4,426.4 155.2,443.3 152.6,417.6 	"/>
	<polygon class="st114" points="192.7,355.1 202.4,349.3 220.3,358.2 	"/>
	<polygon class="st115" points="327.5,495.8 311.2,490.5 336,478.5 	"/>
	<polygon class="st116" points="342.4,477.5 336,478.5 340.5,454.8 	"/>
	<polygon class="st117" points="327.5,495.8 336,478.5 342.4,477.5 	"/>
	<polygon class="st118" points="249.7,339.4 274.4,340.8 266.6,354.8 	"/>
	<polygon class="st119" points="203.6,489.2 195,506.1 171.3,488 	"/>
	<polygon class="st120" points="215.2,509.3 195,506.1 203.6,489.2 	"/>
	<polygon class="st121" points="199.1,381.5 177.7,394.5 181.8,371.8 	"/>
	<polygon class="st122" points="192.7,355.1 220.3,358.2 199.1,381.5 	"/>
	<polygon class="st123" points="192.7,355.1 199.1,381.5 181.8,371.8 	"/>
	<polygon class="st124" points="287.1,523.1 271.2,515.7 297,513.3 	"/>
	<polygon class="st125" points="308.2,511.4 297,513.3 311.2,490.5 	"/>
	<polygon class="st126" points="287.1,523.1 297,513.3 308.2,511.4 	"/>
	<polygon class="st127" points="181.1,415.6 163,403.9 177.7,394.5 	"/>
	<polygon class="st128" points="181.1,415.6 154.4,426.4 163,403.9 	"/>
	<polygon class="st129" points="266.6,354.8 274.4,340.8 295,350.8 	"/>
	<polygon class="st130" points="274.4,340.8 297.9,345.5 295,350.8 	"/>
	<polygon class="st91" points="295,350.8 297.9,345.5 311.8,365.3 	"/>
	<polygon class="st131" points="331.5,424.6 340.5,454.8 318.7,444.7 	"/>
	<polygon class="st132" points="318.7,444.7 340.5,454.8 336,478.5 	"/>
	<polygon class="st133" points="192.8,465.4 171.3,488 170.3,454.5 	"/>
	<polygon class="st134" points="192.8,465.4 203.6,489.2 171.3,488 	"/>
	<polygon class="st135" points="311.8,365.3 321.5,392.5 298.9,383.3 	"/>
	<polygon class="st136" points="295,350.8 311.8,365.3 298.9,383.3 	"/>
	<polygon class="st137" points="262.8,496.7 297,513.3 271.2,515.7 	"/>
	<polygon class="st138" points="262.8,496.7 271.2,515.7 241.6,510.7 	"/>
	<polygon class="st139" points="192.8,465.4 170.3,454.5 185.8,440.5 	"/>
	<polygon class="st140" points="181.1,415.6 185.8,440.5 154.4,426.4 	"/>
	<polygon class="st141" points="185.8,440.5 170.3,454.5 154.4,426.4 	"/>
	<polygon class="st142" points="242.6,345.6 249.7,339.4 266.6,354.8 	"/>
	<polygon class="st143" points="226.8,340.5 249.7,339.4 242.6,345.6 	"/>
	<polygon class="st11" points="220.3,358.2 226.8,340.5 242.6,345.6 	"/>
	<polygon class="st144" points="318.7,444.7 336,478.5 302.7,463.9 	"/>
	<polygon class="st145" points="302.7,463.9 336,478.5 311.2,490.5 	"/>
	<polygon class="st146" points="283.4,482.2 311.2,490.5 297,513.3 	"/>
	<polygon class="st147" points="283.4,482.2 297,513.3 262.8,496.7 	"/>
	<polygon class="st148" points="302.7,463.9 311.2,490.5 283.4,482.2 	"/>
	<polygon class="st149" points="220.3,358.2 242.6,345.6 224.2,378.7 	"/>
	<polygon class="st9" points="220.3,358.2 224.2,378.7 199.1,381.5 	"/>
	<polygon class="st150" points="266.6,354.8 295,350.8 274.2,377.2 	"/>
	<polygon class="st151" points="295,350.8 298.9,383.3 274.2,377.2 	"/>
	<polygon class="st152" points="242.6,345.6 248.3,375 224.2,378.7 	"/>
	<polygon class="st153" points="242.6,345.6 266.6,354.8 248.3,375 	"/>
	<polygon class="st154" points="266.6,354.8 274.2,377.2 248.3,375 	"/>
	<polygon class="st155" points="219.4,472.3 203.6,489.2 192.8,465.4 	"/>
	<polygon class="st156" points="283.4,482.2 262.8,496.7 250.4,476.2 	"/>
	<polygon class="st157" points="204.3,425 185.8,440.5 181.1,415.6 	"/>
	<polygon class="st158" points="227,500.3 241.6,510.7 215.2,509.3 	"/>
	<polygon class="st159" points="219.4,472.3 250.4,476.2 227,500.3 	"/>
	<polygon class="st160" points="250.4,476.2 262.8,496.7 227,500.3 	"/>
	<polygon class="st161" points="227,500.3 262.8,496.7 241.6,510.7 	"/>
	<polygon class="st162" points="219.4,472.3 227,500.3 203.6,489.2 	"/>
	<polygon class="st163" points="227,500.3 215.2,509.3 203.6,489.2 	"/>
	<polygon class="st164" points="318.7,444.7 302.7,463.9 290.7,433.5 	"/>
	<polygon class="st165" points="248.3,375 225,401.2 224.2,378.7 	"/>
	<polygon class="st166" points="298.9,383.3 280.5,403.8 274.2,377.2 	"/>
	<polygon class="st167" points="321.5,392.5 331.5,424.6 315,409.7 	"/>
	<polygon class="st168" points="298.9,383.3 315,409.7 280.5,403.8 	"/>
	<polygon class="st169" points="298.9,383.3 321.5,392.5 315,409.7 	"/>
	<polygon class="st170" points="315,409.7 318.7,444.7 290.7,433.5 	"/>
	<polygon class="st171" points="315,409.7 331.5,424.6 318.7,444.7 	"/>
	<polygon class="st172" points="280.5,403.8 315,409.7 290.7,433.5 	"/>
	<polygon class="st173" points="193.9,399.7 225,401.2 204.3,425 	"/>
	<polygon class="st174" points="224.2,378.7 225,401.2 193.9,399.7 	"/>
	<polygon class="st175" points="193.9,399.7 204.3,425 181.1,415.6 	"/>
	<polygon class="st176" points="193.9,399.7 181.1,415.6 177.7,394.5 	"/>
	<polygon class="st113" points="199.1,381.5 193.9,399.7 177.7,394.5 	"/>
	<polygon class="st177" points="199.1,381.5 224.2,378.7 193.9,399.7 	"/>
	<polygon class="st178" points="240.1,451.4 250.4,476.2 219.4,472.3 	"/>
	<polygon class="st179" points="225,401.2 231.2,426.3 204.3,425 	"/>
	<polygon class="st110" points="260.6,426.9 240.1,451.4 231.2,426.3 	"/>
	<polygon class="st180" points="280.5,403.8 290.7,433.5 260.6,426.9 	"/>
	<polygon class="st181" points="206.2,452.2 240.1,451.4 219.4,472.3 	"/>
	<polygon class="st182" points="206.2,452.2 219.4,472.3 192.8,465.4 	"/>
	<polygon class="st183" points="204.3,425 206.2,452.2 185.8,440.5 	"/>
	<polygon class="st184" points="206.2,452.2 192.8,465.4 185.8,440.5 	"/>
	<polygon class="st67" points="231.2,426.3 240.1,451.4 206.2,452.2 	"/>
	<polygon class="st185" points="204.3,425 231.2,426.3 206.2,452.2 	"/>
	<polygon class="st117" points="251,394.9 280.5,403.8 260.6,426.9 	"/>
	<polygon class="st186" points="274.2,377.2 280.5,403.8 251,394.9 	"/>
	<polygon class="st187" points="248.3,375 274.2,377.2 251,394.9 	"/>
	<polygon class="st188" points="251,394.9 260.6,426.9 231.2,426.3 	"/>
	<polygon class="st189" points="248.3,375 251,394.9 225,401.2 	"/>
	<polygon class="st190" points="225,401.2 251,394.9 231.2,426.3 	"/>
	<polygon class="st191" points="290.7,433.5 302.7,463.9 273.4,458.8 	"/>
	<polygon class="st192" points="273.4,458.8 302.7,463.9 283.4,482.2 	"/>
	<polygon class="st193" points="260.6,426.9 273.4,458.8 240.1,451.4 	"/>
	<polygon class="st194" points="260.6,426.9 290.7,433.5 273.4,458.8 	"/>
	<polygon class="st195" points="273.4,458.8 283.4,482.2 250.4,476.2 	"/>
	<polygon class="st196" points="240.1,451.4 273.4,458.8 250.4,476.2 	"/>
</g>
<g class="st0">
	<path class="st197" d="M409.9,516.8c-1.5,0-2.7,0.8-3.6,2.4s-1.3,3.8-1.3,6.6c0,1.8,0.2,3.4,0.6,4.8s1,2.4,1.8,3.1s1.7,1.1,2.7,1.1
		c1,0,1.9-0.2,2.7-0.6v1.2c-0.7,0.4-1.6,0.6-2.8,0.6c-1.3,0-2.4-0.4-3.3-1.2c-1-0.8-1.7-2-2.2-3.6s-0.8-3.4-0.8-5.5
		c0-3.2,0.6-5.7,1.7-7.5s2.7-2.7,4.6-2.7c1.2,0,2.3,0.3,3.2,0.8l-0.6,1.2C411.8,517,410.9,516.8,409.9,516.8z"/>
	<path class="st197" d="M427.6,525.8c0,3.3-0.5,5.9-1.5,7.6c-1,1.8-2.4,2.7-4.3,2.7c-1.9,0-3.3-0.9-4.3-2.7c-1-1.8-1.5-4.3-1.5-7.6
		c0-3.4,0.5-6,1.4-7.7c1-1.7,2.4-2.5,4.3-2.5c1.9,0,3.3,0.9,4.3,2.7C427.1,519.9,427.6,522.5,427.6,525.8z M417.5,525.8
		c0,3,0.4,5.2,1.1,6.7c0.7,1.5,1.8,2.3,3.2,2.3c1.4,0,2.5-0.8,3.3-2.3c0.7-1.5,1.1-3.8,1.1-6.8c0-3-0.4-5.2-1.1-6.7
		c-0.7-1.5-1.8-2.3-3.2-2.3c-1.5,0-2.6,0.8-3.3,2.3C417.8,520.6,417.5,522.8,417.5,525.8z"/>
	<path class="st197" d="M439.2,530.4c0,1.8-0.4,3.2-1.3,4.1c-0.9,1-2.1,1.5-3.8,1.5c-1.3,0-2.4-0.3-3.5-0.8v-1.5
		c0.5,0.3,1,0.5,1.6,0.7c0.6,0.2,1.2,0.3,1.9,0.3c2.5,0,3.7-1.4,3.7-4.3c0-1.5-0.4-2.6-1.1-3.3s-1.8-1.1-3.3-1.1h-1.4v-1.3h1.4
		c1.3,0,2.3-0.4,3-1.1c0.7-0.7,1.1-1.8,1.1-3.3c0-1.2-0.3-2.1-0.8-2.7s-1.3-0.9-2.2-0.9c-0.5,0-1,0.1-1.5,0.4s-0.8,0.5-1.1,0.9
		l-0.9-0.9c1-1.1,2.2-1.6,3.6-1.6c1.4,0,2.4,0.4,3.2,1.3c0.8,0.9,1.1,2,1.1,3.6c0,1.3-0.3,2.4-0.9,3.3s-1.4,1.5-2.5,1.7v0.1
		c1.2,0.2,2.1,0.7,2.8,1.5C438.9,527.9,439.2,529,439.2,530.4z"/>
	<path class="st197" d="M453.9,540.8h-1.3v-5H443v5h-1.3v-6.3h1.2c1.1-3.3,1.8-6.3,2.3-9.2s0.7-6,0.7-9.5h6.2v18.7h1.7V540.8z
		 M450.8,534.5v-17.4h-3.6c-0.2,6.4-1.2,12.2-2.9,17.4H450.8z"/>
	<path class="st197" d="M464.9,535.8l-1.8-7.2h-4.9l-1.7,7.2h-1.4l4.8-20h1.4l4.9,20H464.9z M462.8,527.2l-1.8-7.5
		c-0.2-0.8-0.3-1.6-0.4-2.4c-0.1,0.8-0.2,1.6-0.4,2.4l-1.7,7.5H462.8z"/>
	<path class="st197" d="M478.8,535.8h-1.3V526h-7v9.8h-1.3v-20h1.3v8.9h7v-8.9h1.3V535.8z"/>
	<path class="st197" d="M483.9,515.8h1.3v14c0,0.3,0,0.6,0,0.9s0,1.2-0.1,2.8h0.1l7.5-17.7h1.7v20h-1.3v-14.3c0-1.1,0.1-2.3,0.2-3.6
		h-0.1l-7.6,17.9h-1.7V515.8z"/>
	<path class="st197" d="M506.7,535.8h-7.2v-20h7.2v1.3h-5.9v7.6h5.6v1.3h-5.6v8.5h5.9V535.8z"/>
	<path class="st197" d="M516.9,515.8h1.3v14c0,0.3,0,0.6,0,0.9s0,1.2-0.1,2.8h0.1l7.5-17.7h1.7v20h-1.3v-14.3c0-1.1,0.1-2.3,0.2-3.6
		h-0.1l-7.6,17.9h-1.7V515.8z"/>
	<path class="st197" d="M548.1,535.8h-1.3v-18.7h-7v18.7h-1.3v-20h9.7V535.8z"/>
	<path class="st197" d="M561.6,521.5c0,2.1-0.5,3.6-1.4,4.5s-2.3,1.4-4.2,1.4h-1.4v8.3h-1.3v-20h2.7c2,0,3.4,0.5,4.3,1.4
		S561.6,519.6,561.6,521.5z M554.6,526.3h1.3c1.6,0,2.7-0.4,3.3-1.1s1-2,1-3.7c0-1.6-0.3-2.8-1-3.5c-0.7-0.7-1.7-1-3.2-1h-1.5V526.3
		z"/>
	<path class="st197" d="M576.3,525.8c0,3.3-0.5,5.9-1.5,7.6c-1,1.8-2.4,2.7-4.3,2.7c-1.9,0-3.3-0.9-4.3-2.7c-1-1.8-1.5-4.3-1.5-7.6
		c0-3.4,0.5-6,1.4-7.7c1-1.7,2.4-2.5,4.3-2.5c1.9,0,3.3,0.9,4.3,2.7C575.8,519.9,576.3,522.5,576.3,525.8z M566.1,525.8
		c0,3,0.4,5.2,1.1,6.7c0.7,1.5,1.8,2.3,3.2,2.3c1.4,0,2.5-0.8,3.3-2.3c0.7-1.5,1.1-3.8,1.1-6.8c0-3-0.4-5.2-1.1-6.7
		c-0.7-1.5-1.8-2.3-3.2-2.3c-1.5,0-2.6,0.8-3.3,2.3C566.5,520.6,566.1,522.8,566.1,525.8z"/>
	<path class="st197" d="M590.7,540.8h-1.3v-5h-9.6v5h-1.3v-6.3h1.2c1.1-3.3,1.8-6.3,2.3-9.2s0.7-6,0.7-9.5h6.2v18.7h1.7V540.8z
		 M587.7,534.5v-17.4h-3.6c-0.2,6.4-1.2,12.2-2.9,17.4H587.7z"/>
	<path class="st197" d="M594.2,515.8h3.8c1.6,0,2.8,0.4,3.6,1.2s1.3,2,1.3,3.6c0,2.7-1,4.3-3,4.6v0.1c1.1,0.2,2,0.7,2.5,1.5
		s0.8,1.9,0.8,3.3c0,1.8-0.4,3.2-1.2,4.2s-1.9,1.5-3.3,1.5h-4.6V515.8z M595.5,524.7h2.5c1.2,0,2.1-0.3,2.7-1s0.8-1.7,0.8-3.1
		c0-1.1-0.3-2-0.9-2.6s-1.5-0.9-2.6-0.9h-2.5V524.7z M595.5,525.9v8.6h3.1c2.2,0,3.3-1.5,3.3-4.5c0-1.3-0.3-2.4-1-3.1
		s-1.6-1.1-2.7-1.1H595.5z"/>
	<path class="st197" d="M607.3,515.8h1.3v14c0,0.3,0,0.6,0,0.9s0,1.2-0.1,2.8h0.1l7.5-17.7h1.7v20h-1.3v-14.3c0-1.1,0.1-2.3,0.2-3.6
		h-0.1l-7.6,17.9h-1.7V515.8z"/>
	<path class="st197" d="M627.7,515.8h1.3v9.7l5.4-9.7h1.4l-5.5,9.7l5.6,10.3h-1.5l-5.5-10.2v10.2h-1.3v-10.2l-5.5,10.2h-1.5
		l5.6-10.3l-5.5-9.7h1.5l5.4,9.7V515.8z"/>
	<path class="st197" d="M646.2,535.8h-7.2v-20h7.2v1.3h-5.9v7.6h5.6v1.3h-5.6v8.5h5.9V535.8z"/>
	<path class="st197" d="M660.1,535.8h-1.3V526h-7v9.8h-1.3v-20h1.3v8.9h7v-8.9h1.3V535.8z"/>
	<path class="st197" d="M665.1,515.8h1.3v14c0,0.3,0,0.6,0,0.9s0,1.2-0.1,2.8h0.1l7.5-17.7h1.7v20h-1.3v-14.3c0-1.1,0.1-2.3,0.2-3.6
		h-0.1l-7.6,17.9h-1.7V515.8z"/>
	<path class="st197" d="M688,535.8h-7.2v-20h7.2v1.3h-5.9v7.6h5.6v1.3h-5.6v8.5h5.9V535.8z"/>
	<path class="st197" d="M703.8,516.8c-1.5,0-2.7,0.8-3.6,2.4s-1.3,3.8-1.3,6.6c0,1.8,0.2,3.4,0.6,4.8s1,2.4,1.8,3.1s1.7,1.1,2.7,1.1
		c1,0,1.9-0.2,2.7-0.6v1.2c-0.7,0.4-1.6,0.6-2.8,0.6c-1.3,0-2.4-0.4-3.3-1.2c-1-0.8-1.7-2-2.2-3.6s-0.8-3.4-0.8-5.5
		c0-3.2,0.6-5.7,1.7-7.5s2.7-2.7,4.6-2.7c1.2,0,2.3,0.3,3.2,0.8l-0.6,1.2C705.7,517,704.8,516.8,703.8,516.8z"/>
	<path class="st197" d="M718.2,535.8l-1.8-7.2h-4.9l-1.7,7.2h-1.4l4.8-20h1.4l4.9,20H718.2z M716.1,527.2l-1.8-7.5
		c-0.2-0.8-0.3-1.6-0.4-2.4c-0.1,0.8-0.2,1.6-0.4,2.4l-1.7,7.5H716.1z"/>
	<path class="st197" d="M722.4,515.8h1.3v14c0,0.3,0,0.6,0,0.9s0,1.2-0.1,2.8h0.1l7.5-17.7h1.7v20h-1.3v-14.3c0-1.1,0.1-2.3,0.2-3.6
		h-0.1l-7.6,17.9h-1.7V515.8z M727.7,514.2c-1.1,0-2-0.3-2.5-0.9s-0.9-1.6-1-2.9h1.3c0.1,1,0.3,1.8,0.7,2.2s0.9,0.6,1.6,0.6
		c0.8,0,1.3-0.2,1.7-0.7s0.6-1.2,0.6-2.1h1.3C731.1,512.9,729.9,514.2,727.7,514.2z"/>
	<path class="st197" d="M741.4,535.8H740v-18.7h-4v-1.3h9.3v1.3h-4V535.8z"/>
	<path class="st197" d="M759.3,525.8c0,3.3-0.5,5.9-1.5,7.6s-2.4,2.7-4.3,2.7c-1.9,0-3.3-0.9-4.3-2.7s-1.5-4.3-1.5-7.6
		c0-3.4,0.5-6,1.4-7.7s2.4-2.5,4.3-2.5c1.9,0,3.3,0.9,4.3,2.7S759.3,522.5,759.3,525.8z M749.2,525.8c0,3,0.4,5.2,1.1,6.7
		s1.8,2.3,3.2,2.3c1.4,0,2.5-0.8,3.3-2.3s1.1-3.8,1.1-6.8c0-3-0.4-5.2-1.1-6.7s-1.8-2.3-3.2-2.3c-1.5,0-2.6,0.8-3.3,2.3
		S749.2,522.8,749.2,525.8z"/>
	<path class="st197" d="M763.7,515.8h3.8c1.6,0,2.8,0.4,3.6,1.2s1.3,2,1.3,3.6c0,2.7-1,4.3-3,4.6v0.1c1.1,0.2,2,0.7,2.5,1.5
		s0.8,1.9,0.8,3.3c0,1.8-0.4,3.2-1.2,4.2s-1.9,1.5-3.3,1.5h-4.6V515.8z M765.1,524.7h2.5c1.2,0,2.1-0.3,2.7-1s0.8-1.7,0.8-3.1
		c0-1.1-0.3-2-0.9-2.6s-1.5-0.9-2.6-0.9h-2.5V524.7z M765.1,525.9v8.6h3.1c2.2,0,3.3-1.5,3.3-4.5c0-1.3-0.3-2.4-1-3.1
		s-1.6-1.1-2.7-1.1H765.1z"/>
</g>
<polygon class="st198" points="155.6,312 178.8,321.9 187.5,342.7 "/>
<polygon class="st199" points="182.5,313.2 187.5,342.7 178.8,321.9 170.8,304.3 "/>
<polygon class="st200" points="138.6,304.3 155.6,312 178.8,321.9 170.8,304.3 "/>
<polygon class="st201" points="157,291.7 170.8,304.3 138.6,304.3 "/>
<polygon class="st198" points="130.5,291.7 157,291.7 138.6,304.3 "/>
<polygon class="st200" points="157,291.7 174.9,293 158.7,282.7 130.5,291.7 "/>
<polygon class="st199" points="183.3,293 174.9,293 158.7,282.7 "/>
<polygon class="st198" points="182.5,313.2 174.9,293 157,291.7 170.8,304.3 "/>
<polygon class="st198" points="192.4,341.2 182.5,313.2 187.5,342.7 "/>
<polygon class="st200" points="183.3,293 192.4,341.2 182.5,313.2 174.9,293 "/>
</svg>
